<?xml version="1.0" encoding="UTF-8"?>
<svg id="Layer_2" data-name="Layer 2" xmlns="http://www.w3.org/2000/svg" viewBox="0 0 20.76 19.1">
  <defs>
    <style>
      .cls-1 {
        fill: #fff;
      }
    </style>
  </defs>
  <g id="Layer_1-2" data-name="Layer 1">
    <path class="cls-1" d="M3.31,10.64c-.43-.09-.77-.26-1-.52-.24-.26-.41-.57-.52-.94-.13,.13-.29,.26-.47,.39-.18,.13-.37,.22-.55,.27-.18,.05-.34,.05-.48-.02-.14-.06-.23-.21-.27-.45-.04-.24,0-.46,.15-.66,.14-.2,.29-.39,.44-.57,.19-.24,.38-.46,.57-.68,.18-.22,.32-.46,.4-.74,0-.15,0-.3,.02-.44,.01-.14,0-.26-.02-.37,0-.09,.04-.15,.11-.19,.08-.04,.16-.05,.24-.03,.09,.02,.17,.06,.24,.11,.08,.05,.11,.12,.11,.21,.02,.37,.03,.73,.03,1.08s.01,.72,.03,1.08c.02,.3,.08,.64,.18,1,.1,.37,.3,.64,.6,.81,.19,.11,.37,.14,.52,.1,.15-.04,.27-.12,.36-.24,.09-.12,.15-.26,.18-.44,.03-.17,.04-.33,.02-.48-.04-.3-.11-.61-.19-.92-.09-.31-.17-.62-.26-.92-.04-.09-.03-.16,.03-.21,.06-.05,.14-.08,.23-.08s.17,.02,.26,.06c.09,.04,.14,.11,.16,.19,.11,.39,.24,.81,.39,1.28,.15,.46,.18,.9,.1,1.31-.06,.37-.25,.64-.57,.81-.31,.17-.65,.24-1.02,.19Zm-2.42-1.55c.11-.02,.24-.1,.39-.23,.15-.13,.28-.25,.39-.36-.02-.11-.04-.21-.05-.32-.01-.11-.02-.22-.02-.32-.06,.11-.13,.2-.21,.27-.08,.08-.16,.17-.24,.27-.04,.04-.1,.1-.16,.18-.06,.08-.12,.15-.18,.23-.05,.08-.08,.14-.08,.19s.05,.08,.16,.08ZM20.02,4.57c0-.09,.04-.15,.13-.18,.09-.03,.18-.04,.27-.03,.1,.01,.18,.04,.24,.1,.06,.05,.1,.12,.1,.21-.04,.37-.13,.73-.26,1.1-.13,.37-.41,.59-.84,.68-.41,.06-.73-.04-.97-.32-.11,.19-.25,.34-.44,.45-.18,.11-.4,.14-.66,.1-.37-.06-.62-.28-.78-.65-.26,.3-.54,.51-.84,.61-.67,.24-1.26,.12-1.78-.36l-.23-.23h-.03s-.04,.09-.06,.15c-.02,.05-.04,.1-.06,.15-.09,.15-.17,.3-.24,.45-.08,.15-.17,.3-.27,.45-.24,.41-.57,.8-1,1.16,.65,.11,1.29,.23,1.94,.36,.65,.13,1.29,.28,1.94,.45,.04,0,.15,.02,.32,.06,.24,.06,.3,.17,.19,.32-.11,.15-.26,.2-.45,.16-.04,0-.08,0-.11-.02-.03-.01-.07-.02-.11-.02-.45-.09-.88-.11-1.29-.06-.41,.04-.81,.13-1.21,.26-.4,.13-.8,.28-1.2,.45-.4,.17-.8,.32-1.21,.44-.28,.08-.56,.15-.84,.2-.28,.05-.57,.09-.87,.11,0,.41,0,.81,.02,1.21,.01,.39,.03,.79,.05,1.21,.04,1.06,.31,1.74,.81,2.03,.5,.29,1.23,.09,2.2-.6-.26-.22-.52-.4-.79-.57-.27-.16-.55-.27-.86-.34-.17-.04-.23-.15-.16-.31,.06-.16,.15-.26,.26-.31,1.38-.54,2.81-.65,4.3-.32,.15,.02,.2,.11,.16,.26-.04,.15-.1,.25-.16,.29-.28,.19-.56,.39-.84,.6-.28,.21-.56,.42-.84,.63,.11,.09,.23,.17,.36,.26,.13,.09,.26,.16,.39,.23,.34,.17,.71,.25,1.1,.23,.39-.02,.61-.27,.68-.74,.04-.41,0-.81-.15-1.2-.14-.39-.23-.79-.27-1.2,0-.09,.03-.17,.08-.24,.05-.08,.12-.13,.19-.18,.07-.04,.15-.06,.23-.05,.07,.01,.11,.06,.11,.15,.02,.24,.06,.47,.13,.71,.06,.24,.12,.47,.18,.71,.05,.24,.1,.47,.13,.71,.03,.24,.02,.47-.05,.71-.09,.37-.26,.67-.53,.92-.27,.25-.61,.38-1.02,.4-.43,0-.82-.1-1.16-.31-.34-.2-.68-.44-1-.69-.02,0-.03,.01-.03,.03-.32,.24-.65,.46-.99,.66-.33,.2-.69,.33-1.08,.37-.3,.04-.57,.01-.79-.1-.23-.11-.42-.26-.58-.45s-.29-.43-.39-.69c-.1-.27-.16-.53-.18-.79-.06-.54-.1-1.08-.11-1.62-.01-.54-.02-1.08-.02-1.62-.11-.02-.22-.04-.32-.06-.11-.02-.22-.05-.32-.1,0,.17-.01,.3-.03,.39-.04,.56-.18,1.08-.42,1.57-.24,.48-.55,.91-.94,1.28,.26,.04,.52,.11,.79,.19,.27,.09,.5,.21,.68,.36,.18,.15,.31,.33,.37,.55,.06,.22,.03,.47-.1,.78-.28,.56-.7,1.06-1.26,1.5-.56,.44-1.12,.78-1.68,1.02-.52,.24-1.09,.4-1.73,.48-.64,.09-1.21-.03-1.73-.36-.3-.19-.52-.45-.65-.76-.13-.31-.2-.65-.21-1s.02-.71,.08-1.07c.06-.36,.13-.68,.19-.99,.04-.17,.18-.26,.42-.26s.33,.09,.29,.26c-.06,.24-.12,.51-.18,.81-.05,.3-.09,.6-.1,.9-.01,.3,.02,.59,.1,.87,.07,.28,.21,.51,.4,.68,.34,.3,.76,.43,1.24,.37,.48-.05,.91-.16,1.28-.31,.93-.34,1.72-.9,2.39-1.68,.09-.09,.18-.19,.27-.32,.1-.13,.17-.26,.21-.4,.04-.14,.05-.27,.03-.39-.02-.12-.11-.23-.26-.34-.24-.15-.5-.25-.79-.31-.29-.05-.58-.08-.86-.08-.15,0-.25-.05-.31-.16-.05-.11-.02-.22,.11-.32,.54-.37,.94-.83,1.21-1.39,.27-.56,.41-1.17,.44-1.84v-.39s-.07-.04-.08-.05c-.01-.01-.04-.03-.08-.05-.56-.43-.92-.99-1.08-1.66-.16-.68-.26-1.35-.31-2.02-.06-.9-.09-1.79-.08-2.67,.01-.87,0-1.76-.05-2.67,0-.17,.12-.25,.36-.23,.24,.02,.37,.13,.39,.32,.04,.86,.05,1.72,.03,2.58-.02,.86,0,1.72,.06,2.58,.04,.5,.11,1.03,.19,1.6,.09,.57,.3,1.05,.65,1.44,0-.65-.01-1.29-.03-1.94-.02-.65-.04-1.29-.06-1.94-.02-.93-.05-1.85-.08-2.78-.03-.93-.08-1.85-.15-2.78,0-.09,.03-.16,.1-.23,.06-.06,.14-.11,.23-.13,.09-.02,.17-.02,.26,.02,.09,.03,.13,.09,.13,.18,.04,.5,.07,.99,.08,1.49,.01,.5,.04,.99,.08,1.49,.04,1.08,.07,2.14,.1,3.18,.02,1.04,.04,2.11,.06,3.18v.84c.24,.11,.45,.17,.65,.19v-.68c-.02-1.42-.03-2.83-.02-4.22,.01-1.39,0-2.79-.05-4.22,0-.09,.03-.17,.08-.24,.05-.08,.12-.12,.19-.15,.08-.02,.15-.02,.23,.02,.08,.03,.11,.1,.11,.21,.04,1.55,.06,3.1,.05,4.65-.01,1.55,0,3.1,.05,4.65,.47-.02,.95-.12,1.42-.29,.47-.17,.92-.34,1.32-.52,.28-.11,.55-.21,.82-.31,.27-.1,.54-.18,.82-.24-.37-.09-.74-.16-1.13-.23s-.78-.13-1.16-.19c-.11-.02-.21-.09-.29-.19-.09-.11-.05-.2,.1-.29,.32-.17,.6-.4,.84-.68,.24-.28,.45-.58,.65-.9,.11-.19,.23-.44,.36-.74,.13-.3,.31-.51,.55-.61,.15-.06,.28-.08,.39-.03,.11,.04,.2,.11,.29,.19,.09,.09,.17,.18,.26,.27,.09,.1,.18,.18,.29,.24,.22,.13,.42,.16,.61,.1,.19-.06,.37-.17,.53-.32,.16-.15,.31-.33,.44-.53,.13-.2,.24-.39,.32-.57,.06-.13,.2-.18,.4-.15,.2,.03,.3,.13,.27,.31-.02,.13-.05,.31-.08,.55-.03,.24,.02,.41,.15,.52,.13,.11,.24,.13,.32,.08,.09-.05,.16-.14,.23-.26,.06-.12,.11-.24,.15-.37s.05-.23,.05-.29c.04-.15,.17-.23,.37-.23s.33,.09,.37,.26c.02,.09,.05,.18,.08,.29,.03,.11,.08,.2,.15,.27,.06,.08,.13,.12,.21,.13,.08,.01,.17-.05,.27-.18,.13-.15,.2-.33,.23-.55,.02-.22,.03-.41,.03-.58ZM2.08,12.19c-.17,.24-.31,.51-.42,.81-.02,.06-.04,.15-.06,.24-.02,.1-.02,.17,0,.21,.04,.19,.13,.26,.26,.19s.24-.12,.32-.16c.11-.06,.19-.04,.26,.06,.06,.11,.04,.19-.06,.26-.17,.11-.39,.18-.65,.21-.26,.03-.42-.1-.48-.4-.06-.26-.03-.54,.1-.84,.13-.3,.27-.56,.42-.78,.06-.11,.15-.13,.26-.06,.11,.06,.13,.15,.06,.26Zm-.48-8.01c-.11,.04-.19,.01-.24-.1-.05-.11-.03-.18,.08-.23,.45-.26,.9-.52,1.34-.79,.44-.27,.88-.54,1.31-.82,.11-.06,.19-.05,.26,.05,.06,.1,.04,.18-.06,.24-.43,.3-.87,.59-1.32,.86-.45,.27-.9,.53-1.36,.79Zm2.39,1.26c.11,0,.19,.04,.24,.11,.05,.08,.08,.16,.08,.26s-.03,.18-.08,.26c-.05,.08-.13,.11-.24,.11-.13,0-.22-.04-.27-.11-.05-.08-.08-.16-.08-.26s.03-.18,.08-.26c.05-.08,.15-.11,.27-.11Zm-.32,6.72c-.04-.11-.01-.19,.1-.24,.11-.05,.18-.03,.23,.08,.28,.6,.47,1.26,.58,1.97,.02,.13-.03,.21-.15,.24-.12,.03-.19-.02-.21-.15-.04-.32-.11-.65-.19-.97-.09-.32-.21-.64-.36-.94ZM10.35,1.82c-.11,.04-.18,0-.21-.11-.03-.12,0-.2,.11-.24,.26-.06,.47-.04,.65,.06,.17,.11,.31,.25,.42,.42,.11-.37,.31-.6,.61-.71,.11-.04,.18,0,.21,.11,.03,.12,0,.2-.11,.24-.24,.09-.37,.24-.39,.47s-.02,.45,0,.66c0,.11-.05,.17-.16,.18-.11,.01-.17-.04-.19-.15-.06-.21-.17-.45-.31-.69-.14-.25-.35-.33-.63-.24Zm.03,2.04c-.06-.11-.04-.19,.06-.24,.11-.05,.18-.03,.23,.08,.41,.8,.66,1.62,.74,2.46,.02,.13-.03,.19-.16,.18-.13-.01-.21-.07-.23-.18-.06-.75-.28-1.52-.65-2.29Zm.42,13.38c.09-.04,.2-.08,.34-.1,.14-.02,.28-.03,.42-.02,.14,.01,.27,.04,.39,.1,.12,.05,.2,.15,.24,.27,.02,.11,0,.21-.06,.31-.06,.1-.16,.19-.27,.27-.12,.09-.24,.17-.37,.24-.13,.08-.23,.12-.29,.15-.11,.04-.18,0-.21-.11-.03-.12,0-.2,.11-.24,.11-.04,.25-.11,.42-.21,.17-.1,.27-.2,.29-.31-.11-.09-.25-.12-.44-.1-.18,.02-.34,.05-.47,.1-.11,.04-.18,0-.21-.11-.03-.12,0-.2,.11-.24Zm3.46-3.59c-.75-.11-1.51-.08-2.26,.1,.19,.11,.38,.23,.55,.36,.17,.13,.34,.27,.52,.42,.19-.15,.39-.3,.6-.44,.2-.14,.4-.29,.6-.44Zm.87-10.86c-.15,.11-.33,.15-.55,.13-.22-.02-.38-.11-.48-.26-.11-.13-.15-.27-.13-.42,.02-.15,.1-.28,.23-.39,.15-.11,.32-.18,.5-.21,.18-.03,.35,.04,.5,.21,.11,.13,.17,.29,.18,.48,.01,.19-.07,.34-.24,.45Zm-.23-.68c-.09-.13-.22-.15-.39-.06,0,.04-.02,.06-.06,.06-.06,.04-.1,.1-.1,.18s.02,.13,.06,.18c.04,.04,.12,.07,.23,.08,.11,.01,.19,0,.26-.05,.06-.04,.09-.11,.08-.19-.01-.09-.04-.15-.08-.19Zm3.3,11.41c.24-.17,.48-.23,.74-.18,.26,.05,.46,.21,.61,.47,.17,.28,.27,.6,.31,.95s.03,.68-.02,.99c-.11,.69-.39,1.32-.84,1.91-.45,.58-1.02,.97-1.71,1.16-.32,.11-.65,.15-.97,.11s-.61-.12-.87-.27c-.26-.15-.46-.36-.61-.61-.15-.26-.21-.58-.16-.97,.02-.17,.13-.28,.32-.32,.19-.04,.28,.05,.26,.29-.02,.26,.03,.47,.15,.63,.12,.16,.27,.29,.47,.39s.4,.16,.63,.18c.23,.02,.44,.01,.63-.03,.39-.09,.74-.25,1.05-.5,.31-.25,.57-.55,.76-.92,.19-.32,.3-.68,.32-1.07-.3,0-.59-.05-.86-.15-.27-.1-.48-.3-.63-.6-.11-.26-.12-.52-.05-.79,.08-.27,.23-.49,.47-.66Zm-3.04-2.23c-.11,0-.19-.04-.26-.11-.06-.07-.1-.15-.1-.25s.03-.17,.1-.25c.06-.07,.15-.11,.26-.11,.13,0,.22,.04,.27,.11,.05,.07,.08,.15,.08,.25s-.03,.18-.08,.25c-.05,.07-.15,.11-.27,.11Zm.45-3.65c.11,0,.19,.04,.26,.11,.06,.08,.1,.17,.1,.27v.03c0,.24-.12,.36-.36,.36s-.36-.12-.36-.36v-.03c0-.26,.12-.39,.36-.39Zm.42,2.84c.11,0,.19,.04,.24,.11,.05,.07,.08,.15,.08,.25s-.03,.18-.08,.25c-.05,.07-.13,.11-.24,.11h-.03c-.13,0-.22-.04-.27-.11-.05-.07-.08-.15-.08-.25s.03-.17,.08-.25c.05-.07,.15-.11,.27-.11h.03Zm3.78-.48c.11-.04,.19-.01,.26,.1,.06,.11,.04,.18-.06,.23-.45,.22-.9,.43-1.34,.63-.44,.21-.88,.42-1.31,.63-.11,.04-.19,.02-.24-.08-.05-.1-.03-.18,.08-.24l2.62-1.26Zm-1.97-6.82c-.11,.04-.18,0-.21-.11-.03-.12,0-.2,.11-.24,.56-.13,1.1-.42,1.62-.87-.24,0-.42-.1-.53-.31-.12-.2-.11-.43,.02-.66,.11-.17,.29-.3,.53-.39,.25-.09,.46-.04,.63,.13,.22,.19,.25,.44,.11,.74-.14,.3-.29,.53-.44,.68-.24,.26-.52,.47-.84,.65-.32,.17-.66,.3-1,.39Zm.81,5.01c-.17,.3-.27,.59-.29,.87v.23c0,.11,.04,.16,.13,.16s.15-.04,.19-.13c.04-.09,.08-.15,.1-.19,.06-.11,.15-.13,.24-.06s.12,.15,.08,.26c-.11,.17-.26,.32-.45,.45-.19,.13-.38,.08-.55-.16-.15-.22-.18-.48-.08-.81,.1-.32,.2-.58,.31-.78,.04-.11,.12-.13,.23-.08,.11,.05,.14,.13,.1,.24Zm-.26,6.46c.11,.15,.24,.25,.39,.31,.15,.05,.31,.08,.48,.08-.04-.22-.11-.44-.19-.68-.04-.09-.1-.17-.16-.24-.06-.08-.15-.11-.26-.11-.19,0-.3,.08-.32,.23-.02,.15,0,.29,.06,.42Zm1.32-13.15c.09-.17,.1-.3,.05-.39-.05-.09-.13-.13-.24-.13-.22,0-.3,.1-.26,.31,.04,.2,.14,.35,.29,.44,.09-.09,.14-.16,.16-.23Z"/>
  </g>
</svg>