<?xml version="1.0" encoding="UTF-8"?>
<svg id="Layer_2" data-name="Layer 2" xmlns="http://www.w3.org/2000/svg" viewBox="0 0 284 26.79">
  <defs>
    <style>
      .cls-1 {
        fill: #fff;
      }
    </style>
  </defs>
  <g id="Layer_1-2" data-name="Layer 1">
    <g>
      <path class="cls-1" d="M140.66,10.92l2.4-.07c1,0,1.67,.21,2.01,.64,.17,.19,.25,.38,.25,.57s-.06,.36-.18,.5c-.29,.36-.82,.54-1.61,.54-1.36,0-2.57-.52-3.62-1.58-2.67,.41-4.7,1.83-6.09,4.26-.88,1.58-1.33,3.12-1.33,4.62,0,.84,.13,1.66,.39,2.47,.79,2.29,2.49,3.44,5.12,3.44,2.34,0,4.37-.79,6.09-2.36s2.58-3.14,2.58-4.69c0-.74-.32-1.35-.95-1.84-.63-.49-1.3-.78-2.01-.86-.71-.08-1.3-.12-1.79-.12s-1.12,.05-1.9,.16c-.78,.11-1.55,.42-2.31,.95-.91,.62-1.36,1.44-1.36,2.47s.8,1.96,2.4,2.79c.24,.14,.34,.33,.3,.56-.04,.23-.14,.29-.3,.2-1.5-.81-2.57-1.73-3.19-2.76-.43-.67-.64-1.23-.64-1.68s.06-.82,.18-1.11c.29-.84,1-1.54,2.15-2.11s2.6-.86,4.37-.86h6.34c1.24,0,2.77-.42,4.58-1.25,.88-.41,1.53-.88,1.93-1.43,.19-.29,.29-.59,.29-.91s-.07-.6-.21-.84c-.14-.24-.2-.41-.18-.5,.02-.09,.09-.14,.2-.14s.2,.06,.27,.18c.33,.57,.5,1.12,.5,1.63s-.16,.98-.46,1.41c-.6,.91-1.61,1.64-3.04,2.18-1.43,.55-2.91,.82-4.44,.82h-.18c.91,.74,1.36,1.68,1.36,2.83,0,1.6-.93,3.25-2.79,4.94-.88,.84-2.02,1.52-3.4,2.04-1.38,.52-2.84,.79-4.37,.79-3.7,0-6.32-1.07-7.84-3.22-.76-1.07-1.15-2.11-1.15-3.12s.16-1.93,.47-2.79c.83-2.27,2.52-4.02,5.05-5.26,1.46-.72,3.09-1.17,4.91-1.36-.67-.93-1-2.1-.99-3.51s.63-2.73,1.85-3.98c1.22-1.24,2.62-2.14,4.21-2.7s3.13-.84,4.64-.84c1.24,0,2.3,.25,3.17,.75,.87,.5,1.31,1.3,1.31,2.4,0,.69-.21,1.31-.64,1.84s-.91,.81-1.45,.81-.97-.16-1.29-.48-.48-.72-.48-1.2,.16-.87,.48-1.18c.32-.31,.7-.47,1.13-.47,.29,0,.56,.07,.82,.2s.42,.28,.47,.45c.02-.14,.04-.29,.04-.43,0-.52-.21-.93-.64-1.22-.45-.33-1.13-.5-2.04-.5s-1.97,.25-3.19,.73c-1.22,.49-2.36,1.2-3.44,2.13-1.08,.93-1.92,2.08-2.54,3.44-.34,.76-.5,1.44-.5,2.04s.11,1.13,.32,1.61Zm4.05,1.11c0-.43-.88-.64-2.65-.64-.36,0-.73,.01-1.11,.04,.57,.72,1.34,1.07,2.31,1.07s1.45-.16,1.45-.47Z"/>
      <g>
        <rect class="cls-1" x="174" y="14.16" width="110" height=".75"/>
        <rect class="cls-1" y="14.66" width="110" height=".75"/>
      </g>
    </g>
  </g>
</svg>