<?xml version="1.0" encoding="UTF-8"?>
<svg id="Layer_2" data-name="Layer 2" xmlns="http://www.w3.org/2000/svg" viewBox="0 0 179.89 303.25">
  <defs>
    <style>
      .cls-1 {
        fill: #cecece;
      }
    </style>
  </defs>
  <g id="Layer_1-2" data-name="Layer 1">
    <g>
      <path class="cls-1" d="M154.47,272.13c-.15-.47-.52-2.03-.9-3.68-.36-1.54-.76-3.29-.91-3.72l-.03-.2c-.1-3.33-2.72-5.68-5.49-8.18-.97-.87-1.98-1.77-2.86-2.72-6.71-7.17-6.82-17.39-6.93-27.27-.04-3.8-.09-7.73-.51-11.41-1.77-15.35-11.51-30.67-26.73-42.01-1.21-.9-2.45-1.78-3.69-2.66-3.82-2.7-7.76-5.49-10.93-9.06-3.39-3.82-5.79-8.4-8.11-12.83-6.13-11.72-12.47-23.85-16.49-36.89-4.37-14.21-5.13-29.95-2.02-42.1l1.35,.35c-3.04,11.91-2.29,27.36,2.01,41.34,3.98,12.92,10.29,24.99,16.39,36.66,2.28,4.36,4.63,8.86,7.91,12.55,3.06,3.44,6.94,6.19,10.69,8.84,1.25,.88,2.5,1.77,3.72,2.68,15.52,11.57,25.47,27.23,27.28,42.97,.43,3.75,.48,7.72,.52,11.55,.11,10.06,.22,19.55,6.56,26.33,.84,.9,1.82,1.78,2.77,2.64,2.85,2.56,5.79,5.2,5.95,9.07,.17,.58,.53,2.12,.91,3.74,.36,1.55,.73,3.15,.87,3.57l-1.33,.43Z"/>
      <path class="cls-1" d="M43.25,125.66c-.31-5.1-1.31-8.79-1.21-13.81,.01-3.35,.28-6.68,.33-10-.04-2.35-.25-4.71,.11-7.05,.13-.95,.47-2.78,.81-3.76-.44,.87-.75,1.78-1.06,2.71-1.28,3.93-.95,8.14-1.63,12.19-1.06,6.44-.05,12.75,.59,18.5,.24,3.68,.47,7.38,1.62,10.92,1.59,4.9,4.25,9.4,6.53,14.01-2.87-8.05-6.17-15.61-6.09-23.72Z"/>
      <path class="cls-1" d="M119.6,277.89l19.4-6.97c-12.28,.02-23.89,.75-35.14,1.51l-.97,.07c-7.48,.51-15.96,1.1-22.32-3.38l-2.34-1.64,2.83,.38c1.3,.18,2.48,.25,3.52,.21-10.49-1.63-19.56-8.22-28.38-14.61-2.74-1.99-5.58-4.05-8.39-5.9-3.59-2.37-7.4-4.54-11.08-6.65-5.51-3.15-11.2-6.4-16.32-10.36-5.89-4.56-15.87-14.15-16.51-27.18l-.14-2.74,1.43,2.34c1.21,1.98,2.23,3.9,3.21,5.75,1.82,3.41,3.48,6.53,5.83,9.05-6-8.17-8.01-19.33-9.49-30.26l-3.62-26.58c-1.37-10.01-2.18-18.93,1.85-26.76l1.9-3.69-.59,4.11c-.75,5.25-.62,10.61,.39,15.8-.01-7.54,1.3-15.19,3.77-22.51h-.03c2.07-11.31,8.49-23.66,17.62-33.9,4.07-4.57,8.51-8.92,12.79-13.13,4.39-4.31,8.94-8.78,13.07-13.46C68.22,48.91,79.42,25.33,83.41,1.01l.16-1.01,.88,.52c6.21,3.69,7.03,14.99,6.62,23.81-.35,7.53-3.49,14.45-6.85,20.81-2.05,3.9-4.35,7.94-7.29,11.58,.7-.36,1.41-.72,2.11-1.09l1.75-.91-.79,1.81c-3.55,8.08-10.26,15.09-21.12,22.05-3.14,2.01-6.41,3.91-9.58,5.75-5.5,3.19-11.18,6.48-16.25,10.45-18.45,14.44-29.15,39.43-26.62,62.18l.69,6.18-2.04-5.88c-1.98-5.72-2.87-11.83-2.63-17.9-1.74,6.37-1.02,13.52,.06,21.37l3.62,26.58c1.8,13.22,4.36,26.78,13.93,34.59l4.04,3.29-4.76-2.11c-6.35-2.82-9.04-7.87-12.16-13.71-.49-.91-.98-1.85-1.51-2.79,1.95,10.81,10.41,18.85,15.6,22.86,5.04,3.9,10.69,7.13,16.16,10.26,3.7,2.12,7.53,4.31,11.16,6.69,2.84,1.87,5.68,3.94,8.44,5.94,9.74,7.07,19.82,14.38,31.61,14.71l2.17,.06-1.8,1.21c-1.31,.88-3.17,1.08-5.04,1.15,5.55,2.55,12.29,2.09,18.83,1.64l.97-.07c12.46-.84,25.34-1.72,39.14-1.48l3.8,.07-15.93,5.72c9.1-.63,18.58-.38,25.74,.74l-.22,1.38c-8.49-1.33-20.3-1.42-30.8-.25l-5.9,.66ZM84.6,2.32c-4.18,24.19-15.4,47.59-31.66,65.99-4.17,4.72-8.73,9.2-13.14,13.53-4.27,4.2-8.69,8.53-12.73,13.07-5.93,6.66-10.7,14.21-13.83,21.77,4.69-8.9,11.14-16.87,18.96-22.99,5.14-4.03,10.87-7.35,16.41-10.56,3.15-1.83,6.42-3.72,9.53-5.71,9.77-6.26,16.1-12.54,19.71-19.59-.84,.43-1.68,.86-2.52,1.29l-4.86,2.48,2.99-3.05c4.07-4.15,6.99-9.2,9.54-14.04,3.28-6.22,6.36-12.97,6.69-20.23,.3-6.56,0-17.82-5.08-21.95Z"/>
      <path class="cls-1" d="M179.89,303.13c-.62-3.23-1.03-6.55-2.46-9.56-2.24-4.96-6.65-8.34-10.34-12.19-5.67-5.42-11.76-10.36-17.59-15.59-2.77-2.35-5.67-4.97-8.53-7.52-.19-.35-.37-.69-.56-1.06-2.55-5.5-5.57-10.77-8.87-15.84,2.13,5.4,4.71,10.66,7.9,15.51,.01,.03,.03,.04,.06,.07-3.39-2.98-6.69-5.78-9.64-7.79-3.02-2.2-5.92-4.6-9.25-6.33-3.26-2.01-4.95-3.58-7.51-5.44-6.09-5.47-13.69-13.33-19.87-20.04-5.64-5.52-11.17-11.16-16.02-17.4-1.88-2.38-3.91-4.71-4.97-6.25-1.67-2.52-3.07-5.21-4.79-7.67-2.33-3.01-4.09-6.38-6.24-9.5-1.67-2.53-3.21-5.17-4.65-7.83-1.48-3.55-2.98-7.45-4.08-11.3,.39,2.02,.84,4.03,1.34,6.02-.52-1.03-.51-3.43-1.03-4.46,.68,1.95,.92,5.21,1.73,7.11,3.15,11.58,8.05,22.71,14.71,32.67,6.75,11.84,15.81,22.16,25.73,31.45,12.79,11.73,25.39,20.69,39.2,31.09,3.82,2.71,9.19,6.38,12.26,8.52,3.87,3.19,7.79,6.32,11.65,9.54,7.76,7.12,14.71,14.34,20.02,22.96,.18,.28,.35,.58,.52,.91l1.29-.13Zm-7.81-12.16c-4.21-5.03-8.89-9.68-13.85-13.96-3.57-2.88-7.09-5.82-10.66-8.7-4.17-2.97-8.43-5.78-12.57-8.76-10.57-8-20.36-15.02-29.92-23.01-11.79-9.99-22.91-20.91-30.93-33.45-3.8-6.29-8.05-12.33-11.09-19.07-1.02-2.02-1.8-3.84-2.55-5.7,1.88,3.23,3.79,6.45,5.97,9.5,1.56,2.38,2.82,4.94,4.43,7.3,2.66,3.51,5.49,6.88,8.27,10.28,4.1,5.08,8.9,9.5,13.47,14.15,3.48,4.12,7.43,7.82,11.21,11.64,2.9,2.83,6.42,6.73,9.08,8.53,2.55,1.98,5.21,4.11,8.55,5.89,2.27,1.38,5.32,3.8,6.8,4.82,6.2,4.34,12.25,10.19,18.84,15.93,6.17,5.42,12.49,10.67,18.48,16.32,3.75,3.88,7.65,6.89,9.92,11.35,.59,1,1.02,2.13,1.41,3.33-1.45-2.3-3.1-4.43-4.89-6.41Z"/>
      <path class="cls-1" d="M85.19,179.11c-.03-5.25-.55-10.49-.25-15.74-.32-6.6-.65-13.21-.26-19.82-1.11,6.72-1.17,13.47-1.21,20.25-.46,5.22,.09,10.43,.33,15.64,.4,4.85,.43,9.73,.93,14.56,.06,.28,.1,.77,.06,.85,.11-.25,.06-.55,.06-.81,.13-4.98,.53-9.95,.35-14.94Z"/>
      <g>
        <path class="cls-1" d="M78.62,158.55s-.01,.01-.03,.01h.03Z"/>
        <path class="cls-1" d="M78.2,134.39c.2,5.6,.56,11.21,.08,16.8-.14,2.45,.31,4.92,.18,7.37,.03,.03,.08,.03,.13,0,.33-3.59,.35-6.31,.79-9.75,.35-4.82-.38-9.67-1.18-14.42Z"/>
      </g>
      <path class="cls-1" d="M75.93,137.02c-.2-4.15-1.03-7.51-1.31-11.58-.29,4.52,.49,8.99,.36,13.5-.03,3.16-.69,5.62-1.01,9.04-.01,.29-.03,.69-.01,.89,.03-.21,.05-.42,.09-.64,.88-3.69,2.05-7.37,1.88-11.21Z"/>
      <path class="cls-1" d="M118,180.44c-.19,4.13,.32,8.22,.5,12.32,.56-4.07-.03-8.25-.5-12.32Z"/>
      <path class="cls-1" d="M123.57,221.48c-.45-5.35-1.58-12.69-2.44-18.67,.06,6.32,.42,12.68,1.03,18.97,.55,4.26,1.43,10.13,1.05,14.92,1.22-4.96,.91-10.2,.36-15.23Z"/>
      <path class="cls-1" d="M126.72,221.37c-.21,7.12-.35,15.39,.26,21.9,.38-2.59,.32-5.25,.62-7.87,.22-4.69-.4-9.36-.88-14.03Z"/>
      <path class="cls-1" d="M118.99,231.49c-.07-6.45-.35-12.91-1.43-19.28,.18,6.82-.39,13.73,.64,20.5,.37,2.16,1.01,4.26,1.15,6.31,.28-2.52-.18-5.03-.36-7.54Z"/>
      <path class="cls-1" d="M55.37,135.64c-3.06,3.12-3.77,7.94-3.56,12.15,.82-4.08,1.52-8.53,3.52-12.04,.04-.07,.21-.22,.21-.23-.06,.05-.11,.09-.17,.12Z"/>
      <path class="cls-1" d="M47.33,141.09c1.81-4.2,2.87-8.66,3.82-13.1-1.98,4.12-3.02,8.61-3.82,13.1Z"/>
      <path class="cls-1" d="M58.96,117.4c1.16-4.08,1.99-8.29,3.13-12.35-2.12,3.74-2.94,8.09-3.13,12.35Z"/>
      <path class="cls-1" d="M23.4,169.9c-1.43-2.52-3.48-4.58-5.27-6.85-1.81-2.51-4.37-6.82-5.67-10.32,.71,4.04,2.32,8.04,4.82,11.3,1.99,2.3,4.37,4.22,6.3,6.58,.22,.25,.5,.57,.67,.75-.29-.49-.57-.98-.85-1.45Z"/>
      <path class="cls-1" d="M13.58,163.69c1.63,4.79,4.67,9.03,8.26,12.55-2.66-4.25-5.57-8.33-8.26-12.55Z"/>
      <path class="cls-1" d="M62.26,195.36c-2.04-1.34-4.64-1.22-6.88-2.06-4.3-1.76-9.21-5.42-13.64-8.15,4.22,3.77,8.58,8.32,14.29,9.56,1.95,.42,4.37,.15,6.05,.93,.53,.22,1.09,.54,1.56,.79-.43-.38-.89-.75-1.38-1.08Z"/>
      <path class="cls-1" d="M48.46,182.46c1.94,1.34,4.12,2.36,6.34,3.07-2.08-1.33-4.11-2.27-6.34-3.07Z"/>
      <path class="cls-1" d="M70.15,202.55c-1.35-.82-2.72-1.66-4.21-2.18-1.43-.52-3.31-.6-4.33-.75-3.05-.53-6.03-1.4-9.07-2.05-5.36-1-10.33-3.26-15.56-4.74-4.83-1.13-9.77-1.84-14.69-2.55,5.27,1.52,10.63,2.71,15.78,4.55,4.92,1.92,9.82,3.92,15.08,4.7,2.96,.48,5.89,1.17,8.87,1.29,2.79-.14,5.17,.52,7.62,1.67,.43,.19,1.09,.45,1.44,.5-.32-.13-.63-.28-.93-.45Z"/>
      <path class="cls-1" d="M72.06,208.7c-9.86-6.4-22.1-6.1-33.43-6.11,7.01,1.06,13.25,1.43,19.99,2.76,4.36,.39,8.58,1.48,12.97,3.35,.35,.12,1.06,.38,1.21,.33-.27-.07-.5-.2-.74-.32Z"/>
      <path class="cls-1" d="M56.69,230.62c-4.43-.7-8.93-.13-13.39-.43-5.81-.51-12.41-2.45-18.78-3.68,7.24,2.64,14.72,6.06,22.62,5.15,3.48-.31,5.92-.81,9.64-.89,.25-.01,.51-.01,.76-.03-.29-.04-.59-.09-.86-.12Z"/>
      <path class="cls-1" d="M76.83,238.83c-1.81,.03-5.1,.14-6.17-.06-6.95-1.66-14.27-2.34-21.31-.85,5.36-.17,10.03,.47,14.61,1.18,2.56,.35,5.08,1.13,7.69,1.09,1.62-.02,3.51-.39,4.7-.54,1.4-.23,3.88-.38,4.99-.89-1.47,.24-3.01,.04-4.51,.07Z"/>
      <path class="cls-1" d="M95.86,238.37c4.83,2.7,9.91,5.29,15.23,6.8-4.83-2.71-9.85-5.28-15.23-6.8Z"/>
      <path class="cls-1" d="M112.91,249.6c-1.14-.13-2.29,.19-3.43,.19-4.92,.06-9.82-.11-14.74-.01,5.11,.86,10.34,1.82,15.53,1.28,3.09-.75,5.92-.21,9.28,.45-1.68-.79-4.46-1.7-6.64-1.91Z"/>
      <path class="cls-1" d="M71.71,257.59c7.17-.07,15.49,.11,21.64-3.48-6.91,2.07-14.36,1.73-21.64,3.48Z"/>
      <path class="cls-1" d="M133.1,265.38c-4.07,.13-12.29-1.67-18.36-1.78,6.07,1.6,12.38,3.11,18.68,1.98,.29-.1-.36-.22-.32-.2Z"/>
      <path class="cls-1" d="M128.04,266.28c-6.01,.06-11.99,1.57-18.02,.9,5.82,1.9,12.94,.91,17.79,.25,2.58-.23,5.28-.1,7.72-1.1-2.47,.49-4.99,0-7.48-.06Z"/>
      <path class="cls-1" d="M130.31,262.09c-4.09-1.92-8.3-3.65-12.13-6.07,5.35,4.95,12.99,8.76,20.04,8.97-3.14-.74-5.11-1.6-7.91-2.9Z"/>
      <path class="cls-1" d="M146.93,261.21c-.9-2.12-1.68-3.35-2.3-5.31-2.2-6.55-5.61-12.6-9.3-18.41,2.3,5.62,4.41,10.63,7.15,16.23,1.17,2.69,2.58,5.22,4.31,7.58,.17,.26,.38,.67,.46,.78-.09-.29-.21-.58-.32-.87Z"/>
    </g>
  </g>
</svg>