<?xml version="1.0" encoding="UTF-8"?>
<svg id="Layer_2" data-name="Layer 2" xmlns="http://www.w3.org/2000/svg" viewBox="0 0 172.62 345.78">
  <defs>
    <style>
      .cls-1 {
        fill: #6c7254;
      }
    </style>
  </defs>
  <g id="Layer_1-2" data-name="Layer 1">
    <g>
      <path class="cls-1" d="M.64,345.69c.34,.14,.74,.11,1.05-.14,50.6-39.46,90.67-94.23,112.82-154.23,22.19-60.1,27.25-127.76,14.28-190.49-.12-.57-.67-.93-1.24-.81-.57,.12-.93,.67-.82,1.24,12.9,62.36,7.86,129.6-14.19,189.34C90.53,250.24,50.7,304.68,.4,343.9c-.46,.36-.54,1.01-.18,1.47,.11,.15,.26,.25,.42,.32Z"/>
      <path class="cls-1" d="M132.49,108.79c.43,.18,.96,.06,1.25-.34,17.58-23.71,28.31-49.32,31.01-74.05,.06-.57-.35-1.1-.93-1.16-.58-.06-1.09,.35-1.16,.93-2.66,24.36-13.25,49.61-30.61,73.03-.34,.47-.25,1.12,.22,1.47,.07,.05,.14,.09,.22,.12Z"/>
      <path class="cls-1" d="M133.61,94.6c.42,.18,.92,.07,1.22-.3,16.27-19.92,24.12-47.06,21-72.58-.07-.57-.59-.99-1.17-.91-.58,.07-.99,.59-.91,1.17,3.05,24.97-4.63,51.51-20.55,71-.37,.45-.3,1.11,.15,1.48,.08,.06,.17,.12,.25,.15Z"/>
      <path class="cls-1" d="M134.39,78.13c.45,.19,.99,.04,1.27-.37,13.36-19.51,16.01-44.91,7.09-67.95-.2-.54-.81-.81-1.36-.6-.54,.21-.81,.82-.6,1.36,8.67,22.4,6.1,47.07-6.87,66.01-.33,.48-.2,1.13,.27,1.46,.06,.04,.12,.07,.18,.1Z"/>
      <path class="cls-1" d="M127.94,139.01c.39,.17,.87,.08,1.17-.25,19.82-21.16,33.25-47.28,37.81-73.55l.89-1.95c.24-.53,0-1.15-.53-1.39-.6-.26-1.15,0-1.39,.53l-1,2.19-.02,.13c-4.47,25.92-17.72,51.7-37.3,72.61-.4,.42-.37,1.09,.05,1.48,.09,.09,.2,.15,.31,.2Z"/>
      <path class="cls-1" d="M122.48,162.86c.36,.15,.8,.1,1.11-.18,23.84-21.41,41.24-50.31,49-81.36,.14-.56-.2-1.13-.76-1.27-.56-.14-1.13,.2-1.27,.76-7.66,30.65-24.83,59.18-48.36,80.31-.43,.39-.47,1.05-.08,1.48,.11,.12,.23,.21,.37,.26Z"/>
      <path class="cls-1" d="M115.32,185.79c.32,.14,.71,.11,1.02-.11,22.18-15.75,38.36-38.38,46.8-65.44,.17-.56-.13-1.12-.69-1.31-.55-.17-1.14,.14-1.31,.69-8.3,26.63-24.22,48.88-46.02,64.36-.47,.33-.59,.99-.25,1.46,.12,.16,.27,.28,.45,.36Z"/>
      <path class="cls-1" d="M108.5,205.36c.32,.14,.71,.11,1.02-.11,20.87-14.86,38.58-34.51,51.22-56.83,.29-.5,.11-1.14-.4-1.43-.49-.28-1.14-.11-1.43,.4-12.49,22.05-29.99,41.46-50.61,56.15-.47,.34-.58,.99-.25,1.46,.12,.17,.27,.28,.45,.36Z"/>
      <path class="cls-1" d="M100.35,224.48c.29,.12,.63,.11,.92-.05,19.5-10.89,35.71-27.93,45.64-47.99,.26-.52,.04-1.15-.48-1.41-.51-.28-1.15-.05-1.4,.47-9.74,19.68-25.65,36.41-44.79,47.09-.5,.28-.69,.92-.4,1.43,.12,.21,.3,.37,.51,.45Z"/>
      <path class="cls-1" d="M90.56,240.8c.26,.11,.57,.12,.85-.01,19.88-9.19,35.89-23.08,48.96-42.45,.32-.48,.2-1.13-.28-1.46-.49-.32-1.13-.2-1.46,.28-12.84,19.05-28.58,32.69-48.1,41.72-.53,.24-.75,.87-.51,1.39,.11,.25,.31,.43,.54,.53Z"/>
      <path class="cls-1" d="M82.96,253.82c.16,.07,.33,.1,.51,.08,19.72-1.88,38.31-14.51,47.34-32.17,.26-.51,.06-1.15-.46-1.41-.51-.27-1.15-.06-1.41,.46-8.72,17.04-26.65,29.23-45.67,31.04-.58,.05-1,.57-.94,1.14,.04,.4,.29,.72,.64,.87Z"/>
      <path class="cls-1" d="M72.53,269.61c.13,.05,.27,.08,.41,.08,16.51-.03,31.81-7.98,41.98-21.82,.34-.47,.24-1.12-.22-1.46-.46-.35-1.12-.24-1.47,.22-9.77,13.29-24.46,20.93-40.3,20.96-.58,0-1.05,.47-1.05,1.05,0,.43,.27,.81,.64,.96Z"/>
      <path class="cls-1" d="M58.5,288.44c.24,.1,.53,.12,.8,0,4.15-1.64,8.05-1.82,12.18-2.01,9.28-.43,18.89-.88,30.47-18.95,.31-.49,.17-1.14-.32-1.45-.48-.32-1.14-.17-1.45,.32-11,17.16-19.65,17.56-28.8,17.98-4.12,.19-8.38,.39-12.85,2.16-.54,.21-.8,.82-.59,1.36,.11,.27,.32,.47,.57,.58Z"/>
      <path class="cls-1" d="M134.44,74.06c.13,.06,.27,.08,.42,.08,.58,0,1.04-.48,1.04-1.06-.25-20.02-9.02-41.19-24.05-58.06-.39-.44-1.05-.47-1.48-.09-.43,.38-.47,1.05-.09,1.48,14.7,16.51,23.27,37.17,23.52,56.69,0,.43,.27,.79,.64,.95Z"/>
      <path class="cls-1" d="M133.02,103.43c.26,.11,.55,.12,.82,0,.53-.23,.78-.85,.55-1.38-5.36-12.47-8.01-24.84-10.57-36.81-1.96-9.13-3.8-17.76-6.75-26.37-.19-.55-.78-.84-1.33-.65-.55,.19-.84,.78-.65,1.33,2.91,8.49,4.74,17.06,6.69,26.13,2.58,12.06,5.25,24.54,10.69,37.2,.11,.26,.31,.45,.55,.55Z"/>
      <path class="cls-1" d="M131.05,119.63c.28,.12,.61,.12,.9-.04,.51-.27,.7-.91,.43-1.42-11.58-21.67-18.81-46.1-20.91-70.64-.05-.58-.56-1-1.13-.96-.58,.05-1.01,.56-.96,1.13,2.12,24.82,9.44,49.52,21.15,71.45,.12,.22,.3,.38,.52,.47Z"/>
      <path class="cls-1" d="M123.84,159.64c.08,.04,.17,.06,.27,.08,.57,.08,1.1-.32,1.18-.9,2.8-20.45-2.58-42.83-14.74-61.41-.32-.48-.97-.62-1.45-.3-.48,.32-.62,.97-.3,1.45,11.89,18.16,17.15,40.02,14.42,59.98-.07,.48,.2,.93,.63,1.11Z"/>
      <path class="cls-1" d="M117.92,175.55c.21,.09,.44,.11,.68,.05,.56-.15,.89-.72,.75-1.28-9.33-35.16-14.27-71.46-14.68-107.89,0-.58-.48-1.04-1.06-1.04-.58,0-1.04,.48-1.04,1.06,.41,36.61,5.38,73.08,14.75,108.4,.09,.33,.32,.57,.61,.7Z"/>
      <path class="cls-1" d="M114.44,188.28c.3,.13,.65,.11,.95-.07,.5-.3,.66-.94,.36-1.44-17.34-28.81-18.91-65.77-18.35-94.75,.01-.58-.46-1.06-1.03-1.07-.58-.01-1.06,.45-1.07,1.03-.57,29.26,1.04,66.6,18.65,95.87,.12,.2,.29,.34,.49,.42Z"/>
      <path class="cls-1" d="M105.48,210.85c.25,.1,.54,.12,.8,0,.54-.22,.79-.83,.58-1.37-13.78-33.72-19.32-68.67-16.96-106.84,.04-.58-.4-1.08-.98-1.11-.58-.04-1.08,.4-1.11,.98-2.38,38.5,3.21,73.75,17.11,107.77,.11,.27,.32,.46,.56,.57Z"/>
      <path class="cls-1" d="M89.45,242.77c.05,.02,.11,.04,.16,.05,.56,.14,1.13-.21,1.27-.77,7.07-29.13,1.81-64.18-13.41-89.31-.3-.49-.94-.65-1.44-.35-.5,.3-.65,.94-.35,1.44,14.95,24.68,20.12,59.12,13.17,87.73-.12,.51,.14,1.02,.61,1.21Z"/>
      <path class="cls-1" d="M76.18,264.27s.08,.03,.12,.04c.56,.16,1.14-.16,1.3-.72,7.03-24.4,5.71-56.05-3.44-82.58-.19-.55-.79-.84-1.33-.65-.55,.19-.84,.79-.65,1.33,9.02,26.15,10.32,57.31,3.4,81.32-.15,.51,.12,1.05,.6,1.25Z"/>
      <path class="cls-1" d="M55.39,292.27h.02c.54,.22,1.15-.04,1.36-.57,10.71-26.68,13.78-56.76,8.87-86.98-.09-.57-.62-.96-1.2-.87-.57,.09-.96,.63-.87,1.2,4.78,29.41,1.67,59.9-8.75,85.86-.21,.53,.04,1.13,.56,1.36Z"/>
    </g>
  </g>
</svg>