<?xml version="1.0" encoding="UTF-8"?>
<svg id="Layer_2" data-name="Layer 2" xmlns="http://www.w3.org/2000/svg" viewBox="0 0 312.14 264.06">
  <defs>
    <style>
      .cls-1 {
        fill: #cecece;
      }
    </style>
  </defs>
  <g id="Layer_1-2" data-name="Layer 1">
    <g>
      <path class="cls-1" d="M52.6,58.96c-4.32-2.18-7.77-4.92-10.26-8.15-.78-1.01-1.48-2.09-2.15-3.13-.6-.92-1.2-1.85-1.85-2.73-4.2-5.63-10.89-9.29-17.88-9.79l.14-1.94c7.55,.54,14.77,4.48,19.3,10.56,.68,.91,1.31,1.87,1.93,2.83,.65,1.01,1.33,2.05,2.06,3,2.31,2.99,5.54,5.55,9.6,7.6l-.88,1.74Z"/>
      <path class="cls-1" d="M61.72,72.87c-3.2-2.23-7.25-4.01-10.83-4.76l-1.1-.21c-1.41-.27-2.87-.54-4.24-1.18-2.18-1.02-3.79-2.77-5.07-4.35-1.42-1.75-2.71-3.64-3.95-5.45-1.16-1.7-2.36-3.46-3.65-5.08-3.14-3.94-6.33-6.32-9.75-7.3l.54-1.87c3.82,1.09,7.33,3.7,10.74,7.96,1.34,1.68,2.56,3.47,3.74,5.19,1.22,1.79,2.48,3.63,3.85,5.33,1.14,1.41,2.55,2.96,4.38,3.81,1.15,.54,2.43,.78,3.78,1.03,.38,.07,.76,.14,1.13,.22,3.82,.81,8.13,2.7,11.54,5.07l-1.11,1.6Z"/>
      <path class="cls-1" d="M41.43,39.39c-2.57-1.3-5.98-3.98-7.93-6.24-.49-.57-.95-1.16-1.41-1.75-.42-.54-.83-1.07-1.27-1.59-3.49-4.05-8.83-5.99-14.01-7.87l-1.45-.53,.67-1.83,1.44,.53c5.41,1.97,11,4,14.82,8.44,.46,.54,.9,1.1,1.33,1.67,.44,.56,.88,1.13,1.35,1.67,1.78,2.05,5,4.59,7.33,5.77l-.88,1.74Z"/>
      <path class="cls-1" d="M110,124.46c-2.16-3.93-2.6-8.91-1.35-15.24,.34-1.73,.77-3.45,1.2-5.17,.76-3.05,1.55-6.2,1.79-9.34,.44-5.71-1.09-10.66-4.09-13.24l1.27-1.48c3.47,2.98,5.25,8.54,4.76,14.86-.25,3.3-1.06,6.54-1.84,9.67-.42,1.69-.84,3.37-1.18,5.07-1.15,5.86-.78,10.42,1.15,13.93l-1.71,.94Z"/>
      <path class="cls-1" d="M122.31,134.93c-.46,0-.87-.33-.95-.79-.69-3.64,.76-7.23,1.91-9.63,.23-.48,.81-.7,1.3-.45,.49,.23,.69,.81,.46,1.3-1.03,2.14-2.34,5.35-1.75,8.42,.1,.53-.25,1.04-.77,1.14-.06,.01-.12,.02-.19,.02Z"/>
      <path class="cls-1" d="M126.01,120.29c-.14,0-.29-.03-.43-.1-.48-.24-.68-.82-.44-1.3,.89-1.8,1.43-3.71,1.61-5.67,.05-.54,.53-.92,1.06-.88,.54,.05,.93,.53,.88,1.06-.21,2.21-.81,4.34-1.8,6.35-.17,.35-.52,.55-.88,.55Z"/>
      <path class="cls-1" d="M118.14,111.62c-.09,0-.18-.01-.26-.04-.52-.14-.82-.68-.68-1.2,.36-1.28,.76-2.54,1.17-3.8,.58-1.78,1.17-3.63,1.59-5.47,.12-.53,.25-1.03,.37-1.52,.59-2.36,1.01-4.06,.3-6.38-.16-.51,.13-1.06,.64-1.22,.52-.16,1.06,.13,1.22,.64,.88,2.84,.35,4.96-.27,7.43-.12,.47-.24,.96-.36,1.48-.44,1.92-1.05,3.8-1.63,5.63-.4,1.24-.8,2.47-1.15,3.72-.12,.43-.51,.71-.94,.71Z"/>
      <path class="cls-1" d="M116.59,120.33c-.07,0-.13,0-.2-.02-.53-.11-.87-.62-.76-1.15,.3-1.47,.62-2.96,.93-4.43,.11-.53,.63-.87,1.16-.75,.53,.11,.86,.63,.75,1.15-.31,1.47-.62,2.95-.92,4.42-.09,.46-.5,.78-.95,.78Z"/>
      <path class="cls-1" d="M116.3,103.61c-.13,0-.27-.03-.4-.09-.49-.22-.71-.8-.49-1.29,1.73-3.85,2.48-8.11,2.18-12.34-.04-.54,.37-1,.9-1.04,.54-.05,1,.37,1.04,.9,.32,4.55-.48,9.14-2.34,13.27-.16,.36-.52,.58-.89,.58Z"/>
      <path class="cls-1" d="M92,93.92c-.44,0-.84-.3-.95-.75-1.23-5.13,.5-10.32,2.03-14.9,1.6-4.82,2.94-9.49,1.76-13.81-.14-.52,.16-1.06,.68-1.2,.52-.13,1.06,.16,1.2,.68,1.33,4.84-.09,9.83-1.79,14.94-1.44,4.33-3.08,9.25-1.98,13.83,.13,.52-.2,1.05-.72,1.17-.08,.02-.15,.03-.23,.03Z"/>
      <path class="cls-1" d="M93.88,95.95c-.48,0-.9-.35-.96-.84-.67-4.75,1.22-9.47,2.88-13.62,1.81-4.5,3.24-8.56,2.47-12.62-.1-.53,.25-1.04,.78-1.14,.53-.1,1.04,.25,1.14,.78,.86,4.57-.73,9.09-2.58,13.71-1.65,4.13-3.36,8.39-2.76,12.63,.08,.53-.3,1.03-.83,1.1-.05,0-.09,.01-.14,.01Z"/>
      <path class="cls-1" d="M97.11,101.81c-.41,0-.79-.26-.92-.67-.54-1.62-1.14-3.45-1.32-5.35-.27-2.81,.41-5.69,1.93-8.11,.28-.45,.89-.59,1.34-.31,.46,.29,.59,.89,.31,1.34-1.29,2.06-1.87,4.51-1.64,6.89,.16,1.68,.73,3.4,1.23,4.92,.17,.51-.11,1.06-.62,1.23-.1,.03-.21,.05-.31,.05Z"/>
      <path class="cls-1" d="M101.7,110.4c-.45,0-.86-.32-.95-.78-1.12-5.52,.79-11.23,2.32-15.83,.17-.51,.72-.79,1.23-.61,.51,.17,.79,.72,.62,1.23-1.54,4.6-3.28,9.82-2.26,14.82,.11,.53-.23,1.04-.76,1.15-.07,.01-.13,.02-.2,.02Z"/>
      <path class="cls-1" d="M105.6,118c-.41,0-.79-.26-.93-.67-1.32-4.07-.21-8.46,.73-11.4,.27-.85,.57-1.71,.87-2.56,.92-2.66,1.79-5.17,2.05-7.82,.05-.54,.52-.94,1.06-.87,.54,.05,.93,.53,.88,1.06-.29,2.88-1.23,5.62-2.15,8.27-.29,.84-.58,1.67-.85,2.51-.86,2.69-1.88,6.67-.73,10.21,.17,.51-.11,1.06-.63,1.23-.1,.03-.2,.05-.3,.05Z"/>
      <path class="cls-1" d="M109.27,92.45c-.53,0-.96-.42-.97-.95-.04-1.4-.21-2.79-.5-4.14-.12-.53,.22-1.05,.74-1.16,.53-.11,1.04,.22,1.16,.74,.32,1.47,.51,2.99,.55,4.51,.01,.54-.41,.99-.95,1,0,0-.02,0-.03,0Z"/>
      <path class="cls-1" d="M84.66,87.58c-.38,0-.74-.22-.9-.6-1.17-2.77-.84-5.75-.52-8.62,.08-.7,.16-1.41,.21-2.1,.16-2.09,.11-4.17-.16-6.16-.07-.53-.09-1.15-.1-1.8-.04-1.4-.09-3.15-.82-3.71-.43-.33-.51-.94-.19-1.37,.33-.43,.94-.51,1.37-.19,1.48,1.13,1.54,3.3,1.59,5.21,.01,.58,.03,1.13,.09,1.6,.29,2.13,.35,4.34,.17,6.57-.05,.72-.14,1.44-.22,2.17-.31,2.75-.59,5.35,.38,7.65,.21,.49-.02,1.07-.52,1.28-.12,.05-.25,.08-.38,.08Z"/>
      <path class="cls-1" d="M76.03,83.52s-.09,0-.14-.01c-2.27-.32-4.54-.65-6.82-.98-2.69-.4-5.4-.8-8.01-1.56-3.46-1.01-6.8-2.71-9.65-4.91-.43-.33-.5-.94-.17-1.37,.33-.43,.94-.5,1.37-.18,2.66,2.05,5.77,3.64,9,4.58,2.48,.72,5.13,1.11,7.68,1.49,2.34,.34,4.61,.67,6.88,.99,.53,.08,.9,.57,.83,1.1-.07,.49-.49,.84-.96,.84Z"/>
      <path class="cls-1" d="M69.66,87.26c-11.37,0-22.75-5.35-29.84-14.27-.33-.42-.26-1.03,.16-1.37,.42-.34,1.03-.26,1.37,.16,7.51,9.45,20.12,14.69,32.1,13.32,.52-.06,1.05-.13,1.58-.2,2.35-.32,4.78-.65,7.19-.05,.52,.13,.84,.66,.71,1.18-.13,.52-.67,.84-1.18,.71-2.04-.5-4.18-.22-6.46,.09-.54,.07-1.08,.14-1.62,.21-1.33,.15-2.67,.22-4.01,.22Z"/>
      <path class="cls-1" d="M97.11,102.06c-.29,0-.58-.13-.77-.38-2.05-2.66-4.38-5.68-7.3-7.81-4.46-3.25-10.54-4.35-15.86-2.87-.51,.15-1.05-.16-1.2-.68-.14-.52,.16-1.05,.68-1.2,5.97-1.66,12.52-.47,17.53,3.17,3.15,2.29,5.57,5.43,7.7,8.2,.33,.43,.25,1.04-.18,1.37-.18,.14-.39,.2-.59,.2Z"/>
      <path class="cls-1" d="M127.53,139.58c-.12,0-.24-.02-.35-.07-3.96-1.54-11.03-1.97-19.98-2.51-1.59-.1-3.23-.2-4.92-.31-6.95-.45-16.94-1.82-23.43-8.37-.9-.91-1.72-1.9-2.5-2.85-.71-.86-1.44-1.75-2.22-2.55-3.67-3.78-8.62-6.02-13.4-8.17-.49-.22-.71-.8-.49-1.29,.22-.49,.8-.71,1.29-.49,4.72,2.13,10.07,4.54,14,8.59,.83,.85,1.59,1.78,2.33,2.67,.79,.96,1.54,1.87,2.38,2.72,6.03,6.08,15.54,7.36,22.17,7.79,1.69,.11,3.33,.21,4.91,.31,9.12,.55,16.33,.99,20.57,2.64,.5,.2,.75,.76,.56,1.26-.15,.38-.52,.62-.91,.62Z"/>
      <path class="cls-1" d="M141.23,151.45c-.16,0-.32-.04-.47-.12-9.96-5.46-21.97-6.89-32.56-8.15-.54-.06-.92-.55-.85-1.08,.06-.54,.56-.94,1.08-.85,10.77,1.28,22.98,2.73,33.27,8.37,.47,.26,.65,.85,.39,1.32-.18,.32-.51,.51-.85,.51Z"/>
      <path class="cls-1" d="M118.13,132.52c-.11,0-.21-.02-.32-.06-.76-.26-1.45-.53-2.12-.79-1.89-.73-3.52-1.36-5.69-1.5-1.94-.14-3.87,.11-5.91,.37-1.17,.15-2.35,.3-3.52,.37-4.32,.28-8.73-.43-12.76-2.07-.5-.2-.74-.77-.54-1.27,.2-.5,.78-.74,1.27-.54,3.77,1.52,7.88,2.2,11.91,1.93,1.13-.07,2.27-.22,3.4-.36,2.04-.26,4.15-.52,6.28-.38,2.47,.16,4.32,.88,6.27,1.63,.65,.25,1.32,.51,2.06,.77,.51,.18,.78,.73,.6,1.24-.14,.4-.52,.65-.92,.65Z"/>
      <path class="cls-1" d="M112.03,126.3c-.25,0-.49-.09-.68-.28-1.68-1.63-4.78-2.62-8.51-2.71-1.36-.03-2.77,.04-4.13,.11-1.72,.09-3.51,.19-5.29,.07-6.12-.41-11.79-3.32-16.8-5.89-.48-.25-.67-.83-.42-1.31,.25-.48,.83-.67,1.31-.42,4.84,2.49,10.33,5.3,16.04,5.68,1.66,.11,3.39,.02,5.05-.07,1.4-.07,2.85-.15,4.29-.12,2.48,.06,7.04,.57,9.82,3.27,.38,.37,.39,.99,.02,1.38-.19,.2-.45,.3-.7,.3Z"/>
      <path class="cls-1" d="M74.31,116.12c-.16,0-.32-.04-.46-.12-.85-.47-1.7-.92-2.56-1.38-.47-.25-.65-.84-.4-1.32,.25-.48,.84-.66,1.32-.4,.86,.46,1.71,.92,2.57,1.38,.47,.26,.65,.85,.39,1.32-.18,.32-.51,.51-.86,.51Z"/>
      <path class="cls-1" d="M108.42,123.81c-.34,0-.67-.18-.85-.5-1.3-2.32-4.17-3.92-7.87-4.38-3.33-.42-6.77-.04-10.22-.4-9.85-1.02-18.11-7.79-24.75-13.23-.42-.34-.48-.95-.14-1.37,.34-.42,.95-.48,1.37-.14,6.44,5.28,14.45,11.84,23.72,12.8,3.35,.35,6.81-.03,10.26,.4,4.32,.54,7.71,2.5,9.32,5.36,.26,.47,.1,1.06-.37,1.33-.15,.09-.32,.13-.48,.13Z"/>
      <path class="cls-1" d="M69.06,92.98c-.08,0-.16-.01-.24-.03l-6.56-1.65c-2.32-.58-4.7-1.19-6.95-2.14-2.56-1.09-4.93-2.64-7.02-4-2.22-1.45-4.85-3.03-7.4-4.55-2.52-1.51-5.13-3.07-7.34-4.51-.45-.29-.58-.9-.29-1.35,.29-.45,.9-.58,1.35-.29,2.19,1.42,4.78,2.97,7.29,4.47,2.56,1.54,5.22,3.12,7.46,4.59,2.03,1.32,4.32,2.81,6.72,3.84,2.11,.89,4.42,1.48,6.65,2.04l6.56,1.65c.52,.13,.84,.66,.71,1.18-.11,.44-.51,.74-.94,.74Z"/>
      <path class="cls-1" d="M72.47,99.4c-.19,0-.39-.06-.56-.18-3.82-2.71-9.07-3.47-14.15-4.22-4.39-.64-8.94-1.31-12.73-3.21-.48-.24-.68-.83-.43-1.31,.24-.48,.82-.68,1.31-.44,3.52,1.76,7.9,2.4,12.14,3.02,5.31,.78,10.79,1.58,15,4.55,.44,.31,.54,.92,.23,1.36-.19,.27-.49,.41-.8,.41Z"/>
      <path class="cls-1" d="M97.61,118.51c-.08,0-.15-.01-.23-.03-2.1-.5-4.68-1.53-6.95-2.44-.61-.24-1.2-.48-1.74-.69-2.32-.89-4.72-1.82-6.88-3.19-2.5-1.59-4.33-3.6-5.29-5.83-.22-.49,.01-1.07,.5-1.28,.5-.21,1.07,.01,1.28,.51,.81,1.87,2.38,3.59,4.55,4.96,2,1.27,4.31,2.16,6.54,3.02,.55,.21,1.14,.45,1.76,.7,2.21,.88,4.71,1.89,6.68,2.36,.52,.12,.84,.65,.72,1.17-.11,.45-.51,.75-.95,.75Z"/>
      <path class="cls-1" d="M103.81,115.43c-.32,0-.64-.16-.82-.45-4.65-7.24-11.17-12.48-15.82-15.61-.45-.3-.57-.91-.27-1.35,.3-.45,.91-.56,1.35-.26,4.8,3.23,11.54,8.65,16.37,16.17,.29,.45,.16,1.06-.3,1.35-.16,.1-.34,.15-.53,.15Z"/>
      <path class="cls-1" d="M258.79,192.38s-.04,0-.06,0c-.54-.03-.95-.49-.92-1.03,.07-1.19-.04-2.41-.16-3.7-.22-2.45-.45-4.99,.63-7.34,.4-.87,.94-1.63,1.47-2.37,.21-.29,.42-.59,.62-.89,1.89-2.87,2.7-6.36,3.35-9.69,.1-.53,.62-.87,1.15-.77,.53,.11,.87,.62,.77,1.15-.7,3.52-1.55,7.22-3.64,10.38-.21,.32-.43,.63-.65,.94-.49,.69-.96,1.35-1.28,2.05-.86,1.89-.67,4.06-.46,6.36,.12,1.3,.24,2.65,.16,3.99-.03,.52-.46,.92-.97,.92Z"/>
      <path class="cls-1" d="M263.95,164.74s-.04,0-.06,0c-.54-.03-.95-.49-.92-1.03,.07-1.26,.15-2.53,.22-3.8,.03-.54,.49-.91,1.03-.91,.54,.03,.94,.5,.91,1.03-.08,1.26-.15,2.53-.22,3.78-.03,.52-.46,.92-.97,.92Z"/>
      <path class="cls-1" d="M260.62,196.39c-.49,0-.92-.37-.97-.87-.87-8.36,1.13-16.11,5.63-21.82,.33-.42,.95-.49,1.37-.16,.42,.33,.49,.95,.16,1.37-4.19,5.31-6.04,12.56-5.23,20.41,.06,.54-.33,1.02-.87,1.07-.03,0-.07,0-.1,0Z"/>
      <path class="cls-1" d="M254.98,182.5s-.04,0-.07,0c-.54-.04-.94-.5-.91-1.04,.19-2.87,1.27-5.76,2.32-8.56,.65-1.72,1.26-3.35,1.66-4.94,.95-3.76,.98-7.73,.1-11.5-.12-.52,.2-1.05,.73-1.17,.52-.13,1.05,.2,1.17,.73,.95,4.07,.91,8.36-.11,12.42-.43,1.69-1.08,3.45-1.72,5.15-1,2.67-2.03,5.43-2.2,8.01-.03,.51-.46,.91-.97,.91Z"/>
      <path class="cls-1" d="M252.99,164.9c-.09,0-.18-.01-.27-.04-.51-.15-.81-.69-.66-1.21,.92-3.15,2.15-9.24,.03-14.71-.19-.5,.06-1.07,.56-1.26,.5-.19,1.07,.05,1.26,.56,2.33,6.01,1.02,12.58,.03,15.96-.12,.43-.51,.7-.93,.7Z"/>
      <path class="cls-1" d="M251.46,142.63c-.47,0-.88-.34-.96-.82-.44-2.69-1.13-5.38-2.06-8.01-.18-.51,.09-1.06,.59-1.24,.51-.18,1.06,.09,1.24,.59,.97,2.73,1.7,5.54,2.15,8.35,.09,.53-.27,1.03-.81,1.12-.05,0-.11,.01-.16,.01Z"/>
      <path class="cls-1" d="M264.5,156.43c-.1,0-.2-.02-.3-.05-.51-.17-.79-.72-.62-1.23,.46-1.4,.63-2.93,.5-4.4-.05-.54,.35-1.01,.88-1.06,.52-.03,1.01,.35,1.06,.88,.16,1.74-.04,3.53-.59,5.18-.13,.41-.52,.67-.93,.67Z"/>
      <path class="cls-1" d="M260,147.57c-.48,0-.9-.35-.96-.84l-.5-3.67c-.07-.53,.3-1.03,.83-1.1,.54-.08,1.02,.3,1.1,.83l.5,3.67c.07,.53-.3,1.03-.83,1.1-.04,0-.09,.01-.13,.01Z"/>
      <path class="cls-1" d="M244.62,153.29c-.33,0-.66-.17-.84-.48-4.75-8.01-5.03-18.05-.75-26.85,.24-.48,.82-.68,1.3-.45,.48,.23,.69,.82,.45,1.3-3.99,8.2-3.74,17.55,.68,25,.27,.46,.12,1.06-.34,1.34-.15,.09-.33,.14-.49,.14Z"/>
      <path class="cls-1" d="M249.99,158.4c-.38,0-.74-.23-.9-.6-2.43-5.86-3.86-13.18-3.83-19.56,0-.54,.44-.97,.98-.97h0c.54,0,.97,.44,.97,.98-.03,6.14,1.35,13.17,3.68,18.81,.21,.5-.03,1.07-.53,1.27-.12,.05-.25,.08-.37,.08Z"/>
      <path class="cls-1" d="M255.76,186.88c-.33,0-.66-.17-.84-.48-1.49-2.49-5.03-4.18-7.88-5.54l-.51-.24c-7.49-3.6-13.91-9.14-18.57-16.01-.3-.44-.19-1.05,.26-1.35,.45-.3,1.05-.19,1.35,.26,4.46,6.59,10.62,11.9,17.8,15.35l.5,.24c3.08,1.47,6.92,3.3,8.71,6.3,.27,.46,.12,1.06-.34,1.34-.16,.09-.33,.14-.5,.14Z"/>
      <path class="cls-1" d="M259.13,194.48c-.32,0-.63-.16-.82-.44-2.09-3.22-5.23-4.67-8.56-6.21-1.69-.78-3.44-1.59-5.04-2.64-.45-.3-.57-.9-.28-1.35,.3-.45,.9-.57,1.35-.28,1.48,.98,3.09,1.72,4.79,2.5,3.43,1.59,6.98,3.23,9.38,6.92,.29,.45,.16,1.06-.29,1.35-.16,.11-.35,.16-.53,.16Z"/>
      <path class="cls-1" d="M254.43,183.54c-.38,0-.75-.23-.9-.6-.89-2.18-2.35-4.1-4.22-5.54-.61-.47-1.27-.89-1.92-1.32-.78-.5-1.58-1.02-2.33-1.63-2.65-2.13-4.32-5.08-5.93-7.92-.26-.47-.1-1.06,.37-1.33,.47-.27,1.06-.1,1.33,.37,1.52,2.69,3.1,5.47,5.46,7.37,.67,.55,1.4,1.01,2.16,1.51,.7,.45,1.39,.9,2.05,1.41,2.13,1.65,3.8,3.85,4.83,6.35,.2,.5-.03,1.07-.53,1.27-.12,.05-.25,.07-.37,.07Z"/>
      <path class="cls-1" d="M254.43,176.58c-.39,0-.76-.24-.91-.63-1.64-4.35-4.06-8.38-6.47-10.79-1.12-1.13-2.37-2.09-3.69-3.1-.99-.76-1.98-1.52-2.91-2.35-5.23-4.68-8.29-11.25-10.98-17.05-.23-.49-.02-1.07,.47-1.29,.48-.23,1.07-.02,1.29,.47,2.62,5.63,5.58,12.02,10.51,16.42,.89,.8,1.85,1.53,2.8,2.26,1.31,1.01,2.67,2.05,3.88,3.27,2.6,2.6,5.18,6.89,6.92,11.48,.19,.5-.06,1.07-.57,1.26-.11,.04-.23,.06-.34,.06Z"/>
      <path class="cls-1" d="M237.52,163.46c-.34,0-.66-.18-.84-.48l-2.08-3.56c-.27-.47-.11-1.06,.35-1.33,.47-.27,1.06-.11,1.33,.35l2.08,3.56c.27,.47,.11,1.06-.35,1.33-.15,.09-.32,.13-.49,.13Z"/>
      <path class="cls-1" d="M233.89,129.82c-.37,0-.72-.21-.89-.57-1.16-2.54-3.58-4.12-6.15-5.8-1.58-1.03-3.21-2.1-4.58-3.43-2.97-2.88-5.03-6.72-7.02-10.44-.89-1.66-1.73-3.23-2.64-4.71-.28-.46-.14-1.06,.32-1.34,.46-.28,1.06-.14,1.34,.32,.94,1.54,1.84,3.2,2.7,4.82,1.92,3.59,3.9,7.3,6.65,9.96,1.24,1.2,2.79,2.21,4.29,3.2,2.69,1.76,5.47,3.58,6.86,6.63,.22,.49,0,1.07-.48,1.29-.13,.06-.27,.09-.4,.09Z"/>
      <path class="cls-1" d="M236.05,140.27c-.48,0-.9-.36-.97-.85-.15-1.16-.83-2.11-1.37-2.7-.59-.65-1.3-1.2-2.05-1.79l-.41-.33c-4.5-3.57-8.25-8-11.88-12.29-.35-.41-.31-1.04,.1-1.39,.41-.35,1.01-.31,1.36,.1l.03,.03c3.57,4.21,7.26,8.57,11.6,12.02l.41,.32c.78,.61,1.59,1.24,2.29,2.01,1.05,1.15,1.7,2.46,1.87,3.77,.07,.54-.31,1.02-.84,1.09-.04,0-.08,0-.12,0Z"/>
      <path class="cls-1" d="M236.2,139.43c-.07,0-.13,0-.2-.02-.53-.11-.87-.63-.76-1.15,.45-2.17,.59-4.39,.41-6.59-.05-.64-.13-1.28-.21-1.92-.14-1.14-.28-2.32-.28-3.51-.01-3.55,1.32-7.13,3.65-9.83,.35-.41,.97-.45,1.37-.1,.41,.35,.45,.97,.1,1.38-2.03,2.35-3.18,5.47-3.18,8.56,0,1.08,.13,2.15,.27,3.28,.08,.66,.16,1.33,.22,1.99,.2,2.39,.04,4.79-.45,7.15-.1,.46-.5,.78-.95,.78Z"/>
      <path class="cls-1" d="M290.83,167.68c-.06,0-.12,0-.19-.02-.53-.1-.87-.61-.77-1.14,.14-.72-.37-1.57-.91-2.48-.4-.66-.81-1.35-1.04-2.1-.1-.35-.23-.7-.36-1.07-.4-1.14-.85-2.43-.79-3.67,.02-.54,.5-.93,1.02-.93,.54,.03,.95,.48,.93,1.02-.04,.86,.33,1.91,.69,2.93,.14,.4,.27,.79,.38,1.16,.16,.52,.49,1.07,.84,1.66,.67,1.12,1.43,2.4,1.15,3.85-.09,.46-.5,.79-.96,.79Z"/>
      <path class="cls-1" d="M288.41,174.65c-.45,0-.85-.31-.95-.76l-.14-.61c-.71-3.18-1.37-6.18-3.16-8.79-.3-.45-.19-1.05,.26-1.35,.45-.31,1.05-.19,1.35,.25,1.99,2.92,2.7,6.1,3.45,9.47l.13,.61c.12,.53-.21,1.05-.74,1.16-.07,.02-.14,.02-.21,.02Z"/>
      <path class="cls-1" d="M280.16,189.88c-.14,0-.28-.03-.42-.1-.48-.23-.69-.81-.46-1.3l.36-.75c.8-1.64,1.62-3.33,1.99-5.07,.45-2.12,.12-4.12-.89-5.49-.32-.43-.23-1.04,.2-1.36,.44-.32,1.04-.23,1.36,.21,1.34,1.82,1.79,4.38,1.23,7.04-.42,1.98-1.29,3.78-2.14,5.52l-.36,.74c-.17,.35-.52,.55-.88,.55Z"/>
      <path class="cls-1" d="M273.67,197.67c-.18,0-.36-.05-.53-.16-.45-.29-.58-.9-.29-1.35,2.78-4.3,4.08-9.47,3.65-14.56-.05-.54,.35-1.01,.89-1.05,.55-.03,1.01,.35,1.05,.89,.47,5.52-.94,11.12-3.96,15.78-.19,.29-.5,.45-.82,.45Z"/>
      <path class="cls-1" d="M280.18,189.92c-.3,0-.59-.14-.78-.39-.32-.43-.23-1.04,.2-1.36,1.74-1.3,3.78-2.29,5.89-2.84,.54-.14,1.08-.26,1.63-.37,1-.21,1.94-.41,2.82-.77,1.39-.56,2.35-1.52,2.57-2.57,.11-.53,.64-.85,1.16-.75,.53,.11,.86,.63,.75,1.16-.36,1.67-1.76,3.16-3.74,3.96-1.04,.42-2.12,.65-3.15,.87-.52,.11-1.03,.22-1.54,.35-1.87,.49-3.67,1.36-5.22,2.52-.18,.13-.38,.2-.58,.2Z"/>
      <path class="cls-1" d="M200.01,156.82c-.47,0-.88-.34-.96-.82-.73-4.5,.33-9,1.47-12.81,.28-.94,.58-1.87,.87-2.81,.94-2.98,1.92-6.07,2.32-9.16,.58-4.52-.25-8.52-2.34-11.29-.32-.43-.24-1.04,.19-1.36,.43-.32,1.04-.24,1.36,.19,2.39,3.17,3.36,7.68,2.71,12.71-.42,3.27-1.43,6.44-2.4,9.5-.29,.93-.59,1.85-.86,2.78-1.07,3.6-2.08,7.83-1.41,11.94,.09,.53-.27,1.03-.8,1.12-.05,.01-.11,.01-.16,.01Z"/>
      <path class="cls-1" d="M195.71,133.41c-.17,0-.35-.05-.51-.14-.46-.28-.6-.88-.33-1.34,3.37-5.53,4.1-12.22,1.9-17.46-.21-.49,.03-1.07,.52-1.27,.49-.22,1.07,.02,1.28,.52,2.44,5.8,1.66,13.17-2.03,19.22-.18,.3-.5,.47-.83,.47Z"/>
      <path class="cls-1" d="M191.93,140.17c-.2,0-.39-.06-.57-.18-.44-.31-.54-.92-.23-1.36l2.15-3.04c.31-.44,.92-.54,1.36-.23,.44,.31,.54,.92,.23,1.36l-2.15,3.04c-.19,.27-.49,.41-.79,.41Z"/>
      <path class="cls-1" d="M205.91,179.16c-.42,0-.8-.27-.93-.69-2.78-8.92-2.47-18.62,.88-27.33,.2-.5,.76-.75,1.26-.56,.5,.19,.75,.76,.56,1.26-3.19,8.3-3.49,17.55-.84,26.05,.16,.51-.13,1.06-.64,1.22-.1,.03-.2,.04-.29,.04Z"/>
      <path class="cls-1" d="M207.2,148.96s-.02,0-.03,0c-.54-.01-.96-.46-.95-1l.13-3.96c.02-.53,.45-.95,.97-.95,.01,0,.02,0,.03,0,.54,.01,.96,.46,.94,1l-.13,3.96c-.01,.53-.45,.95-.97,.95Z"/>
      <path class="cls-1" d="M185.38,119.5c-.14,0-.29-.03-.42-.1-.48-.23-.69-.82-.45-1.3,3.45-7.14,4.62-13.98,3.39-19.8-.11-.53,.22-1.04,.75-1.15,.52-.11,1.04,.22,1.16,.75,1.35,6.33,.15,13.41-3.54,21.05-.17,.35-.52,.55-.88,.55Z"/>
      <path class="cls-1" d="M185.07,129.19c-.13,0-.26-.03-.39-.08-.49-.21-.72-.79-.5-1.28l1.74-4.06c2.57-6,5.23-12.22,5.44-18.78,.02-.53,.45-.94,.97-.94,.01,0,.02,0,.03,0,.54,.02,.96,.46,.94,1-.21,6.94-3.07,13.6-5.59,19.49l-1.75,4.07c-.16,.37-.52,.59-.89,.59Z"/>
      <path class="cls-1" d="M188.82,132c-.17,0-.34-.04-.5-.14-.46-.27-.61-.87-.34-1.34,3.38-5.68,5.75-12.67,6.68-19.69,.07-.53,.56-.89,1.09-.84,.53,.07,.91,.56,.84,1.1-.96,7.27-3.42,14.53-6.94,20.43-.18,.31-.51,.48-.84,.48Z"/>
      <path class="cls-1" d="M184.82,138.6c-.19,0-.39-.06-.56-.18-.44-.31-.55-.92-.24-1.36l1.88-2.65c.31-.44,.92-.54,1.36-.23,.44,.31,.54,.92,.23,1.36l-1.88,2.65c-.19,.27-.49,.41-.8,.41Z"/>
      <path class="cls-1" d="M177.76,122.23c-.17,0-.35-.05-.51-.14-.46-.28-.6-.88-.32-1.34l2.29-3.71c.28-.46,.89-.6,1.34-.32,.46,.28,.6,.88,.32,1.34l-2.29,3.71c-.18,.3-.5,.46-.83,.46Z"/>
      <path class="cls-1" d="M181.56,115.54c-.19,0-.37-.06-.54-.17-.45-.3-.57-.91-.27-1.35,.68-1.02,1.1-2.2,1.2-3.42,.05-.54,.53-.92,1.05-.89,.54,.05,.93,.52,.89,1.05-.13,1.55-.66,3.05-1.53,4.34-.19,.28-.5,.43-.81,.43Z"/>
      <path class="cls-1" d="M174.54,115.94c-.44,0-.84-.3-.95-.75-1.43-6.04-1.23-11.74,.58-16.48,.19-.5,.76-.76,1.26-.56,.5,.19,.76,.76,.56,1.26-1.67,4.37-1.84,9.68-.5,15.34,.12,.52-.2,1.05-.72,1.17-.08,.02-.15,.03-.23,.03Z"/>
      <path class="cls-1" d="M179.37,108.93c-.11,0-.21-.02-.32-.05-.51-.18-.78-.73-.61-1.24,1.49-4.34,2.11-10.29,1.51-14.45-.08-.53,.29-1.03,.83-1.1,.53-.08,1.03,.29,1.1,.83,.63,4.44-.02,10.76-1.6,15.36-.14,.41-.52,.66-.92,.66Z"/>
      <path class="cls-1" d="M168.93,96.48c-.11,0-.21-.02-.32-.05-.51-.18-.78-.73-.61-1.24,1.12-3.27,1.05-6.98-.18-10.2-.19-.5,.06-1.06,.56-1.26,.5-.2,1.07,.06,1.26,.56,1.39,3.64,1.47,7.84,.21,11.53-.14,.41-.52,.66-.92,.66Z"/>
      <path class="cls-1" d="M163.48,92.8c-.4,0-.77-.25-.92-.65-.7-1.96,.14-3.86,.89-5.55,.62-1.41,1.22-2.75,.93-3.97-.12-.53,.2-1.05,.73-1.17,.53-.13,1.05,.2,1.17,.73,.43,1.86-.35,3.63-1.05,5.2-.66,1.48-1.27,2.88-.83,4.1,.18,.5-.08,1.06-.59,1.25-.11,.04-.22,.06-.33,.06Z"/>
      <path class="cls-1" d="M158.74,84.26c-.43,0-.82-.28-.94-.71-1.04-3.73-3.03-8.88-6.55-12.23-.39-.37-.41-.99-.04-1.38,.37-.4,.99-.41,1.38-.04,3.85,3.65,5.98,9.15,7.09,13.12,.14,.52-.16,1.06-.68,1.2-.09,.02-.18,.04-.26,.04Z"/>
      <path class="cls-1" d="M171.82,110.12c-.21,0-.42-.07-.59-.2-2.84-2.19-5.04-5.18-6.99-7.81-1.97-2.65-4-5.4-6.61-7.43-2.81-2.17-6.02-3.14-8.78-2.66-.53,.09-1.03-.27-1.13-.8-.09-.53,.27-1.03,.8-1.13,3.3-.56,7.05,.55,10.3,3.05,2.83,2.19,4.94,5.05,6.99,7.81,1.96,2.65,3.99,5.4,6.61,7.43,.43,.33,.5,.94,.18,1.37-.19,.25-.48,.38-.77,.38Z"/>
      <path class="cls-1" d="M155.71,90.67c-.2,0-.4-.06-.57-.19-2.05-1.5-4.47-2.51-6.98-2.91-.53-.09-.89-.59-.81-1.12,.08-.53,.58-.89,1.12-.81,2.82,.45,5.53,1.58,7.83,3.27,.43,.32,.53,.93,.21,1.36-.19,.26-.49,.4-.79,.4Z"/>
      <path class="cls-1" d="M169.08,105.7c-.35,0-.68-.19-.86-.51-2.47-4.59-5.53-8.87-9.08-12.72-.36-.4-.34-1.01,.06-1.38,.39-.37,1.01-.34,1.38,.06,3.66,3.97,6.81,8.38,9.36,13.12,.26,.47,.08,1.06-.4,1.32-.15,.08-.31,.12-.46,.12Z"/>
      <path class="cls-1" d="M154.26,85.09c-.26,0-.52-.11-.71-.31-2.13-2.31-5.45-4.6-10.14-7.01-.48-.25-.67-.83-.42-1.31,.25-.48,.83-.67,1.31-.42,4.9,2.51,8.39,4.94,10.68,7.42,.36,.4,.34,1.01-.05,1.38-.19,.17-.43,.26-.66,.26Z"/>
      <path class="cls-1" d="M177.92,125.76c-.23,0-.46-.08-.65-.25-1.84-1.65-3.5-3.5-4.94-5.48-.59-.82-1.15-1.67-1.71-2.52-.87-1.32-1.69-2.57-2.65-3.73-3.36-4.06-8.29-6.78-12.64-9.18-.47-.26-.64-.85-.38-1.32s.85-.65,1.32-.38c4.5,2.49,9.61,5.3,13.2,9.64,1.03,1.24,1.92,2.59,2.77,3.9,.54,.82,1.08,1.65,1.66,2.44,1.36,1.87,2.93,3.62,4.66,5.18,.4,.36,.43,.98,.07,1.38-.19,.21-.46,.32-.72,.32Z"/>
      <path class="cls-1" d="M183.47,137.79c-.21,0-.41-.07-.59-.2-.77-.59-1.57-1.18-2.38-1.78-3.81-2.82-7.76-5.73-10.39-9.49-.39-.56-.75-1.12-1.12-1.69-.84-1.31-1.64-2.54-2.65-3.59-2.23-2.29-5.47-3.56-8.32-4.67-.5-.2-.75-.76-.55-1.26,.2-.5,.76-.75,1.26-.55,3.04,1.19,6.48,2.53,9.01,5.13,1.15,1.19,2.04,2.56,2.89,3.89,.35,.55,.7,1.1,1.07,1.63,2.44,3.49,6.26,6.31,9.95,9.04,.82,.6,1.62,1.2,2.4,1.8,.43,.33,.51,.94,.18,1.36-.19,.25-.48,.38-.78,.38Z"/>
      <path class="cls-1" d="M190.28,145c-.08,0-.17-.01-.25-.03-1.43-.38-3.19-.56-5.05-.74-2.55-.25-5.19-.51-7.24-1.36-2.74-1.14-4.73-3.31-6.65-5.41-.84-.92-1.7-1.86-2.6-2.69-.4-.36-.43-.98-.06-1.38,.36-.4,.98-.42,1.38-.06,.96,.88,1.86,1.86,2.72,2.81,1.86,2.03,3.61,3.95,5.96,4.92,1.79,.74,4.28,.99,6.69,1.22,1.95,.19,3.79,.37,5.37,.8,.52,.14,.83,.67,.69,1.2-.12,.43-.51,.72-.94,.72Z"/>
      <path class="cls-1" d="M165.91,130.27c-.24,0-.59-.07-.95-.43-.58-.58-1.15-1.15-1.73-1.73l-.55-.55,1.31-1.44c2.94,2.44,3.05,2.54,2.99,3.19l-.04,.5-.69,.42-.35,.02Z"/>
      <path class="cls-1" d="M174.37,146.74c-.24,0-.48-.09-.67-.26l-1.38-1.27c-.39-.37-.41-.99-.04-1.38,.37-.4,.98-.42,1.38-.05l1.38,1.27c.39,.37,.42,.98,.05,1.38-.19,.21-.45,.31-.71,.31Z"/>
      <path class="cls-1" d="M178.71,150.06c-.18,0-.35-.05-.52-.15l-2.02-1.25c-.46-.28-.6-.88-.31-1.34,.29-.46,.88-.59,1.34-.31l2.02,1.25c.46,.28,.59,.89,.31,1.34-.18,.3-.5,.46-.83,.46Z"/>
      <path class="cls-1" d="M200.47,158.95c-.35,0-.69-.19-.86-.52-1.71-3.22-6.26-4.78-9.72-4.64-.26,.01-.52,.04-.78,.06-.74,.07-1.51,.13-2.32,0-1.02-.16-1.91-.6-2.76-1.02-.87-.43-1.69-.84-2.52-.87-.54-.02-.96-.47-.93-1.01,.02-.54,.45-1.02,1.01-.93,1.24,.05,2.29,.57,3.31,1.07,.76,.38,1.47,.73,2.19,.84,.57,.09,1.19,.03,1.85-.02,.29-.02,.57-.05,.86-.06,4.13-.19,9.43,1.71,11.53,5.67,.25,.47,.07,1.06-.4,1.32-.15,.08-.3,.11-.46,.11Z"/>
      <path class="cls-1" d="M182.37,157.64c-.2,0-.39-.06-.57-.18l-1.97-1.41c-.44-.31-.54-.92-.22-1.36,.31-.44,.92-.54,1.36-.22l1.97,1.41c.44,.31,.54,.92,.23,1.36-.19,.27-.49,.41-.79,.41Z"/>
      <path class="cls-1" d="M204.87,179.52c-.42,0-.81-.28-.94-.7-.92-3.18-2.68-6.5-5.39-10.16-3.27-4.39-8.84-6.89-13.31-8.9-.49-.22-.71-.8-.49-1.29,.22-.49,.8-.71,1.29-.49,4.68,2.1,10.5,4.71,14.07,9.51,2.85,3.85,4.72,7.37,5.7,10.78,.15,.52-.15,1.06-.67,1.21-.09,.03-.18,.04-.27,.04Z"/>
      <path class="cls-1" d="M193.27,168.62c-.22,0-.43-.07-.61-.22l-3.5-2.84c-.42-.34-.48-.95-.15-1.37,.34-.42,.95-.48,1.37-.15l3.5,2.85c.42,.34,.48,.95,.14,1.37-.19,.24-.47,.36-.76,.36Z"/>
      <path class="cls-1" d="M88.51,90.8c-.47,0-.89-.35-.96-.83-.46-3.06-.47-6.2-.05-9.32,.07-.53,.56-.91,1.1-.83,.53,.07,.91,.56,.83,1.1-.4,2.93-.38,5.88,.05,8.76,.08,.53-.29,1.03-.82,1.11-.05,0-.1,.01-.14,.01Z"/>
      <path class="cls-1" d="M89.27,78.16c-.52,0-.95-.41-.97-.93l-.15-3.35c-.02-.54,.39-.99,.93-1.02,.56-.07,.99,.39,1.02,.93l.15,3.35c.02,.54-.39,.99-.93,1.02-.02,0-.03,0-.04,0Z"/>
      <path class="cls-1" d="M79.72,84.72c-.36,0-.7-.2-.87-.54-.97-1.93-1.05-4.1-1.12-6.02l-.21-6.15c-.02-.54,.41-.99,.94-1.01,.55-.07,.99,.4,1.01,.94l.21,6.15c.06,1.8,.13,3.66,.91,5.21,.24,.48,.05,1.07-.43,1.31-.14,.07-.29,.11-.44,.11Z"/>
      <path class="cls-1" d="M77.37,68.5c-.4,0-.77-.25-.92-.64l-.99-2.75c-.18-.51,.08-1.06,.58-1.25,.51-.19,1.07,.08,1.25,.58l.99,2.75c.18,.51-.08,1.06-.58,1.25-.11,.04-.22,.06-.33,.06Z"/>
      <path class="cls-1" d="M71.28,80.47c-.35,0-.68-.19-.86-.51-1.52-2.8-2.1-6.09-1.63-9.27,.11-.73,.27-1.45,.43-2.16,.11-.47,.22-.94,.3-1.41,.57-2.98,.4-6.08-.48-8.96-.16-.52,.13-1.06,.65-1.22,.51-.15,1.06,.13,1.22,.65,.97,3.19,1.16,6.61,.53,9.9-.09,.49-.21,.99-.32,1.48-.15,.67-.31,1.34-.41,2.02-.41,2.76,.09,5.62,1.41,8.05,.26,.47,.08,1.06-.39,1.32-.15,.08-.31,.12-.46,.12Z"/>
      <path class="cls-1" d="M44.83,43.24c-.54,0-.97-.44-.97-.98,0-6.61-4.46-11.98-8.77-17.18-.7-.84-1.39-1.68-2.06-2.51-.34-.42-.27-1.03,.15-1.37,.42-.34,1.03-.27,1.37,.15,.66,.82,1.35,1.65,2.04,2.48,4.53,5.46,9.22,11.11,9.22,18.42,0,.54-.44,.98-.98,.98Z"/>
      <path class="cls-1" d="M50.74,54.57c-.45,0-.86-.32-.95-.78-.46-2.25-.55-4.54-.64-6.75-.1-2.51-.19-4.88-.78-7.2-.78-3.09-2.04-5.45-3.5-8.19l-.9-1.69c-.25-.48-.07-1.07,.41-1.32,.47-.25,1.06-.06,1.31,.41l.89,1.68c1.46,2.73,2.84,5.31,3.67,8.63,.63,2.52,.74,5.1,.84,7.6,.09,2.14,.17,4.34,.6,6.44,.11,.53-.23,1.04-.76,1.15-.07,.01-.13,.02-.2,.02Z"/>
      <path class="cls-1" d="M56.77,65.36s-.05,0-.07,0c-.54-.04-.94-.51-.9-1.04l.61-8.21c.13-1.72,.18-3.23-.53-4.37-.28-.46-.14-1.06,.32-1.34,.46-.28,1.06-.14,1.34,.32,1.1,1.77,.93,3.95,.82,5.55l-.61,8.21c-.04,.51-.47,.9-.97,.9Z"/>
      <path class="cls-1" d="M55.44,49.3c-.45,0-.86-.32-.95-.78l-.41-2.06c-.11-.53,.24-1.04,.76-1.15,.52-.12,1.04,.23,1.15,.76l.41,2.06c.11,.53-.23,1.04-.76,1.15-.07,.01-.13,.02-.19,.02Z"/>
      <path class="cls-1" d="M54.56,44.02c-.45,0-.85-.31-.95-.76l-.41-1.82c-.12-.53,.21-1.05,.74-1.16,.52-.12,1.04,.21,1.16,.74l.41,1.82c.12,.53-.21,1.05-.74,1.16-.07,.02-.14,.02-.21,.02Z"/>
      <path class="cls-1" d="M64.75,75.35c-.36,0-.7-.2-.87-.53-1.92-3.76-1.79-8.01-1.66-12.12,.03-1.1,.07-2.2,.06-3.28-.03-5.41-1.19-10.91-3.37-15.9-.22-.49,.01-1.07,.5-1.28,.5-.21,1.07,.01,1.28,.5,2.28,5.23,3.5,10.99,3.53,16.67,0,1.11-.03,2.23-.06,3.35-.12,4.04-.24,7.86,1.45,11.17,.24,.48,.05,1.07-.43,1.31-.14,.07-.29,.11-.44,.11Z"/>
      <path class="cls-1" d="M126.64,139c-1.37-3.06-1.42-6.84-.15-11.25,.49-1.71,1.13-3.37,1.74-4.99,.65-1.7,1.32-3.45,1.8-5.22,1.03-3.72,.86-7.85-.45-10.52l1.75-.86c1.83,3.73,1.5,8.59,.58,11.89-.51,1.85-1.19,3.65-1.86,5.39-.6,1.58-1.22,3.2-1.69,4.83-1.14,3.95-1.12,7.29,.06,9.91l-1.78,.8Z"/>
      <path class="cls-1" d="M133.2,144.72c-2.87-4.35-2.55-10.32-1.77-14.57,.25-1.37,.56-2.73,.88-4.1,.73-3.2,1.42-6.22,1.39-9.35l1.95-.02c.03,3.35-.71,6.63-1.44,9.8-.31,1.34-.61,2.67-.86,4.02-.71,3.89-1.03,9.34,1.48,13.15l-1.63,1.07Z"/>
      <path class="cls-1" d="M138.08,148.7c-2.66-6.01-1.73-12.78-.46-19.76l1.92,.35c-1.22,6.67-2.11,13.12,.32,18.62l-1.78,.79Z"/>
      <path class="cls-1" d="M253.26,264.06l1.01-1.99c2.35-4.63,3.23-10.02,2.47-15.16-.14-.92-.32-1.84-.5-2.77-.61-3.04-1.23-6.18-.25-9.25,.54-1.66,1.49-3.08,2.41-4.45,.88-1.3,1.7-2.53,2.16-3.91,.88-2.66,.31-5.49-.3-8.48-.47-2.32-.95-4.72-.76-7.14,.27-3.22,1.48-10.78,6.8-12.8,.21-.26,.51-.38,.8-.38h.39l.66-.21-.1,.8,.61,1.14-.62,.17c.18,.81,.73,2.25,2.23,3.43,1.8,1.4,2.9,3.4,2.95,5.35,.03,.8-.2,1.55-.4,2.2-.11,.37-.23,.73-.29,1.11-.33,2.11,1.17,3.98,2.75,5.96,1.57,1.96,3.2,3.99,3.36,6.56,.08,1.26-.23,2.44-.52,3.58-.16,.61-.32,1.21-.41,1.83-.25,1.72,.04,3.48,.34,5.34l.19,1.16c.67,4.37,.98,12.4-4.47,17.02-2.38,2.02-5.35,2.92-8.23,3.79-.59,.18-1.17,.35-1.75,.54-.96,.31-1.19,.72-1.62,1.46-.74,1.3-1.75,3.09-6.77,4.52l-2.14,.61Zm12.94-63.75c-3.62,2.09-4.53,8.1-4.76,10.76-.18,2.14,.28,4.4,.72,6.59,.63,3.11,1.28,6.34,.24,9.49-.54,1.63-1.48,3.03-2.39,4.38-.89,1.32-1.72,2.57-2.18,3.96-.83,2.58-.28,5.34,.31,8.27,.19,.96,.38,1.92,.52,2.87,.71,4.79,.1,9.76-1.71,14.25,2.45-.99,3.02-1.99,3.53-2.9,.48-.85,1.03-1.81,2.72-2.35,.59-.19,1.18-.37,1.78-.55,2.81-.85,5.47-1.65,7.54-3.41,4.73-4.01,4.42-11.27,3.81-15.24l-.18-1.13c-.32-1.93-.64-3.92-.35-5.94,.1-.68,.27-1.36,.45-2.03,.27-1.04,.52-2.02,.46-2.97-.12-1.95-1.49-3.66-2.94-5.46-1.78-2.22-3.62-4.52-3.16-7.48,.07-.47,.21-.92,.35-1.38,.17-.56,.33-1.09,.31-1.57-.04-1.36-.88-2.85-2.21-3.88-1.69-1.33-2.52-3.01-2.86-4.28Z"/>
      <path class="cls-1" d="M272.38,200.12l-.34-1.49c-1.44-6.33,.28-13.33,4.48-18.28,.76-.89,1.6-1.74,2.42-2.56,2.08-2.08,4.04-4.05,4.62-6.64,.32-1.42,.2-2.96,.08-4.59-.19-2.39-.38-4.86,.91-7.06,.48-.82,1.11-1.48,1.72-2.11,.25-.26,.49-.52,.73-.79,.25-.29,.49-.55,.72-.81,1.9-2.1,2.76-3.06,1.34-7.8l-.95-3.17,2.52,2.15c.7,.6,1.46,1.12,2.26,1.67,1.73,1.18,3.52,2.4,4.67,4.5,1.3,2.35,1.73,5.89,1.11,9.02-.31,1.54-.98,2.9-1.64,4.22-.69,1.38-1.33,2.69-1.53,4.12-.26,1.85,.27,3.71,.84,5.69,.46,1.58,.93,3.21,1,4.91,.1,2.23-.53,4.49-1.77,6.37-.84,1.26-1.76,2.05-2.83,2.43-.74,.27-1.49,.31-2.21,.35l-.36,.02c-5.72,.41-10.59,4.22-15.29,7.9l-2.52,1.96Zm19.19-50.03c.56,3.51-.57,4.99-2.4,7.01l-.7,.78c-.26,.29-.53,.57-.79,.86-.56,.58-1.08,1.13-1.45,1.76-.99,1.66-.82,3.73-.65,5.91,.13,1.7,.27,3.46-.12,5.17-.71,3.13-2.96,5.39-5.14,7.58-.8,.8-1.6,1.6-2.32,2.45-3.47,4.09-5.08,9.73-4.35,15.04l.04-.03c4.93-3.86,10.04-7.85,16.36-8.31l.38-.02c.6-.03,1.17-.06,1.66-.24,.65-.23,1.27-.79,1.86-1.67,1.01-1.54,1.52-3.39,1.45-5.22-.06-1.47-.48-2.92-.92-4.45-.6-2.08-1.23-4.24-.9-6.5,.25-1.74,1-3.25,1.72-4.71,.62-1.26,1.22-2.46,1.47-3.74,.54-2.7,.19-5.72-.9-7.69-.93-1.69-2.46-2.73-4.07-3.83-.08-.05-.15-.1-.23-.16Z"/>
      <path class="cls-1" d="M152.2,159.2l-2.14-.26c-23.46-2.84-46.13-9.53-67.4-19.88-7.76-3.78-15.51-8.32-19.64-15.9-1.32-2.42-2.18-5.04-3.03-7.58-.52-1.58-1.06-3.2-1.7-4.74-2.86-6.93-7.93-12.77-12.84-18.43-3.13-3.61-6.37-7.34-9.07-11.38-7.16-10.7-10.55-23.47-13.82-35.83C18.58,30.13,14.81,15.89,4.78,5.13L0,0,6,3.64c26.66,16.15,53.15,33.03,78.75,50.17,4.86,3.26,10.37,6.95,14.21,12.1,1.28,1.71,2.36,3.57,3.41,5.36,1.13,1.93,2.29,3.92,3.67,5.68,2.26,2.89,5.22,5.27,8.07,7.57,1.66,1.34,3.38,2.73,4.97,4.21,11.5,10.76,16.09,26.01,20.54,40.75,3.15,10.44,6.13,20.31,11.36,27.94l1.22,1.78ZM9.91,8.29c7.69,10.52,11.17,23.66,14.55,36.41,3.23,12.2,6.58,24.82,13.56,35.25,2.63,3.93,5.83,7.62,8.92,11.18,5.01,5.77,10.19,11.74,13.17,18.96,.66,1.6,1.21,3.27,1.75,4.87,.81,2.45,1.66,4.99,2.89,7.26,3.86,7.1,11.31,11.45,18.78,15.09,20.44,9.95,42.19,16.48,64.7,19.44-4.69-7.58-7.5-16.89-10.45-26.7-4.37-14.49-8.89-29.48-20-39.89-1.54-1.44-3.23-2.8-4.86-4.12-2.94-2.37-5.98-4.83-8.38-7.89-1.46-1.86-2.66-3.92-3.82-5.91-1.02-1.75-2.07-3.55-3.29-5.18-3.64-4.88-9-8.47-13.73-11.64C59.67,39.36,34.88,23.52,9.91,8.29Z"/>
      <path class="cls-1" d="M148.66,157.71l-28.79-24.12c-5.17-4.33-10.52-8.81-14.43-14.56-2.37-3.48-4.16-7.36-5.89-11.12-2.41-5.23-4.68-10.18-8.42-14.2-3.82-4.12-8.71-6.8-13.88-9.63-4.03-2.2-8.19-4.48-11.77-7.5-6.93-5.84-11.18-14.02-15.3-21.94-1.29-2.49-2.63-5.06-4.02-7.5C37.32,31.64,24.6,18.56,9.36,9.32l1.01-1.67c15.52,9.41,28.48,22.73,37.48,38.52,1.41,2.48,2.76,5.06,4.06,7.56,4.03,7.75,8.2,15.75,14.83,21.35,3.42,2.89,7.5,5.13,11.45,7.28,5.08,2.78,10.34,5.66,14.37,10.02,3.95,4.25,6.39,9.57,8.76,14.71,1.7,3.69,3.45,7.5,5.73,10.84,3.76,5.53,9.01,9.92,14.08,14.17l28.79,24.12-1.25,1.49Z"/>
      <path class="cls-1" d="M280.58,200.36c-17,0-34.74-2.53-53.03-7.58-24.19-6.68-48.93-17.55-77.87-34.2l.97-1.69c28.79,16.57,53.39,27.38,77.41,34.01,29.64,8.18,57.8,9.68,83.68,4.46l.38,1.91c-10.19,2.06-20.72,3.08-31.55,3.08Z"/>
      <path class="cls-1" d="M210.69,187.33c-5.1-5.74-10.87-12.25-18.16-15.92-1.48-.75-3.08-1.4-4.62-2.04-3.21-1.32-6.53-2.68-9.25-5.01-4.07-3.49-6.11-8.49-8.07-13.33-1.52-3.74-3.09-7.6-5.58-10.67-.6-.73-1.25-1.43-1.9-2.12-1.25-1.33-2.54-2.7-3.47-4.37-1.47-2.62-1.85-5.58-2.21-8.44-.3-2.36-.59-4.59-1.44-6.64-.62-1.52-1.53-2.89-2.5-4.34-.63-.95-1.28-1.93-1.85-2.96-2.78-5.07-3.29-10.89-3.78-16.52-.2-2.23-.4-4.54-.74-6.75-1.17-7.58-5.52-15.6-12.6-16.43l-1.55-.18,.84-1.31c2.23-3.47,4.75-5.16,7.68-5.16,2.66,0,5.21,1.38,7.66,2.71,1.55,.84,3.01,1.63,4.43,2.06,6.69,2,12.14,6.36,14.96,11.96,.3,.59,.57,1.19,.84,1.8,.6,1.34,1.17,2.61,2.03,3.66,1.94,2.38,4.98,3.31,8.2,4.3,2.51,.77,5.11,1.57,7.29,3.11,3.7,2.61,5.5,6.78,7.24,10.81,.86,1.98,1.74,4.03,2.84,5.83,1.59,2.63,3.79,4.98,5.92,7.24,2.95,3.15,6,6.41,7.62,10.56,2,5.17,1.46,10.76,.93,16.18l-.15,1.56c-.33,3.68-1.07,7.48-1.78,11.15-2.03,10.47-3.95,20.35,2.63,27.98l-1.47,1.28Zm-74.37-117.2c7.63,1.89,11.62,10.56,12.74,17.79,.35,2.27,.56,4.62,.75,6.88,.49,5.68,.96,11.04,3.54,15.75,.53,.96,1.16,1.91,1.76,2.82,.97,1.47,1.98,2.98,2.67,4.67,.95,2.29,1.26,4.75,1.57,7.14,.36,2.8,.7,5.44,1.98,7.73,.82,1.46,1.97,2.69,3.2,3.99,.68,.73,1.36,1.46,1.99,2.23,2.68,3.29,4.3,7.29,5.88,11.16,1.97,4.84,3.83,9.4,7.54,12.59,2.48,2.13,5.51,3.37,8.72,4.69,1.58,.65,3.21,1.32,4.76,2.1,5.09,2.56,9.41,6.39,13.28,10.39-2.08-6.91-.56-14.73,.92-22.36,.7-3.63,1.43-7.38,1.76-10.96l.15-1.57c.5-5.19,1.02-10.55-.81-15.29-1.47-3.8-4.27-6.78-7.22-9.94-2.19-2.34-4.46-4.77-6.16-7.57-1.16-1.92-2.07-4.03-2.96-6.07-1.71-3.96-3.32-7.69-6.57-9.99-1.93-1.36-4.37-2.11-6.73-2.84-3.36-1.03-6.83-2.1-9.14-4.93-1.02-1.25-1.67-2.7-2.29-4.1-.26-.58-.52-1.15-.8-1.72-2.58-5.13-7.61-9.12-13.78-10.97-1.61-.48-3.23-1.36-4.8-2.21-2.25-1.22-4.57-2.48-6.74-2.48-1.91,0-3.58,.98-5.19,3.05Z"/>
      <path class="cls-1" d="M263.32,199.62l-1.51-.83c-.19-.09-.57-.18-1.13-.33-17.46-4.75-29.24-17.51-35.01-37.91-1.33-4.71-.84-9.63-.37-14.39,.24-2.39,.48-4.87,.49-7.25,.01-4.83-1.81-6.14-4.33-7.95-4.61-3.31-10.35-7.42-8.75-32.23l.1-1.5,1.33,.7c1.63,.86,3.06,1.35,4.44,1.83,3.38,1.17,6.57,2.27,11.3,8.28,1.51,1.92,3.85,3.22,6.11,4.48,3.26,1.82,6.64,3.69,7.75,7.5,.23,.81,.38,1.63,.53,2.46,.2,1.12,.38,2.17,.79,3.13,1.27,3.03,4.34,4.61,7.6,6.28,2.01,1.03,4.08,2.1,5.81,3.56,4.25,3.6,5.98,9.26,7.37,13.81l.42,1.39c1.57,5.13,3.13,10.26,4.7,15.39,.43,1.37,.95,3.09,.83,4.83-.17,2.37-1.44,4.33-2.67,6.23l-.58,.9c-3.68,5.83-5.56,12.9-5.28,19.9l.07,1.73Zm-48.75-99.32c-1.22,22.43,3.9,26.1,8.03,29.06,2.65,1.9,5.16,3.7,5.15,9.54,0,2.48-.25,5-.49,7.44-.48,4.79-.93,9.32,.3,13.67,5.57,19.7,16.89,32,33.64,36.56,.03,0,.06,.01,.08,.02-.01-6.94,1.96-13.87,5.61-19.65l.59-.92c1.15-1.76,2.23-3.43,2.36-5.3,.1-1.37-.35-2.83-.75-4.12-1.57-5.13-3.14-10.26-4.7-15.4l-.42-1.38c-1.31-4.3-2.95-9.66-6.76-12.89-1.56-1.32-3.53-2.33-5.44-3.31-3.42-1.76-6.96-3.57-8.5-7.26-.49-1.16-.7-2.37-.91-3.55-.13-.76-.27-1.52-.48-2.26-.89-3.04-3.77-4.65-6.82-6.35-2.43-1.35-4.94-2.75-6.7-4.98-4.37-5.56-7.17-6.53-10.4-7.64-1.07-.37-2.16-.75-3.37-1.29Z"/>
      <path class="cls-1" d="M130.36,224.75h0c-6.72,0-13.23-1.66-18.83-4.79-11.12-6.22-18.11-17.22-24.87-27.86-5.67-8.91-11.52-18.13-19.78-24.49-8.97-6.91-20.1-10.08-30.87-13.14l-3.28-.93,3.28-.94c5.07-1.46,10.42-2.2,15.88-2.2,9.93,0,19.79,2.43,28.5,7.03,3.37,1.78,6.66,3.91,9.84,5.97,7.56,4.9,14.7,9.52,23.16,10.17,5.78,.44,11.62-1.14,17.27-2.67,5.08-1.37,10.34-2.79,15.62-2.79,1.33,0,2.63,.09,3.87,.27,6.47,.93,12.16,4.33,17.68,7.63l2.14,1.27c5.47,3.22,12.02,6.64,19.06,7.66,2.6,.38,5-.28,7.34-.92,1.82-.49,3.69-1,5.59-1,2.22,0,4.2,.7,6.07,2.15l2,1.55-2.52,.19c-9.18,.71-13.88,3.39-18.42,5.99-.67,.38-1.34,.76-2.01,1.13-2.91,1.61-5.42,3.14-6.52,5.61-.35,.78-.55,1.65-.76,2.57-.3,1.31-.61,2.66-1.39,3.87-2.08,3.23-5.92,3.6-9.62,3.97-1.41,.14-2.87,.28-4.16,.58-3.4,.8-6.22,2.94-9.21,5.19-1.04,.79-2.09,1.58-3.16,2.31-6.23,4.25-14.01,6.59-21.91,6.59ZM40.03,153.6c9.52,2.75,19.79,6.11,28.04,12.47,8.53,6.57,14.48,15.93,20.23,24.99,6.94,10.91,13.49,21.22,24.18,27.2,5.31,2.97,11.49,4.54,17.88,4.54,7.51,0,14.9-2.22,20.81-6.25,1.04-.71,2.06-1.48,3.08-2.26,3.02-2.28,6.14-4.64,9.94-5.54,1.42-.33,2.94-.48,4.41-.63,3.4-.33,6.6-.64,8.17-3.08,.6-.92,.86-2.05,1.13-3.25,.22-.97,.45-1.98,.88-2.94,1.46-3.28,4.87-5.16,7.36-6.53,.66-.36,1.32-.74,1.98-1.12,4-2.28,8.46-4.84,16.11-5.91-2.2-.69-4.72-.12-7.35,.6-2.51,.68-5.17,1.39-8.13,.96-7.38-1.07-14.14-4.6-19.77-7.91l-2.15-1.28c-5.35-3.19-10.87-6.49-16.96-7.37-1.15-.17-2.36-.25-3.59-.25-5.02,0-10.15,1.38-15.11,2.72-5.81,1.57-11.83,3.19-17.93,2.73-8.96-.68-16.64-5.66-24.07-10.48-3.15-2.04-6.4-4.15-9.69-5.89-8.44-4.45-17.98-6.81-27.59-6.81-4.04,0-8.02,.42-11.86,1.25Z"/>
      <path class="cls-1" d="M261.86,197.73c-6.49-4.57-7.83-13.39-8.27-20.56l-.06-1.04c-.42-7.02-.84-14.28-5.26-19.3-1.23-1.4-2.7-2.54-4.26-3.75-1.57-1.22-3.2-2.47-4.55-4.02-4.09-4.66-4.98-10.86-5.84-16.86-.5-3.5-1.03-7.13-2.18-10.38-3.19-8.96-11.43-15.57-18.05-20.88l1.22-1.52c6.81,5.46,15.29,12.26,18.67,21.74,1.22,3.44,1.76,7.16,2.28,10.76,.86,5.98,1.68,11.62,5.38,15.85,1.23,1.41,2.71,2.55,4.28,3.77,1.56,1.21,3.18,2.46,4.53,4,4.85,5.53,5.33,13.47,5.74,20.48l.06,1.04c.41,6.73,1.63,14.99,7.44,19.08l-1.12,1.59Z"/>
      <path class="cls-1" d="M207.28,181.62c-4.47-4.11-5.41-10.18-6.33-16.04-.67-4.29-1.36-8.73-3.42-12.34-1.81-3.18-4.56-5.58-7.48-8.12-2.36-2.06-4.8-4.19-6.71-6.78-2.65-3.61-4.11-7.87-5.52-11.99-.32-.94-.65-1.89-.98-2.82-2.2-6.14-5.13-12.14-7.96-17.94l-6.72-13.78c-2.31-4.72-4.7-9.61-8.32-13.43-4.6-4.85-11.07-7.74-17.76-7.94l.06-1.95c7.19,.21,14.16,3.33,19.11,8.54,3.82,4.04,6.28,9.06,8.66,13.92l6.7,13.73c2.88,5.9,5.83,11.95,8.07,18.19,.34,.94,.67,1.9,.99,2.85,1.36,3.98,2.77,8.1,5.25,11.46,1.78,2.41,4.14,4.47,6.42,6.47,2.91,2.54,5.92,5.17,7.89,8.62,2.24,3.92,2.96,8.54,3.65,13.01,.9,5.79,1.75,11.26,5.72,14.91l-1.32,1.44Z"/>
      <path class="cls-1" d="M144.72,198.65c-4.55,0-9.26-.46-14.03-1.02-6.3-.73-14.13-1.64-20.73-5.09-5.9-3.08-10.54-7.97-15.02-12.7-1.82-1.91-3.69-3.89-5.62-5.71-13.25-12.52-31.3-19.51-49.55-19.22l-.03-1.95c18.73-.25,37.31,6.89,50.92,19.75,1.96,1.85,3.86,3.85,5.69,5.78,4.38,4.61,8.9,9.38,14.52,12.32,6.28,3.29,13.6,4.14,20.06,4.89,11.07,1.29,21.76,2.08,30.69-2.43,.97-.49,1.92-1.05,2.87-1.6,1.95-1.14,3.97-2.31,6.22-2.99,3.17-.95,6.49-.82,9.69-.68,.94,.04,1.88,.08,2.82,.09,7.12,.11,14.24-1.53,20.64-4.67l.86,1.75c-6.67,3.28-14.05,4.96-21.52,4.87-.95-.01-1.91-.05-2.87-.09-3.19-.13-6.2-.25-9.05,.6-2.03,.6-3.86,1.67-5.8,2.8-.98,.57-1.97,1.14-2.97,1.65-5.47,2.75-11.46,3.64-17.76,3.64Z"/>
      <path class="cls-1" d="M275.44,197.14l-1.87-.55c1.14-3.85,4.09-6.58,6.94-9.23,2.64-2.45,5.13-4.76,6.27-7.85,.54-1.46,.74-3.03,.95-4.68,.12-.94,.24-1.89,.43-2.82,.47-2.34,1.33-4.56,2.16-6.71,.47-1.23,.95-2.46,1.35-3.7,.94-2.89,1.66-9.36-2.34-13.18l1.35-1.41c4.68,4.49,3.99,11.66,2.84,15.19-.41,1.28-.9,2.54-1.39,3.81-.84,2.17-1.63,4.22-2.06,6.38-.18,.88-.29,1.78-.41,2.68-.22,1.69-.44,3.44-1.06,5.11-1.3,3.52-4.08,6.1-6.77,8.6-2.78,2.58-5.41,5.02-6.4,8.36Z"/>
      <path class="cls-1" d="M291.01,177.32c-1.04,0-2.08-.22-3.02-.67l.84-1.76c1.82,.87,4.15,.55,5.66-.78l1.28,1.47c-1.3,1.14-3.04,1.74-4.77,1.74Z"/>
      <path class="cls-1" d="M264.79,250.16c-.14,0-.29-.03-.42-.1-.48-.23-.69-.82-.45-1.3,.53-1.09,1.18-2.44,2.27-3.48,.47-.44,.98-.79,1.46-1.1,.48-.31,.98-.61,1.48-.91,1.87-1.12,3.64-2.18,4.71-3.84,.29-.45,.9-.58,1.35-.29,.45,.29,.58,.9,.29,1.35-1.32,2.04-3.37,3.26-5.35,4.45-.48,.29-.97,.58-1.44,.88-.4,.26-.82,.54-1.17,.87-.77,.73-1.28,1.71-1.86,2.92-.17,.35-.52,.55-.88,.55Z"/>
      <path class="cls-1" d="M264.34,248.73c-.23,0-.46-.08-.65-.25-.9-.8-1.22-1.95-1.43-3.07l-.07-.37c-.22-1.19-.43-2.32-.93-3.31-.47-.91-1.2-1.7-1.97-2.53-.92-.99-1.86-2.02-2.44-3.34-.22-.49,.01-1.07,.5-1.28,.49-.21,1.07,.01,1.28,.5,.45,1.02,1.24,1.89,2.09,2.8,.82,.89,1.68,1.81,2.27,2.96,.64,1.24,.88,2.56,1.12,3.84l.07,.36c.14,.73,.33,1.54,.81,1.97,.4,.36,.44,.98,.08,1.38-.19,.22-.46,.33-.73,.33Z"/>
      <path class="cls-1" d="M265.37,235.37c-.35,0-.69-.19-.87-.53-1.05-2.03-2.27-3.97-3.64-5.77-.33-.43-.24-1.04,.19-1.37,.43-.33,1.04-.24,1.36,.19,1.44,1.89,2.72,3.93,3.82,6.06,.25,.48,.06,1.07-.42,1.31-.14,.08-.3,.11-.45,.11Z"/>
      <path class="cls-1" d="M266.14,231.46c-.2,0-.41-.06-.58-.19-.43-.32-.53-.93-.21-1.36,1.76-2.37,3.89-4.41,6.35-6.07,.45-.3,1.05-.18,1.35,.26,.3,.45,.18,1.05-.26,1.35-2.27,1.53-4.25,3.42-5.87,5.61-.19,.26-.49,.39-.78,.39Z"/>
      <path class="cls-1" d="M267.51,218.98c-.21,0-.41-.07-.59-.2-2.37-1.81-4.13-4.38-4.97-7.25-.15-.52,.15-1.06,.66-1.21,.52-.16,1.06,.15,1.21,.66,.72,2.47,2.25,4.69,4.28,6.24,.43,.33,.51,.94,.19,1.37-.19,.25-.48,.38-.78,.38Z"/>
      <path class="cls-1" d="M265.89,242.42c-.19,0-.38-.06-.56-.18-.44-.31-.55-.92-.24-1.36,.65-.93,1.43-1.74,2.34-2.41,.43-.32,1.04-.23,1.36,.21,.32,.43,.23,1.04-.21,1.36-.74,.55-1.38,1.2-1.9,1.96-.19,.27-.49,.42-.8,.42Z"/>
      <path class="cls-1" d="M269.36,238.69c-.25,0-.5-.1-.69-.29-.38-.38-.38-1,0-1.38l1.25-1.25c.38-.38,1-.38,1.38,0,.38,.38,.38,1,0,1.38l-1.26,1.26c-.19,.19-.44,.28-.69,.28Z"/>
      <path class="cls-1" d="M272.45,235.3c-.28,0-.56-.12-.76-.36-.34-.42-.28-1.03,.14-1.37l1.08-.88c.42-.34,1.03-.27,1.37,.14,.34,.42,.27,1.03-.14,1.37l-1.08,.88c-.18,.15-.4,.22-.61,.22Z"/>
      <path class="cls-1" d="M262.36,250.44c-.41,0-.8-.26-.93-.68-.24-.76-.71-1.46-1.32-1.99-.41-.35-.45-.97-.1-1.37,.35-.41,.96-.45,1.37-.1,.89,.77,1.54,1.76,1.9,2.86,.16,.51-.12,1.06-.63,1.23-.1,.03-.2,.05-.3,.05Z"/>
      <path class="cls-1" d="M263.34,238.19c-.34,0-.67-.18-.85-.49-.46-.8-.91-1.6-1.36-2.4-.26-.47-.1-1.06,.37-1.33,.47-.26,1.06-.1,1.33,.37,.45,.8,.89,1.59,1.35,2.39,.27,.47,.11,1.06-.36,1.33-.15,.09-.32,.13-.48,.13Z"/>
      <path class="cls-1" d="M266.37,226.04c-.36,0-.7-.2-.87-.53-.37-.73-.76-1.47-1.14-2.2l-.37-.71c-.25-.48-.06-1.06,.42-1.32,.48-.24,1.06-.06,1.31,.42l.37,.7c.38,.74,.77,1.47,1.15,2.22,.24,.48,.05,1.07-.43,1.31-.14,.07-.29,.11-.44,.11Z"/>
      <path class="cls-1" d="M269.96,250.64c-.32,0-.64-.16-.82-.45-.29-.45-.16-1.06,.3-1.35,2.77-1.77,5.19-3.99,7.21-6.61,.33-.42,.94-.51,1.37-.18,.43,.33,.51,.94,.18,1.37-2.15,2.8-4.74,5.18-7.7,7.07-.16,.1-.34,.15-.52,.15Z"/>
      <path class="cls-1" d="M266.72,252.78c-.31,0-.62-.15-.81-.43-.3-.44-.19-1.05,.25-1.35l.91-.63c.44-.31,1.05-.21,1.36,.23,.31,.44,.21,1.05-.23,1.36-.31,.22-.62,.44-.94,.65-.17,.12-.36,.17-.55,.17Z"/>
      <path class="cls-1" d="M144.03,189.22c-.09,0-.18-.01-.27-.04-8.08-2.31-15.43-7.6-20.17-14.51-.31-.44-.19-1.05,.25-1.36,.44-.31,1.05-.19,1.36,.25,4.49,6.55,11.45,11.56,19.1,13.74,.52,.15,.82,.69,.67,1.2-.12,.43-.51,.71-.94,.71Z"/>
      <path class="cls-1" d="M158.09,193.88c-.1,0-.2-.01-.29-.04l-8.55-2.7c-.51-.16-.8-.71-.64-1.22,.16-.52,.7-.8,1.22-.64l8.56,2.7c.51,.16,.8,.71,.64,1.22-.13,.42-.52,.68-.93,.68Z"/>
      <path class="cls-1" d="M161.25,187.55c-.21,0-.42-.07-.6-.21-2.43-1.89-5.47-2.65-8.69-3.44-1.07-.27-2.15-.53-3.19-.84-6.49-1.91-12.53-5.77-16.99-10.87-.36-.41-.31-1.02,.09-1.37,.41-.36,1.02-.32,1.38,.09,4.23,4.83,9.94,8.48,16.08,10.29,1.02,.3,2.07,.56,3.11,.82,3.28,.81,6.67,1.65,9.42,3.8,.43,.33,.5,.94,.17,1.37-.19,.25-.48,.38-.77,.38Z"/>
      <path class="cls-1" d="M175.29,189.45c-.17,0-.34-.04-.49-.13-4.44-2.61-9.19-4.73-14.11-6.29l-1.55-.48c-2.35-.72-4.77-1.47-6.95-2.78-3.87-2.32-6.53-6.15-8.89-9.52-.31-.44-.2-1.05,.24-1.36,.44-.31,1.05-.2,1.36,.24,2.24,3.22,4.79,6.86,8.3,8.97,1.98,1.19,4.18,1.87,6.52,2.59l1.57,.49c5.06,1.61,9.94,3.79,14.51,6.47,.46,.27,.62,.87,.35,1.34-.18,.31-.51,.48-.84,.48Z"/>
      <path class="cls-1" d="M187.19,189.91s-.03,0-.04,0c-9.42-.38-19.99-6.77-24.6-14.86-.27-.47-.1-1.06,.36-1.33,.47-.27,1.06-.1,1.33,.36,4.3,7.56,14.18,13.52,22.99,13.88,.54,.02,.95,.47,.93,1.01-.02,.52-.45,.93-.97,.93Z"/>
      <path class="cls-1" d="M137.59,198.69c-.12,0-.24-.02-.36-.07-6.7-2.67-12.38-7.57-16-13.8-.25-.43-.49-.87-.73-1.3-.76-1.38-1.47-2.68-2.47-3.74-1.74-1.86-4.33-2.95-6.61-3.91-.5-.21-.73-.78-.52-1.27,.21-.5,.78-.73,1.28-.52,2.46,1.03,5.25,2.21,7.27,4.38,1.16,1.24,1.97,2.71,2.75,4.13,.23,.42,.47,.85,.71,1.26,3.4,5.85,8.73,10.46,15.03,12.96,.5,.2,.74,.77,.54,1.27-.15,.38-.52,.61-.9,.61Z"/>
      <path class="cls-1" d="M121.05,193.88c-.25,0-.51-.1-.7-.3-.77-.79-2.28-1.84-3.73-2.86-.68-.47-1.35-.94-1.95-1.39-6.49-6.22-9.36-10.51-10.35-15.38-.11-.53,.23-1.04,.76-1.15,.53-.12,1.04,.23,1.15,.76,.76,3.71,2.69,7.56,9.7,14.29,.49,.35,1.15,.81,1.81,1.27,1.53,1.06,3.11,2.17,4.01,3.09,.37,.39,.37,1-.02,1.38-.19,.19-.44,.28-.68,.28Z"/>
      <path class="cls-1" d="M99.51,184.25c-.37,0-.72-.21-.88-.56-1.25-2.69-2.55-5.46-2.7-8.54-.03-.56-.01-1.12,0-1.68,.01-.68,.03-1.36-.03-2.03-.07-.7-.31-1.96-1.19-2.64-.43-.33-.5-.94-.17-1.37,.33-.42,.94-.5,1.37-.17,1.08,.84,1.77,2.26,1.93,3.99,.08,.76,.06,1.52,.04,2.26-.01,.52-.03,1.03,0,1.54,.14,2.69,1.35,5.29,2.52,7.81,.23,.49,.02,1.07-.47,1.29-.13,.06-.27,.09-.41,.09Z"/>
      <path class="cls-1" d="M87.16,171.3c-.4,0-.78-.25-.92-.65l-2.97-8.32c-.3-.83-.65-1.62-1.2-1.81-.51-.17-.78-.72-.61-1.24,.17-.51,.72-.78,1.24-.61,1.52,.52,2.1,2.13,2.41,3l2.97,8.32c.18,.51-.08,1.06-.59,1.25-.11,.04-.22,.06-.33,.06Z"/>
      <path class="cls-1" d="M75.45,163.93c-1.62-4.19-2.41-6.24-2.76-7.3-.04-.08-.08-.17-.11-.25l.03-.02c-.23-.77-.15-.88-.02-1.08l.29-.42h1.14l.33,.71c1.14,2.53,2.05,5.15,2.93,7.69l-1.83,.67Z"/>
      <path class="cls-1" d="M108.91,217.79c-.5,0-.93-.39-.97-.9-.04-.54,.36-1,.9-1.04,6.81-.52,13.44-2.14,19.7-4.82,2.37-1.01,5.04-2.32,6.99-4.41,.63-.68,1.18-1.45,1.76-2.25,.52-.73,1.05-1.45,1.63-2.13,1.41-1.64,4.2-4.53,6.94-5.49,.51-.18,1.06,.09,1.24,.6,.18,.51-.09,1.06-.6,1.24-1.67,.58-3.95,2.43-6.11,4.93-.55,.63-1.03,1.31-1.52,1.99-.59,.82-1.19,1.66-1.91,2.44-2.19,2.37-5.1,3.8-7.65,4.88-6.46,2.76-13.3,4.43-20.32,4.97-.02,0-.05,0-.08,0Z"/>
      <path class="cls-1" d="M131.36,217.05c-.38,0-.74-.23-.9-.6-.21-.5,.03-1.07,.53-1.27,2.18-.91,4.51-1.43,6.76-1.94,2.98-.67,5.79-1.3,8.28-2.75,3.38-1.98,5.88-5.4,8.08-8.43l1.21-1.68c1.29-1.79,2.21-3.08,3.87-5.15,.33-.42,.95-.49,1.37-.16,.42,.34,.49,.95,.16,1.37-1.62,2.04-2.54,3.32-3.81,5.08l-1.22,1.69c-2.32,3.18-4.94,6.78-8.68,8.96-2.75,1.6-5.84,2.3-8.83,2.97-2.17,.49-4.41,.99-6.43,1.83-.12,.05-.25,.08-.37,.08Z"/>
      <path class="cls-1" d="M161.68,205.82c-.44,0-.84-.3-.95-.75-.12-.52,.2-1.05,.72-1.17,3.43-.81,5.68-4.11,7.86-7.29,2.45-3.59,9.55-8.3,13.83-8.53,.54-.01,1,.38,1.03,.92,.03,.54-.38,1-.92,1.02-3.54,.19-10.23,4.61-12.25,7.58-2.34,3.43-4.92,7.21-9.09,8.2-.08,.02-.15,.03-.23,.03Z"/>
      <path class="cls-1" d="M155.61,207.53c-.46,0-.88-.33-.96-.81-.09-.53,.26-1.04,.79-1.13,.15-.03,.48-.06,.9-.1,.45-.04,1.37-.13,1.91-.22,.29-.38,.83-.5,1.25-.25,.37,.21,.66,.75,.57,1.17-.2,.94-1.18,1.03-3.55,1.25-.34,.03-.62,.06-.74,.08-.06,.01-.11,.02-.17,.02Z"/>
      <path class="cls-1" d="M173.09,200.3c-.38,0-.74-.22-.9-.59-.21-.49,.02-1.07,.52-1.28,2.39-1.02,4.63-2.52,6.47-4.35,.28-.28,.56-.58,.84-.87,.53-.55,1.05-1.11,1.62-1.61,2.49-2.21,5.85-3.4,9.14-3.4,.54,.01,.97,.45,.96,.99,0,.54-.4,1.04-.99,.96-2.83-.07-5.68,1.01-7.82,2.9-.53,.47-1.01,.98-1.49,1.49-.29,.31-.58,.61-.88,.91-2.02,2.01-4.47,3.66-7.09,4.77-.12,.05-.25,.08-.38,.08Z"/>
      <path class="cls-1" d="M112.72,208.37c-.35,0-.7,0-1.05-.02-.54-.02-.96-.47-.94-1.01,.02-.54,.49-1.05,1.01-.94,4.77,.14,9.56-.85,13.86-2.92,1.25-.6,2.49-1.31,3.68-2,1.42-.81,2.9-1.66,4.44-2.36,3.54-1.61,6.76-2.06,9.57-1.35,.52,.13,.84,.66,.71,1.18-.13,.52-.66,.84-1.18,.71-2.37-.59-5.16-.18-8.28,1.24-1.46,.66-2.89,1.48-4.27,2.27-1.23,.7-2.5,1.43-3.8,2.06-4.26,2.05-8.99,3.12-13.72,3.12Z"/>
      <path class="cls-1" d="M104.07,204.29h-.05c-2.34-.13-4.69-.33-6.97-.59l.14-1.94c7.94,.2,7.94,.57,7.92,1.55v.96s-1.03,.02-1.03,.02Z"/>
      <path class="cls-1" d="M108,203.58c-.47,0-.88-.34-.96-.82-.09-.53,.27-1.03,.81-1.12,1.13-.18,2.25-.37,3.38-.56,.53-.08,1.04,.27,1.13,.79,.09,.53-.26,1.04-.79,1.13-1.13,.2-2.27,.38-3.4,.57-.05,0-.1,.01-.16,.01Z"/>
      <path class="cls-1" d="M101.21,199.9c-2.66,0-5.3-.53-7.7-1-.53-.1-.87-.62-.77-1.14,.11-.53,.61-.89,1.15-.77,3.25,.65,6.61,1.32,9.86,.76,1.37-.23,2.68-.67,4.08-1.14,.97-.33,1.95-.65,2.94-.91,3.88-.99,7.99-.88,11.62-.77,.54,.01,.96,.46,.94,1-.01,.54-.48,1.05-1,.94-3.67-.1-7.47-.22-11.08,.71-.94,.24-1.87,.56-2.8,.87-1.4,.47-2.85,.96-4.37,1.22-.95,.16-1.91,.23-2.86,.23Z"/>
      <path class="cls-1" d="M94.57,192.93s-.08,0-.12,0l-4.72-.58c-.54-.07-.92-.55-.85-1.09,.06-.54,.56-.94,1.08-.85l4.73,.58c.53,.07,.91,.55,.85,1.09-.06,.49-.48,.85-.96,.85Z"/>
      <path class="cls-1" d="M103.22,187.51c-.13,0-.27-.03-.4-.09-3.32-1.51-6.07-2.26-8.62-2.17-.83,0-1.66,.09-2.48,.18-1.09,.11-2.21,.22-3.36,.18-2.44-.11-4.75-.97-6.79-1.73-.5-.19-.76-.75-.58-1.25,.19-.5,.75-.76,1.25-.58,1.91,.71,4.07,1.51,6.2,1.61,.99,.05,2-.06,3.07-.17,.89-.09,1.77-.18,2.66-.19,2.86,.02,5.86,.71,9.45,2.35,.49,.22,.71,.8,.48,1.29-.16,.36-.52,.57-.89,.57Z"/>
      <path class="cls-1" d="M94.67,179.39c-.24,0-.47-.09-.66-.25-.79-.72-2.04-.96-3.15-1.09-1.33-.16-2.66-.24-3.98-.31-1.37-.08-2.8-.16-4.2-.33-3.42-.43-6.06-1.41-8.08-2.99-.43-.33-.5-.94-.17-1.37,.33-.43,.94-.5,1.37-.17,1.73,1.36,4.06,2.2,7.12,2.59,1.34,.17,2.73,.25,4.07,.32,1.37,.08,2.74,.15,4.11,.32,1.42,.17,3.03,.49,4.23,1.58,.4,.36,.43,.98,.06,1.38-.19,.21-.45,.32-.72,.32Z"/>
      <path class="cls-1" d="M80.2,170.76s-.02,0-.04,0c-3.45-.13-6.91-.41-10.3-.83-.53-.07-.91-.56-.84-1.09,.07-.54,.55-.9,1.09-.84,3.33,.42,6.74,.7,10.13,.82,.54,.02,.96,.47,.94,1.01-.02,.53-.45,.94-.97,.94Z"/>
      <path class="cls-1" d="M176.61,241.27c-.31,0-.62-.15-.81-.43-.3-.45-.19-1.05,.26-1.35,8.7-5.88,15.72-13.96,20.31-23.38,2.24-4.6,5.31-10.9,9.91-13.52,.47-.27,1.06-.1,1.33,.36,.27,.47,.1,1.06-.36,1.33-4.07,2.31-6.99,8.3-9.12,12.68-4.74,9.72-11.99,18.07-20.97,24.14-.17,.11-.36,.17-.54,.17Z"/>
      <path class="cls-1" d="M185.08,241.92c-.39,0-.76-.23-.91-.62-.2-.5,.05-1.07,.55-1.26,8.77-3.46,15.88-10.86,19.02-19.79,.42-1.21,.78-2.44,1.13-3.68,.89-3.09,1.81-6.29,3.75-9,2.04-2.86,5-4.87,7.61-6.64,.45-.31,1.05-.19,1.35,.26,.3,.45,.19,1.05-.26,1.35-2.48,1.68-5.28,3.59-7.12,6.16-1.74,2.44-2.58,5.34-3.46,8.41-.37,1.27-.73,2.54-1.17,3.78-3.32,9.46-10.85,17.29-20.14,20.96-.12,.05-.24,.07-.36,.07Z"/>
      <path class="cls-1" d="M201.53,237.72c-.3,0-.6-.14-.79-.4-.32-.44-.22-1.04,.22-1.36,4.97-3.61,8.39-9.15,9.37-15.2,.06-.35,.11-.7,.16-1.06,.22-1.59,.46-3.23,1.3-4.71,.26-.47,.86-.63,1.33-.36,.47,.27,.63,.86,.36,1.33-.66,1.16-.86,2.55-1.07,4.02-.05,.37-.1,.74-.16,1.1-1.07,6.56-4.77,12.56-10.15,16.47-.17,.13-.37,.19-.57,.19Z"/>
      <path class="cls-1" d="M216.04,211.44c-.19,0-.37-.05-.54-.16-.45-.3-.57-.9-.27-1.35,2.3-3.46,5.44-8.2,10.3-9.95,.51-.18,1.06,.08,1.25,.59,.18,.51-.08,1.06-.59,1.25-3.94,1.41-6.56,4.99-9.34,9.19-.19,.28-.5,.44-.81,.44Z"/>
      <path class="cls-1" d="M222.6,209.01c-.38,0-.74-.22-.9-.59-.21-.49,.02-1.07,.51-1.28,2.16-.92,4.1-2.48,5.48-4.4,.31-.44,.92-.54,1.36-.22,.44,.31,.54,.92,.22,1.36-1.6,2.23-3.78,3.98-6.29,5.05-.12,.05-.25,.08-.38,.08Z"/>
      <path class="cls-1" d="M202.8,253.29c-.33,0-.65-.17-.83-.47-.28-.46-.13-1.06,.33-1.34,8.38-5.09,13.97-14.33,14.58-24.13l.07-1.29c.16-3.28,.36-7.36,2.76-9.5,.4-.36,1.02-.33,1.38,.08,.36,.4,.32,1.02-.08,1.37-1.79,1.6-1.97,5.22-2.11,8.14l-.07,1.32c-.65,10.42-6.59,20.25-15.51,25.67-.16,.1-.33,.14-.5,.14Z"/>
      <path class="cls-1" d="M222.14,234.41c-.21,0-.43-.07-.61-.21-.42-.34-.49-.95-.15-1.37,2.24-2.79,2.84-6.42,3.48-10.25,.27-1.64,.56-3.33,.98-4.96,1.5-5.78,5.97-10.88,11.96-13.66,.49-.24,1.07-.01,1.29,.47,.23,.49,.01,1.07-.48,1.29-5.46,2.53-9.54,7.16-10.89,12.38-.4,1.54-.68,3.19-.94,4.79-.65,3.91-1.33,7.96-3.88,11.15-.19,.24-.47,.37-.76,.37Z"/>
      <path class="cls-1" d="M229.11,226.78c-.34,0-.67-.18-.85-.5-.26-.47-.09-1.06,.37-1.33,3.25-1.81,4.82-5.75,6.14-9.64,.91-2.7,1.81-5.35,3.23-7.75,1.17-1.98,3.23-4.61,6.41-5.87,.5-.2,1.06,.04,1.26,.55,.2,.5-.04,1.07-.54,1.27-2.67,1.06-4.44,3.34-5.46,5.05-1.32,2.23-2.18,4.78-3.02,7.25-1.49,4.38-3.23,8.7-7.08,10.85-.15,.08-.31,.12-.47,.12Z"/>
      <path class="cls-1" d="M208.26,252.78c-.32,0-.63-.16-.82-.44-.29-.45-.16-1.06,.29-1.35,2.29-1.49,4.27-3.33,5.89-5.49,.32-.43,.93-.52,1.36-.2,.43,.32,.52,.93,.2,1.36-1.76,2.34-3.91,4.35-6.39,5.96-.16,.11-.35,.16-.53,.16Z"/>
      <path class="cls-1" d="M196.42,252.05c-.29,0-.58-.13-.77-.38-.33-.42-.25-1.04,.17-1.37,3.85-2.99,7.26-6.53,10.15-10.52,.31-.44,.92-.53,1.36-.22,.44,.32,.53,.93,.22,1.36-3,4.13-6.54,7.81-10.53,10.92-.18,.14-.39,.21-.6,.21Z"/>
      <path class="cls-1" d="M186.25,250.16c-.44,0-.83-.3-.94-.74-.13-.52,.18-1.05,.7-1.18,2.78-.7,6.71-3.89,8.27-5.22l12.06-10.29c.41-.35,1.02-.3,1.37,.11,.35,.41,.3,1.02-.11,1.37l-12.05,10.29c-2.07,1.77-5.99,4.85-9.06,5.63-.08,.02-.16,.03-.24,.03Z"/>
      <path class="cls-1" d="M144.92,243.69c-.26,0-.51-.1-.7-.3-.37-.39-.36-1,.03-1.38l3.65-3.52c.39-.37,1.01-.36,1.38,.03,.37,.39,.36,1-.03,1.38l-3.65,3.52c-.19,.18-.43,.27-.67,.27Z"/>
      <path class="cls-1" d="M147.57,246.25c-.51,0-.94-.4-.97-.91-.03-.54,.37-1,.91-1.03,1.78-.11,3.57-1.27,5.46-2.5,2.28-1.48,4.64-2.99,7.24-2.78,.54,.05,.93,.52,.89,1.05-.05,.54-.53,.91-1.05,.89-1.95-.17-3.92,1.11-6.01,2.47-2.02,1.31-4.11,2.66-6.4,2.81-.02,0-.04,0-.06,0Z"/>
      <path class="cls-1" d="M175.57,234.98c-.33,0-.66-.17-.84-.48-.27-.46-.12-1.06,.35-1.33,3.09-1.81,4.88-5.19,6.75-9.1l2.55-5.36c.23-.48,.81-.69,1.3-.46,.49,.23,.69,.81,.46,1.3l-2.55,5.36c-2,4.2-3.95,7.85-7.52,9.94-.15,.09-.33,.13-.49,.13Z"/>
      <path class="cls-1" d="M163.95,244.3c-.5,0-.93-.39-.97-.9-.04-.54,.36-1.01,.9-1.05,1.47-.12,3.01-.78,4.64-1.49,2.4-1.03,4.88-2.11,7.38-1.45,.52,.14,.83,.67,.7,1.19-.14,.52-.67,.84-1.19,.7-1.85-.48-3.93,.41-6.12,1.35-1.71,.74-3.47,1.5-5.26,1.64-.03,0-.05,0-.08,0Z"/>
      <path class="cls-1" d="M256.67,262.03l-.86-1.75c5.72-2.82,7.33-10.14,7.75-13.16,.33-2.33,.44-4.75,.54-7.09,.14-3.21,.29-6.52,1.01-9.75,.2-.91,.45-1.81,.69-2.71,.43-1.56,.83-3.03,1.01-4.55,.4-3.4-.38-6.97-1.13-10.42-.94-4.32-1.91-8.78-.7-13.16l.13-.48,.47-.17,.53,.97,.74,.21c-1.08,3.91-.2,7.95,.73,12.23,.78,3.61,1.6,7.34,1.16,11.07-.2,1.67-.64,3.28-1.06,4.83-.24,.87-.48,1.74-.67,2.62-.68,3.06-.82,6.29-.96,9.41-.11,2.39-.22,4.85-.56,7.28-.99,7.02-4.2,12.35-8.82,14.63Z"/>
      <path class="cls-1" d="M183.85,242.19c-.78,0-1.55-.02-2.33-.07-4.75-.3-9.4-1.47-13.91-2.61-2.68-.68-5.45-1.38-8.19-1.88-8.83-1.61-18.08-1.28-26.75,.96l-.49-1.89c8.94-2.31,18.48-2.65,27.59-.99,2.81,.51,5.61,1.22,8.32,1.9,4.42,1.12,8.98,2.27,13.55,2.55,11.8,.74,23.75-4.53,31.15-13.75,1.46-1.81,2.78-3.81,4.07-5.75,2.36-3.56,4.8-7.25,8.22-10.03,2.78-2.26,6.06-3.78,9.22-5.25l13.6-6.29,.82,1.77-13.57,6.27c-3.08,1.43-6.24,2.9-8.84,5.01-3.18,2.59-5.44,5.99-7.82,9.59-1.31,1.97-2.66,4.02-4.17,5.9-7.31,9.1-18.81,14.54-30.47,14.54Z"/>
      <path class="cls-1" d="M203.35,253.34h0c-5.43,0-10.98-.98-16.5-2.9-.94-.33-1.88-.69-2.82-1.04-3.11-1.18-6.32-2.4-9.6-2.58-2.61-.14-5.13,.34-7.83,.84-1.59,.3-3.23,.61-4.88,.78-4.33,.43-8.72-.11-12.8-1.58-2.47-.89-4.83-2.13-7.11-3.32-3.83-2-7.45-3.89-11.5-4.3l-2.55-.26,2.08-1.5c7.04-5.08,15.62-5.76,23.08-5.76,2.82,0,5.66,.11,8.41,.22l2.23,.09c1.66,.06,3.28,.05,4.47-.19,4.33-.84,7.33-4.27,10.51-7.89,1.91-2.17,3.88-4.42,6.21-6.14,.99-.73,2.04-1.36,3.05-1.97,1.03-.62,2.01-1.21,2.92-1.89,1.46-1.09,2.74-2.38,4.08-3.74,1.22-1.24,2.48-2.51,3.89-3.62,6.77-5.33,15.99-6.08,23.4-6.68l32.32-2.64-3.42,2.13c-4.66,2.9-8.04,7.32-10.06,13.15-1.06,3.08-1.68,6.4-2.27,9.6-.74,4.03-1.52,8.19-3.19,12.06-3.61,8.31-11.46,14.9-21.01,17.64-3.51,1-7.24,1.51-11.11,1.51Zm-29.86-8.5c.35,0,.7,0,1.05,.03,3.57,.2,6.93,1.47,10.18,2.7,.92,.35,1.85,.7,2.77,1.02,5.32,1.85,10.65,2.8,15.86,2.8h0c3.68,0,7.24-.48,10.57-1.44,9-2.58,16.38-8.76,19.76-16.54,1.59-3.66,2.34-7.71,3.06-11.63,.61-3.27,1.23-6.66,2.35-9.88,1.73-5.01,4.42-9.06,8.01-12.09l-24.85,2.03c-7.15,.58-16.05,1.3-22.36,6.27-1.32,1.03-2.53,2.26-3.7,3.46-1.34,1.36-2.72,2.76-4.31,3.94-.99,.74-2.05,1.38-3.08,2-.98,.59-1.98,1.2-2.9,1.87-2.16,1.6-4.06,3.77-5.9,5.86-3.26,3.71-6.63,7.55-11.6,8.52-1.36,.27-3.1,.29-4.92,.22l-2.24-.09c-2.73-.11-5.55-.22-8.33-.22-6.42,0-13.69,.52-19.88,4.07,3.43,.81,6.6,2.47,9.68,4.08,2.22,1.16,4.53,2.37,6.87,3.21,3.8,1.37,7.9,1.88,11.94,1.48,1.56-.16,3.16-.46,4.71-.76,2.35-.45,4.78-.91,7.25-.91Z"/>
    </g>
  </g>
</svg>