<?xml version="1.0" encoding="UTF-8"?>
<svg id="Layer_2" data-name="Layer 2" xmlns="http://www.w3.org/2000/svg" viewBox="0 0 279.58 207.05">
  <defs>
    <style>
      .cls-1 {
        fill: #6c7254;
      }
    </style>
  </defs>
  <g id="Layer_1-2" data-name="Layer 1">
    <g>
      <path class="cls-1" d="M57.71,193.45c.49-.66,.98-1.32,1.46-1.99,0,0,0,0,0,0,0,0,0,0,0,0,4-5.56,7.49-11.55,9.66-18.07,2.08-6.24,2.92-12.94,1.92-19.47-.52-3.39-1.54-6.71-3.09-9.78-.13-.44-.27-.87-.43-1.3-.01-.03-.03-.04-.05-.06-.1-4.07-.48-8.12-1.19-12.13,.25,.39,.51,.78,.76,1.16,1.21,1.83,2.52,3.58,3.93,5.26,.75,.88,1.52,1.74,2.32,2.58,.51,.59,1.06,1.14,1.66,1.66,1.71,1.66,3.5,3.22,5.4,4.65,6.88,5.21,14.83,8.9,23.27,10.69,4.56,.97,9.29,1.5,13.94,1.03,.03,.04,.06,.08,.09,.12,.42,.59,1.33-.06,.91-.65-4.05-5.66-11.2-7.18-17.6-8.5-6.84-1.41-13.39-3.61-19.62-6.77-1.78-.9-3.53-1.88-5.23-2.93-1.62-1-3.14-2.23-4.82-3.12-.08-.04-.14-.02-.18,.02-1.01-1.22-1.99-2.47-2.91-3.76-.69-.98-1.35-1.98-1.99-2.99-.12-.2-.24-.4-.36-.6-.25-1.17-.51-2.34-.82-3.5-.73-2.74-1.62-5.44-2.72-8.05-.81-1.92-1.7-3.87-2.8-5.66,7.01,2.85,14.36,4.86,21.84,5.99,1.17,.43,2.36,.84,3.53,1.27,4.45,2.6,8.64,5.62,12.79,8.66,4.92,3.6,9.88,7.25,15.37,9.97,1.54,.77,3.12,1.47,4.75,2.04,1.32,.47,2.69,.92,4.09,1.14,.23,.12,.47,.22,.71,.31,.13,.05,.31-.11,.2-.24,0,0,0,0,0,0,.08-.07,.09-.21-.03-.26-.13-.05-.26-.1-.39-.14-1-.96-2.21-1.72-3.29-2.57-1.3-1.02-2.58-2.07-3.84-3.14-2.48-2.08-4.9-4.22-7.41-6.27-4.52-3.68-9.4-7.1-14.93-9.07-.83-.3-1.68-.55-2.53-.77,.72,.04,1.44,.09,2.17,.12,2.25,.07,4.5,.05,6.75-.03,.01,.03,.04,.06,.09,.07,3.03,.2,6.07-.16,9.11-.29,1.51-.06,3.02-.12,4.53-.16,1.56-.05,3.21,.07,4.75-.21,.15-.03,.2-.19,.14-.3,2.33-.38,4.57-.12,6.76,.85,2.62,1.16,4.78,3.06,6.65,5.19,2.13,2.42,3.95,5.1,6.03,7.56,2.03,2.41,4.28,4.63,6.71,6.64,4.97,4.1,10.73,7.28,16.86,9.24,5.7,1.83,11.63,2.65,17.52,3.59,6.67,1.06,13.32,2.33,19.5,5.17,.07,.03,.13,.03,.18,0,.01,0,.03,.02,.04,.03,.18,.12,.38-.11,.22-.27-.04-.04-.08-.07-.12-.1,0-.02-.01-.04-.03-.05-.04-.03-.09-.06-.13-.09-1.98-1.79-4.13-3.41-6.22-5.06-2.2-1.73-4.39-3.46-6.59-5.19-4.42-3.48-8.81-7.01-13.23-10.51-4.36-3.45-8.67-6.99-13.1-10.35-4.21-3.19-8.66-6.19-13.63-8.07-2.37-.9-4.85-1.56-7.37-1.86-.81-.1-1.65-.17-2.5-.21,10.33-1.37,20.65-2.18,31.11-1.34,4.75,.38,9.48,1.04,14.16,1.96,6.93,4.74,13.38,10.21,19.06,16.39,.9,.97,1.77,1.96,2.63,2.97,.29,.34,.58,.73,.87,1.11-.33,.34-.56,.77-.65,1.24-.22,1.14,.44,2.32,1.54,2.72,.57,.21,1.17,.23,1.75,.05,.62-.19,1.11-.65,1.43-1.21,.31-.54,.37-1.19,.19-1.79-.17-.59-.61-1.07-1.14-1.35-.24-.13-.51-.2-.78-.21-.15-.05-.3-.09-.46-.1-.3-.03-.61,0-.91,.07-.24-.27-.48-.55-.71-.81-.76-.9-1.54-1.78-2.33-2.65-1.59-1.75-3.23-3.45-4.94-5.07-3.41-3.24-7.05-6.23-10.89-8.95-1.02-.72-2.06-1.42-3.12-2.09,11.48,2.4,22.63,6.39,33.02,11.84,6.7,9.19,9.94,20.8,8.82,32.13-.2,1.97-.53,3.93-.97,5.86-1.33,.48-2.6,1.23-3.81,1.92-1.52,.87-3,1.8-4.44,2.78-2.81,1.92-5.44,4.1-7.9,6.44-5.34,5.1-9.48,11.12-13.31,17.4-1.16,1.9-2.29,3.82-3.48,5.7-.57,.9-1.15,1.79-1.7,2.7-.5,.82-1.14,1.66-1.39,2.6-.1,.09-.2,.17-.29,.26-.47,.45,.27,1.22,.78,.83,1.69-1.29,3.51-2.14,5.58-2.63,2.12-.5,4.31-.64,6.47-.84,2.19-.2,4.37-.47,6.48-1.12,1.86-.57,3.64-1.41,5.29-2.43,6.9-4.27,11.28-11.62,12.63-19.53,.74-4.35,.66-8.83-.21-13.16,.05-.2,.1-.39,.15-.59,.05-.03,.1-.06,.15-.1,.18-.13,.12-.34-.03-.44,1.51-6.97,1.48-14.26-.21-21.27-1.33-5.52-3.64-10.8-6.8-15.52,5.64,3.08,11.05,6.58,16.14,10.5,.93,10.74,2.35,21.68,7.14,31.48,2.31,4.73,5.39,8.98,9.33,12.5,4.39,3.93,9.48,6.99,14.09,10.63,5.24,4.14,10.1,8.73,14.47,13.78,.15,.18,.35,.22,.54,.19,.2,.52,1.11,.38,1.03-.26-.09-.79-.21-1.58-.32-2.37,.24-4.5-.36-9.1-1.35-13.44-1.19-5.25-3.04-10.32-5.31-15.19-4.95-10.64-11.61-20.93-20.72-28.46-5.24-4.33-11.28-7.69-17.84-9.51-5.43-4.19-11.2-7.92-17.23-11.17,1.24-1.04,2.57-1.97,4.03-2.68,1.8-.87,3.71-1.49,5.62-2.03,3.96-1.13,7.94-2.04,11.56-4.06,6.78-3.8,11.72-10.36,13.45-17.94,.88-3.85,.92-7.84,.17-11.7,0-.04,.01-.07,.02-.11,0-.07-.02-.11-.07-.14-.05-.23-.09-.47-.14-.7-.07-.29-.41-.43-.63-.19-4.18,4.72-9.45,8.33-14.02,12.65-4.57,4.32-8.61,9.21-12,14.51-1.83,2.87-3.47,5.85-4.91,8.94-1.42,.93-2.83,1.86-4.23,2.82-.12-.06-.24-.13-.36-.19,0,0,0,0,0,0-.1-.13-.22-.18-.34-.18-10.88-5.64-22.57-9.73-34.64-12.09-.44-.09-.88-.15-1.32-.23-.18-.11-.36-.21-.54-.32-.13-.08-.26,.04-.29,.17-11.23-1.99-22.67-2.45-34.03-1.44-.3,.03-.59,.06-.89,.09,2.47-.99,4.92-2.08,7.34-3.16,3.98-1.77,7.92-3.64,11.83-5.56,5.22-2.56,10.38-5.24,15.49-8,.03,.06,.08,.12,.16,.17,.32,.18,.66,.34,1,.49,.98,.68,2.12,1.2,3.14,1.74,1.4,.75,2.83,1.46,4.27,2.11,2.85,1.29,5.79,2.37,8.83,3.15,5.84,1.49,11.83,1.64,17.81,1.19,1.67-.13,3.35-.29,5.01-.48,1.35-.16,2.72-.28,4.06-.53,.19,.02,.38,.05,.57,.08,.13,.01,.16-.14,.07-.2,.09-.02,.18-.03,.27-.05,.44-.1,.22-.73-.17-.72-.26,0-.51,.02-.77,.04-1.2-.37-2.43-.66-3.61-1.09-1.45-.52-2.86-1.13-4.26-1.8-2.87-1.37-5.64-2.93-8.52-4.28-2.81-1.32-5.74-2.41-8.81-2.9-2.95-.47-5.97-.38-8.93,0-1.67,.22-3.34,.53-4.99,.88-.59,.13-1.17,.25-1.76,.38,1.39-.76,2.78-1.51,4.15-2.28,7.59-4.25,15.08-8.67,22.5-13.19,7.38-4.49,14.79-8.97,21.95-13.81,6.99-4.72,14-10,19.13-16.78,.65-.86,1.27-1.75,1.86-2.66,.25-.38-.26-.82-.55-.45-5.4,6.62-11.83,12.21-18.81,17.11-7.03,4.93-14.43,9.37-21.75,13.86-1.35,.83-2.7,1.64-4.05,2.45,2.71-2.6,5.04-5.62,6.97-8.82,2.98-4.93,5.05-10.38,6.26-16.01,2.37-10.97,1.2-22.45-1.95-33.14-.88-2.99-1.96-5.93-3.14-8.82-1.04-2.55-2.13-5.15-3.46-7.58-.05-.18-.09-.36-.15-.54-.03-.08-.11-.09-.17-.05-.07-.12-.13-.25-.2-.37-.02-.03-.05-.04-.08-.06-.27-.51-.55-1.02-.84-1.51-.04-.06-.09-.09-.14-.11-.08-.3-.57-.24-.55,.11,.56,10.71-1.16,21.36-3.15,31.84-1.94,10.2-4.12,20.39-4.64,30.79-.25,4.95-.03,9.86,.67,14.75-.02,.04-.04,.08-.06,.12-.1,.2-.03,.38,.11,.48,0,0,0,0,0,.01-.02,.09,0,.17,.03,.23-.41,.71-.82,1.42-1.25,2.13-4.13,2.46-8.28,4.89-12.46,7.27-3,1.71-6.02,3.38-9.06,5.04-.1,0-.21,0-.31,0-.2,.01-.31,.17-.33,.34-4.36,2.37-8.75,4.69-13.19,6.92-7.73,3.89-15.59,7.49-23.51,10.95-.49,.21-.97,.45-1.45,.68-.97,.11-1.94,.23-2.91,.36,3.98-1.38,7.61-3.8,10.7-6.62,4.08-3.7,7.3-8.2,9.93-13.03,2.67-4.91,4.78-10.13,6.53-15.43,1.65-5.01,2.97-10.13,3.91-15.32,1.07-5.88,1.64-11.84,1.74-17.81,0-.33-.44-.5-.68-.31-8.21,6.52-14.55,15.15-18.53,24.83-3.84,9.34-5.77,19.3-9.23,28.77-1.91,5.25-4.31,10.34-7.66,14.84-.13,.17-.16,.36-.12,.53-8.67,1.2-17.3,2.69-26.01,3.51,.73-.45,1.45-.93,2.14-1.44,1.83-1.36,3.53-2.9,5.09-4.56,3.45-3.65,6.21-7.88,8.67-12.24,.72-1.28,1.41-2.57,2.08-3.87,.7-1.37,1.45-2.73,2.01-4.16,.05-.12-.07-.24-.17-.23-.03-.06-.09-.1-.16-.09-1.06,.08-2.08,.68-2.99,1.2-1.01,.58-1.95,1.27-2.84,2.02-1.77,1.51-3.3,3.27-4.66,5.16-3.12,4.32-5.38,9.19-8.53,13.48-.83,1.13-1.72,2.22-2.7,3.24-.51,.53-1.04,1.03-1.59,1.51-.12,.1-.24,.2-.36,.3-11.17,.7-22.28-.16-33.13-3.18-.35-.1-.7-.2-1.04-.3,1.31-.21,2.62-.45,3.91-.69,2.12-.39,4.23-.8,6.34-1.24,1.25-.26,2.5-.55,3.75-.83,.02,.17,.12,.31,.3,.37,.62,.19,1.25,.12,1.89,.09,.64-.02,1.28-.04,1.92-.04,1.39-.01,2.77,0,4.16,.07,2.48,.12,4.96,.34,7.41,.67,0,0,0,.02,0,.03,.05,.27,.14,.53,.32,.74,.16,.18,.27,.27,.48,.39,.12,.07,.25,.11,.39,.15,.49,.14,1.05,0,1.47-.28,.41-.27,.67-.75,.69-1.24,0-.01,0-.03,0-.04,0-.06,.01-.12,0-.19,0-.04-.02-.08-.03-.12,0-.04,0-.08-.01-.13-.06-.24-.16-.48-.32-.68-.36-.44-.9-.73-1.48-.66-.28,.03-.55,.15-.78,.32,0,0,0,0,0,0-.09,.07-.17,.14-.25,.22-.04,.04-.08,.08-.11,.13,0,.01-.02,.02-.03,.03-.02,.03-.04,.07-.06,.1-.04,.07-.08,.13-.12,.2-.08,.16-.12,.32-.16,.49-2.45-.44-4.91-.81-7.4-1.03-1.31-.12-2.63-.22-3.94-.29-.41-.02-.81-.03-1.22-.05,1.9-.46,3.8-.93,5.69-1.42,2.39-.63,4.76-1.34,7.13-2.07,.2-.06,.08-.35-.11-.3-8.36,2.06-16.8,3.86-25.29,5.26-2.41,.4-4.84,.7-7.24,1.16-.01,0-.02,.01-.03,.01-10.57-3.42-20.54-8.69-29.3-15.51-.07-.05-.13-.11-.2-.16,.72,.21,1.46,.38,2.21,.5,1.58,.56,3.19,1.06,4.81,1.5,4.48,1.21,9.09,1.96,13.73,2.22,9.33,.51,18.73-.83,27.52-4.02,4.89-1.77,9.79-4.11,13.9-7.33,.19-.15,.13-.38-.03-.47,.09-.18-.12-.44-.32-.34-.88,.4-1.72,.87-2.61,1.25-.92,.4-1.88,.71-2.84,.97-1.92,.52-3.92,.76-5.91,.85-4.4,.2-8.79-.4-13.18-.53-2.22-.07-4.44-.02-6.65,.28-2.16,.29-4.3,.75-6.41,1.28-4.18,1.04-8.29,2.36-12.55,3.06-.74,.12-1.48,.21-2.22,.29-.75-.03-1.51-.07-2.26,.03-.12,.01-.2,.07-.26,.14-.76,.02-1.52,.02-2.28-.03-1.36-.09-2.67-.32-3.96-.67-1.28-.48-2.53-1.02-3.8-1.53C17.28,79.76,6.3,59.93,2.31,38.54c-.51-2.71-.89-5.45-1.2-8.18-.08-.71-1.14-.6-1.1,.11,1.04,18.46,8.51,36.57,19.93,51.19,.06,1.87,.24,3.74,.34,5.62,.1,2.01,.16,4.03,.16,6.04,0,4.06-.22,8.13-.67,12.17-.25,2.27-.7,4.55-.78,6.84,0,.24,.35,.41,.44,.13,.61-1.9,.85-3.93,1.08-5.9,.24-2.04,.43-4.08,.56-6.12,.03-.46,.04-.91,.07-1.37,.63,.81,1.3,1.58,2,2.33,.41,.44,.81,.88,1.22,1.32,.26,.28,.52,.57,.79,.86-.04,.07-.09,.13-.12,.2-.24,.52-.26,1.19-.02,1.72,.13,.29,.32,.56,.59,.74,.36,.25,.76,.35,1.2,.34,.77-.02,1.56-.58,1.67-1.37,.03-.2,0-.39-.04-.57-.02-.22-.1-.44-.24-.62-.03-.05-.08-.09-.12-.13-.01-.03-.02-.06-.03-.09-.14-.28-.33-.54-.58-.72-.3-.21-.61-.32-.98-.32-.16,0-.31,.03-.46,.08-.28-.29-.57-.58-.86-.86l-1.26-1.28c-.84-.85-1.7-1.68-2.62-2.43-.03-.02-.06-.02-.08-.03,.15-3.36,.16-6.74-.03-10.1-.1-1.84-.21-3.71-.49-5.54,2.11,2.63,4.33,5.16,6.68,7.54,2.79,2.82,5.77,5.44,8.9,7.87,.9,5.96-.85,11.97-3.86,17.13-3.84,6.58-9.7,11.6-15.44,16.48-3.1,2.63-6.28,5.54-7.58,9.52-.12,.36,.27,.61,.52,.47,7.65,.31,14.31-4.72,18.71-10.57,2.47-3.28,4.49-6.94,6.2-10.67,1.52-3.28,2.76-6.72,3.44-10.28,.37-1.94,.57-3.91,.55-5.88-.01-1-.09-2.01-.23-3-.08-.54-.15-1.08-.27-1.62,6.1,4.49,12.74,8.25,19.72,11.2,.91,1.89,1.87,3.76,2.68,5.7,.49,1.18,.95,2.37,1.37,3.57-.5,4.22-1.34,8.4-2.53,12.48-.09,.01-.18,.04-.27,.12-4.55,3.87-8.65,8.26-12.23,13.03-1.79,2.38-3.44,4.86-4.97,7.42-1.46,2.45-2.88,4.98-3.99,7.6-.95,2.24-1.53,4.81-.26,7.04,.15,.26,.61,.34,.83,.14,5.37-4.85,10-10.47,13.76-16.65,3.76-6.18,6.59-12.92,8.4-19.92,.83-3.21,1.4-6.49,1.73-9.79,.23,.7,.47,1.39,.67,2.09,.22,.77,.4,1.55,.59,2.32-.08,.03-.14,.11-.11,.21,.12,.39,.29,.77,.46,1.16,.84,3.73,1.37,7.54,1.63,11.35,.1,1.53,.16,3.06,.18,4.59-2.49,2.05-4.41,4.81-5.92,7.63-1.6,3.01-2.76,6.25-3.56,9.56-1.65,6.83-1.7,13.88-1.14,20.84,.32,3.96,.82,7.91,1.33,11.85,.06,.49,.73,.74,1.05,.31Zm59.02-36.46c-3.82-.21-7.65-.47-11.42-1.15-4.17-.76-8.27-1.95-12.19-3.57-4.01-1.66-7.81-3.75-11.33-6.24,1.93,.99,3.93,1.86,5.98,2.58,6.21,2.2,12.72,3.33,19.07,5.05,3.37,.91,6.65,2.04,9.9,3.33,0,0,0,0,0,0Zm-28.32-10.69c3.16,1.23,6.43,2.2,9.73,2.96,3.38,.77,6.84,1.31,10.14,2.41,2.8,.94,5.51,2.33,7.61,4.4-5.29-2.37-11.13-3.57-16.7-5-6.3-1.62-12.7-3.45-18.4-6.67-2.37-1.34-4.53-2.98-6.54-4.79-.64-.65-1.28-1.31-1.89-1.99-.13-.14-.24-.29-.37-.44,.96,.77,2.01,1.45,3.01,2.12,1.36,.91,2.75,1.77,4.17,2.59,2.97,1.71,6.06,3.17,9.25,4.41Zm113.58,53.9c-.07,.05-.12,.11-.15,.17-.72,.1-1.44,.18-2.16,.25-2.44,.22-5.14,.36-7.65,.99,4.54-2.42,8.94-5.19,12.99-8.31,5.18-4,9.71-8.75,13.09-14.37,1.56-2.6,2.85-5.33,3.87-8.15-2.44,8.71-6.91,16.77-13.15,23.39-2.09,2.22-4.36,4.25-6.84,6.03Zm17.25-11.61c-2.02,3.36-4.8,6.28-8.1,8.4-1.61,1.04-3.34,1.87-5.16,2.47-.7,.23-1.42,.41-2.14,.56,3.81-3.13,7.29-6.67,10.16-10.69,3.17-4.45,5.71-9.36,7.46-14.54,.79-2.33,1.39-4.71,1.82-7.13,.68,7.21-.25,14.62-4.04,20.92Zm-.86-11.95c-3.08,5.73-7.38,10.66-12.4,14.77-2.81,2.3-5.81,4.35-8.89,6.27-2.33,1.46-4.73,2.8-7.12,4.15,.92-1.03,1.72-2.22,2.58-3.3,1-1.27,2.02-2.53,3.04-3.78,2-2.44,4.05-4.85,6.14-7.22,4.22-4.8,8.62-9.44,13.16-13.94,1.28-1.27,2.58-2.53,3.88-3.77,.65-.62,1.31-1.24,1.96-1.86,.3-.28,.61-.56,.89-.86,.34-.35,.57-.77,.91-1.13,.08-.08-.05-.21-.13-.14-.33,.26-.7,.43-1.03,.67-.33,.25-.63,.54-.93,.82-.58,.53-1.16,1.06-1.73,1.59-1.15,1.08-2.29,2.18-3.42,3.28-2.32,2.26-4.59,4.55-6.83,6.89-4.45,4.64-8.75,9.43-12.88,14.35-1.16,1.38-2.31,2.77-3.45,4.17-.18,.22-.37,.44-.55,.66,.61-1.03,1.22-2.07,1.84-3.1,1.93-3.24,3.93-6.46,6.13-9.53,4.05-5.65,8.93-10.64,14.56-14.72,1.55-1.13,3.15-2.19,4.79-3.18,.82-.49,1.66-.96,2.49-1.43,.41-.24,.84-.46,1.26-.69-.96,3.83-2.4,7.53-4.27,11.01Zm28.19-68.08c-2.23,3.16-5.09,5.83-8.41,7.82-3.45,2.06-7.29,3.03-11.13,4.09,8.93-5.73,18.14-12.24,22.63-22.16,.61-1.35,1.11-2.75,1.49-4.18,.1-.36,.19-.72,.28-1.09,0,5.51-1.66,11.01-4.85,15.52Zm4.75-17.88c-.18,1-.33,2-.59,2.99-.35,1.32-.81,2.61-1.36,3.87-1.06,2.43-2.42,4.71-4.02,6.83-3.38,4.47-7.72,8.15-12.31,11.34-2.67,1.85-5.43,3.57-8.17,5.31-.06,.04-.09,.08-.12,.13-.42,.13-.85,.26-1.27,.41,3.62-2.41,7.21-4.85,10.62-7.54,5.47-4.3,10.45-9.32,13.89-15.41,1.52-2.68,2.63-5.53,3.27-8.51,.02,.2,.03,.39,.05,.59Zm-.22-1.86c-1.53,6.31-4.9,12.03-9.19,16.86-4.36,4.91-9.63,8.87-15.03,12.56,7.25-6.46,13.71-13.82,19.18-21.81,.95-1.39,1.87-2.8,2.75-4.23,.76-1.23,1.57-2.48,2.21-3.8,.02,.14,.05,.28,.08,.42Zm-20.64,18.78c1.98-2.47,4.11-4.81,6.38-7.02,2.24-2.17,4.63-4.16,7.01-6.18,2.42-2.05,4.77-4.19,6.92-6.53-.8,1.14-1.47,2.38-2.21,3.55-.78,1.24-1.58,2.46-2.39,3.67-1.68,2.48-3.45,4.9-5.31,7.25-3.74,4.73-7.84,9.19-12.26,13.29-2.29,2.13-4.69,4.15-7.14,6.1,2.48-5.02,5.49-9.78,9-14.15Zm35.86,86.16c-2.24-1.85-4.56-3.61-6.94-5.3-2.4-1.7-4.84-3.36-7.13-5.21-2.16-1.74-4.18-3.65-5.91-5.83-1.59-2-3-4.16-4.22-6.41-2.52-4.62-4.22-9.67-5.42-14.79-.85-3.59-1.46-7.23-2.01-10.88,.05,.25,.1,.51,.15,.76,.52,2.51,1.19,5,2.01,7.43,1.67,4.96,3.97,9.68,6.82,14.07,5.92,9.12,13.85,16.65,21.58,24.2,2.93,2.86,5.81,5.76,8.59,8.76-2.41-2.37-4.9-4.66-7.51-6.82Zm-10.19-12.2c-7.4-7.69-14.04-16.18-17.9-26.23-1.04-2.71-1.89-5.49-2.54-8.32-.59-2.57-.94-5.17-1.31-7.77,.02,.02,.04,.03,.06,.05,.54,2.15,1.4,4.26,2.15,6.33,.88,2.43,1.81,4.84,2.82,7.21,1.97,4.63,4.26,9.14,7.12,13.28,3.07,4.44,6.85,8.3,10.69,12.07,3.83,3.77,7.63,7.59,10.98,11.81,3.1,3.9,5.88,8.06,8.4,12.36-6.46-7.26-13.73-13.78-20.47-20.79Zm16.44,8.68c-2.32-4.25-4.88-8.39-7.67-12.35-5.99-8.47-12.52-16.52-18.99-24.62-1.86-2.32-3.69-4.66-5.5-7.02-1.34-1.75-2.62-3.56-3.98-5.31,16.36,13.57,29.23,31.34,37.08,51.09-.31-.6-.61-1.2-.94-1.79Zm1.9,6.03c.54,1.16,1.05,2.33,1.54,3.51-1.84-2.93-3.82-5.77-5.93-8.5-3.24-4.19-6.77-8.07-10.5-11.83-3.82-3.85-7.76-7.64-11.03-11.99-3.07-4.07-5.52-8.57-7.61-13.22-1.16-2.57-2.2-5.2-3.2-7.84-.51-1.35-1.01-2.71-1.51-4.07-.15-.42-.3-.84-.45-1.26,1.1,1.58,2.31,3.1,3.48,4.62,1.63,2.12,3.28,4.21,4.95,6.3,3.28,4.12,6.59,8.22,9.83,12.37,6.12,7.82,11.92,15.93,16.73,24.63,1.32,2.38,2.56,4.81,3.7,7.28Zm2.56,3.17c-6.23-20.42-18.14-39.17-33.55-53.85-1.68-1.59-3.4-3.13-5.17-4.62,1.16,.75,2.32,1.53,3.45,2.33,2.31,1.65,4.55,3.39,6.71,5.24,4.41,3.77,8.43,7.97,11.96,12.57,6.45,8.42,11.55,18,14.62,28.17,1.2,3.97,2.12,8,2.77,12.08-.24-.65-.51-1.29-.78-1.93Zm-40.42-59.94c-.08-.05-.16-.08-.24-.13-.1-.08-.19-.16-.29-.24,10.68,3.55,19.52,11.27,26.13,20.25,3.42,4.65,6.37,9.66,8.89,14.85,2.3,4.72,4.23,9.63,5.56,14.71,.73,2.81,1.27,5.68,1.56,8.57,.03,.27,.03,.54,.05,.81-1.58-7.7-4.15-15.2-7.65-22.24-4.99-10.04-11.98-18.98-20.3-26.49-2.45-2.21-5.02-4.29-7.71-6.2-1.33-.94-2.69-1.86-4.07-2.72-.65-.4-1.3-.8-1.95-1.18ZM211.47,7.69c.87,2.4,1.6,4.87,2.18,7.36,1.17,5.02,1.73,10.18,1.76,15.34,.07,11.31-2.53,22.54-6.76,32.99-1.47,3.63-3.15,7.17-4.97,10.63,3.3-7.94,5.8-16.23,7.39-24.68,1.86-9.92,2.41-20.2,1.7-30.27-.2-2.83-.5-5.66-.91-8.46-.15-1.01-.29-2.04-.46-3.07,.02,.05,.04,.11,.06,.16Zm-1.01-2.54c.28,1.55,.6,3.09,.84,4.65,.38,2.49,.67,5,.88,7.51,.43,5.03,.53,10.1,.32,15.14-.42,10.02-2.19,20.06-5.15,29.64-1.2,3.86-2.61,7.63-4.23,11.32,2.11-8.65,4.05-17.35,5.53-26.12,1.65-9.79,2.61-19.71,2.4-29.64-.1-4.73-.5-9.46-1.3-14.13,.24,.54,.47,1.08,.7,1.63Zm-7.55,43.96c1.69-10.39,4.2-20.65,5.45-31.11,.65-5.43,.94-10.86,.58-16.31,.15,.32,.29,.65,.43,.97,1.18,9.21,1.4,18.5,.66,27.77-.82,10.27-2.62,20.44-4.8,30.5-1.09,5.02-2.3,10-3.47,15-1.15-8.89-.27-18.03,1.16-26.82Zm-.7,29.89c5.48-9.54,9.85-19.77,12.24-30.52,2.33-10.46,2.66-21.43,.44-31.95-.34-1.61-.74-3.23-1.2-4.84,.71,1.85,1.38,3.71,1.98,5.6,1.66,5.23,2.89,10.59,3.45,16.06,1.15,11.16-.63,22.64-5.99,32.57-2.76,5.13-6.47,9.57-10.85,13.36,0,0,0,0-.01,0-.02-.1-.04-.2-.05-.29Zm-15.05,13.71c2.94-.47,5.95-.69,8.92-.35,5.91,.68,11.08,3.79,16.31,6.39-2.51-.83-5.05-1.58-7.62-2.23-5.6-1.42-11.24-2.39-16.98-3.03-1.08-.12-2.17-.21-3.25-.28,.87-.18,1.74-.35,2.62-.49Zm-5.59,1.17c.31,0,.61,.01,.92,.03,1.39,.06,2.77,.16,4.15,.26,2.87,.2,5.73,.57,8.57,1.01,5.67,.88,11.25,2.2,16.71,3.97,2.33,.75,4.6,1.64,6.88,2.49-1.55-.29-3.11-.55-4.65-.83-2.89-.53-5.78-1.06-8.67-1.61-5.78-1.1-11.55-2.19-17.33-3.28-2.82-.53-5.64-1.06-8.46-1.58,.63-.15,1.25-.3,1.87-.45Zm31.37,7.12c1.6,.29,3.2,.58,4.79,.87,.42,.07,.84,.15,1.26,.23-.18,.02-.37,.05-.55,.07-.13,.01-.26,.02-.38,.04-4.9-.05-9.77-.25-14.63-.92-5.5-.76-10.97-1.96-16.25-3.69-1.49-.49-2.97-1.01-4.43-1.57-.55-.21-1.1-.44-1.65-.68,10.61,1.92,21.23,3.73,31.84,5.66Zm-26.9-3.09c2.66,.83,5.35,1.58,8.06,2.22,5.44,1.27,11,2.08,16.58,2.4,.89,.05,1.79,.09,2.68,.12-2.63,.21-5.26,.31-7.9,.26-2.94-.05-5.88-.35-8.76-.96-3.06-.65-6.04-1.69-8.91-2.92-1.34-.58-2.66-1.21-3.97-1.87,.74,.25,1.47,.51,2.21,.75Zm-40.24-12.14c1.39-4.88,2.77-9.77,4.55-14.53,1.81-4.81,4.08-9.42,6.97-13.67,2.05-3.01,4.37-5.82,6.92-8.41-.24,.34-.48,.68-.7,1.01-1.38,2.04-2.59,4.19-3.65,6.41-2.21,4.62-3.82,9.49-5.36,14.36-1.55,4.9-3.09,9.81-5.06,14.57-1.97,4.75-4.24,9.36-6.76,13.84-1.26,2.23-2.6,4.42-3.98,6.57,3.14-6.37,5.12-13.3,7.07-20.15Zm3.52,2.37c2-4.75,3.68-9.6,5.22-14.51,1.53-4.86,3-9.75,5-14.44,1.11-2.61,2.39-5.16,3.9-7.56,.76-1.21,1.59-2.38,2.48-3.49,.47-.59,.96-1.16,1.44-1.73-.84,1.44-1.55,2.98-2.26,4.45-1.09,2.24-2.09,4.53-3.04,6.84-1.92,4.66-3.62,9.42-5.31,14.17-3.36,9.43-6.76,18.92-11.84,27.59-1.86,3.17-3.94,6.19-6.29,9,4.17-6.43,7.73-13.25,10.7-20.32Zm18.1-40.26c-.37,1.15-.68,2.33-.99,3.47-.64,2.3-1.2,4.62-1.74,6.94-1.11,4.76-2.14,9.55-3.6,14.22-2.92,9.33-7.41,18.23-13.22,26.1-1.8,2.44-3.72,4.78-5.75,7.03,3.77-5.33,6.75-11.23,9.29-17.24,3.94-9.31,6.86-19.01,10.56-28.41,1.02-2.6,2.11-5.18,3.29-7.71,.6-1.28,1.21-2.56,1.86-3.81,.1-.19,.21-.39,.31-.58Zm-12.02,40.29c2.27-4.34,4.21-8.86,5.76-13.51,1.55-4.64,2.65-9.4,3.73-14.16,.6-2.64,1.21-5.29,1.9-7.91,.36-1.37,.75-2.73,1.16-4.08,.22-.71,.46-1.41,.67-2.11-.32,9.7-1.91,19.39-4.84,28.65-1.62,5.13-3.6,10.17-6.03,14.96-2.5,4.94-5.59,9.62-9.51,13.56-2.71,2.72-5.8,4.93-9.16,6.67,6.52-6.47,12.05-13.93,16.31-22.07Zm-18.39,27.11c2.26,.22,4.49,.74,6.64,1.48,4.9,1.69,9.33,4.49,13.49,7.53,4.39,3.21,8.66,6.61,12.95,9.95,4.32,3.36,8.68,6.68,12.99,10.05,2.45,1.91,4.9,3.82,7.35,5.74,.73,.57,1.46,1.15,2.19,1.73-.73-.45-1.46-.9-2.18-1.36-2.53-1.58-5.06-3.15-7.6-4.72-5-3.1-10.01-6.2-15.04-9.28-5.05-3.1-10.11-6.19-15.16-9.29-2.54-1.56-5.09-3.12-7.63-4.68-2.48-1.52-4.95-3.06-7.55-4.38-2.11-1.07-4.36-1.99-6.68-2.61,2.09-.16,4.12-.38,6.23-.18Zm-.97,3.23c2.56,1.21,4.98,2.67,7.39,4.14,2.48,1.51,4.95,3.02,7.43,4.53,9.98,6.09,19.96,12.2,29.98,18.23,2.78,1.68,5.56,3.37,8.35,5.03,1.68,1.01,3.36,2.03,5.05,3.02-4.31-1.82-8.94-2.87-13.54-3.73-1.54-.29-3.08-.55-4.62-.82-.04-.04-.09-.08-.15-.1-9.92-3.69-17.46-11.37-25.14-18.34-7.01-6.37-14.63-12.39-24.06-14.54-.21-.05-.42-.08-.64-.13,3.43,.18,6.78,1.21,9.93,2.71Zm1.25,2.48c8.95,5.25,15.84,13.18,23.79,19.7,3.61,2.96,7.48,5.65,11.7,7.64-3.31-.6-6.61-1.27-9.83-2.24-3.72-1.11-7.31-2.65-10.69-4.55-.42-.44-.84-.88-1.24-1.33-.97-1.09-1.91-2.21-2.84-3.34-1.81-2.2-3.58-4.44-5.42-6.62-3.52-4.16-7.36-8.07-12.07-10.89-2.11-1.26-4.51-2.4-6.97-2.91-.2-.06-.39-.13-.59-.19,4.96,.42,9.82,2.2,14.14,4.73Zm-9.67-2.62c.73,.32,1.46,.67,2.16,1.05,2.35,1.27,4.49,2.92,6.47,4.7,4.16,3.75,7.53,8.24,11.03,12.59,1.01,1.25,2.03,2.49,3.09,3.7,0,0,.01,.02,.02,.02-1.59-.99-3.14-2.05-4.62-3.21-2.54-1.99-4.9-4.2-7.02-6.64-2.12-2.44-3.94-5.11-6.05-7.55-1.51-1.75-3.17-3.38-5.08-4.66Zm-15.73-11.37c2.61-4.44,5.04-9.1,8.78-12.71,.96-.92,1.99-1.76,3.1-2.49,.54-.36,1.09-.69,1.67-.99,.05-.02,.1-.05,.14-.07-1.08,1.2-2.08,2.48-3.11,3.72-1.32,1.61-2.64,3.22-3.94,4.84-2.61,3.24-5.23,6.48-7.8,9.75-.17,.21-.33,.42-.5,.63,.57-.88,1.12-1.78,1.65-2.68Zm-1.13,3.26c1.26-1.65,2.53-3.31,3.8-4.95,2.54-3.3,5.16-6.53,7.77-9.77,1.41-1.75,2.91-3.45,4.21-5.29,.03-.02,.07-.03,.11-.05-4.5,7.73-9.91,14.82-16.49,20.87,.2-.27,.4-.53,.61-.8Zm-4.08,4.91s.06-.05,.09-.08c.07,.01,.15,0,.21-.06,.26-.23,.5-.49,.72-.75,.54-.46,1.08-.92,1.61-1.39,1.72-1.55,3.37-3.17,4.96-4.85,3.15-3.36,6.06-6.95,8.63-10.78-1.14,2.03-2.34,4.03-3.64,5.95-2.64,3.89-5.72,7.52-9.46,10.4-.98,.76-2,1.46-3.06,2.1-.36,.22-.74,.42-1.11,.62-.14,.01-.29,.03-.43,.04,.51-.39,1-.8,1.5-1.21Zm-19.11,3.37c1.4,.24,2.78,.6,4.13,1.05,2.62,.88,5.11,2.1,7.48,3.51,5.3,3.14,9.88,7.31,14.56,11.27,1.38,1.16,2.77,2.32,4.2,3.42,.6,.46,1.22,.97,1.86,1.45-.04-.01-.07-.03-.11-.04-.36-.32-.79-.59-1.19-.87-.69-.48-1.39-.96-2.09-1.44-1.33-.92-2.66-1.82-4-2.73-2.65-1.8-5.29-3.61-7.95-5.4-5.05-3.4-10.19-6.74-15.68-9.39-.64-.31-1.28-.62-1.93-.92,.24,.03,.47,.05,.71,.09Zm8.03,5.38c5.41,3.17,10.54,6.81,15.73,10.33,1.46,.99,2.92,1.99,4.39,2.97,.56,.38,1.12,.75,1.68,1.13-1.12-.45-2.23-.93-3.31-1.46-2.76-1.34-5.41-2.89-7.97-4.57-5.31-3.48-10.28-7.45-15.59-10.92-.62-.41-1.26-.8-1.89-1.18,2.39,1.11,4.71,2.38,6.97,3.71Zm-36.26-29.7c4.43-1.23,8.86-2.18,13.48-2.16,4.52,.02,9.02,.65,13.55,.56,.99-.02,1.99-.09,2.98-.19-1.19,.23-2.37,.46-3.56,.67-3.33,.58-6.68,1.09-10.04,1.51-6.72,.84-13.48,1.33-20.25,1.46-1.03,.02-2.07,.01-3.1,.02,2.33-.55,4.63-1.22,6.94-1.86Zm-12.73,2.91c.27-.03,.53-.07,.79-.1,.6,0,1.19-.02,1.77,0,1.73,.02,3.45,.02,5.18-.01,3.38-.05,6.77-.2,10.14-.43,6.75-.47,13.49-1.28,20.15-2.49,1.9-.35,3.8-.72,5.7-1.13,.47-.1,.95-.19,1.43-.29-.73,.36-1.47,.71-2.21,1.04-5.65,1.74-11.37,3.09-17.25,3.89-6.91,.94-13.94,1.08-20.89,.47-2.05-.18-4.06-.49-6.08-.83,.43-.03,.85-.06,1.27-.11Zm3.51,1.34c3.47,.33,6.97,.48,10.46,.44,7.02-.09,14.04-.89,20.87-2.49,1.37-.32,2.73-.68,4.09-1.06-4.02,1.48-8.15,2.62-12.37,3.34-8.82,1.49-17.9,1.31-26.64-.59,1.2,.14,2.4,.25,3.6,.36ZM10.94,139.66c.72-.99,1.57-1.84,2.62-2.57,1.47-1.02,3.12-1.76,4.74-2.52,2.81-1.32,5.44-2.87,7.81-4.88,.55-.47,1.07-.95,1.59-1.45-2.13,2.55-4.55,4.85-7.22,6.84-1.54,1.14-3.16,2.2-4.83,3.14-1.73,.98-3.55,1.75-5.33,2.62,.19-.4,.4-.8,.62-1.18Zm23.65-21c-3.03,7.06-7.25,14.35-13.78,18.69-2.69,1.79-5.74,3.02-8.93,3.49,1.21-.45,2.39-1.01,3.53-1.59,1.56-.8,3.08-1.7,4.52-2.71,2.88-2.01,5.52-4.38,7.83-7.04,2.63-3.03,4.79-6.43,6.45-10.07,.17-.32,.32-.65,.47-.98-.03,.07-.05,.14-.08,.21Zm2.05-9.52c-.63,3.41-1.68,6.75-3.13,9.9-.2,.44-.43,.87-.65,1.3-.37,.65-.76,1.28-1.17,1.9-1.65,2.48-3.64,4.75-5.9,6.69-2.41,2.07-5.1,3.64-7.96,4.99-1.47,.69-2.94,1.4-4.29,2.32,1.17-1.26,2.47-2.42,3.79-3.53,2.9-2.45,5.81-4.87,8.5-7.55,4.99-4.97,9.23-10.8,10.95-17.72,.12-.48,.22-.96,.31-1.44-.11,1.05-.25,2.1-.45,3.14Zm2.63,51.9c1.05-2.44,2.35-4.79,3.7-7.08,2.86-4.86,6.24-9.42,10.04-13.6,1.56-1.72,3.21-3.36,4.9-4.95-2.49,3.46-4.83,7.03-7.27,10.53-2.76,3.96-5.59,7.87-8.42,11.78-1.16,1.6-2.33,3.19-3.51,4.78,.16-.51,.36-1,.56-1.47Zm17.75-21.24c-2.68,6.59-6.29,12.8-10.73,18.36-2.36,2.95-4.97,5.7-7.77,8.23,0,0,0-.01,0-.02,0,0,.02,0,.02-.02,5.88-7.56,11.47-15.33,16.38-23.56,1-1.67,1.99-3.35,2.9-5.07-.26,.7-.52,1.39-.8,2.08Zm1.63-4.45s-.05,.02-.07,.05c-2.53,4.08-4.85,8.28-7.47,12.32-2.59,4-5.33,7.91-8.21,11.72-1.46,1.94-3.01,3.81-4.6,5.66,0-.24-.02-.48,0-.73,5.65-7.68,11.14-15.48,16.51-23.36,1.34-1.96,2.68-3.93,3.93-5.94-.03,.1-.07,.19-.1,.28Zm11.34,26.98c-.54,6.98-2.95,13.65-6.27,19.77-.58,1.08-1.21,2.14-1.85,3.18,.49-1.22,.97-2.43,1.43-3.66,1.24-3.29,2.38-6.62,3.32-10.01,1.69-6.1,2.68-12.39,2.4-18.73-.04-.99-.12-1.98-.22-2.98,1.16,4.01,1.51,8.25,1.19,12.42Zm-2.33-15.64c.3,1.72,.53,3.45,.62,5.21,.16,3.09-.02,6.17-.43,9.24-.87,6.61-2.88,13-5.28,19.2-.69,1.79-1.42,3.57-2.16,5.35-.35,.83-.71,1.65-1.06,2.48,.62-1.85,1.16-3.73,1.69-5.6,.81-2.84,1.57-5.68,2.27-8.55,1.41-5.78,2.56-11.63,3.25-17.54,.42-3.59,.65-7.21,.68-10.82,.16,.34,.29,.69,.43,1.03Zm-8.76,38.76c.1-1.19,.2-2.39,.29-3.58,.25-3.23,.48-6.47,.77-9.7,.57-6.37,1.37-12.81,3.09-18.98,.48-1.73,1.03-3.44,1.65-5.12,.39-1.05,.82-2.08,1.25-3.11-.04,9.01-1.37,17.98-3.41,26.77-.75,3.22-1.58,6.42-2.46,9.61-.38,1.37-.78,2.74-1.18,4.11Zm1.27-32.73c1.41-2.99,3.26-5.62,5.33-8.15-1.12,2.31-1.93,4.81-2.66,7.25-.91,3.05-1.67,6.16-2.25,9.29-1.18,6.42-1.81,12.94-2.43,19.44-.19,2-.38,3.99-.55,5.99-.08,.94-.16,1.88-.24,2.82-1.56-12.28-2.62-25.14,2.79-36.63Z"/>
      <path class="cls-1" d="M198.31,137.22c.71,.17,1.41-.2,1.8-.78,.03-.03,.07-.05,.09-.09,.18-.23,.29-.48,.36-.76,.07-.27,.04-.55-.03-.82-.07-.26-.22-.5-.4-.69-.19-.2-.41-.37-.67-.47-.48-.19-1.05-.2-1.52,.04-.26,.14-.48,.29-.67,.52-.15,.17-.28,.39-.35,.61-.09,.27-.14,.54-.11,.83,.03,.28,.13,.53,.28,.78,.27,.44,.74,.72,1.23,.84Z"/>
      <path class="cls-1" d="M199.81,140.44c.15,.06,.3,.09,.46,.07,.08-.02,.15-.04,.23-.05,.15-.06,.28-.15,.39-.28,.08-.09,.14-.2,.16-.32,.04-.11,.06-.23,.04-.35,0-.12-.04-.23-.11-.33-.05-.11-.12-.21-.22-.28-.07-.04-.14-.09-.21-.13-.15-.06-.3-.09-.46-.07-.08,.02-.15,.04-.23,.05-.15,.06-.28,.15-.39,.28-.08,.09-.14,.2-.16,.32-.04,.11-.06,.23-.04,.35,0,.12,.04,.23,.11,.33,.05,.11,.12,.21,.22,.28,.07,.04,.14,.09,.21,.13Z"/>
      <g>
        <path class="cls-1" d="M100.08,105.72c.61,.21,1.25,.13,1.8-.2,.55-.34,.85-.94,.85-1.58,0-.56-.3-1.16-.76-1.48-.26-.18-.55-.32-.87-.33-.36-.02-.68,.06-1,.24-.47,.26-.83,.76-.91,1.3-.04,.24,0,.5,.08,.73,.01,.03,0,.07,.02,.1,0,0,0,.01,.01,.02,0,0,0,0,0,0,0,0,0,0,.01,.02,.1,.23,.25,.42,.44,.57-.04,.24,.09,.53,.32,.61Z"/>
        <path class="cls-1" d="M100.85,103.96s0,0,0,0c0,0,0,0,0,0,0,0,0-.02,0-.02,0,0,0,0,0,0,0,0,0,.01,0,.02Z"/>
      </g>
      <path class="cls-1" d="M95.15,103.7c.38,.05,.78,0,1.12-.18,.09-.05,.18-.1,.26-.15,.21-.07,.41-.16,.58-.3,.66-.57,.87-1.5,.55-2.31-.14-.36-.38-.71-.71-.92-.4-.27-.83-.38-1.32-.37-.82,.02-1.61,.54-1.95,1.27-.33,.72-.25,1.7,.28,2.31,.31,.35,.7,.61,1.17,.66Z"/>
      <path class="cls-1" d="M91.67,104.43c.25-.4,.27-.89-.12-1.21-.32-.27-.96-.27-1.21,.12-.25,.4-.27,.89,.12,1.21,.32,.27,.96,.27,1.21-.12Z"/>
      <path class="cls-1" d="M18.61,117.84c.67,.17,1.47,.01,1.99-.46,.56-.51,.88-1.26,.8-2.03,0-.03-.02-.06-.02-.1,.02-.44-.1-.9-.34-1.28-.43-.69-1.27-1.03-2.07-.95-.82,.09-1.49,.57-1.9,1.27-.36,.62-.41,1.45-.14,2.11,.29,.74,.93,1.24,1.69,1.43Z"/>
      <path class="cls-1" d="M23.19,112.47c.09,.13,.21,.23,.36,.29,.14,.06,.29,.08,.44,.07,.12,0,.22-.04,.32-.1,.11-.05,.2-.12,.27-.21,.1-.12,.16-.26,.19-.42,.05-.31-.08-.61-.31-.82-.09-.07-.18-.13-.29-.18-.13-.06-.26-.07-.39-.06-.09,0-.19-.02-.28,0-.14,.02-.26,.05-.38,.14-.11,.08-.19,.18-.25,.31-.03,.07-.05,.14-.06,.21,0,.05,0,.1,0,.15,0,.08,.03,.15,.07,.22,.02,.05,.05,.09,.09,.13,0,0,0,0,0,0,.01,.01,.03,.04,.05,.06,0,0,0,0,0,0,0,0,0,0,.01,.01,.01,.01,.02,.02,.04,.04,.02,.02,.03,.02,.05,.03,0,0,0,.02,.01,.03,0,0,0-.02-.01-.03,0,0,0,0,0,0,.02,.04,.02,.09,.05,.13Z"/>
      <path class="cls-1" d="M14.51,111.9c.06,.03,.12,.04,.19,.06,0,0,0,0,0,0,0,0,.01,0,.02,0,0,0,.02,0,.03,0,0,0,0,0,0,0,.08,.02,.16,.04,.25,.04,.04,0,.07,.02,.11,.02,.09,0,.17-.06,.24-.09,0,0-.02,.02-.03,.03h0s.07-.04,.1-.05c.02-.01,.05-.01,.07-.03,0,0,.02-.02,.03-.03,.07-.05,.13-.1,.19-.17,.08-.09,.14-.2,.16-.32,.04-.11,.06-.23,.04-.34-.02-.16-.07-.3-.16-.43-.06-.07-.12-.13-.18-.19,0,0-.01,0-.02-.01,.02,.01-.14-.09-.21-.13,0,0,0,0-.01,0-.04-.02-.1-.03-.12-.04-.02,0-.08-.03-.12-.04,0,0,0,0,0,0-.08,0-.16,0-.24,0,0,0,0,0,0,0-.08,.01-.16,.03-.23,.05,0,0,0,0,0,0-.08,.03-.15,.07-.22,.11,0,0,0,0-.01,0,0,0,0,0,0,0-.06,.05-.12,.11-.18,.17-.05,.06-.1,.13-.13,.21-.06,.15-.09,.3-.07,.45,.02,.16,.07,.3,.16,.43,.1,.13,.22,.23,.37,.3Z"/>
      <path class="cls-1" d="M13.48,117.33c.06,.02,.12,.03,.18,.02,.04,0,.08-.02,.12-.03,.08-.03,.15-.08,.2-.15,.01-.01,.03-.03,.04-.04,0,0,.01-.01,.02-.02,0,0,0,0,.01-.01,.04-.03,.05-.08,.08-.12,.03-.06,.04-.12,.04-.19,0-.07,0-.13-.03-.19-.02-.04-.04-.08-.06-.12-.04-.06-.09-.1-.15-.13-.04-.03-.08-.05-.12-.05-.06-.02-.13-.03-.19-.02-.04,0-.08,.02-.13,.03-.09,.03-.16,.08-.21,.15-.03,.04-.06,.08-.08,.13,0,0,0,0,0,.01v.02s-.02,.03-.03,.05c-.03,.06-.04,.12-.04,.18,0,.06,0,.12,.03,.18,.02,.04,.04,.07,.06,.11,.04,.06,.08,.1,.14,.13,.03,.03,.07,.04,.11,.05Z"/>
    </g>
  </g>
</svg>