<?xml version="1.0" encoding="UTF-8"?>
<svg id="Layer_2" data-name="Layer 2" xmlns="http://www.w3.org/2000/svg" viewBox="0 0 151.13 120.58">
  <defs>
    <style>
      .cls-1 {
        fill: #cecece;
      }
    </style>
  </defs>
  <g id="Layer_1-2" data-name="Layer 1">
    <g>
      <g>
        <path class="cls-1" d="M137.54,80.48c1.73-2.5,3.88-6.11,4.97-8.32,1.07-1.8,2.17-3.58,2.92-5.54,.7-1.5,.96-3.12,1.17-4.75,.45-2.11,.84-4.24,.75-6.42,.1-3-.98-5.86-1.22-8.83-.09-1.66-.41-2.88-.63-4.23-.32-3.06-.47-6.13-.62-9.21-.13-1.21-.24-2.7-.31-4.1,.33,.6,.63,1.11,.8,1.33,.69,1.09,1.14,2.45,2.25,3.65,.71,.73,1.53,1.38,2.43,1.86,.11,.09,.37,.18,.14,.07,.06,.05,.13,.09,.2,.1,.27,.1,.58-.08,.69-.32,.07-.18,.05-.39-.06-.56,.02-.13-.33-1.1-.37-1.56-.34-1.96-1.27-3.74-1.96-5.58-.53-1.93-.98-3.13-1.09-5.08-.06-1.03,.54-2.94,.86-3.93,.41-1.32,.53-2.28,1.38-3.85,.85-1.48,1.06-3.21,.91-4.88-.04-1.74,.16-2.95-.31-5.03-.65-1.76-2.13-3.06-3.61-4.13-.52-.38-1.09-.83-1.59-1.15,.22,.18,.43,.37,.62,.58,2.41,2.26,4.24,4.09,3.89,7,.04-.35-.04,.31,0,.42-.01,.11-.03,.28-.02,.32-.01,.14,.02,.28,.02,.43-.02-.45-.13,1.47-.09,1.03,0,1.32,.04,2.61-.23,3.4-.32,1.22-1.11,2.24-1.46,3.45-.46,1.94-1.15,3.27-1.47,5.72-.16,1.99,.55,3.91,1.04,5.81,.31,1.12,.88,2.12,1.28,3.21,.44,1.18,.6,1.92,.82,2.92-1.12-.84-2.06-2.05-2.6-3.26-.91-1.78-2.36-3.53-2.59-5.57-.2-.53-1.05-.46-1.12,.12,.04,1.3,0,2.61,.06,3.91,.41,4.03,.5,8.08,.86,12.11,.07,1.5,.45,2.29,.57,3.57,.19,1.69,.33,3.37,.7,5.03,.61,2.57,.83,5.41,.61,7.61-.21,1.93-.75,3.8-.95,5.73-.57,3.04-2.59,6.07-4.15,8.91-1.52,2.87-3.06,5.55-5.24,8.31-3.9,4.57-7.68,8.21-12.48,11.91-1.59,1.27-3.34,2.34-5.09,3.39,.74-.94,1.67-1.6,2.45-2.54,1.6-2.26,2.59-4.93,3.36-7.56,1.51-4.65,3.66-11.91,5.3-17.43-2.37,5.33-4.33,10.87-6.09,16.42-.66,2.51-1.53,5.64-2.92,8.25-.56,.9-1.85,2.24-2.11,2.86-.62,.38-1.24,.74-1.86,1.12-1.11,.66-3.12,1.28-4.72,2-1.71,.68-2.87,.69-4.67,1.26-2.53,.87-4.89,2.12-7.36,3.12-2.94,1.13-5.22,3.37-7.71,5.23-4.31,2.33-10.4,3.05-15.97,3.11-3.69,.53-7.32,1.48-10.86,2.62-2.97,1.42-5.41,2.5-8.59,2.71-1.48,.12-2.72,.13-3.65-.15-1.05-.39-1.92-1.23-3.36-1.58-.99-.29-2.04-.13-3.01,.19,1.59-1.14,3.14-2.34,4.66-3.57-2.58,1.34-5.01,2.92-7.34,4.63-2.47,1.12-4.66,2.42-7.1,2.6,2.58-1.36,5.02-2.99,7.28-4.79-2.72,1.3-5.28,2.93-7.63,4.81-.22,0-.44,0-.65,0-1.83,.09-4.45-.76-6.72-.84-3.24-.13-6.97,.17-10.6,.82,.59-.42,1.15-.9,1.71-1.31,1.59-1.2,3.25-2.27,4.83-3.46,.63-.46,.8-.96,1.21-1.56,1.62-1.91,2.62-4.27,3.64-6.54,.41-1.28,1.13-2.43,1.66-3.67,.49-1.24,1-2.47,1.52-3.69,1.2-3.05,1.39-7.04,2.3-9.67,1.8-4.11,4.21-7.94,5.94-12.09,.74-2.16,1.46-4.32,2.04-6.53,.42-1.6,.53-2.85,1-4.11,.77-2.07,1.72-4.07,2.51-6.13,.53-1.05,1.05-2.1,1.53-3.17,.28,.06,.55,.11,.82,.17,1.94,.55,4.18,.91,6.35,.82,1.82-.1,3.09-.72,4.63-.89,3.39-.34,7.38,.2,11.41,.79-3.86-1.2-7.98-2.32-12.05-1.84-1.51,.29-2.61,.77-3.87,.96-2.37,.26-4.16,.16-6.62-.12-.19-.01-.39-.02-.61-.03,.28-.62,.55-1.25,.79-1.9,2.09-4.26,4.38-8.45,6.49-11.95,2.36-3.52,4.48-6.89,7.39-10.34,.95-1.44,2.12-2.06,3.3-3.45,.54-.05,1.06-.14,1.59-.21,2.53-.43,6.04-1.34,7.75-2.42,1.19-.41,2.42-.73,3.58-1.2,1.06-.39,2.05-.97,3.11-1.4,2.68-.92,4.5-1.88,7.17-2.93,1.31-.57,1.89-1.07,3.36-1.58,1.55-.48,3.63-.44,5.19-.45,1.84-.07,2.44-.47,3.99-.63,2.36-.28,4.65-.06,6.51,.06,.96,.07,3.58-.11,4.5-.08,2.57,.14,5.06,.4,7.27,.38,2,.01,3.97-.2,5.96-.29,1.49-.15,2.98-.15,4.46-.21h0c-1.34,.35-3.65,.64-5.43,.81-.06,.03-.5,.02-.66,.02-.02,0-.05,0-.07,0h0l-.14-.04s.02,.02,.04,.02c-.31-.06-.64,.14-.69,.46-.04,.24,.1,.49,.32,.6,.01,0,.02,0,.03,.02,.06,.03,.14,.07,.17,.09,.42,.25,.88,.43,1.37,.29,.05,0,.08,0,.1,0,.02,0,.05,0,.08,0,.38,.03,.74-.07,1.12-.09,2.07,.04,4.79,.25,6.92-.96,.55-.21,2.42-1.59,2.94-1.85,.78-.26,1.64-.45,2.49-.65-.4,.2-.81,.42-1.17,.64-.84,.53-1.67,.99-2.11,1.32-.27,.34-.32,.89,.14,1.09,.28,.13,.57-.05,.82-.15,.36-.14,.74-.24,1.12-.35,2.5-.68,4.84-1.8,6.98-3.24-.26,.31-.53,.6-.76,.93-2.92,3.38-5.42,7.06-7.32,11.1-1.25,2.72-2.78,4.74-4.34,7.5-2.07,3.55-5.67,6.45-8.55,9.27-.78,.65-1.38,1.39-2.19,1.97-.36,.27,.69-.38,.77-.45,3.41-2.55,7.03-4.99,9.71-8.34,.97-1.2,1.57-2.55,2.19-3.52,.74-1.05,1.4-2.15,2.01-3.26,.3,2.62,.26,5.27,.67,7.87,.49,3.6,1.18,7.2,1.22,10.83-.04,1.34-.02,2.79-.3,4.39-.33,1.62-.82,3.24-.63,4.91,.01,.28,.07,.6,.16,.85-.07-.34-.06-.7-.03-1.05,.26-2.78,1.69-5.08,1.74-8.11,.37-4.02-.5-8-1.35-11.9-.6-2.58-.84-5.23-1.48-7.81,.75-1.36,1.44-2.75,2.14-4.14,1.92-3.99,4.21-7.37,6.83-11.13,.08-.1,.21-.3,.16-.42,3.1-2.97,5.92-9.01,1.01-11.55,1.55,.99,2.56,2.9,2.13,4.74-.74,2.26-1.68,3.83-3.31,5.47-1.09,1.08-2.52,1.94-4.11,2.65,.07-.06,.13-.13,.19-.21,.22-.4,.57-.8,.53-1.26-.04-.27-.36-.45-.61-.38-.24,.15-2.54,.92-2.84,.95-1.15,.2-2.35,.38-3.28,1.14-1.24,.87-2.58,1.56-3.59,1.82-.35,.09-.7,.14-1.05,.18,.17-.05,.34-.1,.51-.18,.07-.06,.14-.12,.18-.21,.04-.1,.23-.38,.09-.15,.03-.04,.07-.08,.1-.12,.34-.37,.97-.96,.39-1.37-5.83,0-10.52,.63-15.67,.16-2.6-.29-6.08-.12-7.65-.11-2.21-.22-6.6-.41-8.69,.27-2.3,.6-4.87-.12-7.86,.88-1.12,.42-1.96,.95-2.69,1.29-1.52,.69-3.11,1.23-4.58,2.01-.69,.25-2.97,1.07-4.16,1.64-1.68,.86-3.47,1.42-5.25,2-2.46,1.31-6.23,2.31-9.15,2.64-.15-.1-.34-.1-.53-.01-.01,0-.03,0-.04,.02-.02,.01-.05,.02-.07,.03-.02,0-.04,.02-.07,.04-.01,0-.03,0-.04,0-.29,.05-.45,.33-.43,.6-.25,.26-.54,.56-1,.95-1.44,1.21-2.5,2.77-3.68,4.22-1.95,2.54-3.6,4.93-5.11,7.38-1.14,1.45-2,3.32-2.71,4.51-2.43,3.9-4.29,8.11-6.21,12.27-1.31,2.67-2.43,5.46-3.48,8.24-.55,1.74-.88,4.14-1.33,5.39-.86,2.89-1.78,5.77-3.27,8.41-1.49,3.23-3.57,6.26-4.59,9.68-.57,2.16-.93,5.12-1.37,6.75-.46,1.69-1.28,3.24-1.86,4.88-1.76,3.53-2.95,7.42-5.19,10.23-1.14,1.72-1.16,1.62-3.25,3.01-1,.67-2.17,1.59-3.22,2.39-3.09-2.35-6.68-4.3-10.6-4.57-2.85,.12-5.93,.93-7.65,3.37-.23,.29-.5,.72-.62,.96,.46-.58,.96-1.04,1.57-1.5,1.34-1.12,2.64-1.35,4.4-1.63,1.66-.2,2.68-.26,4.33,.17,2.89,.54,5.71,1.76,8.53,3.24-.9,.68-1.71,1.27-2.25,1.51-.95,.35-2.92-.19-4.33-.55-1.26-.31-3.32-.82-4.51-2.13-.59-.57-2.34-1.95-2.84-2.37,.59,.69,2.17,2.02,2.72,2.75,1.12,1.37,2.71,2.05,4.35,2.56,.9,.25,1.72,.61,2.73,.81h0s0,0,.01,0c.27,.05,.54,.1,.85,.12,.69,.08,1.32-.08,1.9-.37,4.03-.3,8.4-.35,11.47-.21,2.75,.21,5.46,1.14,8.24,.79,3.07-.23,7.27-3.1,10.07-3.82,2.23-.65,3.33,.91,5.69,1.65,2,.33,4.05,.1,6.02-.28,2.3-.36,4.36-1.45,6.45-2.41,2.54-.86,4.6-1.37,6.97-1.88,2.15-.6,4.35-.82,6.58-.73,2.3-.16,4.58-.56,6.85-.92,2.22-.48,4.46-1.1,6.47-2.19,2.75-1.89,4.97-4.26,7.83-5.29,2.41-.98,4.72-2.2,7.17-3.05,1.38-.46,3.09-.63,4.79-1.3,1.53-.7,3.17-1.16,4.65-1.96,2.31-1.37,4.64-2.73,6.8-4.31,5.17-3.98,9.93-8.46,14.02-13.54Z"/>
        <path class="cls-1" d="M124.05,20.59c-.08-.04-.11-.06,.03,.01h0s-.02,0-.03-.01Z"/>
        <path class="cls-1" d="M123.96,20.53s.06,.04,.09,.06h0s-.07-.03-.09-.06Z"/>
        <polygon class="cls-1" points="124.09 20.6 124.07 20.6 124.07 20.6 124.09 20.6"/>
        <path class="cls-1" d="M124.06,20.59s0,0-.01,0c.01,0,.02,0,.03,.01-.01,0-.02,0-.02-.01Z"/>
      </g>
      <path class="cls-1" d="M97.1,74.68c2.54-2.07,5-4.24,7.04-6.8,5.4-6.53,10.98-12.9,16.21-19.56-7.04,6.47-12.92,14.03-19.22,21.2-1.36,1.51-3.04,2.77-4.73,4.44-1.92,1.84-3.53,4.02-5.7,5.6l-1.52,1.13c.56-.31,1.12-.61,1.69-.92,2.37-1.31,4.2-3.33,6.24-5.07Z"/>
      <path class="cls-1" d="M67.83,98.29c5.33-4.62,9.52-8.53,15.38-12.84-3.23,1.88-6.32,4.01-9.34,6.21-1.94,1.78-3.96,3.47-5.97,5.16-2.77,2.37-6.08,3.97-9,6.12-3.95,2.65-7.52,5.96-11.65,7.48-3.21,1.12-6.3,2.55-9.45,3.82-2.59,.9-5.12,1.15-7.96,1.95-1.24,.39-2.62,.9-3.75,1.29,1.26-.24,2.5-.53,3.76-.77,2.57-.43,5.2-.56,7.72-1.22-2.06,.85-4.08,1.77-6.02,2.85,3.85-1.09,7.59-2.55,10.94-4.77-.19,.08-.37,.14-.55,.21,.66-.29,1.31-.58,1.99-.83,2.16-.88,4.42-1.53,6.47-2.65,2.74-1.64,5.24-3.63,7.86-5.45,3.06-2.38,6.52-4.17,9.58-6.55Z"/>
      <path class="cls-1" d="M65.81,105.79c-4.57,2.34-9.29,4.97-12.73,8.81,4.16-3.06,8.66-5.62,12.73-8.81Z"/>
      <path class="cls-1" d="M82.97,89.49c-2.69,3.09-5.43,6.72-7.35,10.11,2.86-3.05,5.38-6.4,7.35-10.11Z"/>
      <path class="cls-1" d="M78.19,104.01c-2.19,1.91-4.07,4.18-6,6.3,2.42-1.64,4.32-3.94,6-6.3Z"/>
      <path class="cls-1" d="M57.66,93.69c-2.11,.32-4.26,.19-6.39,.35-2.9,.13-5.46,.27-8.24,.09-.69,.02-1.73,.03-2.21,.13,.41,0,.83,.04,1.24,.08,3.02,.45,6.06,.79,9.13,.75,2.39-.02,4.8,.11,7.16-.32,5.54-.95,10.78-3.11,16.19-4.61-5.89,.74-11.41,2.6-16.88,3.53Z"/>
      <path class="cls-1" d="M35.05,102.12c4.97,.25,10,.1,15.31-.29-5.09-.72-10.27-.54-15.31,.29Z"/>
      <path class="cls-1" d="M38.87,109.25c2.55,.09,5.14-.05,7.69,.04-2.41-.54-5.64-.38-7.69-.04Z"/>
      <path class="cls-1" d="M58.4,63.85c1.72,.51,3.47,1.06,5.28,.93,3.82-.19,7.37-1.85,11.07-2.67-5.87,.19-10.54,2.86-16.36,1.74Z"/>
      <path class="cls-1" d="M79.62,59.79c3.4,.22,6.9-.1,10.41-.06-3.42-.76-6.99-.46-10.41,.06Z"/>
      <path class="cls-1" d="M104.03,53.8c3.47-.05,6.96-.72,10.17-1.59-3.44,.11-6.86,.75-10.17,1.59Z"/>
      <path class="cls-1" d="M84.07,54.31c4.44,1.52,9.3,1.48,14,1.42-4.57-.97-9.48-.94-14-1.42Z"/>
      <path class="cls-1" d="M108.06,95.57c2.51-4.51,4.4-9.32,6.14-14.17-2.49,4.42-4.78,8.98-6.87,13.61-.83,2.31-1.64,4.58-3.22,6.24,1.89-1.4,3-3.58,3.96-5.68Z"/>
      <path class="cls-1" d="M128.94,82.66c-2.45,2.54-4.27,5.59-5.76,8.77,2.18-2.76,3.97-5.87,5.76-8.77Z"/>
      <path class="cls-1" d="M140.24,29.75c.46,4.22,.76,8.64,2.02,12.67-.36-4.42-.51-8.11-2.02-12.67Z"/>
      <path class="cls-1" d="M134.47,36.47c-.01,.21-.01,.43,.01,.64,.02-.21,0-.43-.01-.64Z"/>
      <path class="cls-1" d="M130.2,22.97c-1.29-.04-2.43-.01-3.73-.33,3.93,1.39,8.25,1.1,12.36,1.19-2.85-.49-5.73-.77-8.62-.85Z"/>
      <path class="cls-1" d="M126.18,23.21c3.74,1.55,7.71,2.33,11.68,2.99-3.75-1.46-7.73-2.26-11.68-2.99Z"/>
      <path class="cls-1" d="M95.71,25.48c-3.91-.5-7.94-.7-11.86-.19,3.26,.09,6.49,.73,9.76,.94,3.31,.25,6.68,.85,9.9,1.25-2.54-.72-5.12-1.68-7.79-2Z"/>
      <path class="cls-1" d="M93.52,33.89c-3.68-1.81-7.62-2.95-11.65-3.64-4.24-.71-8.86-.81-12.91,.75,4.63-1,9.45-.21,14.07,.63,2.95,.48,6.14,1.08,8.58,1.85,.91,.26,2.02,.58,2.81,.85-.3-.15-.6-.3-.91-.45Z"/>
      <path class="cls-1" d="M65.09,112.18c2.23-2.93,4.27-6.03,6.67-8.85-2.84,2.37-5.28,5.2-7.43,8.21-.58,.65-1.93,1.64-2.86,2.55-1.04,.82-1.72,1.17-2.82,1.69-.46,.22-.99,.48-1.39,.73,.21-.08,.43-.16,.65-.23,1.25-.38,2.51-.73,3.63-1.4,1.21-.85,2.48-1.67,3.56-2.7Z"/>
      <path class="cls-1" d="M67.16,107.22c1.89-2.37,2.84-5.32,4.1-8.04-1.38,2.22-2.35,4.26-3.76,6.26-1.16,1.44-2.79,3.3-3.78,4.3-2.26,2.08-4.56,4.32-7.19,5.5-.29,.2-.59,.31-.91,.45-.01,0-.05,.05-.01,.02,.19-.09,.42-.08,.62-.17,4.45-1.35,8.13-4.69,10.93-8.32Z"/>
      <path class="cls-1" d="M55.23,111.23c3.9-3,6.43-6.65,10.1-9.6-4.11,2.56-8.04,6.82-11.05,9.43-1.52,1.5-2.77,2.95-4.75,3.92-.07,.04-.13,.06-.16,.09,.71-.23,1.41-.5,2.06-.86,1.4-.8,2.57-1.94,3.79-2.98Z"/>
      <path class="cls-1" d="M35.84,110.85c-2.95,.67-5.79,1.71-8.53,2.97,3.17-.7,6.31-1.53,9.32-2.74,.65-.24,1.59-.69,2.12-.63-.97-.22-1.96,.23-2.91,.4Z"/>
      <path class="cls-1" d="M40.2,105c-3.35,.06-6.67,.72-10.02,.64,3.7,.78,7.57,.48,11.29,0,1.5-.29,3.14-.25,4.5-.98-1.87,.48-3.86,.14-5.77,.34Z"/>
      <path class="cls-1" d="M51.96,97.67c-2.73,.21-5.49,1.37-7.97,1.34,2.74,.47,5.46-.41,8.21-.39,5.27,.34,10.36-1.2,15.55-1.75-5.29-.22-10.53,.75-15.8,.8Z"/>
      <path class="cls-1" d="M123.69,24.71c-2.35-.85-4.77-1.56-7.29-1.55-1.59-.11-3.16-.04-4.73,.14-.84,.03-1.9-.13-2.89-.3-.35-.06-.86-.18-1.08-.22,.59,.22,1.18,.45,1.79,.62,1.23,.4,2.51,.54,3.82,.46,.79,0,2.67,.2,3.82,.32,5.4,.76,10.31,2.73,15.72,4.33-2.98-1.45-6.04-2.71-9.16-3.8Z"/>
      <path class="cls-1" d="M111.42,20.49c-2.24-.1-4.31-.33-6.3-1.23-.09-.04-.14-.08-.21-.1,.42,.32,.88,.56,1.34,.81,1.76,.93,3.75,1.21,5.7,1.5,3.85,.65,7.74,.97,11.6,1.56-3.92-1.34-8.01-2.17-12.13-2.55Z"/>
      <path class="cls-1" d="M110.6,96.75c2.31-2.14,4.24-4.65,5.91-7.31-2.16,2.24-4.32,4.5-6.3,6.9-.77,.9-1.53,1.79-2.54,2.31,1.14-.3,2.08-1.11,2.93-1.9Z"/>
    </g>
  </g>
</svg>