<?xml version="1.0" encoding="UTF-8"?>
<svg id="Layer_2" data-name="Layer 2" xmlns="http://www.w3.org/2000/svg" viewBox="0 0 229.25 367.86">
  <defs>
    <style>
      .cls-1 {
        fill: #6c7254;
      }
    </style>
  </defs>
  <g id="Layer_1-2" data-name="Layer 1">
    <g>
      <path class="cls-1" d="M228.01,0l1.24,2.83c-54.37,23.79-101.92,69.89-133.87,129.81-11.82,22.16-19.21,42.02-22.59,60.72-3.22,17.76-3.46,37.37-.78,61.7,3.1,28.07,8.71,49.75,17.67,68.25l-2.78,1.35c-9.12-18.82-14.83-40.83-17.96-69.26-2.72-24.64-2.46-44.53,.81-62.59,3.44-19.02,10.93-39.18,22.9-61.63C124.93,70.66,173,24.07,228.01,0Z"/>
      <path class="cls-1" d="M68.22,226.88l.83,1.88c-14.33,6.35-24.93,21.1-26.36,36.7l-2.05-.19c1.52-16.58,12.34-31.65,27.58-38.4Z"/>
      <path class="cls-1" d="M78.34,164.12l1.35,1.56c-9.2,7.95-20.14,14.17-31.64,17.98l-.65-1.96c11.24-3.73,21.94-9.81,30.94-17.59Z"/>
      <path class="cls-1" d="M92.61,150.36c-.24-.67,.55-1.25,1.25-1.57,1.41-.65,3.02-1.22,4.55-.85,1.07,.25,1.95,.92,2.77,1.59,.47,.39,.96,.78,1.31,1.27,.77,1.04,.9,2.35,1,3.59,.04,.43,.07,.87,.11,1.3,.14,1.67,.28,3.35,.28,5.03,0,1.21-.19,2.6-1.29,3.31-.92,.59-2.18,.46-3.29,.27-.67,1.48-2.74,2.03-4.48,1.81-.95-.12-1.88-.42-2.7-.87-2.29-1.25-3.61-3.51-4.83-5.67-.39-.7-.79-1.4-.92-2.17-.14-.84,.04-1.69,.28-2.51,.25-.89,.57-1.76,.96-2.59,.19-.4,.39-.82,.75-1.13,.35-.31,.87-.5,1.33-.38,.47,.12,.78,.53,1.22,.71,.84,.32,1.95-.47,1.7-1.14Z"/>
      <path class="cls-1" d="M88.56,209.9c-1.91,.52-3.86,1.05-5.54,2.1-1.68,1.06-3.09,2.75-3.31,4.7-.12,1.06,.12,2.12,.34,3.17,.67,3.07,1.39,6.22,3.2,8.79,1.82,2.59,4.6,4.35,7.39,5.88,2.32,1.27,4.86,2.46,7.52,2.23,1.42-.12,2.84-.66,4.26-.44,1.29,.2,2.41,1,3.71,1.21,2.48,.41,4.84-1.48,6.15-3.65,1.32-2.17,1.97-4.67,3.33-6.81,1.2-1.89,2.93-3.44,4.93-4.43,.55-.27,1.18-.57,1.35-1.16,.11-.39-.02-.78-.15-1.16-1.62-4.62-3.28-9.33-6.25-13.21-1.53-2-3.37-3.72-5.21-5.44-1.73-1.62-3.51-3.28-5.72-4.16-2.21-.88-4.68-.93-7.08-.94-2.1-.02-4.34,0-6.12,1.14-2.05,1.33-2.97,3.82-3.68,6.15-.31,1.03-.6,2.09-.44,3.14,.17,1.05,.93,2.08,1.99,2.26,.02,.05,.03,.07-.67,.64Z"/>
      <path class="cls-1" d="M72.3,260.49c2.91,6.34,9.17,10.68,14.9,14.09,.85,.5,1.7,1,2.55,1.5,5.37,3.12,10.93,6.35,15.03,11.2l-1.57,1.33c-3.87-4.57-9.27-7.71-14.49-10.75-.86-.5-1.72-1-2.57-1.5-6.01-3.57-12.57-8.15-15.73-15l1.88-.86Z"/>
      <path class="cls-1" d="M112.58,99.25l1.09,1.75c-8.93,5.52-18.69,9.31-29.01,11.26l-.38-2.02c9.93-1.88,19.72-5.68,28.31-10.99Z"/>
      <path class="cls-1" d="M162.75,42.07l1,1.8c-11.13,6.19-25.05,7.62-37.22,3.82l.62-1.97c11.64,3.63,24.95,2.26,35.6-3.66Z"/>
      <path class="cls-1" d="M25.53,303.96c-6.33-.27-11.87-4.71-15.3-10.05-4.91-7.61-6.31-17.25-4.48-26.13,.75-3.61,2.05-7.2,4.33-10.11,4.27-5.44,11.55-7.86,18.46-7.66,5.58,.15,12.17,3.09,12.51,8.66,.12,2.06-.32,4.8,1.58,5.6,.59,.24,1.26,.19,1.89,.12,4.8-.51,10.18-1.52,14.02,1.39,2.27,1.73,3.48,4.54,4.01,7.35,1.8,9.58-3.68,19.56-11.84,24.89-8.16,5.33-18.41,6.23-25.19,5.94Z"/>
      <path class="cls-1" d="M49.31,183.02c2.37,7.39,.49,15.77-3.96,22.13-4.45,6.37-11.23,10.85-18.51,13.57-2.89,1.09-6.46,1.8-8.81-.2-2.63-2.24-2.09-6.39-1.33-10.02-5,2.19-11.43,.32-14.47-4.22-.8-1.21-1.38-2.56-1.76-3.95-1.83-6.83,1.76-14.7,8.1-17.81,1.65-.81,3.46-1.33,4.94-2.42,1.52-1.11,2.6-2.74,4.13-3.82,3.04-2.14,7.13-1.69,10.8-1.15,7.65,1.13,18.7,1.14,20.85,7.88Z"/>
      <path class="cls-1" d="M72.14,192.55c5.28,8.76,11.94,14.69,19.78,17.64l-.73,1.93c-8.29-3.12-15.3-9.35-20.82-18.51l1.76-1.06Z"/>
      <path class="cls-1" d="M86.31,112.27c2.58,5.22,2.75,12.35-1.69,16.11-1.16,.99-2.55,1.66-3.77,2.58-4.18,3.14-5.85,8.61-9.32,12.52-4.7,5.3-12.16,7.16-19.21,7.83-6.24,.6-12.94,.38-18.21-3.04-5.92-3.85-8.8-10.9-11-17.6-1.56-4.75-2.95-9.84-1.71-14.67,.98-3.78,3.47-6.97,5.96-9.99,3.71-4.51,7.65-9.01,12.73-11.88,10.17-5.75,22.97-3.96,33.97,0,2.86,1.03,5.77,2.26,7.85,4.47,3.75,4.02,2.8,10.42,4.4,13.66Z"/>
      <path class="cls-1" d="M128.33,48.86c-2.34,5.33-4.87,10.88-9.53,14.37-7.23,5.4-17.35,4.24-26.02,1.75-5.17-1.48-10.89-3.98-12.5-9.12-1.43-4.58,.85-10.18-2-14.04-1.43-1.93-3.93-3.01-4.91-5.19-.94-2.11-.19-4.56,.77-6.66,4.37-9.43,13.15-16.63,23.17-19.39,10.02-2.77,21.1-1.16,30.11,4.02,3.26,1.87,6.34,4.26,8.33,7.45,2,3.18,2.81,7.28,1.48,10.8-2.33,6.14-10.6,10.03-8.9,16.01Z"/>
      <path class="cls-1" d="M85.76,318.86c1.52,5.95-2.55,12.45-.43,18.22,.79,2.15,2.37,3.92,4.03,5.49,2.58,2.45,5.46,4.6,8.54,6.38,2.49,1.45,5.35,2.9,6.3,5.61,.4,1.14,.4,2.38,.57,3.59,.52,3.67,2.71,7.08,5.86,9.06,.63,.39,1.33,.74,2.06,.64,.75-.1,1.35-.68,1.88-1.23,3.4-3.58,6.08-7.81,7.88-12.41,.96-2.46,1.67-5.09,1.49-7.72-.18-2.53-1.16-4.93-2.19-7.24-2.81-6.28-6.78-12.86-13.35-14.92-3.96-1.25-8.22-.63-12.36-.66-4.14-.02-8.72-.95-10.28-4.8Z"/>
      <path class="cls-1" d="M103.38,288.33c.48,5.17,3.52,9.75,6.98,13.62,3.47,3.85,7.48,7.24,10.58,11.41,1.47,1.97,2.76,4.12,4.65,5.69,1.74,1.46,3.9,2.32,6,3.17,4.31,1.72,9.22,3.43,13.45,1.51,3.1-1.4,5.1-4.47,6.43-7.59,2.61-6.12,3.25-13.13,1.36-19.51-1.89-6.38-6.4-12.02-12.41-14.87-6.14-2.92-13.24-2.81-20.03-2.43-3.79,.21-7.72,.53-11.05,2.35-3.34,1.81-6.06,5.55-5.95,6.66Z"/>
      <path class="cls-1" d="M142.61,65.65c4.65,7.62,6.98,16.69,6.55,25.53l-2.06-.1c.41-8.43-1.81-17.08-6.24-24.36l1.76-1.07Z"/>
      <path class="cls-1" d="M153.31,84.2c-.81,3.56-4.41,6.25-8.05,5.99-2.53-.18-4.91-1.58-7.45-1.4-3.97,.27-6.58,4.16-8.44,7.69-5.33,10.12-9.78,20.88-11.21,32.23-1.43,11.35,.41,23.39,6.82,32.87,2.88,4.26,6.7,7.97,11.33,10.2,6.83,3.27,15.19,3.01,21.94-.44,1.61-.82,3.16-1.85,4.35-3.21,1.15-1.33,1.91-2.95,2.85-4.44,2.12-3.41,6-6.46,9.86-5.33,1.08,.32,2.05,.95,3.11,1.33,3.66,1.31,7.66-.47,10.96-2.51,2.31-1.43,4.54-3.02,6.4-4.98,5.05-5.3,7.11-12.92,6.85-20.24-.26-7.31-2.64-14.38-5.51-21.11-2.95-6.95-6.6-13.88-12.42-18.69-8.58-7.1-20.61-8.56-31.38-7.94Z"/>
      <path class="cls-1" d="M90.49,136.45l1.93,.73c-.69,1.82-.45,3.94-.22,5.99l1.05,8.94-2.05,.24-1.05-8.95c-.25-2.19-.54-4.67,.33-6.96Z"/>
    </g>
  </g>
</svg>