<?xml version="1.0" encoding="UTF-8"?>
<svg id="Layer_2" data-name="Layer 2" xmlns="http://www.w3.org/2000/svg" viewBox="0 0 322.14 171.37">
  <defs>
    <style>
      .cls-1 {
        fill: #cecece;
      }
    </style>
  </defs>
  <g id="Layer_1-2" data-name="Layer 1">
    <g>
      <path class="cls-1" d="M107.35,140.29h0c-11.54-6.12-21.99-14.54-30.21-24.33-10.76-12.82-18.16-28.14-25.32-42.95-3.94-8.16-8.02-16.59-12.6-24.51C28.88,30.68,15.68,14.9,0,1.59L1.28,0c7.22,5.51,13.36,9.55,19.29,12.7,11.8,6.26,22.93,8.86,34.05,7.97,1.57-.13,3.14-.31,4.71-.49,3.86-.45,7.84-.91,11.81-.52,5.36,.52,10.4,2.57,15.26,4.54,4.21,1.71,8.56,3.47,13.02,4.19,8.62,1.4,17.41-1.05,25.92-3.42,2.81-.78,5.71-1.59,8.57-2.25,21.97-5.08,46.16-1.85,66.38,8.88,3.67,1.95,7.22,4.15,10.55,6.54,15.71,11.27,27.54,27.04,38.98,42.3,3.29,4.39,6.7,8.93,10.14,13.28,13.16,16.66,25.76,28.05,38.52,34.81,6.5,3.45,13.18,5.76,19.86,6.86l3.8,.63-3.61,1.33c-20.87,7.69-44.38,18.06-65.11,27.2-6.68,2.92-13.53,5.92-20.87,6.63-12.05,1.19-23.35-3.84-34.27-8.7-6.38-2.84-12.98-5.78-19.68-7.46-7.24-1.82-14.89-2.21-22.29-2.59-4.42-.23-8.99-.46-13.46-1-12.33-1.46-24.27-5.21-35.49-11.16ZM12.55,10.4c11.02,11.06,20.55,23.48,28.43,37.08,4.63,7.98,8.72,16.45,12.68,24.64,7.1,14.71,14.45,29.91,25.05,42.53,8.05,9.59,18.29,17.83,29.6,23.83h0c11,5.83,22.7,9.51,34.78,10.94,4.41,.52,8.94,.76,13.32,.98,7.5,.39,15.25,.79,22.68,2.65,6.87,1.72,13.55,4.7,20.02,7.57,11.17,4.97,21.73,9.67,33.24,8.53,7.01-.69,13.71-3.61,20.19-6.45,19.7-8.69,41.85-18.45,61.9-26.01-19.09-4.35-37.06-17.65-56.08-41.72-3.45-4.37-6.87-8.92-10.17-13.32-11.35-15.13-23.08-30.79-38.54-41.87-3.26-2.34-6.73-4.49-10.32-6.39-19.79-10.49-43.47-13.66-64.96-8.69-2.82,.65-5.7,1.45-8.49,2.23-8.72,2.43-17.73,4.94-26.79,3.47-4.69-.76-9.15-2.57-13.46-4.32-4.73-1.92-9.63-3.91-14.7-4.4-3.75-.37-7.62,.08-11.37,.52-1.6,.19-3.2,.37-4.79,.5-11.51,.93-23.02-1.76-35.17-8.2-2.31-1.22-4.65-2.58-7.07-4.11Z"/>
      <path class="cls-1" d="M108.13,83.62c-31.17-16.53-60.16-37.04-87.9-61.9l1.36-1.52c80.28,71.94,171.24,107.36,294.91,114.85l-.13,2.04c-81.46-4.93-148.79-21.95-208.24-53.48Z"/>
      <path class="cls-1" d="M241.17,166.91c-10.66-13.57-19.84-28.42-27.29-44.13l1.84-.87c7.39,15.58,16.49,30.29,27.05,43.75l-1.6,1.26Z"/>
      <path class="cls-1" d="M213.65,166.49c-12.33-15.84-22.31-33.34-29.67-52.01l1.9-.75c7.29,18.49,17.17,35.82,29.39,51.51l-1.61,1.25Z"/>
      <path class="cls-1" d="M224.01,170.69c-12.99-13.81-23.62-29.57-31.6-46.84l1.85-.86c7.88,17.08,18.39,32.65,31.23,46.3l-1.48,1.4Z"/>
      <path class="cls-1" d="M185.46,156.09c-10.73-12.75-18.65-28.01-22.92-44.12l1.97-.52c4.19,15.82,11.97,30.8,22.51,43.33l-1.56,1.31Z"/>
      <path class="cls-1" d="M170.35,149.66c-6.17-13.77-12.56-28.57-16.82-44.69l1.97-.52c4.22,15.97,10.57,30.68,16.7,44.37l-1.86,.84Z"/>
      <path class="cls-1" d="M153.45,149.14c-8.61-12.58-14.29-27.21-16.44-42.3l2.02-.29c2.11,14.78,7.68,29.11,16.11,41.44l-1.68,1.15Z"/>
      <path class="cls-1" d="M131.67,146.02c-9.15-24.91-20.57-49.25-28.54-65.29l1.83-.91c7.99,16.08,19.45,40.5,28.63,65.49l-1.92,.7Z"/>
      <path class="cls-1" d="M109.09,140.08c-3.64-19.91-9.49-39.42-17.37-58-2.66-6.29-7.51-12.21-12.63-15.43l1.08-1.73c5.47,3.44,10.61,9.71,13.43,16.36,7.94,18.71,13.83,38.37,17.5,58.42l-2.01,.37Z"/>
      <path class="cls-1" d="M99.09,135.41l-3-3.05c-8.63-13.05-15.64-26.86-20.97-41.2-.56-1.51-1.11-3.03-1.65-4.56-1.49-4.18-3.04-8.51-4.98-12.55-5.09-10.67-13.65-20.88-21.97-30.42l1.54-1.34c8.42,9.65,17.07,19.98,22.27,30.88,1.98,4.14,3.54,8.52,5.06,12.75,.54,1.51,1.08,3.03,1.64,4.53,5.27,14.19,12.22,27.86,20.64,40.64l2.87,2.89-1.45,1.43Z"/>
      <path class="cls-1" d="M266.69,154.18c-10.66-7.03-20.01-15.73-27.78-25.86l1.62-1.24c7.64,9.95,16.82,18.49,27.29,25.39l-1.12,1.7Z"/>
      <path class="cls-1" d="M251.46,157.2c-8.35-4.43-15.04-11.57-18.88-20.17l1.86-.83c3.74,8.38,10.3,15.37,18.54,19.5l-.93,1.82c-.2-.1-.4-.21-.59-.31Z"/>
      <path class="cls-1" d="M152.36,95.57l.69-1.92c16.5,5.94,34.84,2.77,51.03-.02,8.55-1.49,17.11-2.96,25.67-4.44l18-3.11,.35,2.01-18,3.11c-8.56,1.47-17.12,2.95-25.67,4.44-16.43,2.84-35.05,6.05-52.06-.07Z"/>
      <path class="cls-1" d="M120.73,80.88l.46-1.99c6.89,1.59,14.95,.17,24.66-4.32,2.42-1.12,4.85-2.36,7.2-3.56,5.35-2.73,10.89-5.55,16.8-7.22,8.61-2.43,17.78-2.38,26.65-2.33,11.14,.07,21.67,.13,31.33-4.26l.84,1.86c-10.06,4.57-21.31,4.51-32.18,4.44-8.73-.05-17.75-.1-26.08,2.25-5.72,1.62-11.17,4.4-16.43,7.08-2.37,1.21-4.82,2.45-7.27,3.59-10.13,4.69-18.63,6.15-25.97,4.46Z"/>
      <rect class="cls-1" x="115.9" y="71.17" width="11.68" height="2.04" transform="translate(-8.01 15.64) rotate(-7.12)"/>
      <path class="cls-1" d="M131.74,109.65c-1.71-5.5-4.24-11.08-4.76-12.12l-.05,.02c-.16-.39-.37-.88,.03-1.36l.99-.36c.19,.04,.43,.31,.71,.74l.07-.02,.09,.21h-.03c1.79,3.03,4.87,12.17,4.9,12.28l-1.95,.61Z"/>
      <path class="cls-1" d="M85.83,88.34c-1.17-8.21-6.39-16.2-8.61-19.61-.43-.66-.75-1.15-.91-1.44l1.78-.99c.15,.27,.45,.72,.84,1.32,2.3,3.53,7.69,11.78,8.92,20.43l-2.02,.29Z"/>
      <path class="cls-1" d="M53.17,63.44c-5.45-8.23-10.33-16.92-14.49-25.82l1.85-.86c4.12,8.81,8.95,17.41,14.35,25.56l-1.7,1.12Z"/>
      <path class="cls-1" d="M78.39,111.92c-5.08-6.79-9.57-14.08-13.35-21.68l1.83-.91c3.73,7.48,8.15,14.67,13.16,21.36l-1.63,1.22Z"/>
      <polygon class="cls-1" points="197.57 158.5 183.73 142.9 185.26 141.55 199.1 157.15 197.57 158.5"/>
      <path class="cls-1" d="M279.12,148.73c-5.65-3.08-12.68-6.9-16.46-13.31l1.76-1.04c3.5,5.92,9.97,9.44,15.68,12.55l-.97,1.79Z"/>
      <path class="cls-1" d="M256.25,126.07l-.36-2.01c7.35-1.31,14.78-2.23,22.11-2.74l.14,2.03c-7.25,.51-14.61,1.43-21.89,2.72Z"/>
      <path class="cls-1" d="M238.43,122.09l-.9-1.83c9.22-4.54,19.54-7.27,29.84-7.91l.13,2.04c-10.03,.62-20.09,3.28-29.07,7.7Z"/>
      <path class="cls-1" d="M205.9,117.71l-.5-1.98,3.24-.82c9.09-2.3,19.4-4.91,28.54-6.72,8.27-1.64,16.36-3,24.43-1.76l-.31,2.02c-7.73-1.19-15.63,.14-23.72,1.74-9.09,1.81-19.37,4.41-28.44,6.7l-3.24,.82Z"/>
      <path class="cls-1" d="M196.83,113.62l-.1-2.04c9.67-.48,18.83-3.09,27.7-5.6,9.41-2.67,19.14-5.44,29.55-5.71l.05,2.04c-10.15,.26-19.76,2.99-29.05,5.63-8.97,2.55-18.25,5.19-28.15,5.68Z"/>
      <path class="cls-1" d="M179.38,107.26l.29-2.02c12.6,1.83,24.75-1.49,37.61-5.02,9.45-2.59,19.23-5.26,29.1-5.64l.08,2.04c-9.64,.36-19.3,3.01-28.64,5.57-12.5,3.42-25.42,6.96-38.44,5.07Z"/>
      <path class="cls-1" d="M158.56,59.26l-1.16-1.68c2.71-1.87,5.79-3.99,9.32-4.78,2.83-.62,5.73-.35,8.52-.1l.58,.06c10.68,.94,21.42,.66,31.92-.82l.29,2.02c-10.66,1.51-21.55,1.79-32.39,.84l-.58-.05c-2.64-.25-5.37-.5-7.9,.06-3.14,.7-5.92,2.61-8.6,4.46Z"/>
      <path class="cls-1" d="M105.41,69.36l-.35-2.01c7.9-1.36,15.64-4.38,22.36-8.75,1.78-1.16,3.56-2.46,5.28-3.71,4.92-3.57,10-7.27,16.05-8.66,5.04-1.16,10.2-.58,15.19-.03,1.64,.18,3.27,.36,4.9,.49,9.43,.71,19.11-.64,27.98-3.92l.71,1.91c-9.14,3.38-19.11,4.77-28.84,4.04-1.65-.12-3.31-.31-4.97-.49-5.04-.56-9.81-1.09-14.51,0-5.64,1.3-10.56,4.87-15.31,8.32-1.74,1.27-3.55,2.58-5.37,3.77-6.96,4.51-14.95,7.64-23.13,9.05Z"/>
      <path class="cls-1" d="M105.27,42.13l-1.75-1.05c1.65-2.74,4.57-4,7.4-5.22,.84-.36,1.67-.72,2.46-1.12,1.59-.8,3.07-1.79,4.62-2.85,1.7-1.15,3.46-2.33,5.38-3.24,4.71-2.22,10.06-2.54,14.78-2.83l.12,2.04c-4.53,.28-9.67,.59-14.03,2.64-1.78,.84-3.4,1.93-5.11,3.08-1.54,1.04-3.14,2.12-4.85,2.98-.83,.42-1.7,.79-2.57,1.17-2.65,1.14-5.15,2.22-6.46,4.4Z"/>
      <path class="cls-1" d="M78.61,50.74l-.71-1.91c5.66-2.08,11.83-3.05,17.85-2.8l-.09,2.04c-5.75-.25-11.65,.68-17.05,2.67Z"/>
      <path class="cls-1" d="M71.26,45.08l-.77-1.89c9.94-4.03,20.23-7.6,30.61-10.63l.57,1.96c-10.31,3-20.55,6.55-30.42,10.56Z"/>
      <path class="cls-1" d="M137.68,136.36c-7.64-16-16.21-31.65-25.49-46.52l1.73-1.08c9.32,14.94,17.94,30.66,25.61,46.72l-1.84,.88Z"/>
      <path class="cls-1" d="M154.23,130.97c-3.38-2.85-8.01-6.75-9.47-12.06-.43-1.58-.57-3.21-.7-4.78-.06-.68-.11-1.35-.19-2.02-.68-5.46-3.2-10.63-7.09-14.56l1.45-1.44c4.2,4.24,6.92,9.83,7.66,15.74,.08,.7,.14,1.4,.2,2.1,.13,1.55,.25,3.01,.63,4.41,1.19,4.35,4.7,7.57,8.82,11.04l-1.31,1.56Z"/>
      <path class="cls-1" d="M25,21.35c-3.05-1.62-5.38-3.07-6.33-3.68l1.1-1.72c7.26,4.66,18.24,9.98,25.3,9.67,1.09-.05,2.15-.18,3.28-.33,1.13-.15,2.29-.3,3.46-.35,2.72-.11,5.49,.33,8.16,.76,4.54,.72,8.83,1.41,12.56-.53l.94,1.81c-4.33,2.25-9.16,1.48-13.82,.73-2.58-.41-5.24-.83-7.76-.73-1.09,.05-2.15,.19-3.28,.33-1.13,.15-2.29,.3-3.46,.35-6.32,.27-14.47-3.3-20.15-6.31Z"/>
      <path class="cls-1" d="M99.5,70.17C61.74,50.15,35.12,31.26,9.33,10.09l1.29-1.58C57.65,47.12,107.5,78.13,223.1,122.39l-.73,1.9c-52.54-20.12-91.54-37.51-122.87-54.12Z"/>
    </g>
  </g>
</svg>