<?xml version="1.0" encoding="UTF-8"?>
<svg id="Layer_2" data-name="Layer 2" xmlns="http://www.w3.org/2000/svg" viewBox="0 0 292.95 394.58">
  <defs>
    <style>
      .cls-1 {
        fill: #6c7254;
      }
    </style>
  </defs>
  <g id="Layer_1-2" data-name="Layer 1">
    <g>
      <path class="cls-1" d="M108.57,358.02c15.24-23.15,1.74-56.4,21.85-76.44,.22-.22,.2-.48,.1-.7,4.71-5.57,9.23-11.31,13.61-17.11,8.42-11.14,16.53-22.47,24.26-34.04-1.73,4.48-3.08,9.05-4.14,13.72-10.83,19.21-24.33,38.07-29.91,59.54-2.81,10.79-2.13,21.65-.52,32.54,1.72,11.67,9.39,24.88,8.76,36.45-.09,1.69,2.5,1.89,2.62,.2,0-.01,0-.03,0-.04,6.88-2.71,12.45-6.85,17-11.91,.05-.03,.11-.04,.15-.1,.07-.1,.12-.19,.19-.29,8.7-9.89,13.54-23.19,16.25-36.43,2.44-11.94,2.51-24.2,.49-36.17-3.1-18.42-11.75-34.46-9.32-53.24,1.46-5,3.19-9.93,5.29-14.77,7.69-12.06,14.95-24.39,21.6-37.13,1.2-2.3,2.31-4.64,3.45-6.97,7.04-8.84,10.22-19.01,13.1-30.33,2.82-7.32,5.49-14.7,8.07-22.12-.33,10.48,.47,21.02,1.35,30.83,.4,4.33,.83,8.61,1.26,12.86-3.92-2.5-8.42-3.75-13.07-2.24-.83,.27-1.18,1.11-.63,1.84,3.87,5.13,8.97,8.75,14.65,11.46-5.67,.42-11.22,.91-16.64,3-.81,.31-.77,1.49-.13,1.93,4.08,2.79,9.04,3.25,13.75,2.18-7.07,4.99-15.17,12.45-7.15,17.14,3.21,1.87,6.54-.33,9.42-3.89,.11,2.65,.81,5.23,2.36,7.52,0,5.4-.25,10.78-.8,16.16-1.23-1.31-2.57-2.35-4.11-2.87,.04-.27,0-.55-.18-.76-2.59-3.25-7.03-4.45-11.34-4.72,3.6-1.8,6.88-4.07,9.58-7.24,.4-.46-.04-1.31-.63-1.3-5.95,.07-10.08,3.75-13.15,8.35,.09-.36-.32-.77-.65-.54,.38-5.21,2.05-10.24,1.19-15.55-.08-.48-.61-.85-1.08-.73-7.71,1.95-8,10.32-4.43,16.09-5.69-2.02-12.52-.05-18.21,.96-.91,.16-.95,1.43-.12,1.74,4.36,1.65,8.89,2.25,13.46,2.2-5.11,1.95-9.87,4.53-13.78,8.71-.55,.59-.45,1.54,.36,1.84,7.54,2.82,16.35-2.49,20.8-9.33,.14,1.45,.35,2.9,.53,4.35,.19,1.55,.33,3.1,.31,4.66-.03,2.77-1.42,2.78-3.77,2.27-.85-.18-1.4,.8-.68,1.37,2.58,2.05,5.74,1.64,6.48-1.84,.77-3.66-.44-7.43-.91-11.15,2.37,4.02,3.77,8.72,5.7,12.89,.31,.67,1.13,.7,1.64,.32,.04,.13,.08,.26,.18,.37,3.15,3.19,7.8,3.54,12.37,2.95-2.43,1.8-4.68,3.83-6.35,6.33-.39,.59-.7,1.32-.9,2.11-5.57,.19-9.43,2.98-12.45,6.93,1.54-6.98,2.33-15.49-4.39-14.68-8.65,1.05-4.47,13.18-2.31,19.97-6.16-3.64-12.73-7.1-19.15-2.11-.38,.29-.47,.89-.25,1.3,2.61,5.02,7.49,6.5,12.73,6.84-.26,.15-.49,.31-.75,.45-.97,.55-6.74,3.07-6.75,3.34,.02-.55-.62-.71-.95-.33-2.04,2.38,2.46,1.74,3.46,1.34,.49-.2,.97-.45,1.45-.67-.11,.11-.24,.22-.34,.34-2.24,2.35-5.61,6.29-3.7,9.73,2.09,3.77,8.27,3.27,11.13,1.02,1.34-1.05,2.36-2.45,3.2-3.99,.31,.72,1.45,.91,1.7,0,.45-1.61,.64-3.27,.72-4.94,1.51,4.52,2.74,9.13,3.7,13.83,.16,.81,1.33,1.37,1.96,.67,4.14-4.59,3.98-11.08,1.47-16.47,4.35,2.51,10.33,4.78,11.96,.2,1.86-5.25-6.65-6.81-12.22-7.3,3.83-3.25,7.39-6.89,9.97-11.15,.42,1.05,1.16,1.92,2.36,2.35,1.5,.53,2.9,.1,4.18-.89,.35,5.91,3.39,10.46,7.3,14.58-5.62,1.63-11.26,3.26-15.86,7.02-.7,.57-.3,1.86,.63,1.87,2.03,.02,4.07-.2,6.06-.6-4.14,3.48-7.59,7.6-9.12,12.92-.19,.68,.22,1.56,1.02,1.56,4.61,0,8.95-1.66,12.73-4.29-.63,2.26-1.05,4.58-1.23,6.87-.05,.72,.64,1.42,1.38,1.23,8.06-2.14,10.3-9.64,11.01-17.17,2.53,4.12,6.61,7.3,11.14,3.49,1.75-1.47,2.03-3.95,.8-5.82-.52-.8-1.23-1.42-2.03-1.95,2.98-.92,5.83-2.51,8.35-4.34,.33-.24,.38-.75,.21-1.09-2.28-4.8-7.07-5.54-11.76-3.8-.14,.05-.43,.17-.8,.32,2.54-2.82,4.18-6.16,3.56-10.25-.07-.48-.56-.75-1.01-.68-5.85,.94-9.9,5.3-11.36,10.59-1.61-5.17-4.28-10.13-9.44-11.98,.74-.89,1.43-1.96,2.06-3.11,.63,3.18,2.32,6.08,5.27,7.99,.44,.28,1.21,.23,1.48-.29,2.18-4.25,2.86-9.49,1.81-14.26,4.38,3.16,10.38,4.05,14.89,.74,.28-.2,.39-.72,.2-1.01-2.67-4.25-6.76-6.16-11.25-6.86,3.26-1.04,6.36-2.63,8.74-4.86,7.87,11.04,25.35,8.68,34.34,18.9,.94,1.07,2.49-.25,1.8-1.37,.43-.26,.78-.73,.74-1.28-1.11-13.85-5.59-26.41-15.02-36.75-7.93-8.68-21.8-9.07-29.97-16.48,1.78,.34,3.45-.08,4.74-1.84,1.34-1.83-.01-4.18-1.41-5.47-1.61-1.49-3.69-2.38-5.91-2.92,4.26-1.07,8.37-2.79,11.9-5.36,.49-.35,.11-1.02-.37-1.1-5.17-.87-12.87,.17-17.15,4.2,.01-.17,0-.34-.08-.51-.04-.09-.07-.18-.11-.28,2.66-4.93,4.73-9.87,.94-15.13-.48-.66-1.38-.39-1.82,.12-2.74,3.18-3.39,6.87-2.8,10.59-.61-.65-1.25-1.27-1.92-1.87-2.02-20.75-4.1-40.45-1.34-60.14,2.27-6.71,4.53-13.43,6.82-20.13-.06,1.06-.09,2.11-.09,3.17-.25,.1-.46,.32-.37,.67,.11,.51,.28,.94,.41,1.42,.12,3.42,.52,6.81,1.21,10.13-2.78,13.11-.83,26.13,5.9,37.68,.7,2.83,2.14,5.28,4.67,6.78,5.34,6.66,12.16,11.61,19.88,15.17,7.99,3.68,18.74-1.56,26.34,3.34,1.25,.8,2.63-.8,1.69-1.93-10.29-12.45-11.93-29.29-21.74-41.82-8.05-10.29-25.01-13.91-33.13-23.48,.06-.21,.1-.43,.16-.64,.33-1.15-.92-1.88-1.73-1.46-.57-.88-1.06-1.82-1.48-2.8-.31-3.96-.23-7.96,.27-11.94,9.97-28.74,21.02-56.94,38.05-82.26,.35-.52-.44-1.05-.8-.54-14.45,20.47-24.66,42.99-33.49,66.17-1.58,3.32-2.85,6.7-3.77,10.11-.27,.75-.56,1.5-.82,2.25-5.47,7.52-8.74,16.1-10.61,25.12-7.92-10.98-18.2-20.92-30.92-25.58-16.85-6.19-35.62,2.54-50.31,10.21-1.31,.69-.6,2.62,.82,2.42,10.3-1.48,17.74,5.75,26.98,6.6-7.05,2.55-13.4,7.04-19.03,12.36-1.9,.65-3.73,1.45-5.44,2.45-.39,.23-.21,.87,.26,.77,.83-.18,1.65-.36,2.46-.54-3.24,3.32-6.22,6.85-8.94,10.35-.3,.25-.58,.51-.88,.76-.75,.14-1.51,.3-2.28,.5-.76,.2-.55,1.34,.24,1.21,.12-.02,.23-.02,.35-.04-.02,.27,.19,.52,.45,.5-.12,.74,.88,1.47,1.5,.83,.55-.57,1.09-1.13,1.63-1.7,16.77-.84,31.4,10.46,48.51,8.45,14.17-1.66,25.12-9.09,33.18-20.44,0,0,0,.01,0,.02-.71,2.02-1.44,4.04-2.16,6.06-.27-.24-.7-.3-.89,.09-5.58,10.71-12.4,18.07-20.35,23.29-17.08,1.26-34.64-7.8-51.2-3.63-5.09,.28-9.71,2.02-13.52,6.34-11.72,8.08-19,20.94-24.1,34.59-.36,.95,.73,1.97,1.65,1.45,18.45-10.41,37.31,2.11,55.32-5.6,13.82-5.92,26.45-16.95,34.12-29.96,7-5.17,12.66-12.09,16.62-20.01-4.96,13.57-10.24,26.98-16.44,39.96-1.75,3.67-3.55,7.33-5.39,11-4.23,4.55-9.51,8.66-16.41,12.27-7.7,4.02-16.02,6.88-24.21,9.98-2.38-.76-4.9-1.03-6.72-.82,.04-.33,.1-.66,.17-.98,6.41-2.95,11.08-9.44,13.22-16.02,.31-.96-.69-1.89-1.61-1.42-6.14,3.09-11.62,8.73-12.73,15.55-.19,.08-.38,.14-.58,.22-.11-5.55-2.14-10.43-7.93-12.27-.64-.2-1.55,.23-1.52,1,.12,3.71,.78,6.9,2.39,9.95-3.82-1.3-7.35-3.28-11.49-3.57-.98-.07-1.6,.94-1.21,1.8,2.24,4.99,8.1,7.71,13.75,8.44-.36,1.45-.53,2.99-.56,4.55-4.79,2.47-9.34,5.34-13.45,9.04-.26,.24-.2,.59-.02,.82-.64-.05-1.29,.32-1.39,1.18-.03,.24-.05,.5-.07,.75-.27-.08-.54-.16-.81-.24,.03-.07,.05-.14,.08-.21,.07-.2,.07-.39,.04-.56,.03-.03,.07-.04,.1-.07,3.43-3.68,10.79-13.96,2.61-17.17-4.86-1.91-6.38,2.18-6.57,6.53-1.48-1.93-3.25-3.65-4.99-4.94-.73-.54-1.71,.05-1.8,.87-.46,4.13,.67,7.92,2.82,11.29-6.57-.83-13.02-2.55-19.5-.19-.79,.29-.85,1.6-.13,2,6.29,3.41,14.75,5.87,22.21,5.63-.61,.82-1.24,1.62-1.87,2.42,.07-.41-.31-.91-.77-.78-6.52,1.79-13.16,5.94-13.64,13.22-.06,1.02,.97,1.63,1.87,1.25,6.66-2.83,10.91-7.54,14.89-12.89-1.29,3.91-2.19,7.85-1.82,12.21,.07,.87,1.24,1.38,1.96,.96,4.26-2.47,5.97-6.36,6.86-10.67,1.12,3.5,2.92,6.73,5.62,9.93,.3,.36,.81,.52,1.26,.43,.51-.1,1.01-.2,1.52-.3,.59-.12,1.01-.61,1.07-1.2,.64-6.03-2.09-10.73-6.31-14.2,5.17,1.1,10.32,1.64,15.69,.38,.03,0,.04-.03,.08-.04,1.32,.66,2.88,.99,4.74,.77,6.56-.77,4.64-9.17,1.5-15.88,4.42,3.52,9.43,6.27,10.06,1.33,.35-2.75-1.07-4.83-3.2-6.3,10.44-4.21,20.76-8.54,29.89-14.87,1.29-.9,2.5-1.81,3.65-2.74-6.66,12.89-13.88,25.68-21.68,38.18-16.95,16-34.98,28.18-55.57,33.89-11.98,.9-23.88-8.28-33.97-14.15-9.31-5.42-18.03-7.3-28.78-7.37-19.71-.13-40.76,10.53-49.58,28.46-.36-.24-.74-.46-1.09-.71-1.03-.72-2.39,.77-1.47,1.68,.48,.47,.99,.9,1.49,1.35-.42,1.01-.84,2.03-1.18,3.08-.3,.92,.97,1.58,1.52,.76,.5-.76,1.06-1.47,1.58-2.2,14.16,11.36,35.22,15.16,52.58,16.62,22.62,1.9,43.22-8.75,59.61-23.51,19.47-5.66,37.43-17.25,51.16-32.03-16.21,25.18-34.83,48.93-56.04,69.49-19.33,7.72-41.36,4.72-58.86,17.98-18.69,14.16-30.2,34.34-45.57,51.66-.98,1.11,.06,3.24,1.58,2.35,10.91-6.38,22.06-1.54,33.58-3.41,9.55-1.55,19.8-3.65,28.6-8.23-5.54,12.83-8.24,26.2-19.98,35.49-1.23,.98,.16,2.53,1.41,2.09,22.06-7.65,43.47-16.26,56.78-36.48Zm54.18-106.78c-.71,4.45-1.2,8.95-1.55,13.5-5.08,15.25-15.82,26.62-23.93,40.17,3.68-19.79,17.19-35.69,25.48-53.67Zm-12.05,114.96c9.99-13.72,10.85-35.11,11.21-51.96,.28,1.52,.59,3.05,.93,4.62,2.79,12.58,3.86,22.7,.77,34.32-3.5,5.06-7.77,9.5-12.92,13.03Zm12.06-73.26c.03-.23-.12-.38-.29-.47,.1-3.04,.21-6.08,.35-9.12,1.29,4.42,2.98,8.86,4.42,13.45,4.72,15.01,4.81,31.59,.98,46.75,1.25-16.37-7.49-34.2-5.46-50.61Zm-26,15.16c.21-.01,.43-.09,.61-.31,9.22-11.36,18.57-23.92,23.37-37.94-.02,.66-.01,1.31,0,1.96-.28,5.87-.39,11.78-.46,17.7-5.63,12.97-23.14,21.61-24.13,36.31-.29-5.73-.13-11.43,.47-16.87,.03-.29,.09-.56,.13-.84Zm3.9,42.56c-.62-1.85-1.16-3.75-1.66-5.67,.22-11.45,9.38-20.11,16.34-28.4,.3-.36-.31-.89-.61-.54-5.55,6.31-14.38,13.67-17.13,22.39-.47-2.6-.85-5.24-1.1-7.89,.44,.64,1.64,.51,1.65-.41,.13-10.52,4.94-16.8,11.95-24.2,4.01-4.23,7.7-8.44,10.15-13.59-.3,27.04-.5,54.01-14.53,76.82-.16,.08-.31,.17-.47,.25-.17-6.48-2.5-12.61-4.58-18.78Zm36.51-46.31c-.07,10.17-1.57,21.01-4.9,31.09,.91-5.92,.76-12.04,.39-18.13-.75-12.42-7.13-25.76-9.59-38.63,.7-12,1.95-23.92,4.52-35.55-.31,20.51,9.73,40.2,9.58,61.23Zm61.09-39.43c.05,.03,.08,.1,.15,.1-.05,.04-.11,.08-.14,.16-.09,.28-.17,.57-.25,.86-.14,.03-.28,.04-.38,.11-.1-.02-.2-.01-.3,0,.07-.17,.12-.35,.08-.58,0-.03,0-.05,0-.08,.27-.19,.55-.37,.83-.57Zm-17.6,4.93c3.72-2.26,7.88-3.44,11.96-4.97-1.55,.95-3.1,1.94-4.64,2.98-2.33,1.01-4.8,1.67-7.32,1.98Zm-3.95,13.82c2.25-5.84,6.98-10.27,12.18-13.91,2.18-.96,4.22-2.2,6.07-3.71,.05,.03,.11,.07,.16,.09,.09,.28,.31,.45,.6,.39,.21,.18,.48,.26,.75,.23-.06,.16-.08,.34-.04,.55-3.23,2.76-5.66,6.31-7.33,10.25-3.49,3.26-7.64,5.65-12.39,6.11Zm12.29,3.42c.51-2.78,1.2-5.55,2.17-8.2,2.24-2.14,4.17-4.62,5.73-7.24-.97,6.31-1.81,13.01-7.9,15.44Zm19.56-12.39c-4.17,4.11-8.03-2.19-9.54-6.14,0-.06,0-.12,0-.19,1.85,.69,3.72,.94,5.58,.83,3.57,1.03,6.71,2.78,3.95,5.5Zm4.75-13.72c.49,.3,.91,.67,1.27,1.12,1.41,1.54-.42,1.82-1.63,2.53-2.19,1.28-4.65,2.19-7.15,2.49-2.21-.7-4.64-.95-6.69-1.09,0-.22,.01-.45,.02-.66,0-.24-.16-.4-.35-.45,.03-.02,.07-.04,.09-.07,.17-.03,.33-.05,.5-.08,.23-.04,.3-.25,.25-.43,.12-.03,.27-.1,.48-.23,.71-.46,1.45-.89,2.18-1.32,2.16-1.27,4.51-2.19,6.99-2.54,1.4-.2,2.81,.05,4.04,.74Zm-6.72-10.43c.18,5.87-5.1,9.31-9.29,12.94-.05-5.86,3.4-11.61,9.29-12.94Zm-11.97,12.05s-.09,.03-.14,.04c-3.56-3.6-6.65-7.58-7.34-12.66,4.29,2.41,6.28,7.73,7.48,12.62Zm-21.4-96.7c7.05-1.14,13.4,4.4,17.44,9.9-.22,.51-.41,1.02-.59,1.54-.08-.06-.12-.16-.22-.2-6.4-2.62-12.16-5.98-16.63-11.24Zm50.7,36.66c2.95,2.01,5.52,4.33,7.77,6.93-8.07-4.28-20.77-5.07-26.43-9.74-.1-.09-.2-.07-.3-.09-.51-.64-.98-1.29-1.45-1.96,1.79,1.1,3.91,1.8,6.36,2.26,3.28,.61,6.61,.89,9.91,1.43,1.58,.26,2.91,.66,4.14,1.18Zm-15.53,1c3.85,2,8.21,3.03,12.38,4.19,2.97,.82,5.9,1.75,8.73,2.99,3.69,1.61,5.59,4.18,7.89,7.15-2.06-1.38-4.38-2.46-6.35-3.3-5.26-2.24-10.9-3.38-16.27-5.27-2.24-1.83-4.4-3.73-6.37-5.75Zm-3.28-.2c-.28,5.47,.16,13.45,4.11,17.08-.52,.06-1.05,.14-1.58,.21,.05-.31-.02-.65-.25-.97-6.76-9.02-8.53-19.59-10.45-30.34,1.56,5.44,4.48,9.98,8.18,14.02Zm-9-17.62s.01,.1,.02,.15c-.15-.09-.33-.06-.5,.01-.04-.23-.08-.46-.13-.69,.2,.18,.4,.36,.61,.53Zm-24.51-4.09c5.4-1.68,10.99-1.97,16.64-2.31-5.04,3.11-11.18,4.73-16.64,2.31Zm5.94,18.17c-2.59,.82-4.23-2.6-3.47-4.61,.92-2.47,3.41-4.55,5.28-6.3,2.46-2.31,5.16-4.35,7.93-6.28,1.02-.52,2-1.1,2.93-1.75,.02,0,.03,.02,.04,.02-.09,.07-.18,.14-.25,.25-2.49,3.45-4.62,7.84-5.43,12.29-2.01,3.04-4.43,5.55-7.03,6.37Zm9.33-5.77c2.72-4.46,4.7-9.51,5.22-11.83,3.9,4.63,.47,17.53-3.33,21.86-2.06-2.97-2.47-6.51-1.89-10.04Zm3.08,12.27c3.82-3.24,5.36-8.98,5.77-14.15,1,10.4,2.96,20.13,9.53,28.87-3.12,.58-6.18,1.52-8.82,3.1,.3-1.54-.04-3.03-1.57-4.16-3.5-2.59-4.5,3.25-4.75,7.36-.45-.68-.9-1.38-1.37-2.07,.89-6.23,1.22-12.58,1.22-18.94Zm-16.35,23.45c-.14,.02-.24,.1-.35,.18,.15-3.58-.25-7.11-1.73-10.15,1.37,.64,2.78,1.08,4.21,1.17,2.63,3.53,6.04,6.03,9.82,8.03-4,.05-7.99,.08-11.95,.76Zm-7.47-14.88c.13-.05,.27-.1,.41-.15-.14,.07-.27,.17-.37,.31,0-.06-.02-.1-.04-.15Zm4.72,9.61c-.97-2.35-1.99-4.68-3.25-6.87,1.85,1.93,2.83,4.31,3.25,6.87Zm21.26,3.41c.08-3.08,.46-7.75,2.02-6.25,1.13,1.09,.85,2.6,.08,4.07-.76,.65-1.47,1.37-2.1,2.18Zm-4.16-.18c-3.63-1.77-6.89-3.98-9.53-7.08,.13-.04,.27-.07,.41-.12,4-.53,6.79,3.5,9.13,7.2Zm-8.61-9.48c-1.05,.03-2.17,.28-3.4,.85,0,0-.01,0-.02,.01-3.08-.17-6.13-2.38-8.46-4.27-.12-.09-.23-.13-.34-.17,4.3,.69,8.97,.39,12.22,3.58Zm-12.36-3.6c-.07,0-.15-.01-.22,0,.02,0,.04-.02,.06-.02,.05,0,.1,.01,.15,.02Zm9.94-8.2c-2.55,2.44-5.56,4.21-8.77,5.63,2.36-2.74,5.28-4.98,8.77-5.63Zm-12.12-8.21c.39,4.61-.91,9.07-1.29,13.64-3.05-4.53-4.72-11.49,1.29-13.64Zm-2.35,15.92c.13,.14,.26,.27,.39,.4-5.48,.8-10.81,.77-16.17-.45,5.26-1.21,10.75-2.16,15.77,.05Zm-17.26,11.93c4.51-4.26,9.97-6.63,15.77-8.52-4.23,5.01-9.2,9.89-15.77,8.52Zm31.48,5.49c4.46-.46,8.94-.32,13.43-.5,.01,0,.02-.02,.04-.02,.04,.06,.09,.13,.13,.18-.02,.01-.04,.03-.06,.04-4.47,.94-9.67,2.25-13.53,.29Zm-18.05,9.81c.02-4.18,5.54-2.92,5.67,.86,.05,1.55-.26,3.13-.5,4.65-.47,2.98-1.38,5.86-2.11,8.79-1.31-4.72-3.09-9.28-3.06-14.29Zm-6.92,17.82c-1.7-.17-3.35-.54-4.95-1.1-4.75-1.51-3.57-3.09,3.54-4.74,2.79,.8,5.49,2.55,8.06,4.16-1.01,.65-2.05,1.24-3.07,1.86-1.19-.05-2.38-.07-3.58-.18Zm.14,16.82c-1.68,.33-5.07-.53-5.5-2.48-.66-3.07,4.17-7.06,6.05-8.8,1.31-1.21,2.69-2.39,4.14-3.48,.76-.02,1.51-.04,2.27-.07,.24,1.89,.33,3.75,.31,5.61-.57,1.51-1.2,3.01-1.96,4.47-1.14,2.18-2.79,4.26-5.31,4.76Zm15.08,2.2c-1.19-5.27-2.7-10.43-4.63-15.46,.08-.31,.15-.62,.23-.92,.3,.37,.84,.53,1.37,.14,.03,.15,.09,.3,.2,.43,3.46,4.16,5.43,10.86,2.83,15.82Zm12.08-12.93c-2.42,4.16-11.68-2.94-13.49-4.51-.02-.01-.04-.02-.05-.03,.56-.44,1.12-.89,1.68-1.35,4.91,.63,13.91,2.37,11.86,5.88Zm-14.09-7.08c-.21,0-.42-.01-.57-.02-.5-.01-.59,.61-.26,.82-.2,.2-.41,.39-.61,.59-.2,0-.41,0-.61-.01-.26-.59-1.17-.78-1.42-.03-.14,0-.28,0-.43,0-.08-.18-.14-.36-.22-.54-.04-.09-.09-.14-.14-.21,.48,.11,.96-.04,1.25-.39,.51,.4,1.22,.45,1.6-.3,1.07-2.11,2.2-4.12,3.48-6.11,1.53-2.35,3.49-4.24,5.89-5.68,3.34-.28,3.95,.5,1.83,2.33-2.69,3.7-6.44,6.46-9.8,9.56Zm15.03-13.83c.01-2.12,2.34-4.44,3.67-5.86,1.6-1.7,3.42-3.21,5.27-4.65,.41-.09,.8-.19,1.2-.28-.95,1.8-1.56,3.78-1.79,5.8-1.37,2.86-3.03,5.56-5.1,7.53-1.8,1.71-3.27-.76-3.25-2.53Zm13.99,5.08c-2.71-2.32-3.8-5.73-3.63-9.21,1.17-2.84,2.02-5.63,2.49-7.35,.01,0,.02,0,.03-.01,.31,.53,.65,1.04,1.02,1.53,1.59,4.96,2.2,10.05,.09,15.04Zm15.51-13.1c2.05,2.17-4,2.41-4.36,2.4-1.75-.05-3.52-.9-5.02-1.71-1.96-1.06-3.41-2.61-4.79-4.23-.18-.34-.33-.69-.54-1.01,5.33-.19,10.88,.49,14.71,4.56Zm-16-6.24c-.12-.14-.22-.29-.34-.43,.62-.63,1.25-1.37,1.79-2.17,4.55-3.43,9.91-4.83,15.61-5.55-3.27,5.24-11.18,7.72-17.06,8.14Zm36.63,3.55c-7.2-2.34-13.46-4.62-19.55-9.1,.91-1.01,1.72-2.09,2.29-3.33,.29-.63-.38-1.12-.93-1.08-.13,0-.26,.03-.39,.03-1.25-2.75-3-5-3.85-8.1-.63-2.35-1.01-4.87-1.22-7.37,1.06,1.08,2.16,2.12,3.31,3.14,2.73,9.32,9.59,23.05,20.09,24.29,.54,.06,.73-.66,.33-.95-4.14-3-8.04-5.19-11.39-9.23-2.94-3.56-5.23-7.92-6.95-12.32,11.4,9.52,25.64,17.25,31.54,30.84-3.74-3.36-8.44-5.25-13.29-6.83Zm13.02,.84c-.15-.22-.28-.46-.44-.67-1.11-1.71-2.47-3.21-3.79-4.76-3.36-3.94-7.69-7.16-11.74-10.3-2.84-2.2-5.76-4.34-8.6-6.53,2.23,.77,4.49,1.46,6.75,2.19,6.22,2,10.4,4.53,14.65,8.89,1.37,3.53,2.43,7.27,3.18,11.18Zm-29.18-37.04c1.54,.55,2.98,1.18,4.39,1.85-6.04-1.09-13.9-1.07-17.6-6.44-.54-1.12-1.04-2.27-1.46-3.48,3.5,4.14,9.27,6.14,14.68,8.07Zm-9.33-11.87c-.84,1.52-3.42,.58-4.56,.1-.67-.29-1.26-.71-1.85-1.13-.1-.16-.19-.34-.29-.51-.07-.41-.17-.8-.22-1.21-.13-1.01-1.33-.92-1.73-.21-.91-.96-1.76-1.97-2.58-3,3.98,.44,13.38,2.04,11.23,5.96Zm3.9-12.87c-3.98,2.04-8.21,3.44-12.6,4.17,.78-.57,1.57-1.12,2.41-1.59,3.13-1.75,6.63-3.04,10.19-2.59Zm-15.39-9.76c1.61,3.28,.46,6.41-.98,9.56-.95-3.29-.9-6.58,.98-9.56Zm3.03-51.55c1.59,4.65,3.76,9.09,6.43,13.25-1.39,2.68-2.52,6.32-2.89,10.04-2.61-7.53-3.78-15.7-3.54-23.29Zm49.06,48.29c-.09-.04-.17-.09-.29-.07-11.55,1.56-17.5-8.12-25.27-14.56-.53-.44-1.1,.36-.74,.85,6.16,8.39,15.05,16.9,26.23,14.83,.3-.05,.41-.28,.41-.52,.64,.96,1.32,1.92,2.05,2.94-5.22-1.1-11.16-.51-16.42-.82-.27-.02-.53-.05-.8-.08-7.84-5.46-15.03-12.63-15.09-22.93,0-.36-.57-.54-.66-.14-1.69,7.74,3.49,17.85,10.76,22.26-3.69-.91-7.01-2.46-9.99-4.51,.19-.1,.3-.31,.18-.56-3.28-6.64-5.51-13.31-4.87-20.85,.05-.58-.82-.63-.89-.07-.88,6.91-.46,15.07,4.33,20.57-2.65-2.02-5-4.43-7.06-7.15,.03-.15,.01-.3-.11-.43-.42-.45-.78-.87-1.15-1.31-1.57-2.3-2.94-4.77-4.12-7.37-.1-.42-.26-.79-.33-1.26-.7-4.12,.15-8.93,1.85-12.82,7.1,10.59,17.6,19.13,30.72,23.8,.75,.27,1.16-.89,.41-1.16-12.27-4.5-22.31-12.92-29.25-23.38,4.83,1.55,9.83,2.45,14.76,3.69,6.39,1.6,10.64,4.4,15.19,8.37,2.82,6.31,5.02,12.93,8.09,19.13,.65,1.32,1.33,2.45,2.05,3.54Zm-12.76-28.01c-7.74-5.36-20.47-6.22-28.17-8.08-.01,0-.02,0-.03,0-2.05-3.26-3.81-6.7-5.24-10.28,2.35,1.37,5.03,2.15,8.01,2.7,5.99,1.1,10.99,1.42,16.3,3.7,3.45,3.23,6.43,7.06,9.12,11.96Zm-24.48-22.07c3.93,1.94,7.38,3.91,10.5,6.13-1.17-.26-2.33-.45-3.41-.64-6.04-1.01-12.15-1.11-17.09-4.57-.53-1.52-.99-3.07-1.4-4.63,.17-1.31,.39-2.58,.65-3.82,2.68,3.07,6.25,5.31,10.74,7.53Zm-12.64-10.13c-.02,.07-.04,.13-.06,.2-.02-.13-.05-.26-.06-.39,.04,.07,.08,.13,.12,.19Zm-26.01-7.42c2.82,2.79,5.3,6.36,8.12,9.43-17.15-7.42-38.38-20.05-57.79-18.13,1.85-.74,3.67-1.46,5.36-2.02,16.14-5.32,32.45-1.04,44.31,10.72Zm-58.57-3.94c-.08-.02-.17-.02-.25-.05,25.18-6.62,44.59,8.43,68.82,15.37,.02,0,.03,0,.06,0,1.02,.94,2.08,1.8,3.25,2.51-8.36-.38-18.15-7.83-25.58-10.33-7.23-2.43-15.17-1.13-22.39,.49-.17,.04-.34,.1-.52,.14-8.2-1.91-15.31-5.99-23.38-8.14Zm38,8.7c11.82-.25,22.89,11.86,34.08,10.87-.01,.08-.03,.16-.04,.24-5.98,3.87-12.53,5.28-19.34,5.57-12.51-5.4-25.74-13.16-39.53-8.1-.66,.24-.22,1.1,.36,1.07,8.16-.53,14.69-1.04,22.58,1.64,4.71,1.6,9.18,3.7,13.8,5.46-5.24,.01-10.6-.5-15.94-.97-8.03-3.61-17.89-5.47-26.9-4.3,8.48-6.65,18-11.2,30.93-11.47Zm-34.43,14.4c3.83-.77,7.66-1.34,11.89-1.26,4.37,.08,8.53,.94,12.61,2.18-3.22-.21-6.42-.33-9.56-.19-7.47,.32-14.85,2.08-21.44,5.39,2.15-2.14,4.3-4.19,6.5-6.11Zm17.52,18.49c-10.73-2.34-19.32-7.19-29.75-6.51,.17-.17,.33-.35,.5-.52,13.7-7.58,27.86-9.13,43.28-8.08,.57,.22,1.15,.45,1.72,.69-10.93,5.52-21.4,8.72-34.05,8.06-.45-.02-.59,.62-.16,.78,11.67,4.11,25.25-2.57,35.58-8.41,.07-.02,.13-.05,.19-.1,.39-.22,.76-.43,1.14-.65,1.25,.12,2.52,.25,3.79,.4,3.79,.44,7.39,.71,10.83,.62-13.47,5.77-26.15,11.55-42.12,10.23-.51-.04-.66,.7-.18,.87,15.8,5.63,34.97-4.18,50.08-12.11,3.2-.81,6.23-2.18,9.1-4.32-14,15.59-27.89,23.86-49.93,19.06Zm-47.5,28.57c16.15-11.83,33.16-6.83,50.65-6.24-6.04,1.41-12.48,2.42-19.31,3.26-14.07,1.73-28.24,5.21-38.14,14.85,2.17-4.19,5.03-9.28,6.59-11.8,.07-.02,.14-.01,.2-.06Zm-9.2,18.29c15.04-15.63,33.63-17.23,53.56-20.12-13.4,8.96-25.48,15.42-42.16,17.75-3.73,.27-7.5,.95-11.4,2.37Zm55.99-20.48c3.43-.52,6.91-1.09,10.4-1.8,.64-.13,1.27-.3,1.9-.46-4.5,4.15-9,8.3-13.84,12.04-6.78,5.23-14.24,7.57-22.33,9.09-3.21-.15-6.35-.41-9.46-.62,12.3-2.77,23.41-10.48,33.33-18.24Zm-42.74-3.1c5.27-5.54,11.58-9.01,18.6-10.76,13.02-1.04,26.31,6.96,39.32,6.41-1.75,.66-3.53,1.27-5.36,1.81-17.56-.43-38.45-7.6-52.55,2.55Zm67.46-8.81c-.65,.37-1.31,.72-1.97,1.07-9.2,2.1-20-1.59-30.34-4.24,11.44,.85,21.4,4.05,32.31,3.16Zm-40.95,30.78c12.09-3.55,21.76-12.5,30.75-21.73,4.18-1.24,8.11-2.99,11.72-5.2-10.3,14.03-24.52,25.98-42.47,26.92Zm3.45,8.36c-1.94,4.2-4.99,8.28-8.9,10.71,1.7-4.35,5.01-8.1,8.9-10.71Zm-11.07,14.54c-.09-.09-.18-.21-.26-.28,0,0,0,0-.01,0,.09-.03,.18-.07,.27-.1,0,.13,0,.26,0,.39Zm-7.4-11.95c4,2.08,5,6.35,4.83,10.89-.01,.34,.15,.69,.41,.92-.24,.28-.36,.64-.23,1.02-.36-.08-.72-.16-1.09-.23,.04-.63,.1-1.26,.1-1.9,0-.21-.14-.41-.33-.51,.03-.33,0-.67-.2-.93-2.24-2.93-3.16-5.83-3.49-9.25Zm-9.12,7.41c3.95,.91,7.57,3.02,11.59,3.83-.21,.31-.42,.63-.59,.97-4.13-.78-8.4-1.7-11.01-4.8Zm-29.53,20.32c5.89-1.04,11.98,.92,17.89,1.38,1.02,.08,1.55-1.12,.93-1.87-2.29-2.81-3.68-5.91-3.81-9.39,2.48,2.39,4.68,5.64,5.35,8.88,.49,1.54,2.84,1.18,2.52-.49-.12-.62-.3-1.24-.51-1.86-.87-3.7-1.69-10.45,3-9.29,6.07,1.5-1.37,11.81-3.11,13.81-.09,.11-.14,.23-.15,.35-.24,.05-.48,.18-.65,.42-.56,.74-1.11,1.48-1.65,2.22-6.57-1.91-13.36-1.65-19.8-4.15Zm15.98,9.15c-3.11,3.88-6.5,7.35-11.04,9.8,1.61-4.95,7.04-6.94,11.04-9.8Zm3.46,9.69c.03-4.71,1.55-9.14,3.13-13.56,.46,.27,.89,.55,1.32,.83-.41,4.63-1.01,9.55-4.45,12.73Zm10.52-3.1c-1.4-2.12-2.15-4.53-2.58-7.01,1.73,1.55,3.23,3.36,4.47,5.61,1.97,6.53,1.34,7-1.89,1.4Zm3.61-10.19c-2.22-.26-4.45-.8-6.64-1.41-.02-.44-.04-.89-.05-1.33,0-.61-.33-1.02-.74-1.23,.05-.01,.09,0,.13-.02,4.12-2.56,8.46-4.75,12.87-6.79,.09,1.36,.23,2.67,.39,3.81,.21,1.55,.63,3,1.23,4.29-4.06-1.75-8.7-2.08-13.1-1.47-1.11,.16-.77,1.85,.33,1.71,4.95-.64,9.94,.14,14.33,2.59-1.53-.86-6.46,.11-8.75-.16Zm16.03-.72c-5.22,3.36-7.32-5.69-7.63-8.79-.31-2.98,.12-5.91,.43-8.84,.97,.01,1.92-.03,2.82-.14,3.3,4.44,8.54,15.09,4.38,17.76Zm9.5-12.66c.69,2.66-2.73,.96-3.69,.43-3.02-1.67-5.55-4.22-7.91-6.79,4.58-.48,10.32,1.38,11.6,6.36Zm-81.02,37.95c9.04,4.85,18.32,11.36,27.99,13.13-1.76,.33-3.54,.62-5.34,.86-12.82-2.99-22.52-11.94-34.76-17.34-3.86-1.71-8.08-2.71-12.4-3.23,8.02,.16,16.27,2.18,24.5,6.59Zm-52.31,30.36c-.12-.04-.22-.09-.34-.13,15.94-.79,32.36-6.32,47.16-12.07,3.65,.4,7.33,.71,11.03,.86-18.37,10.23-36.41,15.96-57.85,11.34Zm59.57-15.54c-13.73-8.67-35.59-17.97-53.88-16.94,1.06-.46,2.12-.93,3.2-1.33,15.38-1.03,27.58-.47,42.24,8.08,6.93,4.04,12.58,7.8,19.25,9.86-3.52,.3-7.12,.41-10.8,.32Zm-63.1-11.93c20.34-4.96,41.03,2.35,59.89,11.8-1.71-.09-3.42-.18-5.16-.35-22.82-2.26-48.15-9.54-69.32,1.29,4.38-4.98,9.3-9.26,14.6-12.74Zm-17.43,17.38c21.73-9.95,42.82-5.1,64.65-2.47-15.91,4.98-31.42,8.28-47.99,10.92-5.81-2.32-11.39-5.15-16.67-8.46Zm50.48,15.87c-3.02-.14-6.03-.47-9.03-.87,14.37-1.4,29.47-8.72,40.55-16.16,2.81,.04,5.64-.03,8.48-.24,5.01-.37,9.98-1.19,14.88-2.37-16.84,12.09-32.6,20.68-54.89,19.64Zm44.96,83.05c-5.84,8.38-14.89,13.98-23.74,18.64-6.03,3.18-13.56,4.66-19.47,8.14,16.04-11.42,29.32-26.48,39.6-43.24,9.35-15.25,10.27-34.25,20.81-48.85-1.33,4.07-2.17,8.42-2.76,13.14-2.41,19.14-2.88,35.59-14.43,52.17Zm18.42-68.66c-.06,.03-.13,.02-.18,.07-1.8,2.04-3.33,4.18-4.77,6.37,.42-1.38,.79-2.77,1.12-4.16,1.82-1.81,3.62-3.64,5.38-5.51-.56,1.06-1.09,2.13-1.55,3.23Zm-11.99,5.21c-4.18,3.94-8.44,7.79-12.83,11.48-9.73,3.93-21.63,3.66-31.4,7.09-8.01,2.81-16.39,5.96-22.84,11.43,3.01-3.68,6.12-7.09,9.44-9.9,17.02-14.43,38.6-12.47,57.63-20.09ZM13.56,362.88c10.99-9.21,25.21-14.19,37.97-20.46,.24-.12,.48-.26,.73-.38-4.63,4.17-9.44,8.11-14.67,11.56-5.6,3.7-11.71,6.1-17.88,8.43-2.14,.08-4.22,.34-6.15,.84Zm29.8-19.53c-6.66,3.14-14.12,6.12-20.94,9.94,1.31-1.51,2.61-3.08,3.89-4.71,0,0,.02,0,.03-.01,12.49-13.44,29.8-15.63,46.02-21.56-9.43,5.91-18.97,11.61-28.99,16.34Zm34.83-20.02c-14.54,6.34-32.67,7.5-45.56,16.92,.78-1.04,1.55-2.09,2.33-3.13,.23,.23,.59,.31,.89,.04,11.39-10.37,24.39-17.14,39.51-20.39,5.85-1.26,11.68-1.92,17.1-3.61-2,1.64-3.99,3.3-6.03,4.88-.05,.04-.03,.09-.07,.14-2.72,1.71-5.44,3.44-8.16,5.16Zm-47.67,39.03c-1.44-.06-3.05-.16-4.74-.25,11.63-4.97,21.67-13.21,30.66-22.24,14.43-7.74,28.07-17.77,41.37-27.24-4.87,5.79-8.93,12.25-13.37,18.74-12.6,18.46-30.33,23.73-50.47,30.14-.46,.14-.52,.59-.33,.89-1.05,0-2.09,0-3.12-.05Zm5.42,.05c15.76-2.1,30.41-9.05,42.14-19.77,12.83-11.72,17.67-29.27,32.13-39.75,.31-.23,.28-.54,.11-.79,.95-.87,1.89-1.75,2.82-2.64-6.6,21.79-24,43.13-43.17,54.39-9.99,5.87-22.35,8.34-34.02,8.55Zm38.47-7.86c.48-.31,.98-.59,1.45-.92,10.99-7.86,21.18-18.55,28.8-30.61-1.22,3.45-2.41,6.94-3.68,10.45-7.18,19.78-22.09,36.34-38.18,49.8,5.26-8.73,7.58-19.99,11.62-28.71Zm-17.01,35.49c.23,.02,.47-.03,.7-.16-.83,.49-1.63,1.03-2.38,1.61,.59-.46,1.14-.95,1.68-1.45Z"/>
      <path class="cls-1" d="M241.51,281.71c.54,.44,1.14,.76,1.76,1.06-.85,.76-1.06,2.44-1.42,3.43-.37,1.02,.92,1.87,1.72,1.16,.75-.66,2.37-.3,3.3-.41,.47-.06,.94-.56,.93-1.04-.03-1.67-.31-3.2-1.72-4.25-1.18-.88-2.83-.86-4.22-.96-.59-.04-.77,.68-.35,1.01Zm3.87,3.05c-.43,.02-.86,.04-1.27,.09,.03-.52,.07-1.03,.11-1.55,0-.01,.02-.01,.02-.02,.66,.36,1,.84,1.14,1.49Z"/>
      <path class="cls-1" d="M206.76,284.69c-.28-.28-.78-.23-.92,.18-.25,.71-.13,1.41,.12,2.09-1.01,.66-2.75,.25-2.85,1.98-.11,1.99,1.06,2.7,2.83,3.26,1.75,.55,3.07-1.7,3.05-3.22-.02-1.4-1.28-3.34-2.24-4.28Zm-.42,5.44c-.34-.1-.67-.25-.98-.42-.19-.1-.37-.22-.54-.33,.47,.3,.49-.34,.17-.13,.32-.2,.91-.23,1.27-.37,.16-.06,.28-.18,.41-.28,.18,.55,.07,.96-.33,1.52Z"/>
      <path class="cls-1" d="M158.73,215.14c-.18,.38,.03,.94,.39,1.15,1.36,.84,2.92,1.24,4.45,1.68,.58,.16,1.07-.1,1.31-.63,.57-1.27,.73-2.53,.05-3.7,.03-.02,.07-.03,.1-.04,.85-.49,.23-1.76-.68-1.36-.25,.11-.5,.18-.76,.24-.39-.15-.79-.27-1.14-.41-.31-.13-.6,.09-.72,.35-.06,.13-.07,.25-.07,.36-.22,.03-.45,.07-.67,.13-1.15,.3-1.76,1.24-2.25,2.24Zm4.41-.5c.29,.31,.26,.72,.14,1.13-.71-.19-1.4-.43-2.08-.71,.44-.36,.99-.57,1.59-.73,.12,.1,.24,.2,.34,.31Z"/>
      <path class="cls-1" d="M169.05,181.01c-.31,.08-.61,.2-.88,.36-.6,.35-.86,.97-.87,1.64,0,.4,.21,.9,.65,1,.88,.19,1.78,.27,2.67,.39,1.27,.17,2.39-2.47,2.59-3.49,.46-2.2-2.71-2.11-4-2.4-.39-.09-.73,.17-.68,.59,.1,.84,.97,1.2,1.7,1.43-.27,.04-.55,.24-.61,.55,.08-.38-.2-.16-.58-.07Zm1.64-.34c.28,.09,.59,.18,.55,.12,.09,.14-.53,.97-.97,1.54-.12-.02-.25-.03-.37-.05,.49-.3,1.05-.67,.97-1.28-.02-.16-.09-.25-.18-.33Z"/>
    </g>
  </g>
</svg>