<?xml version="1.0" encoding="UTF-8"?>
<svg id="Layer_2" data-name="Layer 2" xmlns="http://www.w3.org/2000/svg" viewBox="0 0 344.51 319.91">
  <defs>
    <style>
      .cls-1 {
        fill: #cecece;
      }
    </style>
  </defs>
  <g id="Layer_1-2" data-name="Layer 1">
    <g>
      <path class="cls-1" d="M152.65,160.85c-1.64,6.94-2.47,12.89-6.33,19.12-2,3.22-4.69,5.93-7.44,8.51-1.79,3.06-2.55,2.87-2.27-.55-.09-1.1-.16-2.2-.19-3.3-.48-10.71,2.39-25.89,13.42-30.59,.81-.35,.23-1.73-.6-1.42-14.87,5.5-17.19,26.48-14.36,40.02,.2,.97,1.36,1.05,2.01,.53,9.2-7.39,19.11-19.62,17.02-32.32-.11-.64-1.1-.59-1.24,0Z"/>
      <path class="cls-1" d="M115.1,164.81c-1.9,.37-3.52,1.81-4.01,3.69-.14,.53,.35,.99,.86,.87,.98-.24,1.81-.74,2.65-1.3,.71-.47,1.28-.5,1.79-.28-.04,0-.09-.01-.14-.01,0,0,0-.01-.01-.01-.06,0-.11,0-.17-.01-1.08-.08-1.21,1.52-.25,1.82,.61,.19,1.14,.51,1.69,.83,.75,.44,1.6,0,1.86-.76,.07-.26,.19-.48,.38-.65,.54-.58,.49-1.34,0-1.92-1.16-1.38-2.72-2.66-4.65-2.27Z"/>
      <path class="cls-1" d="M166.98,192.92c.71,.19,1.36-.24,1.59-.9,.46-1.4,.71-2.71,.73-4.17,.01-1-1.16-1.71-2.02-1.16-.45,.28-1.08,1.02-1.55,1.86-.01,0-.02,0-.02,0-2.32,.88-.39,3.92,1.27,4.38Z"/>
      <path class="cls-1" d="M175.98,193.31c.37-.32,.71-.67,1.07-1,.2-.18,.41-.36,.61-.53,.05-.03,.03-.02,.06-.04,.84-.07,1.6-.72,1.21-1.72-.02-.03-.03-.07-.04-.11-.05-.11-.14-.17-.2-.27-.06-.1-.11-.2-.19-.28-.09-.1-.2-.19-.32-.26-1.25-.96-3.51-.93-4.45,.32-.13,.18-.13,.53,0,.71,.05,.07,.12,.08,.17,.14-.13,.69-.24,1.37-.32,2.06-.14,1.34,1.57,1.7,2.39,.99Z"/>
      <path class="cls-1" d="M150.08,194.9c-.47,.04-.89,.68-.43,1.04,4.55,3.65,13.07,2.53,17.96,.05,.52-.27,.24-1.01-.28-1.03-2.86-.14-5.75,.35-8.62,.4-2.9,.06-5.73-.72-8.62-.46Z"/>
      <path class="cls-1" d="M166.59,184.8c.37-1.95,.41-3.93,.55-5.9,.19-2.54,.8-5.12,.64-7.67-.03-.46-.61-.63-.87-.23-2.39,3.62-2.2,9.69-1.42,13.8,.11,.55,1,.55,1.1,0Z"/>
      <path class="cls-1" d="M343.37,130.74c-8.44-1.36-13.37,2.81-9.74-6.33,.45-1.13-.88-2.31-1.96-1.97-3.77,1.22-19.13,4.72-30.37,5.33,.2-.16,.37-.33,.57-.48,.9-.65,.03-2.16-.87-1.5-.87,.64-1.64,1.38-2.48,2.06-6.91,.04-11.43-1.38-8.95-5.79,.34-.6,.28-1.43-.25-1.91-4.36-3.98-29.41-1.91-28.84-3.13,.42-.9-.07-2.15-1.21-2.1-10.41,.46-8.41,5.21-3.48-5.69,.4-.88-.25-1.98-1.3-1.69-20.84,5.75-40.16,18.68-50.52,37.97-5.94-1.14-12.03-1.7-17.69-2.09-1.6-.11-3.43-.21-5.38-.26,14.39-4.45,28.45-11.77,29.73-27.48,.07-.84-.79-1.22-1.48-1.13-.52,.07-1.02,.22-1.53,.32,18.23-8.29,37.87-18.88,45.9-37.14,.37-.85-.84-1.6-1.27-.74-10.77,21.42-36.09,31.57-56.74,40.97-1.25,.57-.17,2.38,1.07,1.83,.28-.12,.57-.26,.86-.38-3.44,2.3-6.61,5.09-9.59,7.71-1.44,1.28-2.94,2.61-4.43,3.97,5.22-8.71,3.53-16.87,2.74-26.88,12.06-4.27,23.34-13.44,29.24-22.79,.64-1.01-.04-2.1-1.02-2.49-11.11-4.45-24.29-3.16-36.41,1,.44-.48,.9-.93,1.31-1.45,6.54-8.32,1.4-17.8,4.6-26.95,.3-.86-.68-1.94-1.58-1.58-9.23,3.73-16.01,10.2-21.96,17.55,2.35-10.51,.62-22.26-3.54-33.35-.3-.79-1.15-1.51-2.06-1.17-21.72,8.23-24.68,27.79-18.28,46.43-6.71-9.61-23.96-13.04-28.59-24.08-.47-1.12-2.02-1.27-2.44,0-5.59,16.98,8.78,45.42,29.21,40.23-4.9,4.09-9.09,8.89-12.25,14.29-1.43-12.65-10.86-23.24-17.69-33.84-.26-.41-.73-.76-1.25-.72-.21,.02-.43,.03-.63,.05-.7,.04-1.09,.41-1.35,1.03-6.58,15.58-13.61,32.68-8.94,46.82-1.23-.95-2.47-1.86-3.7-2.68-1.95-1.3-4.12-2.15-6.4-2.71,.07-.23,.07-.5-.13-.74-1.87-2.24-4.05-4.38-6.46-6.42,3.37,2.05,6.87,3.88,10.04,5.65,.77,.44,1.45-.72,.69-1.19-9.25-5.68-18.47-10.84-22.77-21.45-2.64-6.51-2.68-14.64-1.92-22.35,3.17,14.86,10.87,28.66,23.33,38,.72,.53,1.39-.56,.89-1.16-11.1-13.34-20.41-25.4-23.68-41.43,.34-2.47,.72-4.86,1.1-7.08,1.32-7.79,4.53-.4,8.56,2.7,12.39,9.52,15.05,19.59,16.88,34.83,.17,1.36,2.27,1.43,2.19,0-.28-4.95-.75-9.77-1.81-14.46,.51,.37,1.05,.72,1.64,1.03,.69,.37,1.53-.61,.87-1.13-1.74-1.39-2.99-3.08-3.91-4.96-.32-.92-.67-1.82-1.05-2.72-2.39-8.22,.54-19.14,3.82-27.86-2.88,10.75-3.1,22.46,1.26,31.31,.41,.82,1.5,.2,1.37-.58-2.82-17.14-2.07-34.78,7.29-50.04,.16-.26,.01-.46-.2-.54,1.42-1.53,2.91-2.21,4.31-1.03,10.03,8.43,13.98,18.92,14.58,31.11-.88,1.61-1.71,3.26-2.44,5.01-.37,.86,.86,1.64,1.29,.75,.36-.75,.8-1.46,1.21-2.18,0,.39,.03,.77,.02,1.16-.01,.77,1.12,.91,1.32,.18,.46-1.65,.74-3.26,.91-4.86,1.88-2.62,4.02-5.06,6.37-7.2,3.86-3.5,9.57-4.99,13.02-8.68,.43-.47,.13-1.25-.52-1.25-4.89-.06-9.86,4.2-13.42,7.23-2.07,1.77-3.76,3.74-5.26,5.84-.38-12.3-8.6-23.08-18.18-31.03-.51-.42-1.13-.45-1.64,0-7.95,7.06-19.46,29.54-19.06,45.82-5.04-6.12-13.28-9.85-18-16.25-.61-.82-1.99-.84-2.28,.29-.51,1.94-.96,3.9-1.37,5.88-.07-1.19-.12-2.39-.13-3.63,0-.64-.98-.64-.99,0-.04,2.64,.06,5.3,.3,7.94-1.78,10.62-1.92,21.48,.9,31.99,1.22,4.53,3.91,8.09,7.26,11.09-17.94-11.41-43.36-16.39-59.83-4.45-.83,.6-1.02,1.63-.31,2.42,5.39,6,9.37,12.65,15.45,18,6.66,5.86,16.89,8.83,24.82,12.27,.24,.11,.49,.06,.72-.05,5.24,5.45,11.57,9.69,18.96,12.39,6.08,2.22,12.07,3.6,18.41,4.31-13.27,6.84-25.96,17.33-19.3,30.9-1.78-.82-3.56-1.75-5.34-2.77-1.86-1.06-15.02-10.07-12.39-10.78,6.8-1.84,13.23-4.52,20.15-6,1.64-.35,.94-2.82-.7-2.51-8.32,1.59-16.11,4.79-24.29,6.94-.97,.25-1.41,1.63-.61,2.33,11.98,10.5,25.44,19.16,39.75,19.81-3.32,2.13-6.37,5.2-9.19,9.89-7.4,12.32-6.44,29.02-6.06,42.76,.03,.98,.87,1.48,1.76,1.34,2.46-.38,5.14-1.14,7.92-2.2-.14,.14-.28,.28-.43,.41-.12,.11-.16,.25-.17,.38-5.73,3.95-10.68,8.47-13.9,12.38-.6,.72-.56,1.49,0,2.21,.88,1.14,1.92,2.21,3.04,3.23,.06,.09,.08,.19,.17,.26,.18,.13,.41,.23,.61,.36,4,3.39,9.22,6.05,14.96,7.74-4.11,4.01-8.75,7.11-13.16,10.8-2.6,2.18-8.01-9.32-9.06-11.54-5.44-11.36-8.68-27.66-.6-38.42,.03-.04,0-.06,.03-.09,5.65-6.17,9.15-14.15,9.01-24.52-.01-.89-1.35-.88-1.38,0-.89,23.52-19.82,33.95-40.43,38.85-5.3,1.26-4.73,1.03-5.24-4.02-.98-9.7-1.23-14.51,5.04-22.27,8.57-10.59,21.62-20.92,35.57-21.99,1.83-.14,1.86-2.98,0-2.88-.28,.02-.55,.08-.83,.11-.05-.24-.26-.46-.58-.41-11.39,1.86-33.98,3.07-41.99-7.54,8.27,.66,16.68,.95,24.92,2.07-.48,.41-.61,1.26,.08,1.69,1.73,1.07,5.68,2.85,7.32,.82,.3-.36,.18-.83-.26-1-.74-.28-1.46-.17-2.24-.19-1.14-.03-2.24-.5-3.23-1.06,5.16,.78,10.24,1.92,15.16,3.78,1.65,.63,2.33-2,.72-2.63-14.2-5.57-30.1-5.07-45.06-6.45-1.13-.11-1.6,1.22-1.19,2.07,5.9,12.11,23.16,12.93,36.66,11.1-7.78,2.99-14.56,8.36-20.92,13.97-4.62,4.07-8.57,9.05-11.56,14.42-4.22,7.58,.8,14.73-.43,22.69-.16,1.02,.57,1.82,1.62,1.62,11.96-2.31,24.39-6.27,33.64-13.24-7.17,14.57,2.62,40.86,13.89,48.87,.45,.33,1.23,.21,1.59-.2,4.65-5.24,11.42-7.64,14.57-14.02,10.34,2.67,21.92,2.32,30.52-2.15-2.86,5.23-4.96,10.81-5.6,17.15-1.32,13.02,13.49,27.33,20.61,36.67,.73,.96,2.46,1.35,3.1,0,5.68-11.89,16.57-20.94,16.7-34.92,.06-6.34-1.75-14.46-5.44-20.75,16,15.89,36.56,18.36,56.5,5.53,.64-.41,.24-1.42-.52-1.23-11.5,2.91-20.23,10.29-32.89,7.18-9.77-2.4-20.05-9.69-26.45-17.26-.15-.18-.32-.25-.5-.24,1.47-1.61,1.85-4.32,1.86-6.35,.02-2.07-.34-4.84-2.04-6.26-.09-.07-.18-.1-.27-.16,.78-.75,1.55-1.5,2.37-2.2,1.05-.89,2.36-1.27,3.15-2.44,.28-.42-.03-.87-.42-1.03-1.65-.69-3.47,.42-4.93,1.91,.19-.7,.11-1.5-.33-2.38-1.09-2.1-4.12-3.52-6.4-2.95-3.02,.74-2.79,5.06-.94,7.1,.33,.62,.9,1.1,1.82,1.22,1.4,.19,3.01-.19,4.22-.98-.28,.42-.51,.81-.69,1.17-1.27,.13-2.49,.95-3.45,1.95-.56-.67-1.26-1.3-2.19-1.81-.53-.29-1.26-.24-1.68,.22-.72,.79-1.36,1.95-1.59,3.12-.29-.38-.84-.59-1.19-.15-.83,1.02-1.65,2.04-2.47,3.06-.11,.07-.23,.1-.31,.23-.22,.36-.47,.67-.69,1.01-1.06,1.33-2.09,2.67-3.1,4.02-9.6,10.55-24.96,12.91-38.61,8.6,16.23,2.34,36.54-2.38,41.28-16.18,.28-.81-.97-1.13-1.27-.35-6.9,18.34-36.43,15.9-52.14,10.48-2.02-1.68-3.35-3.78-1.23-5.93,3.8-3.85,8.25-6.99,12.77-9.92,10.94-7.09,25.51-12.44,36.85-3.49,.79,.62,1.75-.32,1.1-1.1-7.32-8.86-18.48-8.36-29.19-4.02,5.99-3.83,11.79-8.66,16.46-14.01,.59,2.31,2.29,5.21,2.71,5.82,3.07,4.39,7.59,9.69,12.71,12.29-.07,.08-.17,.12-.22,.24-.56,1.44-1.22,2.78-.67,4.34,.42,1.18,1.51,1.84,2.7,2.03,1.49,.24,3.01-.04,4.48-.28,1.22-.19,1.53-1.07,1.58-2.17,.09-1.75-.36-4.43-1.97-5.46-1.38-.88-2.71-.12-3.6,1.08-4.62-2.08-20.25-15.71-15.47-20.09,.16-.14,.11-.37-.02-.53,3.12-4.02,5.53-8.27,6.89-12.56,1.4,5.23,3.32,10.32,6.94,15.14,6.41,8.55,16.26,14.19,25.31,19.46,1.27,.74,2.61-.47,2.34-1.8-3.31-16.1,3.35-29.59-8.64-42.98,4.1-2.76,8.13-5.61,11.48-9.41,6.12-6.97,4.68-16.35,5.12-25.02,.1-.03,.2-.04,.3-.07,.84-.3,1.5-.86,2.1-1.5,4.59,9.95,16.79,18.99,27.06,20.22,.47,.06,.9,.05,1.36,.08-.12,1.59-.11,3.17-.49,4.75-.52,2.13-1.96,4.09-3.28,5.78-1.83,2.32-4.07,4.33-5.79,6.73-.04,0-.07,0-.11,0-.31-.04-.39,.3-.27,.52-.05,.08-.11,.14-.16,.21-.27,.42,.26,.94,.67,.68,.22-.13,.45-.29,.68-.46,4.98,1.33,10.04,.58,15.07,2.14,5.49,1.7,10.23,5.21,15.8,6.68,.56,.15,.88-.63,.38-.93-4.94-3.03-10.2-5.71-15.63-7.76-4.88-1.84-9.61-.73-14.53-.93,.44-.33,.89-.68,1.35-1.07h0c12.36-5.18,21.51-5.78,33.76,.26,8.93,4.41,16.79,10.97,25.12,16.36,3.55,2.3-14.22,7.58-11.13,6.62-7.76,2.41-16.21,1.43-23.92-.39-11.31-2.68-18.37-14.07-28.09-19.71-.42-.24-.84,0-1.03,.34-.13,0-.22,.06-.33,.12,.22-.66,.38-1.32,.47-1.96,.11-.79-.18-1.57-1.02-1.8-1.99-.54-4.54-1.2-6.32,.21-.68,.55-1.04,1.37-1.2,2.23-.5,.07-.96,.48-.82,1.14,.05,.23,.11,.46,.17,.69-2.16,3.3-5.51,6.16-8.52,8.59-1.74,1.4-3.6,2.71-5.57,3.79-.51,.28-3.38,1.86-4.02,1.49-.39-.22-.9,.06-.9,.52,.01,4.44,7.47-.85,8.55-1.6,2.03-1.4,4.49-3.17,6.65-5.2-2.9,5.85-3.7,14.53-3.95,18.93-.93,16.3,11.04,26.86,20.78,38.18,.8,.91,2.42,.41,2.69-.71,4.66-19.21,11.92-40.49,.54-57.14,7.4,6.9,14.86,13.15,25.24,15.66,12.88,3.12,25.98-.49,36.19-8.49,.68-.54,.38-1.65-.27-2.05-15.53-9.42-38.71-31.46-57.88-21.46,2.68-3.5,4.39-7.49,2.82-10.88,14.44-.13,22.63-13.88,31.19-24.23,.62-.74,.58-1.81-.3-2.35-.93-.57-1.91-1.05-2.89-1.54-.21-.51-.81-.88-1.41-.72-.86-.39-1.76-.73-2.66-1.08,.03-.01,.05,0,.07-.02,4.29-3.31,6.35-8.22,8.5-13.06,2.84-6.37,6.29-11.43,10.26-17.11,.15-.22,.09-.41-.01-.57,8.59-5.27,24.01-13.3,12.64,1.28-.83,1.07,.21,2.84,1.55,2.01,10.67-6.66,9.44-5.62,7.55-.85-.35,.88,.53,1.81,1.38,1.81,.16,0,.32,0,.47,0-18.22,16.81-21.84,45.39-43.71,58.61-4.32,.55-8.65,1.06-12.96,1.5-1.32,.13-1.37,2.03,0,2.1,5.84,.27,11.67,0,17.49-.58,4.19,2.51,7.59,5.97,11.23,9.21,1.62,1.44,3.6,3.11,5.75,4.29-1.52-.09-3.08-.01-4.46,0-1.77,.01-1.73,2.6,0,2.72,4.22,1.25,8.44,2.5,12.66,3.75,1.35,.71,2.71-.69,2.03-2.03,1.89,1.3,3.76,2.6,5.66,3.9,1.18,.68,2.8-.74,1.96-1.96-2.53-3.67,13.22,.19,13.46,.26,4.15,1.27,8.29,2.3,12.51,3.35,1.12,.28,2.47,.64,3.9,1,0,.13-.02,.26,.08,.39,5.86,7.72,11.21,15.54,15.7,24.09-.46-.31-.88-.65-1.36-.93-1.56-1.06-3.36-1.87-5.22-2.57,.24-.31,.37-.71,.16-1.09-8.68-16.22-44.69-15.6-57.42-5.6-.46,.35,.16,1.14,.62,.8,13.01-9.84,43.2-7.22,54.37,5.09-1.49-.49-2.98-.95-4.37-1.4-1.66-.54-2.72,1.62-1.63,2.8,1.53,1.65,2.85,2.94,4.64,4.32,2.73,1.6,4.93,3.71,6.59,6.35-3.47-2.53-6.71-5.3-9.77-8.3-1.15-1.07-2.63,.27-2.05,1.59,2.62,5.98,6.5,11.03,9.85,16.62,2.42,5.28,3.47,10.75,3.16,16.41,.02,1.1-.82,6.59-.88,10.09-7.43-17.16-25.89-28.59-41.86-37.45-6.97-6.78-15.08-12.12-25.2-14.53-.7-.17-.97,.85-.29,1.07,2.9,.95,5.6,2.1,8.15,3.41-.26,.16-.43,.49-.24,.85,8.2,15.38,16.68,45.94,37.44,48.75,.61,.08,.99-.65,.43-1.01-10.03-6.48-16.92-12.5-23.23-22.91-4.92-8.11-8.76-16.85-13.38-25.15,18.76,10.08,28.68,29.2,41.17,46.51,.78,1.08,2.58,.07,1.81-1.06-2.3-3.4-4.59-6.93-6.92-10.47,8.65,7.39,16.72,15.07,19.84,26.56,.28,1.01,1.7,.75,1.76-.24,.88-13.13-15.02-23.32-24.62-30.86-4.12-6.13-8.48-12.13-13.37-17.47,17.25,10.19,37.36,24.42,38.97,45.15,.13,1.7,2.83,1.66,2.63,0-.24-1.95-.65-3.83-1.15-5.65,.07-.01,.14-.03,.2-.04,.62-.12,1-.75,1.02-1.33,.39-11.15,1.85-21.72-2.95-32.07-2.12-4.55-5.83-8.58-8.45-12.88,1.83,3,5.95,6.53,9.83,9.33,.97,.71,2.57-.23,2.48-1.42-.4-4.81-3.08-7.72-6.26-10.42,3.05,1.46,5.91,3.24,8.7,5.7,1.25,1.11,3.01-.27,2.28-1.75-5.16-10.47-11.44-19.74-18.82-28.67,5.74,1.26,12.47,1.98,16.16-1.7,.35-.36,.65-.72,.91-1.07,.73,.48,1.35,.83,1.61,.98,1.77,1.02,3.35-1.69,1.6-2.74-.55-.33-1.1-.67-1.65-1,.09-.17,.2-.34,.3-.5,.61,0,1.22,0,1.83,0,1.09-.01,1.17-1.39,.36-1.78,.37-.14,.79-.26,1.29-.35,4.37-.76,6.53-1.14,10.46-3.25,7.75-4.16-10.31-16.14,8.62-13.5,1.15,.16,2-.81,1.47-1.91-3.52-7.45,2.04-14,.82-21.41-.12-.73-1.01-1.11-1.65-.94-7.84,2.02,4.16-9.67,6.43-13.01,1.95-2.86,3.13-5.65,3.75-8.74,1.79-1.55,3.63-3.04,5.66-4.31,1.06-.67,1.07-2.69-.38-2.93Zm-208.23,110c-.09,.03-.19,.04-.29,.06-.08-.39-.18-.78-.22-1.17,0-.03,0-.07-.01-.11,.01-.04,.02-.09,.03-.11,.12-.13,.2-.28,.2-.47v-.04c0-.08-.05-.14-.07-.21,.09,0,.07,.02,.35,.09,.45,.11,.97,.38,1.27,.61,.38,.3,.54,.53,.63,.7-.06,.01-.3,.16-.43,.22-.44,.22-1,.29-1.46,.43Zm-2.68,10.12c-.23-.96,.02-2.02,.11-3.09,.29,.32,.53,.69,.59,1.15,.09,.73-.25,1.37-.7,1.94Zm-3.54-2.35c.03,.69,.24,1.36,.75,1.91,.12,.13,.3,.16,.47,.19-.04,1.09,.18,2.12,1.13,3.31,.48,.6,1.35,.41,1.85,0,1.82-1.5,2.65-3.29,2.55-5.02,.13-.07,.28-.12,.38-.22,.56-.55,1.23-1.35,1.89-1.59,.37-.14,.22-.14,.5,.16,.63,.67,.8,2.56,.81,3.74,.01,1.42-.14,3-.84,4.25-.16,.28-.15,.25-.36,.46,.06-.06-.32,.13-.12,.1-.62,.08-1.23-.62-1.7-1.12-1.08-1.16-2.69,.53-1.72,1.71,.76,.92,1.74,1.71,2.77,2.01,.11,.14,.21,.29,.31,.44-.23,.15-.4,.38-.35,.72,3.13,18.79,2.88,33.57-8.65,49.39-.33,.45,.34,.84,.7,.55,14.54-11.46,13.67-32.29,9.69-48.71,5.74,8.69,8.8,19.28,6.81,29.68-.47,2.45-15.11,23.51-14.74,24.02-6.2-8.35-12.77-16.11-16.78-25.84-3.65-8.84,.05-18.01,5.16-26.33,3.12-2.57,5.51-5.96,6.91-10.18,.89-1.26,1.75-2.48,2.55-3.65Zm-4.81-7.19s.03,.03,.04,.05c-.01-.02-.03-.03-.04-.05Zm2.85-2.13c.43-.51,.07-.55,.28-.01,.24,.62,.41,1.27,.49,1.93,.02,.15,.01,.33,0,.5-.95,.17-1.91,.32-2.84,.19-.26-.03-.4-.18-.56-.32,.17,.07,.35,.08,.53-.03,.89-.58,1.4-1.45,2.09-2.25Zm-3.07,1.43c-.1-.69,.05-1.52,.18-2.08,.01-.04-.02-.07-.01-.11,.12,.05,.23,.1,.34,.14-.33,.7-.52,1.42-.51,2.05Zm51.32-43.42c-.26,1.03-.71,2.04-1.56,2.68-.66,.49-1.23,.34-1.69-.06,.29-.9,.27-2.01,.87-2.63,.41-.43,1.46-.24,2.38,.01Zm-5.06,4.09c-.36,.17-.71,.38-1.04,.61,.24-.42,.47-.85,.64-1.28,.12,.24,.26,.46,.4,.67Zm9.55,54.83c-8.42-9.29-15.11-17.38-15.35-30.59-.14-8.22,2.68-16.25,7.18-22.98,.58,.29,1.24,.43,2.04,.3,.04,0,.06-.02,.09-.03-.39,2.81-.21,5.85-.14,7.85,.29,8.71,1.87,18.1,4.29,26.46,.13,.43,.8,.35,.8-.11-.07-12.6-5.2-24.11-1.92-36.21,.23-.31,.43-.63,.61-.98,11.41,19.18,2.63,37.35,4.44,57.63,.02,.24,.14,.39,.26,.54-.55-.21-1.29-.78-2.29-1.88Zm8.3-19.63c-.74,4.92-2.15,9.76-3.42,14.55-.46,1.74-.61,3.64-.88,5.04,1.34-16.92,4.61-35.23-2.41-50.89,6.48,9.59,8.6,18.74,6.71,31.3Zm26.94-84.68c.19,.07,.36,.13,.54,.2-6.15,5.89-10.84,13.59-18.99,16.82-11.7,4.63-25.29-4.87-33.41-13.42,.28-.76,.51-1.53,.63-2.27,.14-.89-.22-1.57-1.07-1.89-.48-.19-.96-.32-1.45-.42,2.25-1.49,4.75-2.58,7.4-3.4-.39,.6-.8,1.19-1.16,1.79-.3,.52,.33,1.24,.86,.86,1.64-1.15,3.19-2.4,4.69-3.72,13.78-2.52,30.57,1.5,41.96,5.44Zm-81.94,4.72c-8.93,4.65-16.28,.43-21.79-6.12,5.99,4.12,16.23,4.61,21.87,4.09,1.56-.14,3.16-.41,4.75-.77-.16,.14-.31,.29-.47,.44-1.45,.82-2.91,1.61-4.37,2.37Zm-25.56-15.62c.33,.16,.68,.28,1.03,.35-.28,.13-.58,.27-.86,.4-.07-.25-.1-.5-.17-.75Zm2.57-3.86c.26-.64,.56-1.28,.81-1.94-.09,.74-.38,1.5-.79,2.16,0-.08-.02-.15-.02-.23Zm43.84,.36c-.36,3.27-1.75,5.88-3.76,7.95-.73,.63-1.43,1.28-2.2,1.88-4.66,3.39-11.19,4.88-16.65,5.33-9.64,.79-15.89-2.28-22.1-8.57,.04-.07,.08-.14,.11-.23,.1-.04,.2-.08,.3-.13,9.43,12.28,26.41,.05,37.63-3.86,1.38-.48,.79-2.66-.61-2.19-10.3,3.47-26,15.34-35.42,5.37,9.62-4.15,18.89-8.03,29.6-9.21,4.06-.44,8.22,.03,12.26,.42,6.45,.62,4.31,4.08,1.43,7.12,.43-1.21,.7-2.5,.81-3.88,.07-.91-1.31-.88-1.4,0Zm6.68,8.6c1.01,0,2.03-.07,3.04-.24-.22,.09-.43,.19-.64,.3-.11,.03-.21,.06-.3,.09-.07,.02-.08,.08-.13,.11-.92,.48-1.77,1.04-2.55,1.67,.25-.63,.44-1.26,.58-1.92Zm9.52-2.14c-.43,.07-.84,.16-1.26,.26,1.27-.55,2.51-1.18,3.69-1.93-.35,.42-.7,.83-1.04,1.26-.47,.14-.93,.28-1.4,.42Zm-14.74,5.43c-.09-.15-.18-.31-.26-.48,.37-.25,.72-.54,1.06-.86-.25,.45-.52,.89-.8,1.34Zm52.98-32.2c-.71,.23-2.19,6.12-2.8,7.25-1.17,2.18-2.95,3.91-4.72,5.59-3.38,3.21-7.79,5.4-11.96,7.36-3.4,1.6-6.96,2.86-10.55,4.02,9.09-9.29,17.04-19.94,30.03-24.22Zm-24.9,7.33c-2.51,10.59-13.25,16.58-22.71,19.5-.22-.71-.91-1.3-1.66-1.25-.63,.03-1.13,.21-1.64,.39,2.32-2.89,3.93-6.06,4.32-9.49,.09-.82-.71-1.33-1.4-1.4-9.05-.98-17.55-1.84-26.56-.21-6.07,1.1-11.77,3.23-17.36,5.68,.26-.28,.52-.56,.8-.84,.18-.07,.3-.21,.39-.42,.49-.5,.98-.98,1.49-1.47,10.1-3.52,20.16-8.16,28-15.52,6.15-5.78,6.84-12.56,7.4-19.61,4.67,4.29,10.16,6.38,15.93,6.82-10.23,4.65-19.49,12.99-18.05,23.78,.16,1.14,1.86,1.23,1.86,0-.06-13.09,15.5-21.1,26.45-23.97,5.11-1.34,3.44,15.09,2.74,18.01Zm26.28-40.82c-11.99,15.33-38.04,26.27-54.98,13.35,.08-.94,.18-1.89,.3-2.83,.14,.02,.29,.02,.44-.01,.02,.22,.09,.43,.29,.61,8.81,7.41,20.07,6.79,30.65,3.76,7.64-2.19,20.12-8.29,23.56-16.73,.38,.48,.34,1.1-.26,1.86Zm-2.58-3.01c-5.91,5.69-10.67,10.5-19.15,13.8-9.61,3.74-21.82,4.78-30.73-1.2,7.87-3.64,15.35-7.64,23.61-10.5,3.04-1.04,19.38-3.29,26.26-2.1Zm-26.45-27.04c-1.91,8.54,1.13,16.68-5.1,24.66-1.65,2.11-3.77,3.74-6.08,5.16-2.44,1.15-4.8,2.39-7.04,3.72-2.41,1.16-4.77,2.35-6.91,3.73,.31-1.57,.71-3.15,1.29-4.71,.42-1.15-.9-2.47-2.05-2.05-1.64,.6-3.25,1.27-4.84,2,4.12-3.89,7-8.36,8.86-13.19,6.04-7.86,12.76-15.04,21.88-19.31Zm-30.43-14.7c8.24-5.06,8.62,16.88,8.5,21.75-.16,6.13-2.12,11.31-5.14,15.88-.26,.37-.53,.74-.78,1.11-2.67,3.75-6.02,7.1-9.67,10.24-.09-.18-.18-.37-.27-.56,7.71-8.19,11.72-18.68,9.84-29.89-.16-.93-1.56-.53-1.42,.39,1.02,6.48,.2,11.94-2.82,17.77-1.82,3.52-4.43,6.55-6.48,9.92-7.56-16.58-9.74-35.56,8.23-46.6Zm-10.31,48.76c-.27-.07-.53-.16-.8-.23-.02-.53-.03-1.07-.09-1.57,.29,.6,.59,1.2,.89,1.8Zm-5.4,6.12c-17.43,4.21-29.8-19.1-27.38-34.57,7.47,11.3,26.22,13.53,29.23,27.27-5.03-2.03-9.11-5.42-13.16-9.66-.75-.79-1.92,.39-1.18,1.18,4.44,4.8,8.98,8.79,14.69,11.18,0,.12,.04,.23,.05,.35,.06,1.33,1.59,1.41,2.13,.47,.76,.25,1.55,.45,2.36,.64,.01,.03,.03,.06,.05,.09-1.97,1.26-3.9,2.59-5.72,4.04,.06-.56-.34-1.19-1.07-1.01Zm18.08-5.23c-.72,2.9-.97,5.72-1.07,8.93-.29,9.27-2.23,15.34-9.14,21.85-4.85,4.57-11.06,7.01-16.93,9.98,4.7-3.99,9.37-8.04,12.44-13.22,.43-.72-.5-1.31-1.08-.83-6.7,5.44-12.61,12.12-18.64,18.42,2.35-5.16,3.33-11.72,4-15.63,.07-.42,.1-.83,.15-1.25,5.7-12.79,16.24-22.38,30.26-28.24Zm-33.65,28.6c-1.42,3.77-2.35,7.77-2.73,11.96-.62,1.73-1.35,3.35-2.16,4.76-.01-.09-.01-.18-.03-.27,4.26-11.71,4.15-25.43-.34-37.25,2.73,4.64,4.91,9.56,5.45,15.64,.11,1.29,.04,3.1-.19,5.15Zm-25.99-7.82c.21-4.33,10.05-30.32,10.98-28.58,.1,.18,.21,.35,.31,.53-.47-.1-.96,.42-.7,.93,8.32,15.83,14.66,32.47,9.6,49.57-1-1.12-2.46-1.24-3.93-.73-.13-.86-.25-1.72-.38-2.58-.85-5.31-.58-9.99-.27-15.29,.04-.61-.9-.88-1.17-.32-2.68,5.67-1.27,12.49,.2,18.97-1.18,.77-2.25,1.88-2.91,3.11-.22,.03-.43,.12-.61,.25-2.01-3.03-4.5-5.82-7.21-8.33-2.86-4.93-4.24-10.62-3.91-17.55Zm-74.78-10.19c-2.09,1.23-3.68,3.03-4.49,5.58-.07-.1-.14-.2-.21-.29-2.37-3.12,1.41-4.48,4.7-5.29Zm4.76,17.39c-3.37-2.99-6.12-7.54-8.88-11.29,.16,0,.32-.07,.39-.25,4.9-13.27,32.22-1.82,41.76-.83,.67,.07,.69-.88,.15-1.09-5.12-1.96-16.02-5.56-25.6-6.1,17.65-.64,37.78,9.12,49.6,20.44-11.8-1.88-26.58,3.58-36.92,4.5-1.08,.1-1.92,1.21-1.29,2.24,1.26,2.07,2.67,4,4.14,5.85-7.64-4.77-16.34-7.26-23.35-13.47Zm49.84,27.94c-6.97-2.16-13.14-5.79-18.79-10.34-1.61-1.3-10.02-9.1-6.57-9.6,12.65-1.85,27.77-7.6,39.96-1.48,2.62,1.31,5.21,3.31,7.66,5.63,1.64,2.73,3.84,5.32,6.72,7.71,.99,1.36,1.9,2.72,2.73,4.07-.47-.2-1.04,.04-1.23,.54-7.9-4.28-25.13-14.69-28.99-7.65-.16,.29-.03,.73,.32,.79,1.68,.3,2.96-.29,4.71-.33,3.64-.08,7.57,1.88,10.76,3.32,4.35,1.98,8.5,4.37,13,5.92-1.25,.5-2.49,1.13-3.82,1.86-1.66,.63-3.44,1.33-5.27,2.11-6.94,1.71-14.64-.51-21.19-2.55Zm11.42,11.55c6.41-3.68,13.88-5.97,19.98-10.13,.35-.14,.7-.28,1.06-.41,.32,.57,.65,1.13,.99,1.7-.37,6.22-2.72,11.67-6.69,16.51-.39-.03-.78-.08-1.17-.1-.66-.03-.97,.99-.35,1.29,.12,.06,.25,.1,.38,.16-1.06,1.18-2.19,2.34-3.45,3.44-4.77,4.23-26.18,17.4-26.49,4.76-.19-8.09,9.81-13.79,15.74-17.21Zm-6.6,81.47c-7.1,2.93-6.12,.5-6.15-6.38-.04-7.73,.73-15.38,2.6-22.89,2.2-8.82,7.5-16.09,15.34-20.05,4.2-.41,8.48-1.54,12.8-3.59,2.02-.36,4.01-.77,6.03-1.5,1.02,1.13,1.87,2.27,2.61,3.42-.31,.11-.6,.33-.61,.76-.69,20.64-12.03,33.6-25.36,46.66-2.51,1.4-4.97,2.61-7.27,3.57Zm19.27-11.74c8.72-10.65,14.4-23.8,15.08-37.34,6.81,13.14-2.69,27.2-15.08,37.34Zm27.12-10.08c-3.43-4.46-5.24-9.64-6.65-15,.19-1.12,.26-2.25,.28-3.36,2.88,5.62,6.17,11.04,9.95,16.27,4.92,6.79,11.62,15.02,19.55,18.73,.06,.77,.14,1.55,.23,2.33-8.73-5.2-17.06-10.77-23.37-18.97Zm16.22-19.8c9.1,10.85,6.47,21.61,6.78,33.52-6.78-6.27-13.47-11.75-19.21-19.47-4.06-5.46-7.63-11.46-10.72-17.66-.58-2.43-1.65-4.8-3.26-7.09-.38-.89-.78-1.77-1.13-2.66,1.65-.73,2.95-2.32,3.21-4.39,.16-1.26-.25-2.36-.95-3.28,.22,.04,.43,.1,.66,.13,.63,.07,1.08-.56,1.11-1.11,.03-.42,.72-.67,.7-1.27-.03-.75-.14-1.25-.61-1.84-.73-.92-2.04-.31-2.73,.35-.75-.36-1.8,.54-1.24,1.35,.18,.27,.26,.58,.35,.89-.23-.12-.46-.23-.71-.3,.05-2.31-1.61-4.43-4.15-5.02-.77-.18-1.53,.23-1.76,1-.3,1.01-.3,1.97-.2,2.95-.29,.14-.53,.42-.44,.83,.3,1.47,.69,3.52,2.21,4.23,.42,.19,.84,.21,1.26,.16,.3,1.1,1.83,1.29,2.5,.32,.12-.18,.24-.5,.35-.81,1.38,1.55-.9,4.54-2.99,3.04-.25-.18-.52-.22-.77-.18-.09-.07-.16-.15-.25-.22-1.13-.9-2.68,.29-2.2,1.4-.15,0-.29-.04-.46,.04-1.29,.67-2.57,1.24-3.85,1.77-4.4,.9-8.41,1.68-12.11,3.05-6.69,.59-13.25-.64-19.84-3.36,10.67-1.58,23.35-7.39,31.24-16.14,.39,.14,.77,.28,1.17,.41,1.46,.51,3.1,1.42,4.66,1.04,.48-.12,.63-.65,.43-1.05-.7-1.46-2.4-1.75-3.83-2.16-.29-.09-.59-.12-.87-.18,3.16-4.04,5.26-8.64,5.77-13.68,5.73,8.11,13.85,14.26,24.14,9.55-1.6,2.26-3,4.56-4.2,6.57-7.8,13.1-.16,22.31-.74,36.02-.06,1.31,1.63,1.91,2.5,1.04,3.07-3.05,6.58-5.47,10.12-7.85,.02,.03,.02,.06,.04,.08Zm-31.2-24.43c.68,.54,.97,1.35,.62,2.48-.52,1.66-1.25,.78-1.75-.26,.71-.57,.98-1.36,1.13-2.22Zm38.86,15.62c-5.25,4.89-11.91,7.83-17.46,12.34-.62-8.55-4.79-16.35-2.5-25.15,1.77-6.75,6.77-13.59,12.71-18.28,2.39-1.3,4.84-2.75,7.21-4.36,.22-.09,.43-.22,.64-.31,.31-.12,.51-.34,.64-.6,1.82-1.3,3.55-2.69,5.12-4.17-.1,.31-.17,.65-.24,.98-.46-.02-.97,.26-.9,.79,.25,2.07-.11,3.36,1.97,4.53,.03,.01,.06,0,.08,.01-.19,.27-.38,.53-.54,.86-.28,.57,.18,1.11,.78,1.01,.72-.12,1.38-.34,2.03-.58-.04,.08-.08,.15-.11,.25-.2,.97-.35,1.93-.49,2.89-.7-.04-1.46-.43-2.24-1.32-.69-.79-2.05,.25-1.46,1.12,.9,1.33,2.02,2.44,3.38,2.85-1,9.89-.17,19.24-8.63,27.13Zm11.48-31.23c.04-.28,.07-.56,.12-.83,.11-.61-.23-1.05-.66-1.27,.29-.04,.59-.06,.89-.02,0,.02-.01,.04,0,.06,.08,.12,.18,.22,.26,.34,0,.08-.06,.14-.04,.23,.03,.11,.07,.22,.1,.33-.2,.42-.43,.81-.68,1.16Zm55.64,3.46c-3.87,4.96-7.82,9.57-12.91,13.35-11.06,8.2-29.96-1.43-37.41-12.98,7.03,7.11,16.36,11.81,26.46,12.34,12.02,.64,18.82-11.65,26.56-19.01,2.74,1.48,.25,2.52-2.7,6.3Zm-.13-11.35c-.16,.17-.14,.4-.05,.59-3.1-1.16-6.35-2.06-9.67-2.74,6.37-9.77,13.83-17.11,23.23-23.83-5.9,7.21-7.35,19.31-13.51,25.99Zm111-16.73c-1.13,1.26-.01,2.93,1.55,2.67,6.77-1.09,9.38-.86,9.75,.13,0,.02-.03,.03-.04,.05-.08,.42-.24,.82-.34,1.24-1.71,2.38-7.94,6.31-11.01,9.49-11.42,11.81-24.32,18.3-40.17,22.38-11.41,2.94-22.98,5.53-34.61,7.8,10.37-3.55,20.11-9.41,28.96-15.49,9.82-6.76,22.16-16.22,26-28.22,3.4-.16,7.41-.87,10.55-1.35,1.97-.3,16.35-6.53,9.36,1.31Zm-21.87,.08c-6.27,14.64-22.92,28.16-40.05,36.83,12.91-10.81,21.03-26.05,33.59-37.15,2.06,.19,4.2,.31,6.46,.32Zm-42.99-9.02c3.05,0,6.1-.07,9.15-.27-4.92,.21-2.72-.13,1.18-.29-4.91,5.62-9.29,11.58-14.63,16.89-5.91,5.88-12.26,11.31-18.32,17.05,6.58-11.93,12.41-24.67,22.62-33.37Zm-23.28,34.57c.16,.31,.57,.51,.92,.19,11.55-10.73,26.65-21.1,34.14-35.37,5.8-.16,13.58,.19,9.34,2.93-1.22,.79-.89,2.4,.38,2.89,4.43,1.7,8.47,2.66,12.68,3.21-12.98,12.11-21.24,28.69-35.53,39.49h0c-7.79,3.56-15.5,6.08-22.18,7.12-.11,.02-.18,.08-.23,.16-6.49,1.1-13.01,2.09-19.52,2.95,8.96-5.62,14.78-14.27,20-23.57Zm17.28,41.14c-2.32-.16-4.67-.51-6,1.77-.36,.62-.46,1.1-.46,1.47-.66-.56-1.97-1.38-4.48-2.45-1.35-.58-2.71,.61-2.02,2.02-.43-.86-1.01-1.46-1.68-1.95,.41,.01,.82,.02,1.23-.04,.65-.1,.61-.98,.16-1.28-2.03-1.38-4.47-1.95-6.6-3.24-2.34-1.42-4.38-3.35-6.39-5.18-2.29-2.07-4.61-4.14-7.32-5.49,.43-.05,.85-.12,1.28-.17,10.81,2.77,22.58,3.72,34.45,2.99-.13,.15-.14,.41,.12,.48,9.18,2.45,16.4,8.99,25.14,12.55,5.28,2.15,11.03,3,16.76,3.31,.2,.38,.48,.76,.83,1.12-7.21,8.84-36.17-5.3-45.02-5.91Zm69.41-23.44c-2.03,6.5,2.05,6.68-9.16,4.88-1.17-.18-2.08,.65-1.85,1.85,1.03,5.37,5.58,14.64-3.32,16.04-3.45,.54-6.72,.85-9.82,2.55-.46,.25-.76,.52-.98,.8-7.53-.5-14.72-1.73-21.82-5.2-6.66-3.25-12.43-7.36-19.72-9.05,23.25-1.53,46.72-9.54,63.85-22.79,.1,.02,.18,.08,.28,.07,7.53-1,3.97,6.26,2.54,10.86Zm-3.69-12.86c-.09,.13-.1,.29-.12,.45-29.26,16.87-58.47,24-91.17,20.33,17.06-2.81,33.99-7.77,50.71-10.95,13.1-2.48,24.78-6.65,36.16-13.52,7.09-4.28,12.39-10.88,18.34-16.76-3.55,7.36-9.55,13.78-13.92,20.45Z"/>
      <path class="cls-1" d="M286.19,285.5c.8-1.08-13.28-6.01-15.41-6.24-.99-.11-1.83,.91-1.82,1.82-4.46-.8-8.45-2.58-11.99-5.34-.87-.55-2.42-.07-2.58,1.05-.36,2.63-19.6-12.96-22.37-15.03-1.14-.85-2.39,.35-2.52,1.44-.93,7.5-8-1.52-10.31-3.26-.42-.31-.94-.29-1.39-.07-5.11-5.63-8.84-9.98-11.19-17.8-.74-2.47-1.17-4.98-1.51-7.5,4.34,8.51,9.39,17.01,16.6,23.43,.61,.55,1.73-.18,1.2-.92-5.79-8.09-12.77-15.28-17.44-24.16-.14-.27-.39-.29-.61-.21-.45-3.92-.72-7.86-1.31-11.78-.09-.59-.88-.35-.94,.13-1.49,11.14,1.72,35,14.21,40.16-1.33,4.91-1.06,3.3-1.23,8.88-.06,2.18-10.16-9.39-11.45-11.48-4.72-7.7-8.15-16.29-12.06-24.42-.32-.67-1.26-.08-.98,.57,6.06,14.24,11.03,33,25.33,41.15,.91,.52,2.11-.13,2.1-1.2-.09-11.49,3.18-8.22,9.51-2.61,1.04,.92,2.41,.47,2.9-.76,2.98-7.62,6.29-1.06,10.71,3.28,3.95,3.88,7.8,6.45,12.93,8.61,.91,.38,2.37,.19,2.55-1.04,.16-1.08,11.54,3.44,13.18,3.84,1.14,.29,2.3-.55,2.3-1.75,0-.74,12.1,3.87,14.5,4.17,.62,.08,1.42-.53,1.5-1.15,.04-.25,.08-.5,.12-.74,.22-1.57-1.56-2.35-2.52-1.06Z"/>
      <path class="cls-1" d="M277.41,231.66c.37,.35,1.14,0,.92-.54-3.53-8.58-15.07-12.17-23.52-12.66-.75-.04-.93,1.22-.18,1.32,9.17,1.25,16.18,5.64,22.78,11.87Z"/>
      <path class="cls-1" d="M198.69,72.06c-1.73-7.55-1.12-13.75,1.04-21.19,1.31-4.49,8.46-19.73,7.79-6.71-.07,1.3,1.83,1.79,2.44,.66,2.34-4.37,4.93-8.17,7.93-12.11,1.27-1.68,.55-3.36,1.14,.31,.02,.11,.08,.17,.12,.26-2.87,16.48-1.87,34.78,4.48,50.22-7.64,9.79-17.11,18.46-24.83,27.92-.5,.62,.29,1.46,.9,.89,8.78-8.37,17.33-17.65,24.58-27.72,.68,.41,1.87-.21,1.5-1.1-.1-.24-.16-.48-.26-.72,14.47-20.72,23.21-44.67,17.44-70.79,9.3,16.93,12.01,35.78,9.82,55.18-.15,1.32,1.57,1.7,2.39,.99,5.95-5.24,2.32,2.69,6.85,5.4,16.19,9.68-2.62,24.08-10.14,32.81-.41,.47,.09,1.2,.67,.87,9.76-5.66,17.91-14.43,20.26-25.64,1.87-8.91-10.95-10.37-11.45-19.54-.07-1.27-1.5-1.86-2.44-1.01-5.04,4.52-2.9-.41-2.75-5.52,.18-6.02-.72-11.95-1.61-17.87-1.8-11.9-7.09-22.37-13.84-32.15-.5-.72-1.68-.05-1.18,.7,.23,.35,.4,.71,.63,1.06-.53,.26-.91,.78-.71,1.51,4.66,17.52,.98,36.46-4.19,53.48-2.16,7.16-5.81,13.45-10.17,19.33-5.89-15.41-5.72-31.46-4.46-47.65,.13-.03,.25-.04,.36-.09,2.73-1.27,4.58-2.81,6.14-4.76-3.77,12.57-7.21,26.84-5.47,40,.08,.57,1.01,.85,1.12,.15,2.04-13.52,2.52-26.82,5.92-40.18,.16-.63-.41-.96-.88-.87,.83-1.17,1.61-2.48,2.41-3.98,3.94-7.37,1.66-8.07,3.44,1.19,.22,1.16,2.02,1.38,2.53,.33,3.91-7.95,2.15-16.37,2.74-24.96,.06-.86-1.25-1-1.46-.2-1,3.66-1.16,6.85-1.21,10.69,.01,3.3-.18,6.6-.58,9.88-.42-2.5-1.06-4.94-1.94-7.32-.4-1.27-2.21-1.3-2.61,0-.57,2.07-1.24,4.12-1.99,6.14-.71,4.83-3.42,7.59-8.13,8.27-.18-1.37-1.67-1.78-2.52-.68-2.9,3.8-5.75,7.58-8.42,11.54-.13-1.28-.28-2.55-.32-3.84,0-.67-.83-1.26-1.44-.82-9.72,7.02-18.1,27.23-11,38.24,.45,.7,1.53,.25,1.34-.57Z"/>
      <path class="cls-1" d="M249.67,47.98c-.43,21.71-15.38,37.1-31.04,50.03-.56,.46,.15,1.21,.73,.94,18.03-8.55,31.76-31.22,31.66-50.97-.01-.87-1.33-.87-1.35,0Z"/>
      <path class="cls-1" d="M264.25,78.5c.59-.7-.29-1.57-.99-1-3.04,2.5-5.97,5.13-9.04,7.6-3.43,2.78-7.55,4.75-10.82,7.66-.63,.56,.04,1.5,.77,1.33,3.6-.83,6.84-3.37,9.72-5.61,3.81-2.96,7.28-6.27,10.36-9.99Z"/>
      <path class="cls-1" d="M128.42,287.17c.42,.61,1.44,.25,1.23-.52-3.06-10.95-1.45-20.44,2.47-30.96,.23-.62-.79-1.05-1.06-.45-4.26,9.19-9.09,22.63-2.63,31.93Z"/>
      <path class="cls-1" d="M95.3,246.06c-.69-.13-1,.91-.29,1.07,7.97,1.76,16.61,1.93,24.1-1.89,.55-.28,.32-1.27-.32-1.2-8.02,.89-15.25,3.6-23.48,2.03Z"/>
      <path class="cls-1" d="M152.65,242.9c3.05-.28,6.24,1.33,9.11,.54,.43-.12,.66-.64,.42-1.03-1.77-2.9-6.58-2.58-9.53-2.3-3.72,.36-7.21,1.72-10.14,4.03-.59,.46,.05,1.56,.74,1.28,3.03-1.26,6.11-2.21,9.4-2.52Z"/>
      <path class="cls-1" d="M170.68,254.23c.61-.17,.6-1.03,0-1.21-3.76-1.14-7.77-.88-11.67-1.18-5.36-.42-10.73-1.45-15.79-3.27-.65-.24-1.11,.83-.48,1.12,8.12,3.7,19.03,7.15,27.94,4.55Z"/>
      <path class="cls-1" d="M41.57,218.98c-.2,.76,.91,1.05,1.15,.32,1.96-5.8,6.19-10.66,10.62-14.74,2.36-2.17,5.03-3.91,7.88-5.38,2.21-1.13,4.7-1.25,6.82-2.44,.54-.3,.39-1.08-.17-1.26-4.97-1.55-11.43,3.68-14.97,6.59-5.28,4.35-9.56,10.26-11.34,16.9Z"/>
      <path class="cls-1" d="M51.92,177.7c.81-.21,.63-1.44-.19-1.44-11.12,0-20.21-2.39-29.73-8.24-4.68-2.88-8.65-6.66-12.53-10.48-6.13-6.05-5.27-7.81,1.86-10.43,20.23-7.42,42.22-11.55,58.56,5.97,.46,.49,1.11-.22,.72-.72-18.13-22.79-46.54-12.94-69.66-4.04-.68,.26-1.27,1.13-.74,1.84,11.16,15.02,31.37,32.93,51.72,27.54Z"/>
      <path class="cls-1" d="M27.26,153.44c9.11,2.02,18.38,2.93,27.5,4.97,.67,.15,1.04-.72,.46-1.1-7.83-5.08-18.72-3.83-27.56-5.32-.94-.16-1.35,1.23-.4,1.44Z"/>
      <path class="cls-1" d="M31.29,137.39c-3.37-4.15-7.2-7.63-10.23-12.13-2.49-3.71-4.61-7.62-7.37-11.14-.24-.29-.8,.03-.65,.38,3.43,8.15,8.48,20.88,17.38,24.39,.93,.37,1.37-.88,.88-1.5Z"/>
      <path class="cls-1" d="M63.92,225.18c-6.95,9.32-9.07,24.38-4.42,35.14,.29,.68,1.23,.16,1.12-.48-2.01-11.55-1.52-23.6,4.46-33.98,.44-.77-.66-1.36-1.17-.68Z"/>
    </g>
  </g>
</svg>