<?xml version="1.0" encoding="UTF-8"?>
<svg id="Layer_2" data-name="Layer 2" xmlns="http://www.w3.org/2000/svg" viewBox="0 0 295.49 510.63">
  <defs>
    <style>
      .cls-1 {
        fill: #cecece;
      }
    </style>
  </defs>
  <g id="Layer_1-2" data-name="Layer 1">
    <g>
      <path class="cls-1" d="M293.16,510.63c-100.9-98.85-168.7-230.11-190.9-369.59l3.28-.52c22.1,138.79,89.56,269.39,189.95,367.75l-2.33,2.37Z"/>
      <path class="cls-1" d="M172.44,302.5c-1.3,.47-2.63,.9-3.97,1.28-.62,.17-1.27,.39-1.85,.61l-1.23,.45c-.56,.2-2.07,.75-2.74-.65-.49-1.01,.03-1.7,.71-2.23-1.34-19.74,3.84-40.83,14.65-59.49,10-17.26,24.44-32.49,42.93-45.26l1.45-1.01,.91,1.51c5.89,9.77,7.7,22.33,5.1,35.35-2.06,10.28-6.66,20.66-14.47,32.65-12.3,18.87-26.25,31.25-41.49,36.78Zm-5.83-1.62c.33-.11,.65-.21,.97-.29,16.15-4.55,30.67-16.88,43.56-36.67,7.58-11.63,12.03-21.64,14-31.49,2.3-11.52,.94-22.61-3.81-31.44-17.37,12.28-30.97,26.79-40.46,43.16-10.32,17.82-15.36,37.89-14.27,56.74Z"/>
      <path class="cls-1" d="M203.61,380.16c.03-.06,.09-.28,0-.56l-3.16,1.03v-.05c-5.81-18.17-2.83-39.85,8.85-64.42,12.16-25.6,28.35-43.31,46.79-51.21l1.62-.7,.6,1.66c5.26,14.74-.5,30.78-6.85,45.95-8.55,20.48-19.2,45.98-39.34,61.55-1.17,.9-2.37,1.78-3.51,2.61-1.97,1.43-4.67,3.4-5.01,4.13Zm52.13-111.42c-21.42,9.97-35.41,31.95-43.44,48.85-10.62,22.34-13.84,42.1-9.61,58.78,1.03-.88,2.37-1.85,3.98-3.02,1.11-.81,2.29-1.67,3.43-2.55,19.45-15.04,29.47-39.03,38.31-60.2,6.08-14.55,11.2-28.7,7.34-41.85Z"/>
      <path class="cls-1" d="M232.47,435.64l-.18-3.81c-1.88-40.95,17.53-81.97,49.43-104.51l1.56-1.11,.87,1.7c6.6,12.89,6.06,30.21-1.44,46.32-6.73,14.42-17.47,26.2-27.86,37.6-6.19,6.78-12.59,13.8-19.72,21.07l-2.67,2.72Zm49.57-104.46c-29.05,21.4-47.01,58.76-46.55,96.6,6.01-6.23,11.54-12.29,16.91-18.18,10.22-11.21,20.79-22.81,27.3-36.77,6.74-14.46,7.57-29.87,2.34-41.65Z"/>
      <path class="cls-1" d="M147.06,233.37c-2.04,.74-4.12,1.3-6.17,1.66l-2.04,.36,.1-2.07c2.08-43.58,20.39-86.29,50.23-117.19l.63-.41c.42-.15,.78-.22,2.9-.36l1.43-.09,.3,1.4c3.7,17.03,4.93,34.48,3.65,51.86-.38,5.08-1,10.46-2.93,15.46-2.28,5.88-6.21,10.85-10.01,15.64-11.28,14.19-23.47,28.44-38.08,33.74Zm-4.68-2.04c1.18-.29,2.37-.65,3.55-1.08,13.8-5.01,25.64-18.87,36.57-32.63,3.69-4.66,7.45-9.42,9.56-14.83,1.78-4.6,2.35-9.69,2.71-14.51,1.22-16.58,.12-33.23-3.28-49.5-.11,.01-.2,.02-.28,.03-28.59,29.79-46.31,70.66-48.83,112.53Z"/>
      <path class="cls-1" d="M118.11,165.75l-.91-2.32c-4.6-11.75-2.01-22.65,.75-30.83,8.55-25.27,26.8-47.24,50.07-60.29l2.47-1.38v2.83c.04,14.89-1.38,27.37-4.33,38.17-3.98,14.49-11,26.25-20.33,34.01-3.75,3.11-7.94,5.66-11.99,8.13-5.08,3.09-9.87,6-13.94,9.95l-1.79,1.74Zm49.06-89.11c-21.38,12.79-38.09,33.43-46.07,57.02-2.4,7.1-4.67,16.35-1.62,26.24,3.91-3.37,8.34-6.06,12.63-8.68,3.95-2.41,8.04-4.89,11.6-7.85,11.11-9.25,16.6-22.69,19.25-32.33,2.68-9.81,4.06-21.09,4.21-34.4Z"/>
      <path class="cls-1" d="M103.87,151.28l-1.17-7.51c-4.72-30.4-14.57-59.5-29.3-86.51l-.96-1.76c-4.5-8.21-9.15-16.7-8.95-26.21,.07-3.57,.86-7.09,1.62-10.48,1.06-4.74,2.06-9.21,1.21-13.63l-1-5.17,3.78,3.66c3.61,3.49,7.88,6.03,12.41,8.72,2.76,1.64,5.6,3.33,8.26,5.25,16.98,12.2,27.45,34.81,28.02,60.49,.49,22.23-5.57,43.63-11.43,64.33l-2.5,8.83ZM69.96,8.79c-.02,3.64-.82,7.23-1.61,10.73-.73,3.24-1.48,6.59-1.55,9.83-.19,8.62,4.25,16.72,8.54,24.55l.97,1.77c13.73,25.18,23.28,52.15,28.43,80.3,5.25-18.72,10.17-38.01,9.73-57.77-.55-24.64-10.5-46.27-26.64-57.87-2.55-1.83-5.33-3.49-8.02-5.09-3.33-1.98-6.74-4.01-9.86-6.45Z"/>
      <path class="cls-1" d="M92.5,156.79l-4.62-6.87c-7.72-11.49-18.4-20.69-30.9-26.62-3.29-1.55-6.83-2.95-10.25-4.3-9.81-3.87-19.95-7.87-26.53-16.36-8.02-10.34-8.37-24.1-8.02-38.47l.15-6.2,2.97,5.44c2.88,5.29,9.69,6.73,16.28,8.12,1.44,.31,2.87,.61,4.24,.95,15.06,3.71,28.81,14.76,38.72,31.12,7.4,12.21,12.74,26.95,16.34,45.06l1.61,8.12ZM15.43,68.78c-.1,12.07,.86,23.39,7.4,31.82,6.02,7.77,15.3,11.43,25.12,15.31,3.47,1.37,7.06,2.79,10.45,4.39,10.69,5.07,20.11,12.43,27.6,21.53-3.43-14.36-8.13-26.36-14.29-36.52-9.45-15.6-22.48-26.11-36.68-29.62-1.34-.33-2.73-.62-4.14-.92-5.41-1.15-11.37-2.41-15.47-6Z"/>
      <path class="cls-1" d="M100.43,229.89l-2.97-1.09C58.5,214.49,24.11,187.87,3.11,155.77l-3.11-4.75,5.18,2.33c8.13,3.66,17.61,4.04,26.79,4.41,11.41,.46,23.22,.94,32.72,7.67,5.21,3.68,9.1,8.93,12.53,14.04,10.67,15.91,18.63,32.73,22.42,47.36l.79,3.07ZM8.78,158.22c20.23,28.78,51.47,52.67,86.78,66.32-3.98-13.52-11.39-28.74-21.1-43.22-3.25-4.85-6.92-9.81-11.69-13.18-8.7-6.16-19.5-6.6-30.94-7.06-7.73-.31-15.67-.63-23.06-2.86Z"/>
      <path class="cls-1" d="M139.16,298.52l-3,.53c-11.23,1.98-24.52,1.87-37.38,1.76-13-.09-27.75-.19-40.32-6.92-16.45-8.79-25.12-26.45-33.27-45.31l-.69-1.6,2.14-.8c19.09-6.93,41.95-4.03,62.72,7.95,18.77,10.83,34.16,27.47,47.73,42.16l2.06,2.23ZM28.96,248.89c7.7,17.68,16.03,34.03,31.08,42.08,11.85,6.34,26.16,6.44,38.78,6.53,11.55,.09,23.46,.19,33.74-1.24-13.42-14.5-27.42-29.2-44.84-39.25-19.49-11.24-40.83-14.18-58.75-8.11Z"/>
      <path class="cls-1" d="M145.63,355.31c-5.34-3.15-13.56-.05-21.04,2.78l-.49,.19c-.97,.37-1.95,.73-2.92,1.09-9.48,3.44-22.04,7.3-35.2,6.64-14.7-.75-27.49-7.41-34.2-17.83-4.89-7.59-6.39-16.67-7.21-24.56l-.2-1.94,1.95,.11c42.73,2.42,75.81,12.48,101.13,30.74l-1.81,2.78Zm-18.67-1.65c3.99-1.45,8.05-2.69,11.85-2.95-23.46-14.78-53.25-23.14-90.73-25.49,.83,7.01,2.36,14.76,6.49,21.16,6.13,9.52,17.94,15.62,31.58,16.31,12.57,.63,24.72-3.11,33.9-6.45,.96-.35,1.92-.71,2.88-1.07l.49-.19c1.17-.44,2.35-.89,3.54-1.32Z"/>
      <path class="cls-1" d="M187.29,411.09l-4.31,.51c-10.93,1.27-21.79,4.26-32.29,7.15-8.82,2.43-17.93,4.93-27.13,6.45-24.67,4.07-46.05-1.1-58.65-14.21l-1.3-1.36,1.51-1.13c10.73-8,21.82-16.27,34.3-21.86,1.81-.8,3.65-1.56,5.53-2.23,12.29-4.46,24.36-5.43,34.91-2.81,12.53,3.14,22.66,10.92,33.39,19.15,3.4,2.61,6.91,5.3,10.5,7.83l3.55,2.5Zm-118.65-1.07c11.99,11.32,31.67,15.66,54.38,11.9,9.03-1.49,18.06-3.98,26.79-6.38,9.31-2.56,18.89-5.2,28.64-6.69-2.46-1.81-4.87-3.66-7.22-5.47-10.45-8.02-20.32-15.59-32.18-18.56-9.91-2.46-21.31-1.52-32.98,2.71-1.8,.65-3.57,1.37-5.3,2.14-11.55,5.17-22.02,12.81-32.13,20.34Z"/>
      <path class="cls-1" d="M212.74,461.06h0c-3.31,1.2-6.65,2.18-9.92,2.91-9.89,2.2-19.9,2.44-29.24,2.36-4.54-.04-8.94-.26-12.8-2.3-3.53-1.88-5.96-4.96-8.31-7.94-1.73-2.19-3.36-4.25-5.37-5.85l-.97-.76,.45-1.14c2.94-7.48,9.92-12.99,18.79-14.96,7.93-1.77,16.18-.76,23.2,.46,17.32,3.02,30.97,8.23,41.74,15.94l2.03,1.45-2.12,1.31c-5.68,3.51-11.56,6.37-17.48,8.52Zm-62.61-12.6c1.87,1.68,3.43,3.66,4.94,5.57,2.24,2.83,4.35,5.51,7.26,7.06,3.21,1.7,7,1.87,11.27,1.91,9.14,.07,18.93-.15,28.49-2.28,3.13-.7,6.33-1.63,9.51-2.79h0c4.95-1.8,9.87-4.11,14.67-6.91-10.03-6.62-22.58-11.19-38.28-13.93-6.7-1.16-14.55-2.13-21.92-.49-1.21,.27-2.4,.62-3.54,1.03-4.13,1.5-9.53,4.58-12.42,10.82Z"/>
      <path class="cls-1" d="M160.04,317.32l-3.18-.97c1.58-5.15,3.87-10.07,6.82-14.6l2.78,1.81c-2.78,4.28-4.94,8.91-6.43,13.76Z"/>
      <path class="cls-1" d="M202.58,393.7l-3.31,.3c-.49-5.43-.17-10.93,.93-16.34l3.25,.66c-1.04,5.09-1.33,10.27-.87,15.38Z"/>
      <path class="cls-1" d="M233.97,439.17l-3.27-.59c.54-2.98,1.27-5.96,1.92-8.59l3.22,.79c-.63,2.58-1.36,5.51-1.87,8.39Z"/>
      <path class="cls-1" d="M216.81,421.23c-2.18-1.56-5.14-2.25-7.51-2.81-9.34-2.21-18.67-4.44-28.01-6.67l.77-3.23c9.34,2.23,18.67,4.46,28,6.67,2.66,.62,5.97,1.39,8.69,3.34l-1.93,2.7Z"/>
      <path class="cls-1" d="M242.93,455.1c-4.76-.71-9.65-1.22-14.55-1.54l.21-3.31c4.99,.32,9.98,.85,14.83,1.57l-.49,3.28Z"/>
      <path class="cls-1" d="M185.93,372.6c-2.86-1.68-5.7-3.29-8.54-4.9l-.32-.18c-2.75-1.55-5.6-3.16-8.49-4.48-3.91-1.77-8.09-3.11-12.13-4.41l-14.33-4.6,1.01-3.16,14.33,4.6c4.13,1.32,8.4,2.7,12.49,4.55,3.02,1.38,5.93,3.02,8.74,4.61l.32,.18c2.86,1.62,5.71,3.24,8.58,4.92l-1.67,2.87Z"/>
      <path class="cls-1" d="M157.07,311.08l-1.89,.07-1,.95c-5.62-5.86-13.03-9.91-20.21-13.82l1.59-2.92c7.39,4.03,15.04,8.2,21.01,14.43l.46,.85,.03,.42Z"/>
      <path class="cls-1" d="M132.76,250.92l-2.65-2c3.93-5.18,6.85-11.25,9.67-17.13l2.99,1.44c-2.89,6.02-5.88,12.25-10.02,17.7Z"/>
      <path class="cls-1" d="M130.15,251.42c-4.43-5.15-10.41-8.46-16.73-11.96-6.01-3.32-12.22-6.76-16.99-11.93l2.44-2.25c4.4,4.78,10.11,7.94,16.15,11.28,6.3,3.49,12.82,7.09,17.64,12.7l-2.52,2.16Z"/>
      <path class="cls-1" d="M115.91,192.47l-3.31-.2c.18-2.97,.83-5.86,1.47-8.65,.43-1.88,.86-3.76,1.14-5.66,.31-2.11,.45-4.32,.58-6.45,.22-3.74,.45-7.61,1.64-11.33l3.16,1.01c-1.06,3.33-1.27,6.83-1.49,10.52-.13,2.2-.27,4.48-.6,6.73-.29,2.01-.74,4-1.18,5.92-.63,2.78-1.23,5.41-1.39,8.11Z"/>
      <path class="cls-1" d="M112.19,189.27c-1.75-3.62-4.1-6.9-7-9.75-.59-.58-1.2-1.14-1.81-1.69-.99-.91-1.98-1.82-2.89-2.8-2.17-2.32-3.84-4.99-5.33-7.52-4.32-7.42-7.73-15.36-10.11-23.6l3.19-.92c2.3,7.97,5.6,15.66,9.79,22.85,1.39,2.37,2.94,4.85,4.89,6.94,.86,.92,1.78,1.77,2.7,2.61,.64,.58,1.28,1.17,1.9,1.78,3.17,3.12,5.75,6.71,7.66,10.67l-2.99,1.45Z"/>
      <path class="cls-1" d="M275.73,350.16c-1.23,.46-1.83,1.92-2.71,2.84-6.02,7.78-11.25,16.14-16.02,24.73-9.21,16.83-16.75,34.63-22.36,52.98,3.95-12.7,11.12-24.91,18.11-36.49,6.15-9.6,11.43-19.91,18.2-29.04-1.54,2.99-3.23,5.94-4.81,8.88-1.92,3.42-3.98,6.74-6.07,10.06,3.65-3.8,7.21-7.86,9.75-12.49,2.1-5.32,3.55-10.89,5.14-16.38,.35-1.6,.88-3.18,.91-4.82,0-.11-.02-.26-.13-.27Z"/>
      <path class="cls-1" d="M206.2,231.42c-18.66,20.72-29.46,46.8-41.82,71.46,12.1-19.01,23.15-38.65,35.47-57.52,1.72-2.66,3.25-5.49,5.2-8-.38,.88-.78,1.75-1.14,2.64-1.21,2.94-2.36,5.9-3.5,8.88,1.81-4.41,4.13-8.61,5.9-13.02,.05,.04,.04,.11,.03,.17,.11-.34,.21-.68,.32-1.02,.65-1.7,1.22-3.45,1.62-5.25,.6-1.77-1.81,1.27-2.08,1.66Z"/>
      <g>
        <path class="cls-1" d="M233.39,312.35c-7.87,12.99-14.98,26.43-21.43,40.18-3.38,7.6-7.26,15.24-9.33,23.33,1.65-5.33,5.5-11.88,9.33-19.14,8.27-15.34,15.86-31.05,23.23-46.85,.35-.74,.68-1.48,1.01-2.22-.95,1.56-1.9,3.12-2.82,4.69Z"/>
        <path class="cls-1" d="M202.61,375.87c-.36,1.17-.61,2.29-.74,3.34,.23-1.12,.47-2.24,.74-3.34Z"/>
      </g>
      <path class="cls-1" d="M175.87,155.9c-9.96,25.49-22.95,49.76-32.51,75.41-.38,.83-.78,1.64-1.15,2.47,.19-.3,.38-.61,.57-.91-.14,.42-.32,.82-.48,1.25,.2-.51,.44-1.02,.66-1.53,11.16-17.73,21.11-36.3,28.68-55.85-5.25,10.22-10.76,20.27-16.13,30.41,8.4-17.77,15.53-36.11,21.7-54.77,1.09-3.26-.85,2.32-1.34,3.52Z"/>
      <path class="cls-1" d="M206.01,450.34c-4.81,.07-9.64-.63-14.45-.32,5.85,1.21,11.61,3.09,17.64,3.13,7.28,.22,14.92-1.21,21.92-1.96-8.33-1.21-16.76-.89-25.11-.86Z"/>
      <path class="cls-1" d="M183.02,409.18c-7.47-3.26-13.48-5.67-21.25-6.92-11.7-1.72-23.82-1.23-35.38,1.17,7.44-.07,15.13,.88,23.26,1.44,11.27,.94,21.65,1.82,32.19,4.59,1.13,.25,2.54,.56,3.48,.78-.76-.34-1.53-.71-2.31-1.07Z"/>
      <path class="cls-1" d="M111.09,342.1c-14.16-.83-26.77,.52-40.46-3.31,13.37,6.52,28.51,6.9,43.08,7.31,5.09,.08,20.16,1.85,29.64,4.28-7.01-3.33-21.88-7.75-32.26-8.29Z"/>
      <path class="cls-1" d="M133.93,294.38c-3.62-2.77-8.83-8.18-13.52-11.49-15.49-10.62-36.91-18.52-57.09-21.49,12.65,3.67,24.6,9.36,36.5,14.91,13.69,6.23,22.74,11.69,31.99,19.12-.22-.01-.45-.03-.76-.05-3.64-.25-7.33-.55-10.95-.79,.15,.03,.29,.07,.44,.1,4.49,1.03,8.94,2.38,13.52,2.86,.46,.04,.91-.07,1.24-.43,.91-1.09-.95-2.43-1.37-2.75Z"/>
      <path class="cls-1" d="M96.93,224.46c-10.83-14.57-32-40.8-50.29-44.15,8.76,3.12,15.04,10.89,21.67,17.4,9.06,9.35,18.91,17.91,28.05,27.19,.92,.93,2.27,2.28,2.98,2.91-.77-1.12-1.56-2.26-2.42-3.35Z"/>
      <path class="cls-1" d="M65.72,203.19c5.38,3.29,9.87,7.79,14.79,11.67,4.92,3.87,11.68,8.36,16.16,11.26-9.06-9.05-18.89-18.18-30.95-22.93Z"/>
      <path class="cls-1" d="M143.74,117.63c-11.54,13.88-23.54,29.01-25.75,47.53,1.81-6.54,5.11-12.64,8.47-18.54,5.15-9.16,9.59-15.68,14.61-23.8,1.23-2.02,2.45-4.19,3.5-6.22-.27,.33-.55,.68-.83,1.02Z"/>
      <path class="cls-1" d="M94.24,59.86c2.57,10.79,3.38,22.09,4.72,33.17,1.69,14.39,4.06,28.7,6.41,42.99,.15,.86,.26,1.9,.34,2.63,.13-1.19,.17-2.39,.2-3.58,.33-25.42-1.73-51.56-11.66-75.21Z"/>
      <path class="cls-1" d="M80.22,131.63c-5.79-8.95-13.58-16.4-21.18-23.8-2.83-3.09-6.04-5.42-7.56-9.55,.34,2.88,2.06,5.34,3.59,7.74,6.63,10.29,16.46,17.72,24.97,26.3,.33,.32,1.26,1.43,1.57,1.74-.46-.82-.91-1.63-1.39-2.43Z"/>
    </g>
  </g>
</svg>