<?xml version="1.0" encoding="UTF-8"?>
<svg id="Layer_2" data-name="Layer 2" xmlns="http://www.w3.org/2000/svg" viewBox="0 0 301.13 452.74">
  <defs>
    <style>
      .cls-1 {
        fill: #6c7254;
      }
    </style>
  </defs>
  <g id="Layer_1-2" data-name="Layer 1">
    <path class="cls-1" d="M74.46,168.41c-.26,.22-.4,.56-.17,.95,.67,1.17,1.35,2.32,2.07,3.46,5.7,9.12,12.75,17.34,18.12,26.68,5.37,9.33,8.23,19.64,9.69,30.25,1.52,11.07,1.62,22.27,2.24,33.41,.13,2.3,.29,4.61,.48,6.91-.07,.11-.09,.24-.02,.39,.02,.05,.04,.09,.06,.13,.71,8.38,1.95,16.72,4.55,24.74,1.53,4.71,3.47,9.3,5.98,13.57,2.51,4.28,5.56,8.09,9.28,11.38,.02,.01,.03,.02,.05,.03-.68,4.77-1.59,9.5-2.65,14.2-14.23,20.19-30.04,39.27-47.46,56.78-.14,.14-.28,.27-.41,.41-.04,.03-.08,.07-.11,.11-2.25,2.25-4.53,4.45-6.83,6.63,.42-1.06,.8-2.15,1.12-3.24,.23-.79,.45-1.62,.58-2.45,.5-.73,1.01-1.46,1.49-2.21,6.55-10.24,11.32-21.5,15.68-32.82,2.15-5.58,4.28-11.19,6.21-16.85,1.85-5.41,3.45-10.94,4.31-16.6,1.57-10.35,.01-20.79-3.24-30.67-3.33-10.08-8.26-19.49-13.33-28.78-2.68-4.91-5.37-9.81-7.9-14.8-2.26-4.46-4.31-9.02-6.26-13.62,.1-1.07,.19-2.13,.29-3.2,.03-.3,.07-.62,.1-.94,.12-.46,.25-.93,.35-1.4,.11-.54-.29-.92-.7-.95-.21-.25-.7-.27-.92-.04-.73,.78-.65,2.05-.69,3.09-.17,.5-.34,1.01-.52,1.51-3.78,11.07-9.46,21.36-14.55,31.86-3.27,6.73-6.32,13.64-8.42,20.83-.36,.14-.6,.57-.25,.9-.98,3.5-1.76,7.06-2.18,10.7-.85,7.31-.21,14.59,1.35,21.7-.06,.15-.06,.32,.06,.49,.02,.03,.05,.07,.07,.1,.73,3.21,1.62,6.38,2.67,9.51,3.53,10.45,8.46,20.32,13.14,30.28,2.4,5.11,4.74,10.26,6.77,15.53,1.05,2.72,2.01,5.47,2.88,8.25,.69,2.2,1.26,4.44,1.91,6.65-.88,.91-1.26,2.45-1.73,3.55-.62,1.46-1.29,2.9-1.98,4.33-.69,1.42-1.42,2.82-2.18,4.21-.19,.35-.43,.73-.67,1.13-10.78,9.78-22.08,18.89-33.82,27.46,.06-.12,.12-.24,.18-.36,.67-1.27,1.31-2.55,1.94-3.84,1.19-2.42,2.34-4.85,3.44-7.31,2.29-5.11,4.48-10.27,6.37-15.54,.12-.35-.39-.5-.53-.18-2.32,5.11-4.62,10.23-7.13,15.25-.1-.29-.2-.57-.3-.86-.27-.77-.54-1.53-.81-2.3-.55-1.55-1.15-3.09-1.72-4.63-.16-.42-.86-.17-.74,.26,.47,1.58,.91,3.17,1.4,4.74l.75,2.4c.12,.38,.24,.75,.35,1.13,.08,.28,.14,.6,.24,.89-.99,1.96-1.98,3.93-2.99,5.88-.61,1.16-1.22,2.33-1.83,3.49-.51,.98-1.1,1.96-1.41,3.02-8.37,6-16.94,11.74-25.74,17.2-.85,.53-.2,1.91,.71,1.42,3.54-1.93,7.03-3.94,10.47-6.04,13.31-8.1,25.97-17.31,38.01-27.28,8.26-1.32,16.46-3.09,24.46-5.53,.33-.1,.24-.61-.11-.54-6.95,1.47-13.93,2.76-20.96,3.76,2.05-1.51,3.93-3.3,5.79-5.01,1.25-1.15,2.48-2.32,3.69-3.51,.07-.01,.14-.02,.22-.06,.68-.36,1.22-1.03,1.68-1.77,.08-.12,.15-.21,.22-.3,.11-.11,.22-.22,.33-.34,.04-.04,.06-.08,.08-.13,4.85-4.48,9.59-9.07,14.2-13.76,3.83-1.13,7.65-2.21,11.59-2.98,4.79-.93,9.63-1.58,14.46-2.3,8.42-1.27,16.93-2.8,24.69-6.45,8.34-3.93,15.32-10.15,21.5-16.89,6.75-7.36,12.85-15.31,19.13-23.06,3.5-4.32,7-8.64,10.47-12.98,1.72-2.15,3.43-4.3,5.15-6.44,1.75-2.19,3.57-4.34,5.03-6.74,.13-.22-.15-.49-.35-.31-.13-.16-.35-.25-.6-.15-4.42,1.72-8.7,3.9-12.94,6.01-4.26,2.12-8.48,4.31-12.65,6.59-4.19,2.29-8.33,4.67-12.43,7.12-.08,.03-.15,.07-.21,.13-10.3,6.16-20.33,12.79-30.03,19.86-6.83,4.97-13.56,10.12-20.07,15.52-2.05,1.7-4.07,3.43-6.09,5.18,17.4-19.82,32.97-41.23,46.76-63.72,1.1-.6,2.17-1.24,3.24-1.86,1.44-.83,2.88-1.68,4.31-2.55,2.85-1.73,5.7-3.47,8.5-5.28,5.57-3.61,11.13-7.28,16.48-11.23,.2-.15-.03-.49-.24-.36-4.64,2.9-9.26,5.81-13.92,8.67,2.16-3.61,4.36-7.21,6.35-10.91,.2-.38-.31-.73-.56-.37-2.79,3.95-5.33,8.08-7.95,12.15-.12,.18-.13,.37-.09,.53-.31,.19-.61,.38-.92,.57-2.9,1.75-5.81,3.5-8.74,5.2-1.39,.81-2.78,1.63-4.17,2.44-.22,.13-.44,.25-.66,.37,.25-.41,.51-.81,.75-1.23,7.31-12.18,14.08-24.67,20.36-37.4,.25,.1,.53,.11,.8-.05,1.37-.83,2.71-1.7,4.04-2.6,4.48-.52,8.95-1.28,13.37-2.2,4.58-.95,9.1-2.2,13.47-3.88,7.52-2.9,14.39-7.24,19.69-13.35,5.61-6.47,9.35-14.3,12.77-22.08,3.74-8.52,7.38-17.09,11.08-25.63,3.49-8.07,7.19-16.1,10.32-24.32,.06,0,.11,0,.16-.02,.08-.02,.17-.05,.24-.09,.08-.04,.15-.09,.2-.15,.06-.06,.13-.13,.17-.21,.16-.25,.22-.54,.17-.83-.03-.17-.11-.32-.22-.45-.05-.07-.12-.12-.19-.18-.02-.02-.05-.04-.08-.06-.08-.04-.16-.09-.24-.12s-.18-.04-.26-.05c-.12-.02-.25,0-.36,0-.04,0-.07,.03-.11,.04,0-.01-.01-.02-.02-.03-7.59,.85-14.87,3.67-21.4,7.6-14.32,8.63-24.56,22.39-33.66,36.1-10.13,15.28-18.91,31.34-26.63,47.96-.04,.1-.06,.18-.06,.27-.59,.41-1.17,.83-1.76,1.24,8.25-17,15.62-34.43,22.18-52.15,4.2-11.35,8.05-22.83,11.62-34.39,.19,.04,.4,0,.6-.16,1.22-.98,2.17-2.49,3.15-3.7,.98-1.2,1.96-2.41,2.93-3.62,1.94-2.42,3.85-4.87,5.77-7.31,3.91-4.97,7.97-9.81,11.71-14.92,.16-.21-.17-.51-.35-.31-2.87,3.14-5.61,6.41-8.33,9.67,.93-2.63,1.6-5.34,2.03-8.11,.06-.38-.57-.49-.67-.13-.94,3.63-2.22,7.18-3.77,10.59-.09,.2-.08,.38,0,.52-.48,.57-.95,1.14-1.43,1.71-2.01,2.38-4.05,4.73-6.05,7.12-1.04,1.24-2.06,2.48-3.09,3.73-.47,.57-1.02,1.15-1.53,1.75,4.73-15.6,8.93-31.37,12.65-47.24,3.68-1.66,7.3-3.47,10.83-5.42,.06,.11,.15,.22,.29,.31,4.69,3.19,10.62,3.87,16.1,2.78,5.45-1.08,10.44-3.76,15.04-6.8,17.03-11.27,29.51-28.47,36.66-47.47,3.7-9.83,6.03-20.18,7.13-30.61,.56-5.32,.82-10.66,.82-16.01,0-5.27-.17-10.59-.9-15.82-.04-.29-.36-.35-.59-.25-.33-.56-1.33-.68-1.6,.13-3.19,9.46-8,18.25-13.63,26.48-10.02,14.63-22.44,27.31-33.65,40.99-5.61,6.84-11.01,13.91-15.61,21.47-2.26,3.71-4.34,7.54-6.2,11.46-1.77,3.73-3.4,7.61-4.48,11.6-3.17,1.76-6.39,3.43-9.68,4.95,1.36-5.88,2.68-11.77,3.92-17.68,2.77-13.23,5.24-26.52,7.44-39.86,.78-.59,1.41-1.39,2.04-2.13,.98-1.15,1.92-2.34,2.81-3.56,1.72-2.36,3.26-4.85,4.6-7.44,9-17.43,8.8-38.68-.67-55.88-.51-.92-1.98-.19-1.47,.74,.12,.21,.22,.43,.33,.64-.04,.08-.08,.16-.1,.27-.83,5.4-3.08,10.44-5.55,15.27-4.25,8.31-9.26,16.62-9.73,26.19-.45,9.04,2.64,17.68,5.91,25.96,.03,.09,.1,.14,.16,.18-2.99,17.65-6.4,35.23-10.42,52.7-1.98,8.59-4.09,17.15-6.34,25.67-1.52-7.01-3.61-13.92-5.67-20.79,2.63-5.98,4.29-12.36,4.95-18.85,.58-5.78,.38-11.64-.64-17.36-.33-1.87-.79-3.72-1.29-5.55,.05-.27,.12-.53,.17-.8,.04-.28-.27-.38-.47-.27-.94-3.26-2.08-6.46-3.34-9.6-2.12-5.29-4.53-10.46-6.73-15.73-1.1-2.63-2.16-5.29-3.08-7.99-.79-2.31-1.4-4.65-2.07-6.99,.01-.02,.02-.05,.03-.07-.15-.06-.3-.13-.45-.21-.21-.12-.43-.22-.65-.33-.1-.04-.21-.08-.31-.12-.07-.02-.15-.04-.22-.06,0,0,0,0,0,0-3.02,6.94-6.07,13.89-8.24,21.16-3.43,11.46-4.76,23.95-.48,35.39,4.12,11,12.73,19.6,21.18,27.42,.05,.29,.29,.49,.58,.56,.03,.09,.06,.18,.08,.28,2.16,7.18,4.11,14.42,6.18,21.62-6.8,25.51-14.89,50.67-24.6,75.22-.94,2.37-1.89,4.73-2.86,7.08-1.28-3.98-2.73-7.9-4.11-11.84,2.1-8.99,3.8-18.1,5.63-27.14,1.62-8.02,3.1-16.1,2.54-24.32-.51-7.43-2.28-14.71-4.86-21.69-5.71-15.47-15.35-29.22-25.02-42.43-.54-.74-1.43-.21-1.55,.51-.2,.18-.38,.38-.55,.6-.27,.35-.52,.72-.73,1.12-.22,.41-.42,.83-.6,1.27-.19,.48-.27,.9-.19,1.42,0,.06,.04,.1,.07,.14-3.76,8.94-7.13,18.04-9.98,27.31-1.4,4.53-2.68,9.09-3.84,13.69-1.07,4.23-2.13,8.5-2.74,12.83-.58,4.15-.66,8.39,.23,12.51,.83,3.86,2.4,7.55,4.35,10.97,4.15,7.28,9.81,13.81,15.76,19.66,6.09,5.99,12.85,11.36,20.24,15.66-.03,.16-.06,.31-.08,.47-.06,.4,.61,.52,.7,.13,.02-.07,.03-.14,.05-.21,.08,.05,.17,.1,.25,.15,0,0,.01,0,.02,0,1.24,3.37,2.55,6.71,4.06,9.95,0,.02,.03,.02,.04,.03-3.25,7.89-6.69,15.7-10.29,23.43-2.41-4.91-4.61-9.93-6.68-15,.44-.62,.58-1.59,.77-2.29,.22-.85,.4-1.72,.58-2.58,.37-1.73,.6-3.49,.76-5.25,.04-.47-.64-.48-.72-.04-.31,1.72-.73,3.42-1.17,5.11-.22,.82-.47,1.63-.73,2.43-.08,.25-.17,.5-.25,.75-1.21-3-2.39-6.02-3.52-9.04-.15-.4-.84-.15-.7,.25,1.19,3.47,2.48,6.9,3.81,10.31,0,.08,0,.15,0,.23,.02,.14,.11,.25,.21,.33,2.15,5.47,4.43,10.89,6.79,16.28,.02,.05,.06,.08,.08,.12-9.23,19.66-19.58,38.78-31.22,57.13-3.75,5.91-7.63,11.73-11.63,17.47,.98-3.96,1.73-7.97,2.33-12,.1-.05,.2-.13,.27-.25,.97-1.42,1.89-2.86,2.75-4.34,6.89-11.77,10.51-25.13,12.38-38.56,1.69-12.2,2.28-24.72,1.24-37-.97-11.4-3.56-22.82-8.96-32.98-5.76-10.83-14.67-19.46-25.1-25.79-10.8-6.55-22.99-10.99-35.28-13.77-.46-.1-.77,.3-.74,.66Zm63.76-17.72c.51,.59,1.11,1.14,1.58,1.64,.88,.95,1.78,1.89,2.69,2.81,1.9,1.93,3.85,3.8,5.85,5.62,1.96,1.78,3.96,3.52,6.03,5.17,1.06,.84,2.13,1.67,3.21,2.48,.83,.62,1.68,1.33,2.61,1.81,1.02,4.77,2.13,9.51,3.36,14.23,1.79,6.87,3.78,13.68,5.89,20.45-2.67-1.82-5.42-3.5-8.05-5.37-9.93-7.08-18.71-15.63-25.96-25.44-.09-.55-.19-1.09-.25-1.64-.41-4.24,.13-8.53,.96-12.69,.61-3.03,1.32-6.05,2.08-9.06Zm14.03-41.1c.05,3.51,.32,7.03,.61,10.53,.39,4.7,.86,9.4,1.41,14.09,1.35,11.54,3.2,23.07,5.59,34.46-.54-.43-1.11-.83-1.64-1.24-1.07-.83-2.12-1.69-3.16-2.55-2.04-1.69-4.06-3.41-6.02-5.2-1.95-1.79-3.86-3.63-5.71-5.52-.91-.93-1.8-1.86-2.68-2.81-.63-.68-1.27-1.61-2.04-2.2,1.38-5.28,2.92-10.52,4.6-15.69,2.63-8.1,5.65-16.07,9.04-23.88Zm13.06,34.8c-1.07,1.97-2.21,3.9-3.42,5.79-.99,1.53-2.08,2.99-3.12,4.48-1.36-7.82-2.52-15.68-3.43-23.56-.48-4.17-.9-8.34-1.25-12.52-.31-3.65-.56-7.31-1-10.95,.06-.13,.11-.26,.17-.39,.05-.11,.07-.2,.07-.3,5.13,7.25,10.34,14.42,14.89,22.07,.81,1.36,1.59,2.73,2.36,4.12-1.69,3.79-3.27,7.6-5.26,11.26Zm9.59,33.45c-1.31,2.52-2.71,5-4.23,7.4-1.25,1.98-2.72,3.87-3.92,5.89-3.03-11.42-5.58-22.98-7.65-34.59,1.51-1.76,2.79-3.79,4.03-5.74,1.24-1.94,2.41-3.92,3.49-5.95,1.78-3.35,3.47-6.84,4.64-10.46,4.74,8.77,8.53,18.1,10.27,27.88-.3,1.34-.94,2.7-1.42,3.97-.5,1.3-1.02,2.59-1.56,3.87-1.11,2.62-2.33,5.2-3.64,7.73Zm.19,40.71c-1.49-4.32-2.91-8.66-4.26-13.03-1.34-4.37-2.59-8.77-3.78-13.19,1.77-1.92,3.15-4.28,4.51-6.49,1.52-2.47,2.98-4.97,4.33-7.54,1.32-2.51,2.55-5.06,3.68-7.66,.55-1.28,1.09-2.56,1.59-3.86,.27-.69,.5-1.41,.74-2.13,.34,2.4,.56,4.83,.63,7.28,.24,8.42-1.5,16.68-3.15,24.89-1.45,7.24-3,14.47-4.3,21.74Zm-.5,2.85c-7.7-5.31-14.98-11.2-21.43-17.99-5.6-5.9-11.04-12.41-14.64-19.75-1.06-2.16-1.9-4.41-2.51-6.73,1.6,2.07,3.25,4.11,4.99,6.07,4.1,4.61,8.57,8.88,13.34,12.77,4.71,3.84,9.79,7.64,15.3,10.24,.05,.02,.08,0,.13,0,.32,1.01,.61,2.04,.94,3.05,1.27,3.95,2.57,7.92,3.97,11.86-.03,.16-.06,.32-.08,.48Zm3.44-137c3.93,5.4,8.77,10.17,14.33,13.87,.7,2.71,1.42,5.41,2.2,8.09,1.89,6.54,3.88,13.05,5.85,19.57-4.24-4.38-8.53-8.74-12.26-13.56-3.48-4.51-6.47-9.5-8.19-14.96-1.33-4.21-1.91-8.61-1.93-13.01Zm3.6-20.83c.78,1.98,1.6,3.94,2.53,5.85,1.09,2.28,2.26,4.52,3.75,6.56,.32,2.35,.68,4.71,1.1,7.05-.02,.12,0,.23,.06,.33,.82,4.54,1.83,9.05,2.95,13.52-5.42-3.99-10.15-8.76-13.96-14.32,.02-.81,.06-1.63,.12-2.44,.42-5.68,1.71-11.18,3.44-16.56Zm5.42-13.93c-.12,1.25-.21,2.51-.27,3.76-.19,3.82-.17,7.64,.04,11.45,.16,2.95,.43,5.88,.79,8.81-.78-1.64-1.59-3.26-2.36-4.9-1.08-2.3-2.07-4.65-2.99-7.02,1.41-4.1,3.06-8.13,4.8-12.1Zm9.89,18.28c-1.2,2.52-2.36,5.05-3.65,7.52-.67,1.28-1.37,2.54-2.1,3.78-.32,.55-.65,1.09-.99,1.64-1-6.09-1.69-12.23-1.87-18.4-.1-3.4-.07-6.81,.13-10.21,.1-1.65,.24-3.29,.39-4.93,.01-.12,.03-.24,.04-.37,.47,1.78,1.05,3.54,1.65,5.26,1.02,2.96,2.17,5.86,3.39,8.74,.98,2.32,2,4.64,3.01,6.97Zm.95,33.27c-.7,1.32-1.56,2.59-2.28,3.91-1.98-7.31-3.76-14.68-5.08-22.14,0-.04-.01-.08-.02-.12,.71-.93,1.25-2.11,1.8-3.07,.75-1.3,1.46-2.62,2.14-3.96,1.11-2.18,2.15-4.4,3-6.69,2.47,5.71,4.84,11.47,6.41,17.47-1.08,3.03-2.06,6.09-3.34,9.06-.81,1.88-1.69,3.72-2.64,5.53Zm3.42,23.61c-1.83-6.12-3.65-12.25-5.35-18.42,.6-.76,1.07-1.68,1.56-2.52,.53-.9,1.03-1.81,1.52-2.73,.89-1.68,1.72-3.39,2.49-5.13,1.06-2.39,2.05-4.9,2.79-7.45,.32,1.42,.62,2.84,.84,4.29,1.64,10.78,.23,21.88-3.86,31.97Zm19.71-87.67c.79,1.66,1.73,3.25,2.76,4.76,.67,.99,1.39,1.95,2.17,2.85,.63,.72,1.32,1.63,2.14,2.19-1.06,7.05-2.16,14.08-3.34,21.11-1.38-4.36-2.75-8.74-3.7-13.22-.93-4.37-1.42-8.82-.89-13.28,.18-1.5,.48-2.97,.86-4.42Zm3.41-8.94c2.87-6.01,6.42-11.79,8.76-18.01-.22,1.77-.44,3.54-.67,5.31-1.32,10.04-2.72,20.07-4.22,30.08-.48-.55-1.01-1.07-1.46-1.61-.71-.87-1.4-1.76-2.04-2.69-1.28-1.86-2.33-3.85-3.27-5.89,.78-2.46,1.79-4.86,2.9-7.19Zm15.94-5.56c-1.43,1.97-2.89,3.93-4.47,5.78-.91,1.07-1.88,2.09-2.88,3.08-.47,.46-.94,.91-1.43,1.36-.04,.03-.07,.06-.11,.1,1.19-9.2,2.28-18.41,3.24-27.63,.09-.38,.18-.76,.26-1.15,1.73,3.58,3.1,7.33,4.06,11.19,.6,2.4,1.03,4.83,1.32,7.28Zm-2.3,24.03c-1.42,1.63-2.93,3.21-4.53,4.67-.93,.84-1.89,1.65-2.88,2.41-.46,.36-.93,.7-1.41,1.04-.29,.21-.61,.4-.92,.6,1.04-6.9,2.04-13.81,2.94-20.73,.53-.24,.91-.67,1.34-1.08,.47-.45,.94-.92,1.4-1.39,.92-.94,1.8-1.92,2.64-2.93,1.43-1.71,2.72-3.49,3.84-5.41,.62,6.39,.2,12.88-1.36,19.13-.31,1.24-.66,2.47-1.05,3.69Zm-11.2,20.16c-.12,.14-.25,.28-.37,.42,.57-3.49,1.09-6.99,1.62-10.49,.02,0,.04,0,.06,0,.57-.21,1.09-.66,1.59-1.02,.54-.39,1.08-.79,1.6-1.2,1.02-.8,2-1.64,2.95-2.52,1.06-.99,2.04-2.04,2.97-3.14-1.07,2.93-2.35,5.78-3.87,8.5-1.24,2.22-2.62,4.36-4.13,6.4-.77,1.04-1.58,2.06-2.42,3.05Zm55.34-24.24c-.15,1.03-.29,2.07-.41,3.11-.26,2.22-.47,4.46-.62,6.69-.15,2.29-.24,4.59-.26,6.88-.01,1.12-.01,2.24,0,3.36,.01,1.03-.03,2.1,.21,3.11,0,.02,.02,.03,.03,.05-5.99,10.65-13.28,20.56-21.75,29.4-1.41,1.47-2.85,2.9-4.32,4.3,1.19-5.96,2.7-11.86,4.36-17.7,.92-3.24,1.91-6.46,2.98-9.65,.51-1.54,1.04-3.08,1.59-4.61,.27-.77,.55-1.53,.85-2.29,.34-.86,.79-1.7,1-2.6,0-.04-.01-.07-.01-.1,2.05-2.35,4.09-4.7,6.1-7.08,3.52-4.18,6.98-8.45,10.24-12.87Zm8.82,1.87c-2.56,6.95-5.65,13.69-9.21,20.17,.03-.76-.02-1.54-.02-2.29,0-1.12,0-2.24,.03-3.36,.05-2.18,.16-4.36,.31-6.54,.15-2.18,.36-4.35,.63-6.52,.14-1.11,.28-2.22,.45-3.33,.09-.6,.21-1.2,.32-1.8,6.3-8.76,11.79-18.07,15.49-28.24-1.61,10.88-4.18,21.59-7.99,31.92Zm4.42,15.83c-.65,.62-1.26,1.3-1.88,1.94-.88,.9-1.77,1.79-2.68,2.66-1.81,1.75-3.66,3.47-5.56,5.12-1.94,1.69-3.93,3.34-5.96,4.92-1.17,.91-2.4,1.76-3.61,2.63,1.75-2.57,3.42-5.2,4.99-7.88,9.83-16.73,16.57-35.63,18.87-54.95,.18,4.26,.35,8.52,.27,12.79-.12,5.77-.56,11.53-1.34,17.26-.71,5.23-1.74,10.41-3.1,15.5Zm-22.04,42.56c-4.21,1.59-8.57,2.88-12.99,3.66-2.44,.43-4.91,.72-7.38,.85-1.19,.06-2.38,.09-3.57,.08-.22,0-.44-.01-.66-.02,9.44-7.96,17.9-17.08,25.06-27.14,0,0,0,0,0,0,2.23-1.2,4.27-2.94,6.26-4.48,2.03-1.58,4.03-3.22,5.95-4.93,1.93-1.71,3.81-3.47,5.62-5.31,.92-.94,1.83-1.89,2.73-2.85,.17-.18,.33-.36,.5-.54-3.86,13.62-10.1,26.5-18.99,37.64-.82,1.03-1.67,2.04-2.53,3.03Zm-46.59,19.95c5.21-2.98,10.25-6.26,15.07-9.85,1.84-1.37,3.63-2.79,5.4-4.25,.77,.06,1.63-.05,2.27-.05,1.29,0,2.58-.05,3.87-.13,2.43-.16,4.84-.45,7.24-.89,3.96-.72,7.8-1.84,11.49-3.38-5.35,5.91-11.46,11.16-18.24,15.35-7.92,4.9-18.49,8.63-27.09,3.2Zm3.94-13.76c2.22-4.41,4.81-8.62,7.57-12.7,7.59-11.24,16.64-21.36,25.58-31.54-.23,.71-.44,1.42-.68,2.1-.59,1.64-1.16,3.29-1.71,4.94-1.06,3.19-2.06,6.41-2.97,9.65-1.75,6.21-3.1,12.49-4.32,18.81-8.67,8.18-18.32,15.29-28.69,21.15,1.56-4.22,3.18-8.38,5.21-12.41Zm-.67,72.29c.11,3.67-.04,7.35-.46,11-.43,3.68-1.24,7.26-2,10.87-8.46,10.95-16.97,21.87-26.21,32.18-2.38,2.66-4.83,5.26-7.32,7.82,.89-3.75,1.57-7.55,2.02-11.38,.29-2.47,.49-4.94,.6-7.43,.06-1.27,.09-2.54,.1-3.81,0-1,.36-2.48-.14-3.36-.02-.04-.06-.07-.1-.1,.42-.64,.83-1.29,1.26-1.93,4.74-7.1,9.77-14.04,15.63-20.27,4.92-5.24,10.49-9.92,16.62-13.59Zm20.09-7.01c-2.79,3.33-5.42,6.82-8.09,10.24-3.17,4.06-6.34,8.12-9.5,12.2-1.2,1.55-2.39,3.1-3.58,4.64,.75-2.85,1.21-5.8,1.55-8.71,.46-3.92,.6-7.87,.44-11.81,0-.03-.01-.05-.02-.08,5.8-3.35,12.09-5.78,18.8-6.91,0,.04,.01,.09,.03,.13,.05,.09,.11,.16,.19,.22,.05,.04,.11,.06,.18,.07Zm-20.85,47.58c-.63-.11-1.35,.03-1.95,.1-.86,.11-1.72,.22-2.58,.38-1.71,.31-3.4,.7-5.08,1.16-1.68,.46-3.34,.99-4.98,1.6-.81,.3-1.62,.62-2.42,.95-.08,.03-.17,.07-.25,.1,2.78-3.4,5.5-6.84,8.17-10.3,5.23-6.77,10.34-13.63,15.48-20.47,2.77-3.68,5.51-7.39,8.26-11.09,1.55-2.08,3.12-4.14,4.65-6.23-3.62,7.65-6.86,15.51-10.26,23.25-3.01,6.86-6,13.73-9.06,20.56Zm-13.64,23.91c-5.26,.49-10.51,1.68-15.65,2.89-2.58,.61-5.15,1.27-7.71,1.98-1.28,.36-2.55,.73-3.82,1.11-.05,.01-.1,.03-.14,.04,7.94-7.38,15.23-15.43,22.14-23.78,.01,0,.02,0,.04,0,.78-.07,1.59-.6,2.31-.9,.8-.34,1.61-.66,2.42-.96,1.62-.6,3.27-1.13,4.93-1.59,1.63-.45,3.28-.82,4.95-1.14,.85-.16,1.7-.33,2.56-.46,.38-.06,.8-.11,1.2-.2-.51,1.14-1.01,2.29-1.52,3.42-3.14,6.9-6.68,13.82-11.66,19.59-.01,0-.02-.01-.04-.01Zm-42.38,18.58c4.56-3.31,8.9-6.95,13.05-10.72,.86-.23,1.72-.57,2.54-.82,1.21-.38,2.43-.74,3.65-1.09,2.55-.74,5.11-1.42,7.69-2.05,4.9-1.2,9.86-2.05,14.78-3.11-.35,.38-.68,.78-1.04,1.15-5.6,5.77-12.81,9.64-20.4,12.15-4.04,1.34-8.19,2.32-12.37,3.13-2.63,.51-5.27,.93-7.92,1.36Zm10.57-26.42c3.73-6.63,7.68-13.13,11.83-19.51,0,.7,.14,1.44,.14,2.07,0,1.21-.02,2.43-.06,3.64-.08,2.43-.25,4.85-.51,7.26-.45,4.28-1.18,8.54-2.14,12.74-2.88,2.92-5.84,5.75-8.9,8.49-4.23,3.79-8.67,7.26-13.26,10.56,3.92-8.6,8.25-17.02,12.88-25.25ZM44.44,324.61c1.56,2.19,3.12,4.39,4.68,6.58,4.25,5.98,8.5,11.96,12.73,17.95,2.1,2.97,4.19,5.95,6.3,8.92,1.07,1.51,2.14,3.01,3.21,4.52,1.01,1.42,1.97,2.91,3.1,4.23-.67,8.19-2,16.31-4.28,24.23-.14-.85-.31-1.7-.52-2.56-2.66-10.87-7.42-21.09-12.17-31.17-4.67-9.92-9.44-19.88-12.47-30.45-.21-.74-.4-1.49-.59-2.24Zm-.44-35.22c2.15,2.01,4.25,4.06,6.29,6.18,4.38,4.55,8.5,9.35,12.35,14.36,1.94,2.53,3.81,5.1,5.61,7.73,.92,1.34,1.82,2.7,2.69,4.07,.7,1.09,1.36,2.18,2.17,3.19,.52,4.53,.98,9.07,1.31,13.62,.22,3.05,.38,6.11,.48,9.18-.04,.09-.09,.17-.13,.26-.12,.25-.02,.46,.16,.57,.15,5.68,.04,11.37-.37,17.03-.88-1.39-1.89-2.7-2.83-4.04-1.17-1.66-2.34-3.32-3.51-4.97-8.14-11.54-16.31-23.05-24.45-34.6-2.05-8.92-2.72-18.06-1.04-27.15,.34-1.83,.78-3.63,1.26-5.42Zm21.93-45.4c0,.24,.12,.4,.26,.49-.45,4.93-.46,9.93-.34,14.87,.14,5.73,.56,11.46,1.11,17.16,.59,6.16,1.37,12.3,2.19,18.44,0,.04-.02,.07-.02,.11,0,.09,.03,.15,.06,.21,1.23,9.15,2.58,18.28,3.68,27.44-.48-.82-1.02-1.62-1.54-2.43-.93-1.45-1.89-2.88-2.86-4.3-6.97-10.15-15.1-19.5-24.11-27.89,2.52-8.8,6.51-17.17,10.59-25.33,2.59-5.19,5.24-10.35,7.65-15.62,1.21-2.64,2.36-5.3,3.41-8,0-.02,.02-.04,.02-.06-.08,1.64-.15,3.28-.12,4.93Zm14.35,20.42c-1.03,2.53-1.83,5.17-2.76,7.73-.93,2.57-1.88,5.14-2.83,7.71-.95,2.57-1.95,5.12-2.93,7.68-.49,1.28-.98,2.56-1.45,3.84-.05,.13-.11,.27-.16,.4-.81-6.13-1.56-12.27-2.1-18.43-.46-5.27-.77-10.56-.89-15.85-.12-5.18,.09-10.35,.21-15.52,.14-1.08,.25-2.17,.36-3.26,0,0,0,.02,0,.03,3.36,8.91,8.02,17.27,12.58,25.63,0,.02-.02,.03-.03,.05Zm17.46,48.52c-1.07,1.02-2,2.23-2.92,3.36-1.14,1.38-2.25,2.79-3.33,4.21-2.17,2.85-4.25,5.77-6.22,8.76-3.39,5.15-6.4,10.5-9.14,16.01-.53-13.69-2.35-27.34-4.25-40.9-.47-3.32-.93-6.65-1.38-9.98,.43-.9,.7-1.94,1.02-2.82,.45-1.23,.89-2.46,1.33-3.69,.92-2.58,1.82-5.16,2.77-7.73,.94-2.57,1.9-5.14,2.86-7.7,.84-2.23,1.78-4.45,2.59-6.7,.49,.9,.97,1.79,1.45,2.69,4.93,9.21,9.63,18.64,12.54,28.72,1.5,5.2,2.43,10.47,2.68,15.77Zm-25.9,75.64c2.06-7.27,3.31-14.77,3.92-22.33,.51-6.24,.61-12.47,.44-18.7,2.95-6.15,6.35-12.11,10.09-17.81,1.9-2.9,3.9-5.73,5.99-8.5,1.05-1.38,2.11-2.75,3.2-4.09,.74-.91,1.55-1.8,2.29-2.74,.11,4.56-.26,9.13-1.24,13.7-1.21,5.6-3.08,11.03-5.08,16.39-2.09,5.62-4.21,11.24-6.42,16.82-3.72,9.4-7.89,18.65-13.2,27.25Zm71.61-35.32c-5.5,3.87-11.11,7.58-16.83,11.14-6.92,4.31-13.99,8.36-21.2,12.15,2.63-4.32,4.66-9.09,6.49-13.77,11.01-8.7,22.57-16.72,34.48-24.12,1.55-.96,3.11-1.91,4.67-2.85-.43,1.09-.82,2.2-1.26,3.28-.7,1.69-1.41,3.37-2.15,5.04-1.35,3.06-2.75,6.1-4.2,9.12Zm44.53-37.15c-6.31,6.14-12.82,12.08-19.51,17.79-7.62,6.5-15.53,12.62-23.68,18.41,1.28-2.55,2.52-5.11,3.7-7.7,.78-1.72,1.54-3.45,2.28-5.19,.64-1.51,1.38-3.02,1.93-4.57,5.07-3.01,10.2-5.91,15.39-8.69,3.72-2,7.47-3.96,11.25-5.85,2.87-1.43,5.78-2.77,8.65-4.2Zm-43.03,51.75c-5.29,.98-10.49,2.35-15.79,3.27-2.68,.47-5.36,.88-8.06,1.23-1.32,.17-2.64,.34-3.96,.48-.3,.03-.61,.06-.91,.09,12.23-7.01,24-14.8,35.24-23.33,12.65-9.6,24.59-20.09,35.62-31.52-.74,.9-1.48,1.8-2.22,2.7-1.98,2.4-3.96,4.8-5.94,7.2-3.88,4.71-7.73,9.44-11.58,14.18-6.17,7.58-12.17,15.4-18.97,22.44-1.08,1.12-2.2,2.2-3.33,3.26-.03,0-.05,0-.08,0Zm-59.35,20.62c.93-.42,1.85-.85,2.78-1.27,2.17-.99,4.33-1.99,6.48-3.02,4.39-2.11,8.73-4.31,13.03-6.61,2-1.07,3.98-2.16,5.96-3.27,1.18-.01,2.37-.19,3.53-.32,1.32-.15,2.64-.31,3.96-.48,2.64-.35,5.27-.76,7.89-1.22,4.85-.86,9.82-1.77,14.54-3.25-5.23,4.69-11.04,8.68-17.64,11.25-7.95,3.09-16.47,4.25-24.87,5.45-4.27,.61-8.55,1.21-12.77,2.11-.96,.2-1.92,.42-2.89,.64Zm.83-3.89c2.71-2.38,5.32-4.87,8.03-7.24,3.54-3.1,7.13-6.13,10.74-9.14,1.7-1.42,3.41-2.81,5.14-4.19-.82,2.03-1.68,4.03-2.62,6-1.18,2.47-2.51,4.87-3.77,7.3-3.68,1.92-7.4,3.77-11.16,5.54-1.97,.93-3.94,1.84-5.93,2.74-.79,.36-1.59,.7-2.39,1.04,.61-.64,1.23-1.28,1.84-1.93,.04-.04,.08-.08,.11-.12Zm15.25-204.91c.36,.63,.7,1.27,1.02,1.92,.64,1.3,1.21,2.64,1.7,4,.51,1.42,.94,2.86,1.29,4.33,.19,.81,.33,1.65,.49,2.47-.38-.4-.73-.81-1.12-1.21-4.24-4.34-8.86-8.3-13.64-12.03-4.12-3.23-8.35-6.34-12.73-9.21,.19,.05,.38,.11,.56,.16,7.3,2.13,14.53,4.65,21.42,7.88,.3,.57,.68,1.12,1,1.68Zm29.31,22.96c-.11,3.14-.15,6.27-.21,9.41-.11,5.97-.33,11.94-.77,17.89-.22,2.95-.47,5.9-.77,8.84-.12,1.16-.26,2.32-.41,3.47-1.07-7.29-2.73-14.49-5.23-21.46-3.61-10.07-9.08-19.17-16.19-27.08,.07-1.41-.32-2.87-.65-4.23-.35-1.46-.79-2.89-1.3-4.3-.52-1.43-1.12-2.83-1.79-4.19-.32-.66-.65-1.36-1.02-2.05,3.7,1.83,7.3,3.86,10.72,6.19,6.97,4.74,12.96,10.62,17.63,17.5Zm11.7,67.26c-4.3,10.1-8.51,20.23-12.87,30.31,.1-1.92,.19-3.84,.26-5.76,.5-12.88,.86-25.83,.11-38.71-.17-2.94-.42-5.87-.75-8.79,.16-.53,.19-1.09,.25-1.66,.08-.79,.17-1.58,.24-2.37,.17-1.7,.34-3.39,.5-5.09,.57-5.94,.97-11.9,1.23-17.87,.23-5.43,.32-10.88,.02-16.31,1.69,2.59,3.2,5.32,4.49,8.18,4.68,10.38,6.67,21.81,7.22,33.13,.4,8.28,.14,16.66-.7,24.95Zm-13.02,32.68c.18-.02,.35-.12,.44-.33,4.03-10.07,8.22-20.08,12.34-30.12-.38,3.26-.84,6.51-1.4,9.73-2.14,12.36-6.03,24.5-12.69,35.16,.61-4.79,1.01-9.62,1.3-14.44Zm-20.71-27.67c.77,1.53,1.55,3.05,2.31,4.58,2.58,5.18,5.35,10.27,8.2,15.3,1.45,2.57,2.93,5.12,4.46,7.65,.73,1.21,1.47,2.43,2.22,3.63,.6,.96,1.17,2,1.86,2.92-.25,3.09-.55,6.18-.95,9.26-.04,.3-.09,.59-.13,.89-.68-.72-1.34-1.47-1.98-2.23-6.49-7.69-10.76-16.74-13.26-26.46-1.32-5.11-2.15-10.3-2.73-15.53Zm-2.06-34.21c1.23,2.05,2.46,4.1,3.7,6.15,3.16,5.23,6.32,10.46,9.48,15.69,1.58,2.62,3.16,5.23,4.74,7.84,1.42,2.35,2.77,4.79,4.36,7.04-.05,7.29-.26,14.59-.59,21.85-.12,2.74-.28,5.49-.48,8.23-.54-.92-1.15-1.81-1.69-2.71-.82-1.36-1.63-2.73-2.44-4.09-2.94-4.98-5.8-10.02-8.52-15.12-1.36-2.55-2.7-5.12-4.03-7.69-.94-1.83-1.83-3.69-2.73-5.55-.47-5.01-.74-10.03-.96-15.05-.24-5.53-.45-11.07-.83-16.59Zm-14.53-47.68c3.85,1.41,7.59,3.11,11.16,5.15,2.02,1.16,3.99,2.43,5.9,3.77,1.6,1.12,3.09,2.43,4.71,3.52,3.96,6.25,7.04,13.03,9.25,20.16,3.55,11.45,5.07,23.46,5.56,35.41,.2,4.82,.24,9.65,.23,14.48-1.31-2.39-2.81-4.69-4.2-7.02-6.08-10.2-12.18-20.39-18.3-30.57-.37-4.48-.88-8.94-1.67-13.36-.92-5.14-2.21-10.21-4.02-15.1-1.86-5.02-4.34-9.75-7.2-14.27-.46-.73-.94-1.45-1.42-2.17Zm-15.59-22.71c.84,.66,1.67,1.32,2.52,1.97,4.78,3.67,9.72,7.12,14.38,10.94,4.64,3.81,9.08,7.89,13.06,12.39,1.95,2.19,3.75,4.49,5.42,6.87-.74-.56-1.48-1.11-2.2-1.63-1.88-1.38-3.85-2.64-5.88-3.81-4.1-2.37-8.42-4.33-12.9-5.85-.02,0-.04,0-.06,0-4.76-6.97-10.01-13.61-14.35-20.86Z"/>
  </g>
</svg>