<?xml version="1.0" encoding="UTF-8"?>
<svg id="Layer_2" data-name="Layer 2" xmlns="http://www.w3.org/2000/svg" viewBox="0 0 289.98 98.5">
  <defs>
    <style>
      .cls-1 {
        fill: #fff;
      }
    </style>
  </defs>
  <g id="Layer_1-2" data-name="Layer 1">
    <path class="cls-1" d="M60.26,16.36c.63,.86-.28,2.28-2.71,4.24-.47,.08-1.22,.31-2.24,.71-1.41,.63-4.63,2.98-9.65,7.06-4.08,3.22-7.06,4.83-8.94,4.83-.86,0-1.81-.43-2.82-1.29-1.02-.86-1.88-1.29-2.59-1.29-1.49,0-3.3,.71-5.41,2.12-2.12,1.41-3.65,2.79-4.59,4.12,.31,.24,1.69,.9,4.12,2,1.8,.79,2.71,1.73,2.71,2.82,0,1.49-.53,3-1.59,4.53-1.06,1.53-2.18,2.37-3.35,2.53-3.69,.39-7.38,1.53-11.06,3.41-5.73,2.9-8.91,9.41-9.53,19.54-.31,4.86-.63,13.81-.94,26.83H.12L0,76.96c-.24-16.87,5.1-27.89,16-33.07,0-3.69,2.49-8,7.47-12.95,4.98-4.94,9.16-7.41,12.53-7.41,1.1,0,2.02,.51,2.77,1.53,.74,1.02,1.47,1.53,2.18,1.53,1.25,0,4.83-1.92,10.71-5.77-2.82-1.49-5.1-2.24-6.83-2.24-.63,0-1.88,.67-3.77,2l-.59-.59c.63-1.18,1.69-2.51,3.18-4,1.8-1.57,3.25-2.35,4.35-2.35,.39,0,1.94,.45,4.65,1.35,2.71,.9,5.24,1.35,7.59,1.35ZM28.02,62.72c0,.47-.69,1.53-2.06,3.18-1.37,1.65-2.26,2.63-2.65,2.94-.39-.71-2.04-2.04-4.94-4-.24,.71-.96,1.78-2.18,3.24-1.22,1.45-2.02,2.29-2.41,2.53-.47-.86-1.53-1.82-3.18-2.88s-2.55-1.71-2.71-1.94l4.35-6.24c2.04,.16,3.92,1.41,5.65,3.77,1.8-2.59,3.1-4.43,3.88-5.53,1.25,.08,2.61,.76,4.06,2.06,1.45,1.29,2.18,2.25,2.18,2.88ZM104.74,24.71c0,.86-.75,2.08-2.24,3.65-1.49,1.57-2.71,2.51-3.65,2.82-2.04,.79-4.12,1.57-6.24,2.35-2.35,1.1-4.35,2.51-6,4.24-1.1,1.1-1.65,2.16-1.65,3.18,0,.24,.43,.79,1.29,1.65,.86,.86,1.29,1.45,1.29,1.77,0,.71-.47,1.88-1.41,3.53-1.18,1.8-2.16,2.71-2.94,2.71-.24,0-.92-.2-2.06-.59-1.14-.39-1.86-.59-2.18-.59-.86,0-1.71,.53-2.53,1.59-.82,1.06-1.63,2.06-2.41,3-1.49,1.57-3.45,2.43-5.88,2.59-.63,3.06-2,7.65-4.12,13.77-5.26,11.53-12.59,17.3-22.01,17.3-4.08,0-7.34-1.37-9.77-4.12-2.43-2.75-3.65-6.28-3.65-10.59,0-5.73,2.08-11.53,6.24-17.42l.47,.59c-2.82,5.73-4.24,9.84-4.24,12.36,0,3.53,1.14,6.26,3.41,8.18,2.27,1.92,5.26,2.88,8.94,2.88,7.69,0,13.65-3.77,17.89-11.3,2.82-5.02,4.2-10.79,4.12-17.3,.08-.08,.27-.39,.59-.94,.24-.31,.43-.47,.59-.47s.65,.22,1.47,.65c.82,.43,1.71,.65,2.65,.65,1.8,0,3.33-.55,4.59-1.65,.78-1.33,1.8-3.1,3.06-5.3,.63-.86,1.45-1.53,2.47-2,.47-.24,.98-.47,1.53-.71,.47-1.18,1.45-2.86,2.94-5.06,2.9-3.14,7.1-5.8,12.59-8-1.65-1.18-4.04-1.77-7.18-1.77-1.73,0-3.49,.75-5.3,2.24l-.82-.35c2.04-4.16,5.14-6.24,9.3-6.24,2.43,0,4.75,.2,6.94,.59,2.59,.55,3.88,1.26,3.88,2.12ZM69.44,.12c-.08,4-.35,10.98-.82,20.95-.16,2.9-.67,5.92-1.53,9.06-1.18,4.24-2.79,7.22-4.83,8.94-1.73,.39-4.2,1.49-7.41,3.3-1.49,1.33-2.92,3.31-4.3,5.94-1.37,2.63-2.41,4.3-3.12,5-1.49,1.49-3.65,2.24-6.47,2.24h-5.06v-.82c3.92-2.28,6.16-3.57,6.71-3.88,3.06-1.88,5.3-3.69,6.71-5.41,1.02-1.73,2.04-3.41,3.06-5.06,1.33-2.12,2.94-3.77,4.83-4.94,1.41-.63,3.37-1.65,5.88-3.06,1.73-1.18,2.59-3.57,2.59-7.18V9.41c0-1.02,.41-2.61,1.24-4.77,.82-2.16,1.67-3.67,2.53-4.53Zm-19.3,36.13c0,2.59-.9,3.88-2.71,3.88-.79,0-1.45-.35-2-1.06-.63,2.04-1.69,3.06-3.18,3.06-1.73,0-2.67-.86-2.82-2.59,0-.63,.31-1.8,.94-3.53l.71-.12c0,2.12,.39,3.1,1.18,2.94,1.25,0,2.04-1.33,2.35-4l.71-.12c.39,1.65,.94,2.47,1.65,2.47,1.41,0,2-1.29,1.77-3.88l.59-.35c.55,1.02,.82,2.12,.82,3.29Zm3.06,28.36c0,.55-.69,1.65-2.06,3.3-1.37,1.65-2.26,2.63-2.65,2.94-.55-.94-1.63-1.92-3.24-2.94-1.61-1.02-2.49-1.65-2.65-1.88l4.35-6.24c1.25,.08,2.61,.76,4.06,2.06,1.45,1.29,2.18,2.22,2.18,2.77ZM78.97,.47l-.82,24.95c0,1.18-.28,3.34-.82,6.47-.39,2.2-1.1,3.96-2.12,5.3V10.71c0-.47,.47-2.04,1.41-4.71,.94-2.67,1.72-4.51,2.35-5.53Zm16,4.12c-.24,3.69-3.41,6.32-9.53,7.88l-.47-.12c2.12-.86,4.31-2.43,6.59-4.71,0-.78-.82-1.18-2.47-1.18-1.49,0-2.9,.39-4.24,1.18,.86-2.2,1.61-3.53,2.24-4,.63-.47,1.72-.71,3.29-.71,1.88,0,3.41,.55,4.59,1.65ZM120.04,.12c-.08,4-.35,10.98-.82,20.95-.16,2.9-.67,5.92-1.53,9.06-1.26,4.24-2.9,7.22-4.94,8.94-1.65,.39-4.08,1.49-7.3,3.3-1.57,1.33-3.02,3.31-4.35,5.94-1.33,2.63-2.39,4.3-3.18,5-1.49,1.49-3.61,2.24-6.36,2.24h-5.18v-.82c4-2.28,6.28-3.57,6.83-3.88,3.06-1.88,5.26-3.69,6.59-5.41,1.02-1.73,2.08-3.41,3.18-5.06,1.25-2.12,2.83-3.77,4.71-4.94,1.49-.63,3.49-1.65,6-3.06,1.72-1.18,2.59-3.57,2.59-7.18V9.18c-.08-.78,.31-2.27,1.18-4.47,.86-2.2,1.72-3.73,2.59-4.59Zm-9.65,6.71c0,2.59-.9,3.88-2.71,3.88-.79,0-1.45-.35-2-1.06-.55,2.04-1.61,3.06-3.18,3.06-1.73,0-2.63-.86-2.71-2.59-.08-.63,.19-1.8,.82-3.53l.82-.12c0,2.12,.39,3.1,1.18,2.94,1.25,0,2.04-1.33,2.35-4l.59-.12c.39,1.65,.98,2.47,1.76,2.47,1.41,0,1.96-1.29,1.65-3.88l.71-.35c.47,.94,.71,2.04,.71,3.3Zm37.54,25.89c-.16,.16-.35,.47-.59,.94,0,4.32-.67,8.08-2,11.3-1.88,4.31-4.67,6.47-8.36,6.47-.94,0-2.18-.35-3.71-1.06s-2.49-1.45-2.88-2.24c-2.59,3.84-5.38,5.77-8.36,5.77-3.38,0-5.06-2.16-5.06-6.47-4.39,2.67-7.85,4.51-10.36,5.53-.24-.08-.51-.08-.82,0,3.45-2.43,8.04-6.24,13.77-11.42,.08,1.18,.51,2.35,1.29,3.53,1.02,1.41,2.31,2.12,3.88,2.12,2.43,0,4.69-1.22,6.77-3.65,2.08-2.43,3.04-3.65,2.88-3.65,1.49,3.14,2.9,4.71,4.24,4.71,2.67,0,4.47-.94,5.41-2.82,.39-.78,.63-1.61,.71-2.47,.08-.63,.08-1.41,0-2.35-.16-1.25-.24-2.08-.24-2.47,0-1.18,1.1-3.22,3.3-6.12l.12,4.35ZM129.69,.24l-.82,24.83c-.16,5.57-1.1,9.53-2.82,11.89l-.12-26.6c0-.47,.49-2.04,1.47-4.71,.98-2.67,1.75-4.47,2.29-5.41Zm14.36,23.07c0,2.59-.9,3.88-2.71,3.88-.79,0-1.45-.35-2-1.06-.63,2.04-1.69,3.06-3.18,3.06-1.73,0-2.67-.86-2.82-2.59,0-.63,.31-1.8,.94-3.53l.71-.12c0,2.12,.39,3.1,1.18,2.94,1.25,0,2.04-1.33,2.35-4l.71-.12c.39,1.65,.94,2.47,1.65,2.47,1.41,0,2-1.29,1.76-3.88l.59-.35c.55,1.02,.82,2.12,.82,3.3ZM289.98,3.41c0,1.1-.16,3.26-.47,6.47-.24,2.51-1.02,5.45-2.35,8.83-4.08,10.12-13.46,18.36-28.13,24.71-15.77,6.75-35.23,10.12-58.37,10.12-13.96,0-24.83-.86-32.6-2.59-.16-.08-.61,.27-1.35,1.06-.75,.78-1.28,1.22-1.59,1.29-3.06-1.73-4.94-2.59-5.65-2.59-6.43,0-10.75,3.22-12.95,9.65-1.41,4.31-2.32,10.2-2.71,17.65,0,1.18-.2,4.24-.59,9.18-.24,3.77-.35,6.79-.35,9.06h-1.65c-.16-.94-.2-4.82-.12-11.65,.39-10.59,.71-16.67,.94-18.24,1.02-7.53,3.41-13.38,7.18-17.53,2.04-2.2,4.2-3.69,6.47-4.47,1.41-.47,3.65-.79,6.71-.94,.47-.55,1.29-1.37,2.47-2.47,2.75,1.18,8.55,2.27,17.42,3.29,8,.94,14.43,1.41,19.3,1.41,22.12,0,41.15-2.98,57.08-8.94,14.2-5.18,23.07-11.42,26.6-18.71,.55-1.1,.82-3.49,.82-7.18,0-.78,.51-2.08,1.53-3.88,1.02-1.8,1.8-2.98,2.35-3.53ZM156.05,0l-.82,24.83c-.16,5.49-1.1,9.41-2.83,11.77l-.12-26.48c0-.47,.49-2.04,1.47-4.71,.98-2.67,1.75-4.47,2.29-5.41Zm70.37,18.59c-.24,3.69-3.41,6.32-9.53,7.88l-.47-.12c2.12-.86,4.31-2.43,6.59-4.71,0-.78-.86-1.18-2.59-1.18-1.41,0-2.79,.39-4.12,1.18,.86-2.12,1.61-3.41,2.24-3.88s1.73-.71,3.3-.71c1.88,0,3.41,.51,4.59,1.53Zm41.54,46.01c0,.55-.69,1.65-2.06,3.3-1.37,1.65-2.26,2.63-2.65,2.94-.55-.94-1.63-1.92-3.24-2.94-1.61-1.02-2.49-1.65-2.65-1.88l4.35-6.24c1.33,.08,2.71,.76,4.12,2.06,1.41,1.29,2.12,2.22,2.12,2.77Z"/>
  </g>
</svg>