<?xml version="1.0" encoding="UTF-8"?>
<svg id="Layer_2" data-name="Layer 2" xmlns="http://www.w3.org/2000/svg" viewBox="0 0 233.73 65.69">
  <defs>
    <style>
      .cls-1 {
        fill: #f9ad3c;
      }

      .cls-2 {
        fill: #00a39d;
      }

      .cls-3 {
        fill: #0ca49d;
      }

      .cls-4 {
        fill: #168f8c;
      }
    </style>
  </defs>
  <g id="Layer_1-2" data-name="Layer 1">
    <g>
      <path class="cls-4" d="M76.64,18.89h-.08s.04,.01,.08,0Z"/>
      <path class="cls-2" d="M77.16,18.15v47.2h11.1V29.97c0-2.64-1.41-10.62-11.1-11.82Z"/>
      <path class="cls-2" d="M18.16,57.14c1.41,0,2.56-.18,3.46-.54,.89-.36,1.6-.83,2.1-1.39,.51-.57,.85-1.21,1.05-1.93,.19-.72,.29-1.44,.29-2.18,0-.85-.11-1.6-.33-2.28-.22-.67-.61-1.24-1.13-1.71-.54-.46-1.24-.83-2.14-1.08-.88-.25-2-.37-3.35-.37h-7.46v11.47h7.52Zm-7.52-29.98v11.37h5.56c1.18,0,2.25-.09,3.19-.25,.95-.17,1.75-.46,2.42-.88,.66-.42,1.17-1,1.52-1.74,.35-.74,.52-1.66,.52-2.78s-.13-2-.41-2.73c-.28-.73-.69-1.31-1.27-1.75-.57-.44-1.29-.76-2.17-.95-.87-.19-1.92-.29-3.12-.29h-6.25Zm6.26-7.99c3.18,0,5.89,.3,8.12,.88,2.23,.59,4.06,1.42,5.47,2.5,1.41,1.08,2.44,2.38,3.08,3.92,.64,1.54,.97,3.26,.97,5.15,0,1.03-.14,2.03-.44,2.98-.3,.96-.76,1.85-1.39,2.69-.63,.84-1.44,1.6-2.43,2.29-.99,.69-2.18,1.3-3.57,1.81,3.04,.74,5.28,1.93,6.74,3.57,1.45,1.64,2.18,3.78,2.18,6.38,0,1.96-.37,3.79-1.13,5.47s-1.87,3.16-3.34,4.4c-1.46,1.25-3.27,2.23-5.42,2.94-2.15,.7-4.6,1.06-7.36,1.06H0V19.16H16.91Z"/>
      <path class="cls-2" d="M67.73,28.51c-.32,.51-.65,.88-.99,1.13-.35,.25-.79,.37-1.34,.37-.48,0-1-.15-1.56-.46-.56-.31-1.19-.65-1.89-1.02-.7-.37-1.51-.73-2.42-1.02-.9-.31-1.94-.46-3.09-.46-2,0-3.49,.43-4.47,1.28-.98,.85-1.48,2-1.48,3.46,0,.92,.3,1.7,.88,2.31,.59,.62,1.36,1.13,2.32,1.59,.96,.44,2.06,.85,3.29,1.22,1.23,.37,2.49,.78,3.78,1.23,1.29,.45,2.54,.98,3.78,1.6,1.23,.62,2.33,1.39,3.29,2.33,.96,.95,1.73,2.1,2.32,3.46,.59,1.35,.88,2.99,.88,4.91,0,2.12-.36,4.12-1.1,5.97s-1.81,3.47-3.21,4.85c-1.4,1.38-3.13,2.47-5.18,3.26-2.06,.79-4.39,1.19-7,1.19-1.43,0-2.89-.14-4.38-.44-1.49-.3-2.93-.72-4.31-1.24-1.39-.54-2.7-1.18-3.92-1.92-1.22-.74-2.29-1.56-3.19-2.47l3.16-4.99c.25-.36,.58-.66,.99-.9,.41-.24,.86-.36,1.34-.36,.63,0,1.27,.2,1.92,.61,.64,.4,1.36,.85,2.18,1.33,.81,.48,1.74,.92,2.8,1.33,1.06,.4,2.3,.61,3.73,.61,1.94,0,3.45-.43,4.52-1.28,1.08-.86,1.61-2.2,1.61-4.06,0-1.08-.3-1.95-.88-2.62-.59-.67-1.36-1.23-2.32-1.67-.96-.44-2.05-.84-3.27-1.17-1.22-.34-2.48-.72-3.76-1.12-1.29-.41-2.54-.91-3.76-1.52-1.22-.61-2.31-1.39-3.27-2.37-.96-.98-1.74-2.2-2.32-3.67-.59-1.46-.88-3.27-.88-5.42,0-1.73,.35-3.41,1.05-5.05,.69-1.64,1.72-3.1,3.07-4.39,1.35-1.29,3.01-2.31,4.96-3.08,1.96-.77,4.2-1.16,6.74-1.16,1.41,0,2.78,.11,4.13,.33,1.34,.22,2.61,.55,3.81,.98,1.2,.43,2.32,.95,3.37,1.55,1.05,.61,1.97,1.28,2.8,2.04l-2.65,4.96-.02-.03Z"/>
      <path class="cls-1" d="M89.48,1.14c-.02-.39-.07-.77-.12-1.14,2.49,2.56,6.03,4.06,9.87,3.82,1.84-.12,3.56-.63,5.09-1.43-1.19,2.07-1.81,4.5-1.64,7.07,.2,3.17,1.56,5.99,3.63,8.08-1.06-.21-2.17-.3-3.3-.22-4.49,.29-8.29,2.88-10.29,6.56-.79-5.44-5.01-9.66-10.29-10.6,4.46-2.18,7.4-6.89,7.07-12.14h-.01Z"/>
      <path class="cls-2" d="M108.62,46.52c.52,0,.97-.06,1.34-.18,.37-.12,.69-.28,.92-.48,.25-.21,.43-.46,.54-.76,.11-.3,.17-.62,.17-.97,0-.68-.25-1.22-.74-1.61-.49-.4-1.24-.59-2.22-.59h-2.91v4.59h2.91Zm-2.91-10.36v4.49h2.4c.52,0,.95-.06,1.34-.17,.38-.11,.7-.26,.94-.46,.25-.2,.44-.43,.55-.7,.12-.29,.18-.58,.18-.92,0-.78-.24-1.34-.72-1.71-.47-.36-1.21-.54-2.21-.54h-2.48Zm2.48-1.4c.83,0,1.54,.08,2.13,.24,.6,.15,1.09,.39,1.47,.68,.39,.3,.67,.66,.85,1.09,.18,.42,.27,.9,.27,1.43,0,.33-.06,.64-.16,.94-.1,.3-.26,.57-.46,.83-.2,.25-.47,.5-.79,.69-.31,.2-.69,.36-1.11,.5,.99,.19,1.73,.53,2.22,1.03,.51,.51,.75,1.17,.75,1.98,0,.56-.1,1.07-.31,1.53-.2,.46-.52,.86-.92,1.19-.4,.33-.9,.58-1.48,.77-.58,.18-1.26,.26-2.01,.26h-4.75v-13.18h4.29Z"/>
      <path class="cls-2" d="M122.99,43.04l-2.11-5.36c-.07-.15-.12-.34-.2-.55-.07-.21-.13-.44-.2-.68-.13,.5-.27,.91-.4,1.24l-2.11,5.35h5.03Zm3.79,4.89h-1.4c-.17,0-.29-.04-.39-.12-.1-.08-.18-.18-.22-.31l-1.26-3.18h-6.03l-1.26,3.18c-.03,.11-.11,.21-.21,.3-.1,.09-.24,.13-.39,.13h-1.4l5.38-13.18h1.84l5.38,13.18h-.02Z"/>
      <path class="cls-2" d="M139.43,34.76v13.18h-.91c-.15,0-.27-.02-.37-.08-.09-.04-.19-.13-.28-.25l-7.77-9.93c.01,.15,.02,.31,.03,.45,.01,.14,.01,.29,.01,.42v9.39h-1.6v-13.18h.94c.08,0,.15,.01,.2,.02,.06,.01,.1,.02,.15,.04,.04,.02,.09,.04,.13,.09,.04,.03,.09,.09,.15,.14l7.77,9.92c-.01-.17-.02-.31-.03-.46-.01-.15-.01-.3-.01-.43v-9.33h1.58Z"/>
      <path class="cls-2" d="M144.69,40.53h.69c.24,0,.43-.03,.57-.09,.15-.07,.28-.17,.39-.31l4.47-4.96c.12-.17,.26-.28,.39-.33,.13-.07,.3-.09,.51-.09h1.54l-5.12,5.67c-.12,.14-.25,.28-.37,.36-.11,.09-.24,.17-.37,.23,.17,.06,.33,.13,.46,.25,.13,.1,.27,.24,.4,.42l5.35,6.24h-1.57c-.12,0-.22-.01-.31-.02-.08-.02-.16-.04-.21-.08-.07-.03-.12-.08-.17-.12-.04-.04-.09-.1-.13-.17l-4.64-5.23c-.12-.15-.26-.26-.4-.32-.15-.07-.36-.1-.65-.1h-.82v6.03h-1.81v-13.18h1.81v5.78h.01Z"/>
      <path class="cls-2" d="M166.98,36.82c-.06,.09-.12,.17-.19,.21-.07,.04-.15,.07-.24,.07-.1,0-.24-.06-.37-.15-.15-.1-.33-.22-.54-.34-.21-.13-.47-.24-.78-.35-.3-.11-.66-.15-1.1-.15-.4,0-.76,.06-1.08,.17-.3,.1-.56,.25-.78,.43-.2,.19-.36,.4-.47,.65-.1,.24-.16,.51-.16,.8,0,.36,.09,.67,.27,.92,.19,.24,.43,.44,.73,.62,.3,.18,.65,.32,1.03,.45,.39,.12,.79,.25,1.18,.39,.4,.13,.8,.29,1.18,.46,.39,.17,.73,.37,1.03,.64,.3,.25,.55,.57,.73,.95,.19,.37,.28,.84,.28,1.38,0,.57-.1,1.12-.3,1.63-.2,.51-.49,.94-.89,1.31-.38,.37-.85,.67-1.42,.88-.56,.21-1.19,.32-1.91,.32-.88,0-1.67-.15-2.38-.46-.71-.31-1.33-.74-1.83-1.25l.53-.85c.04-.07,.11-.12,.18-.17,.08-.04,.16-.08,.25-.08,.08,0,.17,.03,.27,.1,.1,.07,.22,.14,.36,.24,.13,.1,.28,.21,.45,.32,.17,.12,.36,.22,.57,.32,.21,.1,.46,.18,.74,.25,.28,.07,.58,.09,.93,.09,.43,0,.82-.06,1.16-.18,.34-.12,.62-.28,.85-.48,.24-.21,.42-.47,.54-.76,.12-.3,.19-.63,.19-.98,0-.4-.09-.73-.28-.98-.18-.25-.43-.47-.72-.64-.3-.18-.64-.32-1.03-.43-.39-.12-.79-.24-1.18-.36-.4-.13-.8-.28-1.18-.44-.39-.17-.73-.39-1.03-.64-.3-.26-.54-.59-.73-.98-.18-.4-.27-.89-.27-1.48,0-.46,.09-.91,.27-1.35,.19-.44,.46-.83,.81-1.16,.36-.34,.79-.61,1.3-.81,.52-.2,1.11-.31,1.79-.31,.75,0,1.44,.12,2.04,.35,.62,.23,1.17,.57,1.63,1.01l-.44,.85h-.01Z"/>
      <path class="cls-2" d="M175.07,42.69v5.25h-1.82v-5.25l-4.93-7.93h1.6c.16,0,.29,.04,.38,.12,.09,.08,.18,.18,.25,.3l3.08,5.12c.11,.22,.21,.42,.31,.61,.09,.19,.18,.37,.25,.56,.07-.19,.15-.37,.24-.56,.09-.19,.18-.4,.29-.61l3.07-5.12c.06-.1,.13-.2,.24-.29,.1-.09,.22-.13,.38-.13h1.61l-4.93,7.93Z"/>
      <path class="cls-2" d="M187.55,43.04l-2.11-5.36c-.07-.15-.12-.34-.2-.55-.07-.21-.13-.44-.2-.68-.13,.5-.27,.91-.4,1.24l-2.11,5.35h5.03Zm3.79,4.89h-1.4c-.17,0-.29-.04-.39-.12-.1-.08-.18-.18-.22-.31l-1.26-3.18h-6.03l-1.26,3.18c-.03,.11-.11,.21-.21,.3-.1,.09-.24,.13-.39,.13h-1.4l5.38-13.18h1.84l5.38,13.18h-.02Z"/>
      <path class="cls-2" d="M196.84,41.13c.53,0,.99-.07,1.39-.19,.4-.13,.74-.31,1.01-.53,.28-.23,.48-.51,.62-.83,.13-.32,.2-.67,.2-1.06,0-.78-.26-1.38-.79-1.77-.53-.4-1.31-.59-2.37-.59h-1.99v4.98h1.92Zm6.21,6.78h-1.62c-.34,0-.57-.12-.73-.37l-3.49-4.71c-.1-.14-.22-.25-.35-.31-.12-.07-.3-.1-.56-.1h-1.38v5.49h-1.81v-13.18h3.8c.85,0,1.58,.09,2.2,.25,.62,.17,1.13,.41,1.53,.73,.4,.32,.71,.7,.9,1.16,.19,.45,.29,.95,.29,1.51,0,.46-.08,.9-.22,1.31-.15,.41-.37,.77-.65,1.09-.28,.32-.63,.59-1.04,.81-.4,.23-.86,.4-1.39,.52,.24,.13,.43,.32,.6,.56l3.92,5.23h.02Z"/>
      <polygon class="cls-2" points="206.7 47.94 204.87 47.94 204.87 34.76 206.7 34.76 206.7 47.94"/>
      <path class="cls-2" d="M217.27,43.04l-2.11-5.36c-.07-.15-.12-.34-.2-.55-.07-.21-.13-.44-.2-.68-.13,.5-.27,.91-.4,1.24l-2.11,5.35h5.03Zm3.79,4.89h-1.4c-.16,0-.29-.04-.39-.12-.1-.08-.18-.18-.22-.31l-1.26-3.18h-6.03l-1.26,3.18c-.03,.11-.11,.21-.21,.3-.1,.09-.24,.13-.39,.13h-1.4l5.38-13.18h1.84l5.38,13.18h-.02Z"/>
      <polygon class="cls-2" points="233.73 34.76 233.73 47.94 231.91 47.94 231.91 41.94 224.65 41.94 224.65 47.94 222.83 47.94 222.83 34.76 224.65 34.76 224.65 40.64 231.91 40.64 231.91 34.76 233.73 34.76"/>
      <polygon class="cls-3" points="105.67 65.31 103.89 65.31 103.89 52.13 105.67 52.13 105.67 65.31"/>
      <path class="cls-2" d="M120.04,52.13v13.18h-.91c-.15,0-.27-.02-.37-.08-.09-.04-.19-.13-.28-.25l-7.77-9.93c.01,.15,.02,.31,.03,.45,.01,.14,.01,.29,.01,.42v9.39h-1.6v-13.18h.94c.08,0,.15,.01,.2,.02,.06,.01,.1,.02,.15,.04,.04,.02,.09,.04,.13,.09,.04,.03,.09,.09,.15,.14l7.77,9.92c-.01-.15-.02-.31-.03-.46-.01-.15-.01-.3-.01-.43v-9.33h1.58Z"/>
      <path class="cls-2" d="M135.14,58.72c0,.99-.16,1.88-.48,2.7-.31,.81-.78,1.5-1.35,2.08-.58,.57-1.28,1.02-2.1,1.34-.81,.31-1.72,.47-2.71,.47h-5.02v-13.18h5.02c.99,0,1.89,.15,2.71,.47,.82,.31,1.52,.76,2.1,1.34,.58,.57,1.03,1.27,1.35,2.08,.31,.81,.48,1.71,.48,2.7h0Zm-1.86-.01c0-.81-.11-1.53-.34-2.17-.22-.64-.54-1.18-.95-1.62-.42-.44-.91-.78-1.51-1.01-.58-.23-1.25-.35-1.97-.35h-3.2v10.29h3.2c.73,0,1.38-.12,1.97-.35,.58-.23,1.09-.57,1.51-1,.42-.44,.73-.98,.95-1.62,.22-.64,.34-1.36,.34-2.17Z"/>
      <path class="cls-2" d="M150.18,58.72c0,.99-.16,1.89-.48,2.72-.31,.83-.76,1.53-1.35,2.12-.58,.59-1.28,1.06-2.1,1.39-.81,.33-1.72,.48-2.71,.48s-1.89-.17-2.71-.48c-.81-.33-1.51-.79-2.09-1.39-.58-.59-1.03-1.3-1.35-2.12-.31-.83-.48-1.74-.48-2.72s.16-1.89,.48-2.71c.31-.83,.76-1.54,1.35-2.14,.58-.61,1.28-1.07,2.09-1.4,.81-.33,1.72-.5,2.71-.5s1.89,.17,2.71,.5c.82,.33,1.52,.79,2.1,1.4,.58,.59,1.03,1.31,1.35,2.14,.31,.83,.48,1.73,.48,2.71Zm-1.86,0c0-.81-.11-1.53-.34-2.18-.22-.64-.54-1.19-.95-1.63-.42-.45-.91-.79-1.51-1.03-.58-.24-1.25-.36-1.97-.36s-1.37,.12-1.97,.36c-.58,.24-1.09,.58-1.51,1.03-.42,.44-.73,.98-.95,1.63-.22,.64-.34,1.36-.34,2.18s.11,1.53,.34,2.18c.22,.64,.54,1.18,.95,1.63,.42,.44,.92,.78,1.51,1.02,.58,.23,1.25,.35,1.97,.35s1.38-.12,1.97-.35c.58-.24,1.09-.58,1.51-1.02,.42-.45,.73-.99,.95-1.63,.22-.64,.34-1.36,.34-2.18Z"/>
      <path class="cls-2" d="M163.69,52.13v13.18h-.91c-.15,0-.27-.02-.37-.08-.09-.04-.19-.13-.28-.25l-7.77-9.93c.01,.15,.02,.31,.03,.45,.01,.14,.01,.29,.01,.42v9.39h-1.6v-13.18h.94c.08,0,.15,.01,.2,.02,.06,.01,.1,.02,.15,.04,.04,.02,.09,.04,.13,.09,.04,.03,.09,.09,.15,.14l7.77,9.92c-.01-.15-.02-.31-.03-.46-.01-.15-.01-.3-.01-.43v-9.33h1.58Z"/>
      <polygon class="cls-2" points="175.41 63.85 175.4 65.31 167.12 65.31 167.12 52.13 175.4 52.13 175.4 53.58 168.94 53.58 168.94 57.95 174.18 57.95 174.18 59.35 168.94 59.35 168.94 63.85 175.41 63.85"/>
      <path class="cls-2" d="M184.83,54.19c-.06,.09-.12,.17-.19,.21-.07,.04-.15,.07-.24,.07-.1,0-.24-.06-.37-.15-.15-.1-.33-.22-.54-.34-.21-.13-.47-.24-.78-.35-.3-.1-.66-.15-1.1-.15-.4,0-.76,.06-1.08,.17-.3,.1-.56,.25-.78,.43-.2,.19-.36,.4-.47,.65-.1,.24-.16,.52-.16,.8,0,.36,.09,.67,.27,.92,.19,.24,.43,.44,.73,.62,.3,.18,.65,.32,1.03,.45,.39,.12,.79,.25,1.18,.39,.4,.13,.8,.29,1.18,.46,.39,.17,.73,.37,1.03,.64,.3,.25,.55,.57,.73,.95,.19,.37,.28,.84,.28,1.38,0,.57-.1,1.12-.3,1.63-.2,.51-.49,.94-.89,1.31-.38,.37-.85,.67-1.42,.88-.56,.21-1.19,.32-1.91,.32-.88,0-1.67-.15-2.38-.46-.71-.31-1.33-.74-1.83-1.25l.53-.85c.04-.07,.11-.12,.18-.17,.08-.04,.16-.08,.25-.08,.08,0,.17,.03,.27,.1,.11,.07,.22,.14,.36,.24,.13,.1,.28,.21,.45,.32,.17,.12,.36,.22,.57,.32,.21,.1,.46,.18,.74,.25,.28,.07,.58,.09,.93,.09,.43,0,.82-.06,1.16-.18,.34-.12,.62-.28,.85-.48,.24-.22,.42-.47,.54-.76,.12-.3,.19-.63,.19-.98,0-.4-.09-.73-.28-.98-.18-.25-.43-.47-.72-.64-.3-.18-.64-.32-1.03-.43-.39-.12-.79-.24-1.18-.36-.4-.13-.8-.28-1.18-.44-.39-.17-.73-.39-1.03-.64-.3-.26-.54-.59-.73-.98-.18-.4-.27-.89-.27-1.48,0-.46,.09-.91,.27-1.35,.19-.44,.46-.83,.81-1.16,.36-.34,.79-.61,1.3-.81,.52-.2,1.11-.31,1.79-.31,.75,0,1.44,.12,2.04,.35,.62,.23,1.17,.57,1.63,1.01l-.44,.85h-.01Z"/>
      <polygon class="cls-2" points="189.96 65.31 188.14 65.31 188.14 52.13 189.96 52.13 189.96 65.31"/>
      <path class="cls-2" d="M200.54,60.41l-2.11-5.36c-.07-.17-.12-.34-.2-.55-.07-.21-.13-.44-.2-.68-.13,.5-.27,.91-.4,1.24l-2.11,5.35h5.03Zm3.79,4.89h-1.4c-.17,0-.29-.04-.39-.12-.1-.08-.18-.18-.22-.31l-1.26-3.18h-6.03l-1.26,3.18c-.03,.11-.11,.21-.21,.3-.1,.09-.24,.13-.39,.13h-1.4l5.38-13.18h1.84l5.38,13.18h-.02Z"/>
    </g>
  </g>
</svg>