<?xml version="1.0" encoding="UTF-8"?>
<svg id="Layer_2" data-name="Layer 2" xmlns="http://www.w3.org/2000/svg" viewBox="0 0 39.96 39.96">
  <defs>
    <style>
      .cls-1 {
        fill: #fff;
      }

      .cls-2 {
        fill: #7a681f;
      }
    </style>
  </defs>
  <g id="Layer_1-2" data-name="Layer 1">
    <g>
      <circle class="cls-1" cx="19.98" cy="19.98" r="19.98"/>
      <path class="cls-2" d="M28.84,11.03l.41,.72c-2.69,1.9-5.18,4.31-7.48,7.22s-3.95,5.76-4.97,8.55l-.61,.4c-.52,.34-.97,.68-1.35,1.02-.06-.33-.24-.86-.54-1.6l-.32-.79c-.69-1.7-1.27-2.89-1.74-3.56s-.98-1.04-1.54-1.09c.74-.68,1.39-1.02,1.94-1.02,.76,0,1.6,1.02,2.51,3.07l.5,1.1c1.63-2.91,3.59-5.59,5.89-8.04s4.73-4.44,7.29-5.98Z"/>
    </g>
  </g>
</svg>