<?xml version="1.0" encoding="UTF-8"?>
<svg id="Layer_2" data-name="Layer 2" xmlns="http://www.w3.org/2000/svg" viewBox="0 0 622.44 543.7">
  <defs>
    <style>
      .cls-1 {
        fill: #cecece;
      }
    </style>
  </defs>
  <g id="Layer_1-2" data-name="Layer 1">
    <g>
      <path class="cls-1" d="M0,376.96c47.13-41.21,95.87-83.83,152.83-112.85,63.69-32.45,129.39-41.83,185-26.41,43.75,12.13,81.07,38.68,117.16,64.35l67.24,47.85-1.8,2.52-67.24-47.85c-35.88-25.52-72.97-51.91-116.2-63.89-54.86-15.21-119.77-5.91-182.77,26.19-56.62,28.84-105.21,71.33-152.2,112.43l-2.04-2.33Z"/>
      <path class="cls-1" d="M313.1,232.79c24.29-11.41,51.68-24.29,78.92-25.98,15.02-.93,30.12,1.29,44.73,3.43,7.51,1.1,15.27,2.24,22.91,2.93,27.65,2.51,48.85-2.46,63.03-14.76l2.03,2.33c-14.83,12.88-36.82,18.1-65.34,15.51-7.72-.7-15.52-1.85-23.07-2.96-14.45-2.12-29.39-4.32-44.09-3.41-26.64,1.65-53.76,14.4-77.69,25.64l-1.42-2.75Z"/>
      <path class="cls-1" d="M414.8,207.62c28.58-10.61,45.52-23.55,53.3-40.72l2.82,1.28c-10.7,23.61-36.54,35.47-55.04,42.34l-1.08-2.9Z"/>
      <path class="cls-1" d="M397.78,267.15l.22-3.08c12.98,.92,25.42,5.42,37.44,9.76,11.58,4.19,23.55,8.51,35.84,9.53,6.03,.51,12.25,.22,18.25-.06,4.62-.21,9.39-.44,14.1-.31,13.9,.38,27.8,3.9,40.21,10.16l-1.39,2.76c-12.01-6.06-25.46-9.46-38.9-9.83-4.6-.13-9.31,.09-13.87,.3-6.11,.28-12.42,.58-18.66,.05-12.69-1.05-24.86-5.45-36.63-9.71-11.82-4.27-24.05-8.69-36.61-9.59Z"/>
      <path class="cls-1" d="M350.43,244.36l2.2-2.17c14.22,14.42,30.38,31.46,42.25,51.27,12.78,21.32,18.82,43.37,17.5,63.78-.86,13.31-4.83,26.46-8.68,39.18-5.47,18.09-10.65,35.2-7.69,52.82,.07,.44,.15,.88,.24,1.32l-3.04,.58c-3.6-18.81,2.06-37.53,7.53-55.62,3.79-12.55,7.72-25.53,8.55-38.49,1.63-25-8.38-47.5-17.07-61.99-11.69-19.52-27.71-36.4-41.8-50.69Z"/>
      <path class="cls-1" d="M409.84,359.01l2.6-1.68c.93,1.45,1.89,2.89,2.84,4.34,4.14,6.25,8.42,12.7,10.92,19.97,2.9,8.41,3.24,17.39,3.58,26.08,.08,2.13,.16,4.25,.28,6.37,.52,9.33,2.02,21.11,9.03,29.48l-2.37,1.98c-7.59-9.07-9.19-21.5-9.74-31.3-.12-2.13-.2-4.27-.28-6.42-.33-8.46-.66-17.2-3.41-25.19-2.37-6.9-6.54-13.19-10.57-19.27-.97-1.46-1.93-2.91-2.87-4.37Z"/>
      <path class="cls-1" d="M353.63,377.15c25.18-17.15,40.97-51.19,38.39-82.76l3.08-.25c2.67,32.63-13.67,67.82-39.73,85.57l-1.74-2.56Z"/>
      <path class="cls-1" d="M112.25,288.04c17.87-42.03,41.46-77.38,70.11-105.08,32.34-31.28,72.05-51.93,111.82-58.15l.48,3.06c-39.15,6.12-78.27,26.47-110.15,57.32-28.35,27.41-51.71,62.42-69.42,104.06l-2.84-1.21Z"/>
      <path class="cls-1" d="M222.13,152.31c27.89-8.06,58.59-4.92,84.24,8.64l-1.45,2.73c-24.95-13.18-54.81-16.24-81.93-8.4l-.86-2.97Z"/>
      <path class="cls-1" d="M254.62,136.15c8.81-9.86,12.32-23.97,9.19-36.81l3-.73c3.39,13.82-.41,28.99-9.89,39.61l-2.31-2.06Z"/>
      <path class="cls-1" d="M172.67,129.63l2.28-2.09c12.95,14.14,18.13,35.26,13.18,53.81l-2.99-.8c4.68-17.55-.21-37.54-12.47-50.93Z"/>
      <path class="cls-1" d="M293.32,447.66l6.86-5.55c1.55-1.25,2.02-3.52,2.52-5.92l.29-1.38c.82-3.58,3.09-7.41,6.98-7.46,.27,0,.56,.01,.85,.03,.29,.02,.65,.05,.78,0,.08-.03,.4-.23,.62-1.68l4.35-27.27c.58-3.58,1.29-8.03,4.18-11.23,1.09-1.22,2.38-2.13,3.62-3.02,.62-.44,1.24-.88,1.84-1.36,1.34-1.09,2.52-2.42,3.78-3.82,2.3-2.56,4.69-5.21,8.12-6.44,4.12-1.49,7.94-.4,10.42,.77,3.32,1.57,5.79,3.99,6.69,5.72,4.9,3.15,8.16,8.89,8.25,14.85,.07,5.49-2.35,10.53-4.48,14.98-3.13,6.5-6.67,13.87-12.92,18.7-4.36,3.37-9.71,5.21-14.44,6.84l-38.34,13.22Zm66.88-55.83c-.72-4.3-3.33-8.18-6.97-10.37l-.48-.29-.19-.53c-.24-.7-2.13-2.98-5.35-4.51-1.94-.92-4.92-1.79-8.04-.66-2.7,.97-4.73,3.22-6.87,5.6-1.28,1.42-2.6,2.89-4.13,4.14-.64,.52-1.32,1-2,1.49-1.16,.82-2.25,1.6-3.11,2.56-2.28,2.53-2.89,6.31-3.43,9.65l-4.35,27.25c-.14,.88-.5,3.26-2.51,4.07-.79,.33-1.57,.28-2.19,.23-.19-.01-.38-.03-.57-.03-1.99,.02-3.45,2.55-4.02,5.05l-.28,1.32c-.24,1.17-.5,2.41-.91,3.6l25.82-8.9c4.72-1.63,9.6-3.31,13.55-6.36,5.67-4.38,9.04-11.4,12.02-17.59,1.98-4.14,4.23-8.84,4.17-13.6-.01-.71-.08-1.42-.19-2.13Z"/>
      <path class="cls-1" d="M436.67,447.67c-.18-1.08-.23-2.01-.15-2.84l.07-.78,.68-.4c5.87-3.47,12.19-5.97,18.78-7.44,2.85-.63,6.19-1.19,9.44-.43,5.97,1.34,10,6.34,13.47,11.55,6.12,9.2,11.49,19.01,15.96,29.16l.35,.8c1.37,3.13,2.78,6.36,4.93,8.89,1.1,1.3,2.4,2.44,3.77,3.65,2.34,2.06,4.76,4.19,6.17,7.17l-2.65,1.57c-2.23-3.06-6.92-2.91-11.46-2.78l-1.58,.05c-12.01,.24-23.39-4.85-33.44-9.33-3.04-1.36-6.48-2.91-9.09-5.57-2.32-2.39-3.68-5.35-5.01-8.21l-4.95-10.76c-2.17-4.82-4.64-10.26-5.32-14.3Zm2.91-1.79c.14,3.4,2.97,9.84,5.22,14.8l4.94,10.75c1.21,2.62,2.46,5.34,4.41,7.35,2.19,2.24,5.21,3.59,8.13,4.9,9.75,4.35,20.8,9.28,32.11,9.06l1.55-.04c2.23-.07,4.58-.14,6.79,.16-.27-.24-.53-.47-.81-.71-1.4-1.23-2.85-2.5-4.09-3.97-2.44-2.87-3.95-6.32-5.4-9.65l-.35-.8c-4.4-9.99-9.68-19.64-15.71-28.69-3.11-4.67-6.66-9.14-11.58-10.25-2.66-.62-5.57-.13-8.08,.43-6,1.34-11.76,3.58-17.14,6.66Z"/>
      <path class="cls-1" d="M372.53,498.12c-.69-4.09-.29-8.42,.19-12.5l1.89-16.3c.13-1.08,.26-2.26,.8-3.39,.68-1.51,1.92-2.59,3.02-3.55l.26-.23c5.09-4.46,9.25-9.82,12.66-14.48l1.17-1.6,1.27,1.53c5.48,6.63,11.15,13.49,14.86,21.55,4.18,9.07,5.06,18.54,2.33,26.27-1.05,2.99-2.63,5.74-4.16,8.4-.43,.75-.86,1.5-1.28,2.25-5.2,9.31-8.69,19.38-10.39,29.91l-1.24,7.72-1.79-7.61c-.54-2.28-2.76-3.85-5.11-5.51-2.64-1.86-5.62-3.97-6.35-7.48v-.03c-.36-2.13,.03-3.87,.4-5.55,.33-1.47,.64-2.85,.43-4.11-.37-1.95-1.83-3.43-3.38-5.01-.83-.85-1.66-1.7-2.37-2.62-1.63-2.11-2.68-4.62-3.19-7.67Zm20.12-47.01c-3.28,4.39-7.2,9.23-11.93,13.38l-.27,.24c-.94,.82-1.82,1.59-2.24,2.52-.33,.69-.43,1.53-.53,2.42l-1.89,16.33c-.45,3.86-.83,7.94-.21,11.63,.42,2.53,1.27,4.59,2.59,6.29,.63,.82,1.38,1.58,2.13,2.34,1.8,1.83,3.67,3.73,4.2,6.48h0c.34,2.04-.05,3.79-.43,5.48-.33,1.47-.64,2.85-.43,4.11,.52,2.49,2.76,4.07,5.14,5.75,1.38,.97,2.86,2.02,4.07,3.3,1.94-9.4,5.29-18.39,9.98-26.79,.42-.76,.86-1.52,1.3-2.29,1.52-2.65,2.96-5.16,3.92-7.89,2.46-6.97,1.63-15.62-2.22-23.95-3.27-7.1-8.23-13.34-13.18-19.35Z"/>
      <path class="cls-1" d="M517.77,360.79c-.51-3.03-.13-6.32,1.08-9.27l.16-.41,.36-.26c3.7-2.68,8.76-3.7,14.24-2.87,4.74,.72,9.09,2.6,13.29,4.42,7.22,3.13,14.53,6.75,17.72,13.59,.88,1.92,1.37,3.93,1.83,5.88,.17,.71,.34,1.42,.53,2.12,1.58,5.97,4.49,11.15,8.43,14.99,1.21,1.18,2.6,2.32,3.94,3.43,3.67,3.02,7.47,6.16,8.92,10.88l1.19,3.87-3.47-2.1c-5.21-3.14-12.2-3.08-17.39,.15-.35,.22-.69,.45-1.03,.67-.96,.64-1.94,1.31-3.12,1.76-4.73,1.81-9.52-.89-11.96-2.66-1.06-.77-2.07-1.61-3.07-2.46-1.86-1.56-3.61-3.03-5.67-3.98-1.01-.48-2.09-.82-3.24-1.19-1.19-.38-2.41-.77-3.6-1.33-8.05-3.75-10.71-13.03-11.58-18.22l-.46-3.01c-.25-1.51-.6-3.1-1.47-4.42-.44-.67-1.03-1.3-1.65-1.96-.46-.49-.92-.98-1.34-1.51-1.34-1.7-2.25-3.81-2.64-6.13Zm3.78-7.69c-1.52,4.1-1.04,8.94,1.28,11.89,.36,.45,.77,.88,1.18,1.32,.68,.73,1.39,1.48,1.98,2.38,1.53,2.35,1.83,4.9,2.17,7.18l.22,1.44c.77,4.6,3.08,12.77,9.84,15.93,1.01,.47,2.09,.82,3.23,1.18,1.19,.38,2.42,.77,3.61,1.33,2.42,1.12,4.41,2.8,6.35,4.42,.95,.8,1.9,1.6,2.9,2.32,1.55,1.13,5.54,3.61,9.04,2.27,.85-.32,1.65-.86,2.5-1.43,.37-.25,.75-.5,1.12-.74,4.85-3.02,11.02-3.7,16.44-2.04-1.57-2.09-3.75-3.89-6.02-5.76-1.39-1.15-2.83-2.33-4.13-3.6-4.34-4.22-7.54-9.9-9.26-16.4-.19-.72-.37-1.46-.55-2.2-.45-1.88-.88-3.66-1.63-5.29-2.73-5.86-9.19-9.05-16.14-12.06-4.02-1.74-8.18-3.54-12.53-4.2-4.42-.67-8.62,.08-11.6,2.06Z"/>
      <path class="cls-1" d="M538.14,291.56l2.51-.22c4.04-.35,7.98,.46,11.8,1.25,1.21,.25,2.43,.5,3.64,.71,6.67,1.17,13.43,1.18,20.07,.04l.67-.11c2.01-.35,4.09-.71,6.24-.23,2.57,.6,4.9,2.35,6.96,5.21,3.75,5.25,5.05,11.54,5.97,17.02l1.01,6.28c1.02,6.08,2.26,10.99,5.01,15.17,.9,1.37,1.95,2.65,3.07,4,2.22,2.69,4.51,5.47,5.48,9.02l1.27,4.65-3.74-3.04c-3.47-2.82-8.27-2.39-13.35-1.93-2.68,.24-5.44,.49-8.12,.26-7.46-.63-14.37-5.39-17.6-12.13-.24-.5-.46-1.01-.68-1.52-.75-1.73-1.46-3.36-2.73-4.29-.76-.56-1.75-.88-2.8-1.23-.86-.28-1.75-.57-2.61-1.03-3.45-1.77-5.26-5.22-6.94-8.88l-.59-1.25c-4.05-8.65-8.24-17.59-13.22-25.59l-1.33-2.14Zm54.81,24.18c-.86-5.14-2.07-11.02-5.43-15.73-1.6-2.23-3.33-3.58-5.14-3.99-1.54-.35-3.23-.05-5.02,.26l-.68,.12c-6.99,1.2-14.1,1.19-21.13-.05-1.24-.22-2.48-.47-3.73-.73-2.86-.59-5.61-1.16-8.33-1.26,4.47,7.54,8.29,15.7,12,23.61l.59,1.26c1.46,3.17,2.98,6.11,5.56,7.44,.69,.36,1.42,.59,2.16,.83,1.23,.41,2.51,.82,3.67,1.68,1.94,1.43,2.89,3.62,3.73,5.56,.21,.48,.41,.96,.63,1.42,2.77,5.77,8.69,9.85,15.07,10.39,2.41,.21,5.03-.03,7.58-.26,3.83-.35,7.76-.7,11.3,.37-.89-1.36-1.96-2.67-3.07-4.01-1.12-1.36-2.28-2.76-3.27-4.27-3.38-5.15-4.6-11.14-5.48-16.36l-1.01-6.28Z"/>
      <path class="cls-1" d="M517.14,284.69c11.71-6.32,21.62-14.24,27.2-21.7l2.48,1.85c-5.84,7.82-16.12,16.04-28.21,22.57l-1.47-2.72Z"/>
      <path class="cls-1" d="M520.74,199.02h0c-.18-1.1,.27-2.35,1.2-3.34,.62-.66,1.36-1.12,2.15-1.34,1.49-10.49,6.07-20.64,12.95-28.7,1.8-2.11,4.05-4.38,7.09-5.2,1.51-.41,3.01-.41,4.45-.41,1.04,0,2.02,0,2.95-.15,2.28-.37,4.45-1.67,6.75-3.03,3.4-2.03,6.92-4.12,11.04-3.14,1.58,.38,2.92,1.17,4.21,1.92,1.28,.75,2.49,1.46,3.75,1.65,.63,.09,1.32,.06,2.05,.02,.51-.03,1.02-.05,1.52-.04,4.04,.06,7.5,2.08,10.85,4.04,.69,.4,1.37,.8,2.06,1.18,2.63,1.45,7.55,3.56,11.03,1.31l5.03-3.25-2.83,5.28c-1.85,3.46-5.17,5.47-8.39,7.42-3.02,1.83-5.87,3.56-7.3,6.33-.21,.4-.39,.83-.58,1.26-.64,1.48-1.37,3.17-3.03,4.14-1.69,1-3.52,.79-5.14,.6-1.05-.12-2.04-.23-2.85-.01-1.01,.28-1.9,1.12-2.84,2.01-.46,.43-.92,.86-1.4,1.26-2.47,2-5.44,2.87-8.32,3.71-2.36,.69-4.59,1.35-6.47,2.57-1.05,.68-1.98,1.53-2.97,2.44-.96,.88-1.96,1.79-3.11,2.57-5.94,4.04-13.09,3.04-20.01,2.08-3.44-.48-7-.97-10.31-.82-2.3,.11-3.34-1.15-3.54-2.35Zm80.4-31.16c-2.67,0-5.7-.9-8.89-2.67-.71-.39-1.41-.8-2.12-1.22-3.14-1.84-6.1-3.57-9.34-3.62-.44,0-.88,.01-1.31,.04-.85,.04-1.73,.09-2.66-.05-1.86-.27-3.39-1.17-4.87-2.04-1.15-.68-2.23-1.31-3.36-1.58-2.9-.69-5.73,1-8.74,2.79-2.45,1.46-4.97,2.96-7.84,3.43-1.18,.19-2.33,.19-3.44,.19-1.3,0-2.53,0-3.64,.3-2.22,.6-4.04,2.47-5.54,4.22-6.76,7.91-11.16,17.95-12.39,28.27l-.18,1.51-1.52-.16c-.44-.04-.84,.28-1,.42-.22,.2-.36,.43-.44,.6,.07,0,.17,0,.28,0,3.6-.17,7.3,.34,10.88,.84,6.63,.92,12.89,1.79,17.85-1.58,.96-.65,1.83-1.45,2.76-2.29,1.04-.95,2.12-1.93,3.37-2.75,2.26-1.47,4.82-2.22,7.29-2.95,2.7-.79,5.25-1.54,7.24-3.15,.42-.34,.82-.72,1.22-1.1,1.12-1.06,2.39-2.26,4.15-2.74,1.38-.38,2.78-.22,4.02-.08,1.3,.15,2.42,.28,3.21-.19,.79-.46,1.26-1.55,1.76-2.7,.21-.49,.43-.99,.67-1.45,1.82-3.54,5.19-5.58,8.44-7.55,1.47-.89,2.9-1.76,4.15-2.73Z"/>
      <path class="cls-1" d="M544.14,264.51l.19-1.25c.13-.9,.71-2.05,1.51-3.64,.81-1.6,1.81-3.59,2.48-5.62l.28-.89c.51-1.66,1.09-3.54,2.57-4.92,.59-.55,1.26-.95,1.85-1.3,.26-.15,.52-.31,.77-.48,2.26-1.53,3.53-4.16,4.87-6.94,.72-1.49,1.47-3.04,2.4-4.46,3.87-5.88,11.19-9.61,19.09-9.74,6.62-.11,13.49,2.03,20.43,6.36,.85,.53,1.69,1.08,2.54,1.64,2.17,1.43,4.23,2.78,6.49,3.72,3.43,1.43,7.33,1.85,10.99,1.16l1.85-.35-.02,1.88c-.04,3.85-2.89,7.37-6.65,8.2-.63,.14-1.3,.21-1.97,.29-1.3,.14-2.42,.25-2.96,.9-.17,.21-.33,.54-.5,.92-.19,.41-.38,.82-.63,1.2-1.18,1.76-3.19,2.49-4.66,3.02-5.7,2.04-11.4,4.06-17.1,6.08-14.81,5.26-29.22,9.57-42.63,4.66l-1.18-.43Zm74.82-23.03c-3.58,.3-7.26-.26-10.55-1.64-2.52-1.05-4.8-2.55-7-3.99-.82-.54-1.64-1.08-2.47-1.59-6.43-4.01-12.74-6-18.75-5.9-6.9,.11-13.24,3.31-16.55,8.35-.82,1.26-1.5,2.64-2.21,4.11-1.46,3.02-2.98,6.15-5.93,8.15-.3,.2-.61,.39-.91,.57-.5,.3-.97,.58-1.32,.9-.88,.83-1.3,2.16-1.74,3.58l-.3,.94c-.74,2.25-1.8,4.36-2.65,6.05-.25,.49-.52,1.03-.75,1.51,12.06,3.74,25.36-.3,39.07-5.16,5.7-2.02,11.4-4.04,17.09-6.08,1.43-.51,2.57-.98,3.13-1.82,.15-.24,.27-.51,.4-.78,.23-.5,.49-1.06,.92-1.59,1.35-1.63,3.39-1.84,5.02-2.02,.55-.06,1.11-.11,1.63-.23,1.73-.38,3.2-1.73,3.85-3.37Z"/>
      <path class="cls-1" d="M448.55,300.73l2.74-1.44c7.28,13.86,12.29,28.72,14.88,44.14l.07,.42-3.05,.51c-.02-.14-.04-.28-.07-.42-2.54-15.1-7.44-29.64-14.57-43.22Z"/>
      <path class="cls-1" d="M463.29,152.78c-.43-2.58-.58-5.13-.44-7.59,.46-7.88,4.81-17.08,13.46-19.88,1.01-.33,2.06-.55,3.1-.78,1.89-.41,3.67-.8,5.06-1.77,.45-.32,.86-.71,1.28-1.08,.61-.56,1.23-1.12,1.94-1.57,2.85-1.81,6.27-1.55,9.29-1.32l.6,.05c9.76,.72,19.66-1,28.63-4.97l3.27-1.45-1.18,3.37c-3.26,9.31-9.34,16.27-14.27,21.29-1.4,1.42-2.93,2.85-4.92,3.49-.48,.16-.99,.27-1.51,.37-.45,.09-.9,.17-1.33,.34-2.3,.88-3.03,3.79-3.81,6.87-.23,.9-.45,1.78-.71,2.62-1.79,5.65-6.52,10.7-13,13.86-5.65,2.76-11.87,3.92-17.88,5.04l-1.11,.21-.59-.99c-3.1-5.81-5.02-11.08-5.87-16.1Zm60.75-34.7c-8.49,3.18-17.65,4.5-26.69,3.83l-.61-.05c-2.66-.2-5.41-.42-7.39,.84-.55,.35-1.04,.8-1.52,1.25-.51,.46-1.02,.92-1.58,1.32-1.91,1.34-4.09,1.82-6.19,2.27-.95,.21-1.9,.41-2.81,.7-7.22,2.34-10.93,10.51-11.32,17.12-.37,6.39,1.38,13.22,5.42,21.05,5.5-1.03,11.08-2.17,16.02-4.58,5.72-2.79,9.87-7.17,11.4-12.01,.25-.78,.45-1.61,.67-2.45,.89-3.54,1.91-7.54,5.7-8.99,.59-.23,1.2-.36,1.83-.49,.39-.08,.78-.15,1.16-.28,1.34-.43,2.51-1.53,3.68-2.73,4.09-4.16,9-9.71,12.22-16.82Z"/>
      <path class="cls-1" d="M452.07,368.14c-1.19-7.11,2.19-15.99,10.04-26.39l.54-.71,.89,.11c13.67,1.69,21.56,12.38,23.11,21.6,.08,.46,.14,.92,.19,1.38l.09,1.03c.13,1.58,.35,3.15,.91,4.18,.37,.69,.94,1.35,1.55,2.06l.55,.64c2.78,3.34,4.56,7.16,6.13,10.52,1.56,3.33,3.12,6.66,4.7,9.98l5.67,12.04-21.37-4.89c-2.06-.47-4.04-.98-5.58-2.14-2.04-1.54-2.61-3.71-2.86-5.21-.12-.71-.19-1.45-.26-2.19-.07-.67-.13-1.33-.24-1.98-.25-1.49-.69-2.43-1.47-3.14-.87-.79-2.26-1.31-3.49-1.74-.9-.31-1.81-.61-2.72-.91-2.61-.85-5.3-1.73-7.74-3-4.84-2.51-7.82-6.4-8.64-11.26Zm11.97-23.8c-11.31,15.29-12.02,27.06-1.9,32.31,2.21,1.15,4.67,1.95,7.27,2.8,.93,.3,1.86,.61,2.78,.93,1.52,.53,3.25,1.2,4.54,2.37,1.71,1.55,2.21,3.55,2.44,4.92,.12,.72,.2,1.46,.26,2.2,.07,.66,.13,1.33,.24,1.97,.27,1.62,.76,2.56,1.68,3.25,1.04,.79,2.6,1.18,4.4,1.59l15.17,3.47-2.96-6.28c-1.58-3.33-3.14-6.66-4.7-9.99-1.49-3.19-3.18-6.82-5.71-9.85l-.51-.61c-.69-.8-1.4-1.63-1.93-2.62-.77-1.44-1.09-3.38-1.26-5.38l-.09-.97c-.84-8.23-7.58-18.19-19.72-20.11Z"/>
      <path class="cls-1" d="M305.65,172.51c-.37-2.22-.53-4.47-.63-6.38-.1-2.03-.04-4.3,1.18-5.7,7.95-9.19,23.21-10.54,32.64-2.87,4.46,3.62,7.29,8.61,10.04,13.43,1.56,2.73,3.16,5.56,5.03,8.05,4.1,5.46,9.88,9.79,16.29,12.17,2.61,.96,5.41,1.65,8.13,2.32l2.13,.52-1.14,1.84c-1.31,2-3.65,2.12-5.54,2.22l-.79,.05c-2.74,.2-5.29,1.47-7.99,2.81-.88,.44-1.76,.88-2.65,1.28-3.63,1.64-8.83,3.02-12.97,.31-.9-.58-1.63-1.29-2.34-1.98-.66-.64-1.28-1.25-1.98-1.67-1.77-1.09-4.05-1.08-6.47-1.06-2.39,.01-4.86,.03-7.18-.99-2.41-1.05-4.07-2.95-5.68-4.8-1.1-1.26-2.14-2.45-3.37-3.33-1.42-1.01-3.14-1.63-4.95-2.28-2.01-.72-4.1-1.47-5.92-2.82-3.05-2.29-4.96-5.92-5.83-11.12Zm66.53,22.62c-1.03-.31-2.06-.63-3.06-1.01-6.96-2.59-13.24-7.28-17.68-13.22-1.98-2.65-3.64-5.56-5.25-8.38-2.72-4.79-5.29-9.31-9.3-12.56-8.05-6.54-21.56-5.35-28.35,2.5-.26,.3-.54,1.15-.42,3.51,.1,1.82,.24,3.96,.59,6.03,.74,4.43,2.22,7.34,4.63,9.15,1.45,1.08,3.23,1.72,5.11,2.39,1.93,.69,3.94,1.41,5.71,2.67,1.53,1.09,2.74,2.47,3.9,3.81,1.45,1.66,2.82,3.22,4.59,4,1.72,.75,3.76,.74,5.93,.73,2.75-.02,5.58-.03,8.1,1.52,.98,.6,1.76,1.36,2.51,2.09,.63,.61,1.22,1.19,1.87,1.61,3.13,2.06,7.62,.55,10.01-.53,.85-.39,1.7-.81,2.55-1.23,2.69-1.34,5.46-2.72,8.58-3.08Z"/>
      <path class="cls-1" d="M291.7,127.08l1.56-1.79c6.73-7.71,12.19-16.36,16.24-25.72l.26-.61c1.09-2.54,2.21-5.17,4.25-7.26,6.92-7.07,18.34-2.93,22.93-.82,.99,.46,2,.94,3,1.42,5.71,2.74,11.62,5.58,17.44,4.39,.51-.11,1.02-.25,1.53-.39,.99-.26,2.02-.54,3.12-.65,.63-.06,1.51-.19,2.52-.34,3.81-.56,6.86-.95,8.7-.52,2.56,.6,4.41,1.78,6.04,2.81,1.04,.66,1.95,1.25,2.93,1.61,1.48-.29,2.96-.19,4.42,.31l5.46,1.86-5.66,1.12c-1.52,.3-2.94,.28-4.31-.07-2.25,.73-4.45,2.9-5.95,5.88l-.19,.38c-2.2,4.36-4.27,8.48-9.27,10.65-2.3,.99-4.71,1.06-7.03,1.12-1.66,.05-3.24,.09-4.7,.45-3.64,.91-6.4,3.69-9.31,6.63-2.19,2.21-4.45,4.5-7.22,6.09-8.1,4.67-17.8,2.33-27.03-.47l-7.73-2.39c-3.11-.96-6.31-1.95-9.7-3.01l-2.27-.71Zm86.09-26.74c-.06-.04-.12-.08-.18-.11-1.49-.95-3.03-1.93-5.08-2.41-1.41-.33-5.09,.21-7.54,.57-1.06,.16-2.01,.29-2.67,.36-.84,.08-1.7,.31-2.61,.56-.56,.15-1.13,.3-1.7,.42-6.85,1.41-13.24-1.66-19.41-4.63-.99-.48-1.97-.95-2.95-1.4-3.11-1.43-13.72-5.64-19.42,.17-1.63,1.68-2.6,3.93-3.62,6.31l-.27,.62c-3.86,8.93-8.97,17.24-15.22,24.72,2.57,.8,5.04,1.56,7.45,2.3l7.73,2.39c8.58,2.6,17.55,4.79,24.58,.74,2.41-1.38,4.43-3.42,6.57-5.58,3.09-3.12,6.28-6.34,10.76-7.46,1.79-.45,3.61-.5,5.37-.55,2.13-.06,4.14-.11,5.89-.86,3.97-1.72,5.64-5.02,7.74-9.2l.19-.38c1.22-2.42,2.82-4.4,4.62-5.76l-1.57-.49,1.34-.34Z"/>
      <path class="cls-1" d="M243.28,55.03c-.59-3.54-.93-8.03,1.77-11.37,.68-.83,1.47-1.51,2.24-2.15,1.11-.93,2.06-1.74,2.4-2.79,.34-1.05-.06-2.57-.53-4.05-.47-1.51-.9-3.09-.83-4.46,.17-4.05,3.45-6.54,6.35-8.74,.84-.64,1.68-1.28,2.44-1.94,3.8-3.36,6.05-8.68,6.69-15.81-.02-1.24,.05-2.49,.19-3.71l3.08,.2c-.02,1.2-.08,2.41-.18,3.63,.02,1.38,.16,2.79,.4,4.21,1.27,7.54,5.44,14.9,9.47,22.02,2.02,3.57,4.11,7.26,5.84,10.97,5.33,11.44,7.04,23.59,4.79,34.27-2.58,12.2-10.61,22.63-20.97,27.23l-1.95,.86-.22-2.12c-.99-9.7-6.33-19.83-14.29-27.34l-.32-.31c-.97-.92-1.98-1.88-2.74-3.13-.91-1.52-1.25-3.24-1.55-4.75l-1.76-8.92c-.12-.59-.23-1.18-.33-1.78Zm9.53-18.65c.2,1.22,.15,2.3-.18,3.3-.61,1.88-2.07,3.11-3.34,4.19-.69,.58-1.34,1.13-1.83,1.74-1.93,2.38-1.62,6.01-1.13,8.91,.1,.57,.2,1.14,.31,1.69l1.76,8.93c.27,1.33,.54,2.71,1.17,3.76,.53,.89,1.35,1.66,2.21,2.48l.32,.31c7.85,7.42,13.29,17.25,14.92,26.95l.03,.15c8.55-4.58,15.11-13.63,17.32-24.12,2.11-10.02,.47-21.49-4.56-32.33-1.68-3.59-3.74-7.23-5.73-10.75-3.47-6.13-7.05-12.44-8.92-19.06-1.33,3.85-3.33,6.96-5.99,9.32-.81,.72-1.71,1.4-2.62,2.09-2.58,1.96-5.02,3.82-5.13,6.41-.04,.98,.33,2.24,.7,3.4,.28,.89,.56,1.77,.7,2.64Z"/>
      <path class="cls-1" d="M114.5,87.32h0c-.25-1.48-.37-2.99-.37-4.47,.03-6.44,2.49-12.57,4.88-18.49,2.92-7.24,5.68-14.1,4.03-21.04l3.01-.74c2.43,9.39,8.96,17.78,17.47,22.46l.66,.36c1.9,1.03,4.06,2.2,5.28,4.35,.92,1.64,1.04,3.11,1.22,4.44,.09,.65,.17,1.31,.33,1.95,1.25,5.23,6.47,7.93,11.99,10.79,2.2,1.14,4.47,2.31,6.5,3.67,6.11,4.11,10.37,10.97,11.69,18.84,1.14,6.82-.06,13.58-3.39,19.04l-.23,.38-.4,.2c-4.75,2.35-10.85,1.45-17.66-2.61-.86-.51-1.72-1.05-2.58-1.59-3.83-2.39-7.78-4.87-12.06-5.18-.7-.05-1.4-.05-2.09-.06-1.68,0-3.42-.01-5.14-.65-2.01-.77-3.53-2.27-4.86-3.59-8.26-8.26-16.45-17.19-18.27-28.06Zm11.79-35.67c-.74,4.73-2.59,9.34-4.41,13.86-2.28,5.65-4.63,11.5-4.65,17.35,0,1.31,.11,2.64,.32,3.95,1.67,9.96,9.49,18.48,17.37,26.35,1.25,1.24,2.41,2.39,3.8,2.92,1.19,.45,2.58,.45,4.05,.45,.77,0,1.55,0,2.32,.07,5.04,.37,9.32,3.05,13.47,5.64,.84,.53,1.68,1.05,2.52,1.55,3.97,2.37,9.63,4.72,14.3,2.69,2.76-4.75,3.74-10.6,2.74-16.52-1.18-7.03-4.96-13.15-10.36-16.78-1.88-1.26-4.07-2.4-6.19-3.49-5.9-3.06-12-6.21-13.58-12.82-.17-.73-.28-1.49-.38-2.25-.19-1.38-.41-2.57-.84-3.33-.78-1.38-2.38-2.24-4.06-3.15l-.68-.37c-6.64-3.65-12.16-9.38-15.73-16.1Z"/>
      <path class="cls-1" d="M154.77,266.45l-.18-3.09c28.7-1.63,59.32,2.76,86.23,12.38l-1.04,2.91c-26.52-9.48-56.71-13.82-85-12.2Z"/>
      <path class="cls-1" d="M235.8,274.53l1.57-.42c13.62-3.62,26.92-2.49,37.47,3.18,9.72,5.22,16.83,14.81,18.54,25.03,.38,2.27,.49,4.56,.34,6.8-.05,.77-.14,1.54-.22,2.31-.18,1.6-.35,3.12-.21,4.59l.05,.4c.3,1.78,1.52,3.33,2.8,4.97,1.52,1.94,3.25,4.13,3.75,7.11l1.24,7.36-4.06-6.27c-1.94-2.99-6.19-3.48-7.93-3.54-1.61-.06-3.22,.06-4.92,.19-1.82,.14-3.7,.28-5.6,.18-6.71-.35-13.09-3.79-17.06-9.21-.66-.9-1.26-1.85-1.85-2.8-.98-1.57-1.91-3.05-3.12-4.26-1.38-1.36-3.13-2.35-5-3.41-2.57-1.46-5.23-2.96-7-5.57-1.2-1.77-1.8-3.8-2.34-5.59l-.63-2.1c-1.87-6.25-3.72-12.39-5.33-17.42l-.49-1.55Zm54.53,28.3c-1.56-9.29-8.06-18.04-16.96-22.82-9.45-5.08-21.34-6.24-33.63-3.31,1.49,4.72,3.16,10.27,4.84,15.9l.63,2.1c.49,1.66,1.01,3.37,1.94,4.74,1.36,2.01,3.6,3.27,5.96,4.61,1.96,1.11,3.98,2.25,5.65,3.9,1.47,1.46,2.54,3.17,3.57,4.82,.55,.89,1.1,1.77,1.72,2.61,3.43,4.68,8.94,7.65,14.73,7.95,1.7,.09,3.4-.04,5.2-.18,1.71-.13,3.48-.27,5.27-.2,1.77,.07,3.41,.37,4.87,.88-.14-.18-.28-.35-.41-.53-1.59-2.02-3.24-4.1-3.5-6.99-.17-1.79,.03-3.53,.21-5.23,.08-.72,.16-1.45,.21-2.18,.14-2,.04-4.04-.3-6.07Z"/>
      <path class="cls-1" d="M240.05,276.48c7.91,5.34,15.23,11.78,22.67,17.6-6.49-7.13-13.5-14.13-22.67-17.6Z"/>
      <path class="cls-1" d="M287.4,318.7c1.84,2.2,4.12,3.97,6.56,5.44-2.01-1.95-4.28-3.83-6.56-5.44Z"/>
      <path class="cls-1" d="M265.54,304.52c-.02-.09-.04-.17-.09-.25"/>
      <path class="cls-1" d="M249.1,286.51c.28,.66,.68,1.42,1.08,1.94-.26-.69-.62-1.35-1.08-1.94Z"/>
      <path class="cls-1" d="M265.66,294.73c5.88,7.86,11.81,15.88,19.53,22.07-5.92-7.26-13.2-16.98-19.53-22.07Z"/>
      <path class="cls-1" d="M243.35,282.17c1.3,5.01,3.63,9.63,6.56,13.86-1.83-4.71-4.21-9.55-6.56-13.86Z"/>
      <path class="cls-1" d="M252.82,279.47c6.16,3.06,12.73,5.58,18.81,8.62-5.36-4.37-12.26-7.18-18.81-8.62Z"/>
      <path class="cls-1" d="M244.92,277.02c4.73,.63,9.42,1.46,14.18,1.87,2.27,.26,4.37,.51,6.42,1.4-6-3.62-14.05-3.6-20.6-3.27Z"/>
      <path class="cls-1" d="M271.11,319.14c5.94,2.78,12.56,2.87,18.89,3.97-5.97-2.48-12.69-2.72-18.89-3.97Z"/>
      <path class="cls-1" d="M290.9,316.71c-2.34-5.35-3.7-10.55-5.31-16.02-.29-1.11-.64-2.43-.95-3.42,.07,.58,.12,1.15,.18,1.74,.57,6.01,1.94,12.11,5.12,17.31,.82,1.32,1.81,2.57,3.13,3.43-1.05-.94-1.58-1.84-2.17-3.04Z"/>
      <path class="cls-1" d="M151.86,103.47c3.55,5.51,7.78,10.56,12.5,15.1,3.22,3.29,6.89,6.21,9.61,9.96-5.34-9.88-14.66-16.82-22.1-25.06Z"/>
      <path class="cls-1" d="M134.66,73.53c-2.81-7.64-6.19-15.48-8.5-23.09-.44-1.37-.84-2.84-1.19-4.16,.06,.43,.1,.87,.16,1.3,1.16,8.79,3.99,17.24,7.08,25.52,3.44,9.3,7.72,18.37,13.48,26.49-4.34-8.4-7.62-17.27-11.02-26.07Z"/>
      <path class="cls-1" d="M126.55,63.27c-.83,5.9,0,11.91,2.53,17.32-1.23-5.71-1.94-11.55-2.53-17.32Z"/>
      <path class="cls-1" d="M128.54,54.33c3.12,6.91,7.56,13.27,13.19,18.34-4.3-6.1-8.75-12.58-13.19-18.34Z"/>
      <path class="cls-1" d="M159.63,101.62c-6.08-5.39-12.31-9.7-17.41-15.9-.47-.55-.92-1.18-1.3-1.76,.39,.83,.86,1.63,1.36,2.39,5.02,7.89,12.75,13.62,18.25,19.1,6.23,6.48,11.86,13.76,16.43,21.43-4-9.42-9.71-18.33-17.32-25.26Z"/>
      <path class="cls-1" d="M265.73,60.8c1.81,12.46,1.24,24.02,.18,37.14,3.45-12.08,4.04-25.34-.18-37.14Z"/>
      <path class="cls-1" d="M267.08,7.59c.04-.6,.13-1.64,.11-1.96-.23,1.17-.47,2.32-.75,3.48-1.32,5.61-3.17,12.08-3.79,18.17-.69,7.1-.26,14.32,1.13,21.3-.65-13.76,1.87-27.36,3.3-40.99Z"/>
      <path class="cls-1" d="M257.95,37.48c-1.1,3.37-1.65,6.91-1.49,10.46,.53-3.44,1.23-7.06,1.49-10.46Z"/>
      <path class="cls-1" d="M273.3,42.31c.8,3.02,2.08,5.85,3.44,8.65-.86-2.95-1.97-6.04-3.44-8.65Z"/>
      <path class="cls-1" d="M272.3,32c-2.2-3.68-3.44-5.37-5.45-8.78,2.96,7.8,7.18,15.15,12.35,21.7-2.41-4.24-4.27-8.79-6.89-12.93Z"/>
      <path class="cls-1" d="M273.38,79.6c-1.75,5.83-2.77,11.9-4.07,17.78,2.62-5.53,3.78-11.8,4.07-17.78Z"/>
      <path class="cls-1" d="M255.58,74.38c-3.77-6.85-5.59-12.36-6.66-19.85-.21-1.34-.39-3.1-.54-4.24-.06,.93-.11,1.88-.16,2.82-.41,6.44,.98,13,4.57,18.43,1.41,2.15,2.94,4.42,5.12,5.83-1.1-.87-1.72-2.03-2.34-2.98Z"/>
      <path class="cls-1" d="M321.06,116.52c-9.3,1.87-18.06,5.59-26.96,8.71,9.44-1.21,18.31-4.93,26.96-8.71Z"/>
      <path class="cls-1" d="M378.59,100.83c-9.96,.15-19.79,3.01-28.95,6,9.85-1.02,19.35-3.78,28.95-6Z"/>
      <path class="cls-1" d="M344.02,109.69c-3.57-.21-7.21,.52-10.47,1.84,3.51-.47,6.99-1.15,10.47-1.84Z"/>
      <path class="cls-1" d="M314.84,111.5c4.63-2.61,9.07-5.58,13.68-8.23-8.28,3-16.71,7.17-22.5,13.97,2.77-2.43,5.63-3.89,8.82-5.75Z"/>
      <path class="cls-1" d="M333.08,126.1c.41-.18,.86-.38,1.24-.56-.8,.2-1.61,.38-2.42,.56-9.11,1.97-17.3,2.92-26.12,2.23,9.01,2.66,18.79,1.65,27.29-2.24Z"/>
      <path class="cls-1" d="M328.68,92.66c-7.5,2.34-14.81,6.05-20.22,11.86,6.27-4.32,13.55-7.95,20.22-11.86Z"/>
      <path class="cls-1" d="M339.77,180.42c4.19,4.19,8.63,8.34,13.92,10.9-4.45-3.52-9.27-8.15-13.92-10.9Z"/>
      <path class="cls-1" d="M308.4,160.5c1.71,.42,3.34,.96,4.66,1.91,5.5,3.78,11.22,7.44,16.32,11.72-4.46-5.94-16-14.58-20.98-13.64Z"/>
      <path class="cls-1" d="M333.94,174.68c2.44,2.08,5.11,3.89,7.66,5.83-2.01-2.53-4.82-4.46-7.66-5.83Z"/>
      <path class="cls-1" d="M328.99,181.5c4.69,3.37,9.85,6.08,15.31,7.97-4.82-2.94-10.3-6.07-15.31-7.97Z"/>
      <path class="cls-1" d="M488.72,141.35c1.12-1.06,2.64-2.4,3.57-3.29-1.02,.62-2.03,1.25-3.02,1.92-7.26,4.78-14.62,11.83-14.89,21.07,1.99-8.35,8.38-13.86,14.34-19.7Z"/>
      <path class="cls-1" d="M528.77,115.37c-4.27,3.65-9.19,5.78-14.54,8.13-6.68,2.99-13.4,6.03-19.53,10.05,11.48-5.03,26.26-8.75,34.07-18.19Z"/>
      <path class="cls-1" d="M493.43,127.03c-3.91,.81-7.54,2.58-10.85,4.79,3.67-1.31,7.58-3.14,10.85-4.79Z"/>
      <path class="cls-1" d="M515.32,127.04c-4.86,3.2-8.98,7.33-13.4,11.08,5.14-2.64,9.43-6.79,13.4-11.08Z"/>
      <path class="cls-1" d="M508.55,120.96c-6.16,.16-12.26,.91-18.32,1.96,6.17,.39,12.37-.38,18.32-1.96Z"/>
      <path class="cls-1" d="M512.94,121.05c-6.31,.93-12.22,3.26-18.21,5.3,6.32-.62,12.34-2.93,18.21-5.3Z"/>
      <path class="cls-1" d="M547.52,184.88c-7.93,3.37-15.8,6.98-22.76,12.15,7.66-3.41,16.53-7.48,22.76-12.15Z"/>
      <path class="cls-1" d="M602.75,166.81c-18.3-.25-34.47,9.49-50.9,16.23,17.58-4.24,33.38-13.82,50.9-16.23Z"/>
      <path class="cls-1" d="M536.15,195.41c-4.24,.71-8.17,1.87-12.06,3.11,4.14-.3,8.36-1.45,12.06-3.11Z"/>
      <path class="cls-1" d="M532.95,186.22c-3.04,1.31-5.78,3.17-8.38,5.2,2.99-1.35,5.88-3.26,8.38-5.2Z"/>
      <path class="cls-1" d="M546.67,166.81c4.56-1.16,9.07-2.68,13.59-3.87-6.91,.36-13.84,2.21-19.83,5.68,1.98-.82,4.09-1.22,6.24-1.81Z"/>
      <path class="cls-1" d="M563.2,254.38c-5.75,2.14-11.49,4.91-16.03,9.08,5.31-2.95,11.12-5.73,16.03-9.08Z"/>
      <path class="cls-1" d="M575.22,250.81c-2.53,.6-4.99,1.54-7.27,2.82,2.48-.64,5.18-1.66,7.27-2.82Z"/>
      <path class="cls-1" d="M620.1,240.53c-7.16,1.28-14.42,1.76-21.59,2.93-5.61,1.27-11.22,2.45-16.89,3.41,5.81,.01,11.56-.47,17.26-1.55,7.18-.96,14.46-2.35,21.22-4.8Z"/>
      <path class="cls-1" d="M572.08,316.62c-.32-.53-.65-1.04-.97-1.55-3.57-5.88-8.06-11.29-13.77-15.21-4.67-3.17-10.01-5.15-15.1-7.52,4.47,3.13,9.34,5.63,13.72,8.85,1.22,.93,2.35,1.82,3.42,2.69-5.17-3.23-10.93-5.49-16.62-7.64,6.4,4.1,13.82,7.22,20.2,10.74,2.47,2.27,4.75,4.66,7.32,7.63,.59,.64,1.28,1.45,1.79,2.01Z"/>
      <path class="cls-1" d="M607.79,348.48c-5.37-6.01-12.38-10.05-18.77-14.84-2.23-1.69-4.22-3.7-6.42-5.43-.04-.03-.07-.05-.11-.01-.03,.04,.01,.08,.03,.11-.04-.04,0-.09,.05-.07,.39,.34,.68,.78,1.01,1.16,2.09,2.64,4.35,5.18,6.96,7.33,4.45,3.57,9.51,6.39,14.22,9.6-4.48-1.37-8.9-1.92-13.54-2.93-3.81-.98-9.62-2.54-14.11-3.5,4.65,1.87,9.23,4.06,14.15,5.07,4.24,.94,9.8,.91,13.54,1.38,1.02,.69,2.02,1.39,2.99,2.13Z"/>
      <path class="cls-1" d="M520.11,352.7c1.49,.56,2.74,1.39,4.1,2.31,3.86,2.82,7.62,5.81,11.36,8.8-4.06-4.9-9.07-9.77-15.46-11.11Z"/>
      <path class="cls-1" d="M554.66,385.92c-.19-.2-.37-.43-.56-.64,.44,.37,.88,.75,1.34,1.08-4.61-5.11-8.13-11.07-12.74-16.19,1.15,1.99,2.35,4,3.63,5.95-1.9-2.29-3.83-4.53-5.92-6.68-5.82-5.78-12.48-10.81-20.05-14.06,13.15,7.82,21.02,18.79,32.69,29.47,1,.9,2.27,2.01,3.16,2.73-.51-.54-1.04-1.11-1.55-1.67Z"/>
      <path class="cls-1" d="M562.19,390.14c5.08,3.05,10.36,5.85,15.99,7.68-5.03-3.12-10.41-5.7-15.99-7.68Z"/>
      <path class="cls-1" d="M550.54,391.39c9.46,5.53,20.89,6.25,31.52,8.48-10.25-4.46-21.44-5.03-31.52-8.48Z"/>
      <path class="cls-1" d="M464.9,347.01c1.73,6.96,5.24,13.68,9.56,19.21-2.93-6.53-6.37-12.81-9.56-19.21Z"/>
      <path class="cls-1" d="M479.33,371.73c5.37,9.62,12.87,18.26,21.14,25.64-6.6-8.92-13.96-17.2-21.14-25.64Z"/>
      <path class="cls-1" d="M502.27,494.02c-9.95-7.57-20.61-14.5-28.88-23.5,7.16,11.25,18.63,18.93,30.38,24.73,.27,.13,.58,.28,.8,.35-.77-.51-1.54-1.04-2.29-1.59Z"/>
      <path class="cls-1" d="M439.25,445.85c3.67,5.42,8.92,9.7,13.92,13.76-3.99-5.25-9.28-9.42-13.92-13.76Z"/>
      <path class="cls-1" d="M442.01,443.68c1.93,1.39,4.09,2.53,6.25,3.42-1.89-1.45-4.04-2.51-6.25-3.42Z"/>
      <path class="cls-1" d="M448.9,441.38c.74,.47,1.65,.98,2.4,1.23-.73-.53-1.54-.93-2.4-1.23Z"/>
      <path class="cls-1" d="M450.19,463.03c-2.19-2.11-4.08-3.49-6.12-6.08,3.27,5.96,9.31,11.06,14.68,14.37-2.64-2.56-6.73-6.62-8.56-8.29Z"/>
      <path class="cls-1" d="M389.96,477.3c.93-8.31,1.54-16.68,2.84-24.95-4.62,15.91-6.99,33.31-5.45,49.6,.29-8.27,1.63-16.44,2.61-24.65Z"/>
      <path class="cls-1" d="M392.52,514.01c-1.12,6.59-1.5,13.51,.8,19.9-1.02-6.62-.34-13.25-.8-19.9Z"/>
      <path class="cls-1" d="M354.04,378.69c-10.5,12.69-17.61,27.77-27.38,40.97,12-11.6,19.13-26.76,27.38-40.97Z"/>
      <path class="cls-1" d="M347.7,377.71c-2.02,1.67-3.96,3.94-5.26,6.04,1.93-1.86,3.59-3.96,5.26-6.04Z"/>
      <path class="cls-1" d="M353.83,384.62c-.33,.52-.67,1.16-.86,1.7,.35-.53,.65-1.09,.86-1.7Z"/>
      <path class="cls-1" d="M345.62,411.57c-2.55,2.45-5.13,5.19-7.07,8.07,2.69-2.37,5.11-5.06,7.07-8.07Z"/>
    </g>
  </g>
</svg>