<?xml version="1.0" encoding="UTF-8"?>
<svg id="Layer_2" data-name="Layer 2" xmlns="http://www.w3.org/2000/svg" viewBox="0 0 109.44 72.51">
  <defs>
    <style>
      .cls-1 {
        fill: #fff;
      }
    </style>
  </defs>
  <g id="Layer_1-2" data-name="Layer 1">
    <g>
      <path class="cls-1" d="M25.6,.28c-1-.31-2.07-.35-3.1-.17-2.36,.43-4.35,2.17-5.34,4.33,0,.01,0,.02,0,.04-.31-.42-.65-.83-1.01-1.21-.95-.98-2.12-1.73-3.46-2.04-1.2-.27-2.49-.19-3.62,.32-1.36,.63-2.07,1.85-2.65,3.17-.34,.76-.69,1.51-1.16,2.2-.47,.69-1.03,1.32-1.58,1.94-.65,.73-1.37,1.54-1.98,2.41-.04,.02-.06,.05-.06,.08-1.14,1.64-1.91,3.5-1.21,5.5,.1,.28,.23,.55,.39,.81-.69,.98-1.01,2.18-.68,3.44,.34,1.29,1.19,2.38,1.61,3.65,.45,1.37,.59,2.81,.88,4.21,.3,1.44,.8,2.95,1.89,4,.89,.86,2.27,1.45,3.51,1.08-.04,.23-.07,.45-.08,.68-.1,1.42,.3,2.93,1.19,4.06,.43,.54,.96,1,1.6,1.29,.74,.34,1.55,.43,2.35,.41,.84-.02,1.67-.15,2.5-.2,.88-.05,1.75,.05,2.62,.2,1.65,.28,3.31,.69,4.99,.38,2.69-.51,4.99-2.7,5.68-5.34,.01-.06,.02-.11,.04-.17,.6,.42,1.21,.82,1.82,1.22,.26,.17,.51,.34,.77,.5,.04,.02,.08,.04,.11,.07,1.38,.88,2.79,1.73,4.18,2.58,2.49,1.51,4.99,2.99,7.52,4.44,5.05,2.89,10.18,5.65,15.38,8.26,4.38,2.2,8.81,4.29,13.29,6.28-5.36-1.08-10.17-3.94-14.86-6.68-2.74-1.61-5.51-3.14-8.43-4.42-2.83-1.25-5.76-2.29-8.75-3.1-1.7-.46-3.42-.84-5.15-1.15-.87-.15-1.74-.29-2.61-.41-.38-.05-.76-.1-1.14-.14-.43-.09-.87-.18-1.3-.24-.02,0-.04,0-.05,.01-.03,0-.05-.01-.08-.02-.15-.04-.19,.17-.06,.22,0,.04,.01,.08,.06,.09,.12,.02,.23,.04,.35,.06,2.96,1.04,5.81,2.33,8.56,3.85,2.85,1.57,5.6,3.3,8.39,4.95,2.8,1.65,5.67,3.2,8.69,4.43,2.9,1.17,5.92,2.07,8.99,2.69,3.2,.64,6.52,1.01,9.79,.96,0,0,.02,0,.03,.01,3.77,1.64,7.57,3.21,11.4,4.71-1.3-.33-2.61-.61-3.93-.78-2.03-.26-4.05-.23-6.08,0-2.05,.23-4.08,.6-6.13,.77-1.55,.12-3.14,.13-4.69-.1-.03-.01-.06-.02-.1-.03-.02,0-.03,0-.04,.01-.38-.06-.75-.13-1.12-.22-.32-.12-.64-.23-.96-.34-.07-.02-.11,.09-.04,.12,0,0,.01,0,.02,0,0,0,0,.01,.02,.02,.04,.01,.07,.03,.11,.04,.23,.11,.47,.21,.7,.3,0,.01,0,.02,.02,.03,.25,.11,.51,.2,.78,.29,.39,.15,.78,.29,1.16,.44,.97,.36,1.95,.71,2.94,1.01,1.96,.6,3.98,1.03,6.03,1.14,4.02,.2,7.96-.93,11.97-1.07,1.44-.05,2.86,.05,4.25,.33,.67,.23,1.34,.46,2.02,.68,1.99,.73,3.99,1.45,6,2.14,2.75,.94,5.5,1.9,8.3,2.7,.69,.2,1.38,.39,2.09,.55,.25,.06,.43-.34,.17-.45-1.94-.77-3.94-1.4-5.93-2.05-.87-.51-1.75-.98-2.62-1.49-1.16-.67-2.31-1.37-3.44-2.11-2.26-1.48-4.41-3.13-6.33-5.03-.97-.96-1.87-1.98-2.68-3.07-.8-1.06-1.51-2.17-2.24-3.28-1.48-2.23-3.06-4.36-5.26-5.94-2.54-1.83-5.51-2.96-8.44-4-.21-.08-.33,.26-.14,.37,4.63,2.49,6.83,7.58,9.52,11.81,1.37,2.16,2.96,4.13,4.95,5.75,1.01,.82,2.08,1.54,3.21,2.19-.02,0-.04,0-.06,0-4.42-1.67-8.81-3.43-13.16-5.3-2.78-1.19-5.55-2.42-8.3-3.68-1.3-1.17-2.45-2.48-3.45-3.93-1.44-2.1-2.6-4.38-3.73-6.66-1.13-2.29-2.26-4.57-3.62-6.73-1.3-2.06-2.73-4.04-4.31-5.91-1.47-1.74-3.04-3.46-4.8-4.94-.05-.06-.09-.12-.13-.19-.05-.06-.11-.08-.18-.07-.2-.17-.41-.33-.62-.49-.06-.09-.11-.18-.17-.26-.09-.13-.29,0-.21,.13,0,0,0,.02,.01,.03-.05,.05-.07,.14,0,.21,.09,.09,.19,.19,.28,.28,1.13,1.99,2,4.09,2.76,6.25,.82,2.34,1.56,4.71,2.57,6.97,1.96,4.39,4.98,8.31,8.67,11.39,.79,.65,1.61,1.27,2.46,1.84-1.02-.48-2.04-.97-3.05-1.47-2.8-1.37-5.59-2.78-8.35-4.22-.93-.88-1.75-1.85-2.45-2.93-.93-1.43-1.68-2.97-2.37-4.53-1.34-3.05-2.46-6.23-4.36-9-1.01-1.48-2.26-2.83-3.77-3.81,.25-.46,.51-.91,.8-1.36,.59-.94,1.19-1.9,1.49-2.98,.53-1.9-.22-3.76-1.66-5.04-1.1-.97-2.44-1.49-3.85-1.8,.42-.98,.75-2.02,.97-3.06,.24-1.09,.34-2.23,.2-3.35-.12-.97-.42-1.93-.93-2.77-.56-.91-1.36-1.6-2.29-2.12-1.02-.57-2.14-.96-3.17-1.52-1.06-.57-1.89-1.4-2.77-2.2-.82-.75-1.71-1.39-2.78-1.73Zm49.16,63.9c2.04-.25,4.09-.38,6.14-.2,2.05,.18,4.06,.63,6.04,1.2,.12,.03,.24,.07,.36,.11-.59-.01-1.17-.04-1.76-.08-1.64-.13-3.26-.36-4.89-.54-1.57-.18-3.15-.32-4.74-.29-1.72,.04-3.41,.35-5.12,.54-.96,.11-1.93,.17-2.9,.1-.63-.04-1.25-.15-1.85-.31,2.88,.32,5.85-.18,8.72-.53Zm8.46,1.11c-.77,.01-1.53,.03-2.3,.06-3.7,.14-7.4,.38-11.09,.05-.59-.05-1.18-.13-1.77-.21,.59,.03,1.18,.02,1.75-.01,1.77-.11,3.52-.46,5.29-.55,2.73-.15,5.42,.31,8.12,.66Zm4.33,.46c-2.02-.02-4.03,.25-6.03,.54-1.97,.28-3.95,.57-5.95,.61-2.09,.03-4.15-.27-6.17-.81-1.02-.28-2.03-.61-3.03-.96,.85,.17,1.71,.29,2.55,.4,1.82,.22,3.66,.29,5.49,.28,3.72,0,7.43-.29,11.14-.2,.41,0,.81,.03,1.22,.05,.11,0,.22,.01,.34,.01,.52,.03,1.04,.07,1.56,.12,.07,0,.14,.02,.21,.02-.45-.03-.89-.05-1.33-.05Zm-21.91-7.05c-3.12-.57-6.18-1.43-9.13-2.59-6.04-2.38-11.37-6.09-16.99-9.27-1.88-1.06-3.81-2.08-5.82-2.92,.61,.13,1.23,.27,1.84,.42,1.21,.43,2.4,.9,3.57,1.42,3.02,1.32,5.95,2.86,8.83,4.46,5.45,3,10.91,6.08,16.87,7.94,1.22,.38,2.46,.71,3.71,.97-.96-.11-1.92-.24-2.88-.42Zm4.56,.35c-1.48-.23-2.94-.57-4.38-.98-2.96-.85-5.82-2.03-8.6-3.36-5.8-2.77-11.28-6.16-17.14-8.79-.62-.28-1.24-.54-1.86-.8,.88,.29,1.74,.6,2.6,.93,2.76,1.07,5.43,2.35,8.06,3.69,5.2,2.64,10.29,5.53,15.77,7.58,1.51,.57,3.06,1.05,4.63,1.44,.58,.14,1.15,.28,1.73,.4-.27-.03-.54-.07-.8-.11Zm2.24,.25c-.86-.14-1.71-.31-2.55-.51-1.41-.33-2.79-.8-4.15-1.29-2.77-1-5.45-2.21-8.08-3.53-5.28-2.62-10.38-5.6-15.85-7.83-1.5-.61-3.02-1.16-4.57-1.62-.68-.2-1.36-.39-2.04-.56-.05-.02-.09-.03-.14-.05-.53-.18-1.06-.35-1.59-.51,.29,.05,.59,.09,.88,.14,1.53,.28,3.05,.62,4.56,1.01,3.03,.78,6,1.79,8.88,3.03,2.94,1.27,5.74,2.82,8.5,4.44,2.74,1.62,5.47,3.27,8.36,4.63,2.79,1.31,5.76,2.35,8.83,2.7-.34-.02-.68-.04-1.02-.07Zm7.49-10.32c1.17,.76,2.23,1.66,3.16,2.7,.89,.99,1.66,2.08,2.4,3.19,.74,1.1,1.45,2.22,2.24,3.28,.78,1.06,1.63,2.06,2.55,3,1.85,1.9,3.94,3.54,6.14,5.01,1.25,.84,2.53,1.62,3.83,2.37,.46,.26,.91,.52,1.37,.78-4.24-1.63-8.15-4.14-11.4-7.3-1.85-1.79-3.42-3.79-4.88-5.91-1.45-2.11-2.83-4.29-4.62-6.14-.53-.55-1.1-1.07-1.71-1.54,.31,.18,.62,.37,.92,.56Zm-5.94-2.81c.12,.03,.23,.06,.35,.09,1.05,.4,2.09,.84,3.1,1.33,1.02,.63,1.95,1.4,2.79,2.25,1.82,1.85,3.23,4.03,4.69,6.16,1.41,2.07,2.92,4.04,4.69,5.81,1.76,1.76,3.7,3.31,5.78,4.67,1.2,.78,2.45,1.48,3.74,2.1-.51-.18-1.02-.36-1.53-.53-.6-.27-1.2-.55-1.79-.85-2.26-1.14-4.42-2.49-6.36-4.11-1.98-1.65-3.66-3.59-5.16-5.69-1.49-2.08-2.84-4.25-4.46-6.24-1.59-1.96-3.48-3.87-5.8-4.95-.02-.01-.03-.02-.05-.04Zm13.46,17c-2.06-1.58-3.72-3.51-5.13-5.68-1.4-2.15-2.58-4.43-4.01-6.55-1-1.48-2.14-2.9-3.48-4.08,1.68,1.05,3.14,2.38,4.42,3.91,1.67,1.99,3.04,4.2,4.51,6.33,1.46,2.11,3.05,4.09,4.99,5.78,1.88,1.64,3.98,3.01,6.18,4.18,.09,.05,.18,.09,.27,.14-.69-.25-1.37-.49-2.06-.74-2.01-.87-3.93-1.93-5.69-3.28Zm-25.1-10.61c-1.9-1.49-3.64-3.19-5.16-5.07-1.49-1.86-2.78-3.89-3.8-6.04-1.06-2.22-1.82-4.57-2.62-6.89-.24-.69-.48-1.39-.74-2.09,1.4,2.85,2.67,5.77,4.1,8.61,.99,1.98,2.06,3.94,3.3,5.78,1.2,1.77,2.55,3.41,4.08,4.91,.28,.28,.58,.55,.88,.82-.01,0-.02-.02-.04-.03Zm-.26-.43c-1.55-1.45-2.89-3.14-4.09-4.88-2.56-3.73-4.42-7.87-6.3-11.97-1.03-2.24-2.08-4.48-3.28-6.64,.04,.04,.08,.08,.11,.11,1.17,1.65,2.25,3.36,3.24,5.13,1.13,2.01,2.17,4.08,3.23,6.13,2.03,3.94,4.15,7.88,6.94,11.34,.69,.85,1.42,1.67,2.19,2.45-.71-.52-1.4-1.07-2.05-1.67Zm3.31,2.53c-.07-.04-.13-.09-.2-.13-.14-.12-.27-.24-.4-.37-.78-.75-1.51-1.54-2.2-2.36-1.42-1.69-2.66-3.52-3.81-5.41-2.33-3.86-4.22-7.97-6.36-11.94-.79-1.46-1.62-2.92-2.52-4.33,.83,.85,1.66,1.71,2.44,2.61,1.61,1.87,3.1,3.85,4.43,5.92,1.37,2.13,2.56,4.37,3.7,6.64,1.15,2.29,2.29,4.6,3.73,6.73,.88,1.29,1.87,2.56,3.02,3.65-.61-.32-1.22-.65-1.82-1ZM8.65,2.43c.94-.67,2.13-.9,3.26-.78,1.28,.14,2.44,.71,3.41,1.53,1.09,.92,1.91,2.1,2.59,3.35,.67,1.24,1.22,2.54,1.66,3.88,.63,1.92,1,3.89,1.17,5.89-.06-.28-.12-.55-.19-.82-.34-1.38-.84-2.72-1.5-3.98-1.39-2.65-3.36-4.97-5.82-6.69-1.4-.98-2.98-1.82-4.62-2.35,.01,0,.02-.02,.03-.02Zm-1.72,2.58s-.02,0-.03,0c.38-.87,.78-1.74,1.49-2.36,.02,.04,.05,.08,.1,.1,.75,.25,1.49,.51,2.2,.85,.67,.32,1.32,.68,1.94,1.07,1.28,.82,2.5,1.8,3.53,2.92,.97,1.06,1.83,2.22,2.51,3.49,.66,1.24,1.18,2.56,1.55,3.92,.38,1.41,.53,2.85,.62,4.31,0,.01,0,.03,0,.04,0,0,0,.01,0,.02,0,0,0,0-.01-.01-.18-1.11-.58-2.21-1.01-3.24-.52-1.24-1.17-2.42-1.94-3.52-1.64-2.35-3.81-4.28-6.3-5.7-1.46-.83-3.02-1.46-4.65-1.87Zm-3.38,4.82c1.05-1.17,2.14-2.34,2.85-3.75,.14-.27,.26-.55,.38-.83,.02,.02,.04,.04,.08,.05,2.86,.73,5.54,2.11,7.76,4.06,2.03,1.77,3.64,3.98,4.76,6.42,.3,.67,.57,1.35,.79,2.05,.14,.43,.26,.87,.38,1.3-.1-.07-.19-.14-.29-.21-.3-.23-.6-.45-.91-.68-.57-.43-1.15-.86-1.73-1.28-1.21-.87-2.45-1.69-3.74-2.44-2.38-1.38-4.92-2.49-7.63-3.03-1.24-.25-2.57-.41-3.85-.32,.36-.47,.75-.91,1.14-1.35ZM.98,13.74c.26-.84,.71-1.59,1.23-2.3,1.2,0,2.38,.03,3.57,.23,1.34,.23,2.66,.61,3.93,1.11,2.63,1.02,5.01,2.52,7.31,4.14,.69,.48,1.37,.98,2.04,1.49,.23,.18,.46,.35,.69,.53-2.43-1.26-5.01-2.23-7.66-2.9-1.46-.37-2.95-.67-4.45-.81-1.33-.13-2.7-.09-3.97,.33-.95,.31-1.84,.9-2.5,1.65-.57-1.06-.56-2.33-.2-3.47Zm-.12,4.69c.53-1.03,1.48-1.86,2.56-2.3,2.51-1.03,5.45-.39,7.98,.22,3.02,.73,5.92,1.86,8.67,3.3-.1,.03-.19,.07-.28,.12,0,0,0,0-.01,0,0,0-.02,0-.03,.01-.03,.01-.06,.02-.09,.04,0,0-.01,0-.02,.01-5.18-1.35-10.67-2.36-15.91-.82-1.14,.33-2.4,.79-3.18,1.72-.14-.77-.06-1.55,.32-2.3Zm21.79,5.71c-.34-.62-.65-1.27-.92-1.93-.24-.59-.41-1.2-.61-1.8,.26,.36,.55,.7,.83,1.04,.44,.54,.9,1.06,1.36,1.58,.93,1.03,1.91,2.02,2.92,2.97,2.02,1.88,4.2,3.59,6.52,5.08,1.25,.81,2.54,1.57,3.86,2.27-.15,.22-.32,.44-.5,.64-.54,.6-1.21,1.05-1.97,1.29-4.39-3.05-8.86-6.39-11.49-11.15Zm11.15,11.24c-.06,.01-.11,.03-.17,.04-.96,.17-1.96,.02-2.86-.32-1.92-.73-3.53-2.24-4.86-3.76-2.32-2.66-3.89-5.93-4.55-9.39,.23,.6,.5,1.19,.79,1.75,.58,1.15,1.29,2.24,2.08,3.26,1.7,2.2,3.78,4.06,5.97,5.76,1.18,.92,2.4,1.79,3.61,2.67ZM.88,21.84c-.13-.29-.23-.58-.3-.87,.8-.87,1.9-1.34,3.02-1.67,1.27-.38,2.58-.6,3.9-.7,2.78-.2,5.57,.12,8.3,.68,1.11,.23,2.21,.5,3.31,.79-2.2,.16-4.39,.33-6.58,.51-2.48,.2-5.04,.29-7.43,1.03-.65,.2-1.28,.45-1.88,.77-.54,.28-1.1,.63-1.53,1.07-.26-.54-.56-1.06-.81-1.61Zm3.95,10.84c-.94-.9-1.41-2.18-1.7-3.42-.31-1.3-.43-2.64-.76-3.94-.15-.58-.35-1.15-.6-1.69,.46-.34,.91-.68,1.42-.95,.55-.3,1.14-.54,1.73-.74,1.14-.38,2.32-.58,3.51-.72,2.63-.31,5.28-.42,7.92-.61,.73-.05,1.46-.11,2.19-.16-.18,.11-.37,.22-.55,.32-.56,.32-1.11,.65-1.66,.99-1.14,.7-2.25,1.46-3.3,2.28-2.05,1.59-3.94,3.39-5.4,5.55-.41,.61-.79,1.24-1.12,1.89-.17,.33-.32,.66-.46,1-.12,.29-.26,.57-.27,.88-.34-.18-.66-.4-.94-.67Zm1.04,.73c.17-.21,.25-.47,.36-.72,.13-.29,.26-.58,.4-.87,.28-.57,.6-1.13,.94-1.66,.71-1.11,1.54-2.14,2.45-3.09,1.81-1.89,3.93-3.43,6.16-4.8,.6-.37,1.22-.74,1.83-1.09,.48-.28,.98-.53,1.47-.81,.03,0,.07,0,.1,0-.33,.16-.66,.33-.97,.52-.72,.42-1.41,.88-2.06,1.39-1.29,1-2.47,2.14-3.55,3.36-1.13,1.28-2.19,2.64-3.12,4.07-.8,1.23-1.48,2.57-1.79,4.01-.77,.15-1.54,.03-2.22-.3Zm4.27,5.68c-1.05-.88-1.61-2.25-1.7-3.59-.12-1.7,.54-3.36,1.38-4.81,.83-1.43,1.84-2.77,2.9-4.05,2-2.41,4.33-4.56,7.11-6.04,.14-.08,.28-.16,.41-.24,.04,.01,.08,.02,.11,.03-1.05,1.22-2.12,2.42-3.18,3.63-1.06,1.2-2.11,2.42-3.07,3.71-1.7,2.31-3.06,4.94-3.28,7.84-.11,1.39,.03,2.88,.6,4.17-.45-.13-.89-.34-1.28-.67Zm13.74,1.04c-1.5,.5-3.03,.3-4.55,.02-.81-.15-1.62-.3-2.44-.38-.81-.07-1.6,0-2.41,.07-.93,.09-1.9,.18-2.8-.02-.45-1.25-.69-2.5-.63-3.83,.07-1.34,.39-2.68,.89-3.92,1.14-2.87,3.17-5.25,5.19-7.53,1.05-1.18,2.1-2.36,3.17-3.54-.11,.35-.2,.7-.29,1.05-.18,.73-.32,1.48-.42,2.22-.2,1.48-.25,2.98-.13,4.47,.22,2.75,1.01,5.46,2.29,7.91,.36,.69,.76,1.36,1.2,2.01,.32,.48,.66,.99,1.06,1.43-.04,.01-.07,.03-.11,.04Zm.34-.13c-.32-.43-.67-.84-.97-1.28-.38-.55-.73-1.11-1.05-1.69-.66-1.19-1.21-2.45-1.62-3.75-.86-2.71-1.11-5.65-.73-8.46,.11-.81,.27-1.61,.47-2.4,.09-.35,.19-.7,.3-1.04-.02,.76-.01,1.51,.02,2.26,.06,1.31,.2,2.63,.46,3.92,.51,2.6,1.4,5.18,2.58,7.55,.67,1.34,1.44,2.63,2.36,3.82-.55,.45-1.16,.82-1.82,1.08Zm3.51-3.75c-.17,.62-.47,1.22-.78,1.78-.24,.28-.51,.55-.79,.79-1.48-2.17-2.74-4.47-3.62-6.95-.89-2.48-1.36-5.15-1.5-7.77-.04-.7-.05-1.4-.03-2.09,.2,1.27,.58,2.52,1.04,3.71,.7,1.81,1.66,3.52,2.85,5.06,.88,1.15,1.91,2.25,3.07,3.16-.02,.04-.03,.09-.03,.15,.03,.74,.02,1.45-.19,2.17Zm17.74,8.42c-4.61-2.54-9.15-5.22-13.64-7.96-.03-.02-.05-.03-.08-.05-.68-.46-1.31-.97-1.94-1.5,1.7,.86,3.79,1.14,5.49,.14,1.93-1.14,2.67-3.39,3.46-5.35,.17-.42,.36-.82,.56-1.22,.12,.09,.23,.19,.34,.29,.33,.5,.68,1,.98,1.52,.11,.19,.22,.39,.33,.59,.13,.34,.24,.68,.34,1.02,.43,1.51,.8,3.03,1.28,4.53,.9,2.81,1.91,5.75,3.78,8.08,.21,.26,.44,.52,.67,.76-.52-.28-1.05-.57-1.57-.85Zm2.39,1.3c-.43-.38-.82-.79-1.18-1.23-.96-1.17-1.67-2.53-2.26-3.92-.6-1.41-1.11-2.87-1.57-4.33-.39-1.24-.71-2.5-1.05-3.76,.71,1.46,1.31,2.97,1.92,4.48,1.2,2.93,2.5,5.87,4.63,8.27,.54,.61,1.13,1.18,1.78,1.69-.75-.4-1.51-.8-2.26-1.2Zm-2.4-9.74c1.41,3.04,2.48,6.26,4.3,9.1,.66,1.03,1.41,2.02,2.3,2.87-.09-.05-.17-.09-.26-.14-.05-.03-.09-.05-.14-.08-.02-.02-.03-.03-.05-.05,0,0,0,0,0,0,.01,.01,.02,.02,.03,.04-1.05-.63-2-1.39-2.85-2.3-1.07-1.15-1.95-2.47-2.69-3.86-1.54-2.85-2.57-5.94-3.9-8.89-.28-.62-.59-1.23-.91-1.83-.31-.8-.72-1.56-1.31-2.17-.04-.05-.08-.1-.13-.16,2.6,1.84,4.28,4.61,5.6,7.47Zm-6.5-8.05c-.82,1.57-1.24,3.39-2.19,4.89-4.84-2.45-9.25-5.83-12.93-9.81-.51-.56-1.02-1.13-1.5-1.71-.38-.46-.75-.94-1.13-1.4,.01-.02,.02-.03,.03-.05,.58-.08,1.16-.21,1.75-.28,.69-.09,1.38-.14,2.07-.16,1.4-.05,2.81,.04,4.2,.24,2.73,.39,5.4,1.26,7.82,2.58,1.33,.73,2.61,1.58,3.76,2.57-.56,1.08-1.33,2.09-1.86,3.12Zm-.26-9.78c1.47,.81,2.77,2.27,2.82,4.02,.03,.84-.21,1.61-.56,2.35-2.15-1.73-4.53-3.08-7.13-4-2.65-.94-5.47-1.41-8.28-1.36-.78,.01-1.56,.07-2.33,.16-.59,.07-1.22,.14-1.81,.29,2.58-3.1,7.05-3.07,10.74-2.8,1.27,.1,2.59,.17,3.86,.42,.02,0,.04,.01,.06,.01,.91,.18,1.8,.46,2.62,.91Zm-1.75-8.36c.25,1.14,.22,2.32,.02,3.47-.2,1.18-.59,2.29-.91,3.43-.65-.13-1.3-.21-1.95-.27-3.91-.38-8.49-.86-11.83,1.6,.44-.57,.9-1.13,1.39-1.65,.86-.92,1.79-1.77,2.79-2.54,1.96-1.51,4.15-2.73,6.47-3.57,1.25-.45,2.55-.82,3.86-1.02,.06,.18,.11,.37,.15,.56Zm-3.78-4.35c.96,.45,1.91,.97,2.59,1.8,.43,.52,.74,1.13,.96,1.77-1.17,.24-2.33,.51-3.46,.9-1.17,.4-2.31,.9-3.4,1.48-2.23,1.18-4.27,2.71-6.02,4.52-.78,.81-1.53,1.68-2.17,2.61-.01,.01-.02,.02-.03,.03,1.06-4.37,3.28-8.44,6.43-11.66,.89-.91,1.86-1.7,2.84-2.5,.73,.39,1.51,.7,2.26,1.05Zm-5.44-3.56c.83,.71,1.58,1.51,2.5,2.11,.13,.09,.27,.16,.41,.24-.89,.62-1.71,1.37-2.47,2.12-.88,.87-1.68,1.8-2.42,2.79-1.45,1.95-2.62,4.1-3.45,6.39-.38,1.06-.68,2.15-.91,3.26-.09,.1-.18,.19-.27,.29,.05-.75,.07-1.49,.04-2.24,.4-4.31,1.02-8.63,3.17-12.45,.66-1.18,1.46-2.27,2.4-3.24,.35,.21,.68,.46,.99,.73Zm-1.22-.87c-3.6,3.75-4.86,9-5.38,14.02-.02,.15-.03,.3-.04,.44-.14-1.59-.44-3.18-.88-4.71-.41-1.42-.94-2.8-1.59-4.12-.35-.72-.75-1.41-1.2-2.07,.09,0,.19-.03,.24-.14,.87-1.81,2.38-3.32,4.34-3.9,.97-.28,2-.33,2.98-.11,.55,.12,1.05,.32,1.52,.59Z"/>
      <g>
        <path class="cls-1" d="M71.24,51.52s0,0,0,0c0,0,0,0-.01,0,0,0,0,0,0,0,0,0,0,0,0,0,0,0,0,0,0,0,0,0,0,0,0,0h0s0,0,0,0c0,0,0,0,0,0,0,0,0,0,0,0,0,0,0,0,0,0,0,0,0,0,0,0,0,0,0,0,0,0,0,0,0,0,0,0,.01,0,.02,0,.03,0Z"/>
        <path class="cls-1" d="M71.36,51.67s0,0,0,0c0,0,0,0,.01,0,0,0-.01,0-.02,0Z"/>
        <path class="cls-1" d="M72.14,50.72c-.12-.12-.26-.2-.42-.25-.11-.04-.21-.06-.32-.07-.41-.03-.81,.21-.99,.57-.18,.36-.19,.83,.06,1.17,.25,.35,.72,.54,1.14,.42,.02,0,.04-.01,.05-.02,0,0,.02,0,.03-.01,0,0,.05-.02,.07-.03,.27-.09,.49-.28,.6-.55,.04-.11,.07-.22,.08-.34,.03-.2,.01-.41-.08-.61-.05-.11-.13-.2-.22-.28Z"/>
        <path class="cls-1" d="M71.2,51.54s0,0,0,0c0,0,0,0,0,0Z"/>
        <path class="cls-1" d="M71.23,51.69s-.01,0,0,0h0Z"/>
        <polygon class="cls-1" points="71.24 51.69 71.25 51.69 71.24 51.69 71.24 51.69 71.24 51.69"/>
        <polygon class="cls-1" points="71.24 51.69 71.24 51.69 71.23 51.69 71.24 51.69"/>
      </g>
      <path class="cls-1" d="M72.93,48.97s0,0-.01,0c-.03-.01-.06-.03-.09-.03-.03,0-.07,0-.09-.01-.01,0-.02,0-.03,0-.02,0-.05,0-.07,.01,0,0-.01,0-.02,0-.06,.02-.11,.05-.15,.1-.02,.01-.02,.03-.03,.05,0,0-.02,0-.03,.02-.02,.03-.04,.05-.06,.09-.01,.03-.02,.05-.03,.08,0,.03,0,.07,0,.09,0,.03,0,.08,.01,.11,0,.02,0,.02,.02,.04,0,.02,.01,.03,.02,.04,.02,.03,.04,.05,.06,.08,0,0,.02,.02,.03,.03,.03,.02,.06,.05,.1,.07,.05,.03,.1,.04,.15,.05-.03-.01-.06-.02-.08-.03,.03,.01,.07,.03,.1,.04,0,0,.01,0,.02,0,.03,0,.07,0,.1,0,.02,0,.03,0,.06,0,.02,0,.04,0,.05-.01,.03-.01,.06-.03,.09-.04,0,0,0,0,0,0,.03-.02,.06-.04,.08-.06,0,0,.01-.01,.02-.02,.02-.03,.05-.06,.07-.09,0,0,0,0,0,0,0,0,0,0,0-.01,.01-.03,.03-.07,.04-.1,.01-.07,.01-.13,0-.19-.01-.05-.04-.09-.07-.13-.03-.04-.07-.08-.11-.1-.04-.02-.09-.03-.14-.04Z"/>
      <path class="cls-1" d="M69.57,48.6s.02,0,.03,.01c0,0-.02,0-.03,0,0,0,0,0,0,0-.05-.03-.1-.04-.15-.04-.05,0-.1,0-.15,.01-.03,.01-.06,.03-.09,.04-.05,.03-.08,.06-.11,.11-.03,.04-.06,.09-.07,.14-.01,.05-.01,.1,0,.15,0,.05,.02,.1,.05,.14l.06,.08s.08,.07,.13,.08c.05,.02,.1,.03,.15,.03,.03,0,.07-.01,.1-.02,.04-.01,.07-.04,.1-.06,0,0,.02,0,.03-.01,.01,0,.02,0,.03-.01l.07-.03s.07-.05,.09-.09c.02-.02,.03-.05,.04-.07,.02-.04,.03-.08,.02-.12,0-.03,0-.05-.01-.08l-.03-.07s-.05-.07-.09-.09c-.03-.03-.07-.05-.11-.05-.02,0-.04,0-.06-.01Z"/>
      <path class="cls-1" d="M29.93,38.75s-.05-.02-.07-.02c-.09-.03-.19-.05-.29-.04,0,0,0,0,0,0,0,0-.01,0-.02,0,0,0-.01,0-.02,0-.06,0-.12,0-.18,.02-.2,.04-.35,.17-.47,.33-.03,.03-.06,.06-.08,.1-.18,.25-.17,.57-.04,.84,.12,.23,.35,.38,.59,.45,.24,.08,.52,.05,.74-.08,.27-.16,.41-.47,.41-.77,0-.16-.05-.3-.12-.44-.07-.14-.18-.24-.31-.32-.02-.01-.05-.02-.07-.03-.02-.01-.05-.02-.07-.03Z"/>
      <path class="cls-1" d="M29.85,37.22c-.06-.01-.11-.01-.17,0l-.08,.03c-.05,.03-.09,.07-.12,.13-.02,.04-.03,.08-.04,.13,0,.04,0,.08,0,.13,.01,.04,.03,.08,.06,.11,.02,.04,.06,.07,.1,.09l.08,.03c.06,.01,.11,.01,.17,0l.08-.03c.05-.03,.09-.07,.12-.13,.02-.04,.03-.08,.04-.13,0-.04,0-.08,0-.13-.01-.04-.03-.08-.06-.11-.02-.04-.06-.07-.1-.09l-.08-.03Z"/>
      <path class="cls-1" d="M57.89,58.95c-.35-.02-.72,.11-.95,.37-.24,.26-.35,.64-.31,.99,.05,.38,.25,.71,.58,.91,.3,.18,.7,.21,1.03,.1,.38-.13,.65-.42,.77-.8,.07-.22,.05-.45-.02-.67-.03-.14-.08-.27-.16-.38-.22-.32-.57-.49-.95-.51Z"/>
      <path class="cls-1" d="M60.32,59.34s-.09,0-.14,.01c0,0,0,0-.01,0-.02,0-.03,.02-.05,.03,0,0-.02,0-.02,0-.02,0-.03,0-.05,.02-.02,0-.03,.01-.04,.02l-.05,.04s-.04,.05-.05,.09c-.01,.02-.02,.04-.01,.06,0,.03,0,.06,0,.09,0,.04,.03,.08,.06,.11,0,.02,0,.04,.02,.06,0,0,0,0,0,.01l.06,.07s.05,.04,.08,.06c.03,.01,.06,.02,.09,.03,.03,0,.06,0,.09,0,.03,0,.06-.01,.09-.02,.03-.01,.06-.03,.09-.04l.07-.06s.06-.08,.07-.13c.02-.03,.02-.06,.02-.09,0-.03,0-.06,0-.09,0-.03-.01-.06-.03-.09,0-.03-.03-.06-.05-.08-.02-.03-.04-.05-.07-.07-.02-.02-.05-.04-.09-.05-.03-.02-.06-.02-.09-.02Z"/>
      <path class="cls-1" d="M55.81,57.63s0,0,0,0c0,0,0,0-.01,0-.02,0-.03,0-.05,0-.02,0-.05,0-.07,0-.02,0-.05,0-.07,.02-.01,.01-.02,.02-.04,.03-.02,.02-.03,.04-.04,.06,0,.01-.01,.03-.01,.05,0,.02,0,.05,0,.07l.02,.04s.04,.05,.07,.07c.01,0,.03,.02,.04,.03,0,0,0,0,.01,0,0,0,0,0,0,0,.03,.02,.07,.03,.1,.02,0,0,.02,0,.02,0,.03,0,.06-.01,.09-.03,.03-.02,.05-.04,.07-.07,.02-.03,.02-.06,.02-.1,0-.03-.01-.06-.03-.09,0,0,0,0,0,0,0,0,0,0,0,0h0s-.02-.03-.03-.04c-.01-.01-.03-.02-.04-.03-.02,0-.03-.01-.05-.02Z"/>
      <path class="cls-1" d="M44.71,24.21c-.48-.09-1.03,.17-1.14,.68-.04,.19,0,.39,.08,.56,0,0,0,.01,0,.02,.01,.03,.03,.05,.04,.08,.01,.03,.03,.05,.04,.08,.17,.25,.43,.4,.73,.41,.23,.01,.44-.1,.61-.25,.15-.13,.26-.33,.31-.52,.05-.22,.02-.46-.1-.66-.13-.21-.35-.35-.58-.39Z"/>
      <path class="cls-1" d="M44.8,21.79s-.05,0-.08,0c-.04,0-.08,.02-.11,.04l-.06,.05s-.06,.09-.08,.14c0,.05-.02,.1-.02,.15,0,.03,0,.05,0,.08,0,.04,0,.07,.02,.11,0,.01,0,.02,.01,.03,.02,.04,.03,.09,.06,.12,.05,.08,.13,.12,.22,.12,.04,0,.08-.01,.12-.04,.04-.02,.07-.06,.09-.09,.01-.02,.02-.04,.03-.06,.02-.05,.04-.09,.05-.14,0-.04,.01-.07,.01-.11,0-.03,0-.05,0-.08v-.04s-.01-.08-.03-.11c-.01-.04-.04-.07-.07-.1-.02-.02-.04-.03-.07-.05-.04-.02-.08-.03-.12-.03Z"/>
    </g>
  </g>
</svg>