<?xml version="1.0" encoding="UTF-8"?>
<svg id="Layer_2" data-name="Layer 2" xmlns="http://www.w3.org/2000/svg" viewBox="0 0 92.45 77.01">
  <defs>
    <style>
      .cls-1 {
        fill: #fff;
      }
    </style>
  </defs>
  <g id="Layer_1-2" data-name="Layer 1">
    <g>
      <path class="cls-1" d="M21.18,24.39c-1.26-1.16-2.78-1.73-4.07-2.9-2.15-1.95-1.88-5.63-2.05-8.26,0-.16-.24-.16-.25,0-.19,2.77-.5,6.67,1.7,8.86,1.6,1.6,3.87,2.41,4.67,4.78,.7,2.07,.48,4.23,1.29,6.32,.53,1.38,1.48,2.64,2.28,3.87,1.37,2.11,2.05,4.31,2.64,6.73,.66,2.7,1.99,4.63,4.48,5.93,.14,.07,.29-.1,.17-.22-2.41-2.44-3.54-4.41-4.34-7.74-.87-3.65-3.5-6.36-4.64-9.9-.67-2.08-.05-5.78-1.89-7.47Z"/>
      <path class="cls-1" d="M7.09,46.76c-.13,.03-.08,.23,.05,.2,1.7-.35,3.38-.8,5.08-1.18,.1-.02,.08-.18-.02-.18-1.78,.06-3.41,.72-5.11,1.16Z"/>
      <path class="cls-1" d="M29.44,68.11c-.11-.28-.57-.16-.46,.13,.86,2.24,3.5,2.91,5.59,3.54,2.41,.72,4.85,1.42,7.31,1.93,2.63,.54,8.67,.3,5.23-3.69-.11-.12-.32,0-.27,.16,1.45,4.57-5.01,2.53-7.43,1.92-2.74-.7-8.81-1.11-9.98-3.98Z"/>
      <path class="cls-1" d="M40.82,68.05c2.01-2.37,1.62-5.94,.82-8.71-.04-.15-.27-.09-.23,.06,.77,3.07,.56,5.65-.76,8.52-.05,.11,.09,.24,.17,.13Z"/>
      <path class="cls-1" d="M90.21,46.17c-1.69-.15-.64-2.1-2.46-2.38-1.06-.16-2.1-.05-3.12,.22,2.41-1.88,3.65-5.1,4.02-8.09,.25-2.04-.77-3.9-1.82-5.56-.74-1.16-1.77-3.31-3.06-4.01-1.5-.82-1.85-.15-3-1.8-.32-.46-1.11-1.88-1.81-1.73-2.29,.48-2.25-2.02-4.06-1.5,.13-.86,.08-1.72-.21-2.5-.07-.2-.28-.3-.48-.19-1,.54-1.1-1.99-1.33-2.73-.06-.19-.25-.24-.41-.17-.14,.06-.22,.09-.27,.1-.2-1.41-.72-2.8-1.49-4.04-.74-1.2-2.24-4.07-3.77-4.27-.64-.09-1.39,.04-2.04,.04,.5,0-2.21-.91-2.11-.88-1.23-.3-1.89,2.09-2.97,.99-1.8-1.83-4.78,1.03-6.06,1.89-.21,.14-.03,.45,.19,.33,2.06-1.13,3.94-2.67,6.01-.8,.18,.16,.38,.17,.6,.08,1.32-.59,2.15-1.38,3.74-.79,1.24,.46,2.48-1.06,3.65,.34,3.19,3.84,4.96,7.64,2.8,12.67-.07,.16,.14,.29,.24,.14,.98-1.45,1.37-3.08,1.31-4.72,.62,.71,.63,1.71,.8,2.78,.03,.2,.3,.29,.46,.19,1.91-1.23-.11,3.7-.42,4.27-.52,.97-1.24,1.79-1.91,2.65-.75-2.54-2.57-4.97-4.15-6.74-.03-.03-.07-.04-.1-.05-.38-3.37-6.03-6.69-8.45-7.46-.57-.18-1.58-.39-2.14-.13-.83,.39-.61,.26-1.29,.9-1.59,1.52-2.68,.34-4.21,.22-.62-.05-1.17-.02-1.69,.04,1.64-2.55,3.94-6.37,3.48-9.23-.15-.94-.51-1.51-1.42-1.88-1.6-.65-3.05-2.01-4.7-2.35-1.12-.23-2.93,2.4-3.67,1.71-.39-.36-1.67-1.21-2.12-1.28-2.03-.29-2.77,2.49-2.93,4.38-.7-.9-1.54-1.68-2.52-2.28-2.49-1.55-3.14,2.5-4.87,1.32-1.97-1.34-3.42,1.85-3.96,3.09-.71,1.61-.72,1.7-2.22,2.45-1.21,.61-1.19,1.87-1.72,2.94-.84-1.27-1.81-2.4-3.18-2.95-.23-.09-.46,.06-.59,.24-.42,.58-.73,1.64-1.55,.89-.12-.11-.32-.19-.49-.13-3.67,1.46-4.07,4.24-4.29,7.97-.3,5.15,3.44,9.52,6.18,13.47,.5,.72,.99,1.45,1.45,2.19-1.71-1.55-3.72-2.6-5.73-3.77-.22-.13-.45-.03-.59,.15-.98,.55-1.97,1.11-2.95,1.66-.27,.01-.53,.22-.51,.51,.03,.45,.04,.68,.09,.88-1.89-.29-3.73-.1-5.37,.56,.03-.04,.05-.08,.03-.13-1.19-2.7,.66-3.73,2.29-5.23,.51,.06,1.02,.17,1.52,.32,.72,.21,1.41,.57,2.16,.65,.19,.02,.21-.23,.09-.32-.88-.63-2.15-1.04-3.33-1.06,.14-.14,.28-.29,.41-.45,.44-.53,.5-1.33,.62-1.98,.45-2.43,3.12-.87,4.56-.9,.15,0,.2-.17,.11-.27-.87-1.03-2.9-1.39-4.13-.92-1.32,.49-1.43,1.72-1.6,2.91-.09,.61-.48,1.16-.96,1.69-.03,0-.07,0-.1,.02-.09,.02-.11,.11-.09,.18-.72,.74-1.58,1.42-2.07,2.11-.79,1.13-.45,2.41,.35,3.4,.02,.02,.04,.03,.06,.03-1.71,.72-3.21,1.95-4.3,3.74-1,1.63-.62,3.77-.2,5.49,.7,2.83,.86,5.99,2.52,8.45,1.27,1.88,3.77,2.93,5.41,4.41,1.58,1.43,1.39,4.85,3.87,5.53,.56,.15,1.09,.1,1.6-.08,2.14,.98,4.57,1.13,6.62,2.25,1.77,.97,2.37,1.2,4.36,.54,2.87-.95,5.1-3.16,8.05-4.1,1.12-.36,2.11-.71,3.15-1.24,1.13-.56,1.03-1.5,2.65-1.75,.39-.06,.22-.65-.16-.59-1.49,.22-1.61,.91-2.82,1.77-2.05,1.45-5.03,1.63-7.26,2.94-.99,.58-1.94,1.22-2.94,1.79-4.15,2.37-2.99-.1-5.35-.6-1.84-.39-3.69-.86-5.5-1.39,.79-.46,1.53-1.11,2.23-1.55,3.57-2.25,7.33-4.24,11.44-5.28,.41-.1,.24-.73-.17-.63-3.81,.92-7.05,2.64-10.43,4.59-2.67,1.54-5.75,3.66-7.6-1.11-.41-1.05-1.09-1.69-1.92-2.44-1.2-1.08-2.68-1.82-3.91-2.87-1.2-1.02-1.62-2.49-1.95-4,2.63-2.14,5.26-2.37,8.53-2.91,.13-.02,.14-.25,0-.27-2.78-.39-6.69,.52-8.62,2.76-.18-.84-.34-1.69-.61-2.46-1.09-3.11-1.57-5.95,.98-8.68,2.09-2.24,5.7-2.37,8.47-1.74,.48,.11,.77-.35,.58-.76-.36-.82,1.84-1.7,2.28-2.09,1.57-1.44,5.43,1.99,6.55,3.05,.04,.04,.08,.05,.13,.04,1.09,1.85,1.99,3.79,2.49,5.94,.45,1.92,.62,4.13,1.89,5.74,2.29,2.92,6.17,5.75,10.04,5.56,.75,.97,1.71,1.62,2.96,1.68,.02,0,.04,0,.05-.02,.12,.58,.24,1.15,.37,1.71,.05,.22,.38,.13,.34-.09-1.02-4.95-1.4-9.13,.91-13.77,.07-.14-.12-.25-.21-.12-2.63,3.49-2.26,7.96-1.45,12.07-3.96-1.55-4.26-8.4-4.26-11.8,0-1.12,.2-6.76,1.98-5.03,.39,.38,.7,.7,1.05,1.17,.13,.18,.34,.31,.58,.23,.39-.12,2.1-.87,2.08-.87,2.07,.28,3.82,.79,4.71,2.57-.04,.09-.09,.18-.12,.28-.07,.2,.18,.37,.35,.27,.01,.04,.04,.07,.05,.12,.04,.13,.1,.23,.15,.33-1.27,1.08-2.35,3.36-2.93,4.46-.87,1.63-2.11,3.98-1.42,5.87,.06,.15,.29,.09,.25-.07-.54-1.99,1.05-4.31,2.07-5.9,.63-.98,1.33-1.92,2.05-2.82,.22-.27,.48-.52,.71-.78,.07,.05,.13,.1,.2,.16,.24,.2,.52,.33,.84,.4,2.52,1.14,1.15,3.93-.09,5.31-.08,.09-.07,.18-.03,.26-2.92,1.09-5.47,3.13-7.04,5.85-.14,.24,.2,.41,.35,.21,1.52-2.01,3.57-3.67,5.89-4.69,.04,.08,.14,.14,.25,.11,.66-.17,1.29-.47,1.89-.85,.06-.01,.11-.04,.17-.05,1.68-.4,7.34-2.84,8.4-1.29,.76,1.12,1.24,1.66,2.56,2.11,.45,.16,1.78,.25,2.23,.29,1.67-.03,3.19,.45,4.57,1.41-.67,.3-1.33,.63-2.02,.9-.7,.27-1.45,.44-2.13,.78-.2,.1-.11,.46,.12,.44,1.41-.14,3.26-.84,4.37-1.77,.19,1.35,0,2.51-.58,3.48-.07,.05-.11,.13-.12,.2-.24,.37-.54,.71-.9,1.02-.07,.08-.07,.18-.03,.26-2.76,1.17-5.56,1.12-8.58,.79-.84-.09-1.71-.16-2.59-.24-.09-.11-.19-.21-.27-.33-.09-.13-.29-.01-.21,.12,.04,.06,.09,.11,.13,.17-3.06-.26-6.27-.59-8.92-1.77-.22-.1-.41,.22-.19,.33,3.1,1.44,6.56,2.03,9.97,2.46,1.6,1.53,4,2.3,5.99,3.08,1.21,.47,2.41,.91,3.74,.71,2.91-.45,4.98-.02,7.69,.92,3.52,1.23,7.95,.38,11.83-1.44-.16,.17,0,.48,.25,.42,1.88-.45-.34,7.01-.61,7.8-1.87,5.42-7.06,5.99-11.86,4.96-4.13-.89-9.75-1.23-14.46-2.81,.41-.06,.83-.15,1.26-.27,1.55-.43,3.91-1.45,4.95-2.87,2.22-.03,4.33-2.05,6.43-.22,2.95,2.57,7.07,2.96,10.71,1.21,1.02-.49,2.6-1.39,2.59-2.75,0-.42,.02-1.56-.64-1.54-.15,0-.21,.2-.08,.28,1.06,.62-1.01,2.75-1.61,3.11-.79,.48-1.78,.68-2.68,.89-2.39,.54-5.13,.5-7.06-1.19-.92-.8-1.83-2.13-3.25-2.06-2.08,.11-4.75,2.21-6.15-.63-1.99-4.04-4.15-2.78-7.92-2.48-4.22,.34-6.11-5.61-9.73-6.91-.18-.06-.29,.22-.13,.3,3.6,1.83,6.07,8.52,10.93,7.57,.85-.17,1.64-.26,2.36-.23-1.13,2.04-4.8,4.81-6.86,3.36-.91-1.19-1.59-2.61-1.93-4.35-.06-.29-.38-.43-.65-.37-3.83,.85-4.02-5.82-5.82-7.81-.12-.13-.3,.04-.23,.18,1.22,2.47,1.24,5.42,2.92,7.67,.46,.61,1.08,.89,1.78,1.1,1.2,.35,1.18,.51,1.67,1.53-.15-.19-.31-.37-.45-.54-.14-.16-.34,.04-.27,.21,1.45,3.42,4.53,6.29,3.69,10.37-.45,2.2-2.72,1.02-3.93,.95-1.94-.12-3.88,.07-5.82,.06-1.22,0-2.66-.36-3.93-.43-3.13-.16-4.27-1.48-5.91-3.87-.19-.24-.38-.48-.57-.71-2-2.49-2-5.57,.74-7.49,.77-.54,1.29-.99,1.7-1.83,.05-.11-.1-.25-.18-.14-1.95,2.5-7.96,4.36-4.44,8.67,1.26,1.54,2.65,3.91,4.29,5.06,2.02,1.41,4.7,1,7.02,1.41,2.87,.51,5.77-.21,8.67,.33,1.06,.2,2.12,.16,2.72-.87,1.27-2.17,.35-5.19-1.06-7.77,4.78,5.17,12.45,4.54,19.24,6.14,5.87,1.38,12.11,1.67,14.75-5.01,.33-.84,2.77-9.46,.05-8.69,2.66-1.32,5.03-3.07,6.61-4.89,1.44-1.66,4.73-9.27,.29-9.65Zm-40.48,21.33c2.34,.87,5.97-1.72,6.92-3.9,1.17,.19,2.13,.85,2.83,2.34,.29,.63,.75,1.65,1.45,1.97,.22,.1,.44,.17,.66,.21-1,.63-1.92,1.42-3,1.94-1.07,.52-2.34,.92-3.55,.88-2.07-.81-3.91-1.91-5.3-3.45Zm3.51-52.52c1.07,.18,1.82-.41,2.48-1.14,2.99-3.31,11.52,3.52,10.43,7.61-.97-1.2-2.28-2.03-3.74-1.84-.03,0-2.1-1.96-2.68-2.17-.49-.18-1.03-.03-1.52,.05-3.69,.65-2.79-.92-5.08-1.57-1.83-.52-3.28,.63-5.2,.38-.31-.04-1.2,.23-2.04,.52,2.02-2.5,4.05-2.38,7.35-1.84Zm-14.65,21.22c-.16,0-1.27,.76-1.22,.82-.2-.27-.4-.9-.8-1.02-.64-.19-.97-1.22-1.78-.58-2.09,1.67-1.92,3.92-2.06,6.37-.09,1.69,.05,4.64,.8,7.2-2.09-2.59-3.58-4.72-4.56-8.1-.94-3.24-1.26-6.7-1.2-10.06,0-.18-.28-.18-.28,0-.14,5.4,.41,16.16,6.07,18.99,.1,.05,.18,.03,.25-.01,.25,.69,.55,1.33,.92,1.89-3.16-.43-5.81-2.17-8.05-4.39-2.41-2.38-2.31-5.95-3.27-8.98-1.62-5.13-5.93-9.02-8.52-13.64-1.84-3.28-1.78-6.63-.98-10.18,.16-.73,1.39-4.18,2.93-2.99,.35,.27,.56,.46,1.02,.46,.68,0,1.32-1.14,1.66-1.59-.07,.1,4.05,5.19,4.79,5.79,.23,.19,.67-.07,.45-.35-.65-.87-1.23-1.92-1.86-2.93,.32-.32,.47-.72,.79-1.21,1.04-1.58,1.54-.8,2.35-1.61,1.31-1.31,2.05-7.31,5.01-4.54,.22,.2,.53,.15,.69-.09,4.23-6.3,7.02,3.57,8.05,6.47,.06,.18,.34,.16,.34-.05,.06-2.28-.61-4.57-1.87-6.44,.18-1.28,.43-2.49,1.04-3.65,.94-1.81,1.18-.05,1.79,.17,1.19,.43,2.58,1.48,3.84,.28,1.61-1.55,2.58-.52,3.94,.34,1.28,.8,3.01,.08,3.1,2.44,.11,3.05-2.38,5.74-3.36,8.58-1.05,.25-1.87,.81-2.54,1.64-.04-1.25-.66-2.34-2.02-2.82-.73-.26-1.81-.65-2.62-.43-1.02,.28-3.16,2.28-3.83,.58-.1-.26-.34-.36-.6-.24-1.39,.66-2.22,1.54-3.13,2.74-1.09,1.43-1.65,.45-2.9-.06-1.79-.72-3.38,2.93-4.01,3.98-.01-.06-.02-.12-.04-.18-.05-.28-.35-.37-.59-.33-2.93,.48-4.71,3.24-4.57,6.13,.01,.22,.36,.29,.4,.05,.3-1.55,.79-2.87,1.82-4.12,2.19-2.65,2.21-.54,2.37,.68,.04,.29,.39,.41,.64,.36,1.29-.24,2.44-.87,2.59,.85,.03,.35,.1,1.26,.33,1.57,.56,.76,1.14,.91,1.94,.81-2.59,4.07-2.68,10.44-1.43,14.89,.05,.17,.31,.14,.31-.04-.25-5.11-1.08-10.28,1.63-14.93,1.33-.27,4.2-2.08,4.38,1.45,.08,1.55-1.03,3.25-1.7,4.58-.71,1.4-1.67,2.98-1.53,4.6,.02,.19,.32,.26,.35,.05,.3-1.9,1.6-3.81,2.54-5.75,.91-.42,1.67-1.01,2.5-1.56,3.24-2.16,2.8,.62,3.81,1.63,1.04,1.04,2.34,.79,3.48,.17,.26-.14,.54-.19,.82-.19-.31,1.31-.55,2.63-.97,3.92-.55,1.67-1.49,2.92-2.48,4.3-1.35-1.16-3.22-1.69-4.98-1.69Zm20.34,12.11c-1.98-.35-1.43-1.45-2.47-2.37-.27-.24-.54-.41-.82-.54,1.63-1.12,2.96-3.05,3.75-4.55,.05-.09-.07-.19-.14-.11-.8,.95-1.5,1.95-2.4,2.81-.72,.68-1.55,1.11-2.38,1.56-1.51-.06-3.09,.89-4.64,1.54,.2-.17,.39-.34,.58-.51,1.61-1.41,3.05-3.23,4.12-5.08,.07-.12-.1-.26-.19-.15-1.26,1.57-2.5,3.06-4.06,4.35-.94,.78-2.06,1.43-3.09,2.16-.1,.03-.21,.05-.31,.09,.99-.92,2.09-2.22,1.47-3.65-.71-1.63-1.95-3.14-3.24-4.48,.53-.91,.94-1.9,1.4-2.83,.66-1.34,1.2-2.68,1.59-4.12,.04-.16-.2-.23-.25-.07-.48,1.56-1.15,3.04-1.95,4.46-.4,.7-.88,1.37-1.28,2.07-.26-.26-.52-.52-.77-.76,2.19-1.94,3.32-5.59,3.45-8.43,2.22,.28,5.05,3.89,5.9,5.2,1.59,2.44-1.92,6.46-2.8,8.62-.05,.12,.13,.21,.21,.12,1.24-1.45,3.46-4.61,3.67-7.03,1.01,.08,2.26-.69,2.83,.81,.08,.2,.23,.34,.45,.34,1.77,.01,3.98-1.8,5.75-2-.61,3.47-2.27,6.14-4.85,8.48-.11,.1,.03,.25,.15,.19,2.94-1.37,4.9-5.59,4.93-8.69,.81-.02,1.52,.35,2.02,1.48,.11,.24,.46,.1,.47-.13,.07-2.87-2.99-2.17-4.74-1.47-.71,.29-1.43,.54-2.15,.81-1.01,.39-1.17,.32-1.84-.49-.76-.92-2.07-.02-3.01,.1-.01-.21-.04-.42-.09-.61-.64-2.32-3.25-4.61-5.13-5.93-.6-.42-1.69-1.28-2.54-.94-.87,.35-2.38,1.12-3.17,.02-.31-.43-.27-.95-.66-1.35-1.86-1.86-4.23,.2-5.88,1.52,.51-1.25,.78-2.51,.44-3.79-.3-1.1-1.4-1.53-2.39-1.64-.86-.1-1.91,.43-2.71,.66-1.88,.54-1.64-2.76-1.85-3.65-.07-.29-.37-.41-.64-.36-1.69,.32-2.26,.71-2.62-.72,.03,0,.07,0,.1-.02,.97-.67,1.56-1.85,2.27-2.76,1-1.27,2.75,.56,3.79,.92,.19,.06,.43-.04,.52-.21,.29-.55,3.03-4.63,3.47-3.59,.12,.28,.41,.56,.7,.64,.24,.07,.55,.08,.79-.03,2.11-.96,6.88-3.82,6.95,1.67-.24,.38-.46,.81-.66,1.28-.48,.19-.82,.33-.81,.34-2.49-1.81-5.61,2.46-6.76,4.01-.19,.26,.22,.55,.43,.33,1.54-1.51,3.92-4.92,6.58-2.87,.17,.13,.5,.08,.63-.08,1.76-2.21,3.41-.95,5.61-1.79,3.39-1.28,3.21,1.15,5.76,1.16,1.24,0,.94,.04,1.99-.14,2.55-.44,2.14,.88,3.26,2,.17,.17,.64,.13,.77,.14,2.68,.21,4.82,2.96,4.82,5.7,0,.39,.6,.39,.6,0,.02-1.25-.49-2.78-1.34-4.03,.28-.44,.44-.89,.49-1.35,1.15,2.38,2.87,4.64,3.48,7.13-.11,.17-.22,.34-.32,.51-.07,.12,.08,.3,.21,.21,.07-.06,.15-.12,.22-.18,.15,.84,.16,1.7-.03,2.6-.03-.03-.05-.06-.08-.09-1.15-1.16-2.69-1.88-4.2-2.44-.25-.09-.45,.14-.48,.36-.32,2.72,1.88,4.73,1.84,7.53-.07,5.17-3.75,6.77-7.39,9.38-.1,.07-.04,.27,.09,.22,5.72-2.32,10.44-7.86,6.87-14.13-1.96-3.45,2-1.03,3.06,.12,.93,1,1.11,1.76,2.47,1.96,1.45,.21,1.48-1.21,1.25-2.46,1.23,1.37,2.2,2.83,2.64,4.68,.02,.78,.07,1.55,.1,2.34,.1,3.09-1.94,6.01-3.82,8.26-.13,.16,.06,.35,.22,.22,2.24-1.83,3.48-3.89,4.2-6.67,.28-1.07,.23-2.1,.16-3.19-.04-.51-.06-1.02-.06-1.53,0-.2,.7-3.22,1.03-1.5,.08,.4,.77,.42,.83,0,.01-.1,.03-.19,.04-.29,4.39,9.05-3.7,19.32-12.89,20.89,.8-.99,1.26-2.18,.43-3.25-1.23-1.59-2.74-2.2-4.69-2.52-1.09-.18-2.13-.21-3.24-.4Zm29.64,7.52c-3.05,3.64-7.88,5.43-12.47,5.95-1.98,.22-4.02-.11-5.89-.76-1.44-.5-2.86-1.2-4.43-.95-2.2,.35-3.85,.71-6.06,.02-1.81-.56-3.97-1.14-5.58-2.32,.5,.06,.99,.12,1.48,.17,3.29,.38,7.45,.73,9.9-1.93,.18-.19-.04-.48-.27-.36,.2-.17,.4-.35,.6-.55,6.6-.32,12.46-5.2,14.65-11.17,2.83-2.55,4.07-6.3,4.98-9.92,.06-.24-.3-.34-.36-.1-.88,3.34-2.25,6.11-4.21,8.78,.96-3.51,.65-7.3-1.49-10.71-.25-.39-.76-.2-.81,.22,0,.06-.01,.11-.02,.17-1.23,.06-1.84,.78-1.96,1.99-.66-1.72-1.96-3.09-3.09-4.71-.28-.4-.84-.15-.76,.32,.03,.18,.49,3.91-.64,2.66-.37-.4-.72-.81-1.09-1.21,.55-1.28,.62-2.61,.35-3.92,1.5-1.47,2.94-3.6,3.39-5.71,1.71-.39,1,1.82,2.21,2.15,.7,.19,.96,0,1.6-.25,.48-.2,2.23,2.42,2.68,2.97,.1,.11,.29,.15,.42,.11,2.48-.74,5.36,5.47,5.93,7.09,1.37,3.95-1.91,8.4-4.81,10.64-.08,.06-.11,.13-.12,.21-.56,.25-1.1,.52-1.62,.8-.24,.13-.07,.47,.18,.42,1.94-.43,7.35-2.96,6.91,.76-.03,.23,.23,.49,.46,.46,5.54-.74,1.4,6.96-.07,8.71Z"/>
      <path class="cls-1" d="M65.48,53.42c.1-.1,0-.3-.15-.25-2.36,.8-4.32,1.63-6.88,1.81-2.44,.17-4.93-.12-7.36-.43-.15-.02-.18,.24-.04,.26,4.21,.57,11.04,2.11,14.41-1.39Z"/>
      <path class="cls-1" d="M63.42,25.87c-.64-.81-1.27-1.31-2.27-1.81-.42-.21-1.78,.07-1.98-.07-1.83-1.24-4.32-1.36-6.46-1.5-1.78-.12-10.43-.69-10.53,2.47-.01,.35,.43,.42,.61,.17,1.14-1.64,4.74-2.25,8.28-2.1-.08,.11-.09,.28,.02,.38,.35,.31,.77,.46,1.2,.63,.52,.21,2.55,.72,1.34,1.33-.39,.2-.19,.78,.21,.79,2.13,.05,1.55,4.98,.27,5.82-.26,.17-.04,.55,.24,.42,1.53-.73,2.2-3.61,1.54-5.47,.47,.68,.8,1.46,1.02,2.25,.13,.47,.18,.98,.05,1.45-.1,.34-.49,.38-.59,.72-.02,.07,0,.16,.05,.21,.02,.02,.05,.03,.07,.05-.92,.34-1.79,1.18-2.57,1.58-.18,.09-.1,.39,.1,.38,1.48-.06,2.59-1.9,4.07-.78,.14,.11,.32,.06,.47,0,.88-.37,1.32-.04,2.11,.04,.14,.01,.23-.12,.24-.24,.16-1.56-2.28-.64-2.94-.95-.04-.02-.09-.03-.13-.05,.33-.19,.68-.34,1.03-.48,.4-.16,.86-.23,1.12-.61,.14-.2,.05-.54-.17-.64-.08-.04-.15-.04-.23-.06,0-.01,.01-.02,.01-.03,.12-.01,.24-.02,.36,0,.23,.04,.42,.22,.65,.27,.07,.02,.13-.01,.17-.05-.4,2.05,.54,3.66,2.65,4.64,.37,.17,.7-.38,.32-.55-2.01-.95-3.04-2.64-1.98-4.81,.12-.24-.02-.59-.33-.58-2.07,.09-2.04-1.91-1.48-3.36,1.27,.04,2.22,.57,2.85,1.6,.16,.2,.36,.22,.53,.15,1.8,1.51,1.44,5.05,1.46,7.09,0,.21,.32,.21,.32,0,.06-2.94,.15-5.54-1.47-8.08-.06-.09-.15-.16-.26-.2Zm-2.55,3.58s.05,.01,.08,.01c-.01,.04-.03,.09-.04,.13,0-.05-.02-.1-.04-.15Zm-1.15-.48c-.1,0-.2,.02-.28,.04-.13,.03-.24,.07-.36,.12-.03,0-.06,.02-.09,.03,0,0,0,0,0,0-.01,0-.02,.01-.03,.02-.03,.01-.06,.02-.09,.03-.06,.04-.12,.07-.18,.11-.2-.98-.83-1.99-1.38-2.53-.16-.16-.43,.05-.31,.24,.38,.61,.67,1.22,.87,1.91,.1,.33,.11,.62,.08,.88-.06,.05-.12,.1-.18,.15,0-.11,0-.2,0-.27-.16-1.21-.83-2.62-1.88-3.3-.09-.06-.16-.02-.2,.05-.21-.38-.5-.69-.87-.89,.95-1.11-1.58-2.01-2.95-2.48,2.97,.22,5.76,.98,6.84,2.11,.13,.14,.39,.23,.58,.15,.01,0,.03,0,.04,0-.59,1.24-.51,2.83,.4,3.62Z"/>
    </g>
  </g>
</svg>