<?xml version="1.0" encoding="UTF-8"?>
<svg id="Layer_2" data-name="Layer 2" xmlns="http://www.w3.org/2000/svg" viewBox="0 0 165.87 69.71">
  <defs>
    <style>
      .cls-1 {
        fill: #fff;
      }
    </style>
  </defs>
  <g id="Layer_1-2" data-name="Layer 1">
    <g>
      <g>
        <path class="cls-1" d="M60.58,37.21c-1.16-.49-2.35-.51-3.53-.99-1.97-.81-2.7-3.42-3.46-5.19-.05-.11-.21-.05-.17,.06,.56,1.95,1.31,4.73,3.37,5.69,1.5,.7,3.26,.7,4.41,2.14,1,1.26,1.38,2.8,2.46,4.04,.71,.82,1.67,1.45,2.53,2.1,1.47,1.12,2.48,2.46,3.49,3.98,1.13,1.7,2.52,2.7,4.56,2.98,.11,.02,.17-.14,.06-.19-2.27-1.09-3.54-2.16-4.91-4.26-1.51-2.3-3.99-3.52-5.66-5.68-.98-1.27-1.47-3.98-3.16-4.69Z"/>
        <path class="cls-1" d="M56.41,56.14c-.08,.06,0,.17,.09,.12,1.09-.66,2.13-1.39,3.21-2.08,.06-.04,0-.15-.06-.12-1.21,.48-2.17,1.34-3.24,2.07Z"/>
        <path class="cls-1" d="M77.13,65.32c-.15-.16-.43,.03-.29,.2,1.15,1.33,3.14,1.14,4.74,1.05,1.84-.1,3.7-.22,5.52-.48,1.95-.28,6.06-1.95,2.7-3.84-.1-.06-.22,.08-.15,.18,2.14,2.79-2.83,2.99-4.65,3.16-2.06,.2-6.35,1.42-7.87-.27Z"/>
        <path class="cls-1" d="M84.96,62.46c.8-2.14-.36-4.5-1.6-6.21-.07-.09-.21,0-.14,.1,1.29,1.93,1.79,3.76,1.59,6.06,0,.08,.12,.14,.15,.05Z"/>
        <path class="cls-1" d="M113.6,35.11c-1.2,.32-.96-1.29-2.29-1.03-.77,.15-1.46,.49-2.09,.93,1.2-1.9,1.25-4.43,.77-6.57-.33-1.47-1.5-2.5-2.63-3.38-.8-.62-2.04-1.84-3.11-2.01-1.24-.19-1.31,.36-2.52-.5-.34-.24-1.23-1.02-1.68-.74-1.46,.9-2.06-.84-3.18-.03-.13-.63-.37-1.2-.77-1.67-.1-.12-.27-.14-.38-.02-.56,.62-1.25-1.1-1.59-1.55-.09-.11-.23-.11-.33-.01-.08,.08-.13,.12-.16,.13-.49-.92-1.19-1.75-2.03-2.42-.81-.64-2.56-2.25-3.66-2.01-.46,.1-.95,.37-1.4,.53,.35-.12-1.75-.08-1.68-.09-.92,.09-.79,1.91-1.8,1.42-1.7-.81-3.04,1.9-3.71,2.81-.11,.15,.09,.32,.22,.18,1.14-1.29,2.05-2.82,3.95-2.04,.16,.07,.31,.02,.43-.09,.76-.73,1.14-1.49,2.39-1.48,.97,0,1.45-1.35,2.6-.67,3.15,1.86,5.32,4.04,5.07,8.04,0,.13,.17,.17,.2,.04,.32-1.24,.18-2.47-.27-3.58,.6,.33,.86,1.02,1.24,1.72,.07,.13,.28,.12,.37,.02,1.02-1.32,.84,2.58,.77,3.05-.12,.8-.41,1.54-.66,2.3-1.15-1.57-3-2.79-4.53-3.62-.03-.02-.06-.01-.08-.01-1.1-2.23-5.82-3.12-7.68-3.05-.44,.02-1.19,.12-1.51,.44-.47,.48-.36,.33-.66,.94-.72,1.45-1.77,.9-2.85,1.19-.44,.12-.81,.27-1.15,.45,.5-2.17,1.14-5.37,.11-7.23-.34-.61-.72-.91-1.45-.94-1.26-.05-2.6-.63-3.83-.46-.83,.12-1.43,2.38-2.11,2.09-.36-.15-1.45-.42-1.78-.35-1.47,.31-1.29,2.41-.93,3.75-.7-.45-1.48-.77-2.3-.95-2.1-.45-1.54,2.51-3.03,2.12-1.69-.44-1.9,2.12-1.97,3.11-.09,1.29-.08,1.35-.92,2.24-.68,.72-.36,1.59-.45,2.45-.9-.66-1.85-1.21-2.93-1.24-.18,0-.3,.16-.34,.31-.14,.5-.09,1.31-.85,1-.11-.05-.27-.05-.37,.03-2.17,1.91-1.76,3.94-.98,6.56,1.07,3.62,4.73,5.71,7.6,7.76,.53,.38,1.04,.76,1.55,1.15-1.57-.65-3.21-.87-4.89-1.18-.18-.03-.32,.09-.37,.25-.54,.63-1.08,1.25-1.63,1.88-.18,.08-.31,.29-.23,.48,.13,.31,.2,.46,.28,.59-1.38,.27-2.6,.85-3.56,1.72,.01-.03,.01-.07-.01-.1-1.49-1.57-.47-2.74,.28-4.18,.37-.09,.74-.14,1.13-.16,.55-.03,1.11,.04,1.65-.09,.13-.03,.09-.21-.02-.24-.77-.22-1.74-.18-2.56,.09,.06-.13,.12-.27,.17-.41,.17-.48,.02-1.04-.06-1.52-.29-1.79,1.94-1.37,2.92-1.75,.1-.04,.1-.16,.01-.21-.86-.5-2.34-.24-3.08,.39-.78,.67-.56,1.54-.38,2.41,.09,.44-.04,.92-.24,1.4-.02,.01-.05,.02-.07,.04-.06,.04-.05,.1-.01,.14-.31,.69-.74,1.37-.9,1.97-.27,.98,.29,1.78,1.08,2.26,.02,.01,.03,0,.05,0-1.01,.92-1.73,2.14-2.04,3.65-.29,1.37,.51,2.75,1.23,3.83,1.19,1.78,2.08,3.92,3.83,5.21,1.34,.98,3.33,1.09,4.83,1.7,1.45,.59,2.16,3,4.04,2.86,.42-.03,.78-.2,1.08-.45,1.72,.14,3.43-.35,5.13-.09,1.46,.23,1.93,.24,3.14-.71,1.74-1.37,2.73-3.45,4.54-4.83,.68-.52,1.28-1.02,1.87-1.63,.64-.67,.34-1.29,1.39-1.86,.25-.14,0-.5-.26-.37-.98,.52-.88,1.03-1.51,1.92-1.05,1.51-3.06,2.37-4.28,3.83-.54,.65-1.04,1.32-1.58,1.96-2.28,2.67-2.08,.67-3.84,.91-1.37,.19-2.76,.32-4.14,.4,.43-.51,.78-1.14,1.16-1.62,1.9-2.44,4.01-4.74,6.58-6.48,.26-.17-.02-.56-.28-.39-2.4,1.58-4.21,3.57-6.06,5.76-1.46,1.73-3.06,3.95-5.52,1.12-.54-.62-1.17-.9-1.93-1.2-1.09-.45-2.3-.59-3.41-1.01-1.08-.41-1.74-1.32-2.34-2.28,1.28-2.13,3.04-2.94,5.16-4.13,.09-.05,.03-.21-.07-.19-2.01,.42-4.49,2.02-5.26,4.04-.33-.54-.65-1.08-1.03-1.55-1.53-1.88-2.56-3.71-1.48-6.23,.89-2.06,3.34-3.05,5.41-3.3,.35-.04,.44-.43,.21-.67-.45-.47,.85-1.63,1.05-2.01,.73-1.38,4.24,.03,5.28,.48,.04,.02,.07,.01,.1,0,1.21,1.01,2.31,2.12,3.19,3.48,.79,1.21,1.45,2.69,2.72,3.49,2.3,1.44,5.68,2.44,8.31,1.34,.76,.48,1.58,.69,2.46,.43,.02,0,.02-.02,.03-.02,.23,.37,.45,.74,.68,1.09,.09,.14,.29,0,.21-.15-1.93-3.16-3.23-5.95-2.79-9.73,.01-.12-.14-.14-.18-.03-.95,3.06,.42,6.05,2,8.68-3.11-.09-5.03-4.74-5.87-7.08-.28-.77-1.54-4.71,.12-3.96,.36,.16,.66,.31,1.01,.55,.14,.09,.31,.13,.46,.02,.24-.18,1.23-1.12,1.22-1.12,1.5-.32,2.83-.41,3.89,.61,0,.07-.01,.15-.01,.22,0,.15,.22,.21,.31,.1,.02,.03,.04,.04,.06,.07,.06,.08,.12,.14,.19,.19-.61,1.06-.79,2.9-.92,3.8-.2,1.34-.46,3.27,.48,4.4,.08,.09,.22,0,.15-.11-.87-1.24-.34-3.24-.03-4.58,.19-.83,.44-1.65,.72-2.46,.08-.24,.2-.47,.3-.71,.06,.02,.11,.04,.18,.06,.21,.07,.44,.1,.68,.07,2.02,.16,1.77,2.42,1.25,3.68-.03,.08,0,.15,.05,.18-1.75,1.48-2.99,3.52-3.4,5.78-.03,.2,.24,.23,.3,.05,.55-1.76,1.56-3.42,2.9-4.7,.05,.05,.13,.06,.2,.01,.41-.28,.77-.65,1.09-1.05,.04-.02,.07-.05,.1-.08,1.06-.7,4.36-3.78,5.47-2.97,.8,.58,1.26,.84,2.29,.82,.35,0,1.29-.27,1.61-.35,1.15-.43,2.31-.48,3.5-.16-.39,.38-.76,.77-1.17,1.12-.42,.36-.89,.66-1.27,1.06-.11,.12,.04,.35,.19,.27,.94-.45,2.04-1.39,2.58-2.31,.46,.88,.62,1.73,.46,2.54-.04,.05-.05,.11-.03,.17-.08,.31-.2,.62-.37,.93-.03,.07,0,.14,.05,.19-1.61,1.49-3.56,2.15-5.72,2.67-.6,.15-1.22,.31-1.84,.48-.09-.05-.18-.1-.27-.16-.09-.07-.2,.06-.11,.14,.04,.03,.09,.06,.13,.09-2.18,.58-4.47,1.15-6.59,.99-.18-.01-.23,.26-.05,.27,2.5,.23,5.03-.22,7.49-.78,1.48,.66,3.33,.6,4.9,.64,.95,.03,1.89,.03,2.75-.44,1.9-1.03,3.43-1.25,5.53-1.27,2.74-.02,5.58-1.71,7.8-3.93-.07,.16,.12,.33,.27,.23,1.19-.78,1.51,4.92,1.52,5.53,.06,4.2-3.39,5.88-6.95,6.36-3.07,.41-7.03,1.57-10.67,1.65,.27-.14,.54-.31,.8-.5,.96-.68,2.34-1.97,2.71-3.21,1.53-.57,2.48-2.49,4.38-1.75,2.68,1.04,5.61,.29,7.69-1.82,.58-.59,1.45-1.61,1.11-2.54-.11-.29-.37-1.08-.82-.9-.1,.04-.09,.19,.02,.21,.88,.16-.02,2.15-.34,2.55-.43,.53-1.06,.91-1.63,1.27-1.52,.96-3.41,1.62-5.16,.93-.83-.33-1.79-1.02-2.75-.61-1.41,.59-2.72,2.71-4.4,1.09-2.38-2.29-3.55-.89-6.08,.25-2.83,1.28-5.61-2.35-8.43-2.35-.14,0-.15,.22-.01,.24,2.94,.37,6.3,4.37,9.42,2.51,.55-.33,1.07-.59,1.57-.74-.28,1.69-2.12,4.51-3.9,4.02-.93-.59-1.74-1.41-2.41-2.52-.11-.19-.37-.2-.54-.09-2.43,1.53-4.22-3.02-5.95-3.94-.11-.06-.2,.1-.11,.18,1.46,1.4,2.2,3.43,3.92,4.57,.47,.31,.96,.35,1.5,.32,.91-.05,.94,.06,1.53,.64-.15-.09-.3-.18-.44-.26-.14-.08-.23,.12-.14,.21,1.85,2,4.69,3.22,5.12,6.24,.23,1.63-1.62,1.38-2.47,1.63-1.37,.4-2.66,1.01-4,1.48-.85,.3-1.93,.41-2.82,.68-2.2,.66-3.31,.04-5.03-1.2-.19-.12-.38-.24-.57-.35-1.99-1.22-2.76-3.34-1.35-5.35,.4-.56,.65-1,.72-1.68,.01-.09-.13-.15-.16-.05-.73,2.21-4.41,4.98-.91,7.08,1.25,.75,2.8,2.04,4.22,2.42,1.74,.47,3.49-.48,5.19-.77,2.1-.36,3.93-1.58,6.06-1.92,.78-.13,1.5-.41,1.66-1.27,.34-1.81-1.05-3.67-2.66-5.1,4.58,2.38,9.71,.05,14.79-.53,4.39-.5,8.77-1.85,8.93-7.12,.02-.66-.43-7.21-2.12-6.01,1.51-1.57,2.71-3.37,3.35-5.02,.58-1.5,.96-7.56-2.19-6.73Zm-22.63,24.75c1.83,.02,3.69-2.66,3.8-4.41,.86-.16,1.68,.06,2.53,.91,.36,.36,.93,.95,1.49,1,.18,.02,.34,0,.51-.02-.53,.68-.97,1.45-1.59,2.08-.61,.62-1.38,1.21-2.23,1.49-1.63-.04-3.17-.35-4.51-1.06Zm-10.61-37.1c.78-.14,1.15-.73,1.43-1.4,1.24-3.03,8.82-.43,9.08,2.66-.97-.59-2.08-.84-3.04-.34-.02,0-1.94-.83-2.39-.83-.38,0-.72,.23-1.03,.41-2.38,1.36-2.15,.06-3.9,.18-1.39,.09-2.1,1.25-3.49,1.55-.22,.05-.77,.45-1.28,.86,.77-2.22,2.2-2.65,4.62-3.09Zm-4.84,18.27c-.11,.04-.69,.84-.64,.87-.21-.14-.5-.52-.8-.5-.49,.03-.98-.6-1.37,.04-1.03,1.67-.35,3.18,.16,4.9,.36,1.19,1.19,3.19,2.34,4.76-2.08-1.27-3.64-2.37-5.16-4.46-1.45-2-2.53-4.31-3.32-6.64-.04-.13-.24-.06-.19,.07,1.24,3.76,4.29,11.04,8.9,11.6,.08,0,.13-.02,.17-.07,.34,.41,.71,.78,1.1,1.08-2.29,.49-4.55-.06-6.65-1.03-2.25-1.05-3.07-3.53-4.48-5.39-2.39-3.14-6.33-4.75-9.26-7.29-2.08-1.81-2.87-4.13-3.2-6.78-.07-.55-.08-3.23,1.28-2.79,.31,.1,.5,.18,.82,.07,.47-.17,.63-1.11,.75-1.51-.03,.09,4.08,2.57,4.74,2.8,.21,.07,.44-.21,.23-.36-.67-.44-1.32-1.02-2.01-1.56,.14-.3,.14-.62,.24-1.03,.32-1.35,.86-.94,1.22-1.7,.58-1.23-.4-5.55,2.33-4.37,.2,.09,.4-.03,.46-.23,1.35-5.4,5.73,.72,7.16,2.47,.09,.11,.27,.02,.22-.12-.52-1.59-1.56-3-2.89-3.98-.19-.92-.32-1.82-.19-2.78,.2-1.48,.8-.33,1.28-.33,.93,0,2.15,.38,2.72-.76,.73-1.47,1.65-1,2.8-.75,1.08,.23,2.1-.69,2.74,.91,.83,2.07-.22,4.55-.19,6.75-.66,.44-1.09,1.02-1.35,1.76-.34-.85-1.04-1.45-2.09-1.44-.57,0-1.41,0-1.91,.35-.63,.45-1.61,2.35-2.5,1.35-.13-.15-.33-.17-.47-.02-.79,.8-1.15,1.61-1.48,2.67-.4,1.26-1.03,.72-2.02,.68-1.41-.05-1.6,2.86-1.78,3.74-.02-.04-.05-.07-.07-.12-.1-.18-.33-.17-.49-.08-1.9,1.06-2.45,3.4-1.63,5.36,.06,.15,.32,.11,.29-.06-.18-1.15-.17-2.18,.23-3.29,.85-2.37,1.39-.92,1.81-.12,.1,.19,.37,.18,.53,.09,.83-.49,1.47-1.21,2-.06,.11,.23,.38,.85,.61,1,.57,.38,1.01,.34,1.54,.08-.78,3.45,.74,7.86,2.71,10.63,.07,.1,.25,.02,.2-.1-1.44-3.47-3.29-6.82-2.58-10.7,.85-.52,2.38-2.48,3.38-.09,.44,1.05,.1,2.5-.03,3.58-.14,1.14-.41,2.47,.09,3.55,.06,.13,.29,.1,.26-.06-.27-1.39,.16-3.03,.33-4.59,.52-.51,.9-1.11,1.33-1.7,1.7-2.29,2.09-.26,3.03,.18,.98,.46,1.81-.03,2.44-.75,.14-.16,.32-.27,.52-.34,.11,.98,.27,1.95,.3,2.94,.03,1.29-.31,2.38-.64,3.58-1.22-.47-2.64-.36-3.85,.07Zm17.04,3.31c-1.45,.25-1.34-.65-2.29-1.03-.25-.1-.48-.15-.7-.17,.85-1.17,1.29-2.84,1.46-4.07,0-.07-.1-.12-.13-.04-.31,.85-.55,1.72-.96,2.53-.32,.65-.8,1.15-1.26,1.66-1.06,.33-1.91,1.38-2.82,2.21,.09-.17,.18-.33,.27-.49,.76-1.37,1.31-2.98,1.58-4.52,.02-.1-.14-.15-.17-.05-.48,1.4-.97,2.73-1.72,4.01-.46,.77-1.06,1.5-1.6,2.26-.06,.05-.13,.09-.19,.14,.46-.88,.89-2.05,.11-2.88-.9-.95-2.13-1.68-3.35-2.29,.14-.76,.18-1.55,.26-2.3,.12-1.08,.17-2.15,.07-3.24-.01-.12-.19-.11-.19,.01,.06,1.2-.04,2.38-.24,3.56-.1,.58-.26,1.16-.37,1.74-.24-.12-.49-.23-.72-.33,1.03-1.88,.91-4.68,.29-6.67,1.6-.36,4.44,1.43,5.36,2.12,1.7,1.29,.28,4.93,.21,6.64,0,.09,.14,.12,.17,.03,.49-1.31,1.24-4.04,.79-5.76,.72-.2,1.39-1.04,2.15-.15,.1,.12,.24,.18,.4,.13,1.22-.43,2.3-2.23,3.47-2.81,.44,2.55-.04,4.8-1.24,7.06-.05,.1,.08,.16,.15,.1,1.69-1.67,1.99-5.07,1.25-7.22,.56-.22,1.14-.14,1.76,.52,.13,.14,.34-.04,.29-.2-.67-2-2.6-.75-3.63,.16-.42,.37-.86,.73-1.28,1.09-.6,.52-.73,.51-1.39,.12-.75-.45-1.44,.5-2.05,.81-.06-.14-.13-.28-.21-.4-1.02-1.44-3.39-2.37-5.01-2.81-.52-.14-1.48-.46-1.99-.02-.51,.46-1.36,1.36-2.19,.8-.32-.22-.42-.59-.79-.76-1.75-.82-2.87,1.19-3.68,2.51,.04-.99-.09-1.92-.64-2.72-.48-.69-1.35-.71-2.06-.54-.62,.15-1.21,.77-1.7,1.13-1.16,.84-1.81-1.49-2.18-2.06-.12-.18-.35-.19-.53-.09-1.08,.64-1.38,1.05-1.99,.15,.02,0,.05-.01,.06-.04,.5-.7,.62-1.66,.88-2.46,.37-1.13,2.04-.3,2.84-.31,.15,0,.28-.13,.31-.27,.07-.45,.94-3.95,1.5-3.34,.15,.16,.42,.29,.64,.27,.18-.01,.4-.09,.53-.22,1.22-1.19,3.8-4.34,5.21-.57-.07,.32-.11,.67-.14,1.05-.29,.25-.49,.43-.47,.44-2.17-.63-3.26,3.09-3.67,4.44-.07,.22,.28,.32,.38,.12,.69-1.43,1.48-4.36,3.83-3.62,.15,.05,.37-.07,.41-.21,.66-1.96,2.12-1.5,3.43-2.62,2.02-1.73,2.5,0,4.26-.63,.86-.31,.66-.21,1.34-.59,1.65-.93,1.69,.08,2.74,.57,.16,.07,.47-.07,.56-.1,1.9-.52,4.06,.85,4.74,2.73,.1,.27,.51,.12,.42-.15-.29-.87-1.03-1.79-1.92-2.44,.08-.38,.08-.73,0-1.05,1.39,1.35,3.13,2.49,4.17,4.06-.04,.14-.07,.29-.1,.43-.02,.1,.13,.19,.2,.09,.04-.06,.07-.12,.11-.18,.31,.54,.53,1.13,.63,1.8-.03-.01-.05-.03-.08-.04-1.08-.52-2.32-.63-3.5-.64-.2,0-.28,.21-.24,.37,.46,1.96,2.47,2.8,3.14,4.74,1.24,3.59-.9,5.6-2.77,8.3-.05,.08,.04,.2,.12,.13,3.37-3.02,5.25-8.01,1.23-11.45-2.21-1.89,1.12-1.21,2.14-.68,.89,.46,1.2,.94,2.19,.74,1.05-.22,.72-1.2,.25-2.01,1.19,.64,2.22,1.41,2.98,2.57,.21,.53,.43,1.05,.65,1.59,.84,2.11,.15,4.63-.59,6.64-.05,.14,.13,.22,.21,.1,1.09-1.82,1.44-3.55,1.24-5.65-.07-.81-.36-1.51-.68-2.24-.15-.34-.29-.69-.42-1.04-.05-.13-.32-2.4,.34-1.29,.15,.26,.63,.1,.57-.21-.01-.07-.03-.14-.04-.21,5.27,5.15,2.24,14.24-3.7,17.61,.3-.88,.33-1.82-.51-2.35-1.24-.79-2.43-.84-3.86-.57-.8,.15-1.52,.38-2.33,.52Zm22.31-2.17c-1.2,3.27-4.09,5.7-7.12,7.2-1.31,.64-2.8,.92-4.25,.93-1.12,0-2.27-.12-3.29,.44-1.43,.79-2.48,1.45-4.17,1.52-1.39,.06-3.02,.2-4.42-.22,.36-.08,.71-.17,1.07-.25,2.36-.55,5.32-1.34,6.35-3.79,.07-.17-.15-.32-.28-.18,.1-.17,.19-.34,.28-.53,4.47-1.86,7.3-6.68,7.34-11.34,1.32-2.46,1.24-5.35,.97-8.08-.02-.18-.29-.16-.28,.02,.22,2.52-.04,4.77-.72,7.1-.21-2.66-1.36-5.19-3.69-7.02-.27-.21-.58,.05-.5,.35,.01,.04,.02,.08,.03,.12-.84,.35-1.08,.99-.86,1.86-.88-1.02-2.12-1.64-3.3-2.48-.29-.21-.61,.11-.44,.41,.06,.11,1.31,2.58,.22,1.99-.35-.19-.7-.38-1.05-.56,.06-1.02-.22-1.95-.73-2.79,.67-1.39,1.13-3.21,.92-4.78,1.08-.69,1.14,1.01,2.06,.94,.53-.04,.66-.23,1.04-.57,.28-.26,2.14,1.12,2.59,1.38,.09,.05,.24,.03,.32-.03,1.52-1.13,5.06,2.44,5.85,3.42,1.93,2.39,.77,6.27-.68,8.53-.04,.06-.04,.12-.03,.17-.32,.31-.63,.63-.92,.96-.13,.15,.07,.34,.23,.24,1.23-.78,4.34-3.87,4.95-1.19,.04,.16,.28,.28,.43,.2,3.64-1.88,2.69,4.45,2.11,6.02Z"/>
        <path class="cls-1" d="M98.34,46.24c.04-.1-.07-.21-.16-.14-1.43,1.14-2.58,2.2-4.3,2.95-1.64,.72-3.43,1.14-5.18,1.53-.11,.02-.07,.21,.04,.19,3.04-.65,8.14-1.28,9.6-4.53Z"/>
        <path class="cls-1" d="M90.08,27.75c-.64-.4-1.2-.59-2.02-.68-.34-.04-1.21,.49-1.38,.45-1.57-.4-3.32,.13-4.83,.57-1.25,.36-7.36,2.11-6.65,4.32,.08,.24,.4,.18,.46-.04,.38-1.41,2.71-2.73,5.19-3.5-.03,.1,0,.22,.11,.26,.32,.13,.65,.13,.99,.14,.41,.01,1.94-.14,1.25,.59-.22,.23,.06,.58,.34,.49,1.48-.49,2.31,3.05,1.63,3.95-.14,.18,.11,.39,.27,.23,.87-.88,.62-3.04-.29-4.16,.49,.35,.92,.81,1.26,1.3,.21,.29,.37,.63,.39,.99,.02,.26-.25,.38-.23,.64,0,.05,.04,.11,.09,.13,.02,0,.04,.01,.06,.02-.55,.46-.94,1.26-1.38,1.72-.1,.11,.03,.29,.17,.24,1.01-.41,1.31-1.95,2.61-1.55,.12,.04,.24-.04,.32-.12,.51-.48,.9-.35,1.47-.5,.1-.03,.13-.14,.11-.23-.28-1.11-1.73,.13-2.27,.08-.03,0-.07,0-.1,0,.18-.21,.38-.41,.59-.59,.23-.21,.54-.37,.62-.7,.04-.17-.1-.38-.28-.4-.06,0-.11,0-.17,.02,0,0,0-.02,0-.03,.08-.04,.16-.07,.25-.09,.17-.03,.34,.04,.52,.02,.05,0,.08-.04,.11-.08,.23,1.51,1.28,2.39,2.98,2.54,.3,.03,.39-.43,.09-.46-1.63-.16-2.75-1.07-2.56-2.83,.02-.2-.16-.4-.37-.31-1.4,.58-1.88-.81-1.85-1.95,.88-.28,1.67-.16,2.36,.39,.16,.09,.3,.06,.4-.03,1.62,.6,2.24,3.13,2.77,4.53,.05,.14,.27,.06,.22-.08-.68-2.04-1.27-3.86-3.02-5.21-.06-.05-.15-.07-.23-.07Zm-.87,3.1s.04,0,.06-.01c0,.03,0,.07,0,.1-.02-.04-.04-.06-.07-.09Zm-.91-.05c-.07,.03-.13,.06-.19,.09-.08,.05-.15,.11-.22,.17-.02,0-.03,.03-.05,.04,0,0,0,0,0,0,0,0-.01,.01-.02,.02-.02,.02-.04,.03-.05,.05-.03,.04-.06,.08-.09,.12-.38-.62-1.07-1.17-1.58-1.4-.15-.07-.28,.14-.15,.24,.41,.32,.77,.68,1.07,1.1,.15,.21,.23,.4,.27,.59-.03,.05-.06,.1-.09,.15-.02-.08-.05-.14-.07-.19-.41-.8-1.22-1.6-2.11-1.81-.07-.02-.12,.03-.12,.09-.24-.21-.52-.36-.82-.4,.38-1-1.59-1-2.65-.98,2.1-.58,4.22-.75,5.24-.24,.13,.06,.33,.06,.44-.04,0,0,.02,0,.03-.01-.09,1,.35,2.08,1.17,2.4Z"/>
      </g>
      <g>
        <path class="cls-1" d="M45.68,65.6c-9.58,.09-18.99-2.48-27.2-7.41l.24-.4c8.14,4.89,17.46,7.43,26.96,7.35v.47Z"/>
        <path class="cls-1" d="M19.18,58.61l-.58-.19c-7.14-2.3-13.57-6.9-18.1-12.97l-.5-.67,.78,.31c7.17,2.9,14.33,6.48,18.1,12.98l.3,.53ZM1.4,45.86c4.31,5.49,10.21,9.69,16.75,11.92-3.63-5.81-10.12-9.19-16.75-11.92Z"/>
        <path class="cls-1" d="M21.97,59.57l-.51,.17c-4.98,1.65-9.96,1.77-14.04,.33l-.72-.25,.74-.19c5.12-1.34,10.37-2.31,14.05-.31l.47,.26Zm-13.63,.3c3.68,1.1,8.04,.96,12.43-.4-3.32-1.5-7.89-.75-12.43,.4Z"/>
        <path class="cls-1" d="M37.49,64.91c-9.17-6.73-20.09-18.04-20.08-33.67,0-9.36,4.01-15.92,4.05-15.98l.4,.25c-.04,.06-3.98,6.53-3.98,15.76,0,15.43,10.81,26.61,19.89,33.27l-.28,.38Z"/>
        <path class="cls-1" d="M26.27,61.7l-.26-.04c-1.59-.24-3.04-1.18-4.59-2.95-2.06-2.35-3.58-5.19-4.41-8.22l-.18-.65,.54,.4c2.9,2.13,5.43,4.7,7.51,7.65,.76,1.07,1.45,2.25,1.39,3.55v.26Zm-8.62-10.67c.84,2.71,2.25,5.24,4.11,7.37,1.38,1.58,2.67,2.46,4.04,2.75-.04-1.06-.65-2.06-1.3-2.99-1.92-2.71-4.22-5.1-6.85-7.12Z"/>
        <path class="cls-1" d="M25.53,14.53c-1.3,.57-2.67,1.05-4.08,1.41l-.35,.09,.06-.35c.45-2.68,2.31-5.16,5.1-6.81,2.3-1.36,5.12-2.12,8.42-2.28l.47-.02-.26,.39c-2.21,3.24-5.44,5.86-9.35,7.58Zm-3.84,.86c1.26-.34,2.49-.77,3.65-1.29,3.67-1.62,6.72-4.04,8.87-7.02-3.01,.2-5.6,.93-7.72,2.18-2.51,1.48-4.28,3.75-4.8,6.13Z"/>
        <path class="cls-1" d="M21.36,16.27l-.34-.93c-.94-2.58-1.92-5.24-1.91-8.06,0-2.74,1-5.34,1.83-7.03l.12-.25,.23,.16c1.19,.87,1.94,2.41,2.04,4.21,.09,1.59-.29,3.21-.64,4.64-.48,2.01-.98,4.08-1.22,6.27l-.11,.99Zm-.13-15.55c-.78,1.65-1.65,4.05-1.66,6.56,0,2.41,.74,4.74,1.56,6.99,.27-1.86,.69-3.63,1.11-5.36,.35-1.48,.72-2.99,.63-4.51-.09-1.55-.68-2.88-1.63-3.69Z"/>
        <path class="cls-1" d="M28.63,57.09c-5.94-5.32-7.1-13.33-7.03-19.1h.47c-.07,5.69,1.06,13.55,6.88,18.76l-.31,.35Z"/>
        <path class="cls-1" d="M21.93,38.23l-.16-.11c-.73-.51-.99-1.54-.75-2.99,.14-.85,.37-1.58,.7-2.24,.36-.73,.87-1.41,1.37-2.07l.08-.1c.44-.58,.9-1.18,1.49-1.68l.19-.16,.15,.2c.34,.45,.47,1.08,.42,1.98-.13,2.4-1.44,5.16-3.34,7.03l-.14,.14Zm2.82-8.64c-.45,.42-.82,.91-1.21,1.42l-.06,.08c-.5,.67-1,1.33-1.34,2.02-.31,.61-.53,1.3-.66,2.1-.13,.81-.16,1.85,.41,2.4,1.74-1.79,2.94-4.35,3.06-6.58,.03-.63-.03-1.1-.2-1.45Z"/>
        <path class="cls-1" d="M23.52,48.95l-.2-.4c-.95-1.94-1.09-4.86-.38-7.62,.34-1.35,1.28-3.79,3.46-4.57l.26-.09,.05,.27c.62,3.48-.32,7.3-2.98,12.02l-.22,.39Zm2.78-12.04c-1.81,.8-2.59,2.94-2.9,4.14-.64,2.47-.57,5.05,.16,6.88,2.35-4.31,3.23-7.83,2.74-11.01Z"/>
        <path class="cls-1" d="M38.17,65.1l-.38-.36c-1.78-1.67-3.11-3.51-3.96-5.45-1-2.3-1.22-4.63-.62-6.58l.11-.37,.27,.28c2.02,2.04,4.38,4.8,4.68,8.15,.08,.85,.02,1.71-.03,2.54-.03,.42-.06,.85-.07,1.27v.52Zm-4.63-11.87c-.43,1.76-.18,3.83,.71,5.87,.76,1.75,1.93,3.41,3.48,4.94,.01-.26,.03-.51,.05-.77,.05-.81,.11-1.65,.04-2.47-.28-3.05-2.37-5.63-4.26-7.58Z"/>
        <path class="cls-1" d="M23.49,50.63c-5.15-6.66-7.39-13.22-8.36-17.56-1.05-4.7-.88-7.87-.88-7.91l.47,.03c0,.12-.6,12.54,9.15,25.15l-.37,.29Z"/>
        <path class="cls-1" d="M14.51,25.85l-.18-.18c-1.65-1.59-2.29-3.79-1.75-6.04,.5-2.07,1.94-3.85,3.85-4.77l.26-.12,.07,.27c.99,3.79,.21,7.76-2.08,10.64l-.16,.2Zm1.86-10.44c-1.66,.89-2.9,2.49-3.34,4.33-.48,2,.05,3.96,1.44,5.41,2.05-2.7,2.74-6.22,1.91-9.74Z"/>
        <path class="cls-1" d="M20.99,47.09s-2.96-3.91-7.87-6.27l.2-.42c5.03,2.41,8.02,6.37,8.05,6.41l-.37,.28Z"/>
        <path class="cls-1" d="M12.17,41.84c-.39,.17-.83,.28-1.27,.3-.85,.04-1.78-.18-2.76-.66-2.34-1.14-4.09-3.24-4.81-5.76l-.09-.31,.33,.02c3.72,.18,7.5,2.14,9.86,5.11l.11,.13-.09,.14c-.29,.44-.73,.8-1.26,1.03Zm-8.3-5.93c.74,2.25,2.35,4.11,4.47,5.15,.91,.45,1.77,.65,2.53,.62,.82-.04,1.62-.42,2.07-.99-2.22-2.71-5.65-4.51-9.07-4.78Z"/>
        <path class="cls-1" d="M20.46,46.06c-4.5-4.71-8.22-10.06-11.05-15.92l.42-.2c2.81,5.81,6.5,11.13,10.97,15.8l-.34,.32Z"/>
        <path class="cls-1" d="M20.78,45.14l-.44,.15c-2.35-7.22-1.41-15.4,2.52-21.9l.4,.24c-3.86,6.38-4.79,14.42-2.48,21.51Z"/>
        <path class="cls-1" d="M13.5,37.3c-.67-.4-1.52-.79-2.38-1.09l.16-.44c.89,.32,1.77,.72,2.46,1.13l-.24,.4Z"/>
        <path class="cls-1" d="M13.09,35.86l-.45,.14c-.25-.79,.01-1.67,.24-2.44,.04-.13,.08-.26,.11-.39l.45,.13c-.04,.13-.08,.26-.12,.4-.22,.74-.45,1.51-.24,2.17Z"/>
        <path class="cls-1" d="M11.32,32.9l-.47,.03c-.05-.71,.09-1.42,.41-2.06l.42,.21c-.28,.57-.4,1.2-.36,1.82Z"/>
        <path class="cls-1" d="M11.6,34.32c-.73-.28-1.43-.62-2.08-1.01l.24-.4c.63,.38,1.31,.7,2.01,.97l-.17,.44Z"/>
        <path class="cls-1" d="M10.24,31.44c-.53,.03-1.06-.06-1.55-.27l.18-.43c.42,.18,.88,.26,1.33,.23l.03,.47Z"/>
        <path class="cls-1" d="M9.2,30.81c-.31-.86-1.62-.4-1.32,.46,.31,.86,1.62,.4,1.32-.46Z"/>
        <path class="cls-1" d="M10.02,29.34c-.31-.86-1.62-.4-1.32,.46,.3,.87,1.62,.4,1.32-.46Z"/>
        <path class="cls-1" d="M10.21,32.91c-.31-.86-1.62-.4-1.32,.46,.31,.86,1.62,.4,1.32-.46Z"/>
        <path class="cls-1" d="M11.64,35.63c-.31-.86-1.62-.4-1.32,.46,.31,.86,1.62,.4,1.32-.46Z"/>
        <path class="cls-1" d="M13.91,33.06c-.31-.86-1.62-.4-1.32,.46,.31,.86,1.62,.4,1.32-.46Z"/>
        <path class="cls-1" d="M12.26,30.49c-.31-.86-1.62-.4-1.32,.46,.31,.86,1.62,.4,1.32-.46Z"/>
        <path class="cls-1" d="M23.79,23.48c-.31-.86-1.62-.4-1.32,.46,.31,.86,1.62,.4,1.32-.46Z"/>
        <path class="cls-1" d="M24.23,27.39c-.31-.86-1.62-.4-1.32,.46,.3,.86,1.62,.4,1.32-.46Z"/>
        <path class="cls-1" d="M20.9,23.97c-.31-.86-1.62-.4-1.32,.47,.3,.86,1.62,.4,1.32-.47Z"/>
        <path class="cls-1" d="M21.38,27.34l-.46,.06c-.13-1.01-.38-1.72-.86-2.84l.43-.18c.49,1.14,.76,1.91,.89,2.97Z"/>
        <path class="cls-1" d="M20.14,31.47l-.39-.26c1.11-1.65,1.47-2.13,3.18-3.45l.29,.37c-1.66,1.27-1.98,1.71-3.08,3.34Z"/>
      </g>
      <g>
        <path class="cls-1" d="M120.19,65.6c9.58,.09,18.99-2.48,27.2-7.41l-.24-.4c-8.14,4.89-17.46,7.43-26.96,7.35v.47Z"/>
        <path class="cls-1" d="M147,58.08c3.77-6.51,10.92-10.08,18.1-12.98l.78-.31-.5,.67c-4.53,6.07-10.96,10.67-18.1,12.97l-.58,.19,.3-.53Zm.73-.3c6.54-2.23,12.44-6.44,16.75-11.92-6.62,2.73-13.12,6.11-16.75,11.92Z"/>
        <path class="cls-1" d="M144.38,59.31c3.68-2,8.93-1.03,14.05,.31l.74,.19-.72,.25c-4.07,1.44-9.06,1.32-14.04-.33l-.51-.17,.47-.26Zm.73,.16c4.39,1.36,8.75,1.5,12.43,.4-4.54-1.15-9.11-1.9-12.43-.4Z"/>
        <path class="cls-1" d="M128.38,64.91c9.17-6.73,20.09-18.04,20.08-33.67,0-9.36-4.01-15.92-4.05-15.98l-.4,.25c.04,.06,3.98,6.53,3.98,15.76,0,15.43-10.81,26.61-19.89,33.27l.28,.38Z"/>
        <path class="cls-1" d="M139.59,61.44c-.07-1.31,.63-2.48,1.39-3.55,2.08-2.94,4.61-5.52,7.51-7.65l.54-.4-.18,.65c-.82,3.03-2.35,5.87-4.41,8.22-1.54,1.77-3,2.71-4.59,2.95l-.26,.04v-.26Zm1.76-3.28c-.66,.93-1.26,1.93-1.3,2.99,1.37-.29,2.66-1.17,4.04-2.75,1.86-2.12,3.27-4.66,4.11-7.37-2.63,2.02-4.93,4.41-6.85,7.12Z"/>
        <path class="cls-1" d="M131,6.95l-.26-.39,.47,.02c3.29,.15,6.12,.92,8.42,2.28,2.79,1.65,4.65,4.13,5.1,6.81l.06,.35-.35-.09c-1.41-.36-2.78-.83-4.08-1.41-3.91-1.72-7.14-4.34-9.35-7.58Zm8.38,2.31c-2.12-1.25-4.71-1.99-7.72-2.18,2.15,2.98,5.21,5.41,8.87,7.02,1.16,.51,2.39,.95,3.65,1.29-.53-2.38-2.3-4.65-4.8-6.13Z"/>
        <path class="cls-1" d="M144.4,15.28c-.25-2.19-.74-4.25-1.22-6.27-.34-1.43-.73-3.05-.64-4.64,.11-1.81,.85-3.34,2.04-4.21L144.81,0l.12,.25c.83,1.69,1.83,4.29,1.83,7.03,0,2.82-.97,5.48-1.91,8.06l-.34,.93-.11-.99Zm-1.39-10.88c-.09,1.53,.27,3.04,.63,4.51,.41,1.72,.84,3.49,1.11,5.36,.81-2.26,1.56-4.58,1.56-6.99,0-2.52-.88-4.92-1.66-6.56-.95,.81-1.54,2.14-1.63,3.69Z"/>
        <path class="cls-1" d="M137.24,57.09c5.94-5.32,7.1-13.33,7.03-19.1h-.47c.07,5.69-1.06,13.55-6.88,18.76l.31,.35Z"/>
        <path class="cls-1" d="M143.8,38.09c-1.9-1.87-3.21-4.63-3.34-7.03-.05-.89,.09-1.52,.42-1.98l.15-.2,.19,.16c.59,.5,1.04,1.1,1.49,1.68l.08,.1c.49,.66,1.01,1.34,1.37,2.07,.33,.66,.56,1.39,.7,2.24,.24,1.45-.02,2.48-.75,2.99l-.16,.11-.14-.14Zm-2.88-7.06c.12,2.23,1.31,4.78,3.06,6.58,.57-.55,.54-1.6,.41-2.4-.13-.8-.35-1.49-.66-2.1-.34-.69-.84-1.35-1.34-2.02l-.06-.08c-.39-.51-.76-1-1.21-1.42-.17,.35-.23,.82-.2,1.45Z"/>
        <path class="cls-1" d="M142.14,48.56c-2.65-4.72-3.6-8.54-2.98-12.02l.05-.27,.26,.09c2.18,.77,3.11,3.22,3.46,4.57,.71,2.77,.57,5.69-.38,7.62l-.2,.4-.22-.39Zm.18-.64c.73-1.83,.79-4.41,.16-6.88-.31-1.2-1.09-3.34-2.9-4.14-.49,3.19,.39,6.71,2.74,11.01Z"/>
        <path class="cls-1" d="M127.69,64.58c-.01-.42-.04-.85-.07-1.27-.05-.83-.11-1.69-.03-2.54,.31-3.35,2.66-6.11,4.68-8.15l.27-.28,.11,.37c.6,1.95,.38,4.29-.62,6.58-.85,1.94-2.18,3.78-3.96,5.45l-.38,.36v-.52Zm.35-3.77c-.07,.81-.02,1.65,.04,2.47,.02,.26,.03,.51,.05,.77,1.55-1.53,2.72-3.19,3.48-4.94,.89-2.04,1.13-4.11,.71-5.87-1.9,1.95-3.99,4.53-4.26,7.58Z"/>
        <path class="cls-1" d="M142.39,50.63c5.15-6.66,7.39-13.22,8.36-17.56,1.05-4.7,.88-7.87,.88-7.91l-.47,.03c0,.12,.6,12.54-9.15,25.15l.37,.29Z"/>
        <path class="cls-1" d="M151.21,25.64c-2.29-2.87-3.07-6.85-2.08-10.64l.07-.27,.26,.12c1.92,.92,3.36,2.7,3.85,4.77,.54,2.25-.1,4.45-1.75,6.04l-.18,.18-.16-.2Zm.2-.5c1.39-1.45,1.92-3.41,1.44-5.41-.44-1.84-1.68-3.44-3.34-4.33-.83,3.52-.15,7.04,1.91,9.74Z"/>
        <path class="cls-1" d="M144.88,47.09s2.96-3.91,7.87-6.27l-.2-.42c-5.03,2.41-8.02,6.37-8.05,6.41l.37,.28Z"/>
        <path class="cls-1" d="M152.44,40.81l-.09-.14,.11-.13c2.36-2.98,6.14-4.94,9.86-5.11l.33-.02-.09,.31c-.72,2.52-2.47,4.62-4.81,5.76-.99,.48-1.92,.71-2.76,.66-.44-.02-.88-.13-1.27-.3-.53-.24-.97-.59-1.26-1.03Zm.49-.12c.45,.57,1.25,.94,2.07,.99,.77,.04,1.62-.17,2.53-.62,2.12-1.04,3.73-2.9,4.47-5.15-3.42,.27-6.86,2.07-9.07,4.78Z"/>
        <path class="cls-1" d="M145.41,46.06c4.5-4.71,8.22-10.06,11.05-15.92l-.42-.2c-2.81,5.81-6.5,11.13-10.97,15.8l.34,.32Z"/>
        <path class="cls-1" d="M145.09,45.14l.44,.15c2.35-7.22,1.41-15.4-2.52-21.9l-.4,.24c3.86,6.38,4.79,14.42,2.48,21.51Z"/>
        <path class="cls-1" d="M152.37,37.3c.67-.4,1.52-.79,2.38-1.09l-.16-.44c-.89,.32-1.77,.72-2.46,1.13l.24,.4Z"/>
        <path class="cls-1" d="M152.78,35.86l.45,.14c.25-.79-.01-1.67-.24-2.44-.04-.13-.08-.26-.11-.39l-.45,.13c.04,.13,.08,.26,.12,.4,.22,.74,.45,1.51,.24,2.17Z"/>
        <path class="cls-1" d="M154.55,32.9l.47,.03c.05-.71-.09-1.42-.41-2.06l-.42,.21c.28,.57,.4,1.2,.36,1.82Z"/>
        <path class="cls-1" d="M154.27,34.32c.73-.28,1.43-.62,2.08-1.01l-.24-.4c-.63,.38-1.31,.7-2.01,.97l.17,.44Z"/>
        <path class="cls-1" d="M155.63,31.44c.53,.03,1.06-.06,1.55-.27l-.18-.43c-.42,.18-.88,.26-1.33,.23l-.03,.47Z"/>
        <path class="cls-1" d="M156.67,30.81c.31-.86,1.62-.4,1.32,.46-.31,.86-1.62,.4-1.32-.46Z"/>
        <path class="cls-1" d="M155.85,29.34c.31-.86,1.62-.4,1.32,.46-.3,.87-1.62,.4-1.32-.46Z"/>
        <path class="cls-1" d="M155.66,32.91c.31-.86,1.62-.4,1.32,.46-.31,.86-1.62,.4-1.32-.46Z"/>
        <path class="cls-1" d="M154.23,35.63c.31-.86,1.62-.4,1.32,.46-.31,.86-1.62,.4-1.32-.46Z"/>
        <path class="cls-1" d="M151.96,33.06c.31-.86,1.62-.4,1.32,.46-.31,.86-1.62,.4-1.32-.46Z"/>
        <path class="cls-1" d="M153.61,30.49c.31-.86,1.62-.4,1.32,.46-.31,.86-1.62,.4-1.32-.46Z"/>
        <path class="cls-1" d="M142.08,23.48c.31-.86,1.62-.4,1.32,.46-.31,.86-1.62,.4-1.32-.46Z"/>
        <path class="cls-1" d="M141.64,27.39c.31-.86,1.62-.4,1.32,.46-.3,.86-1.62,.4-1.32-.46Z"/>
        <path class="cls-1" d="M144.97,23.97c.31-.86,1.62-.4,1.32,.47-.3,.86-1.62,.4-1.32-.47Z"/>
        <path class="cls-1" d="M144.49,27.34l.46,.06c.13-1.01,.38-1.72,.86-2.84l-.43-.18c-.49,1.14-.76,1.91-.89,2.97Z"/>
        <path class="cls-1" d="M145.73,31.47l.39-.26c-1.11-1.65-1.47-2.13-3.18-3.45l-.29,.37c1.66,1.27,1.98,1.71,3.08,3.34Z"/>
      </g>
    </g>
  </g>
</svg>