<?xml version="1.0" encoding="UTF-8"?>
<svg id="Layer_2" data-name="Layer 2" xmlns="http://www.w3.org/2000/svg" viewBox="0 0 639.75 590.56">
  <defs>
    <style>
      .cls-1 {
        fill: #cecece;
      }
    </style>
  </defs>
  <g id="Layer_1-2" data-name="Layer 1">
    <g>
      <path class="cls-1" d="M311.76,267.94c-.44,.05-.9,.06-1.33,.15-1.43,.28-1.33,2.43,0,2.78,5.54,1.42,10.37,2.55,15.13,5.95,2.47,1.75,4.54,3.99,6.47,6.29,.27,.33,1.58,2,2.78,3.71-.58,.35-1,1.14-.53,1.76,.46,.6,.75,1.3,1,2.01-1.29,.61-2.3,1.66-3.57,2.74-2.06,1.77-4.29,3.06-6.94,3.7-3.66,.88-7.34-.91-9.92-3.38-5.75-5.48-6.34-14.43,.74-18.9,1.4-.88,.43-2.71-1.05-2.5-6.61,.96-9.1,5.96-9.12,11.5-5.24,8.68-7.27,19.43,2.07,26.04,3.93,2.78,9.79,3.35,14.4,2.5,.02,0,.04,0,.06-.02-.23,1.19-.37,2.4-.32,3.67,.23,5.91,4.36,10.74,9.52,13.24,5.22,2.52,11.27,2.98,16.62,.61,.82-.36,1.53-.82,2.19-1.32,.22,.15,.4,.36,.62,.5,5.16,3.27,11.03,.82,14.36-3.71,2.88-3.94,3.66-9.16,2.7-13.93,1.08,.5,2.17,.98,3.24,1.5,1.3,.64,3.04,.41,3.77-.99,4.8-9.15,5.68-19.6-4.51-25.14-1.58-.87-3.29-1.43-5.05-1.89,1.08-4.89-.77-9.99-4.32-13.54-3.92-3.93-9.76-5.33-14.81-2.83-1.42,.71-2.64,1.79-3.73,3.05-1.04-2.09-2.33-4.07-3.84-5.83-7.67-8.99-19.04-7.3-26.5,.81-.45,.48-.37,1.01-.14,1.46Zm12.45,37.67c-3.78,1.42-7.9,1.76-11.81,.77-9.09-2.31-9.26-11.02-6.48-18.18,.7,3.14,2.02,6.18,3.84,8.45,3.5,4.36,8.6,7.14,14.27,6.85,.7-.03,1.53-.17,2.4-.37-.53,.69-1.04,1.41-1.51,2.14-.24,.1-.47,.25-.72,.34Zm36.57,2.92c2.5,3.88,2.38,8.88,.35,12.71-1.72,3.25-4.73,5.55-8.25,3.83,0-.01-.02-.01-.02-.02,1.58-2.95,1.89-6.61,1.21-10.07-.74-3.76-3.78-12.58-8.42-12.6-.94,0-1.56,.61-1.87,1.42-.83,2.14,1.15,4.97,2.1,6.85,.84,1.68,1.58,3.34,2.08,5.15,.38,1.36,.5,2.49,.42,3.96-.02,.25-.1,.58-.19,.92-.59-.85-1.14-1.71-1.63-2.56-2.88-5-4.42-10.64-5.69-16.22-.41-1.79-3.08-1.02-2.74,.76,1.31,6.69,3.06,15.35,7.44,21.44-.61,.35-1.24,.68-1.96,.89-1.98,.58-4.59,.55-6.61,.17-4.47-.83-8.85-3.38-10.2-7.92-.61-2.06-.47-4.16,.08-6.23,4.46-1.51,9.02-4.11,10.1-8.29,.25-.96-.49-2.17-1.58-2.07-1.05,.1-2.04,.39-3.01,.77,.31-.36,.62-.69,.93-1.04,2.51-1.45,4.61-3.33,5.55-5.47,1.03,.12,2.02-.44,2.59-1.28,.72-1.08,.84-2.32,.7-3.59,.17-.18,.34-.37,.5-.59,.01,.01,.02,.02,.03,.03,2.87,1.49,6.09,.32,9.17,.08,1.91-.15,3.84-.14,5.75,0-2.92,3.19-7.46,5.08-11.63,6.3-.65,.07-1.27,.23-1.86,.51-.01,0-.02,0-.04,0-2.04-.37-3.6,2.41-1.48,3.52,5.76,3.02,11.74,5.55,17.69,8.14,.14,.2,.36,.33,.49,.53Zm10.09-1.68c-2.12-.94-4.26-1.84-6.42-2.67-2.7-3.49-6.7-6.07-11.01-7.4,3.52-1.53,6.75-3.63,9-6.52,.5,.1,1.03,.12,1.52,.25,8.97,2.25,9.85,9.16,6.91,16.35Zm-22.76-33.37c2.88-1.97,6.43-.98,9.05,1.4,2.57,2.33,3.75,5.71,3.19,9.05-1.63-.18-3.26-.3-4.85-.34-3.33-.06-8.09-.17-11.29,1.62,.34-1.93,.39-3.92,.34-5.29-.02-.42-.14-.82-.18-1.22,.77-1.98,1.99-4.02,3.74-5.22Zm-11.8-3.49c1.38,1.92,2.3,4.11,2.89,6.39-.7,1.6-1.25,3.29-1.56,5-1.93-2.29-4.01-4.28-5.32-5.53-4.59-4.4-11.3-7.83-17.88-8.02,7.06-6.77,16.04-5.97,21.86,2.17Z"/>
      <path class="cls-1" d="M311.09,255.13c.12-7.39-3.51-15.2-6.02-22.07-2.63-7.17-6-13.99-10.15-20.4-1.51-2.35-5.64-1.59-5.51,1.49,.34,7.54,2.96,14.74,5.94,21.61,2.22,5.13,5.55,8.87,8.25,13.43,.71,2.17,1.56,4.26,2.68,6.19-1.25-.43-2.53-.78-3.83-1.11-9.19-6.82-18.5-13.41-29-18.23-2.54-1.17-6.24,1.44-4.27,4.27,7.07,10.11,21.87,21.4,35.43,21.73,1.67,1.09,3.33,2.22,5.04,3.27,2.58,1.6,4.66-2.26,2.33-3.98-.36-.26-.72-.53-1.08-.8,.62-1.17,.42-2.83-.84-3.52-.04-.02-.07-.03-.1-.05,.62-.37,1.12-.93,1.13-1.84Z"/>
      <path class="cls-1" d="M241.14,295.36c12.94,1.36,30.32,.77,42.03-5.64,1.97-1.08,.88-3.71-1.06-3.89-11.34-1.08-22.57,2.64-34.08,3.02,6.47-6.81,14.97-11.01,24.09-13.36,5.91,1.71,13.27,.72,19.71-2.05,.48,.42,.97,.82,1.44,1.27,1.52,1.4,3.76-.82,2.28-2.28-.22-.22-.45-.41-.67-.62,1.91-1.94,.43-5.78-2.51-5.74-1.31,.02-2.63,.14-3.95,.2-7.21-5.37-15.16-8.73-24.75-9.67-1.43-.14-2.63,1.31-2.63,2.64,.01,5.06,1.39,8.82,3.64,11.53-10.48,3.73-19.87,9.88-26.44,19.56-1.56,2.31,.59,4.8,2.89,5.04Zm25.98-33.34c5.61,.47,10.66,2.14,15.34,4.73-3.51,.39-6.98,1-10.4,1.83-2.21-1.24-3.9-3.42-4.94-6.56Z"/>
      <path class="cls-1" d="M263.37,344.17c2.38-1.01,4.46-2.47,6.91-3.38,1.87-.69,1.45-3.11-.45-3.35-.4-.05-.76-.04-1.13-.06,6.14-8.67,11.11-17.92,14.64-28.08,1.14-3.27-3.36-5.61-5.64-3.29-7.51,7.63-15.98,18.65-27.31,19.64,1.06-15.48,18.57-21.23,30.41-28.31,1.38-.82,.48-3.02-1.09-2.59-16.45,4.54-36.45,14.4-35.51,34.15,.09,1.82,1.36,2.92,3.1,3.1,8.6,.9,15.72-3.08,22.05-8.41-3.14,5.48-6.73,10.72-10.68,15.87-2.39,3.11,2,5.87,4.71,4.72Z"/>
      <path class="cls-1" d="M322.87,210.77c-3.18,7.23-6.23,19.76-.72,26.56-.6,2.5-1.23,4.98-1.52,7.56-.31,2.65,3.37,3.07,4.61,1.25,6.29-9.33,4.5-24.32,2.46-34.74-.42-2.14-3.91-2.71-4.83-.63Z"/>
      <path class="cls-1" d="M357.07,211.01c-15.52,5.76-26.89,21.51-28.3,37.97-.09,1.09,.84,2.16,1.85,2.43,5.25,1.39,5.99-1.76,8.66-5.45,1.43-1.97-1.79-4.43-3.36-2.59-.14,.17-.39,.53-.69,.95,.81-2.54,1.82-5.01,2.94-7.43,1.5,3.4,7.4,2.76,10.49,1.05,8.04-4.46,12.49-15.02,12.51-23.79,0-1.98-2.11-3.89-4.12-3.14Zm-16.77,21.78c3.25-5.64,7.55-10.53,13.37-13.51-1.9,6.64-6.39,13.08-13.37,13.51Z"/>
      <path class="cls-1" d="M381.69,219.28c-9.7,3.69-23.29,11.9-25.67,23.03-.45,2.09,2.33,3.46,3.53,1.62-.11,.7-.07,1.4,.33,2.1,.51,.88,1.69,1.19,2.58,.67,.29-.18,.47-.44,.67-.69t.01,.02c-.26,.48-.61,.69-.78,.77,.09-.04,.26-.09,.57-.14,1.19-.21,2.05-.22,3.02-1.06,2.3-1.99,4.61-4,6.84-6.07,5.08-4.69,10.14-9.86,12.8-16.33,.9-2.17-1.78-4.72-3.9-3.91Zm-16.04,17.58c-.64,.57-1.66,1.35-2.68,2.24,2.57-3.14,5.69-5.88,9.12-8.17-2.1,2.09-4.31,4.06-6.45,5.93Z"/>
      <path class="cls-1" d="M362.36,246.8c-.11,.03-.1,.04,0,0h0Z"/>
      <path class="cls-1" d="M392.85,223.15c-.88-1.81-3.28-1.39-4.26,0-7.61,10.84-12.46,22.85-13.77,36.08-.16,1.54,1.85,1.89,2.69,.9,.25,.24,.57,.38,.92,.4,.79,.04,1.54-.1,2.26-.34-.27,.49-.61,.97-.8,1.48-.49,1.28,.53,2.93,1.83,3.22,.25,.05,.48,.03,.73,.02-.01,.02-.03,.05-.04,.07,2.72-.04,7.42-6.5,9.78-8.89,.69-.71,1.41-1.39,2.11-2.1-1.39,2.37-3.06,4.6-5.04,6.6-1.74,1.75-3.73,3.16-5.88,4.35-.8,.45-1.67,.77-2.49,1.17-.42,.2-2.26,2.32-1.4,1.66-1.14,.87-1.4,2.58,0,3.4,5.38,3.18,10.75-1.98,14.57-5.78,6.02-5.99,9.88-14.05,10.09-22.55,.07-2.79-3.52-4.21-5.43-2.25-2.66,2.7-5.29,5.43-7.92,8.16,4.72-7.93,6.21-17.12,2.05-25.6Zm-9.6,25.77c-1.1,1.59-2.52,3.05-3.72,4.61,2.33-8.29,5.16-16.31,9.99-23.44,.71,6.73-2.28,13.04-6.27,18.83Z"/>
      <path class="cls-1" d="M381.79,306.97c3.93,1.16,8.48,2.28,13.16,3.59,11.44,10.55,25.39,18.76,34.01,32.23,1.72,2.7,5.77,1.58,5.9-1.6,.91-20.51-21.84-35.54-41.84-38.94-3.39-3.34-6.53-6.92-9.05-11.09-1.13-1.87-3.84-.23-2.91,1.7,1.54,3.16,3.43,5.98,5.48,8.66-1.38-.06-2.72-.05-4.03,.02-3.08,.18-3.8,4.51-.73,5.42Zm44.57,22.91c-5.47-5.47-11.69-10.18-17.94-14.83,7.82,3.27,14.61,7.82,17.94,14.83Z"/>
      <path class="cls-1" d="M378.53,324.21c-.67-2.83-4.84-1.61-4.3,1.19,1.03,5.42,2.67,10.6,4.61,15.67-1.93-1.91-5.65-1.33-5.84,1.82-.25-.74-.52-1.49-.77-2.24-.85-2.5-4.69-1.49-3.99,1.11,3.8,13.89,8.29,27.67,10.89,41.8-4.28-12.5-6.49-25.8-12.09-37.94-1.25-2.71-5.6-1.91-6.26,.82,0,.04,0,.07-.02,.12-.13-1.1-.24-2.2-.38-3.3-.38-3.12-4.57-3.18-4.9,0-1.69,16.69,1.5,33.87,5.34,50.07,.89,3.72,6.7,2.89,6.63-.9-.2-10.2-1.76-20.39-1.61-30.53,4.43,14.51,6.88,29.56,15.85,42.45,1.78,2.56,6.33,1.86,6.21-1.68-.56-17.17-5.7-33.2-11.24-49.19,0,0,0,0,0,0,5.43,13.5,11.81,26.38,22.01,37.15,2.34,2.47,6.07-.12,5.41-3.14-4.14-18.85-15.41-34.79-22.15-52.57,.14-.23,.3-.45,.41-.68,5.77,14.45,13.26,28.16,27.51,35.92,1.42,.77,3.58,.15,3.93-1.6,3.75-19.35-13.65-36.64-29.87-44.07-.64-.3-1.35-.4-2-.27-.88-1.63-3.68-.87-2.99,1.03,.21,.57,.43,1.14,.64,1.7-.04,.11-.09,.22-.13,.33-.29-1.02-.65-2.01-.9-3.05Zm30.45,39.05c-11.47-7.6-18.65-19.59-24.12-32.11,11.69,6.47,24.23,18.46,24.12,32.11Zm-25.59-11.38c2.37,5.24,4.81,10.43,7.1,15.69-2.65-5.05-4.96-10.31-7.1-15.69Z"/>
      <path class="cls-1" d="M333.57,346.83c-5.42,18.74-3.08,44.74-18.55,58.69-.46-5.29,.4-9.86,2.01-14.16,2.63-3.57,4.54-7.64,5.95-11.93,1.22-2.13,2.47-4.3,3.71-6.6,.66-1.23-.34-2.64-1.56-2.62,1-7.11,.75-14.44-.56-21.23-.33-1.71-2.97-1.26-2.97,.41-.04,8.33-.43,17.36-2.73,25.51-4.18,4.32-6.95,9.73-8.47,15.57-1.3,1.36-2.73,2.64-4.35,3.78-5.17-15.69,8.52-30.43,15.06-43.64,1.15-2.33-1.96-5.18-3.82-2.94-1.07,1.1-2.12,2.31-3.16,3.56-.62,.69-1.23,1.42-1.87,2.1,.48-.81,.96-1.61,1.38-2.45,1.61-3.21-.08-7.7-3.57-4.29-.35,.34-.35,.83-.16,1.23-.03,.05-.05,.06-.08,.12-.91,1.15-1.79,2.32-2.69,3.47-1.74,2.24-3.49,4.47-5.2,6.74-4.02,5.36-8.58,10.69-11.47,16.77-1.21,2.55,2.2,4.58,3.79,2.22,3.48-5.15,7.33-9.43,11.48-13.4-6.09,11.56-9.05,25.1-3.6,36.29,.7,1.44,2.68,1.78,3.98,1.04,1.08-.61,1.95-1.4,2.93-2.11-.24,4.28,.07,8.59,1.01,12.67,.4,1.74,2.74,2.76,4.25,1.73,21.73-14.89,17.14-42.99,22.91-65.51,.61-2.38-2.98-3.36-3.66-1.01Z"/>
      <path class="cls-1" d="M347.55,360.75c.99-1.31-.34-3.45-1.91-3.32-14.71,1.17-9.46,35.42-7.16,44.04,.59,2.16,3.72,3.24,5.29,1.39,13.27-15.57,10.33-39.66,5.39-57.97-.52-1.93-3.35-1.11-2.97,.82,2.99,14.68,5.14,33.7-2.89,47.3-1.66-10.74-1.78-24.22,4.24-32.25Z"/>
      <path class="cls-1" d="M300.16,352.57c.32,.13,.68,.18,1.04-.06,4.68-3.06,7.91-5.43,3.96-10.75,0-.01-.02-.02-.02-.03,.45-1.38,.92-2.75,1.24-4.16,.51-2.24-2.71-3.12-3.43-.94-.45,1.38-1.02,2.71-1.58,4.05-.29,.13-.57,.25-.84,.48-5.8,5.12-13.45,13.67-18.89,23.09-2.16,1.36-4.46,2.47-6.82,3.45,.89-12.59,10.81-21.42,20.99-28.23,2.46-1.63,.92-6.29-2.13-5.04-3.15,1.28-6.15,3.13-8.95,5.27,1.02-2.24,1.76-4.18,1.98-4.67,1.3-2.97,2.5-5.93,3.35-9.04,.52-1.9-1.15-4.36-3.03-2.43-.31,.32-.44,.7-.45,1.09-.09,.17-.19,.57-.32,.82-.43,.85-.97,1.68-1.43,2.53-1.27,2.32-2.52,4.64-3.8,6.94-1.22,2.24-2.5,4.43-3.76,6.64-.48,.85-1.09,1.69-1.26,2.67-.31,1.84-.19,1.58,.22,1.03-.07,.13-.16,.22-.23,.37-.28,.65,.09,1.35,.48,1.84,.08,.1,.16,.14,.24,.22-5.39,7.01-8.64,15.58-7.76,24.22,.19,1.77,1.72,3.42,3.67,2.8,1.68-.54,3.29-1.24,4.88-1.95-3.36,8.7-4.01,17.5,1.1,24.59,1.25,1.73,4.14,.1,2.9-1.7-5.04-7.31-1.68-17.82,4.18-27.56,5.83-4.1,10.74-9.42,14.45-15.53Z"/>
      <path class="cls-1" d="M569.46,419.06c3.06-31-8.38-55.61-31.36-76.18-15.21-13.63-34.2-22.83-52.82-30.73-8.48-3.6-17.07-5.61-25.57-7.7,27.89-3.11,55.74-7.88,79.6-22.88,24.05-15.13,36.89-44.43,47.32-69.55,9.2-22.13,19.28-52.81,3.85-74.32-13.74-19.13-51.23,38.4-52.47-13.33-.17-7.19-.21-14.7-.92-21.85,.67,.26,1.47,.19,2.2-.52,12.91-12.53,14.61-25.51,10.2-37.57,16.02,1.92,16.42,12.85,23.78,25.4,8.99,15.34,26.3,24.86,36.92,39.08,40.94,54.88-19.6,117.24-60.86,147.08-1.43,1.03-.22,3.13,1.38,2.36,49.16-23.4,85.68-81,73-135.71-6.69-28.88-37.73-40.85-50.16-66.27-3.78-7.73-6.75-13.93-13.94-18.72-5.67-3.78-13.12,6.68-12.57-9.46,.07-2.12-3.11-2.08-3.26,0-.17,2.23-.32,3.69-.41,4.75-8.84-12.71-23.3-23.73-36.25-31.07-18.24-10.35-43.44-27.07-65.9-20.3-9.52,2.87-17.87,5.48-24.75,12.98-1.79,1.96-14.15,24.47-18.08,17.77-1.7-2.92-10.37-22.91-14.56-23.63-12.46-2.12-22.25,6.77-29.49,15.86-6.57,8.25-11.78,18.49-15.72,29.68C315.32,13.55,268.71-.05,220.51,2.29c-24.08,1.17-36.7-2.24-51.92,17.58-19.79,25.76-22.88,15.31-41.55,27.34-6.55,4.22-5.98,14.53-6.1,20.95,0,.1,.08,.14,.09,.23-7.52,3.34-14.4,7.71-19.73,14.88-17.42,23.47-23.55,52.38-1.91,75.94,16.9,18.41-1.37,31.91-2.45,48.41-.81,12.27,1.66,22.48,7.27,33.42,9.19,17.89,26.55,29.34,46.69,36.37-19.45,2.38-36.09,10.09-43.21,27.24-7.46,17.96-8.02,35.37-19.76,50.98-.16-.06-.27-.2-.46-.2-38.51-.93-76.27-6.16-75.35-56.31,.04-2.14,.01-3.91-.08-5.53,.42,.05,.86-.04,1.12-.47,16.21-26.29,67.06-5.83,91.47-10.36,.99-.18,.95-1.74,0-1.94-17.84-3.99-38.31-3.79-56.48-3.42-11.48,.23-30.65,1.14-36.37,13.19-.59-4.5-1.94-7.91-4.52-14.14-2.93-7.12,7.22-12.49,6.45-19.24-1.04-9.21-2.97-15.51-6.59-24.17-7.77-18.54,8.57-36.3,15.33-51.81,11.74-26.89,21.81-37.36,51.77-43.33,2.45-.49,1.84-4.33-.58-4.29-24.95,.43-40.55,9.96-51.27,32.27-12.82,26.67-30.55,46.56-18.16,76,7.17,17.06-7.12,26.21-.49,42.7,7,17.42,.63,33.69,10.27,51.09,14.55,26.27,45.12,26.73,71.17,23.38-.37,.41-.7,.82-1.07,1.23-9.09,9.77-17.55,18.36-23.8,30.24-9.39,17.87-.96,37.96,14.54,48.25,16.57,11,36.23,5.26,44.35,30.64,3.11,9.72,6.19,18.04,12.58,26.27,4.97,6.42,17.79,9.09,24.56,12.94,11.43,6.51,23.42,16.9,37.07,18.36,22.44,2.42,44.98-11.22,63.13-31.08-.11,.16-.23,.32-.3,.53-8.37,25.21-6.24,56.47,6.96,79.61,7.11,12.47,28.17,22.72,34.33,5.15,9.28-26.46,20.04-7.87,34.94-4.45,13.57,3.12,27.93,3.21,41.73,2.44,17.89-1,47.47-6.69,45.54-30-.16-1.97-3.17-2.65-3.63-.49-6.41,29.93-48.63,25.36-71.41,22.27-11.44-1.56-19-4.08-27.86-12.94-1.38-1.38-3.85-3.29-6.01-2.51-6.88,2.46-11.76,6.79-16.62,12.12-6.26,6.88-1.1,26.46-21.74,8.19-17.94-15.89-18.92-57.22-12.59-78.39,.6-1.98-1.82-2.94-3.07-1.85,22.68-24.96,38.43-59.62,38.39-84.71,0-1.98-3.19-2.54-3.54-.48-4.37,25.9-16.7,47.86-31.25,69.31-23.54,34.68-54.76,51.9-93.66,27.77-19.19-11.9-35.32-15.43-41.06-39.87-3.26-13.87-12.2-20.88-24.67-26.32-7.46-3.25-15.16-5.16-22.56-8.73-31.24-15.03-7.14-47.14,6.33-60.88,12.87-13.12,20.22-22.01,24.13-40.19,7.81-36.4,30.06-45.39,64.05-46.12,20.53-.45,41.62,2.73,61.51,7.58,2.55,.62,3.52-3.05,1.08-3.89-2.47-.85-5.22-1.74-8.18-2.62,4.26-.26,8.41-.6,12.25-1.06,2.6-.31,2.65-4.43,0-4.13-8.93,1.01-18.25,1.38-27.67,1.1-12.51-2.89-26.82-5.23-40.87-5.73-18.68-4.93-36.23-13.14-50.38-25.44-10.53-9.16-15.81-21.93-17.56-35.49-1.46-11.19,9.44-21.02,13.46-30.54,4.2-9.93-1.19-18.87-7.55-25.86-23.67-26.03-17.33-52.79,2.29-77.24,10.22-12.73,24.83-9.01,37.97-13.24,9.76-3.14,7.43-1.2,13.51-8.09,19.21-21.78,36.42-22.11,61.65-14.8,55.43,16.07,105.31,72.63,117.27,128.86-1.55,10.8-1.1,21.24,1.93,30.7,.82,2.53,4.64,1.49,3.99-1.1-1.24-4.9-1.71-9.84-1.64-14.76,.72-.11,1.37-.58,1.4-1.58,.07-3.21-.07-6.4-.31-9.56,3.65-20.27,15.57-39.9,26.36-56.24,8.04-12.17,17.78-23.06,28.28-33.12,16.78-16.09,33.65-18.49,52.71-7.03,15.03,9.03,32.19-.53,46.64-5.73,44.37-15.98,22.91,58.83,37.77,73.69,2.87,2.87,6.05,4.15,9.33,4.39,6.47,58.92-39.54,100.45-89.28,121.91-.99,.43-.28,2,.72,1.71,54.17-15.85,96.87-65.98,92.29-123.8,4.14-.6,8.27-2.48,11.96-4.7,10.85-6.53,23.15-15.78,28.66,3.68,4.44,15.7-3.01,35.55-8.07,50.36-10.64,31.14-27.15,60.68-55.46,78.5-24.55,15.45-54.87,14.19-83.11,18.57-4.39-1.41-8.73-3.08-12.97-5.27,.55-.16,1.09-.28,1.65-.45,2.2-.73,2.93-3.37,1.34-5.08-5.84-6.26-13.58-10.22-21.86-12.12,9.09-1.71,18.26-6.02,20.63-15.66,.45-1.82-.91-4.04-2.97-3.89-15.84,1.1-29.7,7.69-44.18,13.39-.11-.02-.23-.03-.33-.06-.96-.17-1.89,.33-2.36,1.09-.94,.36-1.87,.73-2.82,1.07-1.37,.5-1.63,1.8-1.17,2.76-2.97-.42-5,4.04-1.98,6.04,14.04,8.52,30.46,16.07,47,14.27,3.1,2.4,6.17,4.33,9.32,5.94-2.86,.64-5.7,1.34-8.48,2.19-1.57,.48-1.35,3.18,.4,2.98,5.37-.61,10.8-1.17,16.25-1.71,4.01,1.39,8.29,2.52,13.09,3.6,22.49,5.08,42.21,13.29,61.92,25.25,25.33,15.37,43.2,37.76,46.85,67.58,4.35,35.57-19.19,65.43-53.28,70-12.22,1.63-22.81,5.76-33.83,10.97-6.08,2.88-21.38-2.24-28.34,3.77-16.55,14.28-14.91,61.75-42.93,36-1.87-1.72-4.89-1.47-6.21,.8-11.59,19.81-35.3,24.55-48.38,1.23-6.42-11.45-9.1-25.76-11.81-38.51-5.02-23.69-4.92-48.8-5.44-72.9-.05-2.14-3.27-2.14-3.31,0-.71,36.65-3.34,81.27,14.69,114.85,6.54,12.16,21.38,33.85,38.66,23.93,3.77-2.16,20.6-19.72,22.15-18.26,5.4,5.03,11.78,8.71,19.2,8.01,13.57-1.3,16.44-27.71,19.26-36.95,5.21-17,16.99-9.48,27.3-14.08,20.73-9.27,38.87-12.42,60.4-17.6,21.6-5.21,34.17-35.01,36.11-54.77ZM234.34,44.58c-15.97-7.22-51.07-15.31-65.65,.29-12.05,12.9-28.8,16-43.71,21.86,4.1-23.35,28.29-18.46,42.45-31.23,.24-.21,10-17.53,9.76-17.83,9.26-11.49,30.3-8.62,43.32-9.65,51.67-4.08,89.14,13.82,115.76,53.53-6.34,21.53-8.28,45.53-6.34,65.24-21.65-36.52-60.02-66.13-95.59-82.22Zm272.68,23.18c-20.29-1.79-30.57,18.94-53.13,5.58-7.88-4.67-16.83-10.58-26.56-7.41-33.59,10.95-71.23,54.29-82.86,95.99-2.47-10.29-6.42-20.27-11.54-29.81,.21-.21,.35-.53,.3-.95-2.46-21.14,1.27-42.78,7.09-63.3,1.98,3.26,3.91,6.63,5.76,10.14,.68,1.29,2.73,.4,2.32-.98-1.67-5.66-3.8-10.85-6.12-15.78,.49-1.61,.97-3.22,1.49-4.82,2.77-8.54,6.58-16.23,10.98-23.97,.62-1.09,24.53-31.24,27.91-12.81,1.3,7.12,7.12,12.74,10.69,18.83,3.53,6.02,14.29,.37,17.2-3.51,24.98-33.23,51.8-30.48,84.4-12.84,25.04,13.55,70.72,38.3,41.62,76.17-2.29-15.7-8.91-28.72-29.56-30.55Zm-123.83,209.74c1.2-.22,2.38-.55,3.57-.84,1.16,.85,2.59,1.39,4.14,1.81-.53,.9-.38,2.2,.33,2.95-2.76-1.1-5.46-2.34-8.03-3.91Zm43.1-12.81c-5.4,6.28-16.84,8.03-26.82,7.92,8.78-3.28,17.44-6.87,26.82-7.92Zm-20.04,23.78c-.08-.07-.08-.17-.17-.24-4.25-2.81-8.93-4.49-13.55-6.29,.09,0,.16,.04,.25,.02,11.93-1.41,25.05,.9,34.61,8.33-.81,.13-1.62,.23-2.43,.31-.7-.42-1.45-.33-2.02,.09-5.64,.25-11.24-.55-16.68-2.22Z"/>
      <path class="cls-1" d="M300.35,160.79c.45,.82,1.89,.25,1.54-.64-17.53-44.18-79.02-110.17-130.37-77.42-1.01,.64-.09,2.25,.95,1.62,51.68-31.84,106.07,36.4,127.89,76.45Z"/>
      <path class="cls-1" d="M242.15,480.24c25.27-21.2,47.53-50.82,50.02-84.74,.17-2.38-3.52-2.36-3.7,0-2.15,28.92-19.65,53.86-39.7,73.67-23.32,23.04-49.24,31.08-81.09,26.67-1.2-.17-2.05,1.36-.87,2.06,23.93,14.29,56.34-1.71,75.35-17.66Z"/>
      <path class="cls-1" d="M148.57,470.6c38.95,14.77,89.86-15.06,114.92-43.54,1-1.13-.64-2.8-1.66-1.66-27.97,31.03-71.66,47.69-112.89,42.47-1.67-.22-1.72,2.22-.37,2.73Z"/>
      <path class="cls-1" d="M85.12,410.63c-.25,1.06,1.33,1.5,1.62,.45,9.29-32.91,53.48-34.23,78.04-50.13,.84-.55,.31-2.1-.73-1.71-27.04,10.31-71.34,18.33-78.93,51.39Z"/>
      <path class="cls-1" d="M132.65,359.67c13.38-7.47,28.05-8.91,42.66-12.42,1.08-.26,.82-1.86-.25-1.89-15.37-.36-30.64,4.08-43.65,12.2-1.34,.83-.15,2.88,1.23,2.11Z"/>
      <path class="cls-1" d="M212.35,367c10.42-6.43,20.4-13.36,31.05-19.44,1.62-.92,.16-3.41-1.45-2.49-10.46,6-22.22,11.77-30.59,20.65-.62,.66,.18,1.78,.99,1.28Z"/>
      <path class="cls-1" d="M152.62,156.69c-.73-.85-1.92,.37-1.23,1.22,21.16,25.64,48.6,47.06,78.52,61.66,1.1,.53,1.93-.92,.95-1.62-27.06-19.19-56.34-35.81-78.24-61.27Z"/>
      <path class="cls-1" d="M233.96,208.69c-12.35-8.05-24.32-15.85-35.03-26.09-1.07-1.03-2.68,.56-1.63,1.63,10.3,10.43,22.08,20.86,35.9,26.26,1.09,.42,1.65-1.22,.76-1.8Z"/>
      <path class="cls-1" d="M408.11,246.7c12.04-33.91,31.98-57.25,56.63-82.5,.84-.87-.25-2.36-1.32-1.69-28.93,18.06-46.71,52.36-57.31,83.64-.43,1.27,1.55,1.79,2,.55Z"/>
      <path class="cls-1" d="M423.78,182.56c-12.19,4.89-18.44,18.08-22.85,29.62-.76,1.97,2.4,2.81,3.14,.87,4.57-11.9,10.9-20.77,20.57-29.01,.66-.56-.04-1.82-.86-1.49Z"/>
      <path class="cls-1" d="M384.78,439.85c-3.65-7.16-5.71-15.31-7.39-23.12-.29-1.35-2.25-.76-2.04,.56,2.56,15.9,6.41,35.36,21.98,43.7,1.16,.63,2.12-.78,1.34-1.73-5.17-6.3-10.17-12.11-13.89-19.41Z"/>
      <path class="cls-1" d="M443.21,370.72c26.8,14.89,39.8,38.64,44.38,68.07,.15,.98,1.76,.95,1.94,0,5.66-30.05-20-58.12-44.75-70.77-1.78-.91-3.34,1.71-1.57,2.7Z"/>
      <path class="cls-1" d="M478.88,391.37c8.79,11.92,11.99,25.54,14.72,39.77,.26,1.33,2.2,.94,2.26-.3,1.48-31.39-21.6-52.6-43.24-71.62-1.27-1.12-3.1,.66-1.87,1.87,9.87,9.63,19.93,19.16,28.13,30.28Z"/>
      <path class="cls-1" d="M298.03,438.53c-.65,28.36-9.45,65.19,14.39,87,1.12,1.03,2.87-.27,2.11-1.63-8.12-14.49-12.8-26.5-13.98-43.24-.97-13.96,.42-28.17,.49-42.14,.01-1.96-2.98-1.95-3.02,0Z"/>
      <path class="cls-1" d="M315.57,491.01c1.76,6.47,4.6,12.76,8.06,18.49,.33,.54,1.3,.18,1.05-.45-2.5-6.19-5.65-12.03-7.36-18.53-.29-1.14-2.06-.66-1.75,.49Z"/>
      <path class="cls-1" d="M635.3,408.93c-5.24-9.74,2.4-24.35-2.59-36.35-5.23-12.55-16.97-23.34-27.52-31.35-26.29-19.93-62.47-40.9-96.65-40.9-1.82,0-1.82,2.8,0,2.84,34.51,.64,146.01,52.39,116.97,98.32-11.84,18.73,36.87,37.54-11.14,52.92-8.36,2.68-15.06,3.6-21.97,9.4-7.48,6.25-12.86,16.78-17.91,24.84-18.57,29.6-54.57,14.64-78.79,3.53-1.91-.88-4.06,1.43-2.36,3.05,25.18,24.17,67.19,26.81,87.46-2.89,8.29-12.16,13.96-24.06,28.71-29.57,9.69-3.61,13.45-3.02,21.49-9.36,11.41-9,10.35-33.2,4.31-44.47Z"/>
      <path class="cls-1" d="M582.74,392.42c.16,1.43,2.04,1.41,2.21,0,4.55-38.64-40.7-54.47-67.86-69.09-1.94-1.04-3.65,1.88-1.73,2.94,29.26,16.2,63.35,28.33,67.38,66.15Z"/>
      <path class="cls-1" d="M460.28,34.83c-4.92,2.74-7.2,10.65-9.36,15.5-1.85,4.14-4.32,8.6-4.6,13.22-.04,.69,.82,.92,1.27,.52,3.36-2.92,5.13-7.65,7.15-11.51,2.52-4.83,7.36-11.06,7.38-16.67,0-.95-1.04-1.51-1.84-1.06Z"/>
      <path class="cls-1" d="M603.15,175.06c7.88-7.42,8.78-19.16,5.76-29.08-.78-2.57-4.8-1.49-4.03,1.11,2.81,9.41,.68,17.92-3.65,26.48-.62,1.23,.89,2.46,1.92,1.49Z"/>
      <path class="cls-1" d="M288.24,32.65c-2.06-1.5-4,1.91-1.99,3.4,5.31,3.94,10.01,8.41,14.33,13.4,4.48,5.18,7.48,11.36,11.8,16.63,.92,1.12,2.66-.09,2.33-1.36-3.51-12.95-16.01-24.46-26.47-32.07Z"/>
      <path class="cls-1" d="M26,221.69c-2.17,.04-2.16,3.28,0,3.36,20.65,.78,38.58,5.64,58.02,11.95,1.61,.53,2.27-1.67,1.07-2.54-16.06-11.74-39.91-13.09-59.1-12.77Z"/>
      <path class="cls-1" d="M72.1,272.53c14.65,1.63,28.42,3.84,42.75,7.19,1.17,.27,1.85-1.29,.82-1.93-12.47-7.71-29.45-6.93-43.56-8.29-1.95-.19-1.91,2.81,0,3.03Z"/>
    </g>
  </g>
</svg>