<?xml version="1.0" encoding="UTF-8"?>
<svg id="Layer_2" data-name="Layer 2" xmlns="http://www.w3.org/2000/svg" viewBox="0 0 78.31 72.29">
  <defs>
    <style>
      .cls-1 {
        fill: #fff;
      }
    </style>
  </defs>
  <g id="Layer_1-2" data-name="Layer 1">
    <g>
      <path class="cls-1" d="M38.16,32.8c-.05,0-.11,0-.16,.02-.17,.03-.16,.3,0,.34,.68,.17,1.27,.31,1.85,.73,.3,.21,.56,.49,.79,.77,.03,.04,.19,.24,.34,.45-.07,.04-.12,.14-.06,.22,.06,.07,.09,.16,.12,.25-.16,.07-.28,.2-.44,.34-.25,.22-.52,.37-.85,.45-.45,.11-.9-.11-1.21-.41-.7-.67-.78-1.77,.09-2.31,.17-.11,.05-.33-.13-.31-.81,.12-1.11,.73-1.12,1.41-.64,1.06-.89,2.38,.25,3.19,.48,.34,1.2,.41,1.76,.31,0,0,0,0,0,0-.03,.15-.05,.29-.04,.45,.03,.72,.53,1.31,1.17,1.62,.64,.31,1.38,.37,2.03,.07,.1-.04,.19-.1,.27-.16,.03,.02,.05,.04,.08,.06,.63,.4,1.35,.1,1.76-.45,.35-.48,.45-1.12,.33-1.71,.13,.06,.27,.12,.4,.18,.16,.08,.37,.05,.46-.12,.59-1.12,.69-2.4-.55-3.08-.19-.11-.4-.18-.62-.23,.13-.6-.09-1.22-.53-1.66-.48-.48-1.19-.65-1.81-.35-.17,.09-.32,.22-.46,.37-.13-.26-.29-.5-.47-.71-.94-1.1-2.33-.89-3.24,.1-.05,.06-.05,.12-.02,.18Zm1.52,4.61c-.46,.17-.97,.22-1.45,.09-1.11-.28-1.13-1.35-.79-2.23,.09,.38,.25,.76,.47,1.03,.43,.53,1.05,.87,1.75,.84,.09,0,.19-.02,.29-.05-.07,.08-.13,.17-.18,.26-.03,.01-.06,.03-.09,.04Zm4.48,.36c.31,.48,.29,1.09,.04,1.56-.21,.4-.58,.68-1.01,.47,0,0,0,0,0,0,.19-.36,.23-.81,.15-1.23-.09-.46-.46-1.54-1.03-1.54-.11,0-.19,.07-.23,.17-.1,.26,.14,.61,.26,.84,.1,.21,.19,.41,.25,.63,.05,.17,.06,.3,.05,.48,0,.03-.01,.07-.02,.11-.07-.1-.14-.21-.2-.31-.35-.61-.54-1.3-.7-1.99-.05-.22-.38-.12-.33,.09,.16,.82,.37,1.88,.91,2.62-.07,.04-.15,.08-.24,.11-.24,.07-.56,.07-.81,.02-.55-.1-1.08-.41-1.25-.97-.07-.25-.06-.51,.01-.76,.55-.18,1.1-.5,1.24-1.01,.03-.12-.06-.27-.19-.25-.13,.01-.25,.05-.37,.09,.04-.04,.08-.08,.11-.13,.31-.18,.56-.41,.68-.67,.13,.01,.25-.05,.32-.16,.09-.13,.1-.28,.09-.44,.02-.02,.04-.05,.06-.07,0,0,0,0,0,0,.35,.18,.75,.04,1.12,0,.23-.02,.47-.02,.7,0-.36,.39-.91,.62-1.42,.77-.08,0-.16,.03-.23,.06,0,0,0,0,0,0-.25-.05-.44,.3-.18,.43,.71,.37,1.44,.68,2.17,1,.02,.02,.04,.04,.06,.06Zm1.24-.21c-.26-.12-.52-.22-.79-.33-.33-.43-.82-.74-1.35-.91,.43-.19,.83-.44,1.1-.8,.06,.01,.13,.02,.19,.03,1.1,.28,1.21,1.12,.85,2Zm-2.79-4.09c.35-.24,.79-.12,1.11,.17,.31,.28,.46,.7,.39,1.11-.2-.02-.4-.04-.59-.04-.41,0-.99-.02-1.38,.2,.04-.24,.05-.48,.04-.65,0-.05-.02-.1-.02-.15,.09-.24,.24-.49,.46-.64Zm-1.44-.43c.17,.23,.28,.5,.35,.78-.09,.2-.15,.4-.19,.61-.24-.28-.49-.52-.65-.68-.56-.54-1.38-.96-2.19-.98,.86-.83,1.96-.73,2.68,.27Z"/>
      <path class="cls-1" d="M38.08,31.23c.01-.91-.43-1.86-.74-2.7-.32-.88-.73-1.71-1.24-2.5-.19-.29-.69-.19-.67,.18,.04,.92,.36,1.8,.73,2.64,.27,.63,.68,1.09,1.01,1.64,.09,.27,.19,.52,.33,.76-.15-.05-.31-.1-.47-.14-1.13-.83-2.26-1.64-3.55-2.23-.31-.14-.76,.18-.52,.52,.86,1.24,2.68,2.62,4.34,2.66,.2,.13,.41,.27,.62,.4,.32,.2,.57-.28,.29-.49-.04-.03-.09-.07-.13-.1,.08-.14,.05-.35-.1-.43,0,0,0,0-.01,0,.08-.05,.14-.11,.14-.22Z"/>
      <path class="cls-1" d="M29.52,36.15c1.58,.17,3.71,.09,5.15-.69,.24-.13,.11-.45-.13-.48-1.39-.13-2.76,.32-4.17,.37,.79-.83,1.83-1.35,2.95-1.64,.72,.21,1.62,.09,2.41-.25,.06,.05,.12,.1,.18,.15,.19,.17,.46-.1,.28-.28-.03-.03-.06-.05-.08-.08,.23-.24,.05-.71-.31-.7-.16,0-.32,.02-.48,.02-.88-.66-1.86-1.07-3.03-1.18-.17-.02-.32,.16-.32,.32,0,.62,.17,1.08,.45,1.41-1.28,.46-2.43,1.21-3.24,2.39-.19,.28,.07,.59,.35,.62Zm3.18-4.08c.69,.06,1.31,.26,1.88,.58-.43,.05-.85,.12-1.27,.22-.27-.15-.48-.42-.6-.8Z"/>
      <path class="cls-1" d="M32.24,42.13c.29-.12,.55-.3,.85-.41,.23-.08,.18-.38-.06-.41-.05,0-.09,0-.14,0,.75-1.06,1.36-2.19,1.79-3.44,.14-.4-.41-.69-.69-.4-.92,.93-1.96,2.28-3.34,2.4,.13-1.89,2.27-2.6,3.72-3.47,.17-.1,.06-.37-.13-.32-2.01,.56-4.46,1.76-4.35,4.18,.01,.22,.17,.36,.38,.38,1.05,.11,1.92-.38,2.7-1.03-.38,.67-.82,1.31-1.31,1.94-.29,.38,.25,.72,.58,.58Z"/>
      <path class="cls-1" d="M39.52,25.8c-.39,.89-.76,2.42-.09,3.25-.07,.31-.15,.61-.19,.93-.04,.32,.41,.38,.56,.15,.77-1.14,.55-2.98,.3-4.25-.05-.26-.48-.33-.59-.08Z"/>
      <path class="cls-1" d="M43.71,25.83c-1.9,.71-3.29,2.63-3.46,4.65-.01,.13,.1,.26,.23,.3,.64,.17,.73-.22,1.06-.67,.17-.24-.22-.54-.41-.32-.02,.02-.05,.06-.08,.12,.1-.31,.22-.61,.36-.91,.18,.42,.91,.34,1.28,.13,.98-.55,1.53-1.84,1.53-2.91,0-.24-.26-.48-.5-.38Zm-2.05,2.67c.4-.69,.92-1.29,1.64-1.65-.23,.81-.78,1.6-1.64,1.65Z"/>
      <path class="cls-1" d="M46.72,26.84c-1.19,.45-2.85,1.46-3.14,2.82-.05,.26,.29,.42,.43,.2-.01,.09,0,.17,.04,.26,.06,.11,.21,.15,.32,.08,.04-.02,.06-.05,.08-.08t0,0c-.03,.06-.08,.08-.1,.09,.01,0,.03-.01,.07-.02,.15-.03,.25-.03,.37-.13,.28-.24,.56-.49,.84-.74,.62-.57,1.24-1.21,1.57-2,.11-.27-.22-.58-.48-.48Zm-1.96,2.15c-.08,.07-.2,.16-.33,.27,.31-.38,.7-.72,1.12-1-.26,.26-.53,.5-.79,.73Z"/>
      <path class="cls-1" d="M44.35,30.21s-.01,0,0,0h0Z"/>
      <path class="cls-1" d="M48.09,27.31c-.11-.22-.4-.17-.52,0-.93,1.33-1.53,2.8-1.69,4.42-.02,.19,.23,.23,.33,.11,.03,.03,.07,.05,.11,.05,.1,0,.19-.01,.28-.04-.03,.06-.07,.12-.1,.18-.06,.16,.06,.36,.22,.39,.03,0,.06,0,.09,0,0,0,0,0,0,0,.33,0,.91-.8,1.2-1.09,.08-.09,.17-.17,.26-.26-.17,.29-.37,.56-.62,.81-.21,.21-.46,.39-.72,.53-.1,.05-.2,.09-.3,.14-.05,.02-.28,.28-.17,.2-.14,.11-.17,.32,0,.42,.66,.39,1.32-.24,1.78-.71,.74-.73,1.21-1.72,1.24-2.76,0-.34-.43-.51-.66-.28-.33,.33-.65,.66-.97,1,.58-.97,.76-2.1,.25-3.13Zm-1.18,3.15c-.13,.19-.31,.37-.46,.56,.28-1.01,.63-2,1.22-2.87,.09,.82-.28,1.6-.77,2.3Z"/>
      <path class="cls-1" d="M46.73,37.57c.48,.14,1.04,.28,1.61,.44,1.4,1.29,3.11,2.3,4.16,3.94,.21,.33,.71,.19,.72-.2,.11-2.51-2.67-4.35-5.12-4.77-.41-.41-.8-.85-1.11-1.36-.14-.23-.47-.03-.36,.21,.19,.39,.42,.73,.67,1.06-.17,0-.33,0-.49,0-.38,.02-.47,.55-.09,.66Zm5.46,2.8c-.67-.67-1.43-1.25-2.2-1.82,.96,.4,1.79,.96,2.2,1.82Z"/>
      <path class="cls-1" d="M46.33,39.68c-.08-.35-.59-.2-.53,.15,.13,.66,.33,1.3,.56,1.92-.24-.23-.69-.16-.71,.22-.03-.09-.06-.18-.09-.27-.1-.31-.57-.18-.49,.14,.46,1.7,1.01,3.39,1.33,5.12-.52-1.53-.79-3.16-1.48-4.64-.15-.33-.69-.23-.77,.1,0,0,0,0,0,.01-.02-.13-.03-.27-.05-.4-.05-.38-.56-.39-.6,0-.21,2.04,.18,4.15,.65,6.13,.11,.45,.82,.35,.81-.11-.02-1.25-.22-2.5-.2-3.74,.54,1.78,.84,3.62,1.94,5.2,.22,.31,.77,.23,.76-.21-.07-2.1-.7-4.06-1.38-6.02,0,0,0,0,0,0,.66,1.65,1.45,3.23,2.69,4.55,.29,.3,.74-.02,.66-.38-.51-2.31-1.89-4.26-2.71-6.43,.02-.03,.04-.06,.05-.08,.71,1.77,1.62,3.45,3.37,4.4,.17,.09,.44,.02,.48-.2,.46-2.37-1.67-4.48-3.66-5.39-.08-.04-.17-.05-.25-.03-.11-.2-.45-.11-.37,.13,.03,.07,.05,.14,.08,.21,0,.01-.01,.03-.02,.04-.04-.12-.08-.25-.11-.37Zm3.73,4.78c-1.4-.93-2.28-2.4-2.95-3.93,1.43,.79,2.97,2.26,2.95,3.93Zm-3.13-1.39c.29,.64,.59,1.28,.87,1.92-.32-.62-.61-1.26-.87-1.92Z"/>
      <path class="cls-1" d="M40.83,42.45c-.66,2.29-.38,5.48-2.27,7.18-.06-.65,.05-1.21,.25-1.73,.32-.44,.56-.94,.73-1.46,.15-.26,.3-.53,.45-.81,.08-.15-.04-.32-.19-.32,.12-.87,.09-1.77-.07-2.6-.04-.21-.36-.15-.36,.05,0,1.02-.05,2.13-.33,3.12-.51,.53-.85,1.19-1.04,1.91-.16,.17-.33,.32-.53,.46-.63-1.92,1.04-3.72,1.84-5.34,.14-.29-.24-.63-.47-.36-.13,.14-.26,.28-.39,.44-.08,.08-.15,.17-.23,.26,.06-.1,.12-.2,.17-.3,.2-.39-.01-.94-.44-.52-.04,.04-.04,.1-.02,.15,0,0,0,0,0,.01-.11,.14-.22,.28-.33,.42-.21,.27-.43,.55-.64,.82-.49,.66-1.05,1.31-1.4,2.05-.15,.31,.27,.56,.46,.27,.43-.63,.9-1.15,1.41-1.64-.75,1.41-1.11,3.07-.44,4.44,.09,.18,.33,.22,.49,.13,.13-.07,.24-.17,.36-.26-.03,.52,0,1.05,.12,1.55,.05,.21,.33,.34,.52,.21,2.66-1.82,2.1-5.26,2.8-8.02,.07-.29-.36-.41-.45-.12Z"/>
      <path class="cls-1" d="M42.54,44.16c.12-.16-.04-.42-.23-.41-1.8,.14-1.16,4.34-.88,5.39,.07,.26,.46,.4,.65,.17,1.62-1.91,1.26-4.85,.66-7.1-.06-.24-.41-.14-.36,.1,.37,1.8,.63,4.12-.35,5.79-.2-1.31-.22-2.96,.52-3.95Z"/>
      <path class="cls-1" d="M36.74,43.16s.08,.02,.13,0c.57-.37,.97-.66,.48-1.32,0,0,0,0,0,0,.05-.17,.11-.34,.15-.51,.06-.27-.33-.38-.42-.12-.05,.17-.12,.33-.19,.5-.03,.02-.07,.03-.1,.06-.71,.63-1.65,1.67-2.31,2.83-.26,.17-.55,.3-.83,.42,.11-1.54,1.32-2.62,2.57-3.46,.3-.2,.11-.77-.26-.62-.39,.16-.75,.38-1.1,.65,.12-.27,.22-.51,.24-.57,.16-.36,.31-.73,.41-1.11,.06-.23-.14-.53-.37-.3-.04,.04-.05,.09-.06,.13-.01,.02-.02,.07-.04,.1-.05,.1-.12,.21-.18,.31-.16,.28-.31,.57-.46,.85-.15,.27-.31,.54-.46,.81-.06,.1-.13,.21-.15,.33-.04,.22-.02,.19,.03,.13,0,.02-.02,.03-.03,.05-.03,.08,.01,.17,.06,.23,0,.01,.02,.02,.03,.03-.66,.86-1.06,1.91-.95,2.97,.02,.22,.21,.42,.45,.34,.21-.07,.4-.15,.6-.24-.41,1.06-.49,2.14,.13,3.01,.15,.21,.51,.01,.36-.21-.62-.9-.21-2.18,.51-3.37,.71-.5,1.32-1.15,1.77-1.9Z"/>
      <path class="cls-1" d="M69.7,51.3c.37-3.79-1.03-6.81-3.84-9.32-1.86-1.67-4.19-2.8-6.46-3.76-1.04-.44-2.09-.69-3.13-.94,3.41-.38,6.82-.96,9.74-2.8,2.94-1.85,4.52-5.44,5.79-8.51,1.13-2.71,2.36-6.46,.47-9.1-1.68-2.34-6.27,4.7-6.42-1.63-.02-.88-.03-1.8-.11-2.67,.08,.03,.18,.02,.27-.06,1.58-1.53,1.79-3.12,1.25-4.6,1.96,.24,2.01,1.57,2.91,3.11,1.1,1.88,3.22,3.04,4.52,4.78,5.01,6.72-2.4,14.35-7.45,18-.17,.13-.03,.38,.17,.29,6.02-2.86,10.49-9.92,8.94-16.61-.82-3.54-4.62-5-6.14-8.11-.46-.95-.83-1.7-1.71-2.29-.69-.46-1.61,.82-1.54-1.16,0-.26-.38-.25-.4,0-.02,.27-.04,.45-.05,.58-1.08-1.56-2.85-2.9-4.44-3.8-2.23-1.27-5.32-3.31-8.07-2.49-1.17,.35-2.19,.67-3.03,1.59-.22,.24-1.73,3-2.21,2.17-.21-.36-1.27-2.8-1.78-2.89-1.52-.26-2.72,.83-3.61,1.94-.8,1.01-1.44,2.26-1.92,3.63C38.6,1.66,32.89,0,26.99,.28c-2.95,.14-4.49-.27-6.35,2.15-2.42,3.15-2.8,1.87-5.09,3.35-.8,.52-.73,1.78-.75,2.56,0,.01,0,.02,.01,.03-.92,.41-1.76,.94-2.41,1.82-2.13,2.87-2.88,6.41-.23,9.29,2.07,2.25-.17,3.91-.3,5.93-.1,1.5,.2,2.75,.89,4.09,1.12,2.19,3.25,3.59,5.71,4.45-2.38,.29-4.42,1.24-5.29,3.33-.91,2.2-.98,4.33-2.42,6.24-.02,0-.03-.02-.06-.02-4.71-.11-9.34-.75-9.22-6.89,0-.26,0-.48,0-.68,.05,0,.1,0,.14-.06,1.98-3.22,8.21-.71,11.2-1.27,.12-.02,.12-.21,0-.24-2.18-.49-4.69-.46-6.91-.42-1.41,.03-3.75,.14-4.45,1.61-.07-.55-.24-.97-.55-1.73-.36-.87,.88-1.53,.79-2.36-.13-1.13-.36-1.9-.81-2.96-.95-2.27,1.05-4.44,1.88-6.34,1.44-3.29,2.67-4.57,6.34-5.3,.3-.06,.23-.53-.07-.52-3.05,.05-4.96,1.22-6.28,3.95-1.57,3.26-3.74,5.7-2.22,9.3,.88,2.09-.87,3.21-.06,5.23,.86,2.13,.08,4.12,1.26,6.25,1.78,3.22,5.52,3.27,8.71,2.86-.05,.05-.09,.1-.13,.15-1.11,1.2-2.15,2.25-2.91,3.7-1.15,2.19-.12,4.65,1.78,5.91,2.03,1.35,4.43,.64,5.43,3.75,.38,1.19,.76,2.21,1.54,3.22,.61,.79,2.18,1.11,3.01,1.58,1.4,.8,2.87,2.07,4.54,2.25,2.75,.3,5.51-1.37,7.73-3.8-.01,.02-.03,.04-.04,.07-1.03,3.09-.76,6.91,.85,9.74,.87,1.53,3.45,2.78,4.2,.63,1.14-3.24,2.45-.96,4.28-.55,1.66,.38,3.42,.39,5.11,.3,2.19-.12,5.81-.82,5.57-3.67-.02-.24-.39-.32-.44-.06-.78,3.66-5.95,3.1-8.74,2.73-1.4-.19-2.33-.5-3.41-1.58-.17-.17-.47-.4-.74-.31-.84,.3-1.44,.83-2.03,1.48-.77,.84-.13,3.24-2.66,1-2.2-1.95-2.32-7-1.54-9.59,.07-.24-.22-.36-.38-.23,2.78-3.06,4.7-7.3,4.7-10.37,0-.24-.39-.31-.43-.06-.53,3.17-2.04,5.86-3.83,8.48-2.88,4.24-6.7,6.35-11.46,3.4-2.35-1.46-4.32-1.89-5.03-4.88-.4-1.7-1.49-2.56-3.02-3.22-.91-.4-1.86-.63-2.76-1.07-3.82-1.84-.87-5.77,.78-7.45,1.57-1.61,2.48-2.69,2.95-4.92,.96-4.46,3.68-5.56,7.84-5.65,2.51-.06,5.09,.33,7.53,.93,.31,.08,.43-.37,.13-.48-.3-.1-.64-.21-1-.32,.52-.03,1.03-.07,1.5-.13,.32-.04,.32-.54,0-.51-1.09,.12-2.23,.17-3.39,.14-1.53-.35-3.28-.64-5-.7-2.29-.6-4.44-1.61-6.17-3.11-1.29-1.12-1.93-2.68-2.15-4.34-.18-1.37,1.16-2.57,1.65-3.74,.51-1.22-.15-2.31-.92-3.16-2.9-3.19-2.12-6.46,.28-9.45,1.25-1.56,3.04-1.1,4.65-1.62,1.19-.38,.91-.15,1.65-.99,2.35-2.67,4.46-2.71,7.55-1.81,6.79,1.97,12.89,8.89,14.35,15.77-.19,1.32-.14,2.6,.24,3.76,.1,.31,.57,.18,.49-.13-.15-.6-.21-1.2-.2-1.81,.09-.01,.17-.07,.17-.19,0-.39,0-.78-.04-1.17,.45-2.48,1.91-4.88,3.23-6.88,.98-1.49,2.18-2.82,3.46-4.05,2.05-1.97,4.12-2.26,6.45-.86,1.84,1.11,3.94-.06,5.71-.7,5.43-1.96,2.8,7.2,4.62,9.02,.35,.35,.74,.51,1.14,.54,.79,7.21-4.84,12.3-10.93,14.92-.12,.05-.03,.25,.09,.21,6.63-1.94,11.86-8.08,11.3-15.15,.51-.07,1.01-.3,1.46-.58,1.33-.8,2.83-1.93,3.51,.45,.54,1.92-.37,4.35-.99,6.16-1.3,3.81-3.32,7.43-6.79,9.61-3,1.89-6.72,1.74-10.17,2.27-.54-.17-1.07-.38-1.59-.65,.07-.02,.13-.03,.2-.06,.27-.09,.36-.41,.16-.62-.71-.77-1.66-1.25-2.68-1.48,1.11-.21,2.23-.74,2.52-1.92,.06-.22-.11-.49-.36-.48-1.94,.13-3.64,.94-5.41,1.64-.01,0-.03,0-.04,0-.12-.02-.23,.04-.29,.13-.11,.04-.23,.09-.35,.13-.17,.06-.2,.22-.14,.34-.36-.05-.61,.49-.24,.74,1.72,1.04,3.73,1.97,5.75,1.75,.38,.29,.75,.53,1.14,.73-.35,.08-.7,.16-1.04,.27-.19,.06-.17,.39,.05,.36,.66-.08,1.32-.14,1.99-.21,.49,.17,1.01,.31,1.6,.44,2.75,.62,5.17,1.63,7.58,3.09,3.1,1.88,5.29,4.62,5.74,8.27,.53,4.35-2.35,8.01-6.52,8.57-1.5,.2-2.79,.71-4.14,1.34-.74,.35-2.62-.27-3.47,.46-2.03,1.75-1.83,7.56-5.26,4.41-.23-.21-.6-.18-.76,.1-1.42,2.42-4.32,3-5.92,.15-.79-1.4-1.11-3.15-1.45-4.71-.61-2.9-.6-5.97-.67-8.92,0-.26-.4-.26-.41,0-.09,4.49-.41,9.95,1.8,14.06,.8,1.49,2.62,4.14,4.73,2.93,.46-.26,2.52-2.41,2.71-2.23,.66,.62,1.44,1.07,2.35,.98,1.66-.16,2.01-3.39,2.36-4.52,.64-2.08,2.08-1.16,3.34-1.72,2.54-1.14,4.76-1.52,7.39-2.15,2.64-.64,4.18-4.29,4.42-6.7ZM28.68,5.46c-1.95-.88-6.25-1.87-8.04,.04-1.48,1.58-3.53,1.96-5.35,2.68,.5-2.86,3.46-2.26,5.2-3.82,.03-.03,1.22-2.15,1.19-2.18,1.13-1.41,3.71-1.05,5.3-1.18,6.32-.5,10.91,1.69,14.17,6.55-.78,2.63-1.01,5.57-.78,7.99-2.65-4.47-7.35-8.09-11.7-10.06Zm33.38,2.84c-2.48-.22-3.74,2.32-6.5,.68-.96-.57-2.06-1.29-3.25-.91-4.11,1.34-8.72,6.65-10.14,11.75-.3-1.26-.79-2.48-1.41-3.65,.03-.03,.04-.06,.04-.12-.3-2.59,.15-5.24,.87-7.75,.24,.4,.48,.81,.71,1.24,.08,.16,.33,.05,.28-.12-.2-.69-.46-1.33-.75-1.93,.06-.2,.12-.39,.18-.59,.34-1.05,.81-1.99,1.34-2.93,.08-.13,3-3.82,3.42-1.57,.16,.87,.87,1.56,1.31,2.3,.43,.74,1.75,.05,2.11-.43,3.06-4.07,6.34-3.73,10.33-1.57,3.06,1.66,8.66,4.69,5.1,9.32-.28-1.92-1.09-3.52-3.62-3.74Zm-15.16,25.67c.15-.03,.29-.07,.44-.1,.14,.1,.32,.17,.51,.22-.06,.11-.05,.27,.04,.36-.34-.13-.67-.29-.98-.48Zm5.28-1.57c-.66,.77-2.06,.98-3.28,.97,1.08-.4,2.13-.84,3.28-.97Zm-2.45,2.91s0-.02-.02-.03c-.52-.34-1.09-.55-1.66-.77,.01,0,.02,0,.03,0,1.46-.17,3.07,.11,4.24,1.02-.1,.02-.2,.03-.3,.04-.09-.05-.18-.04-.25,.01-.69,.03-1.38-.07-2.04-.27Z"/>
      <path class="cls-1" d="M36.76,19.68c.06,.1,.23,.03,.19-.08-2.15-5.41-9.67-13.49-15.96-9.48-.12,.08-.01,.28,.12,.2,6.33-3.9,12.98,4.46,15.65,9.36Z"/>
      <path class="cls-1" d="M29.64,58.78c3.09-2.6,5.82-6.22,6.12-10.37,.02-.29-.43-.29-.45,0-.26,3.54-2.41,6.59-4.86,9.02-2.85,2.82-6.03,3.8-9.93,3.26-.15-.02-.25,.17-.11,.25,2.93,1.75,6.9-.21,9.22-2.16Z"/>
      <path class="cls-1" d="M18.19,57.6c4.77,1.81,11-1.84,14.07-5.33,.12-.14-.08-.34-.2-.2-3.42,3.8-8.77,5.84-13.82,5.2-.2-.03-.21,.27-.05,.33Z"/>
      <path class="cls-1" d="M10.42,50.26c-.03,.13,.16,.18,.2,.05,1.14-4.03,6.55-4.19,9.55-6.14,.1-.07,.04-.26-.09-.21-3.31,1.26-8.73,2.24-9.66,6.29Z"/>
      <path class="cls-1" d="M16.24,44.02c1.64-.91,3.43-1.09,5.22-1.52,.13-.03,.1-.23-.03-.23-1.88-.04-3.75,.5-5.34,1.49-.16,.1-.02,.35,.15,.26Z"/>
      <path class="cls-1" d="M25.99,44.92c1.28-.79,2.5-1.64,3.8-2.38,.2-.11,.02-.42-.18-.3-1.28,.73-2.72,1.44-3.74,2.53-.08,.08,.02,.22,.12,.16Z"/>
      <path class="cls-1" d="M18.68,19.18c-.09-.1-.23,.05-.15,.15,2.59,3.14,5.95,5.76,9.61,7.55,.13,.07,.24-.11,.12-.2-3.31-2.35-6.9-4.38-9.58-7.5Z"/>
      <path class="cls-1" d="M28.64,25.54c-1.51-.98-2.98-1.94-4.29-3.19-.13-.13-.33,.07-.2,.2,1.26,1.28,2.7,2.55,4.39,3.21,.13,.05,.2-.15,.09-.22Z"/>
      <path class="cls-1" d="M49.95,30.2c1.47-4.15,3.91-7.01,6.93-10.1,.1-.11-.03-.29-.16-.21-3.54,2.21-5.72,6.41-7.02,10.24-.05,.15,.19,.22,.24,.07Z"/>
      <path class="cls-1" d="M51.87,22.35c-1.49,.6-2.26,2.21-2.8,3.63-.09,.24,.29,.34,.38,.11,.56-1.46,1.33-2.54,2.52-3.55,.08-.07,0-.22-.11-.18Z"/>
      <path class="cls-1" d="M47.1,53.84c-.45-.88-.7-1.87-.9-2.83-.03-.16-.28-.09-.25,.07,.31,1.95,.78,4.33,2.69,5.35,.14,.08,.26-.1,.16-.21-.63-.77-1.24-1.48-1.7-2.38Z"/>
      <path class="cls-1" d="M54.25,45.38c3.28,1.82,4.87,4.73,5.43,8.33,.02,.12,.22,.12,.24,0,.69-3.68-2.45-7.11-5.48-8.66-.22-.11-.41,.21-.19,.33Z"/>
      <path class="cls-1" d="M58.62,47.9c1.08,1.46,1.47,3.13,1.8,4.87,.03,.16,.27,.12,.28-.04,.18-3.84-2.64-6.44-5.29-8.77-.16-.14-.38,.08-.23,.23,1.21,1.18,2.44,2.34,3.44,3.71Z"/>
      <path class="cls-1" d="M36.48,53.68c-.08,3.47-1.16,7.98,1.76,10.65,.14,.13,.35-.03,.26-.2-.99-1.77-1.57-3.24-1.71-5.29-.12-1.71,.05-3.45,.06-5.16,0-.24-.36-.24-.37,0Z"/>
      <path class="cls-1" d="M38.63,60.1c.22,.79,.56,1.56,.99,2.26,.04,.07,.16,.02,.13-.05-.31-.76-.69-1.47-.9-2.27-.04-.14-.25-.08-.21,.06Z"/>
      <path class="cls-1" d="M77.76,50.05c-.64-1.19,.29-2.98-.32-4.45-.64-1.54-2.08-2.86-3.37-3.84-3.22-2.44-7.65-5.01-11.83-5.01-.22,0-.22,.34,0,.35,4.22,.08,17.87,6.41,14.32,12.03-1.45,2.29,4.51,4.59-1.36,6.48-1.02,.33-1.84,.44-2.69,1.15-.92,.77-1.57,2.05-2.19,3.04-2.27,3.62-6.68,1.79-9.64,.43-.23-.11-.5,.17-.29,.37,3.08,2.96,8.22,3.28,10.71-.35,1.02-1.49,1.71-2.95,3.51-3.62,1.19-.44,1.65-.37,2.63-1.15,1.4-1.1,1.27-4.06,.53-5.44Z"/>
      <path class="cls-1" d="M71.33,48.03c.02,.18,.25,.17,.27,0,.56-4.73-4.98-6.67-8.31-8.46-.24-.13-.45,.23-.21,.36,3.58,1.98,7.75,3.47,8.25,8.1Z"/>
      <path class="cls-1" d="M56.34,4.26c-.6,.34-.88,1.3-1.15,1.9-.23,.51-.53,1.05-.56,1.62,0,.08,.1,.11,.16,.06,.41-.36,.63-.94,.87-1.41,.31-.59,.9-1.35,.9-2.04,0-.12-.13-.18-.23-.13Z"/>
      <path class="cls-1" d="M73.83,21.43c.96-.91,1.07-2.35,.71-3.56-.1-.31-.59-.18-.49,.14,.34,1.15,.08,2.19-.45,3.24-.08,.15,.11,.3,.23,.18Z"/>
      <path class="cls-1" d="M35.28,4c-.25-.18-.49,.23-.24,.42,.65,.48,1.23,1.03,1.75,1.64,.55,.63,.92,1.39,1.44,2.04,.11,.14,.33-.01,.28-.17-.43-1.59-1.96-2.99-3.24-3.93Z"/>
      <path class="cls-1" d="M3.18,27.14c-.27,0-.26,.4,0,.41,2.53,.1,4.72,.69,7.1,1.46,.2,.06,.28-.2,.13-.31-1.97-1.44-4.89-1.6-7.23-1.56Z"/>
      <path class="cls-1" d="M8.83,33.36c1.79,.2,3.48,.47,5.23,.88,.14,.03,.23-.16,.1-.24-1.53-.94-3.6-.85-5.33-1.01-.24-.02-.23,.34,0,.37Z"/>
    </g>
  </g>
</svg>