<?xml version="1.0" encoding="UTF-8"?>
<svg id="Layer_2" data-name="Layer 2" xmlns="http://www.w3.org/2000/svg" viewBox="0 0 44.25 117.94">
  <defs>
    <style>
      .cls-1 {
        fill: #fff;
      }
    </style>
  </defs>
  <g id="Layer_1-2" data-name="Layer 1">
    <path class="cls-1" d="M42.59,26.21c.8-.54,1.29-1.41,1.51-2.33,.23-.97,.18-2-.02-2.97-.18-.88-.51-1.74-.99-2.5-.26-.42-.58-.81-.94-1.15-.18-.17-.37-.32-.57-.46-.21-.15-.43-.31-.68-.36-.07-.01-.13,.02-.16,.06,0-.07,0-.14,0-.2-.1-1.21-.55-2.57-1.57-3.32-.55-.4-1.21-.55-1.88-.6-.65-.05-1.3-.04-1.95-.03-.68,.02-1.37,.08-2.03,.26-.6,.16-1.25,.42-1.69,.88-.36-.19-.73-.36-1.11-.49-.66-.23-1.4-.38-2.09-.19-.66,.18-1.14,.7-1.5,1.26-.4,.62-.7,1.3-.94,2-.55,1.61-.7,3.37-.41,5.05,.01,.08,.07,.12,.13,.14-.87,.77-1.59,1.78-1.91,2.9-.18,.62-.2,1.27-.04,1.89,.14,.51,.39,.98,.67,1.43,.56,.89,1.3,1.73,1.54,2.78,.13,.56,.05,1.17,.27,1.71,.22,.53,.69,.85,1.25,.94,.56,.1,1.14,0,1.68-.12,.02,0,.03,0,.05-.01-.15,.33-.28,.68-.42,1.02-.18,.44-.36,.88-.54,1.32-.36,.9-.73,1.79-1.1,2.69-.74,1.79-1.49,3.57-2.26,5.35-.3,.69-.61,1.37-.91,2.06,.27-2.48,.39-4.98,.35-7.47-.05-2.83-.29-5.67-.72-8.47-.41-2.69-1.01-5.35-1.77-7.96,.36-1.35,.74-2.69,1.18-4.01,.44-1.34,.96-2.66,1.5-3.96,1.08-2.6,2.34-5.14,3.75-7.58,.19-.33,.39-.66,.59-.99,.07-.06,.14-.12,.21-.18,.05,0,.09-.02,.12-.07,.05-.07,.09-.13,.13-.2,.15-.17,.3-.35,.44-.53,.29-.36,.56-.73,.81-1.11,.53-.79,.98-1.62,1.37-2.49,.03-.07-.01-.2-.11-.18-.09,.02-.18,.05-.26,.08-.05,0-.1,.03-.13,.07-.16,.11-.3,.25-.42,.42-.26,.36-.47,.76-.68,1.14-.24,.42-.47,.83-.69,1.26-.47,.71-.91,1.43-1.34,2.16-.7,1.19-1.37,2.4-1.99,3.64-.01-.16-.03-.32-.04-.48l-.09-.99c-.06-.66-.13-1.33-.19-1.99-.01-.16-.03-.32-.05-.48,0,0,0,0,0-.01,.34-1.27,.35-2.65,.12-3.94-.04-.24-.08-.54-.32-.67-.19-.11-.45-.07-.55,.15-.05,.11-.04,.24-.02,.36,.02,.18,.05,.37,.07,.55,.05,.35,.09,.69,.14,1.04,.1,.79,.21,1.57,.31,2.36,0,.02,0,.04,.02,.06,.02,.22,.05,.44,.07,.67,.07,.66,.14,1.33,.21,1.99,.03,.33,.07,.66,.1,.99,.02,.17,.03,.33,.05,.5,0,.07,.01,.13,.02,.2-1.23,2.48-2.29,5.06-3.15,7.69-.47,1.43-.9,2.87-1.27,4.33,0-.01,0-.03-.01-.04-.48-1.62-1.03-3.22-1.65-4.79-.1-1.58-.12-3.16-.06-4.74,0,0,.01-.02,.02-.03,0-.01,.01-.02,.02-.04,.05-.01,.09-.04,.11-.11,.02-.09,.04-.19,.07-.28,.36-.85,.6-1.76,.74-2.67,.07-.47,.15-.97,.12-1.45-.02-.36-.14-.74-.48-.92-.08-.04-.16,0-.19,.09-.47,1.51-.66,3.09-.57,4.67,0,.05,0,.1,0,.16-.06,1.27-.05,2.53,.01,3.8,.02,.38,.05,.76,.08,1.14-.37-.92-.76-1.83-1.18-2.73-.52-1.12-1.19-2.34-2.08-3.29,.03-.06,.03-.14-.04-.19-.01,0-.02-.02-.04-.03,0,0,0,0,0,0,0,0,0,0,0,0-.16-.12-.33-.23-.5-.33-.51-.42-1.08-.74-1.72-.92-.63-.22-1.28-.34-1.93-.36-.34-.01-.75-.04-1.07,.09-.32,.12-.46,.47-.25,.76,.23,.33,.72,.35,1.08,.39,.45,.05,.91,.06,1.36,.07,.98,.04,2,.11,2.87,.6,.01,0,.02,0,.03,0,.77,.83,1.38,1.87,1.85,2.82,.6,1.2,1.11,2.45,1.6,3.7,.04,.09,.07,.19,.11,.28,0,.04,0,.07,.01,.11,0,.03,.03,.04,.05,.04,.44,1.15,.84,2.32,1.21,3.5,.83,2.65,1.47,5.37,1.93,8.11,.45,2.73,.72,5.49,.8,8.26,.02,.72,.03,1.44,.02,2.16-.24-1.7-.71-3.37-1.43-4.92-.25-.55-.53-1.09-.84-1.6-.29-.49-.61-.97-.99-1.4,.09-.38,.21-.75,.36-1.1,.4-.92,1.12-1.87,.96-2.93-.12-.8-.7-1.38-1.41-1.7,.25-.61,.09-1.33-.24-1.88-.4-.66-1.06-1.1-1.75-1.4-.75-.33-1.56-.52-2.32-.83-.79-.32-1.43-.84-2.1-1.36-.63-.49-1.32-.95-2.12-1.08-.67-.11-1.33,.07-1.88,.47-.45,.18-.91,.3-1.4,.38-.6,.1-1.22,.17-1.78,.41-.62,.27-1.06,.72-1.36,1.32-.33,.65-.52,1.36-.87,1.99-.21,.37-.45,.71-.72,1.02-.13,.15-.27,.29-.41,.43-.16,.15-.34,.27-.48,.44-.04,.05-.04,.11-.02,.17-.31-.03-.62-.01-.92,.09-.51,.17-.89,.55-1.18,.99-.6,.93-.87,2.11-.9,3.2-.02,.64,.04,1.28,.19,1.9,.07,.3,.16,.6,.27,.89,.12,.3,.24,.62,.43,.88,.1,.13,.34,.04,.28-.13-.1-.25-.22-.49-.32-.74-.1-.25-.19-.51-.26-.77-.14-.52-.22-1.06-.24-1.6,0-.3,0-.61,.03-.91,1.2-.25,2.4-.42,3.62-.41,1.24,.01,2.48,.18,3.67,.52,.67,.19,1.33,.43,1.97,.71,.04,.02,.07,.01,.1,0,0,0,0,0,0,0,0,0,0,0,0,0h0s0,0,.01,0c.02,0,.02,0,0,0,0,0,0,0,0,0,0,0,0,0,.01,0-.06,.04-.12,.08-.18,.12-.38-.01-.78,.07-1.14,.15-.41,.08-.81,.19-1.21,.32-.1,.03-.2,.07-.29,.11-1.68,.32-3.3,1.01-4.73,1.95-.88,.58-1.81,1.28-2.24,2.27-.36,.81-.32,1.87,.33,2.53,0,0,0,0,0,0,0,0,0,.02,0,.03-.02,.05,.05,.07,.08,.04,.76,.69,1.92,.56,2.87,.48,1.26-.1,2.52-.04,3.76,.21,1.07,.21,2.12,.6,3.22,.58,.24,0,.46-.04,.69-.09,0,0,.02,0,.03,0,.16-.04,.32-.09,.47-.16-.02,.78-.02,1.56,0,2.34-.06,.73,0,1.48,.16,2.2,.1,.86,.24,1.72,.45,2.57,.29,1.2,.71,2.36,1.28,3.45,.53,1.03,1.16,2.01,1.79,2.99,.63,.98,1.25,1.97,1.74,3.03,.5,1.07,.81,2.2,.97,3.37,.32,2.38,.11,4.83,.78,7.16,.35,1.22,1,2.28,1.64,3.37,.45,.76,.88,1.56,1.1,2.42-.09,.49-.14,1-.19,1.5-.06,.59-.12,1.18-.18,1.77-.12,1.2-.24,2.41-.36,3.61-.24,2.41-.48,4.81-.72,7.22-.48,4.81-.95,9.63-1.43,14.44-.13,1.35-.27,2.7-.4,4.05-.06,.66-.12,1.32-.18,1.97-.06,.68-.15,1.38-.08,2.06,0,.08,.1,.1,.14,.05-.32,3.24-.7,6.49-.9,9.74,0,.14,.24,.17,.26,.02,.41-3.02,.66-6.07,.96-9.1,.3-3.04,.61-6.07,.91-9.11,.6-6.08,1.21-12.15,1.81-18.23,.26-2.63,.55-5.26,.77-7.89,0,0,0,0,0,0,.18-.51,.2-1.05,.12-1.59,.02-.23,.03-.47,.05-.7,0-.05-.02-.08-.06-.1,.03-.39,.07-.79,.1-1.18,.15-1.71,.36-3.41,.69-5.09,.33-1.68,.78-3.34,1.4-4.94,.58-1.48,1.3-2.89,2.11-4.25,1.64-2.75,3.66-5.25,5.71-7.69,2.05-2.45,4.16-4.86,6.03-7.46,1.85-2.57,3.47-5.33,4.48-8.34,.12-.37,.24-.74,.34-1.12,.05-.17-.18-.34-.32-.23-2.65,2.06-5.48,3.86-8.25,5.74-2.62,1.77-5.2,3.62-7.5,5.8-.82,.78-1.61,1.61-2.35,2.48,.17-.41,.34-.83,.52-1.24,.38-.9,.77-1.8,1.14-2.7,.75-1.79,1.48-3.58,2.21-5.37,.2-.5,.4-.99,.59-1.49,.17-.44,.37-.88,.5-1.33,.02,0,.03,0,.05-.01,.13,.23,.29,.44,.5,.61,.25,.2,.54,.36,.84,.47,.07,.03,.14,.05,.21,.07,0,0,0,0-.01,0-.03,.01,0,.06,.02,.05,.03,0,.05-.02,.08-.03,.55,.17,1.14,.23,1.71,.22,1.7-.01,3.42-.41,4.97-1.1,1.4-.62,2.73-1.59,3.04-3.18,.2-1.04,0-2.14-.4-3.13,.7,.18,1.51-.08,2.09-.47Zm-21.17,6.18c.27,.45,.52,.91,.75,1.39,.46,.95,.82,1.94,1.1,2.96,.56,2.03,.75,4.16,.55,6.26-.06,.59-.14,1.17-.26,1.75-.06,.28-.12,.56-.19,.84-.08,.29-.18,.58-.22,.88,0,.04,0,.08,.02,.1-.63,.89-1.21,1.82-1.7,2.79-.55,1.08-.99,2.2-1.31,3.36-.03-.12-.07-.23-.1-.34-.16-.54-.39-1.06-.66-1.55-.57-1.05-1.32-1.98-2.11-2.88-.85-.96-1.74-1.88-2.52-2.91-.72-.96-1.32-2-1.78-3.11-.25-.61-.46-1.25-.62-1.89-.09-.33-.16-.67-.22-1-.03-.16-.06-.31-.09-.47,0-.05-.01-.09-.02-.14,.5,.15,1.03,.22,1.55,.27,.58,.06,1.16,.08,1.73,.03,.97-.09,1.94-.36,2.76-.9,.81-.52,1.42-1.28,1.77-2.18,.36-.92,.49-1.9,.62-2.88,.07-.5,.14-1,.24-1.5,.23,.37,.47,.73,.69,1.1Zm-1.11-8.41c.12,.36,.15,.76,.05,1.14-.8-.27-1.68-.31-2.51-.19-.81,.11-1.6,.38-2.32,.76,.61-.43,1.25-.82,1.95-1.1,.9-.36,1.86-.57,2.83-.62Zm-.42-.72c.14,.16,.25,.34,.34,.52-.97,.09-1.92,.32-2.81,.7-.9,.38-1.78,.89-2.48,1.57,0,0,0,0,0,0-.24,.16-.48,.34-.7,.53,.98-1.38,2.41-2.42,4.02-2.97,.52-.18,1.06-.3,1.6-.36,0,0,.02,0,.02,0Zm-6.16-3.43c.61,.45,1.17,.98,1.84,1.36,.03,.01,.05,.03,.08,.04-1.94,1.52-3.41,3.62-4.18,5.96-.21,.65-.37,1.31-.46,1.99-.03-.05-.08-.09-.13-.12-.02-.09-.05-.17-.07-.26,.04-.01,.06-.04,.06-.09-.05-.34-.17-.67-.26-1-.02-.09-.04-.17-.06-.26,0-.06-.02-.11-.02-.17-.08-.69-.08-1.38-.03-2.07,.11-1.38,.49-2.74,1.11-3.98,.34-.69,.76-1.34,1.25-1.93,.32,.15,.61,.34,.89,.54Zm-2.07-.81c.34-.01,.67,.06,.98,.18-1.61,2.02-2.43,4.62-2.35,7.19-.14-.62-.24-1.24-.31-1.87-.12-1.28-.03-2.59,.41-3.81,.21-.58,.52-1.14,.89-1.64,.12-.03,.25-.05,.38-.06Zm-.48,.08c-.12,.15-.24,.3-.34,.46-.17,.27-.31,.55-.44,.84-.24,.58-.4,1.18-.5,1.8-.2,1.37-.06,2.75,.2,4.1,.08,.41,.17,.82,.26,1.22,.03,.14,.06,.28,.09,.42,.01,.08,.03,.16,.04,.24,.05,.23,.1,.46,.16,.69-.1-.09-.21-.18-.31-.27-.07-.06-.13-.12-.19-.18-.07-.09-.14-.18-.21-.26-.01-.02-.03-.03-.04-.05-.05-.14-.11-.28-.16-.43,0-.01-.01-.03-.01-.04-.01-.04-.03-.07-.04-.11-.13-.35-.24-.71-.33-1.08-.19-.73-.3-1.48-.34-2.24-.04-.76,0-1.53,.14-2.29,.13-.72,.36-1.45,.84-2.02,.31-.37,.71-.67,1.17-.81Zm-4.08,1.27c.54-.28,1.18-.37,1.77-.48,.29-.05,.6-.11,.9-.2-.86,1.02-1.05,2.51-1.07,3.81-.02,.86,.07,1.73,.26,2.58-.15-.27-.3-.54-.45-.8-.49-.84-1.03-1.65-1.61-2.43-.29-.39-.59-.79-.93-1.15,.25-.55,.58-1.03,1.14-1.32Zm-2.15,3.48c.41-.61,.64-1.29,.92-1.96,0-.02,.01-.03,.02-.05,.24,.32,.5,.64,.74,.97,.29,.39,.56,.78,.83,1.18,.53,.79,1.01,1.62,1.45,2.47,.11,.21,.21,.42,.31,.62,.04,.13,.08,.27,.13,.4,0,.02,.02,.04,.02,.06-.02-.02-.04-.04-.06-.06-.33-.35-.67-.68-1.01-1.01-.7-.66-1.44-1.28-2.22-1.85-.37-.27-.75-.53-1.14-.76,0,0,0,0,0,0Zm-.67,.85c.22-.24,.42-.49,.6-.76,.7,.52,1.41,1.03,2.07,1.59,.71,.6,1.39,1.25,2.03,1.93,.14,.15,.28,.31,.41,.46-.07-.05-.14-.1-.22-.15-.52-.34-1.06-.65-1.62-.93-1.11-.56-2.28-1.02-3.49-1.35-.19-.05-.38-.09-.57-.12,.29-.16,.55-.44,.77-.67ZM.51,36.75c-.18-.39-.21-.84-.12-1.25,.2-.98,1.01-1.7,1.78-2.27,.83-.62,1.74-1.14,2.7-1.55,.26-.11,.51-.21,.78-.3-.13,.07-.26,.14-.39,.22-1.39,.84-2.58,2-3.48,3.36-.43,.65-.79,1.35-1.07,2.08-.07-.09-.14-.19-.19-.3Zm1.15,.85c-.06-.01-.11-.03-.17-.04-.27-.08-.52-.22-.71-.42,.54-1.39,1.36-2.66,2.42-3.71,1.15-1.15,2.58-2,4.12-2.52,0,0,.01,0,.02,0,.11-.02,.21-.05,.32-.07-.64,.27-1.26,.6-1.84,1-1.29,.89-2.39,2.07-3.18,3.42-.23,.39-.43,.79-.6,1.21-.08,.2-.16,.4-.23,.6-.06,.18-.13,.35-.15,.54Zm2.96-.06c-.56,0-1.11,.05-1.67,.09-.4,.03-.8,.05-1.19-.02,.07-.14,.11-.28,.16-.43,.07-.21,.15-.41,.23-.61,.15-.35,.32-.69,.5-1.03,.37-.68,.82-1.31,1.34-1.89,1.03-1.16,2.34-2.06,3.78-2.64,.4-.16,.81-.3,1.22-.41,.08-.02,.17-.04,.25-.06-.19,.16-.37,.33-.54,.51-.43,.45-.85,.91-1.22,1.41-.71,.98-1.26,2.08-1.59,3.24-.18,.6-.29,1.22-.34,1.85-.31-.02-.62-.03-.94-.03Zm7.08,.54c-.08,.04-.17,.08-.25,.11,.81-1.84,.89-4,.24-5.91-.2-.59-.46-1.15-.8-1.67-.09-.14-.31,0-.22,.14,1.15,1.79,1.56,4.05,1.07,6.12-.11,.47-.27,.93-.46,1.37-.09,.03-.18,.06-.28,.07-.51,.09-1.02,.06-1.53-.03,.02-.03,.03-.06,.02-.1-.5-1.97-.36-4.08,.38-5.97,.1-.26,.21-.52,.33-.77,.12-.26,.28-.51,.39-.77,.03-.06-.05-.13-.1-.07-.32,.38-.54,.88-.73,1.34-.2,.48-.37,.98-.49,1.48-.25,1.01-.35,2.06-.29,3.1,.03,.58,.12,1.15,.25,1.71-.4-.08-.79-.19-1.17-.28-.79-.19-1.59-.32-2.4-.38,.28-2.33,1.3-4.58,3.04-6.19,.4-.37,.84-.68,1.29-.98,.04,0,.09-.02,.13-.03,0,0,0,0,0,0,.1,.11,.29,.1,.39,0,.1-.11,.1-.26,.04-.39-.05-.1-.16-.17-.26-.21-.04-.01-.07-.03-.11-.04-.04,0-.07,0-.11-.01-.04,0-.08,0-.12,.02-2.29-1.02-4.85-1.42-7.34-1.13-.65,.07-1.31,.2-1.95,.39,.09-.7,.28-1.39,.59-2.02,.17-.33,.38-.66,.66-.91,1.19,.11,2.37,.31,3.51,.67,1.17,.37,2.3,.89,3.34,1.53,.29,.18,.58,.37,.85,.57,.28,.2,.54,.42,.82,.61,.08,.06,.17-.07,.1-.14-.42-.43-.97-.77-1.48-1.09-.53-.33-1.07-.63-1.64-.89-1.12-.52-2.3-.89-3.51-1.12-.63-.12-1.27-.19-1.91-.21,.07-.05,.14-.1,.22-.15,.5-.27,1.1-.19,1.63-.06,1.14,.28,2.26,.7,3.32,1.21,.6,.28,1.18,.59,1.75,.93,.29,.17,.57,.35,.85,.53,.03,.02,.05,.04,.08,.05,.03,.06,.06,.12,.09,.18,.03,.05,.08,.05,.12,.03,.03,.04,.06,.09,.1,.13,.1,.12,.2,.23,.31,.33,.1,.1,.22,.23,.35,.28,.09,.04,.21-.04,.21-.13,.02,.01,.06,0,.06-.03,.22-1.23,.58-2.43,1.13-3.56,.55-1.12,1.26-2.17,2.12-3.07,.47-.49,.97-.94,1.51-1.35,.61,.3,1.27,.49,1.91,.7,.1,.03,.2,.07,.3,.11-.52,.19-1.02,.45-1.49,.73-.55,.33-1.07,.71-1.56,1.14-.98,.86-1.78,1.91-2.38,3.07-.33,.64-.62,1.33-.76,2.03-.01,.06,.07,.08,.09,.02,.21-.61,.41-1.22,.7-1.8,.28-.56,.62-1.1,1-1.6,.77-1,1.71-1.88,2.78-2.55,.61-.38,1.26-.66,1.92-.94,.48,.2,.95,.44,1.33,.8-1.92,.29-3.66,1.27-4.93,2.72-.29,.33-.55,.68-.77,1.05-.26,.25-.5,.53-.71,.82-.14,.19-.25,.37-.34,.59-.07,.17,.15,.37,.28,.2,.26-.34,.5-.7,.79-1.02,.29-.32,.6-.61,.95-.86,.69-.5,1.47-.87,2.3-1.08,.81-.2,1.69-.26,2.51-.09,.61,.13,1.29,.41,1.68,.94-.24-.06-.51-.07-.76-.09-.3-.02-.59-.03-.89-.02-.58,.02-1.15,.08-1.71,.2-1.14,.23-2.23,.66-3.21,1.28-.56,.35-1.07,.76-1.53,1.22-.04,.04,.02,.1,.07,.06,1.7-1.52,3.93-2.44,6.21-2.55,.31-.01,.62-.01,.94,0,.32,.02,.66,.1,.98,.09,.01,0,.02,0,.03-.01,.02,.03,.04,.06,.05,.09,.35,.79-.05,1.61-.43,2.34-.79-.35-1.62-.56-2.48-.66-.42-.05-.85-.07-1.27-.06-.42,.02-.83,.09-1.24,.17,0,0,0,.02,0,.02,.41-.05,.83-.06,1.25-.06,.42,0,.84,.03,1.26,.08,.83,.11,1.63,.36,2.39,.69-.04,.07-.08,.15-.11,.22-.29,.59-.48,1.21-.62,1.84-1.93-1.4-4.37-2.02-6.73-1.72-.67,.08-1.33,.23-1.95,.5-.05,.02-.03,.11,.03,.09,1.14-.32,2.29-.51,3.48-.45,1.16,.06,2.32,.32,3.38,.79,.61,.27,1.19,.6,1.73,1,0,0,.02,0,.02,.01-.04,.22-.08,.45-.12,.68-.16,1.11-.27,2.3-.66,3.35-1.28-1.92-3.01-3.53-5.02-4.65-.31-.17-.62-.33-.93-.48-.3-.14-.62-.31-.94-.37-.04,0-.06,.05-.03,.07,.25,.15,.55,.25,.82,.37,.27,.13,.54,.26,.8,.41,.54,.29,1.05,.62,1.55,.97,.97,.7,1.84,1.51,2.61,2.42,.39,.46,.74,.95,1.06,1.46-.24,.57-.58,1.09-1.08,1.52-.11,.09-.22,.18-.34,.26-.08-.27-.23-.53-.35-.78-.13-.27-.27-.54-.41-.8-.3-.54-.63-1.06-.99-1.56-.72-.99-1.54-1.9-2.47-2.71-.52-.45-1.06-.89-1.66-1.23-.04-.02-.09,.04-.05,.07,.47,.38,.97,.73,1.42,1.13,.45,.39,.88,.81,1.29,1.25,.82,.89,1.55,1.88,2.15,2.94,.17,.29,.32,.58,.47,.88,.15,.3,.26,.63,.42,.92-1.5,.97-3.44,.96-5.16,.73-.16-.02-.31-.04-.47-.06,.27-.19,.5-.43,.69-.73,.5-.76,.67-1.74,.54-2.63-.16-1.1-.69-2.1-1.31-3-.16-.23-.32-.45-.48-.67-.16-.22-.51,0-.35,.22,1.11,1.5,2.3,3.4,1.55,5.33-.22,.57-.61,1.04-1.12,1.32-.02,0-.04,.01-.06,.03Zm4.58,14.72c-.61-.99-1.27-1.95-1.86-2.95-.62-1.04-1.15-2.13-1.52-3.29-.13-.4-.24-.81-.34-1.23,.04,.09,.07,.18,.11,.27,.84,1.91,2.03,3.61,3.08,5.41,.53,.91,1.01,1.86,1.38,2.85,.16,.43,.3,.87,.43,1.31-.36-.82-.81-1.6-1.28-2.36Zm5.16,17.09c-.56-1.15-1.34-2.19-1.85-3.37-.88-2.05-.84-4.31-.98-6.51,.18,.99,.37,1.99,.6,2.97,.45,1.91,1.07,3.81,2.15,5.46,.13,.2,.27,.39,.43,.57,.03,.03,.06,.03,.09,.03-.05,.51-.1,1.01-.14,1.52-.09-.24-.19-.46-.3-.68Zm.46-1.06c-.25-.39-.5-.76-.73-1.16-.25-.43-.46-.88-.66-1.34-.38-.89-.68-1.82-.93-2.76-.52-1.98-.8-4-1.21-6-.42-2.03-1-4.01-1.97-5.84-.97-1.82-2.2-3.49-3.17-5.31-.32-.6-.61-1.22-.84-1.87-.28-1.45-.41-2.93-.48-4.4,.2,1.43,.77,2.8,1.44,4.07,.96,1.8,2.18,3.45,3.18,5.23,.95,1.7,1.68,3.51,2.18,5.39,.25,.95,.44,1.92,.58,2.89,.14,1.02,.24,2.04,.42,3.05,.3,1.69,.88,3.43,2.17,4.63,.14,.13,.29,.25,.44,.36-.17,1.01-.3,2.03-.41,3.05Zm.45-3.31c-1.31-1.04-1.99-2.66-2.34-4.26-.22-1-.33-2.01-.46-3.02-.12-.96-.28-1.91-.5-2.85-.44-1.85-1.12-3.64-1.99-5.32-.93-1.78-2.11-3.41-3.14-5.14-.97-1.64-1.78-3.42-1.99-5.33-.03-.23-.05-.47-.06-.7,0,0,0,0,0,0,0-.08,0-.16,0-.24,.01,.1,.03,.2,.04,.3,.04,.29,.09,.58,.15,.87,.12,.57,.28,1.13,.47,1.68,.39,1.11,.93,2.17,1.59,3.15,1.4,2.06,3.36,3.68,4.67,5.8,.34,.55,.63,1.13,.85,1.74,.11,.3,.19,.62,.26,.93,.03,.14,.05,.28,.06,.43-.27,1.21-.4,2.44-.38,3.69,.04,2.61,.76,5.28,2.33,7.4,.16,.21,.32,.41,.49,.61-.02,.09-.03,.17-.04,.26Zm15.98-26.03c-1.83,2.65-3.94,5.1-6.01,7.56-2.06,2.44-4.1,4.92-5.81,7.62-1.76,2.78-3.06,5.77-3.79,8.98-.08,.36-.16,.72-.23,1.09-.03-.04-.05-.09-.08-.13-.29-2.42,.02-4.87,.76-7.19,.8-2.5,2.09-4.86,3.63-6.98,1.59-2.18,3.41-4.17,5.31-6.09,1.91-1.93,3.9-3.79,5.79-5.74,1.01-1.04,2.06-2.12,2.93-3.32-.73,1.46-1.58,2.86-2.51,4.2Zm3.36-6.08c-.25,.53-.54,1.03-.88,1.52-.76,1.09-1.66,2.06-2.57,3.02-1.88,1.97-3.87,3.84-5.8,5.77-1.91,1.91-3.8,3.87-5.39,6.05-1.53,2.09-2.84,4.36-3.72,6.8-.86,2.39-1.33,4.96-1.09,7.5,0,.07,.02,.13,.02,.2-1-2-1.3-4.3-1.03-6.52,.31-2.6,1.41-5.03,2.87-7.19,1.55-2.29,3.51-4.25,5.54-6.11,2.1-1.93,4.28-3.78,6.35-5.75,2.09-1.99,4.1-4.05,6.03-6.19,.01-.01,.02-.03,.04-.04-.11,.31-.23,.62-.35,.93Zm.65-1.84c-.01,.06-.03,.11-.04,.17-.01,.04-.03,.07-.04,.11-1.85,2.09-3.79,4.1-5.79,6.04-2.09,2.02-4.28,3.92-6.44,5.86-2.07,1.87-4.06,3.84-5.68,6.12-1.52,2.14-2.73,4.56-3.17,7.16-.42,2.42-.19,5.01,.91,7.22,.07,.13,.13,.26,.2,.39,0,.04,0,.08,.01,.11-1.44-1.94-2.21-4.31-2.36-6.71-.08-1.3,0-2.6,.24-3.88,.06,0,.11-.04,.12-.1,.01-.08,.02-.15,.02-.23,.78-1.58,1.7-3.09,2.74-4.51,1.22-1.67,2.6-3.23,4.06-4.69,1.51-1.51,3.11-2.92,4.75-4.29,1.74-1.45,3.51-2.86,5.27-4.29,1.71-1.4,3.4-2.83,5.02-4.34,.06-.05,.12-.09,.18-.14Zm-15.77,11.64c2.2-2.17,4.68-4.01,7.22-5.75,2.18-1.49,4.4-2.92,6.56-4.44-.92,.82-1.85,1.61-2.8,2.39-1.75,1.44-3.52,2.85-5.27,4.29-1.66,1.37-3.29,2.78-4.83,4.28-1.48,1.45-2.89,2.98-4.14,4.63-1.14,1.5-2.18,3.11-2.97,4.83,.26-1.1,.63-2.17,1.1-3.2,.64-1.37,1.43-2.66,2.34-3.87,.04,0,.08-.03,.11-.09,.02-.05,.04-.09,.06-.14,.8-1.04,1.68-2.02,2.62-2.94Zm16.2-17.55s0,0,0,0c-.29-.34-.65-.64-1-.91-.35-.28-.71-.53-1.09-.76-.78-.47-1.61-.84-2.48-1.09-.41-.12-.82-.22-1.25-.26,.55-.03,1.09-.1,1.65-.11,.61,0,1.21,.03,1.82,.11,1.18,.17,2.31,.51,3.4,1-.14,.76-.46,1.47-1.03,2.01Zm-1.32-7.08c.13-.42,.17-.85,.14-1.28,.05,.04,.11,.09,.16,.13,.3,.26,.57,.56,.8,.89,.48,.67,.82,1.43,1.05,2.23,.04,.15,.08,.31,.12,.48-1.57-.29-3.26-.11-4.78,.4,1.15-.62,2.13-1.56,2.52-2.84Zm-.69-1.88s0,0,0,0c.15,.14,.34,.23,.51,.35,.04,.03,.07,.05,.11,.08,.18,.86-.11,1.77-.58,2.48-.49,.75-1.22,1.31-2.01,1.73-.03,.01-.06,.03-.08,.04,.41-.37,.77-.78,1.07-1.24,.66-1.01,1-2.23,.98-3.44Zm-5.87-4.06s0,0,0,0c0,.01,.02,.02,.03,.03,.21,.08,.39,.16,.53,.35,.13,.18,.22,.4,.28,.62,.17,.57,.26,1.17,.34,1.76,.15,1.21,.16,2.45,.02,3.67-.06,.54-.16,1.08-.28,1.62,0-.13-.01-.25-.02-.38-.02-.29-.05-.57-.08-.86-.06-.57-.14-1.15-.23-1.71-.19-1.12-.44-2.24-.76-3.33-.17-.57-.36-1.13-.56-1.69,.24-.03,.49-.05,.73-.07Zm-1.69,.25c.28-.08,.57-.14,.85-.18,.6,1.7,1.04,3.47,1.31,5.26-.53-1.63-1.61-3.09-3.03-4.06-.17-.12-.35-.23-.54-.33,.45-.29,.89-.54,1.41-.69Zm-7.11,3.92c.17-.64,.41-1.26,.7-1.85,0,0,0,0,0,0,.31,.09,.63,.14,.94,.21,.31,.08,.61,.17,.91,.28,.6,.22,1.17,.51,1.71,.86,1.07,.69,1.99,1.6,2.68,2.67,.19,.3,.36,.6,.51,.92,.04,.08,.07,.15,.1,.23,0,0-.02-.02-.02-.02-.21-.2-.45-.37-.72-.5-.26-.13-.53-.22-.81-.26-.16-.02-.32-.02-.47,0-.95-.16-1.96-.04-2.87,.21-1.05,.3-2.04,.82-2.88,1.52-.23-1.42-.16-2.87,.21-4.26Zm2.26,15.72c-.05,0-.1,0-.15,.01,.47-.11,.93-.29,1.36-.51,.77-.38,1.46-.91,2.06-1.52,1.34-1.37,2.18-3.13,2.66-4.97,.21-.79,.35-1.59,.47-2.4,.46,2.02,.11,4.21-1.03,5.96-.59,.91-1.4,1.69-2.31,2.28-.91,.58-1.97,1.02-3.05,1.14Zm1.37,.09c.37-.12,.73-.26,1.08-.43,1.05-.5,2-1.24,2.74-2.13,.48-.57,.86-1.21,1.16-1.89-.14,.5-.32,.99-.56,1.45-.53,1.04-1.27,1.96-2.17,2.7-.25,.21-.52,.4-.8,.58-.21,.13-.44,.25-.65,.38-.31-.16-.59-.38-.81-.66Zm.96,.74c.16-.08,.32-.17,.47-.26,.25-.15,.5-.32,.74-.51,.47-.36,.9-.78,1.29-1.23,.77-.9,1.36-1.96,1.73-3.09,.05-.14,.09-.29,.13-.43-.05,.41-.12,.81-.22,1.21-.34,1.3-1,2.53-1.95,3.48-.42,.42-.89,.77-1.4,1.08-.27-.06-.54-.14-.79-.25Zm9.87-4.24c-.02,.75-.27,1.48-.76,2.05-.13,.15-.27,.29-.41,.42,.07-1.24-.12-2.52-.48-3.7-.4-1.28-1.03-2.49-1.86-3.54-.22-.28-.46-.56-.71-.81-.13-.14-.27-.27-.42-.4-.14-.12-.27-.25-.43-.33-.03-.01-.07,.02-.05,.05,.18,.26,.47,.46,.69,.69,.23,.24,.45,.48,.66,.74,.42,.51,.78,1.06,1.1,1.64,.63,1.15,1.06,2.43,1.24,3.73,.1,.7,.1,1.39,.05,2.1-.32,.25-.68,.47-1.05,.66-.66,.34-1.37,.61-2.09,.82,.28-.56,.53-1.13,.7-1.74,.19-.67,.31-1.36,.36-2.06,.09-1.4-.12-2.82-.63-4.13-.14-.36-.3-.71-.48-1.04-.19-.35-.39-.7-.65-.99-.04-.04-.09,.01-.07,.06,.17,.3,.37,.58,.53,.89,.17,.3,.32,.62,.45,.94,.26,.64,.45,1.31,.56,1.99,.22,1.34,.18,2.73-.17,4.04-.2,.73-.47,1.48-.88,2.12-.73,.19-1.47,.32-2.21,.38-.59,.05-1.26,.06-1.9-.04,.11-.06,.22-.13,.33-.2,.27-.18,.53-.38,.77-.6,.5-.45,.93-.97,1.29-1.54,.8-1.28,1.2-2.77,1.29-4.26,.02-.4,.02-.8,0-1.2,.11-.99,.05-2-.2-2.97-.07-.27-.15-.52-.25-.78,0-.04-.01-.07-.03-.1,0,0,0-.01,0-.02-.1-.26-.52-.13-.42,.13,.06,.15,.11,.29,.16,.44-.18,1.84-.55,3.69-1.33,5.37-.74,1.58-1.89,2.97-3.41,3.84-.7,.4-1.45,.64-2.23,.78-.22-.03-.44-.1-.62-.22,.31-.06,.62-.18,.91-.3,.35-.15,.68-.33,.99-.54,.65-.42,1.26-.94,1.74-1.55,1.09-1.36,1.86-2.91,2.41-4.55,.34-1,.62-2.03,.81-3.07,.02-.12-.15-.16-.18-.04-.24,.89-.43,1.8-.67,2.69-.24,.88-.55,1.74-.94,2.57-.19,.39-.38,.78-.61,1.15-.2,.33-.44,.62-.69,.92-.49,.59-1.07,1.14-1.7,1.59-.33,.24-.69,.45-1.06,.63-.37,.18-.75,.29-1.13,.43-.24-.21-.34-.49-.4-.79,.72-.32,1.4-.79,2.02-1.28,.64-.51,1.24-1.07,1.78-1.69,1.09-1.24,1.98-2.68,2.57-4.23,.16-.42,.31-.86,.43-1.29,.06-.23,.12-.46,.17-.7,.05-.23,.1-.46,.1-.69,0-.11-.15-.11-.18-.02-.12,.39-.15,.8-.25,1.2-.09,.39-.2,.77-.33,1.15-.26,.78-.6,1.54-1.01,2.25-.8,1.41-1.88,2.68-3.13,3.72-.69,.57-1.44,1.02-2.2,1.49-.03-.21-.04-.42-.06-.62-.05-.52-.19-1-.42-1.47-.23-.45-.52-.87-.8-1.29,0-.01-.02-.02-.02-.04,.25-.1,.49-.24,.73-.37,.29-.16,.57-.32,.85-.49,.56-.34,1.11-.69,1.64-1.07,1.04-.74,2.03-1.56,2.95-2.45,.53-.51,1.06-1.05,1.52-1.63,.05-.07-.04-.15-.1-.09-.44,.47-.87,.95-1.33,1.41-.45,.45-.92,.88-1.4,1.29-.98,.84-2.03,1.61-3.13,2.29-.3,.19-.6,.37-.91,.54-.29,.16-.6,.3-.88,.48-.39-.57-.78-1.15-.99-1.81,.12-.25,.22-.51,.35-.76,.15-.29,.31-.56,.49-.83,.37-.55,.8-1.06,1.29-1.51,.98-.92,2.19-1.59,3.48-1.96,.37-.11,.75-.19,1.13-.25,.38-.06,.77-.06,1.15-.12,.07-.01,.09-.12,.01-.13-.34-.05-.7,0-1.04,.04-.34,.04-.67,.11-1,.19-.68,.17-1.34,.42-1.96,.74-1.2,.63-2.23,1.55-3.01,2.65-.23,.32-.43,.65-.61,1-.12,.23-.25,.47-.34,.71-.05-.22-.08-.44-.07-.67,.02-1.22,.72-2.37,1.53-3.24,1.49-1.59,3.63-2.41,5.8-2.33,.2,0,.4,.02,.6,.04,.04,0,.09,.02,.13,.03,.25,.06,.5,.14,.72,.27,.22,.12,.42,.27,.61,.44,.09,.08,.17,.17,.24,.27,.08,.11,.15,.23,.26,.31,.03,.02,.08,.03,.11,.03,0,0,0,0,0,0,.05,.1,.18,.06,.16-.05-.06-.33-.21-.65-.35-.95-.13-.29-.28-.57-.44-.84-.34-.56-.73-1.08-1.18-1.55-.9-.95-2.01-1.71-3.23-2.2-.34-.13-.68-.25-1.03-.34-.35-.09-.72-.17-1.08-.16,0-.01,.01-.03,.02-.04,.18-.36,.39-.73,.66-1.03,.73-.03,1.44,.12,2.1,.46,.68,.35,1.27,.84,1.82,1.36,1.08,1.02,2.23,2.09,2.93,3.43,.39,.75,.59,1.55,.62,2.39,0,.05,.09,.06,.09,0,.19-1.52-.72-2.99-1.67-4.09-.52-.61-1.1-1.17-1.68-1.72-.57-.55-1.18-1.08-1.88-1.46-.66-.36-1.44-.61-2.19-.53,.12-.12,.26-.23,.41-.33,.59-.36,1.3-.3,1.94-.12,.63,.17,1.24,.45,1.8,.79,1.11,.68,2.04,1.63,2.68,2.76,.77,1.37,1.05,2.92,.96,4.48,0,.12,.2,.14,.22,.02,0-.06,.01-.13,.02-.19,0,.03,0,.05,.02,.08,0,.01,.01,.02,.02,.02,.02,.03,.08,.03,.09-.02,.38-1.24,.55-2.55,.57-3.84,0-.66-.03-1.31-.11-1.96-.07-.6-.17-1.22-.34-1.8-.08-.28-.26-.7-.53-.91,.41,0,.82,0,1.24,0,.42,0,.85,.03,1.27,.12,.52,2.34,.25,4.83-.75,7-.28,.62-.62,1.21-1.01,1.77-.03,.05,.05,.11,.09,.06,1.45-1.96,2.17-4.49,2.12-6.92-.01-.63-.09-1.25-.2-1.86,.15,.04,.29,.09,.43,.16,.44,.21,.79,.54,1.06,.93,.35,2.33-.39,4.78-1.93,6.55-.22,.25-.46,.5-.71,.72-.13,.12-.27,.23-.41,.34-.14,.1-.26,.22-.4,.32-.03,.02,0,.07,.03,.05,.14-.08,.27-.14,.4-.24,.12-.09,.23-.17,.34-.27,.24-.2,.46-.41,.67-.63,.42-.44,.79-.94,1.11-1.46,.64-1.05,1.06-2.24,1.19-3.47,.05-.45,.06-.9,.03-1.35,.21,.47,.35,.98,.41,1.46,.18,1.27-.06,2.59-.7,3.7-.32,.56-.73,1.06-1.22,1.49-.23,.21-.49,.39-.75,.56-.28,.17-.58,.31-.85,.49-.15,.1-.04,.31,.13,.27,.3-.06,.57-.22,.83-.38,.07-.04,.14-.09,.21-.14,0,0,0,0,0,0,.26-.11,.52-.22,.79-.31,.54-.18,1.1-.32,1.66-.41,1.09-.17,2.18-.13,3.27,.03,.14,.71,.18,1.48,.08,2.21-1.69-.79-3.6-1.15-5.46-1.07-.54,.02-1.1,.06-1.62,.22-.02,0-.02,.02-.03,.03-.22-.11-.44-.2-.67-.28-.22-.07-.35,.29-.14,.38,.62,.28,1.22,.59,1.76,1,.53,.41,1.02,.88,1.42,1.41,.86,1.13,1.48,2.56,1.45,4Zm-.18-2.72c-.17-.37-.37-.73-.59-1.06-.67-1.02-1.61-1.94-2.7-2.54,.3,.07,.6,.13,.89,.21,.43,.12,.85,.26,1.27,.44,.82,.35,1.6,.8,2.31,1.35,.39,.3,.73,.65,1.09,.98-.31,.26-.68,.47-1.07,.58-.4,.12-.8,.11-1.2,.05Z"/>
  </g>
</svg>