<?xml version="1.0" encoding="UTF-8"?>
<svg id="Layer_2" data-name="Layer 2" xmlns="http://www.w3.org/2000/svg" viewBox="0 0 220.37 199.79">
  <defs>
    <style>
      .cls-1 {
        fill: #fff;
      }
    </style>
  </defs>
  <g id="Layer_1-2" data-name="Layer 1">
    <g>
      <path class="cls-1" d="M179.5,122.82c-6.36,10.09-12.92,19.86-20.73,28.86,1.77-4.79,1.75-10.17,3.04-15.11,1.77-6.77,2.5-13.4,1.86-20.37-.04-.41-.61-.72-.94-.41-5.74,5.38-3.61,15.05-3.07,22.82-2.05-4.16-7.16-8.01-9.22-10.97-.42-.6-1.41-.34-1.5,.38-.92,7.59,6.96,11.69,10.05,17.71-.31,2.77-.76,5.5-2.05,8.02-.34,.38-.67,.77-1.02,1.14-3.72,4.03-7.6,7.89-11.61,11.63-.41,.27-.82,.58-1.21,.96-.09,.09-.13,.19-.15,.29-.08,.08-.16,.15-.25,.23,3.93-5.99,3.77-14.05,2.64-20.91-.09-.56-1.02-.83-1.21-.18-1.19,4.08-3.46,7.85-4.29,12.04-.89,4.52,1.04,8.78-2.08,12.74-.2,.25,.12,.52,.37,.38h0c-4.08,3.55-8.28,6.97-12.57,10.27-4.12,3.17-8.4,6.27-12.91,8.92,5.12-5.11,8.97-13.9,8.22-19.75-.04-.28-.34-.39-.56-.24-7.82,5.03-9.68,14.02-12.3,22.38-.09,.09-.18,.17-.27,.26-4.56,2.22-9.37,3.89-14.5,4.62-.82,.12-.67,1.39,.14,1.27,5-.72,9.76-2.3,14.28-4.43,.16,.23,.5,.33,.72,.03,.13-.18,.25-.38,.37-.56,4.07-2.01,7.96-4.45,11.66-7.09,.76-.1,1.52-.16,2.28-.19,.03,.1,.11,.18,.24,.2,4.34,.73,7.44,3.95,11.32,5.7,3.35,1.52,6.6,1.63,10.08,.43,.32-.11,.49-.59,.25-.85-2.24-2.47-5.74-4.74-9.47-5.91,.09-.02,.17-.02,.26-.04,4.59-.99,9.01-2.69,12.65-5.7,.25-.21,.33-.57,.12-.84-1.35-1.78-6.19-.13-7.91,.38-4.9,1.46-9.53,3.65-14.36,5.3-1.17-.08-2.28-.12-3.36,0,.28-.21,.56-.41,.83-.62,7.61-5.74,15.08-11.81,22.06-18.35,3.98-1.65,7.93,.01,12.19-.91,4.13-.89,7.87-2.39,11.61-4.36,1.12-.59,7.22-2.71,5.22-4.92-.17-.19-.39-.27-.64-.18-6.55,2.28-15.78,1.11-22.31,4.42,.29-.3,.59-.59,.89-.9,8.74-9.07,16.42-18.82,23.27-29.31,4.25-2.4,9.2-1.15,13.68-3.21,4.4-2.03,8.15-4.94,12.01-7.84,.51-.38,.06-1.2-.54-.97-4.91,1.88-10.9-.17-15.57,2.23-1.93,.99-3.84,2.09-5.56,3.42,1.09-1.74,2.18-3.46,3.3-5.17,.05,.25,.4,.36,.51,.08,.25-.63,.49-1.29,.73-1.96,2.37-3.54,4.84-6.99,7.52-10.27,.11-.05,.23-.09,.35-.14-.04,.22,.15,.41,.39,.34,.69-.2,1.33-.51,1.96-.85,3.48-.24,7.35,1.28,10.91,.12,4.61-1.5,8.84-3.82,12.76-6.64,.47-.34,.17-1.14-.42-1.06-6.55,.88-15.84-.13-21.93,3.6,2.18-2.33,4.5-4.55,7.01-6.62,.16-.13,.18-.3,.13-.45,6.31-3.97,13.13-7.83,17.34-14.12,.47-.71-.32-1.55-1.04-1.07-6.38,4.26-14.96,8.71-18.31,16.04-.63,.5-1.25,1-1.86,1.53,3.34-5.68,4.23-13.28,6.05-19.22,.21-.69-.58-1.18-1.08-.64-2.96,3.21-5.82,6.17-7.19,10.4-1.18,3.62,.11,7.59-.56,11.36-.27,.48-.53,.96-.8,1.45-3.71,3.75-6.97,7.97-9.99,12.34,2.01-7.19,2.94-15.67,.3-22.05-.11-.26-.47-.41-.71-.2-7.99,6.9-2.89,18.31-3.18,27.24,0,.1,.04,.19,.1,.26-.83,1.28-1.64,2.56-2.44,3.83Zm4.94-12.28c-.02-.34-.05-.69-.06-1.03-.09-2.41-.03-4.83,0-7.24,0-.24-.34-.2-.39,0-.98,3.82-1.17,8.58-.45,12.68-.12,.7-.24,1.4-.34,2.1-.11,.17-.22,.34-.33,.5,1.51-7.28-3.48-15.23,.56-22.19,.89-1.53,1.71-3.98,2.24-.79,.17,1.02,.32,2.03,.34,3.07,.05,2.66-.17,5.28-.6,7.9-.27,1.68-.63,3.34-.98,5Zm15.89-19.22c-.74,2.2-1.71,4.21-2.76,6.19,.1-2.06-.13-4.14,.05-6.3,.36-4.26,2.84-7.31,5.56-10.27-.93,3.47-1.7,6.99-2.85,10.39Zm10.88-3.73c1.45-1,2.92-1.98,4.4-2.95-2.74,2.61-5.89,4.59-8.97,6.76,1.41-1.36,2.89-2.65,4.57-3.81Zm-14.75,18.05c.35-.17,.71-.33,1.08-.45,1.82-.61,4-.96,5.91-.95,.3,0,.28-.46,0-.51-2.66-.49-6.04-.33-8.64,1.04,5.88-4.03,13.66-3.6,20.71-4.2-4.69,3.2-10.95,6.69-16.45,5.6-.93-.18-1.8-.38-2.62-.52Zm-66.04,80.66c-.3,0-.6,0-.9,.02-.28,0-.56,.02-.84,.02,2.95-1.11,5.8-2.44,8.8-3.47,2.6-.9,5.35-1.67,8.12-1.69,1.81-.21,1.93-.14,.35,.22-1.36,.94-2.81,1.73-4.33,2.35-3.75,1.45-7.37,2.36-11.2,2.56Zm.66,3.85c-1.38-.84-2.68-1.53-4.05-2.05,2.3-.09,4.57-.45,6.92,.06,3.53,.77,6.62,2.32,9.12,4.89-4.6,.99-7.97-.45-11.99-2.89Zm-14.69-6.73c-1.11,1.92-2.33,3.61-3.66,5.2,1.14-2.42,2.25-4.9,3.2-7.35,.15-.39-.42-.78-.66-.39-1.78,2.83-3.39,6.15-4.05,9.47-.17,.19-.35,.37-.52,.56,2.36-6.47,2.07-13.97,8.76-18.27,1.42-.91-.31,4.52-.46,4.94-.72,2.01-1.55,3.99-2.62,5.85Zm42.64-39.23c-2.51-4.67-7.69-8.39-8.41-13.64,1.55,1.74,3.3,3.28,4.83,5.06,2.37,2.76,3.01,5.2,3.58,8.59Zm1.94-9.66c-.09-.94-.2-1.89-.29-2.81-.24-2.44-.58-4.99-.37-7.44,.12-1.42,.22-2.98,.83-4.3,.06-1.21,.57-1.84,1.52-1.88,.33,5.74-.44,11.01-1.69,16.43Zm20.37-6.26c-.91,.05-1.72,.14-2.48,.29,2.68-2.08,5.06-4.42,8.82-4.49,.26,0,.29-.39,.07-.48-1.49-.65-3.42-.22-5.29,.72,2.65-1.72,5.57-2.88,9.3-2.99,2.14-.07,4.47,.07,6.57-.39h0c-.19,.1-.38,.21-.56,.35-5.14,3.81-9.92,6.65-16.44,6.98Zm-29.79,36.77c-.51-.01-1-.01-1.48,0,2.66-.99,5.31-1.86,8.05-2.72,.25-.08,.15-.5-.11-.45-3.11,.63-6.88,1-9.32,3.22,0,0,0,.01,0,.02-.19,.02-.38,.03-.57,.05,4.48-3.35,9.34-4.88,14.99-5.74,2.71-.41,5.45-.72,8.15-1.17,1.82-.3,3.55-1.12,.79,.55-6.67,4.04-12.64,6.45-20.5,6.25Zm-10.66,3.2c.26-1.49,.05-3.17-.09-4.93-.4-4.78,1.91-9.14,3.62-13.53,.43,3.35,.69,6.77,0,10.08-.66,3.17-2.1,5.7-3.54,8.38Z"/>
      <g>
        <path class="cls-1" d="M24.63,99.14c2.01,7.21,4.16,14.56,7.52,21.29-1.85-2.24-3.83-4.35-5.92-6.35-2.28-3.87-4.36-7.85-6.79-11.63-2.02-3.14-4.71-6.65-8.59-7.41-.33-.07-.59,.24-.51,.56,1.11,4.24,3.39,7.76,6.17,10.92-.26-.16-.54-.3-.8-.46-4.3-4.42-8.95-8.94-15.31-9.46-.36-.03-.54,.52-.27,.73,8.81,7.06,18.11,13.78,27.66,19.83,1.25,1.34,2.45,2.72,3.61,4.14-.23-.14-.47-.27-.72-.38-.98-.8-2.09-1.43-3.28-1.92-7.35-4.18-16.2-3.2-24.73-2.27-.42,.05-.6,.62-.19,.84,4.13,2.14,7.99,4.02,12.65,4.52,5.14,.55,9.96-2.12,14.3-.87,.66,.4,1.32,.81,1.98,1.26,.11,.07,.2,0,.25-.09,.2,.18,.41,.34,.6,.53,.07,.07,.16,.03,.2-.03,.27,.23,.54,.49,.81,.77,3.63,4.74,6.86,9.86,9.95,15.11-2.11-2.08-4.49-3.91-6.93-5.56-3.62-2.44-8.28-1.2-12.3-1.8-.56-.08-.8,.6-.34,.91,2.67,1.77,5.4,3.63,8.43,4.73,3.43,1.24,11.22,1.44,12.82,5.41,.07,.17,.34,.14,.33-.06,0-.1-.04-.17-.05-.27,1.52,2.64,3.02,5.29,4.52,7.95,5.32,9.37,11.29,17.92,18.58,25.85,7.37,8.01,15.05,17.48,24.33,23.28,.14,.09,.29-.13,.17-.23-3.93-2.87-7.56-6.22-11.05-9.75-3.58-4.93-.73-12.45-7.5-15.29-.2-.09-.45-.04-.55,.17-2,3.92,2.45,8.69,4.79,11.43,.2,.24,.58-.05,.49-.31-.72-2.14-2.22-3.91-3.36-5.83-.81-1.36-1.56-2.91-1.32-4.53,.06-.39,3.03,2.47,3.27,2.88,1.77,3.04,1.35,6.7,2.58,9.85-3.88-4.03-7.59-8.23-11.34-12.21-2.88-3.07-5.47-6.27-7.9-9.58-1.52-4.96,3.97-11.57,4.74-16.73,.7-4.73-.76-9.27-3.74-12.9-.24-.28-.83-.22-.77,.25,.57,4.44-1.51,7.92-1.84,12.18-.31,3.98-.63,8.04-.4,12.04-1.7-6.72,.08-13.68-.12-20.72-.2-7.19-3.71-13.51-7.49-19.39-.26-.4-1.03-.23-.94,.3,1.5,8.41-1.9,16.78,.23,25.11,.57,2.25,1.18,4.72,2.01,7.13-1.64-2.77-3.23-5.6-4.81-8.46-3.79-6.87-7.71-13.64-12.23-19.82-.28-.55-.56-1.09-.83-1.64-2.35-8.81,.12-19.74-9.35-24.65-.41-.21-.85,.18-.73,.61Zm-11.11,21.86c-3.06-.35-5.95-1.89-8.67-3.23-.02-.01,5.7-.98,6.58-1.04,3.73-.26,7.11,.1,10.32,1.04-3.34-.21-6.76,.34-9.58,1.39-.2,.07-.1,.38,.1,.32,4.07-1.23,8.88-1.51,13.16-.34,.69,.31,1.39,.64,2.07,1-4.39-.38-9.59,1.38-13.98,.87Zm47.58,24.23c.43-1.71,1.11-3.56,1.14-5.34,.08-4.66,1.49,1.05,1.98,2.58,1.88,5.86-.57,12.14-3.47,17.16-.46,.79-.76,1.53-.94,2.24,.26-5.58-.09-11.16,1.3-16.64Zm-10.36-5c-.2-4.25,.91-8.62,1.23-12.86,.32-4.18-1.38-6.32,1.44-1.58,4.61,7.75,4.74,15.74,3.93,24.44-.15,1.67-.28,3.4-.27,5.11-1.62-5.82-2.68-11.64-2.94-18.05,0-.19-.32-.22-.34-.03-.9,7.54,.91,15.45,3.75,22.62,.11,.48,.24,.95,.39,1.41-.26-.26-.51-.54-.76-.84-.87-1.32-1.72-2.66-2.56-4.02-2.47-5.08-3.66-11.69-3.88-16.21Zm-24.86-7.67c2.41,.12,4.82-.05,7.24,.38,2.56,.46,4.83,2.19,6.95,4.1-2.3-1.33-4.8-2.15-7.1-1.33-.18,.06-.09,.32,.09,.28,2.81-.6,5.27,.76,7.62,2.35-.3-.07-.6-.15-.9-.21-5.18-1.17-9.51-2.91-13.91-5.58Zm-8.72-26.89c-1.49-1.56-2.77-3.23-3.9-5.06-.78-1.28-1.3-2.68-1.77-4.1-.45-1.36,1.37,.13,1.82,.39,5.6,3.23,7.91,10.41,11.43,15.78-1.07-.96-2.19-1.88-3.35-2.76-1.41-1.43-2.86-2.81-4.24-4.25Zm-12.71-5.99c-5.61-4.28,3.93,.94,4.19,1.13,1.55,1.11,2.94,2.41,4.32,3.71-.94-.48-1.89-.96-2.87-1.4-.29-.13-.53,.3-.23,.44,1.93,.96,3.74,2.03,5.48,3.15,.68,.59,1.37,1.17,2.1,1.7,.13,.09,.26,.03,.31-.08,.53,.38,1.06,.76,1.58,1.15,1.38,1.36,2.83,2.66,4.27,3.96-5.06-3.71-10.31-7.18-15.36-10.89-1.27-.94-2.54-1.9-3.79-2.86Zm20.28,14.59s.09-.03,.13-.06c.29,.28,.6,.55,.89,.84-.34-.26-.68-.52-1.02-.77Zm5.37-9.99c2.79,4.71,2.31,10.44,3.22,15.76-.53-1.47-.97-2.95-1.35-4.51-.54-2.21-.84-4.5-1.84-6.56-.09-.19-.41-.08-.38,.12,.2,1.54,.47,3.22,.85,4.9-.51-1.28-1.01-2.56-1.48-3.86-.96-2.66-1.78-5.38-2.59-8.09-1.45-4.83,2.78,.91,3.56,2.23Z"/>
        <path class="cls-1" d="M70.79,179.64c.29,.22,.68-.19,.39-.42-.86-.68-1.69-1.24-2.54-1.72,0,0,0,0,0,0-.32-.4-.66-.77-1.01-1.12,.19-.05,.33-.24,.2-.47-.99-1.79-2.25-3.12-3.71-4.11,.02-.05,.02-.11-.02-.15-.27-.25-.54-.5-.82-.75-5.42-6.02-13.59-12.71-21.34-9.63-.32,.13-.49,.7-.07,.85,5.29,2,10.19,4.65,15.15,7.25-6.82-.86-14.91,.8-20.73-.42-.54-.11-.82,.64-.33,.9,5.23,2.79,10.15,5.44,16.04,6.44,6.88,1.17,12.66-1.34,18.81,3.35Zm-10.61-9.63c-1.52-.98-3.09-1.88-4.68-2.74,2.17,.85,4.14,1.88,6.07,3.08,.07,.07,.14,.13,.21,.2-.52-.21-1.05-.39-1.59-.54Zm-14.58-7.45c-1.57-.65-3.9-.81-.28-1.09,4.92-.38,9.62,2.91,13.74,6.56-1.34-.68-2.76-1.18-4.23-1.39-.12-.01-.18,.07-.18,.16-.82-.43-1.64-.86-2.46-1.28-2.15-1.09-4.36-2.04-6.58-2.97Zm-5.17,8.59c-1.49-.76-4.56-.99-1.53-.79,2.67,.17,5.32,.1,8-.01,7.2-.29,14.01-.5,19.24,4.71-4.26-3.31-10.07-4.19-15.29-2.5-.2,.07-.1,.34,.1,.3,6.17-1.21,11.54,.31,16.36,4-1.7-.73-3.51-1.12-5.64-1.24-8.01-.42-13.89-.71-21.23-4.47Z"/>
      </g>
      <g>
        <path class="cls-1" d="M119.47,161.06c-2.03-.09-3.94,.74-5.7,1.75,2.92-3.15,5.27-6.8,6.2-10.87,.09-.4-.25-.73-.64-.64-1.2,.26-2.27,.78-3.26,1.47,.11-.21,.23-.41,.34-.62,.29-.55-.34-1.38-.94-.94-2.15,1.6-3.99,3.62-5.55,5.86,.57-1.45,.97-2.97,1.17-4.52,1.51-5.83,2.87-11.65,2.71-17.75-.01-.48-.68-.56-.82-.11-.41,1.3-.37,.89-.19,2.19,.03,.2,.33,.18,.37,0,.58-2.34-.18,.64-.19,1.17-.05,2.6-.54,5.18-1.05,7.72-.22,1.1-.47,2.2-.72,3.3-.14-2.25-.72-4.45-1.82-6.44-.15-.27-.47-.31-.72-.19-2.58,1.18-3.54,3.73-3.91,6.6-.5-1.9-1.34-3.69-2.76-5.27-.27-.3-.7-.11-.82,.22-1.39,3.74-1.02,7.47-.1,11.19-1.59-2.37-3.62-4.4-6.05-5.83-.32-.19-.78,.05-.77,.44,.22,5.17,3.22,9.23,5.98,13.43-2.51-2.41-5.56-4.38-8.56-5.47-.42-.15-.79,.3-.69,.69,.78,3.03,2.85,5.31,5.16,7.32,2.07,1.79,4.52,3.7,6.99,4.89,.2,.09,.5-.12,.34-.34-1.35-1.84-3.78-3.1-5.54-4.51-2.24-1.79-4.42-3.82-5.49-6.5,4.6,2.06,7.43,5.81,10.89,9.33,.16,.35,.31,.71,.45,1.07,.14,.36,.65,.22,.58-.16-.02-.1-.05-.2-.07-.31,.1,.04,.21,.04,.32,0-1.7,5.26-4.19,10.18-6.55,15.19,.85-5.46-4.6-10.38-8.71-13.2-.38-.26-.81,.16-.72,.55,1.36,5.9,4.89,10.6,8.07,15.59-1.57,3.49-2.99,7.07-3.94,10.89-.13,.52,.58,.68,.78,.21,1.67-3.96,3.66-7.95,5.61-12.01,5.83-2.62,11.47-5.31,15.47-10.52,.28-.36-.18-.81-.55-.71-3.55,.9-6.86,2.44-9.97,4.35-.82,.51-1.7,1.08-2.54,1.7,1.49-3.34,2.83-6.72,3.84-10.17,6.12-.63,12.21-3.38,14.51-9.47,.11-.29-.17-.57-.44-.58Zm-9.27,4.03c-1.15,.79-2.3,1.69-3.21,2.7-.3,.23-.59,.46-.89,.68,.08-.33,.14-.66,.21-.99,1.88-1.98,3.37-4.35,4.87-6.61,1.89-2.86,4.14-6.92,7.54-8.27-1.35,4.79-4.72,9.02-8.52,12.49Zm-.31-5.29c.85-1.47,1.79-2.88,2.89-4.18-.92,1.42-1.9,2.81-2.89,4.18Zm-8.34-6.83c-.46-2.15-.51-4.18-.21-6.35,.47-3.39,2.12,1.64,2.25,2.04,1.04,3.14,.75,6.76,.73,10.02,0,.64,1.05,.82,1.15,.16,0-.05,.01-.1,.02-.16h0v-.03c.56-4.14-.02-8.36,1.16-12.42,1.11-3.84,2.82-1.32,3.35,.73,.56,2.2,.15,4.74-.29,6.9-.48,2.39-1.56,4.62-2.52,6.86,.04-1.08,.05-2.16-.02-3.25-.02-.3-.47-.31-.47,0-.04,2.79-.41,5.44-1,7.99-.09,.25-.2,.5-.28,.76-.13,.2-.26,.39-.38,.59-.04-.3-.08-.6-.13-.9-.21-2.31-.79-4.62-1.69-6.79-.6-2.03-1.2-4.07-1.65-6.14Zm-3.88-.43c1.57,1.44,2.71,3.29,3.73,5.13,.5,.9,.92,1.84,1.27,2.81,.16,.5,.32,.99,.48,1.49,.55,1.93,.83,3.93,.87,5.92-.03-.06-.07-.12-.11-.18-1.75-5.37-6.47-9.47-8.19-14.92-.94-2.96,.38-1.69,1.95-.26Zm-.71,32.55c-.67-2.18-1.78-4.24-2.75-6.3-.13-.28-.61-.08-.49,.21,.7,1.8,1.3,3.64,1.98,5.46-2.26-3.71-4.52-7.46-5.73-11.61,4.26,3.15,7.22,6.82,6.99,12.24Zm15.83-8.47c-3.68,4.04-8.37,6.04-13.06,8.65,.16-.33,.32-.67,.47-1,3.76-3.34,7.71-6.1,12.59-7.65Zm5.7-13.88c-.41,.89-1.03,1.69-1.65,2.42-.96,1.14-2.22,2-3.49,2.77-2.33,1.41-5.04,2.16-7.73,2.49,.07-.24,.12-.49,.19-.73,.05,.21,.28,.38,.5,.23,3.93-2.72,7-6.45,11.79-7.82,1.09-.4,1.23-.19,.4,.64Z"/>
        <path class="cls-1" d="M109.54,141.63c-.05,.28,.35,.4,.43,.12,.7-2.53,1.67-8.11-.93-9.93-.14-.09-.31,.06-.27,.21,.4,1.41,.97,2.58,1.13,4.07,.19,1.84-.02,3.73-.36,5.53Z"/>
        <path class="cls-1" d="M124.53,150.88c-.77,1.01-1.01,2.49-1.62,3.62-.73,1.36-1.83,2.39-3.22,3.05-.44,.21-.06,.86,.38,.65,1.43-.65,2.49-1.65,3.35-2.95,.73-1.1,1.66-2.91,1.55-4.26-.02-.25-.3-.31-.45-.12Z"/>
        <path class="cls-1" d="M99.11,150.03c-.96-1.66-1.61-3.39-2.03-5.25-.42-1.85-.17-3.67-.4-5.51-.04-.3-.44-.39-.54-.07-1.11,3.54,.58,8.14,2.42,11.16,.21,.35,.75,.04,.55-.32Z"/>
      </g>
      <g>
        <path class="cls-1" d="M105.36,49.56c.22,.49,1.04,.44,.99-.18-.07-.7,.32-1.45,.9-2.19,.12,.19,.45,.24,.56-.01,.15-.34,.27-.68,.38-1.03,.37-.36,.76-.7,1.16-1.04-.22,.4-.44,.79-.66,1.17-.24,.4,.39,.71,.64,.32,.54-.87,1.07-1.77,1.57-2.7,.55-.4,1.04-.76,1.37-1.02,.12-.09,.25-.18,.36-.27-1.8,2.28-3.42,4.71-5.05,7.13-.09,.14-.09,.27-.06,.41-.28,.11-.57,.19-.84,.33-.53,.26-.03,1.01,.48,.76,3.98-1.9,9.9-.62,13.29-3.9,.68-.66,3.38-4.27,1.36-5.08-1.84-.73-4.3,1.12-5.77,2-1.99,1.19-3.94,2.89-6.01,4.12,2.54-3.78,5.19-7.51,8.83-10.31,.65-.5,0-1.57-.68-1.08-2.02,1.48-4.09,2.92-6.1,4.43,1.02-2.38,1.69-4.9,1.57-7.44-.02-.57-.71-.78-1.1-.39-2.89,2.88-5.09,7.6-5.36,11.85-1.3,1.24-2.45,2.75-1.84,4.1Zm12.92-5.06c.13-.07,3.04-1.71,2.82-.53-.47,2.49-2.93,3.5-5.08,4.11-1.48,.42-3,.65-4.51,.94,2.29-1.44,4.47-3.25,6.76-4.52Zm-8.82-2.97c.63-2.14,1.63-4.08,2.98-5.8-.09,2.36-.83,4.68-1.82,6.88-.36,.28-.72,.56-1.07,.85-.2,.17-.47,.38-.76,.62,.21-.85,.41-1.71,.66-2.55Z"/>
        <path class="cls-1" d="M109.38,51.72c3.69,.47,10.19,5.49,8.94,9.83-3.18-2.18-4.82-5.92-7.32-8.79-.53-.6-1.36,.33-.84,.93,2.38,2.75,4.29,6.97,2.46,10.44-3.67-2.33-3.03-7.16-4.24-10.88-.11-.33-.61-.31-.68,.04-.89,4.22,.85,10.35,4.88,12.35,.35,.17,.69,0,.89-.29,1.22-1.84,1.4-3.88,1-5.88,1.08,1.36,2.29,2.61,3.87,3.52,.27,.15,.65,.01,.79-.26,2.43-5.23-4.9-11.41-9.56-11.94-.61-.07-.82,.86-.2,.94Z"/>
        <path class="cls-1" d="M103.99,61.87c-.44-1.13-.66-2.7-1.84-3.27-.26-.13-.58,.02-.65,.31-.32,1.41,.86,3.41,1.46,4.66,.83,1.73,1.88,2.94,3.72,3.56,.33,.11,.71-.13,.85-.41,1.93-3.65-1.19-7.53-4.2-9.39-.32-.19-.72,.25-.5,.55,1.55,2.08,4.47,4.6,3.58,7.42-1.25-.75-1.86-2-2.43-3.43Z"/>
        <path class="cls-1" d="M103.58,34.87c.16,.4,.5,.54,.91,.47,.11-.02,.19-.09,.26-.16,.11,.1,.29,.13,.42-.01,1.37-1.48,2.77-3.05,3.82-4.8-.36,1.33-.56,2.96,.22,4.02,.17,.23,.52,.18,.6-.11,.32-1.12,.05-2.34,.28-3.5,.24-1.26,.86-2.38,1.72-3.29-.16,2.85-1.19,5.59-2.54,8.1-.2,.38,.38,.66,.59,.3,1.73-2.96,3.11-6.27,3.15-9.73,0-.42-.52-.68-.87-.45-.71,.5-1.33,1.12-1.84,1.81,.11-.35,.21-.7,.27-1.06,.09-.44-.25-.84-.69-.82-4.09,.1-7.73,5.37-6.29,9.24Zm5.46-7.69c-.62,2.75-2.26,5.14-4.07,7.29,0-.01,0-.02,0-.04-.88-2.81,1.2-6.45,4.08-7.25Z"/>
        <path class="cls-1" d="M98.07,24.02c3.92-2.51,8.97-4.36,11.13-8.78,.26-.53-.23-1.04-.77-.9-3.7,.92-6.31,3.85-8.63,6.72-.24,.3-.16,.62,.03,.83-.77,.46-1.53,.91-2.23,1.39-.48,.32-.01,1.06,.47,.75Zm9.02-7.79c-1.29,1.76-3.13,3.11-5.05,4.31,1.54-1.66,3.05-3.3,5.05-4.31Z"/>
        <path class="cls-1" d="M87.73,13.69c-.12,.2-.25,.42-.37,.62-.3,.51,.49,.89,.81,.41,2.41-3.69,5.28-8.02,3.59-12.55-.13-.35-.55-.67-.95-.5-3.99,1.82-6.13,8.5-3.09,12.02Zm2.82-10.18c.72,3.01-.55,6.1-2.06,8.85-.75-3.1-.88-6.95,2.06-8.85Z"/>
        <path class="cls-1" d="M91.55,15.02c1.65-1.78,3.03-4.38,5.29-5.49-.15,2.46-1.8,4.3-4.12,5.19-.59,.22-.46,1.1,.19,1.08,3.35-.09,5.39-4.24,5.09-7.18-.04-.36-.38-.64-.75-.52-2.94,.99-4.28,4.28-6.12,6.52-.24,.29,.17,.66,.42,.38Z"/>
        <path class="cls-1" d="M32.25,22.07c-1.04,3.82,2.75,8.23,6.87,9.97-3.44,.75-6.67,1.9-8.59,5.23-.23,.39,.05,.85,.45,.95,3.82,.93,7.29-.74,10.62-2.62-1.73,1.16-3.68,2.22-4.5,2.93-.34,.3-.68,.61-1.01,.92-.24-.17-.6-.18-.77,.16-.11,.21-.25,.43-.4,.64-.09-.08-.21-.15-.38-.15-3.45-.07-7.24,1.08-9.2,4.09-.18,.28,.01,.61,.25,.76,2.1,1.34,5.13,.33,7.49-1.37-.46,1.08-.7,2.27-.6,3.57,.03,.45,.52,.7,.91,.47,4.49-2.69,8.37-6.85,10.88-11.53-.32,2.35,.85,4.73,2.3,6.87-.05,.09-.07,.2,0,.32,1.62,2.53,3.87,5.76,2.85,8.84-1.38-2.02-1.03-4.5-2.12-6.7-.15-.31-.64-.18-.71,.13-.56,2.78,.58,6.34,2.57,8.3,.31,.3,.82,.16,1.02-.19,1.23-2.2,.87-4.4-.11-6.43,1.51,1.53,3.13,2.98,4.66,4.44,3.72,3.56,6.84,7.73,10.16,11.68-.84,17.37,.55,35.04,3.53,52.56-4.92-14.75-12.13-28.53-25.85-34.9-.65-.3-1.22,.29-1.09,.93,2.55,12.87,8.26,24.91,15,36.07,3.35,5.54,7.87,10.28,11.56,15.6,4.49,6.48,5.03,14.65,8.85,21.45,.07,.12,.18,.16,.3,.16,.04,.14,.09,.29,.12,.44,.06,.22,.31,.15,.37-.02,.42,1.41,.85,2.81,1.28,4.22-.38,.44-.08,.98,.34,1.13,4.07,13.28,8.71,26.23,13.63,38.6,.13,.32,.64,.16,.52-.17-4.37-11.76-8.39-23.61-11.93-35.62,.13-.04,.25-.14,.22-.29-.23-1.41-.34-2.8-.4-4.18,13.01-14.7,21.58-32.33,22.48-52.13,.04-.85-1.06-.85-1.43-.3-6.69,9.83-11.91,19.54-16.76,30.19,1.53-4.47,3.21-8.91,4.53-13.39,4.06-13.69,2.72-28.88,3.79-42.93,.04-.53-.67-.83-1.07-.55-10.6,7.22-13.91,21.76-14.55,33.83-.46,8.68-.19,17.32,.08,25.99,.11,3.57-.39,7.34-.42,11.02-.32-1.2-.64-2.4-.94-3.6,.1-.06,.17-.16,.13-.3-.5-1.66-.99-3.39-1.46-5.16-1.16-4.8-2.25-9.61-3.22-14.46-4.07-20.21-4.84-40.2-5.14-60.48,7.43-1.24,24.12-5.69,26.29-14.69-.98,4.93-1.26,9.99,1.52,14.41,.21,.33,.68,.37,.95,.08,3.82-4.14,1.85-11.18-.88-15.83,.1,.06,.22,.17,.43,.36,1.14,1.1,2.32,2.14,3.55,3.12,1.53,1.21,3.2,2.13,5.18,2.06,2.32-.09,3.01-2.66,1.72-4.12-1.56-1.76-5.1-2.53-7.94-2.82,4.52-2.91,9.01-6.46,11.08-11.48,.18-.44-.09-1.1-.66-1.02-3.95,.58-7.15,3.04-9.7,6.08,.61-2.75,.71-5.64,.65-8.46-.02-.68-.8-.82-1.23-.44-.99,.86-1.78,1.84-2.42,2.88-.91-2.47-2.78-4.2-4.97-5.54,4.4-.2,8.83-1.4,10.77-5.77,.24-.53-.05-.99-.56-1.17-.03-.01-.06-.01-.09-.02,.02-.01,.04,0,.06-.02,1.16-1.04,3.31-1.98,4.72-.87,1.28,1-.57,.85-1.22,.76-.2-.03-.44,.01-.58,.19-.11,.14-.19,.25-.16,.44,.04,.29,.19,.47,.48,.56,.88,.28,2.12,.35,2.81-.4,.58-.63,.29-1.56-.21-2.12-.63-.71-1.58-1.04-2.52-1.02-1.55,.05-2.67,1.07-3.69,2.13-.1,.1-.08,.2-.02,.29-3.17-.88-6.33,.65-9.38,1.89,2.62-3.05,5.1-6.23,5.88-10.27,.12-.63-.57-1.13-1.12-.78-2.25,1.43-4.34,3.17-6.14,5.16,.29-1.71,.36-3.47,.16-5.22-.07-.63-.65-.88-1.2-.62-3.63,1.76-5.83,6.21-6,10.45-.73-.05-1.56,.31-2.37,1.32-.21,.27-.36,.57-.48,.87-.66-.71-1.45-1.32-2.35-1.8,4.91-.77,7.32-8.81,7.57-13.03,.03-.5-.62-.77-1-.52-1.64,1.07-3.09,2.33-4.47,3.67,1.68-3.6,2.56-7.45,1.44-10.5-.16-.44-.75-.76-1.17-.42-3.27,2.55-5.4,6.04-6.54,9.88-.4-1.44-.96-2.82-1.78-4.06-.23-.35-.71-.48-1.08-.24-.94,.63-1.65,1.39-2.15,2.24,.51-1.8,.76-3.64,.26-5.45-.09-.35-.52-.58-.86-.45-.15,.06-.27,.14-.41,.2-.12-.62-.23-1.24-.11-1.93,.14-.77,.82-1.46,1.66-1.15,.4,.15,.66,.64,.86,.98,.96,1.56,1.32,3.5,1.8,5.25,.12,.44,.75,.21,.66-.21-.11-.51-.21-1.01-.32-1.51,.25,.34,.53,.62,.84,.78,0,.39,.53,.62,.76,.2,.02-.04,.04-.08,.06-.12,.1-.06,.18-.14,.21-.25,.01-.07,.01-.13,.01-.19,1.24-2.54,2.01-5.61,.95-8.28-.18-.46-.66-.65-1.11-.4-1.74,.96-2.79,2.45-2.86,4.41-.36-.79-.89-1.56-1.67-1.71-1.3-.26-2.49,.38-2.87,1.7-.26,.87-.35,2.15,.08,3.08-.77,.59-1.38,1.35-1.74,2.36-.46,1.27-.57,3.37,.66,4.22,.21,.14,.52,.1,.57-.18,.19-.93-.15-1.83-.07-2.78,.1-1.2,.79-2.15,1.75-2.75,.44,2.63-.52,5.35-1.32,7.85-.15,.47,.63,.75,.81,.29,.16-.42,.32-.84,.48-1.27-.31,2.49,.64,5.18,2.47,7.09-.88-.5-2.05-.56-3.16-.23-.76,.22-1.61,.78-1.82,1.58-.19,.72,.12,1.58,.93,1.61-2.44,1.07-4.77,2.87-6.36,4.41,3.63-5.6,8.1-14.11,3.71-16.32-1.86-.94-3.43,.29-4.66,2.43,.03-.11,.07-.21,.11-.31,.1-.1,.18-.22,.2-.37,.01-.11,.03-.24,.04-.38,1.49-4.23,3.74-9.11,1.89-13.32-.15-.34-.54-.67-.94-.49-2.84,1.25-3.66,3.74-3.66,6.48-.17,.01-.34,.02-.53,.07-1.65,.4-2.48,1.61-2.82,3.1-.44-.41-.95-.78-1.57-1.03-.51-.21-.98,.42-.57,.83,.81,.79,1.46,1.57,1.94,2.41,.04,1.71,.45,3.46,.87,4.63,.13,.36,.56,.49,.9,.4-.12,.47-.19,.95-.28,1.44-.94-2.45-2.19-4.22-3.84-4.07-.37,.04-.69,.12-.97,.25-.2-.4-.35-.82-.48-1.24-.32-1.11-.27-2.18-.26-3.31,0-.28-.45-.4-.56-.12-.39,1.07-.45,2.32-.25,3.44,.1,.57,.28,1.37,.61,2.01-.97,1.29-.82,3.5-.31,4.96,1.12,3.21,3.51,6.67,6.11,9.14-2.73,.26-5.05,1.5-6.9,3.53-.3,.32,.19,.76,.5,.45,1.53-1.53,3.5-2.35,5.6-2.64-.44,1.1-1.28,1.91-2.41,2.43-.02,.01-.04,.02-.07,.03-1.12,.5-2.53,.06-3.52,.66-.16,.1-.23,.35-.11,.5,.31,.39,.76,.56,1.27,.62-.89,1.16-.91,2.59,.17,3.85,1.18,1.37,3.05,.37,4.76-1.26-.3,1.73-.36,3.51-.29,5.2,.02,.48,.56,.73,.95,.49,3.12-1.87,5.12-7.49,3.23-10.78,.05-.1,.1-.2,.13-.28,.07-.18,.07-.36,.03-.51,.38-.54,.82-1.18,1.28-1.87,.06,.24,.27,.45,.55,.46,2.83,.12,5.42-.66,7.94-1.75-1.41,1.44-2.71,2.97-3.78,4.73-.04,.08-.04,.15-.05,.22-.09-.05-.16-.13-.26-.18-.38-.21-.63,.36-.3,.59,2.1,1.44,2.76,4.52,2,6.91-2.35-2.02-2.2-5.24-3.04-8.06-.04-.13-.12-.19-.19-.26,.02-.54,.05-1.07,.05-1.61,0-.75-1.11-.67-1.14,.06-.23,4.8-1.12,9.88-.05,14.62,.92,4.1,2.78,7.75,4.48,11.51-.1,1.34-.18,2.69-.26,4.03-3.64-4.52-7.1-9.14-11.29-13.2-3.73-3.62-9.55-8.5-7.59-14.38,.28-.09,.52-.37,.43-.71-.02-.14-.09-.26-.12-.39-.01-.05-.02-.09-.04-.14-.07-.25-.13-.49-.22-.72,.19-.08,.37-.21,.43-.46,.48-1.97,.71-4.01,1.48-5.87,.99,1.53-.09,3.29-.51,5.04-.07,.27,.29,.57,.53,.37,2.2-1.82,2.47-5.31,.24-7.15-.34-.29-.84-.2-1.06,.2-.42,.75-.7,1.55-.93,2.36-.07-.79-.12-1.58-.23-2.37-.27-1.89-.62-5.23-2.69-6.07-2.15-.87-3.54,1.93-3.41,3.63,.08,1,.42,1.92,.86,2.81-2.47-1.38-4.97-2.71-7.69-3.57-.4-.13-.79,.22-.88,.58Zm33.22,105.49c-8.14-10.63-14.38-21.4-19.15-34.01-2.07-5.48-6.05-14.02,3.44-6.12,5.87,4.88,9.63,12.58,13.1,19.22,3.14,6.01,5.37,12.32,7.33,18.74,1.05,5.16,2.23,10.31,3.51,15.42-2.12-5.95-4.69-11.76-7.34-17.48-6.09-13.14-11.57-26.87-20.78-38.19-.37-.45-1.12-.01-.78,.5,9.8,14.99,18.62,31.17,25.28,48.07-2.41-5.23-5.45-10.12-8.27-15.25-4.82-8.78-9.54-17.79-14.01-26.77-.18-.35-.74-.07-.62,.29,4.97,15.12,16.19,27.82,22.57,42.43-1.19-2.32-2.56-4.61-4.28-6.85Zm7.64,14.69c.03-.06,.05-.13,.03-.21-.02-.05-.03-.11-.05-.16,.62,1.8,1.25,3.6,1.82,5.42-.6-1.71-1.19-3.39-1.8-5.05Zm7.59,18.66c-.06-.21-.12-.42-.18-.64,.03-.04,.06-.07,.09-.11,.03,.25,.05,.5,.08,.75Zm6.85-24.99c4.03-8.98,8.45-17.02,14.02-25.17-.59,.87-.57,7.82-.87,9.31-1.07,5.33-3.1,10.44-5.27,15.41-3.47,7.94-8.49,15.15-14.12,21.73,0-.17,0-.35,.01-.52,2.95-9.05,9.85-16.37,11.79-25.67,.1-.49-.58-.72-.82-.28-3.45,6.45-7.84,13.36-10.47,20.56,.26-1.64,.59-3.26,.98-4.88,1.39-3.66,3.26-7.21,4.74-10.49Zm-1.28-4.08c-1.57,4.65-3.22,9.26-4.36,13.93-1.3,3.57-2.15,7.23-1.68,10.97-.07,.31-.09,.61-.15,.92-.15-.96-.28-1.93-.34-2.9,.46-11.54,3.82-24.2,6.15-35.11,1.42-6.64,2.51-13.28,3.6-19.99,.64-4.01,1.83-7.86,2.6-11.78,0,.11,0,.2-.01,.31-.81,14.97-.95,29.29-5.81,43.65Zm-6.53-12.95c.2-6.54,.98-12.8,2.52-19.17,.58-2.39,7.42-16.99,9.35-15.02-2.74,14.09-5.85,28.14-8.53,42.26-.9,4.72-2.16,9.88-3.09,15.1,.01-.7,.02-1.41,0-2.1-.15-7.04-.47-14.03-.25-21.07ZM73.47,7.51c-.38-.64-.71-1.27-.91-2.01-.39-1.46,.21-2.69,1.26-3.57,.47,1.81,.22,3.78-.35,5.58Zm-19.26,4.72c.09-.91,.36-1.79,.93-2.57,.42-.58,.91-.72,1.33-.58,.15,1.52,.46,3.05,.76,4.46-.35-.08-.75,.08-.97,.42-.5,.76-.87,1.6-1.19,2.49,.02-1.46-.23-2.95-.86-4.22Zm5.61-9.41c.77,2.59,.15,5.53-.69,8.37-.14-1.32-.5-2.58-1.27-3.24-.08-2.1,.35-4.03,1.96-5.13Zm-2.84,13.39c.27,.68,.46,1.41,.6,2.19-.81,2.15-1.38,4.61-1.71,6.78-.09-.46-.18-.92-.28-1.39-.03-2.68,.35-5.36,1.38-7.58Zm.62,8.03c-.09,.57-.22,1.12-.36,1.66,.1-.56,.22-1.12,.36-1.66Zm-8.26-5.16c-.3-2.24,1.46-2.26,2.35-.8,.99,1.64,1.77,3.68,2.35,5.81,.05,1.38,.2,2.74,.43,4.04-1.06-1.28-2.07-2.61-2.98-4.01-.99-1.53-1.9-3.21-2.15-5.04Zm3.59,18.19c-.69,.69-1.62,1.58-2.63,1.73-1.27,.18-.82-1.82-.36-2.33,1.28-1.39,3.46-1.88,5.1-2.69,.92-.45,1.25-1.67,.1-1.99-.13-.04-.25,0-.35,.05,.1-.3,.21-.59,.26-.92,0-.04,0-.09,0-.14,.03,.03,.07,.06,.11,.1,.05,.18,.1,.39,.15,.56,.25,.77,1.48,.57,1.41-.26-.02-.21-.04-.49-.07-.8,.2-.07,.39-.17,.51-.35,1.84-2.81,2.63-7.27,2.17-11.21,.29-.66,.6-1.32,.94-1.96,.73-1.37,2.85-3.47,3.14-.55,.3,3.12-2.03,6.87-3.39,9.55-1.22,2.43-2.59,4.81-4.07,7.1-.58,.72-1.04,1.5-1.39,2.33-.53,.62-1.09,1.22-1.63,1.77Zm1.69,5.21c.01-2.05,.26-4.2,1.02-6.11,.52-.66,.97-1.3,1.33-1.87,.49,2.69-.31,6.1-2.35,7.97Zm12.52,8.18c0-.22-.12-.38-.28-.47-.28-5.84-.3-11.78,1.87-17.14,.89-.67,1.66-1.44,2.36-2.24-.88,3.68-1.15,7.57-.43,11.17,.07,.34,.57,.51,.84,.3,3.26-2.5,4.44-6.88,4.12-11.08,.17,.17,.33,.34,.5,.51-.27,10.76-2.97,20.62-8.6,30.02-.07-.21-.17-.42-.24-.64-.05-3.47-.08-6.94-.13-10.44Zm1.34-20.27c-.38,.62-.71,1.24-1.01,1.9-.48,.37-.99,.7-1.53,.98,.78-1.02,1.63-1.97,2.54-2.88Zm-1.8,3.94c-.29,.88-.53,1.79-.7,2.72-.35-.73-.84-1.38-1.45-1.93,.72-.17,1.44-.44,2.14-.79Zm4.8-10.16c-.1-.36-.27-.66-.45-.92,.26,.2,.52,.4,.8,.56,.31,.19,.61,.05,.8-.18,0,.04,0,.08,.01,.12-.24,.32-.16,.67,.06,.89,0,0,0,.01,0,.02,0,0-.01,0-.02,.02-.11,.1-.15,.21-.18,.32-.4-.21-.83-.33-1.26-.43,.16-.05,.28-.2,.23-.39Zm5.36,2.63c-.32-.09-.74,.11-.73,.52,.03,.8,0,1.57,0,2.36-.33-.39-.65-.79-.93-1.2-.2-.83-.46-1.64-.78-2.4,.86,.13,1.68,.37,2.43,.73Zm-2.43,2.99c.58,3.96,.08,8.24-2.79,10.92-.54-4.14,.23-8.66,1.69-12.63,.31,.6,.68,1.16,1.1,1.7Zm11.02,3.49c1.31,3.25,1.45,7.35,.53,10.72-1.53-3.3-1.16-7.1-.53-10.72Zm-5.1,2.19c.13,.11,.3,.16,.47,.16,.13,.39,.26,.8,.36,1.22-.45,.65-.8,1.42-1.08,2.06-.62,1.42-.83,2.98-.78,4.52,.01,.47,.55,.74,.94,.49,2.32-1.48,2.54-3.78,2.05-6.09,.36-.5,.68-1.01,.8-1.59,.07-.33-.26-.66-.59-.54-.25,.09-.46,.26-.67,.43-.11-.33-.23-.65-.36-.97,.29-.78,.45-1.55,.51-2.27,.68,.44,1.43,.55,2.11,.14-.34,2.16-.59,4.38-.47,6.54-.14-.03-.3,0-.38,.18-3.71,9.24-9.42,15.98-15.58,23.31,6.04-8.05,10.36-19.32,10.18-29.73,.85,.74,1.71,1.46,2.49,2.16Zm.93,4.02c.06-.15,.15-.28,.23-.42,.01,1.02-.21,2-.84,2.81,.11-.81,.28-1.6,.6-2.38Zm6.82,16.24c.99-1.31,2.35-2.31,3.91-2.81-.19,.37-.38,.73-.6,1.08,.02-.25-.29-.48-.51-.3-.99,.82-1.7,1.68-2.79,2.04Zm5.07-5.78c-2.06,.94-3.35-.74-3.85-5.16,.49-1.79,1.78-2.64,3.88-2.56,.33,.41,.58,.89,.79,1.4-.08,1.77,.14,3.57,.64,5.33-.16,.14-.31,.25-.46,.37-.02-.03-.05-.06-.06-.09-.38-.51-1.23,.02-.86,.55,.02,.03,.03,.06,.05,.09,0,0-.01,0-.01,0-.05,.01-.08,.03-.12,.06Zm5-13.46c0,3.71-.4,7.5-2.19,10.79-.12-.74-.3-1.57-.54-2.42-.12-3.03,.71-5.98,2.73-8.36Zm-4.23,14.54c-.07,.28-.13,.56-.19,.84,.05-.26,.06-.53,.08-.8,.03-.02,.07-.03,.11-.05Zm.45,9.69c-.36-2.62,.11-5.34,.57-7.91,0,0,0,0,0-.01,1.19,2.56,1.84,5.33,2.03,8.18,.26,3.97-2.12,3.21-2.59-.26Zm7.62-6.11c-1-.56-1.93-1.21-2.8-1.95-.67-.53-1.31-1.11-1.92-1.7,2.29,.23,4.64,.9,6.71,1.76,2.2,.9,1.53,1.52-1.99,1.89Zm-1.27-11.34c.99-1.08,2.08-2.04,3.26-2.9,1.03-.77,2.19-1.3,3.46-1.56-1.88,4.56-7.19,7.87-11.32,10.4,0-.03,.02-.06,.02-.1,0-.03,0-.08,0-.12,.23,0,.46-.09,.61-.33,1.14-1.96,2.47-3.7,3.96-5.39Zm-6.47-6.27c-2.65-.75-4.68-2.83-6.3-5.09,2.53,1.18,5.04,2.59,6.3,5.09Zm-5.59-20.21c.1,2.42-.32,4.8-1.18,7.03-.8,1.23-1.5,2.52-2.05,3.88-.37,.91,.79,1.46,1.33,.67,.84-1.21,1.52-2.52,2.06-3.87,1.7-2.58,3.91-4.84,6.41-6.69-1.32,3.78-4.18,6.96-6.9,9.82-.56,.59,.09,1.38,.78,1.23,3.3-.73,7.12-3.44,10.62-2.83-2.52,4.02-7.96,4.08-12.3,3.88-.28-.01-.49,.13-.62,.33-.03-.04-.06-.09-.09-.13-.2-.33-.75-.08-.62,.29,1.39,3.95,4.68,7.66,8.99,8.24-.42,.96-.74,1.95-.93,2.99-1.15-2.13-2.77-3.13-4.76-.17-1.65,2.45-2.22,5.18-1.83,7.24-.7,2.84-2.08,6.21-4.07,7.73-1.53,1.18-1.04-1.31-.78-1.88,.39-.86,.97-1.63,1.54-2.37,.65-.85,1.82-1.66,2.08-2.72,.05-.24-.14-.4-.35-.41-1.64-.09-3.25,3.05-3.95,4.24-.76,1.31-1.6,3.49,.18,4.31,2.65,1.22,4.77-3.7,5.86-7.41,.79,1.39,2.29,2.05,4.45,1.38-.01,.03-.01,.06-.02,.09-2.66,.4-4.93,2.17-6.21,4.55-.22,.42,.13,.83,.55,.85,.88,.03,1.78-.21,2.56-.64-5.43,5.52-15.48,8.44-22.09,9.74,0-.15,0-.3,0-.44,.18-.13,.29-.4,.1-.62-.04-.05-.08-.09-.11-.14,0-.02,0-.05,0-.07,6.78-6.63,14.75-14.48,16.43-23.97,.25,1.76,.78,3.46,1.83,5.02,.24,.36,.91,.42,1.09-.05,1.71-4.56,1.41-9.82-.99-14,.07-.37,.14-.73,.2-1.09,.1-.55-.39-.87-.82-.82,.5-1.52,.1-3.16-.76-4.06,.03-3.46,1.7-7.15,4.36-9.1Zm-8.74,12.74c.11,.61,.34,1.2,.64,1.74,.13,.73,.06,1.54-.14,2.38-.87-.75-1.78-1.51-2.66-2.33-.11-1.43-.29-2.84-.59-4.22-.02-.12-.1-.18-.17-.24,1.25,.63,2.27,1.53,2.91,2.67Zm3.95-15.52c-.58,4.61-3.25,12.21-8.49,10.7-.29-.08-.59-.13-.9-.18,.03-.11,.06-.22,.1-.37,.03-.12-.02-.24-.1-.32,.44-.49,.89-1.03,1.34-1.61,2.51-2.93,5-5.86,8.06-8.22Zm-3.78-7.09c.81,4.58-2.52,10.79-5.65,14.74-.02,.02-.05,.05-.07,.08,0-.96-.03-1.92-.1-2.87,.55-4.52,2.41-8.81,5.82-11.95Zm-9.22,5.28c1.1,1.94,1.65,4.14,1.86,6.41-.16,1.34-.22,2.68-.17,4.03-3-2.62-5.18-7.42-1.7-10.44Zm-4.4,12.89c.1-.34-.09-.75,.02-1.04,.15-.38,.7-.55,1.05-.65,1.11-.34,2.74-.02,3.37,1.03,.02,.04,.06,.04,.09,.07-1.45-.25-3.04,.07-4.59,.71,.03-.03,.06-.06,.07-.1Zm-5.55,5.03c2.92-2.7,8.32-6.28,11.61-3.89-.39,.98-.73,1.99-1.04,3.03,0,0,0,0,0,0-.46,.24-.88,.53-1.29,.84,.09-.15,.16-.29,.25-.43,.22-.36-.05-.71-.39-.82,.49-.46,.99-.91,1.49-1.36,.59-.52-.22-1.32-.83-.99-3.12,1.69-6.27,3.35-9.79,3.61Zm1.19,17.8c-.88-3.07-.8-6.23-.58-9.39,.7,2.01,1.88,3.85,3.58,4.91,.11,.07,.25,.08,.38,.06,.02,2.38,.2,4.79,.41,7.13-.22,1.91-.36,3.83-.52,5.74-1.2-2.77-2.43-5.53-3.27-8.44Zm-29.78-10.89c2.49-3.19,6.79-3.62,10.65-4.3,.46-.04,.9-.11,1.32-.25,.17-.06,.27-.16,.36-.27,.06,0,.09-.04,.14-.06-.03,.07-.08,.1-.09,.18-.01,.11-.1,.23-.14,.34-3.82,2.01-7.85,4.9-12.23,4.37Zm-5.62,7.19c1.78-2.2,4.64-2.52,7.29-2.9-1.9,1.94-5.08,3.68-7.29,2.9Zm7.05,1.78c.51-4.1,4.35-6.75,7.59-8.98,.48-.33,1.13-.71,1.79-1.14-2.22,3.99-5.54,7.84-9.38,10.11Zm9.15-19.89c-.64-1.25-1.27-2.55-1.51-3.96-.18-1.1,.98-3.1,1.96-1.7,1.24,1.75,1.3,4.58,1.49,6.64,.14,1.59,.22,3.17,.29,4.76-.04,.01-.09,.02-.13,.04,.02-.05,.06-.09,.06-.17-.11-1.39-.69-2.69-1.32-3.95,.35-.28,.43-.87-.08-1.15-.24-.13-.47-.26-.71-.39-.02-.04-.04-.08-.06-.12Zm1.01,4.96s-.04,0-.07,0c-.31,.06-.62,.12-.93,.18-3.83,.34-9.44-4.16-9.34-8.03,3.03,1.1,5.73,2.81,8.62,4.22,.72,1.17,1.39,2.35,1.71,3.63Z"/>
        <path class="cls-1" d="M44.65,39.52c-.24-.59-1.18-.31-.96,.31,1.67,4.81,.23,11.18-1.74,15.9-2.99-3.85,2.13-10.13,1.44-14.23-.07-.41-.53-.51-.76-.16-1.53,2.27-1.95,6.29-2.37,8.95-.39,2.4-.44,5.22,1.49,6.97,.27,.24,.77,.18,.93-.18,2.25-5,4.12-12.27,1.98-17.55Z"/>
        <path class="cls-1" d="M34.96,31.64c-2.01,1.29-4.4,1.44-6.47,.46,1.45-.31,2.84-.17,4.42-.14,.74,.02,.68-.98,.1-1.18-1.98-.68-4.42-.28-6.25,.67-.42,.22-.29,.78,.04,.99,2.63,1.64,5.99,1.59,8.63-.06,.48-.3,0-1.04-.47-.74Z"/>
      </g>
    </g>
  </g>
</svg>