<?xml version="1.0" encoding="UTF-8"?>
<svg id="Layer_2" data-name="Layer 2" xmlns="http://www.w3.org/2000/svg" viewBox="0 0 102.42 95.1">
  <defs>
    <style>
      .cls-1 {
        fill: #fff;
      }
    </style>
  </defs>
  <g id="Layer_1-2" data-name="Layer 1">
    <g>
      <path class="cls-1" d="M45.38,47.82c-.49,2.06-.73,3.83-1.88,5.68-.59,.96-1.39,1.76-2.21,2.53-.53,.91-.76,.85-.68-.16-.03-.33-.05-.65-.06-.98-.14-3.18,.71-7.7,3.99-9.09,.24-.1,.07-.51-.18-.42-4.42,1.63-5.11,7.87-4.27,11.9,.06,.29,.4,.31,.6,.16,2.74-2.2,5.68-5.83,5.06-9.61-.03-.19-.33-.18-.37,0Z"/>
      <path class="cls-1" d="M34.22,48.99c-.57,.11-1.05,.54-1.19,1.1-.04,.16,.1,.3,.26,.26,.29-.07,.54-.22,.79-.39,.21-.14,.38-.15,.53-.08-.01,0-.03,0-.04,0,0,0,0,0,0,0-.02,0-.03,0-.05,0-.32-.02-.36,.45-.07,.54,.18,.06,.34,.15,.5,.25,.22,.13,.47,0,.55-.22,.02-.08,.06-.14,.11-.19,.16-.17,.14-.4,0-.57-.34-.41-.81-.79-1.38-.68Z"/>
      <path class="cls-1" d="M49.64,57.35c.21,.06,.41-.07,.47-.27,.14-.41,.21-.8,.22-1.24,0-.3-.35-.51-.6-.34-.13,.08-.32,.3-.46,.55,0,0,0,0,0,0-.69,.26-.12,1.17,.38,1.3Z"/>
      <path class="cls-1" d="M52.31,57.47c.11-.09,.21-.2,.32-.3,.06-.05,.12-.11,.18-.16,.01,0,0,0,.02-.01,.25-.02,.47-.21,.36-.51,0-.01,0-.02-.01-.03-.01-.03-.04-.05-.06-.08-.02-.03-.03-.06-.06-.08-.03-.03-.06-.06-.09-.08-.37-.29-1.04-.28-1.32,.09-.04,.05-.04,.16,0,.21,.01,.02,.03,.03,.05,.04-.04,.2-.07,.41-.1,.61-.04,.4,.47,.5,.71,.3Z"/>
      <path class="cls-1" d="M44.61,57.94c-.14,.01-.27,.2-.13,.31,1.35,1.09,3.88,.75,5.34,.01,.15-.08,.07-.3-.08-.31-.85-.04-1.71,.1-2.56,.12-.86,.02-1.7-.22-2.56-.14Z"/>
      <path class="cls-1" d="M49.52,54.94c.11-.58,.12-1.17,.16-1.75,.06-.76,.24-1.52,.19-2.28,0-.14-.18-.19-.26-.07-.71,1.08-.66,2.88-.42,4.1,.03,.16,.3,.16,.33,0Z"/>
      <path class="cls-1" d="M102.08,38.86c-2.51-.4-3.97,.84-2.9-1.88,.13-.34-.26-.69-.58-.58-1.12,.36-5.69,1.4-9.03,1.58,.06-.05,.11-.1,.17-.14,.27-.19,0-.64-.26-.45-.26,.19-.49,.41-.74,.61-2.06,.01-3.4-.41-2.66-1.72,.1-.18,.08-.43-.07-.57-1.3-1.18-8.74-.57-8.57-.93,.12-.27-.02-.64-.36-.62-3.09,.14-2.5,1.55-1.03-1.69,.12-.26-.07-.59-.39-.5-6.2,1.71-11.94,5.55-15.02,11.29-1.77-.34-3.58-.5-5.26-.62-.47-.03-1.02-.06-1.6-.08,4.28-1.32,8.46-3.5,8.84-8.17,.02-.25-.23-.36-.44-.34-.15,.02-.3,.07-.45,.1,5.42-2.46,11.26-5.61,13.64-11.04,.11-.25-.25-.48-.38-.22-3.2,6.37-10.73,9.39-16.87,12.18-.37,.17-.05,.71,.32,.54,.08-.04,.17-.08,.26-.11-1.02,.68-1.97,1.51-2.85,2.29-.43,.38-.87,.77-1.32,1.18,1.55-2.59,1.05-5.02,.81-7.99,3.59-1.27,6.94-4,8.69-6.78,.19-.3-.01-.63-.3-.74-3.3-1.32-7.22-.94-10.83,.3,.13-.14,.27-.28,.39-.43,1.94-2.47,.42-5.29,1.37-8.01,.09-.26-.2-.58-.47-.47-2.74,1.11-4.76,3.03-6.53,5.22,.7-3.13,.18-6.62-1.05-9.92-.09-.23-.34-.45-.61-.35-6.46,2.45-7.34,8.26-5.43,13.8-1.99-2.86-7.12-3.88-8.5-7.16-.14-.33-.6-.38-.72,0-1.66,5.05,2.61,13.5,8.68,11.96-1.46,1.22-2.7,2.64-3.64,4.25-.43-3.76-3.23-6.91-5.26-10.06-.08-.12-.22-.22-.37-.21-.06,0-.13,0-.19,.01-.21,.01-.32,.12-.4,.31-1.96,4.63-4.05,9.72-2.66,13.92-.37-.28-.73-.55-1.1-.8-.58-.39-1.22-.64-1.9-.81,.02-.07,.02-.15-.04-.22-.55-.67-1.2-1.3-1.92-1.91,1,.61,2.04,1.15,2.98,1.68,.23,.13,.43-.22,.21-.35-2.75-1.69-5.49-3.22-6.77-6.38-.78-1.94-.8-4.35-.57-6.64,.94,4.42,3.23,8.52,6.93,11.3,.21,.16,.41-.17,.26-.34-3.3-3.97-6.07-7.55-7.04-12.32,.1-.73,.21-1.45,.33-2.1,.39-2.32,1.35-.12,2.54,.8,3.68,2.83,4.48,5.82,5.02,10.35,.05,.41,.67,.43,.65,0-.08-1.47-.22-2.91-.54-4.3,.15,.11,.31,.21,.49,.31,.2,.11,.46-.18,.26-.34-.52-.41-.89-.92-1.16-1.47-.09-.27-.2-.54-.31-.81-.71-2.44,.16-5.69,1.14-8.28-.86,3.2-.92,6.68,.38,9.31,.12,.24,.44,.06,.41-.17-.84-5.1-.62-10.34,2.17-14.88,.05-.08,0-.14-.06-.16,.42-.45,.87-.66,1.28-.31,2.98,2.51,4.16,5.62,4.33,9.25-.26,.48-.51,.97-.73,1.49-.11,.26,.26,.49,.38,.22,.11-.22,.24-.43,.36-.65,0,.12,0,.23,0,.35,0,.23,.33,.27,.39,.05,.14-.49,.22-.97,.27-1.45,.56-.78,1.2-1.5,1.89-2.14,1.15-1.04,2.84-1.48,3.87-2.58,.13-.14,.04-.37-.15-.37-1.45-.02-2.93,1.25-3.99,2.15-.62,.53-1.12,1.11-1.57,1.74-.11-3.66-2.56-6.86-5.4-9.23-.15-.12-.34-.13-.49,0-2.36,2.1-5.79,8.78-5.66,13.62-1.5-1.82-3.95-2.93-5.35-4.83-.18-.24-.59-.25-.68,.09-.15,.58-.28,1.16-.41,1.75-.02-.35-.04-.71-.04-1.08,0-.19-.29-.19-.29,0-.01,.79,.02,1.57,.09,2.36-.53,3.16-.57,6.39,.27,9.51,.36,1.35,1.16,2.4,2.16,3.3-5.33-3.39-12.89-4.87-17.79-1.32-.25,.18-.3,.49-.09,.72,1.6,1.78,2.79,3.76,4.59,5.35,1.98,1.74,5.02,2.62,7.38,3.65,.07,.03,.15,.02,.21-.01,1.56,1.62,3.44,2.88,5.64,3.68,1.81,.66,3.59,1.07,5.47,1.28-3.95,2.03-7.72,5.15-5.74,9.19-.53-.24-1.06-.52-1.59-.82-.55-.32-4.47-2.99-3.68-3.2,2.02-.55,3.93-1.34,5.99-1.78,.49-.1,.28-.84-.21-.75-2.47,.47-4.79,1.42-7.22,2.06-.29,.08-.42,.48-.18,.69,3.56,3.12,7.56,5.7,11.82,5.89-.99,.63-1.89,1.54-2.73,2.94-2.2,3.66-1.91,8.63-1.8,12.71,0,.29,.26,.44,.52,.4,.73-.11,1.53-.34,2.35-.66-.04,.04-.08,.08-.13,.12-.03,.03-.05,.07-.05,.11-1.7,1.17-3.17,2.52-4.13,3.68-.18,.21-.17,.44,0,.66,.26,.34,.57,.66,.9,.96,.02,.03,.02,.06,.05,.08,.05,.04,.12,.07,.18,.11,1.19,1.01,2.74,1.8,4.45,2.3-1.22,1.19-2.6,2.11-3.91,3.21-.77,.65-2.38-2.77-2.69-3.43-1.62-3.38-2.58-8.22-.18-11.42,0-.01,0-.02,0-.03,1.68-1.83,2.72-4.21,2.68-7.29,0-.26-.4-.26-.41,0-.26,6.99-5.89,10.09-12.02,11.55-1.57,.37-1.41,.31-1.56-1.19-.29-2.88-.37-4.31,1.5-6.62,2.55-3.15,6.43-6.22,10.57-6.54,.54-.04,.55-.89,0-.85-.08,0-.16,.02-.25,.03-.01-.07-.08-.14-.17-.12-3.39,.55-10.1,.91-12.48-2.24,2.46,.2,4.96,.28,7.41,.62-.14,.12-.18,.37,.02,.5,.51,.32,1.69,.85,2.18,.24,.09-.11,.05-.25-.08-.3-.22-.08-.43-.05-.67-.06-.34,0-.67-.15-.96-.32,1.53,.23,3.05,.57,4.51,1.12,.49,.19,.69-.59,.22-.78-4.22-1.66-8.95-1.51-13.4-1.92-.33-.03-.48,.36-.35,.62,1.75,3.6,6.89,3.84,10.9,3.3-2.31,.89-4.33,2.48-6.22,4.15-1.37,1.21-2.55,2.69-3.44,4.29-1.25,2.25,.24,4.38-.13,6.74-.05,.3,.17,.54,.48,.48,3.56-.69,7.25-1.86,10-3.94-2.13,4.33,.78,12.15,4.13,14.53,.13,.1,.36,.06,.47-.06,1.38-1.56,3.4-2.27,4.33-4.17,3.07,.79,6.52,.69,9.07-.64-.85,1.55-1.47,3.21-1.67,5.1-.39,3.87,4.01,8.12,6.13,10.9,.22,.29,.73,.4,.92,0,1.69-3.53,4.93-6.23,4.96-10.38,.02-1.89-.52-4.3-1.62-6.17,4.76,4.72,10.87,5.46,16.8,1.64,.19-.12,.07-.42-.15-.37-3.42,.87-6.01,3.06-9.78,2.14-2.91-.71-5.96-2.88-7.86-5.13-.05-.05-.1-.07-.15-.07,.44-.48,.55-1.28,.55-1.89,0-.62-.1-1.44-.61-1.86-.03-.02-.05-.03-.08-.05,.23-.22,.46-.45,.7-.65,.31-.27,.7-.38,.93-.73,.08-.13,0-.26-.12-.31-.49-.21-1.03,.12-1.47,.57,.06-.21,.03-.45-.1-.71-.32-.62-1.22-1.04-1.9-.88-.9,.22-.83,1.51-.28,2.11,.1,.18,.27,.33,.54,.36,.41,.06,.9-.06,1.25-.29-.08,.12-.15,.24-.2,.35-.38,.04-.74,.28-1.03,.58-.17-.2-.37-.39-.65-.54-.16-.09-.37-.07-.5,.07-.21,.23-.41,.58-.47,.93-.08-.11-.25-.18-.35-.05-.25,.3-.49,.61-.74,.91-.03,.02-.07,.03-.09,.07-.06,.11-.14,.2-.2,.3-.31,.4-.62,.79-.92,1.19-2.85,3.14-7.42,3.84-11.48,2.56,4.82,.7,10.86-.71,12.27-4.81,.08-.24-.29-.34-.38-.1-2.05,5.45-10.83,4.73-15.5,3.11-.6-.5-1-1.12-.36-1.76,1.13-1.14,2.45-2.08,3.8-2.95,3.25-2.11,7.58-3.7,10.96-1.04,.23,.18,.52-.09,.33-.33-2.18-2.63-5.49-2.49-8.68-1.19,1.78-1.14,3.5-2.57,4.89-4.16,.17,.69,.68,1.55,.81,1.73,.91,1.31,2.26,2.88,3.78,3.65-.02,.02-.05,.04-.06,.07-.17,.43-.36,.83-.2,1.29,.12,.35,.45,.55,.8,.6,.44,.07,.9-.01,1.33-.08,.36-.06,.45-.32,.47-.64,.03-.52-.11-1.32-.59-1.62-.41-.26-.8-.04-1.07,.32-1.37-.62-6.02-4.67-4.6-5.97,.05-.04,.03-.11,0-.16,.93-1.2,1.64-2.46,2.05-3.73,.42,1.55,.99,3.07,2.06,4.5,1.91,2.54,4.83,4.22,7.53,5.78,.38,.22,.78-.14,.7-.54-.99-4.79,1-8.8-2.57-12.78,1.22-.82,2.42-1.67,3.41-2.8,1.82-2.07,1.39-4.86,1.52-7.44,.03,0,.06-.01,.09-.02,.25-.09,.45-.26,.62-.45,1.36,2.96,4.99,5.65,8.04,6.01,.14,.02,.27,.02,.4,.02-.04,.47-.03,.94-.15,1.41-.16,.63-.58,1.22-.98,1.72-.54,.69-1.21,1.29-1.72,2-.01,0-.02,0-.03,0-.09-.01-.12,.09-.08,.15-.02,.02-.03,.04-.05,.06-.08,.13,.08,.28,.2,.2,.06-.04,.13-.09,.2-.14,1.48,.4,2.99,.17,4.48,.64,1.63,.51,3.04,1.55,4.7,1.99,.17,.04,.26-.19,.11-.28-1.47-.9-3.03-1.7-4.65-2.31-1.45-.55-2.86-.22-4.32-.28,.13-.1,.26-.2,.4-.32h0c3.68-1.54,6.39-1.72,10.04,.08,2.65,1.31,4.99,3.26,7.47,4.86,1.06,.68-4.23,2.25-3.31,1.97-2.31,.72-4.82,.43-7.11-.12-3.36-.8-5.46-4.18-8.35-5.86-.13-.07-.25,0-.31,.1-.04,0-.06,.02-.1,.03,.07-.19,.11-.39,.14-.58,.03-.23-.05-.47-.3-.54-.59-.16-1.35-.36-1.88,.06-.2,.16-.31,.41-.36,.66-.15,.02-.28,.14-.24,.34,.01,.07,.03,.14,.05,.2-.64,.98-1.64,1.83-2.53,2.55-.52,.42-1.07,.81-1.66,1.13-.15,.08-1,.55-1.19,.44-.12-.07-.27,.02-.27,.15,0,1.32,2.22-.25,2.54-.47,.6-.42,1.33-.94,1.98-1.55-.86,1.74-1.1,4.32-1.17,5.63-.28,4.85,3.28,7.99,6.18,11.35,.24,.27,.72,.12,.8-.21,1.39-5.71,3.54-12.04,.16-16.99,2.2,2.05,4.42,3.91,7.5,4.66,3.83,.93,7.72-.15,10.76-2.52,.2-.16,.11-.49-.08-.61-4.62-2.8-11.51-9.35-17.21-6.38,.8-1.04,1.3-2.23,.84-3.23,4.29-.04,6.73-4.12,9.27-7.2,.18-.22,.17-.54-.09-.7-.28-.17-.57-.31-.86-.46-.06-.15-.24-.26-.42-.21-.26-.12-.52-.22-.79-.32,0,0,.02,0,.02,0,1.27-.98,1.89-2.44,2.53-3.88,.84-1.89,1.87-3.4,3.05-5.09,.05-.06,.03-.12,0-.17,2.55-1.57,7.14-3.96,3.76,.38-.25,.32,.06,.84,.46,.6,3.17-1.98,2.81-1.67,2.24-.25-.1,.26,.16,.54,.41,.54,.05,0,.09,0,.14,0-5.42,5-6.49,13.49-12.99,17.42-1.28,.16-2.57,.31-3.85,.44-.39,.04-.41,.6,0,.62,1.74,.08,3.47,0,5.2-.17,1.25,.75,2.26,1.78,3.34,2.74,.48,.43,1.07,.92,1.71,1.27-.45-.03-.91,0-1.33,0-.53,0-.52,.77,0,.81,1.26,.37,2.51,.74,3.76,1.12,.4,.21,.81-.21,.6-.6,.56,.39,1.12,.77,1.68,1.16,.35,.2,.83-.22,.58-.58-.75-1.09,3.93,.06,4,.08,1.23,.38,2.47,.68,3.72,1,.33,.08,.73,.19,1.16,.3,0,.04,0,.08,.02,.12,1.74,2.29,3.33,4.62,4.67,7.16-.14-.09-.26-.19-.41-.28-.46-.31-1-.55-1.55-.76,.07-.09,.11-.21,.05-.32-2.58-4.82-13.29-4.64-17.07-1.66-.14,.1,.05,.34,.18,.24,3.87-2.93,12.84-2.15,16.16,1.51-.44-.15-.88-.28-1.3-.42-.49-.16-.81,.48-.48,.83,.46,.49,.85,.87,1.38,1.28,.81,.48,1.47,1.1,1.96,1.89-1.03-.75-2-1.57-2.9-2.47-.34-.32-.78,.08-.61,.47,.78,1.78,1.93,3.28,2.93,4.94,.72,1.57,1.03,3.2,.94,4.88,0,.33-.24,1.96-.26,3-2.21-5.1-7.7-8.5-12.45-11.13-2.07-2.01-4.48-3.6-7.49-4.32-.21-.05-.29,.25-.09,.32,.86,.28,1.67,.63,2.42,1.01-.08,.05-.13,.15-.07,.25,2.44,4.57,4.96,13.66,11.13,14.49,.18,.02,.29-.19,.13-.3-2.98-1.93-5.03-3.72-6.91-6.81-1.46-2.41-2.6-5.01-3.98-7.48,5.58,3,8.53,8.68,12.24,13.83,.23,.32,.77,.02,.54-.31-.68-1.01-1.37-2.06-2.06-3.11,2.57,2.2,4.97,4.48,5.9,7.9,.08,.3,.5,.22,.52-.07,.26-3.9-4.47-6.93-7.32-9.18-1.22-1.82-2.52-3.61-3.97-5.19,5.13,3.03,11.11,7.26,11.59,13.42,.04,.51,.84,.49,.78,0-.07-.58-.19-1.14-.34-1.68,.02,0,.04,0,.06-.01,.18-.04,.3-.22,.3-.4,.12-3.32,.55-6.46-.88-9.53-.63-1.35-1.73-2.55-2.51-3.83,.54,.89,1.77,1.94,2.92,2.77,.29,.21,.76-.07,.74-.42-.12-1.43-.92-2.29-1.86-3.1,.91,.43,1.76,.96,2.59,1.69,.37,.33,.89-.08,.68-.52-1.53-3.11-3.4-5.87-5.59-8.52,1.71,.37,3.71,.59,4.8-.51,.1-.11,.19-.21,.27-.32,.22,.14,.4,.25,.48,.29,.53,.3,1-.5,.48-.81-.16-.1-.33-.2-.49-.3,.03-.05,.06-.1,.09-.15,.18,0,.36,0,.54,0,.32,0,.35-.41,.11-.53,.11-.04,.23-.08,.38-.1,1.3-.23,1.94-.34,3.11-.97,2.3-1.24-3.07-4.8,2.56-4.01,.34,.05,.59-.24,.44-.57-1.05-2.22,.61-4.16,.24-6.37-.04-.22-.3-.33-.49-.28-2.33,.6,1.24-2.88,1.91-3.87,.58-.85,.93-1.68,1.12-2.6,.53-.46,1.08-.9,1.68-1.28,.32-.2,.32-.8-.11-.87Zm-61.9,32.7s-.06,.01-.09,.02c-.03-.12-.05-.23-.07-.35,0,0,0-.02,0-.03,0-.01,0-.03,0-.03,.04-.04,.06-.08,.06-.14h0s-.01-.05-.02-.07c.03,0,.02,0,.1,.03,.13,.03,.29,.11,.38,.18,.11,.09,.16,.16,.19,.21-.02,0-.09,.05-.13,.06-.13,.06-.3,.09-.43,.13Zm-.8,3.01c-.07-.28,0-.6,.03-.92,.09,.1,.16,.21,.18,.34,.03,.22-.07,.41-.21,.58Zm-1.05-.7c.01,.21,.07,.4,.22,.57,.04,.04,.09,.05,.14,.06-.01,.32,.05,.63,.34,.98,.14,.18,.4,.12,.55,0,.54-.44,.79-.98,.76-1.49,.04-.02,.08-.04,.11-.07,.17-.16,.37-.4,.56-.47,.11-.04,.07-.04,.15,.05,.19,.2,.24,.76,.24,1.11,0,.42-.04,.89-.25,1.26-.05,.08-.04,.07-.11,.14,.02-.02-.09,.04-.03,.03-.18,.02-.37-.19-.5-.33-.32-.35-.8,.16-.51,.51,.23,.27,.52,.51,.82,.6,.03,.04,.06,.09,.09,.13-.07,.04-.12,.11-.1,.21,.93,5.59,.86,9.98-2.57,14.68-.1,.13,.1,.25,.21,.16,4.32-3.41,4.06-9.6,2.88-14.48,1.71,2.58,2.62,5.73,2.02,8.82-.14,.73-4.49,6.99-4.38,7.14-1.84-2.48-3.8-4.79-4.99-7.68-1.09-2.63,.01-5.35,1.53-7.83,.93-.76,1.64-1.77,2.05-3.03,.26-.37,.52-.74,.76-1.08Zm-1.43-2.14s0,0,.01,.01c0,0,0,0-.01-.01Zm.85-.63c.13-.15,.02-.16,.08,0,.07,.18,.12,.38,.15,.57,0,.04,0,.1,0,.15-.28,.05-.57,.1-.84,.06-.08-.01-.12-.05-.17-.1,.05,.02,.1,.03,.16-.01,.27-.17,.42-.43,.62-.67Zm-.91,.43c-.03-.21,.02-.45,.05-.62,0-.01,0-.02,0-.03,.03,.01,.07,.03,.1,.04-.1,.21-.15,.42-.15,.61Zm15.25-12.91c-.08,.31-.21,.61-.46,.8-.2,.15-.36,.1-.5-.02,.09-.27,.08-.6,.26-.78,.12-.13,.44-.07,.71,0Zm-1.5,1.22c-.11,.05-.21,.11-.31,.18,.07-.13,.14-.25,.19-.38,.04,.07,.08,.14,.12,.2Zm2.84,16.3c-2.5-2.76-4.49-5.17-4.56-9.09-.04-2.44,.8-4.83,2.13-6.83,.17,.09,.37,.13,.61,.09,.01,0,.02,0,.03,0-.12,.83-.06,1.74-.04,2.33,.09,2.59,.56,5.38,1.27,7.87,.04,.13,.24,.1,.24-.03-.02-3.75-1.55-7.17-.57-10.76,.07-.09,.13-.19,.18-.29,3.39,5.7,.78,11.1,1.32,17.13,0,.07,.04,.12,.08,.16-.16-.06-.38-.23-.68-.56Zm2.47-5.84c-.22,1.46-.64,2.9-1.02,4.32-.14,.52-.18,1.08-.26,1.5,.4-5.03,1.37-10.47-.72-15.13,1.93,2.85,2.56,5.57,2,9.31Zm8.01-25.17c.06,.02,.11,.04,.16,.06-1.83,1.75-3.22,4.04-5.65,5-3.48,1.38-7.52-1.45-9.93-3.99,.08-.23,.15-.46,.19-.68,.04-.26-.07-.47-.32-.56-.14-.06-.29-.09-.43-.12,.67-.44,1.41-.77,2.2-1.01-.12,.18-.24,.35-.35,.53-.09,.15,.1,.37,.26,.26,.49-.34,.95-.71,1.39-1.11,4.1-.75,9.09,.45,12.48,1.62Zm-24.36,1.4c-2.65,1.38-4.84,.13-6.48-1.82,1.78,1.22,4.83,1.37,6.5,1.22,.46-.04,.94-.12,1.41-.23-.05,.04-.09,.09-.14,.13-.43,.24-.87,.48-1.3,.7Zm-7.6-4.64c.1,.05,.2,.08,.31,.1-.08,.04-.17,.08-.26,.12-.02-.07-.03-.15-.05-.22Zm.77-1.15c.08-.19,.17-.38,.24-.58-.03,.22-.11,.44-.23,.64,0-.02,0-.04,0-.07Zm13.03,.11c-.11,.97-.52,1.75-1.12,2.36-.22,.19-.43,.38-.65,.56-1.38,1.01-3.33,1.45-4.95,1.58-2.87,.23-4.72-.68-6.57-2.55,.01-.02,.02-.04,.03-.07,.03-.01,.06-.02,.09-.04,2.8,3.65,7.85,.01,11.19-1.15,.41-.14,.24-.79-.18-.65-3.06,1.03-7.73,4.56-10.53,1.6,2.86-1.23,5.62-2.39,8.8-2.74,1.21-.13,2.44,0,3.64,.13,1.92,.18,1.28,1.21,.42,2.12,.13-.36,.21-.74,.24-1.15,.02-.27-.39-.26-.42,0Zm1.99,2.56c.3,0,.6-.02,.9-.07-.06,.03-.13,.06-.19,.09-.03,.01-.06,.02-.09,.03-.02,0-.02,.02-.04,.03-.27,.14-.53,.31-.76,.5,.08-.19,.13-.38,.17-.57Zm2.83-.64c-.13,.02-.25,.05-.37,.08,.38-.16,.75-.35,1.1-.57-.1,.12-.21,.25-.31,.37-.14,.04-.28,.08-.41,.12Zm-4.38,1.62s-.05-.09-.08-.14c.11-.07,.21-.16,.31-.26-.08,.13-.15,.27-.24,.4Zm15.75-9.57c-.21,.07-.65,1.82-.83,2.15-.35,.65-.88,1.16-1.4,1.66-1,.95-2.32,1.6-3.56,2.19-1.01,.48-2.07,.85-3.14,1.2,2.7-2.76,5.07-5.93,8.93-7.2Zm-7.4,2.18c-.75,3.15-3.94,4.93-6.75,5.8-.06-.21-.27-.39-.49-.37-.19,.01-.34,.06-.49,.12,.69-.86,1.17-1.8,1.28-2.82,.03-.24-.21-.4-.42-.42-2.69-.29-5.22-.55-7.9-.06-1.8,.33-3.5,.96-5.16,1.69,.08-.08,.16-.17,.24-.25,.05-.02,.09-.06,.12-.12,.15-.15,.29-.29,.44-.44,3-1.05,5.99-2.43,8.32-4.61,1.83-1.72,2.03-3.73,2.2-5.83,1.39,1.28,3.02,1.9,4.74,2.03-3.04,1.38-5.79,3.86-5.36,7.07,.05,.34,.55,.37,.55,0-.02-3.89,4.61-6.27,7.86-7.12,1.52-.4,1.02,4.49,.82,5.35Zm7.81-12.13c-3.56,4.56-11.31,7.81-16.34,3.97,.02-.28,.05-.56,.09-.84,.04,0,.08,0,.13,0,0,.06,.03,.13,.09,.18,2.62,2.2,5.97,2.02,9.11,1.12,2.27-.65,5.98-2.46,7-4.97,.11,.14,.1,.33-.08,.55Zm-.77-.89c-1.76,1.69-3.17,3.12-5.69,4.1-2.86,1.11-6.49,1.42-9.13-.36,2.34-1.08,4.56-2.27,7.02-3.12,.9-.31,5.76-.98,7.81-.62Zm-7.86-8.04c-.57,2.54,.34,4.96-1.52,7.33-.49,.63-1.12,1.11-1.81,1.53-.72,.34-1.43,.71-2.09,1.11-.72,.35-1.42,.7-2.06,1.11,.09-.47,.21-.94,.38-1.4,.13-.34-.27-.73-.61-.61-.49,.18-.97,.38-1.44,.59,1.22-1.16,2.08-2.48,2.63-3.92,1.8-2.34,3.79-4.47,6.5-5.74Zm-9.05-4.37c2.45-1.5,2.56,5.02,2.53,6.47-.05,1.82-.63,3.36-1.53,4.72-.08,.11-.16,.22-.23,.33-.79,1.11-1.79,2.11-2.87,3.04-.03-.05-.05-.11-.08-.17,2.29-2.44,3.49-5.55,2.93-8.89-.05-.28-.46-.16-.42,.12,.3,1.93,.06,3.55-.84,5.28-.54,1.05-1.32,1.95-1.93,2.95-2.25-4.93-2.89-10.57,2.45-13.85Zm-3.06,14.49c-.08-.02-.16-.05-.24-.07,0-.16,0-.32-.03-.47,.08,.18,.18,.36,.26,.53Zm-1.61,1.82c-5.18,1.25-8.86-5.68-8.14-10.28,2.22,3.36,7.8,4.02,8.69,8.11-1.49-.6-2.71-1.61-3.91-2.87-.22-.23-.57,.12-.35,.35,1.32,1.43,2.67,2.61,4.37,3.32,0,.04,.01,.07,.01,.1,.02,.39,.47,.42,.63,.14,.23,.07,.46,.13,.7,.19,0,0,0,.02,.01,.03-.59,.37-1.16,.77-1.7,1.2,.02-.17-.1-.35-.32-.3Zm5.38-1.56c-.21,.86-.29,1.7-.32,2.65-.08,2.75-.66,4.56-2.72,6.49-1.44,1.36-3.29,2.08-5.03,2.97,1.4-1.19,2.78-2.39,3.7-3.93,.13-.21-.15-.39-.32-.25-1.99,1.62-3.75,3.6-5.54,5.48,.7-1.53,.99-3.48,1.19-4.65,.02-.12,.03-.25,.04-.37,1.69-3.8,4.83-6.65,8.99-8.4Zm-10,8.5c-.42,1.12-.7,2.31-.81,3.56-.18,.52-.4,.99-.64,1.42,0-.03,0-.05,0-.08,1.27-3.48,1.23-7.56-.1-11.07,.81,1.38,1.46,2.84,1.62,4.65,.03,.38,.01,.92-.06,1.53Zm-7.73-2.33c.06-1.29,2.99-9.01,3.26-8.5,.03,.05,.06,.1,.09,.16-.14-.03-.29,.13-.21,.28,2.47,4.71,4.36,9.65,2.85,14.74-.3-.33-.73-.37-1.17-.22-.04-.26-.07-.51-.11-.77-.25-1.58-.17-2.97-.08-4.55,.01-.18-.27-.26-.35-.09-.8,1.68-.38,3.71,.06,5.64-.35,.23-.67,.56-.86,.92-.06,0-.13,.04-.18,.08-.6-.9-1.34-1.73-2.14-2.47-.85-1.47-1.26-3.16-1.16-5.22Zm-22.23-3.03c-.62,.37-1.09,.9-1.33,1.66-.02-.03-.04-.06-.06-.09-.7-.93,.42-1.33,1.4-1.57Zm1.42,5.17c-1-.89-1.82-2.24-2.64-3.36,.05,0,.09-.02,.12-.07,1.46-3.95,9.58-.54,12.41-.25,.2,.02,.2-.26,.04-.32-1.52-.58-4.76-1.65-7.61-1.81,5.25-.19,11.23,2.71,14.74,6.08-3.51-.56-7.9,1.06-10.97,1.34-.32,.03-.57,.36-.38,.67,.37,.61,.79,1.19,1.23,1.74-2.27-1.42-4.86-2.16-6.94-4Zm14.82,8.31c-2.07-.64-3.91-1.72-5.59-3.08-.48-.39-2.98-2.71-1.95-2.85,3.76-.55,8.26-2.26,11.88-.44,.78,.39,1.55,.98,2.28,1.67,.49,.81,1.14,1.58,2,2.29,.29,.4,.57,.81,.81,1.21-.14-.06-.31,.01-.37,.16-2.35-1.27-7.47-4.37-8.62-2.27-.05,.09-.01,.22,.1,.24,.5,.09,.88-.09,1.4-.1,1.08-.02,2.25,.56,3.2,.99,1.29,.59,2.53,1.3,3.87,1.76-.37,.15-.74,.34-1.14,.55-.49,.19-1.02,.4-1.57,.63-2.06,.51-4.35-.15-6.3-.76Zm3.4,3.43c1.9-1.1,4.12-1.78,5.94-3.01,.1-.04,.21-.08,.31-.12,.09,.17,.19,.34,.29,.5-.11,1.85-.81,3.47-1.99,4.91-.12,0-.23-.02-.35-.03-.2,0-.29,.29-.1,.38,.04,.02,.08,.03,.11,.05-.31,.35-.65,.69-1.02,1.02-1.42,1.26-7.78,5.17-7.87,1.42-.06-2.41,2.91-4.1,4.68-5.12Zm-1.96,24.22c-2.11,.87-1.82,.15-1.83-1.9-.01-2.3,.22-4.57,.77-6.81,.65-2.62,2.23-4.78,4.56-5.96,1.25-.12,2.52-.46,3.81-1.07,.6-.11,1.19-.23,1.79-.44,.3,.34,.55,.68,.78,1.02-.09,.03-.18,.1-.18,.23-.21,6.14-3.58,9.99-7.54,13.87-.75,.42-1.48,.78-2.16,1.06Zm5.73-3.49c2.59-3.17,4.28-7.08,4.48-11.1,2.02,3.91-.8,8.09-4.48,11.1Zm8.06-3c-1.02-1.33-1.56-2.87-1.98-4.46,.06-.33,.08-.67,.08-1,.86,1.67,1.83,3.28,2.96,4.84,1.46,2.02,3.45,4.46,5.81,5.57,.02,.23,.04,.46,.07,.69-2.6-1.54-5.07-3.2-6.95-5.64Zm4.82-5.89c2.7,3.22,1.92,6.42,2.01,9.96-2.02-1.87-4.01-3.49-5.71-5.79-1.21-1.62-2.27-3.41-3.19-5.25-.17-.72-.49-1.43-.97-2.11-.11-.26-.23-.53-.34-.79,.49-.22,.88-.69,.95-1.3,.05-.38-.07-.7-.28-.98,.07,.01,.13,.03,.2,.04,.19,.02,.32-.17,.33-.33,0-.13,.21-.2,.21-.38,0-.22-.04-.37-.18-.55-.22-.27-.61-.09-.81,.1-.22-.11-.53,.16-.37,.4,.05,.08,.08,.17,.1,.26-.07-.04-.14-.07-.21-.09,.02-.69-.48-1.32-1.23-1.49-.23-.05-.46,.07-.52,.3-.09,.3-.09,.59-.06,.88-.09,.04-.16,.12-.13,.25,.09,.44,.21,1.04,.66,1.26,.12,.06,.25,.06,.37,.05,.09,.33,.54,.38,.74,.1,.04-.05,.07-.15,.1-.24,.41,.46-.27,1.35-.89,.9-.07-.05-.15-.06-.23-.05-.03-.02-.05-.04-.07-.07-.34-.27-.8,.09-.65,.42-.04,0-.09-.01-.14,.01-.38,.2-.76,.37-1.14,.53-1.31,.27-2.5,.5-3.6,.91-1.99,.17-3.94-.19-5.9-1,3.17-.47,6.94-2.2,9.29-4.8,.12,.04,.23,.08,.35,.12,.43,.15,.92,.42,1.39,.31,.14-.03,.19-.19,.13-.31-.21-.43-.71-.52-1.14-.64-.09-.03-.17-.03-.26-.05,.94-1.2,1.56-2.57,1.71-4.07,1.7,2.41,4.12,4.24,7.18,2.84-.48,.67-.89,1.35-1.25,1.95-2.32,3.89-.05,6.63-.22,10.71-.02,.39,.48,.57,.74,.31,.91-.91,1.96-1.63,3.01-2.33,0,0,0,.02,.01,.03Zm-9.28-7.26c.2,.16,.29,.4,.19,.74-.16,.49-.37,.23-.52-.08,.21-.17,.29-.41,.34-.66Zm11.55,4.64c-1.56,1.45-3.54,2.33-5.19,3.67-.18-2.54-1.43-4.86-.74-7.48,.52-2.01,2.01-4.04,3.78-5.44,.71-.39,1.44-.82,2.14-1.3,.06-.03,.13-.07,.19-.09,.09-.04,.15-.1,.19-.18,.54-.39,1.06-.8,1.52-1.24-.03,.09-.05,.19-.07,.29-.14,0-.29,.08-.27,.23,.08,.62-.03,1,.59,1.35,0,0,.02,0,.02,0-.06,.08-.11,.16-.16,.25-.08,.17,.05,.33,.23,.3,.21-.03,.41-.1,.6-.17-.01,.03-.02,.04-.03,.07-.06,.29-.1,.57-.14,.86-.21-.01-.43-.13-.67-.39-.21-.24-.61,.07-.43,.33,.27,.4,.6,.72,1,.85-.3,2.94-.05,5.72-2.56,8.06Zm3.41-9.28c.01-.08,.02-.17,.04-.25,.03-.18-.07-.31-.2-.38,.09-.01,.18-.02,.26,0,0,0,0,.01,0,.02,.02,.04,.05,.07,.08,.1,0,.03-.02,.04-.01,.07,0,.03,.02,.06,.03,.1-.06,.12-.13,.24-.2,.35Zm16.54,1.03c-1.15,1.47-2.32,2.85-3.84,3.97-3.29,2.44-8.91-.42-11.12-3.86,2.09,2.11,4.86,3.51,7.87,3.67,3.57,.19,5.59-3.46,7.9-5.65,.81,.44,.07,.75-.8,1.87Zm-.04-3.37c-.05,.05-.04,.12-.02,.17-.92-.34-1.89-.61-2.87-.81,1.89-2.9,4.11-5.09,6.91-7.09-1.75,2.14-2.19,5.74-4.02,7.73Zm33-4.97c-.34,.37,0,.87,.46,.79,2.01-.32,2.79-.25,2.9,.04,0,0,0,0-.01,.01-.02,.13-.07,.25-.1,.37-.51,.71-2.36,1.88-3.27,2.82-3.4,3.51-7.23,5.44-11.94,6.65-3.39,.87-6.83,1.64-10.29,2.32,3.08-1.06,5.98-2.8,8.61-4.61,2.92-2.01,6.59-4.82,7.73-8.39,1.01-.05,2.2-.26,3.14-.4,.59-.09,4.86-1.94,2.78,.39Zm-6.5,.02c-1.86,4.35-6.81,8.37-11.91,10.95,3.84-3.21,6.25-7.74,9.98-11.04,.61,.06,1.25,.09,1.92,.1Zm-12.78-2.68c.91,0,1.81-.02,2.72-.08-1.46,.06-.81-.04,.35-.09-1.46,1.67-2.76,3.44-4.35,5.02-1.76,1.75-3.65,3.36-5.45,5.07,1.96-3.55,3.69-7.33,6.73-9.92Zm-6.92,10.28c.05,.09,.17,.15,.27,.06,3.43-3.19,7.92-6.27,10.15-10.51,1.72-.05,4.04,.06,2.78,.87-.36,.23-.26,.71,.11,.86,1.32,.51,2.52,.79,3.77,.95-3.86,3.6-6.31,8.53-10.56,11.74h0c-2.32,1.06-4.61,1.81-6.59,2.12-.03,0-.05,.02-.07,.05-1.93,.33-3.87,.62-5.8,.88,2.66-1.67,4.39-4.24,5.95-7.01Zm5.14,12.23c-.69-.05-1.39-.15-1.78,.53-.11,.18-.14,.33-.14,.44-.2-.17-.59-.41-1.33-.73-.4-.17-.81,.18-.6,.6-.13-.26-.3-.43-.5-.58,.12,0,.24,0,.36-.01,.19-.03,.18-.29,.05-.38-.6-.41-1.33-.58-1.96-.96-.7-.42-1.3-1-1.9-1.54-.68-.61-1.37-1.23-2.18-1.63,.13-.01,.25-.03,.38-.05,3.21,.82,6.71,1.11,10.24,.89-.04,.04-.04,.12,.04,.14,2.73,.73,4.88,2.67,7.47,3.73,1.57,.64,3.28,.89,4.98,.98,.06,.11,.14,.22,.25,.33-2.14,2.63-10.75-1.58-13.38-1.76Zm20.63-6.97c-.6,1.93,.61,1.99-2.72,1.45-.35-.05-.62,.19-.55,.55,.31,1.6,1.66,4.35-.99,4.77-1.03,.16-2,.25-2.92,.76-.14,.07-.23,.16-.29,.24-2.24-.15-4.38-.52-6.49-1.55-1.98-.97-3.69-2.19-5.86-2.69,6.91-.45,13.89-2.84,18.98-6.78,.03,0,.05,.02,.08,.02,2.24-.3,1.18,1.86,.75,3.23Zm-1.1-3.82s-.03,.09-.04,.13c-8.7,5.02-17.38,7.13-27.1,6.04,5.07-.83,10.1-2.31,15.07-3.25,3.89-.74,7.37-1.98,10.75-4.02,2.11-1.27,3.68-3.24,5.45-4.98-1.06,2.19-2.84,4.1-4.14,6.08Z"/>
      <path class="cls-1" d="M85.08,84.87c.24-.32-3.95-1.79-4.58-1.85-.29-.03-.54,.27-.54,.54-1.33-.24-2.51-.77-3.56-1.59-.26-.16-.72-.02-.77,.31-.11,.78-5.83-3.85-6.65-4.47-.34-.25-.71,.1-.75,.43-.28,2.23-2.38-.45-3.07-.97-.12-.09-.28-.09-.41-.02-1.52-1.67-2.63-2.97-3.33-5.29-.22-.73-.35-1.48-.45-2.23,1.29,2.53,2.79,5.06,4.93,6.96,.18,.16,.51-.05,.36-.27-1.72-2.41-3.8-4.54-5.18-7.18-.04-.08-.12-.09-.18-.06-.13-1.16-.21-2.34-.39-3.5-.03-.17-.26-.1-.28,.04-.44,3.31,.51,10.4,4.22,11.94-.4,1.46-.32,.98-.36,2.64-.02,.65-3.02-2.79-3.4-3.41-1.4-2.29-2.42-4.84-3.59-7.26-.1-.2-.38-.03-.29,.17,1.8,4.23,3.28,9.81,7.53,12.23,.27,.16,.63-.04,.62-.36-.03-3.42,.94-2.44,2.83-.78,.31,.27,.72,.14,.86-.23,.89-2.27,1.87-.32,3.18,.98,1.17,1.15,2.32,1.92,3.84,2.56,.27,.11,.71,.06,.76-.31,.05-.32,3.43,1.02,3.92,1.14,.34,.09,.68-.16,.68-.52,0-.22,3.6,1.15,4.31,1.24,.18,.02,.42-.16,.45-.34,.01-.07,.02-.15,.03-.22,.06-.47-.46-.7-.75-.32Z"/>
      <path class="cls-1" d="M82.47,68.87c.11,.1,.34,0,.27-.16-1.05-2.55-4.48-3.62-6.99-3.76-.22-.01-.28,.36-.05,.39,2.73,.37,4.81,1.68,6.77,3.53Z"/>
      <path class="cls-1" d="M59.06,21.42c-.51-2.25-.33-4.09,.31-6.3,.39-1.34,2.52-5.86,2.32-1.99-.02,.39,.54,.53,.72,.2,.7-1.3,1.47-2.43,2.36-3.6,.38-.5,.16-1,.34,.09,0,.03,.02,.05,.04,.08-.85,4.9-.56,10.34,1.33,14.93-2.27,2.91-5.09,5.49-7.38,8.3-.15,.18,.09,.43,.27,.26,2.61-2.49,5.15-5.25,7.31-8.24,.2,.12,.56-.06,.45-.33-.03-.07-.05-.14-.08-.21,4.3-6.16,6.9-13.28,5.18-21.05,2.76,5.03,3.57,10.64,2.92,16.4-.04,.39,.47,.51,.71,.29,1.77-1.56,.69,.8,2.04,1.6,4.81,2.88-.78,7.16-3.02,9.76-.12,.14,.03,.36,.2,.26,2.9-1.68,5.32-4.29,6.02-7.62,.56-2.65-3.26-3.08-3.4-5.81-.02-.38-.45-.55-.73-.3-1.5,1.34-.86-.12-.82-1.64,.05-1.79-.21-3.55-.48-5.31-.54-3.54-2.11-6.65-4.11-9.56-.15-.21-.5-.01-.35,.21,.07,.1,.12,.21,.19,.32-.16,.08-.27,.23-.21,.45,1.39,5.21,.29,10.84-1.24,15.9-.64,2.13-1.73,4-3.02,5.75-1.75-4.58-1.7-9.35-1.32-14.17,.04,0,.08-.01,.11-.03,.81-.38,1.36-.84,1.83-1.42-1.12,3.74-2.14,7.98-1.63,11.89,.02,.17,.3,.25,.33,.04,.61-4.02,.75-7.97,1.76-11.95,.05-.19-.12-.29-.26-.26,.25-.35,.48-.74,.72-1.18,1.17-2.19,.49-2.4,1.02,.35,.07,.34,.6,.41,.75,.1,1.16-2.36,.64-4.87,.82-7.42,.02-.26-.37-.3-.44-.06-.3,1.09-.34,2.04-.36,3.18,0,.98-.05,1.96-.17,2.94-.13-.74-.32-1.47-.58-2.18-.12-.38-.66-.39-.77,0-.17,.62-.37,1.22-.59,1.83-.21,1.44-1.02,2.26-2.42,2.46-.05-.41-.5-.53-.75-.2-.86,1.13-1.71,2.25-2.5,3.43-.04-.38-.08-.76-.09-1.14,0-.2-.25-.38-.43-.24-2.89,2.09-5.38,8.09-3.27,11.37,.13,.21,.45,.08,.4-.17Z"/>
      <path class="cls-1" d="M74.22,14.26c-.13,6.45-4.57,11.03-9.23,14.87-.17,.14,.05,.36,.22,.28,5.36-2.54,9.44-9.28,9.41-15.15,0-.26-.4-.26-.4,0Z"/>
      <path class="cls-1" d="M78.55,23.33c.18-.21-.09-.47-.29-.3-.9,.74-1.78,1.52-2.69,2.26-1.02,.82-2.24,1.41-3.22,2.28-.19,.17,.01,.45,.23,.39,1.07-.25,2.03-1,2.89-1.67,1.13-.88,2.16-1.86,3.08-2.97Z"/>
      <path class="cls-1" d="M38.18,85.37c.12,.18,.43,.08,.36-.15-.91-3.25-.43-6.08,.73-9.2,.07-.18-.23-.31-.32-.13-1.27,2.73-2.7,6.73-.78,9.49Z"/>
      <path class="cls-1" d="M28.33,73.15c-.21-.04-.3,.27-.09,.32,2.37,.52,4.94,.57,7.16-.56,.16-.08,.1-.38-.1-.36-2.39,.27-4.53,1.07-6.98,.6Z"/>
      <path class="cls-1" d="M45.38,72.21c.91-.08,1.85,.39,2.71,.16,.13-.03,.2-.19,.13-.31-.53-.86-1.96-.77-2.83-.68-1.11,.11-2.14,.51-3.01,1.2-.17,.14,.02,.46,.22,.38,.9-.37,1.82-.66,2.79-.75Z"/>
      <path class="cls-1" d="M50.74,75.58c.18-.05,.18-.31,0-.36-1.12-.34-2.31-.26-3.47-.35-1.59-.13-3.19-.43-4.7-.97-.19-.07-.33,.25-.14,.33,2.41,1.1,5.66,2.12,8.3,1.35Z"/>
      <path class="cls-1" d="M12.36,65.1c-.06,.22,.27,.31,.34,.1,.58-1.72,1.84-3.17,3.16-4.38,.7-.64,1.5-1.16,2.34-1.6,.66-.34,1.4-.37,2.03-.72,.16-.09,.11-.32-.05-.37-1.48-.46-3.4,1.09-4.45,1.96-1.57,1.29-2.84,3.05-3.37,5.02Z"/>
      <path class="cls-1" d="M15.44,52.82c.24-.06,.19-.43-.06-.43-3.3,0-6.01-.71-8.84-2.45-1.39-.85-2.57-1.98-3.72-3.12-1.82-1.8-1.57-2.32,.55-3.1,6.01-2.21,12.55-3.43,17.41,1.78,.14,.14,.33-.06,.21-.21-5.39-6.77-13.84-3.85-20.71-1.2-.2,.08-.38,.34-.22,.55,3.32,4.47,9.33,9.79,15.38,8.19Z"/>
      <path class="cls-1" d="M8.1,45.61c2.71,.6,5.46,.87,8.18,1.48,.2,.04,.31-.21,.14-.33-2.33-1.51-5.56-1.14-8.19-1.58-.28-.05-.4,.37-.12,.43Z"/>
      <path class="cls-1" d="M9.3,40.84c-1-1.24-2.14-2.27-3.04-3.61-.74-1.1-1.37-2.26-2.19-3.31-.07-.09-.24,0-.19,.11,1.02,2.42,2.52,6.21,5.17,7.25,.28,.11,.41-.26,.26-.45Z"/>
      <path class="cls-1" d="M19,66.94c-2.07,2.77-2.7,7.25-1.31,10.45,.09,.2,.37,.05,.33-.14-.6-3.43-.45-7.02,1.33-10.1,.13-.23-.2-.4-.35-.2Z"/>
    </g>
  </g>
</svg>