<?xml version="1.0" encoding="UTF-8"?>
<svg id="Layer_2" data-name="Layer 2" xmlns="http://www.w3.org/2000/svg" viewBox="0 0 130.87 107.99">
  <defs>
    <style>
      .cls-1 {
        fill: #7a681f;
      }
    </style>
  </defs>
  <g id="Layer_1-2" data-name="Layer 1">
    <g>
      <path class="cls-1" d="M24.41,90.87l-.25-.08c-6.22-2.04-11.45-6.54-14.36-12.36l-.29-.59c-.49-1-.99-2.04-1.78-2.78-.93-.87-2.41-1.15-3.24-.52-.49,.37-.58,1.1-.42,1.63,.07,.22,.28,.73,.82,.76l-.02,.8c-1.61,0-2.92-.53-3.79-1.51-.83-.94-1.21-2.28-1.04-3.68,.31-2.6,3.18-5.3,5.02-6.47,3.88-2.47,8.73-2.68,13.36-2.68h.7c2.16,0,4.41,.13,5.94,1.56,.75,.7,1.24,1.64,1.7,2.55,.6,1.17,1.17,2.28,2.25,2.75,.69,.3,1.66,.26,2.72,.14,.43-.05,.85-.09,1.27-.1h.17c.44,0,.89,.04,1.33,.12l.19,.04,.09,.17c.39,.75,.65,1.47,.79,2.21,.13,.67,.15,1.36,.18,2.02,.03,.81,.06,1.58,.27,2.32,.71,2.57,3.15,3.88,5.72,5.27,2.05,1.1,4.17,2.24,5.5,4.1,.19,.32,.37,.61,.55,.91l.68,1.1-1.37-.61c-.14-.07-.29-.13-.43-.19-2.79-1.16-5.9-1.77-8.99-1.77-2.8,0-5.53,.48-8.1,1.43-2.04,.75-3.81,1.92-4.99,3.28l-.17,.2ZM5.63,73.37c.93,0,1.92,.41,2.65,1.1,.9,.84,1.43,1.95,1.95,3.02l.29,.58c2.78,5.55,7.74,9.86,13.65,11.87,1.27-1.38,3.08-2.54,5.14-3.31,2.66-.98,5.48-1.48,8.38-1.48s6.01,.56,8.76,1.62c-1.21-1.58-3.17-2.63-5.07-3.65-2.61-1.4-5.31-2.85-6.11-5.76-.23-.83-.26-1.68-.29-2.5-.03-.66-.05-1.28-.17-1.9-.11-.6-.32-1.19-.62-1.81-.33-.05-.66-.08-.99-.08h-.15c-.4,.01-.8,.06-1.2,.1-.47,.05-.96,.1-1.44,.1-.66,0-1.19-.1-1.68-.31-1.34-.58-2.01-1.87-2.65-3.12-.43-.85-.88-1.72-1.54-2.33-1.32-1.24-3.31-1.34-5.4-1.35h-.7c-4.51,0-9.23,.2-12.93,2.55-2.07,1.32-4.41,3.84-4.66,5.89-.14,1.18,.17,2.29,.84,3.06,.44,.5,1.04,.86,1.76,1.05-.05-.11-.1-.22-.13-.35-.29-.95,0-1.98,.71-2.5,.45-.34,1.01-.51,1.62-.51Z"/>
      <path class="cls-1" d="M90.46,73.98l.54-2.17c.03-.1,.05-.19,.07-.29,.35-1.62,.54-3.31,.71-4.96,.32-2.93,.65-5.96,1.92-8.7,.64-1.38,1.52-2.66,2.36-3.9,1.44-2.12,2.81-4.13,3.1-6.53,.17-1.38-.05-2.82-.25-4.21l-.1-.67c-.24-1.69-.39-3.49,.2-5.15,.66-1.89,2.3-3.23,4-3.26h0c1.04,0,2.08,.57,2.68,1.46,.06,.08,.11,.17,.16,.25,.49-2.89-.7-5.73-3.2-7.32-1.23-.78-2.69-1.19-4.24-1.19-1.9,0-3.71,.62-5.09,1.75-.61,.5-1.17,1.12-1.71,1.71-.19,.21-.38,.42-.57,.62h0s0,0,0,0c-.05,.05-.1,.1-.14,.15l-.4,.43-.07-.41-.34-.34c.08-.08,.16-.16,.24-.24-.05-.26-.09-.52-.15-.78-.6-2.87-1.65-5.65-3.12-8.27l-.13-.22,.15-.21c1.75-2.4,4.32-4.75,7.63-6.99,2.82-1.91,6.21-3.86,9.89-3.86h.11c3.67,.04,7.68,2.69,7.78,6.57v.55s-.51-.16-.51-.16c-.81-.24-1.66,.1-2.31,.9-.65,.81-.95,1.92-.75,2.84,.43,2.03,2.26,3.54,3.94,4.8,1.77,1.32,3.79,2.82,4.48,5.07,1.08,3.49-1.42,6.7-3.63,9.53-.45,.58-.9,1.15-1.31,1.72-1.81,2.48-3.05,5.46-3.59,8.62l-.03,.17-.14,.1c-1.11,.77-2.24,1.73-3.36,2.87-3.94,4.02-7.2,8.77-10.35,13.36-1.07,1.56-2.14,3.12-3.25,4.66l-1.22,1.71Zm12.6-39.03c-1.63,.03-2.84,1.43-3.29,2.72-.53,1.5-.39,3.18-.16,4.77l.1,.66c.22,1.44,.44,2.94,.26,4.43-.32,2.59-1.8,4.77-3.23,6.88-.83,1.22-1.68,2.48-2.3,3.79-1.22,2.61-1.54,5.58-1.85,8.44-.13,1.19-.26,2.41-.46,3.61,.72-1.03,1.43-2.07,2.15-3.11,3.17-4.62,6.45-9.39,10.44-13.46,1.11-1.13,2.23-2.1,3.34-2.88,.58-3.22,1.86-6.25,3.7-8.79,.42-.57,.87-1.15,1.33-1.74,2.19-2.8,4.45-5.7,3.5-8.8-.62-2-2.44-3.36-4.19-4.67-1.8-1.34-3.75-2.96-4.25-5.27-.25-1.16,.1-2.5,.91-3.51,.71-.88,1.65-1.33,2.6-1.26-.41-3.11-3.87-5.27-6.95-5.3h-.1c-3.47,0-6.72,1.88-9.44,3.72-3.14,2.13-5.59,4.35-7.28,6.6,1.44,2.62,2.47,5.4,3.08,8.27,.01,.07,.03,.14,.04,.22,0,0,.02-.02,.02-.03,.56-.61,1.14-1.25,1.8-1.79,1.52-1.25,3.51-1.93,5.59-1.93,1.7,0,3.31,.46,4.67,1.32,3.38,2.14,4.6,6.32,2.97,10.16l-.74-.3c.2-.52,.1-1.12-.27-1.67-.46-.67-1.24-1.11-1.98-1.11Z"/>
      <path class="cls-1" d="M66.84,95.68h0c-.67,0-1.31-.07-1.93-.2l-.45-.1,.15-.43c.21-.61,.4-1.26,.57-2.01l.05-.21,.21-.07c.96-.34,1.7-.54,2.35-.64,1.9-9.57,1.47-17.07-1.33-22.93-.63-1.32-1.39-2.6-2.26-3.8l-.09-.13,.02-.16c.51-4.41,2.04-7.91,4.56-10.42,1.03-1.02,2.23-1.88,3.39-2.71,1.88-1.35,3.66-2.62,4.75-4.52,.86-1.5,1.24-3.32,1.6-5.09,.55-2.65,1.11-5.39,3.33-7.04,1.11-.83,2.45-1.2,3.74-1.56,1.13-.32,2.19-.61,3.13-1.19,.92-.57,1.64-1.36,2.41-2.2,.56-.61,1.13-1.25,1.79-1.78,1.52-1.25,3.51-1.93,5.59-1.93,1.7,0,3.31,.46,4.67,1.32,3.38,2.14,4.6,6.32,2.97,10.16l-.74-.3c.2-.52,.1-1.12-.27-1.67-.46-.67-1.24-1.11-1.98-1.11-1.63,.03-2.84,1.43-3.29,2.72-.53,1.5-.39,3.18-.16,4.77l.1,.66c.22,1.44,.44,2.94,.26,4.43-.32,2.59-1.8,4.77-3.23,6.88-.83,1.22-1.68,2.48-2.3,3.79-1.22,2.61-1.54,5.58-1.85,8.44-.18,1.66-.37,3.38-.73,5.04-1.65,7.63-6.77,13.44-10.78,16.96-.37,.33-.75,.64-1.12,.96l-.13,.07c-4.98,1.58-8.76,3.45-11.9,5.88l-.09,.07h-.12c-.29,.03-.58,.04-.87,.04Zm-1.32-.9c.64,.1,1.32,.12,2,.07,3.18-2.44,7-4.32,11.98-5.91,.35-.29,.7-.59,1.05-.89,3.91-3.45,8.92-9.11,10.52-16.53,.35-1.62,.54-3.31,.71-4.96,.32-2.93,.65-5.96,1.92-8.7,.64-1.38,1.52-2.66,2.36-3.9,1.44-2.12,2.81-4.13,3.1-6.53,.17-1.38-.05-2.82-.25-4.21l-.1-.67c-.24-1.69-.39-3.49,.2-5.15,.66-1.89,2.3-3.23,4-3.26h0c1.04,0,2.08,.57,2.68,1.46,.06,.08,.11,.17,.16,.25,.49-2.89-.7-5.73-3.2-7.32-1.23-.78-2.69-1.19-4.24-1.19-1.9,0-3.71,.62-5.09,1.75-.61,.5-1.17,1.11-1.71,1.7-.77,.85-1.57,1.72-2.58,2.35-1.03,.64-2.2,.96-3.33,1.28-1.28,.36-2.48,.69-3.47,1.43-1.97,1.47-2.48,3.94-3.02,6.56-.38,1.83-.77,3.72-1.69,5.33-1.18,2.04-3.11,3.43-4.98,4.77-1.13,.81-2.31,1.66-3.29,2.63-2.36,2.34-3.8,5.64-4.31,9.79,.86,1.2,1.62,2.48,2.25,3.8,2.9,6.08,3.34,13.84,1.33,23.72l-.06,.29-.29,.03c-.61,.07-1.33,.25-2.26,.57-.12,.52-.26,.99-.4,1.44Z"/>
      <path class="cls-1" d="M73.45,51.88l-.08-.7c-.04-.35-.08-.69-.13-1.04-1.06-7.28-4.08-13.65-8.52-17.93-4.43-4.28-10.29-6.59-14.89-8.12l-.35-.12,.09-.36c2.32-9.4,8.57-17.51,16.73-21.69,3.27-1.67,6.02-2.24,8.46-1.76,2.82,.55,5.71,3.11,5.44,6.3h-.8c-.09-1.2-2.03-1.36-2.72-.63-.9,.95-.66,2.58,.02,3.63,.65,1.01,1.66,1.77,2.64,2.51l.51,.39c5.61,4.33,9.66,10.78,11.11,17.71,.07,.33,.13,.67,.19,1.01l.04,.2-.14,.15c-.54,.57-1.2,1.23-2,1.72-1.03,.64-2.2,.96-3.33,1.28-1.28,.36-2.48,.69-3.47,1.43-1.97,1.47-2.48,3.94-3.02,6.56-.38,1.83-.77,3.72-1.69,5.33-.93,1.61-2.3,2.77-3.52,3.7l-.56,.42Zm-23.02-28.42c4.63,1.56,10.41,3.91,14.84,8.19,4.57,4.4,7.67,10.93,8.76,18.39,.02,.12,.03,.24,.05,.36,1-.8,2.03-1.77,2.75-3.03,.86-1.5,1.24-3.32,1.6-5.09,.55-2.65,1.11-5.39,3.33-7.04,1.11-.83,2.45-1.2,3.74-1.56,1.13-.32,2.19-.61,3.13-1.19,.65-.4,1.22-.94,1.7-1.44-.05-.26-.09-.52-.15-.79-1.42-6.74-5.36-13.03-10.82-17.24l-.51-.39c-1.04-.78-2.11-1.59-2.83-2.72-.86-1.34-1.11-3.35,.08-4.61,.72-.77,2.16-.95,3.17-.35-.57-2.05-2.63-3.6-4.66-3.99-2.26-.44-4.83,.11-7.94,1.69-7.85,4.02-13.9,11.78-16.23,20.81Z"/>
      <path class="cls-1" d="M57.13,95.9h0c-.33,0-.66-.02-.98-.06-4.12-.53-7.16-4.79-9.59-8.89-1.2-1.68-3.23-2.77-5.2-3.83-2.61-1.4-5.31-2.85-6.11-5.76-.23-.83-.26-1.68-.29-2.5-.03-.66-.05-1.28-.17-1.9-.43-2.27-2.01-4-3.68-5.83-.9-.99-1.84-2.01-2.58-3.13-5.02-7.55-3.73-13.94,3.93-19.51,0,0,0,0,0,0l.47,.65c-.48,.35-.91,1.19-1.08,1.5-.75,1.43-1.52,3.08-1.21,4.64,.28,1.4,1.65,2.45,2.76,3.09,.91,.52,1.96,.92,3.14,1.19,2.43,.55,5.38,.56,8.96,.01,1.14-.17,2.02-.24,2.86-.21,7.58,.26,15.14,5.64,18.84,13.38,2.9,6.08,3.34,13.84,1.33,23.72l-.06,.29-.29,.03c-1.26,.13-2.75,.73-4.33,1.35-2.09,.83-4.45,1.77-6.72,1.77ZM30.86,46.82c-7.96,7.26-3.28,14.31-1.67,16.74,.71,1.07,1.62,2.07,2.51,3.03,1.67,1.83,3.4,3.72,3.88,6.22,.13,.67,.15,1.36,.18,2.02,.03,.81,.06,1.58,.27,2.32,.71,2.57,3.15,3.88,5.72,5.27,2.05,1.1,4.17,2.24,5.5,4.1,2.35,3.96,5.24,8.05,9.02,8.53,.29,.04,.58,.05,.88,.05h0c2.11,0,4.3-.87,6.42-1.71,1.51-.6,2.95-1.17,4.24-1.37,1.9-9.57,1.47-17.07-1.33-22.93-3.57-7.47-10.86-12.67-18.14-12.92-.79-.03-1.62,.04-2.71,.2-3.68,.56-6.73,.55-9.26-.02-1.25-.29-2.38-.72-3.36-1.28-1.82-1.05-2.87-2.27-3.14-3.63-.32-1.6,.3-3.19,1-4.61Z"/>
      <path class="cls-1" d="M81.42,106.3c-3.16,0-5.72-2.51-7.88-4.87-2.14-2.34-4.73-4.74-7.53-4.36l-1.27,.17,.94-.86c6.86-6.27,16.76-8.46,24.71-10.21,2.2-.49,3.19-.19,4.51,.3,.61,.23,1.29,.49,2.29,.73v-.11s.55,.2,.55,.2c.11,.05,.24,.07,.39,.07,1.25,0,3.37-1.5,4.77-2.5,.42-.3,.79-.56,1.08-.74,.87-.55,1.67-1.27,2.44-1.96,.51-.45,1.02-.91,1.55-1.33,2.33-1.82,5.04-2.83,7.63-2.83h.27c3.05,.08,5.86,1.61,7.32,3.97,1.64,2.66,1.42,6.46-.52,8.84-1.1,1.39-2.5,2.19-3.85,2.19-.9,0-2.2-.35-3.29-2.04l-.35-.55,.65-.07c.43-.05,.8-.27,1.02-.62,.23-.35,.28-.8,.14-1.25-.33-1.06-2-1.45-2.92-1.12-1.28,.47-1.99,1.8-2.3,2.55-.26,.64-.46,1.33-.64,2-.16,.56-.31,1.12-.51,1.67-1.4,3.83-4.91,6.71-8.93,7.34-1.31,.2-3.01,.17-4.68,.08-.76-.04-1.52-.08-2.27-.08-1.62,0-2.83,.19-3.92,.61-1.25,.48-2.4,1.33-3.52,2.14-1.66,1.21-3.37,2.47-5.49,2.6-.13,0-.26,.01-.39,.01Zm-14.37-10.05c2.69,.23,5.08,2.46,7.08,4.64,2.12,2.32,4.64,4.8,7.63,4.6,1.88-.12,3.43-1.25,5.07-2.45,1.16-.85,2.35-1.72,3.7-2.24,1.18-.46,2.48-.66,4.2-.66,.76,0,1.53,.04,2.31,.08,1.61,.08,3.27,.12,4.51-.07,3.69-.58,7.02-3.32,8.3-6.82,.19-.53,.34-1.07,.5-1.61,.19-.69,.39-1.4,.67-2.09,.62-1.51,1.6-2.57,2.76-3,1.3-.48,3.47,.08,3.95,1.63,.21,.68,.13,1.37-.23,1.93-.24,.37-.58,.65-.98,.81,.65,.8,1.44,1.22,2.29,1.22,1.1,0,2.28-.69,3.23-1.89,1.74-2.13,1.94-5.53,.47-7.91-1.32-2.14-3.87-3.52-6.66-3.59h-.25c-2.41,0-4.94,.94-7.14,2.65-.52,.41-1.02,.85-1.51,1.29-.79,.71-1.62,1.45-2.54,2.04-.28,.18-.64,.43-1.04,.72-1.7,1.21-4.1,2.87-5.58,2.62l-.06,.06-.21,.02c-.19,0-.35-.12-.46-.22-1.08-.26-1.83-.54-2.44-.77-1.26-.48-2.08-.71-4.05-.27-7.94,1.75-16.89,3.73-23.52,9.3Z"/>
      <path class="cls-1" d="M64.81,66.12l-.6-.83c-4-5.51-9.94-8.92-15.88-9.12-.46-.02-.92,0-1.39,.04l-.28,.02-.16-.37c-.67-1.58-1.13-3.46-1.38-5.6-3.48-.69-4.76-5-5.07-6.33-.14-.6-.26-1.2-.38-1.81-.42-2.12-.85-4.31-2.2-5.91-1.33-1.57-3.34-2.36-5.32-2.98l-.88-.27c-1.76-.54-3.59-1.09-5.13-2.18-1.75-1.22-3.29-3.5-2.78-5.86,.36-1.65,2.04-3,3.75-3,.67,0,1.29,.21,1.78,.62l.43,.35-1.73,1.1c.03,.21,.12,.4,.27,.56,.54,.58,1.89,.73,2.68,.3,.72-.4,1.28-1.01,1.88-1.66,.46-.5,.94-1.02,1.51-1.45,1.18-.88,2.61-1.31,4.37-1.31,1.9,0,3.85,.49,5.69,1.03,7.22,2.11,15.4,4.5,21.28,10.17,4.57,4.4,7.67,10.93,8.76,18.39,.05,.35,.09,.71,.14,1.06l.03,.23-.18,.14c-.48,.36-.97,.72-1.46,1.07-1.13,.81-2.31,1.66-3.29,2.63-2.38,2.37-3.84,5.72-4.33,9.94l-.12,1.02Zm-16.82-10.76c.12,0,.25,0,.37,0,5.9,.21,11.78,3.43,15.91,8.67,.61-3.96,2.1-7.13,4.43-9.45,1.03-1.02,2.22-1.88,3.38-2.71,.42-.31,.85-.61,1.26-.92-.03-.27-.07-.54-.11-.81-1.06-7.28-4.08-13.65-8.52-17.93-5.73-5.53-13.82-7.89-20.95-9.98-1.78-.52-3.67-1-5.46-1-1.59,0-2.86,.38-3.89,1.15-.51,.38-.94,.85-1.4,1.35-.62,.67-1.25,1.36-2.08,1.82-1.11,.61-2.85,.39-3.65-.45-.36-.38-.53-.84-.5-1.35v-.2s1.09-.68,1.09-.68c-.24-.09-.49-.14-.77-.14-1.33,0-2.69,1.08-2.97,2.37-.43,1.99,.92,3.96,2.45,5.03,1.44,1.01,3.21,1.55,4.91,2.07l.89,.27c1.99,.63,4.23,1.5,5.69,3.23,1.49,1.76,1.94,4.05,2.38,6.27,.12,.6,.24,1.2,.37,1.78,.29,1.25,1.5,5.36,4.71,5.77l.31,.04,.03,.31c.23,2.11,.66,3.96,1.29,5.51,.28-.02,.55-.03,.83-.03Z"/>
      <path class="cls-1" d="M22.1,107.99l-.89-.53c-1.51-.89-2.46-2.47-2.31-3.84,.16-1.38,1.09-2.5,1.84-3.41,.68-.82,1.53-1.84,1.65-2.99,.05-.47-.02-.94-.09-1.44-.04-.31-.09-.63-.1-.95-.22-4.04,3.69-6.94,7.09-8.21,2.66-.98,5.48-1.48,8.38-1.48,3.19,0,6.41,.63,9.29,1.83,.15,.06,.31,.13,.46,.2l.3,.13,.06,.11c1.87,3.04,4.77,7.15,8.47,7.62l.48,.06-.15,.46c-.66,2.01-.46,4.31,.54,6.3l.17,.34-.33,.19c-.9,.51-1.88,.81-2.82,.87-1.92,.13-3.78-.47-5.57-1.03-.36-.11-.72-.23-1.07-.34-2.81-.84-4.68-.85-6.23-.1-1.05,.51-1.98,1.42-2.87,2.31-1.45,1.43-2.95,2.92-5.03,2.71-1.62-.16-2.77-1.3-3.88-2.4-.82-.81-1.66-1.65-2.67-2.05-1.29-.52-2.96-.21-3.98,.74-1.04,.96-1.47,2.56-1.05,3.91l.31,.99Zm15.57-22.03c-2.8,0-5.53,.48-8.1,1.43-3.15,1.17-6.77,3.81-6.57,7.41,.02,.29,.06,.59,.1,.88,.07,.53,.15,1.07,.09,1.64-.15,1.39-1.08,2.51-1.83,3.42-.72,.86-1.53,1.84-1.66,2.98-.09,.8,.37,1.75,1.15,2.48-.08-1.36,.45-2.76,1.46-3.69,1.24-1.15,3.24-1.52,4.82-.89,1.16,.46,2.06,1.36,2.94,2.23,1.06,1.05,2.06,2.04,3.39,2.17,1.71,.17,3.01-1.12,4.39-2.48,.94-.93,1.91-1.89,3.08-2.46,.84-.41,1.82-.62,2.9-.62s2.37,.21,3.91,.67c.36,.11,.72,.22,1.09,.34,1.72,.55,3.5,1.11,5.27,1,.71-.05,1.45-.25,2.15-.59-.88-1.95-1.08-4.14-.55-6.11-3.72-.74-6.49-4.52-8.52-7.81l-.07-.03c-.14-.07-.29-.13-.43-.19-2.79-1.16-5.9-1.77-8.99-1.77Z"/>
      <g>
        <path class="cls-1" d="M67.12,98.86c.55-1.93,1.12-3.9,2.24-5.56,1.12-1.66,2.9-3.01,4.91-3.08,2.01-.07,4.09,1.46,3.8,3.5,.22-1.16-1.25-2.11-2.37-1.75-1.12,.36-1.79,1.56-1.99,2.73-.2,1.17-.05,2.36-.12,3.54-.21,3.34-2.4,6.49-5.47,7.82-3.07,1.33-6.89,.75-9.4-1.47-2.51-2.22-3.55-5.97-2.5-9.15,.56-1.7,1.65-3.21,1.97-4.97,.32-1.76-.57-3.98-2.35-4.13,2.42-.82,5.1,1,6.14,3.34,1.03,2.34,.85,5.01,.65,7.57,.49-3.75,2-7.35,4.38-10.22,1.52,3.98,1.55,8.5,.12,11.82Z"/>
        <path class="cls-1" d="M64.62,107.16c-2.29,0-4.55-.83-6.18-2.28-2.63-2.33-3.71-6.26-2.62-9.57,.24-.73,.57-1.42,.89-2.09,.46-.95,.89-1.85,1.07-2.83,.18-1-.06-2.12-.63-2.86-.25-.33-.7-.74-1.36-.8l-1.91-.16,1.81-.62c.43-.15,.89-.22,1.35-.22,2.09,0,4.31,1.59,5.28,3.78,.52,1.17,.74,2.44,.81,3.69,.8-2.38,2.01-4.59,3.55-6.43l.44-.52,.24,.64c.84,2.21,1.25,4.63,1.18,6.95,.15-.27,.31-.52,.47-.77,1.32-1.97,3.28-3.19,5.23-3.26h.15c1.21,0,2.4,.5,3.2,1.36,.64,.68,.94,1.5,.88,2.37,0,.08-.01,.17-.03,.26l-.79-.13c0-.05,.01-.11,.02-.16,0-.32-.17-.56-.32-.71-.39-.4-1.06-.59-1.56-.43-1.02,.33-1.56,1.46-1.72,2.41-.12,.67-.11,1.35-.1,2.08,0,.47,.01,.95-.02,1.42-.22,3.5-2.52,6.78-5.71,8.16-1.12,.48-2.37,.74-3.64,.74Zm-7.31-20.61c.17,.14,.33,.31,.47,.5,.7,.91,1,2.28,.78,3.49-.2,1.08-.67,2.07-1.13,3.03-.31,.65-.63,1.31-.85,1.99-.99,3.02-.01,6.6,2.38,8.72,1.49,1.32,3.55,2.08,5.65,2.08,1.16,0,2.3-.23,3.32-.67,2.92-1.26,5.03-4.27,5.23-7.48,.03-.45,.02-.91,.02-1.36,0-.73-.02-1.48,.11-2.22,.2-1.18,.91-2.6,2.26-3.04,.41-.13,.89-.13,1.33,0-.64-.61-1.58-.98-2.49-.98h-.12c-1.69,.06-3.41,1.15-4.59,2.91-.55,.82-1.01,1.78-1.44,3.02-.17,.85-.43,1.7-.76,2.48l-.75-.27c.22-.76,.46-1.63,.76-2.48,.52-2.61,.29-5.66-.63-8.43-2.03,2.65-3.39,5.98-3.85,9.46l-.8-.08c.19-2.37,.4-5.06-.62-7.37-.8-1.82-2.57-3.17-4.28-3.3Z"/>
      </g>
      <path class="cls-1" d="M77.85,90.31l1.59-1.32c.37-.31,.74-.62,1.11-.94,.31-.27,.61-.55,.91-.83l.56-.54c.11-.1,.22-.21,.33-.32,.15-.15,.31-.31,.46-.47l.41-.41c.22-.23,.43-.46,.65-.7l.18-.2c.24-.26,.46-.53,.69-.8l.08-.09c.27-.33,.51-.62,.75-.92,.3-.38,.54-.7,.77-1.02,2.29-3.16,3.84-6.45,4.64-9.81l.06-.14c1.1-1.54,2.17-3.09,3.24-4.65,3.17-4.62,6.45-9.39,10.44-13.46,3.18-3.25,6.34-5.03,9.67-5.46,.7-.09,1.44-.14,2.2-.14,2.96,0,6.1,.68,8.63,1.86,1.91,.89,3.63,2.34,4.6,3.87,.75,1.19,1.18,2.96,1.05,4.31-.21,2.03-1.36,3.54-3.01,3.93l-.67,.16,.2-.67c.18-.62,.04-1.29-.41-1.89-.56-.75-1.48-1.24-2.35-1.24-1.94,.05-3.38,1.65-4.05,2.99-.69,1.4-.96,3.01-1.23,4.57l-.14,.8c-.32,1.81-.83,3.87-2.13,5.41-1.38,1.63-3.37,2.41-5.31,3.16-1.48,.58-3.02,1.18-4.23,2.15-1.4,1.12-2.31,2.67-3.28,4.3-.38,.65-.77,1.29-1.18,1.91-1.02,1.52-2.27,2.92-3.74,4.17l-.14,.08c-.54,.18-1,.23-1.39,.16l-.06,.06-.21,.02c-.19,0-.35-.12-.46-.22-1.08-.26-1.83-.54-2.44-.77-1.26-.48-2.08-.71-4.05-.27-3.7,.82-7.31,1.64-10.76,2.74l-1.97,.63Zm13.88-18.1c-.82,3.44-2.42,6.8-4.74,10-.25,.35-.5,.67-.75,1-.29,.37-.53,.67-.78,.97l-.11,.13c-.23,.28-.47,.55-.71,.82l-.19,.2c-.22,.24-.44,.48-.66,.72l-.41,.42c-.16,.16-.31,.32-.47,.48-.11,.11-.23,.22-.34,.33l-.57,.54c-.2,.19-.41,.38-.61,.56,2.92-.84,5.93-1.53,9.01-2.2,2.2-.49,3.19-.19,4.51,.3,.61,.23,1.29,.49,2.29,.73v-.1s.55,.2,.55,.2c.25,.11,.63,.09,1.11-.06,1.38-1.19,2.57-2.52,3.53-3.96,.41-.61,.78-1.24,1.16-1.87,.96-1.62,1.96-3.3,3.47-4.52,1.31-1.05,2.9-1.68,4.44-2.28,1.92-.75,3.74-1.46,4.99-2.93,1.18-1.39,1.64-3.24,1.95-5.03l.14-.79c.27-1.61,.56-3.28,1.3-4.79,1-2.03,2.84-3.38,4.68-3.44h0c1.22,0,2.37,.6,3.08,1.56,.44,.59,.66,1.24,.65,1.88,1.15-.57,1.69-1.88,1.81-3.02,.12-1.17-.27-2.77-.93-3.8-.89-1.41-2.49-2.75-4.26-3.57-2.43-1.13-5.45-1.78-8.3-1.78-.73,0-1.43,.04-2.1,.13-3.14,.41-6.15,2.12-9.2,5.23-3.94,4.02-7.2,8.77-10.35,13.36-1.06,1.54-2.11,3.08-3.2,4.6Z"/>
      <path class="cls-1" d="M33.89,69.37l-1.09-.35c-3.54-1.24-6.8-3.21-9.42-5.71-5.69-5.42-8.76-13.64-8.03-21.46l.05-.47c.11-1.09,.23-2.22-.13-3.21-.39-1.08-1.62-1.85-2.5-1.47l-1.47,.64,1-1.25c.52-.65,1.29-1,2.21-1,1.2,0,2.61,.61,3.59,1.57,.47,.45,.9,.96,1.31,1.45,.87,1.03,1.69,2,2.84,2.5,.54,.23,1.09,.34,1.7,.34,1.49,0,3.02-.68,4.64-1.4,1.45-.65,2.95-1.31,4.49-1.5,2.25-.27,4.53,.43,6.9,2.05l.13,.09,.04,.15c.13,.57,.25,1.15,.36,1.73,.12,.6,.24,1.2,.38,1.79,.29,1.25,1.5,5.36,4.71,5.77l.31,.04,.03,.31c.24,2.19,.69,4.09,1.36,5.67l.21,.51-.55,.05c-.44,.04-.88,.1-1.32,.16-3.68,.56-6.73,.55-9.26-.02-1.25-.29-2.38-.72-3.36-1.28-1.82-1.05-2.87-2.27-3.14-3.63-.32-1.6,.3-3.19,1-4.61-7.96,7.26-3.28,14.31-1.67,16.74,.14,.22,.3,.43,.46,.64l.11,.14v.03s.01,.02,.01,.02c.15,.19,.24,.31,.33,.42,.08,.1,.16,.2,.24,.29l.22,.26c.11,.12,.22,.25,.33,.37l.13,.14c.24,.27,.49,.54,.73,.8,.51,.56,1.02,1.11,1.49,1.68l.66,.99ZM14.03,35.92c.86,.29,1.64,1.04,1.97,1.97,.42,1.16,.3,2.38,.18,3.56l-.05,.46c-.71,7.58,2.27,15.56,7.78,20.81,2.16,2.06,4.78,3.75,7.63,4.95-.14-.15-.27-.3-.41-.45-.24-.27-.49-.54-.73-.8l-.13-.15c-.12-.13-.23-.26-.34-.39l-.22-.27c-.08-.1-.17-.2-.25-.3-.1-.12-.19-.24-.28-.36l-.29-.38v-.04c-.13-.18-.26-.36-.38-.55-5.02-7.55-3.73-13.94,3.93-19.51,0,0,0,0,0,0l.47,.65c-.48,.35-.91,1.19-1.08,1.5-.75,1.43-1.52,3.08-1.21,4.64,.28,1.4,1.65,2.45,2.76,3.09,.91,.52,1.96,.92,3.14,1.19,2.43,.55,5.38,.56,8.96,.01,.28-.04,.56-.08,.84-.11-.56-1.47-.96-3.18-1.18-5.1-3.48-.69-4.76-5-5.07-6.33-.14-.6-.26-1.21-.38-1.82-.1-.52-.2-1.04-.32-1.55-2.15-1.44-4.21-2.07-6.22-1.83-1.43,.17-2.87,.82-4.26,1.44-1.62,.72-3.3,1.47-4.96,1.47-.71,0-1.37-.13-2.01-.41-1.32-.57-2.24-1.66-3.13-2.72-.4-.48-.82-.97-1.25-1.39-.97-.95-2.45-1.49-3.5-1.3Z"/>
    </g>
  </g>
</svg>